M48
; DRILL file {KiCad 5.1.7} date Tue Nov 10 17:58:25 2020
; FORMAT={-:-/ absolute / inch / decimal}
; #@! TF.CreationDate,2020-11-10T17:58:25+01:00
; #@! TF.GenerationSoftware,Kicad,Pcbnew,5.1.7
; #@! TF.FileFunction,Plated,1,2,PTH
FMAT,2
INCH
T1C0.0157
T2C0.0260
T3C0.0315
T4C0.0354
T5C0.0394
T6C0.0433
T7C0.0480
T8C0.0559
T9C0.0563
%
G90
G05
T1
X4.8474Y-1.3219
X4.9751Y-2.5015
X5.3546Y-1.8355
X5.7218Y-3.8858
X6.276Y-2.9992
X6.4087Y-3.0283
T2
X6.7449Y-2.9224
X6.8449Y-2.8224
X6.9449Y-2.9224
X4.5319Y-2.0921
X4.6319Y-1.9921
X4.7319Y-2.0921
X5.6685Y-2.6583
X5.7685Y-2.5583
X5.8685Y-2.6583
T3
X4.4795Y-3.2661
X4.8795Y-3.2661
X4.4815Y-2.4563
X4.8815Y-2.4563
X5.972Y-1.8839
X5.972Y-2.1839
X6.072Y-1.8839
X6.072Y-2.1839
X6.172Y-1.8839
X6.172Y-2.1839
X6.272Y-1.8839
X6.272Y-2.1839
X6.372Y-1.8839
X6.372Y-2.1839
X6.472Y-1.8839
X6.472Y-2.1839
X6.572Y-1.8839
X6.572Y-2.1839
X4.4795Y-3.0642
X4.8795Y-3.0642
X6.6807Y-4.2724
X6.9807Y-4.2724
X6.6783Y-3.802
X6.9783Y-3.802
X6.6476Y-5.6756
X7.0476Y-5.6756
X4.9724Y-1.8913
X4.9724Y-2.1913
X5.0724Y-1.8913
X5.0724Y-2.1913
X5.1724Y-1.8913
X5.1724Y-2.1913
X5.2724Y-1.8913
X5.2724Y-2.1913
X5.3724Y-1.8913
X5.3724Y-2.1913
X5.4724Y-1.8913
X5.4724Y-2.1913
X5.5724Y-1.8913
X5.5724Y-2.1913
X5.6724Y-1.8913
X5.6724Y-2.1913
X4.476Y-5.6787
X4.876Y-5.6787
X4.4795Y-4.2728
X4.8795Y-4.2728
X4.4673Y-1.665
X4.8673Y-1.665
X4.4823Y-4.0705
X4.8823Y-4.0705
X6.6512Y-4.6713
X7.0512Y-4.6713
X5.5673Y-4.8465
X5.6657Y-4.8465
X6.6516Y-5.276
X7.0516Y-5.276
X6.6457Y-4.8717
X7.0457Y-4.8717
X4.4736Y-5.4783
X4.8736Y-5.4783
X4.4795Y-4.472
X4.8795Y-4.472
X4.4764Y-5.2764
X4.8764Y-5.2764
X6.6476Y-5.472
X7.0476Y-5.472
X6.6728Y-4.0319
X6.9728Y-4.0319
X4.4795Y-3.6673
X4.8795Y-3.6673
X5.789Y-1.2504
X5.789Y-1.6504
X5.5673Y-3.8323
X5.6657Y-3.8323
X4.4846Y-2.6587
X4.8846Y-2.6587
X6.6457Y-5.0717
X7.0457Y-5.0717
X6.6512Y-4.4657
X7.0512Y-4.4657
X4.4795Y-3.4654
X4.8795Y-3.4654
X4.4846Y-2.8606
X4.8846Y-2.8606
X4.4795Y-4.6709
X4.8795Y-4.6709
X4.4795Y-4.8732
X4.8795Y-4.8732
X4.4795Y-5.0744
X4.8795Y-5.0744
X4.4728Y-1.4677
X4.8728Y-1.4677
X4.4795Y-3.8685
X4.8795Y-3.8685
T4
X4.6193Y-1.2004
X4.7193Y-1.2004
T5
X6.7228Y-3.5535
X6.9197Y-3.5535
X6.852Y-2.0874
X6.852Y-2.1874
X6.852Y-2.2874
X6.852Y-2.3874
X6.852Y-2.4874
X6.952Y-2.0874
X6.952Y-2.1874
X6.952Y-2.2874
X6.952Y-2.3874
X6.952Y-2.4874
X5.6957Y-3.5386
X5.7941Y-3.5386
X5.8925Y-3.5386
X6.1701Y-1.6858
X6.2685Y-1.6858
X6.3669Y-1.6858
X4.9268Y-0.9823
X5.1236Y-0.9823
X6.1661Y-2.8004
X6.2646Y-2.8004
X6.363Y-2.8004
X6.0441Y-0.9823
X6.2409Y-0.9823
X6.4091Y-0.9823
X6.6059Y-0.9823
X5.8256Y-4.8354
X6.0224Y-4.8354
X5.2992Y-0.9823
X5.4961Y-0.9823
X5.1988Y-2.802
X5.2972Y-2.802
X5.3957Y-2.802
X5.1988Y-1.6815
X5.2972Y-1.6815
X5.3957Y-1.6815
X6.7169Y-3.2854
X6.9138Y-3.2854
X5.8169Y-3.8217
X6.0138Y-3.8217
X5.6717Y-0.9823
X5.8685Y-0.9823
T7
X6.3469Y-5.3256
X5.2335Y-2.9512
X6.3398Y-3.5622
X5.2327Y-5.322
X5.2335Y-4.7315
X6.3421Y-4.7358
X5.2335Y-3.5461
X6.3425Y-2.9701
X5.7878Y-5.1063
X6.3429Y-4.15
X5.2335Y-4.1366
T8
X6.3398Y-3.6843
X5.2327Y-5.4441
X5.2335Y-4.8535
X6.3421Y-4.8579
X5.2335Y-3.6681
X6.3425Y-3.0921
X5.7878Y-5.2283
X6.3429Y-4.272
X5.2335Y-4.2587
X6.3469Y-5.4476
X5.2335Y-3.0732
T9
X5.2335Y-4.5854
X6.3398Y-4.011
X5.2327Y-5.7709
X5.2335Y-5.1803
X5.2335Y-3.9949
X6.3425Y-3.4189
X5.7878Y-5.5551
X6.3429Y-4.5988
X6.3469Y-5.7744
X5.2335Y-3.4
X6.3421Y-5.1846
T5
G00X5.822Y-4.1677
M15
G01X5.7709Y-4.1677
M16
G05
G00X5.822Y-4.3429
M15
G01X5.7709Y-4.3429
M16
G05
G00X5.822Y-4.5181
M15
G01X5.7709Y-4.5181
M16
G05
T6
G00X5.6051Y-3.2295
M15
G01X5.6051Y-3.2571
M16
G05
G00X5.9831Y-3.2295
M15
G01X5.9831Y-3.2571
M16
G05
G00X6.0795Y-1.3768
M15
G01X6.0795Y-1.4043
M16
G05
G00X6.4575Y-1.3768
M15
G01X6.4575Y-1.4043
M16
G05
G00X6.0756Y-2.4913
M15
G01X6.0756Y-2.5189
M16
G05
G00X6.4535Y-2.4913
M15
G01X6.4535Y-2.5189
M16
G05
G00X5.1083Y-2.4929
M15
G01X5.1083Y-2.5205
M16
G05
G00X5.4862Y-2.4929
M15
G01X5.4862Y-2.5205
M16
G05
G00X5.1083Y-1.3724
M15
G01X5.1083Y-1.4
M16
G05
G00X5.4862Y-1.3724
M15
G01X5.4862Y-1.4
M16
G05
T0
M30
