%TF.GenerationSoftware,KiCad,Pcbnew,5.1.7*%
%TF.CreationDate,2020-11-08T18:51:04+01:00*%
%TF.ProjectId,AS3340-VCO,41533333-3430-42d5-9643-4f2e6b696361,rev?*%
%TF.SameCoordinates,Original*%
%TF.FileFunction,Copper,L2,Bot*%
%TF.FilePolarity,Positive*%
%FSLAX46Y46*%
G04 Gerber Fmt 4.6, Leading zero omitted, Abs format (unit mm)*
G04 Created by KiCad (PCBNEW 5.1.7) date 2020-11-08 18:51:04*
%MOMM*%
%LPD*%
G01*
G04 APERTURE LIST*
%TA.AperFunction,ComponentPad*%
%ADD10C,1.600000*%
%TD*%
%TA.AperFunction,ComponentPad*%
%ADD11R,1.600000X1.600000*%
%TD*%
%TA.AperFunction,ComponentPad*%
%ADD12O,1.600000X1.600000*%
%TD*%
%TA.AperFunction,ComponentPad*%
%ADD13O,5.000000X3.200000*%
%TD*%
%TA.AperFunction,ComponentPad*%
%ADD14C,2.000000*%
%TD*%
%TA.AperFunction,ComponentPad*%
%ADD15O,2.720000X3.240000*%
%TD*%
%TA.AperFunction,ComponentPad*%
%ADD16C,1.800000*%
%TD*%
%TA.AperFunction,ComponentPad*%
%ADD17R,1.800000X1.800000*%
%TD*%
%TA.AperFunction,ComponentPad*%
%ADD18C,1.550000*%
%TD*%
%TA.AperFunction,ComponentPad*%
%ADD19R,1.550000X1.550000*%
%TD*%
%TA.AperFunction,ComponentPad*%
%ADD20O,1.700000X1.700000*%
%TD*%
%TA.AperFunction,ComponentPad*%
%ADD21R,1.700000X1.700000*%
%TD*%
%TA.AperFunction,ComponentPad*%
%ADD22C,2.130000*%
%TD*%
%TA.AperFunction,ComponentPad*%
%ADD23R,1.930000X1.830000*%
%TD*%
%TA.AperFunction,ViaPad*%
%ADD24C,0.800000*%
%TD*%
%TA.AperFunction,Conductor*%
%ADD25C,0.250000*%
%TD*%
G04 APERTURE END LIST*
D10*
%TO.P,C10,2*%
%TO.N,GND*%
X141850000Y-127790000D03*
D11*
%TO.P,C10,1*%
%TO.N,+12V*%
X139350000Y-127790000D03*
%TD*%
D10*
%TO.P,C8,2*%
%TO.N,-12V*%
X141850000Y-102030000D03*
D11*
%TO.P,C8,1*%
%TO.N,GND*%
X139350000Y-102030000D03*
%TD*%
D12*
%TO.P,U2,16*%
%TO.N,+12V*%
X124240000Y-52730000D03*
%TO.P,U2,8*%
%TO.N,/SAWTOOTH*%
X142020000Y-60350000D03*
%TO.P,U2,15*%
%TO.N,/FREQ_CTRL*%
X126780000Y-52730000D03*
%TO.P,U2,7*%
%TO.N,Net-(RV7-Pad1)*%
X139480000Y-60350000D03*
%TO.P,U2,14*%
%TO.N,Net-(R18-Pad2)*%
X129320000Y-52730000D03*
%TO.P,U2,6*%
%TO.N,/HARD_SYNC*%
X136940000Y-60350000D03*
%TO.P,U2,13*%
%TO.N,/LINEAR_FM*%
X131860000Y-52730000D03*
%TO.P,U2,5*%
%TO.N,/PWM*%
X134400000Y-60350000D03*
%TO.P,U2,12*%
%TO.N,GND*%
X134400000Y-52730000D03*
%TO.P,U2,4*%
%TO.N,/SQUARE*%
X131860000Y-60350000D03*
%TO.P,U2,11*%
%TO.N,Net-(C6-Pad2)*%
X136940000Y-52730000D03*
%TO.P,U2,3*%
%TO.N,Net-(R13-Pad1)*%
X129320000Y-60350000D03*
%TO.P,U2,10*%
%TO.N,/TRIANGLE*%
X139480000Y-52730000D03*
%TO.P,U2,2*%
%TO.N,Net-(R13-Pad2)*%
X126780000Y-60350000D03*
%TO.P,U2,9*%
%TO.N,/SOFT_SYNC*%
X142020000Y-52730000D03*
D11*
%TO.P,U2,1*%
%TO.N,Net-(R12-Pad1)*%
X124240000Y-60350000D03*
%TD*%
D12*
%TO.P,U1,14*%
%TO.N,Net-(R10-Pad2)*%
X149630000Y-52540000D03*
%TO.P,U1,7*%
%TO.N,Net-(R26-Pad2)*%
X164870000Y-60160000D03*
%TO.P,U1,13*%
%TO.N,Net-(R10-Pad2)*%
X152170000Y-52540000D03*
%TO.P,U1,6*%
%TO.N,Net-(R26-Pad2)*%
X162330000Y-60160000D03*
%TO.P,U1,12*%
%TO.N,Net-(J4-PadT)*%
X154710000Y-52540000D03*
%TO.P,U1,5*%
%TO.N,Net-(D3-Pad1)*%
X159790000Y-60160000D03*
%TO.P,U1,11*%
%TO.N,-12V*%
X157250000Y-52540000D03*
%TO.P,U1,4*%
%TO.N,+12V*%
X157250000Y-60160000D03*
%TO.P,U1,10*%
%TO.N,/TRIANGLE*%
X159790000Y-52540000D03*
%TO.P,U1,3*%
%TO.N,/SAWTOOTH*%
X154710000Y-60160000D03*
%TO.P,U1,9*%
%TO.N,Net-(R22-Pad2)*%
X162330000Y-52540000D03*
%TO.P,U1,2*%
%TO.N,Net-(R24-Pad2)*%
X152170000Y-60160000D03*
%TO.P,U1,8*%
%TO.N,Net-(R23-Pad2)*%
X164870000Y-52540000D03*
D11*
%TO.P,U1,1*%
%TO.N,Net-(R24-Pad2)*%
X149630000Y-60160000D03*
%TD*%
D13*
%TO.P,SW1,1*%
%TO.N,GND*%
X145170000Y-110550000D03*
%TO.P,SW1,2*%
%TO.N,Net-(R4-Pad1)*%
X145170000Y-115000000D03*
%TO.P,SW1,3*%
%TO.N,Net-(RV5-Pad2)*%
X145170000Y-119450000D03*
%TD*%
D14*
%TO.P,C11,2*%
%TO.N,+12V*%
X150910000Y-127510000D03*
%TO.P,C11,1*%
%TO.N,GND*%
X145910000Y-127510000D03*
%TD*%
%TO.P,C9,2*%
%TO.N,GND*%
X150690000Y-101760000D03*
%TO.P,C9,1*%
%TO.N,-12V*%
X145690000Y-101760000D03*
%TD*%
D15*
%TO.P,RV8,*%
%TO.N,*%
X161860000Y-68320000D03*
X152260000Y-68320000D03*
D16*
%TO.P,RV8,3*%
%TO.N,Net-(J8-PadT)*%
X154560000Y-75820000D03*
%TO.P,RV8,2*%
%TO.N,Net-(C4-Pad1)*%
X157060000Y-75820000D03*
D17*
%TO.P,RV8,1*%
%TO.N,GND*%
X159560000Y-75820000D03*
%TD*%
D18*
%TO.P,RV7,2*%
%TO.N,Net-(R17-Pad2)*%
X144880000Y-72060000D03*
D19*
%TO.P,RV7,1*%
%TO.N,Net-(RV7-Pad1)*%
X142380000Y-67060000D03*
D18*
%TO.P,RV7,3*%
%TO.N,GND*%
X147380000Y-67060000D03*
%TD*%
%TO.P,RV6,2*%
%TO.N,Net-(R13-Pad1)*%
X113950000Y-59360000D03*
D19*
%TO.P,RV6,1*%
%TO.N,Net-(R12-Pad2)*%
X111450000Y-54360000D03*
D18*
%TO.P,RV6,3*%
%TO.N,Net-(R13-Pad1)*%
X116450000Y-54360000D03*
%TD*%
D15*
%TO.P,RV5,*%
%TO.N,*%
X137290000Y-39900000D03*
X127690000Y-39900000D03*
D16*
%TO.P,RV5,3*%
%TO.N,+12V*%
X129990000Y-47400000D03*
%TO.P,RV5,2*%
%TO.N,Net-(RV5-Pad2)*%
X132490000Y-47400000D03*
D17*
%TO.P,RV5,1*%
%TO.N,-12V*%
X134990000Y-47400000D03*
%TD*%
D18*
%TO.P,RV4,2*%
%TO.N,Net-(R1-Pad1)*%
X172430000Y-81350000D03*
D19*
%TO.P,RV4,1*%
X169930000Y-76350000D03*
D18*
%TO.P,RV4,3*%
%TO.N,+12V*%
X174930000Y-76350000D03*
%TD*%
D15*
%TO.P,RV3,*%
%TO.N,*%
X149910000Y-87070000D03*
X140310000Y-87070000D03*
D16*
%TO.P,RV3,3*%
%TO.N,GND*%
X142610000Y-94570000D03*
%TO.P,RV3,2*%
%TO.N,Net-(J4-PadTN)*%
X145110000Y-94570000D03*
D17*
%TO.P,RV3,1*%
%TO.N,Net-(R7-Pad2)*%
X147610000Y-94570000D03*
%TD*%
D15*
%TO.P,RV2,*%
%TO.N,*%
X137290000Y-68360000D03*
X127690000Y-68360000D03*
D16*
%TO.P,RV2,3*%
%TO.N,Net-(J3-PadT)*%
X129990000Y-75860000D03*
%TO.P,RV2,2*%
%TO.N,Net-(R3-Pad1)*%
X132490000Y-75860000D03*
D17*
%TO.P,RV2,1*%
%TO.N,GND*%
X134990000Y-75860000D03*
%TD*%
D15*
%TO.P,RV1,*%
%TO.N,*%
X161960000Y-40010000D03*
X152360000Y-40010000D03*
D16*
%TO.P,RV1,3*%
%TO.N,+12V*%
X154660000Y-47510000D03*
%TO.P,RV1,2*%
%TO.N,Net-(R5-Pad1)*%
X157160000Y-47510000D03*
D17*
%TO.P,RV1,1*%
%TO.N,-12V*%
X159660000Y-47510000D03*
%TD*%
D10*
%TO.P,R27,1*%
%TO.N,Net-(D4-Pad2)*%
X144980000Y-46610000D03*
D12*
%TO.P,R27,2*%
%TO.N,+12V*%
X144980000Y-36450000D03*
%TD*%
D10*
%TO.P,R26,1*%
%TO.N,/SQUARE_OUT*%
X166790000Y-148850000D03*
D12*
%TO.P,R26,2*%
%TO.N,Net-(R26-Pad2)*%
X176950000Y-148850000D03*
%TD*%
D10*
%TO.P,R25,1*%
%TO.N,/TRIANGLE_OUT*%
X166790000Y-143680000D03*
D12*
%TO.P,R25,2*%
%TO.N,Net-(R23-Pad2)*%
X176950000Y-143680000D03*
%TD*%
D10*
%TO.P,R24,1*%
%TO.N,/SAWTOOTH_OUT*%
X166890000Y-138700000D03*
D12*
%TO.P,R24,2*%
%TO.N,Net-(R24-Pad2)*%
X177050000Y-138700000D03*
%TD*%
D10*
%TO.P,R23,1*%
%TO.N,Net-(R22-Pad2)*%
X166740000Y-133510000D03*
D12*
%TO.P,R23,2*%
%TO.N,Net-(R23-Pad2)*%
X176900000Y-133510000D03*
%TD*%
D10*
%TO.P,R22,1*%
%TO.N,GND*%
X166740000Y-128430000D03*
D12*
%TO.P,R22,2*%
%TO.N,Net-(R22-Pad2)*%
X176900000Y-128430000D03*
%TD*%
D10*
%TO.P,R21,1*%
%TO.N,GND*%
X166880000Y-123340000D03*
D12*
%TO.P,R21,2*%
%TO.N,Net-(D3-Pad1)*%
X177040000Y-123340000D03*
%TD*%
D10*
%TO.P,R20,1*%
%TO.N,Net-(D3-Pad1)*%
X166880000Y-118120000D03*
D12*
%TO.P,R20,2*%
%TO.N,/SQUARE*%
X177040000Y-118120000D03*
%TD*%
D10*
%TO.P,R19,1*%
%TO.N,-12V*%
X111630000Y-148930000D03*
D12*
%TO.P,R19,2*%
%TO.N,Net-(R13-Pad1)*%
X121790000Y-148930000D03*
%TD*%
D10*
%TO.P,R18,1*%
%TO.N,GND*%
X111570000Y-143840000D03*
D12*
%TO.P,R18,2*%
%TO.N,Net-(R18-Pad2)*%
X121730000Y-143840000D03*
%TD*%
D10*
%TO.P,R17,1*%
%TO.N,/FREQ_CTRL*%
X111640000Y-138710000D03*
D12*
%TO.P,R17,2*%
%TO.N,Net-(R17-Pad2)*%
X121800000Y-138710000D03*
%TD*%
D10*
%TO.P,R16,1*%
%TO.N,Net-(C5-Pad2)*%
X111720000Y-133580000D03*
D12*
%TO.P,R16,2*%
%TO.N,/LINEAR_FM*%
X121880000Y-133580000D03*
%TD*%
D10*
%TO.P,R15,1*%
%TO.N,Net-(C4-Pad2)*%
X111720000Y-128470000D03*
D12*
%TO.P,R15,2*%
%TO.N,/LINEAR_FM*%
X121880000Y-128470000D03*
%TD*%
D10*
%TO.P,R14,1*%
%TO.N,+12V*%
X111720000Y-123330000D03*
D12*
%TO.P,R14,2*%
%TO.N,/LINEAR_FM*%
X121880000Y-123330000D03*
%TD*%
D10*
%TO.P,R13,1*%
%TO.N,Net-(R13-Pad1)*%
X111720000Y-118280000D03*
D12*
%TO.P,R13,2*%
%TO.N,Net-(R13-Pad2)*%
X121880000Y-118280000D03*
%TD*%
D10*
%TO.P,R12,1*%
%TO.N,Net-(R12-Pad1)*%
X111720000Y-113220000D03*
D12*
%TO.P,R12,2*%
%TO.N,Net-(R12-Pad2)*%
X121880000Y-113220000D03*
%TD*%
D10*
%TO.P,R11,1*%
%TO.N,GND*%
X111790000Y-108080000D03*
D12*
%TO.P,R11,2*%
%TO.N,/PWM*%
X121950000Y-108080000D03*
%TD*%
D10*
%TO.P,R10,1*%
%TO.N,/PWM*%
X111720000Y-102950000D03*
D12*
%TO.P,R10,2*%
%TO.N,Net-(R10-Pad2)*%
X121880000Y-102950000D03*
%TD*%
D10*
%TO.P,R9,1*%
%TO.N,GND*%
X111720000Y-97840000D03*
D12*
%TO.P,R9,2*%
%TO.N,Net-(C3-Pad1)*%
X121880000Y-97840000D03*
%TD*%
D10*
%TO.P,R8,1*%
%TO.N,Net-(C2-Pad1)*%
X111720000Y-92710000D03*
D12*
%TO.P,R8,2*%
%TO.N,Net-(R13-Pad1)*%
X121880000Y-92710000D03*
%TD*%
D10*
%TO.P,R7,1*%
%TO.N,+12V*%
X111720000Y-87650000D03*
D12*
%TO.P,R7,2*%
%TO.N,Net-(R7-Pad2)*%
X121880000Y-87650000D03*
%TD*%
D10*
%TO.P,R6,1*%
%TO.N,Net-(C1-Pad2)*%
X111720000Y-82520000D03*
D12*
%TO.P,R6,2*%
%TO.N,/FREQ_CTRL*%
X121880000Y-82520000D03*
%TD*%
D10*
%TO.P,R5,1*%
%TO.N,Net-(R5-Pad1)*%
X111850000Y-77350000D03*
D12*
%TO.P,R5,2*%
%TO.N,/FREQ_CTRL*%
X122010000Y-77350000D03*
%TD*%
D10*
%TO.P,R4,1*%
%TO.N,Net-(R4-Pad1)*%
X111850000Y-72220000D03*
D12*
%TO.P,R4,2*%
%TO.N,/FREQ_CTRL*%
X122010000Y-72220000D03*
%TD*%
D10*
%TO.P,R3,1*%
%TO.N,Net-(R3-Pad1)*%
X111770000Y-67080000D03*
D12*
%TO.P,R3,2*%
%TO.N,/FREQ_CTRL*%
X121930000Y-67080000D03*
%TD*%
D10*
%TO.P,R2,1*%
%TO.N,Net-(J1-PadT)*%
X111410000Y-46980000D03*
D12*
%TO.P,R2,2*%
%TO.N,/FREQ_CTRL*%
X121570000Y-46980000D03*
%TD*%
D10*
%TO.P,R1,1*%
%TO.N,Net-(R1-Pad1)*%
X111550000Y-41970000D03*
D12*
%TO.P,R1,2*%
%TO.N,/FREQ_CTRL*%
X121710000Y-41970000D03*
%TD*%
D20*
%TO.P,J12,10*%
%TO.N,-12V*%
X174520000Y-67870000D03*
%TO.P,J12,9*%
X171980000Y-67870000D03*
%TO.P,J12,8*%
%TO.N,GND*%
X174520000Y-65330000D03*
%TO.P,J12,7*%
X171980000Y-65330000D03*
%TO.P,J12,6*%
X174520000Y-62790000D03*
%TO.P,J12,5*%
X171980000Y-62790000D03*
%TO.P,J12,4*%
X174520000Y-60250000D03*
%TO.P,J12,3*%
X171980000Y-60250000D03*
%TO.P,J12,2*%
%TO.N,+12V*%
X174520000Y-57710000D03*
D21*
%TO.P,J12,1*%
X171980000Y-57710000D03*
%TD*%
D22*
%TO.P,J11,T*%
%TO.N,/TRIANGLE_OUT*%
X159050000Y-121500000D03*
D23*
%TO.P,J11,S*%
%TO.N,GND*%
X159050000Y-110100000D03*
D22*
%TO.P,J11,TN*%
%TO.N,N/C*%
X159050000Y-113200000D03*
%TD*%
%TO.P,J10,T*%
%TO.N,/SAWTOOTH_OUT*%
X159030000Y-136380000D03*
D23*
%TO.P,J10,S*%
%TO.N,GND*%
X159030000Y-124980000D03*
D22*
%TO.P,J10,TN*%
%TO.N,N/C*%
X159030000Y-128080000D03*
%TD*%
%TO.P,J9,T*%
%TO.N,/SQUARE_OUT*%
X159150000Y-151360000D03*
D23*
%TO.P,J9,S*%
%TO.N,GND*%
X159150000Y-139960000D03*
D22*
%TO.P,J9,TN*%
%TO.N,N/C*%
X159150000Y-143060000D03*
%TD*%
%TO.P,J8,T*%
%TO.N,Net-(J8-PadT)*%
X158970000Y-106570000D03*
D23*
%TO.P,J8,S*%
%TO.N,GND*%
X158970000Y-95170000D03*
D22*
%TO.P,J8,TN*%
%TO.N,N/C*%
X158970000Y-98270000D03*
%TD*%
%TO.P,J7,T*%
%TO.N,Net-(C7-Pad2)*%
X130870000Y-136270000D03*
D23*
%TO.P,J7,S*%
%TO.N,GND*%
X130870000Y-124870000D03*
D22*
%TO.P,J7,TN*%
%TO.N,N/C*%
X130870000Y-127970000D03*
%TD*%
%TO.P,J6,T*%
%TO.N,Net-(C3-Pad2)*%
X144950000Y-145790000D03*
D23*
%TO.P,J6,S*%
%TO.N,GND*%
X144950000Y-134390000D03*
D22*
%TO.P,J6,TN*%
%TO.N,N/C*%
X144950000Y-137490000D03*
%TD*%
%TO.P,J5,T*%
%TO.N,Net-(C2-Pad2)*%
X130850000Y-151270000D03*
D23*
%TO.P,J5,S*%
%TO.N,GND*%
X130850000Y-139870000D03*
D22*
%TO.P,J5,TN*%
%TO.N,N/C*%
X130850000Y-142970000D03*
%TD*%
%TO.P,J4,T*%
%TO.N,Net-(J4-PadT)*%
X130870000Y-121160000D03*
D23*
%TO.P,J4,S*%
%TO.N,GND*%
X130870000Y-109760000D03*
D22*
%TO.P,J4,TN*%
%TO.N,Net-(J4-PadTN)*%
X130870000Y-112860000D03*
%TD*%
%TO.P,J3,T*%
%TO.N,Net-(J3-PadT)*%
X130870000Y-106160000D03*
D23*
%TO.P,J3,S*%
%TO.N,GND*%
X130870000Y-94760000D03*
D22*
%TO.P,J3,TN*%
%TO.N,N/C*%
X130870000Y-97860000D03*
%TD*%
%TO.P,J2,T*%
%TO.N,Net-(J1-PadT)*%
X159040000Y-91530000D03*
D23*
%TO.P,J2,S*%
%TO.N,GND*%
X159040000Y-80130000D03*
D22*
%TO.P,J2,TN*%
%TO.N,N/C*%
X159040000Y-83230000D03*
%TD*%
%TO.P,J1,T*%
%TO.N,Net-(J1-PadT)*%
X130870000Y-91050000D03*
D23*
%TO.P,J1,S*%
%TO.N,GND*%
X130870000Y-79650000D03*
D22*
%TO.P,J1,TN*%
%TO.N,N/C*%
X130870000Y-82750000D03*
%TD*%
D16*
%TO.P,D4,2*%
%TO.N,Net-(D4-Pad2)*%
X117810000Y-35180000D03*
D17*
%TO.P,D4,1*%
%TO.N,GND*%
X115270000Y-35180000D03*
%TD*%
D12*
%TO.P,D3,2*%
%TO.N,GND*%
X175250000Y-113210000D03*
D11*
%TO.P,D3,1*%
%TO.N,Net-(D3-Pad1)*%
X167630000Y-113210000D03*
%TD*%
D12*
%TO.P,D2,2*%
%TO.N,/HARD_SYNC*%
X175050000Y-107100000D03*
D11*
%TO.P,D2,1*%
%TO.N,Net-(C3-Pad1)*%
X167430000Y-107100000D03*
%TD*%
D12*
%TO.P,D1,2*%
%TO.N,Net-(C2-Pad1)*%
X175190000Y-101260000D03*
D11*
%TO.P,D1,1*%
%TO.N,/HARD_SYNC*%
X167570000Y-101260000D03*
%TD*%
D14*
%TO.P,C7,2*%
%TO.N,Net-(C7-Pad2)*%
X173700000Y-94950000D03*
%TO.P,C7,1*%
%TO.N,/SOFT_SYNC*%
X168700000Y-94950000D03*
%TD*%
%TO.P,C6,2*%
%TO.N,Net-(C6-Pad2)*%
X173550000Y-88140000D03*
%TO.P,C6,1*%
%TO.N,GND*%
X168550000Y-88140000D03*
%TD*%
%TO.P,C5,2*%
%TO.N,Net-(C5-Pad2)*%
X165730000Y-29640000D03*
%TO.P,C5,1*%
%TO.N,GND*%
X160730000Y-29640000D03*
%TD*%
%TO.P,C4,2*%
%TO.N,Net-(C4-Pad2)*%
X156460000Y-29640000D03*
%TO.P,C4,1*%
%TO.N,Net-(C4-Pad1)*%
X151460000Y-29640000D03*
%TD*%
%TO.P,C3,2*%
%TO.N,Net-(C3-Pad2)*%
X147000000Y-29640000D03*
%TO.P,C3,1*%
%TO.N,Net-(C3-Pad1)*%
X142000000Y-29640000D03*
%TD*%
%TO.P,C2,2*%
%TO.N,Net-(C2-Pad2)*%
X137540000Y-29640000D03*
%TO.P,C2,1*%
%TO.N,Net-(C2-Pad1)*%
X132540000Y-29640000D03*
%TD*%
%TO.P,C1,2*%
%TO.N,Net-(C1-Pad2)*%
X128080000Y-29640000D03*
%TO.P,C1,1*%
%TO.N,GND*%
X123080000Y-29640000D03*
%TD*%
D24*
%TO.N,/SOFT_SYNC*%
X157844200Y-63267100D03*
%TO.N,/HARD_SYNC*%
X155494000Y-77102600D03*
%TO.N,Net-(J4-PadT)*%
X153199400Y-103222400D03*
%TO.N,Net-(R5-Pad1)*%
X118131200Y-45560200D03*
%TO.N,Net-(R10-Pad2)*%
X141478700Y-58366300D03*
%TO.N,Net-(RV5-Pad2)*%
X143458300Y-48479900D03*
%TD*%
D25*
%TO.N,GND*%
X116413900Y-35180000D02*
X116413900Y-44868600D01*
X116413900Y-44868600D02*
X117830800Y-46285500D01*
X117830800Y-46285500D02*
X118431700Y-46285500D01*
X118431700Y-46285500D02*
X118887900Y-45829300D01*
X118887900Y-45829300D02*
X122798600Y-45829300D01*
X122798600Y-45829300D02*
X128574000Y-51604700D01*
X128574000Y-51604700D02*
X132430800Y-51604700D01*
X132430800Y-51604700D02*
X133274700Y-52448600D01*
X133274700Y-52448600D02*
X133274700Y-52730000D01*
X134400000Y-52730000D02*
X133274700Y-52730000D01*
X116413900Y-35180000D02*
X116495300Y-35180000D01*
X115270000Y-35180000D02*
X116413900Y-35180000D01*
X159030000Y-124980000D02*
X157739700Y-124980000D01*
X157739700Y-124980000D02*
X148440000Y-124980000D01*
X148440000Y-124980000D02*
X145910000Y-127510000D01*
X165240000Y-124980000D02*
X159030000Y-124980000D01*
X159560000Y-74594600D02*
X155943500Y-70978100D01*
X155943500Y-70978100D02*
X151298100Y-70978100D01*
X151298100Y-70978100D02*
X147380000Y-67060000D01*
X130870000Y-109760000D02*
X113470000Y-109760000D01*
X113470000Y-109760000D02*
X111790000Y-108080000D01*
X123080000Y-29640000D02*
X121575800Y-29640000D01*
X121575800Y-29640000D02*
X116495300Y-34720500D01*
X116495300Y-34720500D02*
X116495300Y-35180000D01*
X141850000Y-127790000D02*
X138930000Y-124870000D01*
X138930000Y-124870000D02*
X130870000Y-124870000D01*
X165362200Y-87537500D02*
X158970000Y-93929700D01*
X168550000Y-88140000D02*
X167947500Y-87537500D01*
X167947500Y-87537500D02*
X165362200Y-87537500D01*
X159040000Y-81370300D02*
X159195000Y-81370300D01*
X159195000Y-81370300D02*
X165362200Y-87537500D01*
X159040000Y-80130000D02*
X159040000Y-81370300D01*
X158970000Y-95170000D02*
X158970000Y-93929700D01*
X134990000Y-75860000D02*
X134990000Y-77085300D01*
X145170000Y-103155300D02*
X141319200Y-103155300D01*
X141319200Y-103155300D02*
X140475300Y-102311400D01*
X140475300Y-102311400D02*
X140475300Y-102030000D01*
X150690000Y-101760000D02*
X149294700Y-103155300D01*
X149294700Y-103155300D02*
X145170000Y-103155300D01*
X145170000Y-103155300D02*
X145170000Y-108624700D01*
X145170000Y-110550000D02*
X145170000Y-108624700D01*
X139350000Y-102030000D02*
X140475300Y-102030000D01*
X171980000Y-60250000D02*
X171980000Y-61614700D01*
X171980000Y-60250000D02*
X174520000Y-60250000D01*
X171980000Y-62790000D02*
X171980000Y-61614700D01*
X166880000Y-123340000D02*
X165240000Y-124980000D01*
X165240000Y-124980000D02*
X166740000Y-126480000D01*
X166740000Y-126480000D02*
X166740000Y-128430000D01*
X130870000Y-94760000D02*
X132160300Y-94760000D01*
X142610000Y-94570000D02*
X132350300Y-94570000D01*
X132350300Y-94570000D02*
X132160300Y-94760000D01*
X170804700Y-65330000D02*
X161540100Y-74594600D01*
X161540100Y-74594600D02*
X159560000Y-74594600D01*
X159560000Y-74594700D02*
X159560000Y-74594600D01*
X159560000Y-75820000D02*
X159560000Y-74594700D01*
X171980000Y-65330000D02*
X170804700Y-65330000D01*
X130850000Y-139870000D02*
X130850000Y-138629700D01*
X144950000Y-134390000D02*
X144950000Y-135630300D01*
X130850000Y-138629700D02*
X133849400Y-135630300D01*
X133849400Y-135630300D02*
X144950000Y-135630300D01*
X111570000Y-143840000D02*
X115540000Y-139870000D01*
X115540000Y-139870000D02*
X130850000Y-139870000D01*
X130870000Y-79650000D02*
X132160300Y-79650000D01*
X132160300Y-79650000D02*
X134725000Y-77085300D01*
X134725000Y-77085300D02*
X134990000Y-77085300D01*
%TO.N,Net-(C2-Pad1)*%
X174064700Y-101260000D02*
X169274300Y-96469600D01*
X169274300Y-96469600D02*
X115479600Y-96469600D01*
X115479600Y-96469600D02*
X111720000Y-92710000D01*
X175190000Y-101260000D02*
X174064700Y-101260000D01*
%TO.N,Net-(C3-Pad1)*%
X167430000Y-107100000D02*
X166304700Y-107100000D01*
X121880000Y-97840000D02*
X123005300Y-97840000D01*
X123005300Y-97840000D02*
X124825700Y-99660400D01*
X124825700Y-99660400D02*
X158865100Y-99660400D01*
X158865100Y-99660400D02*
X166304700Y-107100000D01*
%TO.N,Net-(C6-Pad2)*%
X136940000Y-53855300D02*
X138065300Y-54980600D01*
X138065300Y-54980600D02*
X138065300Y-64759500D01*
X138065300Y-64759500D02*
X141986000Y-68680200D01*
X141986000Y-68680200D02*
X144794900Y-68680200D01*
X144794900Y-68680200D02*
X150709400Y-74594700D01*
X150709400Y-74594700D02*
X155151000Y-74594700D01*
X155151000Y-74594700D02*
X155810100Y-75253800D01*
X155810100Y-75253800D02*
X155810100Y-76352700D01*
X155810100Y-76352700D02*
X157359000Y-77901600D01*
X157359000Y-77901600D02*
X163311600Y-77901600D01*
X163311600Y-77901600D02*
X173550000Y-88140000D01*
X136940000Y-52730000D02*
X136940000Y-53855300D01*
%TO.N,Net-(C7-Pad2)*%
X173700000Y-94950000D02*
X176317600Y-97567600D01*
X176317600Y-97567600D02*
X176317600Y-107470200D01*
X176317600Y-107470200D02*
X171703100Y-112084700D01*
X171703100Y-112084700D02*
X166249800Y-112084700D01*
X166249800Y-112084700D02*
X156959100Y-121375400D01*
X156959100Y-121375400D02*
X150022600Y-121375400D01*
X150022600Y-121375400D02*
X139244700Y-132153300D01*
X139244700Y-132153300D02*
X134986700Y-132153300D01*
X134986700Y-132153300D02*
X130870000Y-136270000D01*
%TO.N,/SOFT_SYNC*%
X143145300Y-52730000D02*
X144463900Y-51411400D01*
X144463900Y-51411400D02*
X150125200Y-51411400D01*
X150125200Y-51411400D02*
X150900000Y-52186200D01*
X150900000Y-52186200D02*
X150900000Y-53855500D01*
X150900000Y-53855500D02*
X155980000Y-58935500D01*
X155980000Y-58935500D02*
X155980000Y-61402900D01*
X155980000Y-61402900D02*
X157844200Y-63267100D01*
X142020000Y-52730000D02*
X143145300Y-52730000D01*
%TO.N,/HARD_SYNC*%
X136940000Y-61475300D02*
X136940000Y-64271100D01*
X136940000Y-64271100D02*
X143243300Y-70574400D01*
X143243300Y-70574400D02*
X146022300Y-70574400D01*
X146022300Y-70574400D02*
X152550500Y-77102600D01*
X152550500Y-77102600D02*
X155494000Y-77102600D01*
X167570000Y-101260000D02*
X168695300Y-101260000D01*
X175050000Y-107100000D02*
X173924700Y-107100000D01*
X168695300Y-101260000D02*
X168695300Y-101870600D01*
X168695300Y-101870600D02*
X173924700Y-107100000D01*
X136940000Y-60350000D02*
X136940000Y-61475300D01*
%TO.N,Net-(D3-Pad1)*%
X167638700Y-117361300D02*
X173617400Y-123340000D01*
X173617400Y-123340000D02*
X177040000Y-123340000D01*
X167630000Y-114335300D02*
X167630000Y-117352600D01*
X167630000Y-117352600D02*
X167638700Y-117361300D01*
X166880000Y-118120000D02*
X167638700Y-117361300D01*
X167630000Y-113210000D02*
X167630000Y-114335300D01*
%TO.N,Net-(J1-PadT)*%
X136215400Y-91050000D02*
X136215400Y-74634500D01*
X136215400Y-74634500D02*
X130590000Y-69009100D01*
X130590000Y-69009100D02*
X130590000Y-60024000D01*
X130590000Y-60024000D02*
X125828000Y-55262000D01*
X125828000Y-55262000D02*
X119692000Y-55262000D01*
X119692000Y-55262000D02*
X111410000Y-46980000D01*
X159040000Y-91530000D02*
X136695400Y-91530000D01*
X136695400Y-91530000D02*
X136215400Y-91050000D01*
X130870000Y-91050000D02*
X136215400Y-91050000D01*
%TO.N,Net-(J4-PadT)*%
X130870000Y-121160000D02*
X134805000Y-117225000D01*
X134805000Y-117225000D02*
X146574600Y-117225000D01*
X146574600Y-117225000D02*
X153199400Y-110600200D01*
X153199400Y-110600200D02*
X153199400Y-103222400D01*
%TO.N,/SQUARE_OUT*%
X159150000Y-151360000D02*
X164280000Y-151360000D01*
X164280000Y-151360000D02*
X166790000Y-148850000D01*
%TO.N,/SAWTOOTH_OUT*%
X159030000Y-136380000D02*
X164570000Y-136380000D01*
X164570000Y-136380000D02*
X166890000Y-138700000D01*
%TO.N,/FREQ_CTRL*%
X126780000Y-52730000D02*
X125654700Y-52730000D01*
X121570000Y-46980000D02*
X121570000Y-48105300D01*
X121570000Y-48105300D02*
X125654700Y-52190000D01*
X125654700Y-52190000D02*
X125654700Y-52730000D01*
X121930000Y-67080000D02*
X121930000Y-68205300D01*
X121930000Y-68205300D02*
X122010000Y-68285300D01*
X122010000Y-68285300D02*
X122010000Y-72220000D01*
%TO.N,Net-(R1-Pad1)*%
X169930000Y-76350000D02*
X168829700Y-76350000D01*
X111550000Y-41970000D02*
X123482100Y-53902100D01*
X123482100Y-53902100D02*
X134825400Y-53902100D01*
X134825400Y-53902100D02*
X135670000Y-53057500D01*
X135670000Y-53057500D02*
X135670000Y-52366700D01*
X135670000Y-52366700D02*
X136497900Y-51538800D01*
X136497900Y-51538800D02*
X137371900Y-51538800D01*
X137371900Y-51538800D02*
X138085300Y-52252200D01*
X138085300Y-52252200D02*
X138085300Y-53424900D01*
X138085300Y-53424900D02*
X140750000Y-56089600D01*
X140750000Y-56089600D02*
X140750000Y-62023600D01*
X140750000Y-62023600D02*
X151029000Y-72302600D01*
X151029000Y-72302600D02*
X155306500Y-72302600D01*
X155306500Y-72302600D02*
X158334600Y-75330700D01*
X158334600Y-75330700D02*
X158334600Y-76938200D01*
X158334600Y-76938200D02*
X158441800Y-77045400D01*
X158441800Y-77045400D02*
X168134300Y-77045400D01*
X168134300Y-77045400D02*
X168829700Y-76350000D01*
%TO.N,Net-(R3-Pad1)*%
X111770000Y-67080000D02*
X118083900Y-73393900D01*
X118083900Y-73393900D02*
X130023900Y-73393900D01*
X130023900Y-73393900D02*
X132490000Y-75860000D01*
%TO.N,Net-(R4-Pad1)*%
X145170000Y-115000000D02*
X145170000Y-113074700D01*
X111850000Y-72220000D02*
X110556000Y-73514000D01*
X110556000Y-73514000D02*
X110556000Y-93144400D01*
X110556000Y-93144400D02*
X117522400Y-100110800D01*
X117522400Y-100110800D02*
X130280800Y-100110800D01*
X130280800Y-100110800D02*
X143244700Y-113074700D01*
X143244700Y-113074700D02*
X145170000Y-113074700D01*
%TO.N,Net-(R5-Pad1)*%
X118131200Y-45560200D02*
X118312500Y-45378900D01*
X118312500Y-45378900D02*
X124034700Y-45378900D01*
X124034700Y-45378900D02*
X127861000Y-49205200D01*
X127861000Y-49205200D02*
X151079500Y-49205200D01*
X151079500Y-49205200D02*
X154007800Y-46276900D01*
X154007800Y-46276900D02*
X155926900Y-46276900D01*
X155926900Y-46276900D02*
X157160000Y-47510000D01*
%TO.N,+12V*%
X139350000Y-127790000D02*
X138224700Y-127790000D01*
X160931000Y-57710000D02*
X160544000Y-57710000D01*
X160544000Y-57710000D02*
X158375300Y-59878700D01*
X158375300Y-59878700D02*
X158375300Y-60160000D01*
X171980000Y-57710000D02*
X160931000Y-57710000D01*
X160931000Y-57710000D02*
X160931000Y-52048600D01*
X160931000Y-52048600D02*
X158210800Y-49328400D01*
X158210800Y-49328400D02*
X156478400Y-49328400D01*
X156478400Y-49328400D02*
X154660000Y-47510000D01*
X157250000Y-60160000D02*
X158375300Y-60160000D01*
X174520000Y-57710000D02*
X171980000Y-57710000D01*
X144980000Y-36450000D02*
X143854700Y-36450000D01*
X143854700Y-36450000D02*
X134898300Y-45406400D01*
X134898300Y-45406400D02*
X131983600Y-45406400D01*
X131983600Y-45406400D02*
X129990000Y-47400000D01*
X138224700Y-127790000D02*
X136620400Y-126185700D01*
X136620400Y-126185700D02*
X114575700Y-126185700D01*
X114575700Y-126185700D02*
X111720000Y-123330000D01*
%TO.N,Net-(R7-Pad2)*%
X147610000Y-94570000D02*
X146384700Y-94570000D01*
X121880000Y-87650000D02*
X123005300Y-87650000D01*
X123005300Y-87650000D02*
X128700000Y-93344700D01*
X128700000Y-93344700D02*
X145619000Y-93344700D01*
X145619000Y-93344700D02*
X146384700Y-94110400D01*
X146384700Y-94110400D02*
X146384700Y-94570000D01*
%TO.N,Net-(R13-Pad1)*%
X121880000Y-92710000D02*
X121880000Y-91584700D01*
X121880000Y-91584700D02*
X120754700Y-90459400D01*
X120754700Y-90459400D02*
X120754700Y-78834100D01*
X120754700Y-78834100D02*
X110609000Y-68688400D01*
X110609000Y-68688400D02*
X110609000Y-62701000D01*
X110609000Y-62701000D02*
X113950000Y-59360000D01*
X117597600Y-55712400D02*
X113950000Y-59360000D01*
X116450000Y-54360000D02*
X117597600Y-55507600D01*
X117597600Y-55507600D02*
X117597600Y-55712400D01*
X128194700Y-60350000D02*
X128194700Y-60068700D01*
X128194700Y-60068700D02*
X123838400Y-55712400D01*
X123838400Y-55712400D02*
X117597600Y-55712400D01*
X129320000Y-60350000D02*
X128194700Y-60350000D01*
%TO.N,Net-(R10-Pad2)*%
X148504700Y-52540000D02*
X142678400Y-58366300D01*
X142678400Y-58366300D02*
X141478700Y-58366300D01*
X149630000Y-52540000D02*
X148504700Y-52540000D01*
%TO.N,/PWM*%
X121950000Y-108080000D02*
X120824700Y-108080000D01*
X111720000Y-102950000D02*
X115694700Y-102950000D01*
X115694700Y-102950000D02*
X120824700Y-108080000D01*
%TO.N,Net-(R12-Pad2)*%
X111450000Y-55460300D02*
X110105600Y-56804700D01*
X110105600Y-56804700D02*
X110105600Y-107998400D01*
X110105600Y-107998400D02*
X115327200Y-113220000D01*
X115327200Y-113220000D02*
X121880000Y-113220000D01*
X111450000Y-54360000D02*
X111450000Y-55460300D01*
%TO.N,-12V*%
X134990000Y-47400000D02*
X136215300Y-47400000D01*
X159660000Y-47510000D02*
X158434700Y-47510000D01*
X158434700Y-47510000D02*
X158434700Y-47050500D01*
X158434700Y-47050500D02*
X157203400Y-45819200D01*
X157203400Y-45819200D02*
X149157600Y-45819200D01*
X149157600Y-45819200D02*
X147222300Y-47754500D01*
X147222300Y-47754500D02*
X136569800Y-47754500D01*
X136569800Y-47754500D02*
X136215300Y-47400000D01*
X145690000Y-101760000D02*
X142120000Y-101760000D01*
X142120000Y-101760000D02*
X141850000Y-102030000D01*
X174520000Y-67870000D02*
X173344700Y-67870000D01*
X171980000Y-68457600D02*
X172757100Y-68457600D01*
X172757100Y-68457600D02*
X173344700Y-67870000D01*
X171980000Y-67870000D02*
X171980000Y-68457600D01*
%TO.N,/SQUARE*%
X131860000Y-60350000D02*
X132985300Y-60350000D01*
X177040000Y-118120000D02*
X177040000Y-94707000D01*
X177040000Y-94707000D02*
X161212400Y-78879400D01*
X161212400Y-78879400D02*
X150089600Y-78879400D01*
X150089600Y-78879400D02*
X143478700Y-72268500D01*
X143478700Y-72268500D02*
X143478700Y-71859600D01*
X143478700Y-71859600D02*
X132985300Y-61366200D01*
X132985300Y-61366200D02*
X132985300Y-60350000D01*
%TO.N,Net-(R22-Pad2)*%
X176900000Y-128430000D02*
X175774700Y-128430000D01*
X175774700Y-128430000D02*
X170694700Y-133510000D01*
X170694700Y-133510000D02*
X166740000Y-133510000D01*
%TO.N,Net-(R24-Pad2)*%
X152170000Y-60160000D02*
X151044700Y-60160000D01*
X149630000Y-60722600D02*
X150482100Y-60722600D01*
X150482100Y-60722600D02*
X151044700Y-60160000D01*
X149630000Y-60160000D02*
X149630000Y-60722600D01*
%TO.N,Net-(R26-Pad2)*%
X162330000Y-60160000D02*
X164870000Y-60160000D01*
%TO.N,Net-(RV5-Pad2)*%
X132490000Y-47400000D02*
X133715400Y-48625400D01*
X133715400Y-48625400D02*
X143312800Y-48625400D01*
X143312800Y-48625400D02*
X143458300Y-48479900D01*
%TO.N,Net-(RV7-Pad1)*%
X139480000Y-60350000D02*
X139480000Y-61475300D01*
X142380000Y-67060000D02*
X142380000Y-64375300D01*
X142380000Y-64375300D02*
X139480000Y-61475300D01*
%TO.N,/SAWTOOTH*%
X154710000Y-60160000D02*
X153584700Y-60160000D01*
X142020000Y-60350000D02*
X143145300Y-60350000D01*
X153584700Y-60160000D02*
X153584700Y-59878700D01*
X153584700Y-59878700D02*
X152740600Y-59034600D01*
X152740600Y-59034600D02*
X144460700Y-59034600D01*
X144460700Y-59034600D02*
X143145300Y-60350000D01*
%TO.N,/TRIANGLE*%
X140605300Y-52730000D02*
X140605300Y-52448700D01*
X140605300Y-52448700D02*
X142096300Y-50957700D01*
X142096300Y-50957700D02*
X157276600Y-50957700D01*
X157276600Y-50957700D02*
X158664700Y-52345800D01*
X158664700Y-52345800D02*
X158664700Y-52540000D01*
X139480000Y-52730000D02*
X140605300Y-52730000D01*
X159790000Y-52540000D02*
X158664700Y-52540000D01*
%TO.N,Net-(D4-Pad2)*%
X117810000Y-35180000D02*
X127514200Y-44884200D01*
X127514200Y-44884200D02*
X127514200Y-46721300D01*
X127514200Y-46721300D02*
X129420200Y-48627300D01*
X129420200Y-48627300D02*
X130532000Y-48627300D01*
X130532000Y-48627300D02*
X131240000Y-47919300D01*
X131240000Y-47919300D02*
X131240000Y-46857700D01*
X131240000Y-46857700D02*
X131923100Y-46174600D01*
X131923100Y-46174600D02*
X144544600Y-46174600D01*
X144544600Y-46174600D02*
X144980000Y-46610000D01*
%TD*%
M02*
