%TF.GenerationSoftware,KiCad,Pcbnew,5.1.7*%
%TF.CreationDate,2020-10-25T10:30:06+01:00*%
%TF.ProjectId,AS3340-VCO,41533333-3430-42d5-9643-4f2e6b696361,rev?*%
%TF.SameCoordinates,Original*%
%TF.FileFunction,Soldermask,Bot*%
%TF.FilePolarity,Negative*%
%FSLAX46Y46*%
G04 Gerber Fmt 4.6, Leading zero omitted, Abs format (unit mm)*
G04 Created by KiCad (PCBNEW 5.1.7) date 2020-10-25 10:30:06*
%MOMM*%
%LPD*%
G01*
G04 APERTURE LIST*
%ADD10C,1.550000*%
%ADD11R,1.550000X1.550000*%
%ADD12C,2.130000*%
%ADD13R,1.930000X1.830000*%
%ADD14O,3.240000X2.720000*%
%ADD15C,1.800000*%
%ADD16R,1.800000X1.800000*%
%ADD17C,2.000000*%
%ADD18O,1.600000X1.600000*%
%ADD19R,1.600000X1.600000*%
%ADD20C,1.600000*%
%ADD21O,3.500000X2.200000*%
%ADD22O,2.500000X1.500000*%
%ADD23R,2.500000X1.500000*%
G04 APERTURE END LIST*
D10*
%TO.C,RV4*%
X149190000Y-66670000D03*
D11*
X146690000Y-61670000D03*
D10*
X151690000Y-61670000D03*
%TD*%
D12*
%TO.C,J6*%
X149940000Y-131170000D03*
D13*
X149940000Y-119770000D03*
D12*
X149940000Y-122870000D03*
%TD*%
D14*
%TO.C,RV5*%
X144420000Y-43820000D03*
X144420000Y-53420000D03*
D15*
X136920000Y-51120000D03*
X136920000Y-48620000D03*
D16*
X136920000Y-46120000D03*
%TD*%
D17*
%TO.C,C1*%
X125350000Y-46090000D03*
X120350000Y-46090000D03*
%TD*%
%TO.C,C2*%
X125350000Y-53260000D03*
X120350000Y-53260000D03*
%TD*%
%TO.C,C3*%
X125310000Y-60230000D03*
X120310000Y-60230000D03*
%TD*%
%TO.C,C4*%
X125275000Y-67095000D03*
X120275000Y-67095000D03*
%TD*%
%TO.C,C5*%
X125200000Y-73980000D03*
X120200000Y-73980000D03*
%TD*%
%TO.C,C6*%
X125220000Y-80860000D03*
X120220000Y-80860000D03*
%TD*%
%TO.C,C7*%
X124950000Y-87560000D03*
X119950000Y-87560000D03*
%TD*%
D18*
%TO.C,D1*%
X126300000Y-94490000D03*
D19*
X118680000Y-94490000D03*
%TD*%
D18*
%TO.C,D2*%
X126300000Y-100960000D03*
D19*
X118680000Y-100960000D03*
%TD*%
D18*
%TO.C,D3*%
X126430000Y-107180000D03*
D19*
X118810000Y-107180000D03*
%TD*%
D12*
%TO.C,J1*%
X137760000Y-70720000D03*
D13*
X137760000Y-59320000D03*
D12*
X137760000Y-62420000D03*
%TD*%
%TO.C,J2*%
X183720000Y-70810000D03*
D13*
X183720000Y-59410000D03*
D12*
X183720000Y-62510000D03*
%TD*%
%TO.C,J3*%
X137760000Y-85830000D03*
D13*
X137760000Y-74430000D03*
D12*
X137760000Y-77530000D03*
%TD*%
%TO.C,J4*%
X137760000Y-100830000D03*
D13*
X137760000Y-89430000D03*
D12*
X137760000Y-92530000D03*
%TD*%
%TO.C,J5*%
X137740000Y-130940000D03*
D13*
X137740000Y-119540000D03*
D12*
X137740000Y-122640000D03*
%TD*%
%TO.C,J7*%
X137760000Y-115940000D03*
D13*
X137760000Y-104540000D03*
D12*
X137760000Y-107640000D03*
%TD*%
%TO.C,J8*%
X183650000Y-85850000D03*
D13*
X183650000Y-74450000D03*
D12*
X183650000Y-77550000D03*
%TD*%
%TO.C,J9*%
X183830000Y-130640000D03*
D13*
X183830000Y-119240000D03*
D12*
X183830000Y-122340000D03*
%TD*%
%TO.C,J10*%
X183710000Y-115660000D03*
D13*
X183710000Y-104260000D03*
D12*
X183710000Y-107360000D03*
%TD*%
%TO.C,J11*%
X183730000Y-100780000D03*
D13*
X183730000Y-89380000D03*
D12*
X183730000Y-92480000D03*
%TD*%
D20*
%TO.C,R1*%
X103650000Y-44720000D03*
D18*
X113810000Y-44720000D03*
%TD*%
D20*
%TO.C,R2*%
X103510000Y-49730000D03*
D18*
X113670000Y-49730000D03*
%TD*%
D20*
%TO.C,R3*%
X103510000Y-54790000D03*
D18*
X113670000Y-54790000D03*
%TD*%
D20*
%TO.C,R4*%
X103590000Y-59930000D03*
D18*
X113750000Y-59930000D03*
%TD*%
D20*
%TO.C,R5*%
X103590000Y-65060000D03*
D18*
X113750000Y-65060000D03*
%TD*%
D20*
%TO.C,R6*%
X103560000Y-70180000D03*
D18*
X113720000Y-70180000D03*
%TD*%
D20*
%TO.C,R7*%
X103560000Y-75310000D03*
D18*
X113720000Y-75310000D03*
%TD*%
D20*
%TO.C,R8*%
X103560000Y-80370000D03*
D18*
X113720000Y-80370000D03*
%TD*%
D20*
%TO.C,R9*%
X103560000Y-85500000D03*
D18*
X113720000Y-85500000D03*
%TD*%
D20*
%TO.C,R10*%
X103560000Y-90610000D03*
D18*
X113720000Y-90610000D03*
%TD*%
D20*
%TO.C,R11*%
X103630000Y-95740000D03*
D18*
X113790000Y-95740000D03*
%TD*%
D20*
%TO.C,R12*%
X103560000Y-100880000D03*
D18*
X113720000Y-100880000D03*
%TD*%
D20*
%TO.C,R13*%
X103560000Y-105940000D03*
D18*
X113720000Y-105940000D03*
%TD*%
D20*
%TO.C,R14*%
X103560000Y-110990000D03*
D18*
X113720000Y-110990000D03*
%TD*%
D20*
%TO.C,R15*%
X103560000Y-116130000D03*
D18*
X113720000Y-116130000D03*
%TD*%
D20*
%TO.C,R16*%
X103560000Y-121240000D03*
D18*
X113720000Y-121240000D03*
%TD*%
D20*
%TO.C,R17*%
X103480000Y-126370000D03*
D18*
X113640000Y-126370000D03*
%TD*%
D20*
%TO.C,R18*%
X103410000Y-131500000D03*
D18*
X113570000Y-131500000D03*
%TD*%
D20*
%TO.C,R19*%
X103470000Y-136590000D03*
D18*
X113630000Y-136590000D03*
%TD*%
D20*
%TO.C,R20*%
X117840000Y-116020000D03*
D18*
X128000000Y-116020000D03*
%TD*%
D20*
%TO.C,R21*%
X117840000Y-121240000D03*
D18*
X128000000Y-121240000D03*
%TD*%
D20*
%TO.C,R22*%
X117700000Y-126330000D03*
D18*
X127860000Y-126330000D03*
%TD*%
D20*
%TO.C,R23*%
X117700000Y-131410000D03*
D18*
X127860000Y-131410000D03*
%TD*%
D20*
%TO.C,R24*%
X117850000Y-136600000D03*
D18*
X128010000Y-136600000D03*
%TD*%
D20*
%TO.C,R25*%
X148640000Y-108690000D03*
D18*
X158800000Y-108690000D03*
%TD*%
D20*
%TO.C,R26*%
X148640000Y-113860000D03*
D18*
X158800000Y-113860000D03*
%TD*%
D14*
%TO.C,RV1*%
X176850000Y-43720000D03*
X176850000Y-53320000D03*
D15*
X169350000Y-51020000D03*
X169350000Y-48520000D03*
D16*
X169350000Y-46020000D03*
%TD*%
D14*
%TO.C,RV2*%
X154380000Y-75500000D03*
X154380000Y-85100000D03*
D15*
X146880000Y-82800000D03*
X146880000Y-80300000D03*
D16*
X146880000Y-77800000D03*
%TD*%
D14*
%TO.C,RV3*%
X154040000Y-91420000D03*
X154040000Y-101020000D03*
D15*
X146540000Y-98720000D03*
X146540000Y-96220000D03*
D16*
X146540000Y-93720000D03*
%TD*%
D10*
%TO.C,RV6*%
X158980000Y-66470000D03*
D11*
X156480000Y-61470000D03*
D10*
X161480000Y-61470000D03*
%TD*%
%TO.C,RV7*%
X168670000Y-66670000D03*
D11*
X166170000Y-61670000D03*
D10*
X171170000Y-61670000D03*
%TD*%
D14*
%TO.C,RV8*%
X170680000Y-75270000D03*
X170680000Y-84870000D03*
D15*
X163180000Y-82570000D03*
X163180000Y-80070000D03*
D16*
X163180000Y-77570000D03*
%TD*%
D21*
%TO.C,SW1*%
X158510000Y-44450000D03*
X158510000Y-52650000D03*
D22*
X158510000Y-46550000D03*
X158510000Y-48550000D03*
D23*
X158510000Y-50550000D03*
%TD*%
D18*
%TO.C,U1*%
X171420000Y-116450000D03*
X163800000Y-131690000D03*
X171420000Y-118990000D03*
X163800000Y-129150000D03*
X171420000Y-121530000D03*
X163800000Y-126610000D03*
X171420000Y-124070000D03*
X163800000Y-124070000D03*
X171420000Y-126610000D03*
X163800000Y-121530000D03*
X171420000Y-129150000D03*
X163800000Y-118990000D03*
X171420000Y-131690000D03*
D19*
X163800000Y-116450000D03*
%TD*%
D18*
%TO.C,U2*%
X172590000Y-91800000D03*
X164970000Y-109580000D03*
X172590000Y-94340000D03*
X164970000Y-107040000D03*
X172590000Y-96880000D03*
X164970000Y-104500000D03*
X172590000Y-99420000D03*
X164970000Y-101960000D03*
X172590000Y-101960000D03*
X164970000Y-99420000D03*
X172590000Y-104500000D03*
X164970000Y-96880000D03*
X172590000Y-107040000D03*
X164970000Y-94340000D03*
X172590000Y-109580000D03*
D19*
X164970000Y-91800000D03*
%TD*%
M02*
