M48
; DRILL file {KiCad 5.1.7} date Sun Oct 25 10:30:08 2020
; FORMAT={-:-/ absolute / inch / decimal}
; #@! TF.CreationDate,2020-10-25T10:30:08+01:00
; #@! TF.GenerationSoftware,Kicad,Pcbnew,5.1.7
; #@! TF.FileFunction,Plated,1,2,PTH
FMAT,2
INCH
T1C0.0157
T2C0.0315
T3C0.0394
T4C0.0433
T5C0.0480
T6C0.0559
T7C0.0563
T8C0.0591
%
G90
G05
T1
X5.1169Y-3.6448
X5.1467Y-3.9764
X5.2361Y-4.4991
X5.4434Y-3.8058
X5.7653Y-3.9616
X5.9172Y-3.9917
X6.5709Y-3.9585
X6.6533Y-3.6909
T2
X6.4488Y-4.5846
X6.4488Y-4.6846
X6.4488Y-4.7846
X6.4488Y-4.8846
X6.4488Y-4.9846
X6.4488Y-5.0846
X6.4488Y-5.1846
X6.7488Y-4.5846
X6.7488Y-4.6846
X6.7488Y-4.7846
X6.7488Y-4.8846
X6.7488Y-4.9846
X6.7488Y-5.0846
X6.7488Y-5.1846
X4.6394Y-4.7732
X5.0394Y-4.7732
X5.852Y-4.4827
X6.252Y-4.4827
X4.0772Y-4.1709
X4.4772Y-4.1709
X4.6724Y-3.9748
X4.9724Y-3.9748
X4.0772Y-3.1642
X4.4772Y-3.1642
X4.0772Y-4.7732
X4.4772Y-4.7732
X4.6339Y-5.1736
X5.0339Y-5.1736
X4.0807Y-1.7606
X4.4807Y-1.7606
X5.852Y-4.2791
X6.252Y-4.2791
X6.4949Y-3.6142
X6.4949Y-3.7142
X6.4949Y-3.8142
X6.4949Y-3.9142
X6.4949Y-4.0142
X6.4949Y-4.1142
X6.4949Y-4.2142
X6.4949Y-4.3142
X6.7949Y-3.6142
X6.7949Y-3.7142
X6.7949Y-3.8142
X6.7949Y-3.9142
X6.7949Y-4.0142
X6.7949Y-4.1142
X6.7949Y-4.2142
X6.7949Y-4.3142
X4.6776Y-4.2197
X4.9776Y-4.2197
X4.6394Y-4.5677
X5.0394Y-4.5677
X4.0772Y-3.3661
X4.4772Y-3.3661
X4.0713Y-5.1772
X4.4713Y-5.1772
X4.0772Y-4.3697
X4.4772Y-4.3697
X4.074Y-4.9752
X4.474Y-4.9752
X6.2406Y-1.8327
X6.2406Y-1.9114
X6.2406Y-1.9902
X4.0772Y-3.9717
X4.4772Y-3.9717
X4.0752Y-1.9579
X4.4752Y-1.9579
X4.0783Y-2.5614
X4.4783Y-2.5614
X4.0772Y-2.965
X4.4772Y-2.965
X4.0752Y-2.1571
X4.4752Y-2.1571
X4.6724Y-3.7201
X4.9724Y-3.7201
X4.0736Y-5.3776
X4.4736Y-5.3776
X4.0772Y-4.572
X4.4772Y-4.572
X4.0772Y-3.5673
X4.4772Y-3.5673
X4.6398Y-5.378
X5.0398Y-5.378
X4.0772Y-2.763
X4.4772Y-2.763
X4.6339Y-4.9736
X5.0339Y-4.9736
X4.0783Y-2.3594
X4.4783Y-2.3594
X4.0799Y-3.7693
X4.4799Y-3.7693
T3
X6.5421Y-2.428
X6.6406Y-2.6248
X6.739Y-2.428
X4.7224Y-3.4472
X4.9193Y-3.4472
X4.7382Y-1.8146
X4.935Y-1.8146
X6.6673Y-1.8118
X6.6673Y-1.9102
X6.6673Y-2.0087
X5.7827Y-3.063
X5.7827Y-3.1614
X5.7827Y-3.2598
X5.7752Y-2.428
X5.8736Y-2.6248
X5.972Y-2.428
X4.7352Y-2.6415
X4.9321Y-2.6415
X6.1606Y-2.4201
X6.2591Y-2.6169
X6.3575Y-2.4201
X5.3906Y-1.8157
X5.3906Y-1.9142
X5.3906Y-2.0126
X4.7382Y-2.0969
X4.935Y-2.0969
X4.7366Y-2.3713
X4.9335Y-2.3713
X5.7693Y-3.6898
X5.7693Y-3.7882
X5.7693Y-3.8866
X4.7331Y-3.1835
X4.9299Y-3.1835
X6.4244Y-3.0539
X6.4244Y-3.1524
X6.4244Y-3.2508
X4.7323Y-2.9126
X4.9291Y-2.9126
T5
X7.2303Y-2.9311
X7.2327Y-4.1047
X5.4236Y-2.3354
X7.2374Y-4.6945
X7.2335Y-3.5189
X5.4236Y-4.1157
X5.4236Y-2.9303
X7.2331Y-2.339
X5.4228Y-4.7063
X5.9031Y-4.7154
X5.4236Y-3.5209
T6
X5.4228Y-4.8283
X5.9031Y-4.8374
X5.4236Y-3.6429
X7.2303Y-3.0531
X7.2327Y-4.2268
X5.4236Y-2.4575
X7.2374Y-4.8165
X7.2335Y-3.6409
X5.4236Y-4.2378
X5.4236Y-3.0524
X7.2331Y-2.461
T7
X7.2331Y-2.7878
X5.4228Y-5.1551
X5.9031Y-5.1642
X5.4236Y-3.9697
X7.2303Y-3.3799
X7.2327Y-4.5535
X5.4236Y-2.7843
X7.2374Y-5.1433
X7.2335Y-3.9677
X5.4236Y-4.5646
X5.4236Y-3.3791
T8
X6.2406Y-1.75
X6.2406Y-2.0728
T4
G00X6.9488Y-1.7213
M15
G01X6.9764Y-1.7213
M16
G05
G00X6.9488Y-2.0992
M15
G01X6.9764Y-2.0992
M16
G05
G00X6.0642Y-2.9724
M15
G01X6.0917Y-2.9724
M16
G05
G00X6.0642Y-3.3504
M15
G01X6.0917Y-3.3504
M16
G05
G00X5.672Y-1.7252
M15
G01X5.6996Y-1.7252
M16
G05
G00X5.672Y-2.1031
M15
G01X5.6996Y-2.1031
M16
G05
G00X6.0508Y-3.5992
M15
G01X6.0783Y-3.5992
M16
G05
G00X6.0508Y-3.9772
M15
G01X6.0783Y-3.9772
M16
G05
G00X6.7059Y-2.9634
M15
G01X6.7335Y-2.9634
M16
G05
G00X6.7059Y-3.3413
M15
G01X6.7335Y-3.3413
M16
G05
T0
M30
