%TF.GenerationSoftware,KiCad,Pcbnew,5.1.7*%
%TF.CreationDate,2020-11-08T18:51:04+01:00*%
%TF.ProjectId,AS3340-VCO,41533333-3430-42d5-9643-4f2e6b696361,rev?*%
%TF.SameCoordinates,Original*%
%TF.FileFunction,Legend,Bot*%
%TF.FilePolarity,Positive*%
%FSLAX46Y46*%
G04 Gerber Fmt 4.6, Leading zero omitted, Abs format (unit mm)*
G04 Created by KiCad (PCBNEW 5.1.7) date 2020-11-08 18:51:04*
%MOMM*%
%LPD*%
G01*
G04 APERTURE LIST*
%ADD10C,0.300000*%
%ADD11C,0.120000*%
%ADD12C,0.150000*%
G04 APERTURE END LIST*
D10*
X172431428Y-134212142D02*
X172431428Y-133355000D01*
X170931428Y-133783571D02*
X172431428Y-133783571D01*
X170931428Y-132855000D02*
X172431428Y-132855000D01*
X170931428Y-132212142D02*
X171717142Y-132212142D01*
X171860000Y-132283571D01*
X171931428Y-132426428D01*
X171931428Y-132640714D01*
X171860000Y-132783571D01*
X171788571Y-132855000D01*
X170931428Y-131497857D02*
X171931428Y-131497857D01*
X172431428Y-131497857D02*
X172360000Y-131569285D01*
X172288571Y-131497857D01*
X172360000Y-131426428D01*
X172431428Y-131497857D01*
X172288571Y-131497857D01*
X171002857Y-130855000D02*
X170931428Y-130712142D01*
X170931428Y-130426428D01*
X171002857Y-130283571D01*
X171145714Y-130212142D01*
X171217142Y-130212142D01*
X171360000Y-130283571D01*
X171431428Y-130426428D01*
X171431428Y-130640714D01*
X171502857Y-130783571D01*
X171645714Y-130855000D01*
X171717142Y-130855000D01*
X171860000Y-130783571D01*
X171931428Y-130640714D01*
X171931428Y-130426428D01*
X171860000Y-130283571D01*
X170931428Y-128426428D02*
X171931428Y-128426428D01*
X171788571Y-128426428D02*
X171860000Y-128355000D01*
X171931428Y-128212142D01*
X171931428Y-127997857D01*
X171860000Y-127855000D01*
X171717142Y-127783571D01*
X170931428Y-127783571D01*
X171717142Y-127783571D02*
X171860000Y-127712142D01*
X171931428Y-127569285D01*
X171931428Y-127355000D01*
X171860000Y-127212142D01*
X171717142Y-127140714D01*
X170931428Y-127140714D01*
X170931428Y-125783571D02*
X171717142Y-125783571D01*
X171860000Y-125855000D01*
X171931428Y-125997857D01*
X171931428Y-126283571D01*
X171860000Y-126426428D01*
X171002857Y-125783571D02*
X170931428Y-125926428D01*
X170931428Y-126283571D01*
X171002857Y-126426428D01*
X171145714Y-126497857D01*
X171288571Y-126497857D01*
X171431428Y-126426428D01*
X171502857Y-126283571D01*
X171502857Y-125926428D01*
X171574285Y-125783571D01*
X171002857Y-124426428D02*
X170931428Y-124569285D01*
X170931428Y-124855000D01*
X171002857Y-124997857D01*
X171074285Y-125069285D01*
X171217142Y-125140714D01*
X171645714Y-125140714D01*
X171788571Y-125069285D01*
X171860000Y-124997857D01*
X171931428Y-124855000D01*
X171931428Y-124569285D01*
X171860000Y-124426428D01*
X170931428Y-123783571D02*
X172431428Y-123783571D01*
X170931428Y-123140714D02*
X171717142Y-123140714D01*
X171860000Y-123212142D01*
X171931428Y-123355000D01*
X171931428Y-123569285D01*
X171860000Y-123712142D01*
X171788571Y-123783571D01*
X170931428Y-122426428D02*
X171931428Y-122426428D01*
X172431428Y-122426428D02*
X172360000Y-122497857D01*
X172288571Y-122426428D01*
X172360000Y-122355000D01*
X172431428Y-122426428D01*
X172288571Y-122426428D01*
X171931428Y-121712142D02*
X170931428Y-121712142D01*
X171788571Y-121712142D02*
X171860000Y-121640714D01*
X171931428Y-121497857D01*
X171931428Y-121283571D01*
X171860000Y-121140714D01*
X171717142Y-121069285D01*
X170931428Y-121069285D01*
X171002857Y-119783571D02*
X170931428Y-119926428D01*
X170931428Y-120212142D01*
X171002857Y-120355000D01*
X171145714Y-120426428D01*
X171717142Y-120426428D01*
X171860000Y-120355000D01*
X171931428Y-120212142D01*
X171931428Y-119926428D01*
X171860000Y-119783571D01*
X171717142Y-119712142D01*
X171574285Y-119712142D01*
X171431428Y-120426428D01*
X170931428Y-117926428D02*
X172431428Y-117926428D01*
X171502857Y-117783571D02*
X170931428Y-117355000D01*
X171931428Y-117355000D02*
X171360000Y-117926428D01*
X170931428Y-116712142D02*
X171931428Y-116712142D01*
X172431428Y-116712142D02*
X172360000Y-116783571D01*
X172288571Y-116712142D01*
X172360000Y-116640714D01*
X172431428Y-116712142D01*
X172288571Y-116712142D01*
X170931428Y-115783571D02*
X171002857Y-115926428D01*
X171145714Y-115997857D01*
X172431428Y-115997857D01*
X170931428Y-114997857D02*
X171002857Y-115140714D01*
X171145714Y-115212142D01*
X172431428Y-115212142D01*
X171002857Y-114497857D02*
X170931428Y-114355000D01*
X170931428Y-114069285D01*
X171002857Y-113926428D01*
X171145714Y-113855000D01*
X171217142Y-113855000D01*
X171360000Y-113926428D01*
X171431428Y-114069285D01*
X171431428Y-114283571D01*
X171502857Y-114426428D01*
X171645714Y-114497857D01*
X171717142Y-114497857D01*
X171860000Y-114426428D01*
X171931428Y-114283571D01*
X171931428Y-114069285D01*
X171860000Y-113926428D01*
X171931428Y-112283571D02*
X171931428Y-111712142D01*
X170931428Y-112069285D02*
X172217142Y-112069285D01*
X172360000Y-111997857D01*
X172431428Y-111855000D01*
X172431428Y-111712142D01*
X170931428Y-110569285D02*
X171717142Y-110569285D01*
X171860000Y-110640714D01*
X171931428Y-110783571D01*
X171931428Y-111069285D01*
X171860000Y-111212142D01*
X171002857Y-110569285D02*
X170931428Y-110712142D01*
X170931428Y-111069285D01*
X171002857Y-111212142D01*
X171145714Y-111283571D01*
X171288571Y-111283571D01*
X171431428Y-111212142D01*
X171502857Y-111069285D01*
X171502857Y-110712142D01*
X171574285Y-110569285D01*
X171002857Y-109926428D02*
X170931428Y-109783571D01*
X170931428Y-109497857D01*
X171002857Y-109355000D01*
X171145714Y-109283571D01*
X171217142Y-109283571D01*
X171360000Y-109355000D01*
X171431428Y-109497857D01*
X171431428Y-109712142D01*
X171502857Y-109855000D01*
X171645714Y-109926428D01*
X171717142Y-109926428D01*
X171860000Y-109855000D01*
X171931428Y-109712142D01*
X171931428Y-109497857D01*
X171860000Y-109355000D01*
X171002857Y-107997857D02*
X170931428Y-108140714D01*
X170931428Y-108426428D01*
X171002857Y-108569285D01*
X171074285Y-108640714D01*
X171217142Y-108712142D01*
X171645714Y-108712142D01*
X171788571Y-108640714D01*
X171860000Y-108569285D01*
X171931428Y-108426428D01*
X171931428Y-108140714D01*
X171860000Y-107997857D01*
X170931428Y-107355000D02*
X171931428Y-107355000D01*
X172431428Y-107355000D02*
X172360000Y-107426428D01*
X172288571Y-107355000D01*
X172360000Y-107283571D01*
X172431428Y-107355000D01*
X172288571Y-107355000D01*
X171002857Y-106712142D02*
X170931428Y-106569285D01*
X170931428Y-106283571D01*
X171002857Y-106140714D01*
X171145714Y-106069285D01*
X171217142Y-106069285D01*
X171360000Y-106140714D01*
X171431428Y-106283571D01*
X171431428Y-106497857D01*
X171502857Y-106640714D01*
X171645714Y-106712142D01*
X171717142Y-106712142D01*
X171860000Y-106640714D01*
X171931428Y-106497857D01*
X171931428Y-106283571D01*
X171860000Y-106140714D01*
X171931428Y-105640714D02*
X171931428Y-105069285D01*
X172431428Y-105426428D02*
X171145714Y-105426428D01*
X171002857Y-105355000D01*
X170931428Y-105212142D01*
X170931428Y-105069285D01*
X171002857Y-104640714D02*
X170931428Y-104497857D01*
X170931428Y-104212142D01*
X171002857Y-104069285D01*
X171145714Y-103997857D01*
X171217142Y-103997857D01*
X171360000Y-104069285D01*
X171431428Y-104212142D01*
X171431428Y-104426428D01*
X171502857Y-104569285D01*
X171645714Y-104640714D01*
X171717142Y-104640714D01*
X171860000Y-104569285D01*
X171931428Y-104426428D01*
X171931428Y-104212142D01*
X171860000Y-104069285D01*
X171074285Y-103355000D02*
X171002857Y-103283571D01*
X170931428Y-103355000D01*
X171002857Y-103426428D01*
X171074285Y-103355000D01*
X170931428Y-103355000D01*
X175032857Y-54769285D02*
X174961428Y-54555000D01*
X174961428Y-54197857D01*
X175032857Y-54055000D01*
X175104285Y-53983571D01*
X175247142Y-53912142D01*
X175390000Y-53912142D01*
X175532857Y-53983571D01*
X175604285Y-54055000D01*
X175675714Y-54197857D01*
X175747142Y-54483571D01*
X175818571Y-54626428D01*
X175890000Y-54697857D01*
X176032857Y-54769285D01*
X176175714Y-54769285D01*
X176318571Y-54697857D01*
X176390000Y-54626428D01*
X176461428Y-54483571D01*
X176461428Y-54126428D01*
X176390000Y-53912142D01*
X175032857Y-52697857D02*
X174961428Y-52840714D01*
X174961428Y-53126428D01*
X175032857Y-53269285D01*
X175175714Y-53340714D01*
X175747142Y-53340714D01*
X175890000Y-53269285D01*
X175961428Y-53126428D01*
X175961428Y-52840714D01*
X175890000Y-52697857D01*
X175747142Y-52626428D01*
X175604285Y-52626428D01*
X175461428Y-53340714D01*
X174961428Y-51340714D02*
X175747142Y-51340714D01*
X175890000Y-51412142D01*
X175961428Y-51555000D01*
X175961428Y-51840714D01*
X175890000Y-51983571D01*
X175032857Y-51340714D02*
X174961428Y-51483571D01*
X174961428Y-51840714D01*
X175032857Y-51983571D01*
X175175714Y-52055000D01*
X175318571Y-52055000D01*
X175461428Y-51983571D01*
X175532857Y-51840714D01*
X175532857Y-51483571D01*
X175604285Y-51340714D01*
X175961428Y-50840714D02*
X175961428Y-50269285D01*
X176461428Y-50626428D02*
X175175714Y-50626428D01*
X175032857Y-50555000D01*
X174961428Y-50412142D01*
X174961428Y-50269285D01*
X175961428Y-49983571D02*
X175961428Y-49412142D01*
X176461428Y-49769285D02*
X175175714Y-49769285D01*
X175032857Y-49697857D01*
X174961428Y-49555000D01*
X174961428Y-49412142D01*
X174961428Y-48697857D02*
X175032857Y-48840714D01*
X175175714Y-48912142D01*
X176461428Y-48912142D01*
X175032857Y-47555000D02*
X174961428Y-47697857D01*
X174961428Y-47983571D01*
X175032857Y-48126428D01*
X175175714Y-48197857D01*
X175747142Y-48197857D01*
X175890000Y-48126428D01*
X175961428Y-47983571D01*
X175961428Y-47697857D01*
X175890000Y-47555000D01*
X175747142Y-47483571D01*
X175604285Y-47483571D01*
X175461428Y-48197857D01*
X175032857Y-45769285D02*
X174961428Y-45555000D01*
X174961428Y-45197857D01*
X175032857Y-45055000D01*
X175104285Y-44983571D01*
X175247142Y-44912142D01*
X175390000Y-44912142D01*
X175532857Y-44983571D01*
X175604285Y-45055000D01*
X175675714Y-45197857D01*
X175747142Y-45483571D01*
X175818571Y-45626428D01*
X175890000Y-45697857D01*
X176032857Y-45769285D01*
X176175714Y-45769285D01*
X176318571Y-45697857D01*
X176390000Y-45626428D01*
X176461428Y-45483571D01*
X176461428Y-45126428D01*
X176390000Y-44912142D01*
X175961428Y-44412142D02*
X174961428Y-44055000D01*
X175961428Y-43697857D02*
X174961428Y-44055000D01*
X174604285Y-44197857D01*
X174532857Y-44269285D01*
X174461428Y-44412142D01*
X175961428Y-43126428D02*
X174961428Y-43126428D01*
X175818571Y-43126428D02*
X175890000Y-43055000D01*
X175961428Y-42912142D01*
X175961428Y-42697857D01*
X175890000Y-42555000D01*
X175747142Y-42483571D01*
X174961428Y-42483571D01*
X175961428Y-41983571D02*
X175961428Y-41412142D01*
X176461428Y-41769285D02*
X175175714Y-41769285D01*
X175032857Y-41697857D01*
X174961428Y-41555000D01*
X174961428Y-41412142D01*
X174961428Y-40912142D02*
X176461428Y-40912142D01*
X174961428Y-40269285D02*
X175747142Y-40269285D01*
X175890000Y-40340714D01*
X175961428Y-40483571D01*
X175961428Y-40697857D01*
X175890000Y-40840714D01*
X175818571Y-40912142D01*
X175032857Y-39626428D02*
X174961428Y-39483571D01*
X174961428Y-39197857D01*
X175032857Y-39055000D01*
X175175714Y-38983571D01*
X175247142Y-38983571D01*
X175390000Y-39055000D01*
X175461428Y-39197857D01*
X175461428Y-39412142D01*
X175532857Y-39555000D01*
X175675714Y-39626428D01*
X175747142Y-39626428D01*
X175890000Y-39555000D01*
X175961428Y-39412142D01*
X175961428Y-39197857D01*
X175890000Y-39055000D01*
X172482857Y-54769285D02*
X172411428Y-54555000D01*
X172411428Y-54197857D01*
X172482857Y-54055000D01*
X172554285Y-53983571D01*
X172697142Y-53912142D01*
X172840000Y-53912142D01*
X172982857Y-53983571D01*
X173054285Y-54055000D01*
X173125714Y-54197857D01*
X173197142Y-54483571D01*
X173268571Y-54626428D01*
X173340000Y-54697857D01*
X173482857Y-54769285D01*
X173625714Y-54769285D01*
X173768571Y-54697857D01*
X173840000Y-54626428D01*
X173911428Y-54483571D01*
X173911428Y-54126428D01*
X173840000Y-53912142D01*
X172482857Y-53340714D02*
X172411428Y-53126428D01*
X172411428Y-52769285D01*
X172482857Y-52626428D01*
X172554285Y-52555000D01*
X172697142Y-52483571D01*
X172840000Y-52483571D01*
X172982857Y-52555000D01*
X173054285Y-52626428D01*
X173125714Y-52769285D01*
X173197142Y-53055000D01*
X173268571Y-53197857D01*
X173340000Y-53269285D01*
X173482857Y-53340714D01*
X173625714Y-53340714D01*
X173768571Y-53269285D01*
X173840000Y-53197857D01*
X173911428Y-53055000D01*
X173911428Y-52697857D01*
X173840000Y-52483571D01*
X172982857Y-51840714D02*
X172982857Y-50697857D01*
X173911428Y-50197857D02*
X172411428Y-49697857D01*
X173911428Y-49197857D01*
X172554285Y-47840714D02*
X172482857Y-47912142D01*
X172411428Y-48126428D01*
X172411428Y-48269285D01*
X172482857Y-48483571D01*
X172625714Y-48626428D01*
X172768571Y-48697857D01*
X173054285Y-48769285D01*
X173268571Y-48769285D01*
X173554285Y-48697857D01*
X173697142Y-48626428D01*
X173840000Y-48483571D01*
X173911428Y-48269285D01*
X173911428Y-48126428D01*
X173840000Y-47912142D01*
X173768571Y-47840714D01*
X173911428Y-46912142D02*
X173911428Y-46626428D01*
X173840000Y-46483571D01*
X173697142Y-46340714D01*
X173411428Y-46269285D01*
X172911428Y-46269285D01*
X172625714Y-46340714D01*
X172482857Y-46483571D01*
X172411428Y-46626428D01*
X172411428Y-46912142D01*
X172482857Y-47055000D01*
X172625714Y-47197857D01*
X172911428Y-47269285D01*
X173411428Y-47269285D01*
X173697142Y-47197857D01*
X173840000Y-47055000D01*
X173911428Y-46912142D01*
X172982857Y-45626428D02*
X172982857Y-44483571D01*
X172411428Y-42983571D02*
X172411428Y-43840714D01*
X172411428Y-43412142D02*
X173911428Y-43412142D01*
X173697142Y-43555000D01*
X173554285Y-43697857D01*
X173482857Y-43840714D01*
X169861428Y-53840714D02*
X170575714Y-54340714D01*
X169861428Y-54697857D02*
X171361428Y-54697857D01*
X171361428Y-54126428D01*
X171290000Y-53983571D01*
X171218571Y-53912142D01*
X171075714Y-53840714D01*
X170861428Y-53840714D01*
X170718571Y-53912142D01*
X170647142Y-53983571D01*
X170575714Y-54126428D01*
X170575714Y-54697857D01*
X169932857Y-52626428D02*
X169861428Y-52769285D01*
X169861428Y-53055000D01*
X169932857Y-53197857D01*
X170075714Y-53269285D01*
X170647142Y-53269285D01*
X170790000Y-53197857D01*
X170861428Y-53055000D01*
X170861428Y-52769285D01*
X170790000Y-52626428D01*
X170647142Y-52555000D01*
X170504285Y-52555000D01*
X170361428Y-53269285D01*
X170861428Y-52055000D02*
X169861428Y-51697857D01*
X170861428Y-51340714D01*
X170004285Y-50769285D02*
X169932857Y-50697857D01*
X169861428Y-50769285D01*
X169932857Y-50840714D01*
X170004285Y-50769285D01*
X169861428Y-50769285D01*
X169861428Y-48126428D02*
X169861428Y-48983571D01*
X169861428Y-48555000D02*
X171361428Y-48555000D01*
X171147142Y-48697857D01*
X171004285Y-48840714D01*
X170932857Y-48983571D01*
X169361428Y-45912142D02*
X169361428Y-46269285D01*
X171504285Y-46269285D01*
X171504285Y-45912142D01*
X171218571Y-45412142D02*
X171290000Y-45340714D01*
X171361428Y-45197857D01*
X171361428Y-44840714D01*
X171290000Y-44697857D01*
X171218571Y-44626428D01*
X171075714Y-44555000D01*
X170932857Y-44555000D01*
X170718571Y-44626428D01*
X169861428Y-45483571D01*
X169861428Y-44555000D01*
X171361428Y-43626428D02*
X171361428Y-43483571D01*
X171290000Y-43340714D01*
X171218571Y-43269285D01*
X171075714Y-43197857D01*
X170790000Y-43126428D01*
X170432857Y-43126428D01*
X170147142Y-43197857D01*
X170004285Y-43269285D01*
X169932857Y-43340714D01*
X169861428Y-43483571D01*
X169861428Y-43626428D01*
X169932857Y-43769285D01*
X170004285Y-43840714D01*
X170147142Y-43912142D01*
X170432857Y-43983571D01*
X170790000Y-43983571D01*
X171075714Y-43912142D01*
X171218571Y-43840714D01*
X171290000Y-43769285D01*
X171361428Y-43626428D01*
X171218571Y-42555000D02*
X171290000Y-42483571D01*
X171361428Y-42340714D01*
X171361428Y-41983571D01*
X171290000Y-41840714D01*
X171218571Y-41769285D01*
X171075714Y-41697857D01*
X170932857Y-41697857D01*
X170718571Y-41769285D01*
X169861428Y-42626428D01*
X169861428Y-41697857D01*
X171361428Y-40769285D02*
X171361428Y-40626428D01*
X171290000Y-40483571D01*
X171218571Y-40412142D01*
X171075714Y-40340714D01*
X170790000Y-40269285D01*
X170432857Y-40269285D01*
X170147142Y-40340714D01*
X170004285Y-40412142D01*
X169932857Y-40483571D01*
X169861428Y-40626428D01*
X169861428Y-40769285D01*
X169932857Y-40912142D01*
X170004285Y-40983571D01*
X170147142Y-41055000D01*
X170432857Y-41126428D01*
X170790000Y-41126428D01*
X171075714Y-41055000D01*
X171218571Y-40983571D01*
X171290000Y-40912142D01*
X171361428Y-40769285D01*
X170432857Y-39626428D02*
X170432857Y-38483571D01*
X169861428Y-36983571D02*
X169861428Y-37840714D01*
X169861428Y-37412142D02*
X171361428Y-37412142D01*
X171147142Y-37555000D01*
X171004285Y-37697857D01*
X170932857Y-37840714D01*
X169861428Y-35555000D02*
X169861428Y-36412142D01*
X169861428Y-35983571D02*
X171361428Y-35983571D01*
X171147142Y-36126428D01*
X171004285Y-36269285D01*
X170932857Y-36412142D01*
X170432857Y-34912142D02*
X170432857Y-33769285D01*
X171361428Y-32769285D02*
X171361428Y-32626428D01*
X171290000Y-32483571D01*
X171218571Y-32412142D01*
X171075714Y-32340714D01*
X170790000Y-32269285D01*
X170432857Y-32269285D01*
X170147142Y-32340714D01*
X170004285Y-32412142D01*
X169932857Y-32483571D01*
X169861428Y-32626428D01*
X169861428Y-32769285D01*
X169932857Y-32912142D01*
X170004285Y-32983571D01*
X170147142Y-33055000D01*
X170432857Y-33126428D01*
X170790000Y-33126428D01*
X171075714Y-33055000D01*
X171218571Y-32983571D01*
X171290000Y-32912142D01*
X171361428Y-32769285D01*
X170718571Y-31412142D02*
X170790000Y-31555000D01*
X170861428Y-31626428D01*
X171004285Y-31697857D01*
X171075714Y-31697857D01*
X171218571Y-31626428D01*
X171290000Y-31555000D01*
X171361428Y-31412142D01*
X171361428Y-31126428D01*
X171290000Y-30983571D01*
X171218571Y-30912142D01*
X171075714Y-30840714D01*
X171004285Y-30840714D01*
X170861428Y-30912142D01*
X170790000Y-30983571D01*
X170718571Y-31126428D01*
X170718571Y-31412142D01*
X170647142Y-31555000D01*
X170575714Y-31626428D01*
X170432857Y-31697857D01*
X170147142Y-31697857D01*
X170004285Y-31626428D01*
X169932857Y-31555000D01*
X169861428Y-31412142D01*
X169861428Y-31126428D01*
X169932857Y-30983571D01*
X170004285Y-30912142D01*
X170147142Y-30840714D01*
X170432857Y-30840714D01*
X170575714Y-30912142D01*
X170647142Y-30983571D01*
X170718571Y-31126428D01*
X169361428Y-30340714D02*
X169361428Y-29983571D01*
X171504285Y-29983571D01*
X171504285Y-30340714D01*
D11*
%TO.C,SW1*%
X148872654Y-115000000D02*
G75*
G03*
X148872654Y-115000000I-3702654J0D01*
G01*
X145170000Y-111825000D02*
X141995000Y-113095000D01*
X148345000Y-113095000D02*
X145170000Y-111825000D01*
X148345000Y-116905000D02*
X148345000Y-113095000D01*
X145170000Y-118175000D02*
X148345000Y-116905000D01*
X141995000Y-116905000D02*
X145170000Y-118175000D01*
X141995000Y-113095000D02*
X141995000Y-116905000D01*
X149615000Y-108015000D02*
X140725000Y-108015000D01*
X149615000Y-121985000D02*
X149615000Y-108015000D01*
X140725000Y-121985000D02*
X149615000Y-121985000D01*
X140725000Y-108015000D02*
X140725000Y-121985000D01*
%TO.C,RV8*%
X152190000Y-63350000D02*
X161930000Y-63350000D01*
X152190000Y-74940000D02*
X153680000Y-74940000D01*
X152190000Y-66410000D02*
X152190000Y-63350000D01*
X161940000Y-74940000D02*
X161940000Y-70220000D01*
X161930000Y-66410000D02*
X161930000Y-63350000D01*
X152190000Y-74940000D02*
X152190000Y-70220000D01*
X160750000Y-74940000D02*
X161930000Y-74940000D01*
X157850000Y-74940000D02*
X158380000Y-74940000D01*
X155400000Y-74940000D02*
X156230000Y-74940000D01*
%TO.C,RV5*%
X127620000Y-34930000D02*
X137360000Y-34930000D01*
X127620000Y-46520000D02*
X129110000Y-46520000D01*
X127620000Y-37990000D02*
X127620000Y-34930000D01*
X137370000Y-46520000D02*
X137370000Y-41800000D01*
X137360000Y-37990000D02*
X137360000Y-34930000D01*
X127620000Y-46520000D02*
X127620000Y-41800000D01*
X136180000Y-46520000D02*
X137360000Y-46520000D01*
X133280000Y-46520000D02*
X133810000Y-46520000D01*
X130830000Y-46520000D02*
X131660000Y-46520000D01*
%TO.C,RV3*%
X140240000Y-82100000D02*
X149980000Y-82100000D01*
X140240000Y-93690000D02*
X141730000Y-93690000D01*
X140240000Y-85160000D02*
X140240000Y-82100000D01*
X149990000Y-93690000D02*
X149990000Y-88970000D01*
X149980000Y-85160000D02*
X149980000Y-82100000D01*
X140240000Y-93690000D02*
X140240000Y-88970000D01*
X148800000Y-93690000D02*
X149980000Y-93690000D01*
X145900000Y-93690000D02*
X146430000Y-93690000D01*
X143450000Y-93690000D02*
X144280000Y-93690000D01*
%TO.C,RV2*%
X127620000Y-63390000D02*
X137360000Y-63390000D01*
X127620000Y-74980000D02*
X129110000Y-74980000D01*
X127620000Y-66450000D02*
X127620000Y-63390000D01*
X137370000Y-74980000D02*
X137370000Y-70260000D01*
X137360000Y-66450000D02*
X137360000Y-63390000D01*
X127620000Y-74980000D02*
X127620000Y-70260000D01*
X136180000Y-74980000D02*
X137360000Y-74980000D01*
X133280000Y-74980000D02*
X133810000Y-74980000D01*
X130830000Y-74980000D02*
X131660000Y-74980000D01*
%TO.C,RV1*%
X152290000Y-35040000D02*
X162030000Y-35040000D01*
X152290000Y-46630000D02*
X153780000Y-46630000D01*
X152290000Y-38100000D02*
X152290000Y-35040000D01*
X162040000Y-46630000D02*
X162040000Y-41910000D01*
X162030000Y-38100000D02*
X162030000Y-35040000D01*
X152290000Y-46630000D02*
X152290000Y-41910000D01*
X160850000Y-46630000D02*
X162030000Y-46630000D01*
X157950000Y-46630000D02*
X158480000Y-46630000D01*
X155500000Y-46630000D02*
X156330000Y-46630000D01*
%TO.C,J11*%
X160110000Y-109100000D02*
X159250000Y-109100000D01*
X160110000Y-109100000D02*
X160110000Y-109900000D01*
X160850000Y-116580000D02*
G75*
G03*
X160850000Y-116580000I-1800000J0D01*
G01*
X159400000Y-112080000D02*
X163550000Y-112080000D01*
X154550000Y-112080000D02*
X158700000Y-112080000D01*
X159550000Y-122580000D02*
X163550000Y-122580000D01*
X154550000Y-122580000D02*
X158550000Y-122580000D01*
X154550000Y-112080000D02*
X154550000Y-122580000D01*
X163550000Y-112080000D02*
X163550000Y-122580000D01*
%TO.C,J10*%
X160090000Y-123980000D02*
X159230000Y-123980000D01*
X160090000Y-123980000D02*
X160090000Y-124780000D01*
X160830000Y-131460000D02*
G75*
G03*
X160830000Y-131460000I-1800000J0D01*
G01*
X159380000Y-126960000D02*
X163530000Y-126960000D01*
X154530000Y-126960000D02*
X158680000Y-126960000D01*
X159530000Y-137460000D02*
X163530000Y-137460000D01*
X154530000Y-137460000D02*
X158530000Y-137460000D01*
X154530000Y-126960000D02*
X154530000Y-137460000D01*
X163530000Y-126960000D02*
X163530000Y-137460000D01*
%TO.C,J9*%
X160210000Y-138960000D02*
X159350000Y-138960000D01*
X160210000Y-138960000D02*
X160210000Y-139760000D01*
X160950000Y-146440000D02*
G75*
G03*
X160950000Y-146440000I-1800000J0D01*
G01*
X159500000Y-141940000D02*
X163650000Y-141940000D01*
X154650000Y-141940000D02*
X158800000Y-141940000D01*
X159650000Y-152440000D02*
X163650000Y-152440000D01*
X154650000Y-152440000D02*
X158650000Y-152440000D01*
X154650000Y-141940000D02*
X154650000Y-152440000D01*
X163650000Y-141940000D02*
X163650000Y-152440000D01*
%TO.C,J8*%
X160030000Y-94170000D02*
X159170000Y-94170000D01*
X160030000Y-94170000D02*
X160030000Y-94970000D01*
X160770000Y-101650000D02*
G75*
G03*
X160770000Y-101650000I-1800000J0D01*
G01*
X159320000Y-97150000D02*
X163470000Y-97150000D01*
X154470000Y-97150000D02*
X158620000Y-97150000D01*
X159470000Y-107650000D02*
X163470000Y-107650000D01*
X154470000Y-107650000D02*
X158470000Y-107650000D01*
X154470000Y-97150000D02*
X154470000Y-107650000D01*
X163470000Y-97150000D02*
X163470000Y-107650000D01*
%TO.C,J7*%
X131930000Y-123870000D02*
X131070000Y-123870000D01*
X131930000Y-123870000D02*
X131930000Y-124670000D01*
X132670000Y-131350000D02*
G75*
G03*
X132670000Y-131350000I-1800000J0D01*
G01*
X131220000Y-126850000D02*
X135370000Y-126850000D01*
X126370000Y-126850000D02*
X130520000Y-126850000D01*
X131370000Y-137350000D02*
X135370000Y-137350000D01*
X126370000Y-137350000D02*
X130370000Y-137350000D01*
X126370000Y-126850000D02*
X126370000Y-137350000D01*
X135370000Y-126850000D02*
X135370000Y-137350000D01*
%TO.C,J6*%
X146010000Y-133390000D02*
X145150000Y-133390000D01*
X146010000Y-133390000D02*
X146010000Y-134190000D01*
X146750000Y-140870000D02*
G75*
G03*
X146750000Y-140870000I-1800000J0D01*
G01*
X145300000Y-136370000D02*
X149450000Y-136370000D01*
X140450000Y-136370000D02*
X144600000Y-136370000D01*
X145450000Y-146870000D02*
X149450000Y-146870000D01*
X140450000Y-146870000D02*
X144450000Y-146870000D01*
X140450000Y-136370000D02*
X140450000Y-146870000D01*
X149450000Y-136370000D02*
X149450000Y-146870000D01*
%TO.C,J5*%
X131910000Y-138870000D02*
X131050000Y-138870000D01*
X131910000Y-138870000D02*
X131910000Y-139670000D01*
X132650000Y-146350000D02*
G75*
G03*
X132650000Y-146350000I-1800000J0D01*
G01*
X131200000Y-141850000D02*
X135350000Y-141850000D01*
X126350000Y-141850000D02*
X130500000Y-141850000D01*
X131350000Y-152350000D02*
X135350000Y-152350000D01*
X126350000Y-152350000D02*
X130350000Y-152350000D01*
X126350000Y-141850000D02*
X126350000Y-152350000D01*
X135350000Y-141850000D02*
X135350000Y-152350000D01*
%TO.C,J4*%
X131930000Y-108760000D02*
X131070000Y-108760000D01*
X131930000Y-108760000D02*
X131930000Y-109560000D01*
X132670000Y-116240000D02*
G75*
G03*
X132670000Y-116240000I-1800000J0D01*
G01*
X131220000Y-111740000D02*
X135370000Y-111740000D01*
X126370000Y-111740000D02*
X130520000Y-111740000D01*
X131370000Y-122240000D02*
X135370000Y-122240000D01*
X126370000Y-122240000D02*
X130370000Y-122240000D01*
X126370000Y-111740000D02*
X126370000Y-122240000D01*
X135370000Y-111740000D02*
X135370000Y-122240000D01*
%TO.C,J3*%
X131930000Y-93760000D02*
X131070000Y-93760000D01*
X131930000Y-93760000D02*
X131930000Y-94560000D01*
X132670000Y-101240000D02*
G75*
G03*
X132670000Y-101240000I-1800000J0D01*
G01*
X131220000Y-96740000D02*
X135370000Y-96740000D01*
X126370000Y-96740000D02*
X130520000Y-96740000D01*
X131370000Y-107240000D02*
X135370000Y-107240000D01*
X126370000Y-107240000D02*
X130370000Y-107240000D01*
X126370000Y-96740000D02*
X126370000Y-107240000D01*
X135370000Y-96740000D02*
X135370000Y-107240000D01*
%TO.C,J2*%
X160100000Y-79130000D02*
X159240000Y-79130000D01*
X160100000Y-79130000D02*
X160100000Y-79930000D01*
X160840000Y-86610000D02*
G75*
G03*
X160840000Y-86610000I-1800000J0D01*
G01*
X159390000Y-82110000D02*
X163540000Y-82110000D01*
X154540000Y-82110000D02*
X158690000Y-82110000D01*
X159540000Y-92610000D02*
X163540000Y-92610000D01*
X154540000Y-92610000D02*
X158540000Y-92610000D01*
X154540000Y-82110000D02*
X154540000Y-92610000D01*
X163540000Y-82110000D02*
X163540000Y-92610000D01*
%TO.C,J1*%
X131930000Y-78650000D02*
X131070000Y-78650000D01*
X131930000Y-78650000D02*
X131930000Y-79450000D01*
X132670000Y-86130000D02*
G75*
G03*
X132670000Y-86130000I-1800000J0D01*
G01*
X131220000Y-81630000D02*
X135370000Y-81630000D01*
X126370000Y-81630000D02*
X130520000Y-81630000D01*
X131370000Y-92130000D02*
X135370000Y-92130000D01*
X126370000Y-92130000D02*
X130370000Y-92130000D01*
X126370000Y-81630000D02*
X126370000Y-92130000D01*
X135370000Y-81630000D02*
X135370000Y-92130000D01*
%TO.C,D4*%
X113980000Y-36725000D02*
X113980000Y-33635000D01*
X119040000Y-35180000D02*
G75*
G03*
X119040000Y-35180000I-2500000J0D01*
G01*
X119530000Y-35180462D02*
G75*
G03*
X113980000Y-33635170I-2990000J462D01*
G01*
X119530000Y-35179538D02*
G75*
G02*
X113980000Y-36724830I-2990000J-462D01*
G01*
%TO.C,RV8*%
D12*
X164652380Y-68514761D02*
X164176190Y-68181428D01*
X164652380Y-67943333D02*
X163652380Y-67943333D01*
X163652380Y-68324285D01*
X163700000Y-68419523D01*
X163747619Y-68467142D01*
X163842857Y-68514761D01*
X163985714Y-68514761D01*
X164080952Y-68467142D01*
X164128571Y-68419523D01*
X164176190Y-68324285D01*
X164176190Y-67943333D01*
X163652380Y-68800476D02*
X164652380Y-69133809D01*
X163652380Y-69467142D01*
X164080952Y-69943333D02*
X164033333Y-69848095D01*
X163985714Y-69800476D01*
X163890476Y-69752857D01*
X163842857Y-69752857D01*
X163747619Y-69800476D01*
X163700000Y-69848095D01*
X163652380Y-69943333D01*
X163652380Y-70133809D01*
X163700000Y-70229047D01*
X163747619Y-70276666D01*
X163842857Y-70324285D01*
X163890476Y-70324285D01*
X163985714Y-70276666D01*
X164033333Y-70229047D01*
X164080952Y-70133809D01*
X164080952Y-69943333D01*
X164128571Y-69848095D01*
X164176190Y-69800476D01*
X164271428Y-69752857D01*
X164461904Y-69752857D01*
X164557142Y-69800476D01*
X164604761Y-69848095D01*
X164652380Y-69943333D01*
X164652380Y-70133809D01*
X164604761Y-70229047D01*
X164557142Y-70276666D01*
X164461904Y-70324285D01*
X164271428Y-70324285D01*
X164176190Y-70276666D01*
X164128571Y-70229047D01*
X164080952Y-70133809D01*
X150152380Y-74653333D02*
X150152380Y-74081904D01*
X150152380Y-74367619D02*
X149152380Y-74367619D01*
X149295238Y-74272380D01*
X149390476Y-74177142D01*
X149438095Y-74081904D01*
X149152380Y-75272380D02*
X149152380Y-75367619D01*
X149200000Y-75462857D01*
X149247619Y-75510476D01*
X149342857Y-75558095D01*
X149533333Y-75605714D01*
X149771428Y-75605714D01*
X149961904Y-75558095D01*
X150057142Y-75510476D01*
X150104761Y-75462857D01*
X150152380Y-75367619D01*
X150152380Y-75272380D01*
X150104761Y-75177142D01*
X150057142Y-75129523D01*
X149961904Y-75081904D01*
X149771428Y-75034285D01*
X149533333Y-75034285D01*
X149342857Y-75081904D01*
X149247619Y-75129523D01*
X149200000Y-75177142D01*
X149152380Y-75272380D01*
X149152380Y-76224761D02*
X149152380Y-76320000D01*
X149200000Y-76415238D01*
X149247619Y-76462857D01*
X149342857Y-76510476D01*
X149533333Y-76558095D01*
X149771428Y-76558095D01*
X149961904Y-76510476D01*
X150057142Y-76462857D01*
X150104761Y-76415238D01*
X150152380Y-76320000D01*
X150152380Y-76224761D01*
X150104761Y-76129523D01*
X150057142Y-76081904D01*
X149961904Y-76034285D01*
X149771428Y-75986666D01*
X149533333Y-75986666D01*
X149342857Y-76034285D01*
X149247619Y-76081904D01*
X149200000Y-76129523D01*
X149152380Y-76224761D01*
X150152380Y-76986666D02*
X149152380Y-76986666D01*
X150152380Y-77558095D02*
X149580952Y-77129523D01*
X149152380Y-77558095D02*
X149723809Y-76986666D01*
%TO.C,RV5*%
X140082380Y-40094761D02*
X139606190Y-39761428D01*
X140082380Y-39523333D02*
X139082380Y-39523333D01*
X139082380Y-39904285D01*
X139130000Y-39999523D01*
X139177619Y-40047142D01*
X139272857Y-40094761D01*
X139415714Y-40094761D01*
X139510952Y-40047142D01*
X139558571Y-39999523D01*
X139606190Y-39904285D01*
X139606190Y-39523333D01*
X139082380Y-40380476D02*
X140082380Y-40713809D01*
X139082380Y-41047142D01*
X139082380Y-41856666D02*
X139082380Y-41380476D01*
X139558571Y-41332857D01*
X139510952Y-41380476D01*
X139463333Y-41475714D01*
X139463333Y-41713809D01*
X139510952Y-41809047D01*
X139558571Y-41856666D01*
X139653809Y-41904285D01*
X139891904Y-41904285D01*
X139987142Y-41856666D01*
X140034761Y-41809047D01*
X140082380Y-41713809D01*
X140082380Y-41475714D01*
X140034761Y-41380476D01*
X139987142Y-41332857D01*
X125582380Y-46233333D02*
X125582380Y-45661904D01*
X125582380Y-45947619D02*
X124582380Y-45947619D01*
X124725238Y-45852380D01*
X124820476Y-45757142D01*
X124868095Y-45661904D01*
X124582380Y-46852380D02*
X124582380Y-46947619D01*
X124630000Y-47042857D01*
X124677619Y-47090476D01*
X124772857Y-47138095D01*
X124963333Y-47185714D01*
X125201428Y-47185714D01*
X125391904Y-47138095D01*
X125487142Y-47090476D01*
X125534761Y-47042857D01*
X125582380Y-46947619D01*
X125582380Y-46852380D01*
X125534761Y-46757142D01*
X125487142Y-46709523D01*
X125391904Y-46661904D01*
X125201428Y-46614285D01*
X124963333Y-46614285D01*
X124772857Y-46661904D01*
X124677619Y-46709523D01*
X124630000Y-46757142D01*
X124582380Y-46852380D01*
X124582380Y-47804761D02*
X124582380Y-47900000D01*
X124630000Y-47995238D01*
X124677619Y-48042857D01*
X124772857Y-48090476D01*
X124963333Y-48138095D01*
X125201428Y-48138095D01*
X125391904Y-48090476D01*
X125487142Y-48042857D01*
X125534761Y-47995238D01*
X125582380Y-47900000D01*
X125582380Y-47804761D01*
X125534761Y-47709523D01*
X125487142Y-47661904D01*
X125391904Y-47614285D01*
X125201428Y-47566666D01*
X124963333Y-47566666D01*
X124772857Y-47614285D01*
X124677619Y-47661904D01*
X124630000Y-47709523D01*
X124582380Y-47804761D01*
X125582380Y-48566666D02*
X124582380Y-48566666D01*
X125582380Y-49138095D02*
X125010952Y-48709523D01*
X124582380Y-49138095D02*
X125153809Y-48566666D01*
%TO.C,RV3*%
X152702380Y-87264761D02*
X152226190Y-86931428D01*
X152702380Y-86693333D02*
X151702380Y-86693333D01*
X151702380Y-87074285D01*
X151750000Y-87169523D01*
X151797619Y-87217142D01*
X151892857Y-87264761D01*
X152035714Y-87264761D01*
X152130952Y-87217142D01*
X152178571Y-87169523D01*
X152226190Y-87074285D01*
X152226190Y-86693333D01*
X151702380Y-87550476D02*
X152702380Y-87883809D01*
X151702380Y-88217142D01*
X151702380Y-88455238D02*
X151702380Y-89074285D01*
X152083333Y-88740952D01*
X152083333Y-88883809D01*
X152130952Y-88979047D01*
X152178571Y-89026666D01*
X152273809Y-89074285D01*
X152511904Y-89074285D01*
X152607142Y-89026666D01*
X152654761Y-88979047D01*
X152702380Y-88883809D01*
X152702380Y-88598095D01*
X152654761Y-88502857D01*
X152607142Y-88455238D01*
X138202380Y-93403333D02*
X138202380Y-92831904D01*
X138202380Y-93117619D02*
X137202380Y-93117619D01*
X137345238Y-93022380D01*
X137440476Y-92927142D01*
X137488095Y-92831904D01*
X137202380Y-94022380D02*
X137202380Y-94117619D01*
X137250000Y-94212857D01*
X137297619Y-94260476D01*
X137392857Y-94308095D01*
X137583333Y-94355714D01*
X137821428Y-94355714D01*
X138011904Y-94308095D01*
X138107142Y-94260476D01*
X138154761Y-94212857D01*
X138202380Y-94117619D01*
X138202380Y-94022380D01*
X138154761Y-93927142D01*
X138107142Y-93879523D01*
X138011904Y-93831904D01*
X137821428Y-93784285D01*
X137583333Y-93784285D01*
X137392857Y-93831904D01*
X137297619Y-93879523D01*
X137250000Y-93927142D01*
X137202380Y-94022380D01*
X137202380Y-94974761D02*
X137202380Y-95070000D01*
X137250000Y-95165238D01*
X137297619Y-95212857D01*
X137392857Y-95260476D01*
X137583333Y-95308095D01*
X137821428Y-95308095D01*
X138011904Y-95260476D01*
X138107142Y-95212857D01*
X138154761Y-95165238D01*
X138202380Y-95070000D01*
X138202380Y-94974761D01*
X138154761Y-94879523D01*
X138107142Y-94831904D01*
X138011904Y-94784285D01*
X137821428Y-94736666D01*
X137583333Y-94736666D01*
X137392857Y-94784285D01*
X137297619Y-94831904D01*
X137250000Y-94879523D01*
X137202380Y-94974761D01*
X138202380Y-95736666D02*
X137202380Y-95736666D01*
X138202380Y-96308095D02*
X137630952Y-95879523D01*
X137202380Y-96308095D02*
X137773809Y-95736666D01*
%TO.C,RV2*%
X140082380Y-68554761D02*
X139606190Y-68221428D01*
X140082380Y-67983333D02*
X139082380Y-67983333D01*
X139082380Y-68364285D01*
X139130000Y-68459523D01*
X139177619Y-68507142D01*
X139272857Y-68554761D01*
X139415714Y-68554761D01*
X139510952Y-68507142D01*
X139558571Y-68459523D01*
X139606190Y-68364285D01*
X139606190Y-67983333D01*
X139082380Y-68840476D02*
X140082380Y-69173809D01*
X139082380Y-69507142D01*
X139177619Y-69792857D02*
X139130000Y-69840476D01*
X139082380Y-69935714D01*
X139082380Y-70173809D01*
X139130000Y-70269047D01*
X139177619Y-70316666D01*
X139272857Y-70364285D01*
X139368095Y-70364285D01*
X139510952Y-70316666D01*
X140082380Y-69745238D01*
X140082380Y-70364285D01*
X125582380Y-74693333D02*
X125582380Y-74121904D01*
X125582380Y-74407619D02*
X124582380Y-74407619D01*
X124725238Y-74312380D01*
X124820476Y-74217142D01*
X124868095Y-74121904D01*
X124582380Y-75312380D02*
X124582380Y-75407619D01*
X124630000Y-75502857D01*
X124677619Y-75550476D01*
X124772857Y-75598095D01*
X124963333Y-75645714D01*
X125201428Y-75645714D01*
X125391904Y-75598095D01*
X125487142Y-75550476D01*
X125534761Y-75502857D01*
X125582380Y-75407619D01*
X125582380Y-75312380D01*
X125534761Y-75217142D01*
X125487142Y-75169523D01*
X125391904Y-75121904D01*
X125201428Y-75074285D01*
X124963333Y-75074285D01*
X124772857Y-75121904D01*
X124677619Y-75169523D01*
X124630000Y-75217142D01*
X124582380Y-75312380D01*
X124582380Y-76264761D02*
X124582380Y-76360000D01*
X124630000Y-76455238D01*
X124677619Y-76502857D01*
X124772857Y-76550476D01*
X124963333Y-76598095D01*
X125201428Y-76598095D01*
X125391904Y-76550476D01*
X125487142Y-76502857D01*
X125534761Y-76455238D01*
X125582380Y-76360000D01*
X125582380Y-76264761D01*
X125534761Y-76169523D01*
X125487142Y-76121904D01*
X125391904Y-76074285D01*
X125201428Y-76026666D01*
X124963333Y-76026666D01*
X124772857Y-76074285D01*
X124677619Y-76121904D01*
X124630000Y-76169523D01*
X124582380Y-76264761D01*
X125582380Y-77026666D02*
X124582380Y-77026666D01*
X125582380Y-77598095D02*
X125010952Y-77169523D01*
X124582380Y-77598095D02*
X125153809Y-77026666D01*
%TO.C,RV1*%
X164752380Y-40204761D02*
X164276190Y-39871428D01*
X164752380Y-39633333D02*
X163752380Y-39633333D01*
X163752380Y-40014285D01*
X163800000Y-40109523D01*
X163847619Y-40157142D01*
X163942857Y-40204761D01*
X164085714Y-40204761D01*
X164180952Y-40157142D01*
X164228571Y-40109523D01*
X164276190Y-40014285D01*
X164276190Y-39633333D01*
X163752380Y-40490476D02*
X164752380Y-40823809D01*
X163752380Y-41157142D01*
X164752380Y-42014285D02*
X164752380Y-41442857D01*
X164752380Y-41728571D02*
X163752380Y-41728571D01*
X163895238Y-41633333D01*
X163990476Y-41538095D01*
X164038095Y-41442857D01*
X150252380Y-46343333D02*
X150252380Y-45771904D01*
X150252380Y-46057619D02*
X149252380Y-46057619D01*
X149395238Y-45962380D01*
X149490476Y-45867142D01*
X149538095Y-45771904D01*
X149252380Y-46962380D02*
X149252380Y-47057619D01*
X149300000Y-47152857D01*
X149347619Y-47200476D01*
X149442857Y-47248095D01*
X149633333Y-47295714D01*
X149871428Y-47295714D01*
X150061904Y-47248095D01*
X150157142Y-47200476D01*
X150204761Y-47152857D01*
X150252380Y-47057619D01*
X150252380Y-46962380D01*
X150204761Y-46867142D01*
X150157142Y-46819523D01*
X150061904Y-46771904D01*
X149871428Y-46724285D01*
X149633333Y-46724285D01*
X149442857Y-46771904D01*
X149347619Y-46819523D01*
X149300000Y-46867142D01*
X149252380Y-46962380D01*
X149252380Y-47914761D02*
X149252380Y-48010000D01*
X149300000Y-48105238D01*
X149347619Y-48152857D01*
X149442857Y-48200476D01*
X149633333Y-48248095D01*
X149871428Y-48248095D01*
X150061904Y-48200476D01*
X150157142Y-48152857D01*
X150204761Y-48105238D01*
X150252380Y-48010000D01*
X150252380Y-47914761D01*
X150204761Y-47819523D01*
X150157142Y-47771904D01*
X150061904Y-47724285D01*
X149871428Y-47676666D01*
X149633333Y-47676666D01*
X149442857Y-47724285D01*
X149347619Y-47771904D01*
X149300000Y-47819523D01*
X149252380Y-47914761D01*
X150252380Y-48676666D02*
X149252380Y-48676666D01*
X150252380Y-49248095D02*
X149680952Y-48819523D01*
X149252380Y-49248095D02*
X149823809Y-48676666D01*
%TO.C,J11*%
X163889523Y-110632380D02*
X163889523Y-111346666D01*
X163937142Y-111489523D01*
X164032380Y-111584761D01*
X164175238Y-111632380D01*
X164270476Y-111632380D01*
X162889523Y-111632380D02*
X163460952Y-111632380D01*
X163175238Y-111632380D02*
X163175238Y-110632380D01*
X163270476Y-110775238D01*
X163365714Y-110870476D01*
X163460952Y-110918095D01*
X161937142Y-111632380D02*
X162508571Y-111632380D01*
X162222857Y-111632380D02*
X162222857Y-110632380D01*
X162318095Y-110775238D01*
X162413333Y-110870476D01*
X162508571Y-110918095D01*
X164979380Y-111561142D02*
X164979380Y-112132571D01*
X165979380Y-111846857D02*
X164979380Y-111846857D01*
X165979380Y-113037333D02*
X165503190Y-112704000D01*
X165979380Y-112465904D02*
X164979380Y-112465904D01*
X164979380Y-112846857D01*
X165027000Y-112942095D01*
X165074619Y-112989714D01*
X165169857Y-113037333D01*
X165312714Y-113037333D01*
X165407952Y-112989714D01*
X165455571Y-112942095D01*
X165503190Y-112846857D01*
X165503190Y-112465904D01*
X165979380Y-113465904D02*
X164979380Y-113465904D01*
X165693666Y-113894476D02*
X165693666Y-114370666D01*
X165979380Y-113799238D02*
X164979380Y-114132571D01*
X165979380Y-114465904D01*
X165979380Y-114799238D02*
X164979380Y-114799238D01*
X165979380Y-115370666D01*
X164979380Y-115370666D01*
X165027000Y-116370666D02*
X164979380Y-116275428D01*
X164979380Y-116132571D01*
X165027000Y-115989714D01*
X165122238Y-115894476D01*
X165217476Y-115846857D01*
X165407952Y-115799238D01*
X165550809Y-115799238D01*
X165741285Y-115846857D01*
X165836523Y-115894476D01*
X165931761Y-115989714D01*
X165979380Y-116132571D01*
X165979380Y-116227809D01*
X165931761Y-116370666D01*
X165884142Y-116418285D01*
X165550809Y-116418285D01*
X165550809Y-116227809D01*
X165979380Y-117323047D02*
X165979380Y-116846857D01*
X164979380Y-116846857D01*
X165455571Y-117656380D02*
X165455571Y-117989714D01*
X165979380Y-118132571D02*
X165979380Y-117656380D01*
X164979380Y-117656380D01*
X164979380Y-118132571D01*
X166074619Y-118323047D02*
X166074619Y-119084952D01*
X164979380Y-119513523D02*
X164979380Y-119704000D01*
X165027000Y-119799238D01*
X165122238Y-119894476D01*
X165312714Y-119942095D01*
X165646047Y-119942095D01*
X165836523Y-119894476D01*
X165931761Y-119799238D01*
X165979380Y-119704000D01*
X165979380Y-119513523D01*
X165931761Y-119418285D01*
X165836523Y-119323047D01*
X165646047Y-119275428D01*
X165312714Y-119275428D01*
X165122238Y-119323047D01*
X165027000Y-119418285D01*
X164979380Y-119513523D01*
X164979380Y-120370666D02*
X165788904Y-120370666D01*
X165884142Y-120418285D01*
X165931761Y-120465904D01*
X165979380Y-120561142D01*
X165979380Y-120751619D01*
X165931761Y-120846857D01*
X165884142Y-120894476D01*
X165788904Y-120942095D01*
X164979380Y-120942095D01*
X164979380Y-121275428D02*
X164979380Y-121846857D01*
X165979380Y-121561142D02*
X164979380Y-121561142D01*
%TO.C,J10*%
X163869523Y-125512380D02*
X163869523Y-126226666D01*
X163917142Y-126369523D01*
X164012380Y-126464761D01*
X164155238Y-126512380D01*
X164250476Y-126512380D01*
X162869523Y-126512380D02*
X163440952Y-126512380D01*
X163155238Y-126512380D02*
X163155238Y-125512380D01*
X163250476Y-125655238D01*
X163345714Y-125750476D01*
X163440952Y-125798095D01*
X162250476Y-125512380D02*
X162155238Y-125512380D01*
X162060000Y-125560000D01*
X162012380Y-125607619D01*
X161964761Y-125702857D01*
X161917142Y-125893333D01*
X161917142Y-126131428D01*
X161964761Y-126321904D01*
X162012380Y-126417142D01*
X162060000Y-126464761D01*
X162155238Y-126512380D01*
X162250476Y-126512380D01*
X162345714Y-126464761D01*
X162393333Y-126417142D01*
X162440952Y-126321904D01*
X162488571Y-126131428D01*
X162488571Y-125893333D01*
X162440952Y-125702857D01*
X162393333Y-125607619D01*
X162345714Y-125560000D01*
X162250476Y-125512380D01*
X165911761Y-126155428D02*
X165959380Y-126298285D01*
X165959380Y-126536380D01*
X165911761Y-126631619D01*
X165864142Y-126679238D01*
X165768904Y-126726857D01*
X165673666Y-126726857D01*
X165578428Y-126679238D01*
X165530809Y-126631619D01*
X165483190Y-126536380D01*
X165435571Y-126345904D01*
X165387952Y-126250666D01*
X165340333Y-126203047D01*
X165245095Y-126155428D01*
X165149857Y-126155428D01*
X165054619Y-126203047D01*
X165007000Y-126250666D01*
X164959380Y-126345904D01*
X164959380Y-126584000D01*
X165007000Y-126726857D01*
X165673666Y-127107809D02*
X165673666Y-127584000D01*
X165959380Y-127012571D02*
X164959380Y-127345904D01*
X165959380Y-127679238D01*
X164959380Y-127917333D02*
X165959380Y-128155428D01*
X165245095Y-128345904D01*
X165959380Y-128536380D01*
X164959380Y-128774476D01*
X164959380Y-129012571D02*
X164959380Y-129584000D01*
X165959380Y-129298285D02*
X164959380Y-129298285D01*
X164959380Y-130107809D02*
X164959380Y-130298285D01*
X165007000Y-130393523D01*
X165102238Y-130488761D01*
X165292714Y-130536380D01*
X165626047Y-130536380D01*
X165816523Y-130488761D01*
X165911761Y-130393523D01*
X165959380Y-130298285D01*
X165959380Y-130107809D01*
X165911761Y-130012571D01*
X165816523Y-129917333D01*
X165626047Y-129869714D01*
X165292714Y-129869714D01*
X165102238Y-129917333D01*
X165007000Y-130012571D01*
X164959380Y-130107809D01*
X164959380Y-131155428D02*
X164959380Y-131345904D01*
X165007000Y-131441142D01*
X165102238Y-131536380D01*
X165292714Y-131584000D01*
X165626047Y-131584000D01*
X165816523Y-131536380D01*
X165911761Y-131441142D01*
X165959380Y-131345904D01*
X165959380Y-131155428D01*
X165911761Y-131060190D01*
X165816523Y-130964952D01*
X165626047Y-130917333D01*
X165292714Y-130917333D01*
X165102238Y-130964952D01*
X165007000Y-131060190D01*
X164959380Y-131155428D01*
X164959380Y-131869714D02*
X164959380Y-132441142D01*
X165959380Y-132155428D02*
X164959380Y-132155428D01*
X165959380Y-132774476D02*
X164959380Y-132774476D01*
X165435571Y-132774476D02*
X165435571Y-133345904D01*
X165959380Y-133345904D02*
X164959380Y-133345904D01*
X166054619Y-133584000D02*
X166054619Y-134345904D01*
X164959380Y-134774476D02*
X164959380Y-134964952D01*
X165007000Y-135060190D01*
X165102238Y-135155428D01*
X165292714Y-135203047D01*
X165626047Y-135203047D01*
X165816523Y-135155428D01*
X165911761Y-135060190D01*
X165959380Y-134964952D01*
X165959380Y-134774476D01*
X165911761Y-134679238D01*
X165816523Y-134584000D01*
X165626047Y-134536380D01*
X165292714Y-134536380D01*
X165102238Y-134584000D01*
X165007000Y-134679238D01*
X164959380Y-134774476D01*
X164959380Y-135631619D02*
X165768904Y-135631619D01*
X165864142Y-135679238D01*
X165911761Y-135726857D01*
X165959380Y-135822095D01*
X165959380Y-136012571D01*
X165911761Y-136107809D01*
X165864142Y-136155428D01*
X165768904Y-136203047D01*
X164959380Y-136203047D01*
X164959380Y-136536380D02*
X164959380Y-137107809D01*
X165959380Y-136822095D02*
X164959380Y-136822095D01*
%TO.C,J9*%
X163513333Y-140492380D02*
X163513333Y-141206666D01*
X163560952Y-141349523D01*
X163656190Y-141444761D01*
X163799047Y-141492380D01*
X163894285Y-141492380D01*
X162989523Y-141492380D02*
X162799047Y-141492380D01*
X162703809Y-141444761D01*
X162656190Y-141397142D01*
X162560952Y-141254285D01*
X162513333Y-141063809D01*
X162513333Y-140682857D01*
X162560952Y-140587619D01*
X162608571Y-140540000D01*
X162703809Y-140492380D01*
X162894285Y-140492380D01*
X162989523Y-140540000D01*
X163037142Y-140587619D01*
X163084761Y-140682857D01*
X163084761Y-140920952D01*
X163037142Y-141016190D01*
X162989523Y-141063809D01*
X162894285Y-141111428D01*
X162703809Y-141111428D01*
X162608571Y-141063809D01*
X162560952Y-141016190D01*
X162513333Y-140920952D01*
X166031761Y-142040190D02*
X166079380Y-142183047D01*
X166079380Y-142421142D01*
X166031761Y-142516380D01*
X165984142Y-142564000D01*
X165888904Y-142611619D01*
X165793666Y-142611619D01*
X165698428Y-142564000D01*
X165650809Y-142516380D01*
X165603190Y-142421142D01*
X165555571Y-142230666D01*
X165507952Y-142135428D01*
X165460333Y-142087809D01*
X165365095Y-142040190D01*
X165269857Y-142040190D01*
X165174619Y-142087809D01*
X165127000Y-142135428D01*
X165079380Y-142230666D01*
X165079380Y-142468761D01*
X165127000Y-142611619D01*
X166174619Y-143706857D02*
X166127000Y-143611619D01*
X166031761Y-143516380D01*
X165888904Y-143373523D01*
X165841285Y-143278285D01*
X165841285Y-143183047D01*
X166079380Y-143230666D02*
X166031761Y-143135428D01*
X165936523Y-143040190D01*
X165746047Y-142992571D01*
X165412714Y-142992571D01*
X165222238Y-143040190D01*
X165127000Y-143135428D01*
X165079380Y-143230666D01*
X165079380Y-143421142D01*
X165127000Y-143516380D01*
X165222238Y-143611619D01*
X165412714Y-143659238D01*
X165746047Y-143659238D01*
X165936523Y-143611619D01*
X166031761Y-143516380D01*
X166079380Y-143421142D01*
X166079380Y-143230666D01*
X165079380Y-144087809D02*
X165888904Y-144087809D01*
X165984142Y-144135428D01*
X166031761Y-144183047D01*
X166079380Y-144278285D01*
X166079380Y-144468761D01*
X166031761Y-144564000D01*
X165984142Y-144611619D01*
X165888904Y-144659238D01*
X165079380Y-144659238D01*
X165793666Y-145087809D02*
X165793666Y-145564000D01*
X166079380Y-144992571D02*
X165079380Y-145325904D01*
X166079380Y-145659238D01*
X166079380Y-146564000D02*
X165603190Y-146230666D01*
X166079380Y-145992571D02*
X165079380Y-145992571D01*
X165079380Y-146373523D01*
X165127000Y-146468761D01*
X165174619Y-146516380D01*
X165269857Y-146564000D01*
X165412714Y-146564000D01*
X165507952Y-146516380D01*
X165555571Y-146468761D01*
X165603190Y-146373523D01*
X165603190Y-145992571D01*
X165555571Y-146992571D02*
X165555571Y-147325904D01*
X166079380Y-147468761D02*
X166079380Y-146992571D01*
X165079380Y-146992571D01*
X165079380Y-147468761D01*
X166174619Y-147659238D02*
X166174619Y-148421142D01*
X165079380Y-148849714D02*
X165079380Y-149040190D01*
X165127000Y-149135428D01*
X165222238Y-149230666D01*
X165412714Y-149278285D01*
X165746047Y-149278285D01*
X165936523Y-149230666D01*
X166031761Y-149135428D01*
X166079380Y-149040190D01*
X166079380Y-148849714D01*
X166031761Y-148754476D01*
X165936523Y-148659238D01*
X165746047Y-148611619D01*
X165412714Y-148611619D01*
X165222238Y-148659238D01*
X165127000Y-148754476D01*
X165079380Y-148849714D01*
X165079380Y-149706857D02*
X165888904Y-149706857D01*
X165984142Y-149754476D01*
X166031761Y-149802095D01*
X166079380Y-149897333D01*
X166079380Y-150087809D01*
X166031761Y-150183047D01*
X165984142Y-150230666D01*
X165888904Y-150278285D01*
X165079380Y-150278285D01*
X165079380Y-150611619D02*
X165079380Y-151183047D01*
X166079380Y-150897333D02*
X165079380Y-150897333D01*
%TO.C,J8*%
X163333333Y-95702380D02*
X163333333Y-96416666D01*
X163380952Y-96559523D01*
X163476190Y-96654761D01*
X163619047Y-96702380D01*
X163714285Y-96702380D01*
X162714285Y-96130952D02*
X162809523Y-96083333D01*
X162857142Y-96035714D01*
X162904761Y-95940476D01*
X162904761Y-95892857D01*
X162857142Y-95797619D01*
X162809523Y-95750000D01*
X162714285Y-95702380D01*
X162523809Y-95702380D01*
X162428571Y-95750000D01*
X162380952Y-95797619D01*
X162333333Y-95892857D01*
X162333333Y-95940476D01*
X162380952Y-96035714D01*
X162428571Y-96083333D01*
X162523809Y-96130952D01*
X162714285Y-96130952D01*
X162809523Y-96178571D01*
X162857142Y-96226190D01*
X162904761Y-96321428D01*
X162904761Y-96511904D01*
X162857142Y-96607142D01*
X162809523Y-96654761D01*
X162714285Y-96702380D01*
X162523809Y-96702380D01*
X162428571Y-96654761D01*
X162380952Y-96607142D01*
X162333333Y-96511904D01*
X162333333Y-96321428D01*
X162380952Y-96226190D01*
X162428571Y-96178571D01*
X162523809Y-96130952D01*
X165375571Y-100202571D02*
X165375571Y-99869238D01*
X165899380Y-99869238D02*
X164899380Y-99869238D01*
X164899380Y-100345428D01*
X165899380Y-100726380D02*
X164899380Y-100726380D01*
X165613666Y-101059714D01*
X164899380Y-101393047D01*
X165899380Y-101393047D01*
X165994619Y-101631142D02*
X165994619Y-102393047D01*
X165899380Y-102631142D02*
X164899380Y-102631142D01*
X165899380Y-103107333D02*
X164899380Y-103107333D01*
X165899380Y-103678761D01*
X164899380Y-103678761D01*
%TO.C,J7*%
X135233333Y-125402380D02*
X135233333Y-126116666D01*
X135280952Y-126259523D01*
X135376190Y-126354761D01*
X135519047Y-126402380D01*
X135614285Y-126402380D01*
X134852380Y-125402380D02*
X134185714Y-125402380D01*
X134614285Y-126402380D01*
X137751761Y-126402571D02*
X137799380Y-126545428D01*
X137799380Y-126783523D01*
X137751761Y-126878761D01*
X137704142Y-126926380D01*
X137608904Y-126974000D01*
X137513666Y-126974000D01*
X137418428Y-126926380D01*
X137370809Y-126878761D01*
X137323190Y-126783523D01*
X137275571Y-126593047D01*
X137227952Y-126497809D01*
X137180333Y-126450190D01*
X137085095Y-126402571D01*
X136989857Y-126402571D01*
X136894619Y-126450190D01*
X136847000Y-126497809D01*
X136799380Y-126593047D01*
X136799380Y-126831142D01*
X136847000Y-126974000D01*
X136799380Y-127593047D02*
X136799380Y-127783523D01*
X136847000Y-127878761D01*
X136942238Y-127974000D01*
X137132714Y-128021619D01*
X137466047Y-128021619D01*
X137656523Y-127974000D01*
X137751761Y-127878761D01*
X137799380Y-127783523D01*
X137799380Y-127593047D01*
X137751761Y-127497809D01*
X137656523Y-127402571D01*
X137466047Y-127354952D01*
X137132714Y-127354952D01*
X136942238Y-127402571D01*
X136847000Y-127497809D01*
X136799380Y-127593047D01*
X137275571Y-128783523D02*
X137275571Y-128450190D01*
X137799380Y-128450190D02*
X136799380Y-128450190D01*
X136799380Y-128926380D01*
X136799380Y-129164476D02*
X136799380Y-129735904D01*
X137799380Y-129450190D02*
X136799380Y-129450190D01*
X137894619Y-129831142D02*
X137894619Y-130593047D01*
X137751761Y-130783523D02*
X137799380Y-130926380D01*
X137799380Y-131164476D01*
X137751761Y-131259714D01*
X137704142Y-131307333D01*
X137608904Y-131354952D01*
X137513666Y-131354952D01*
X137418428Y-131307333D01*
X137370809Y-131259714D01*
X137323190Y-131164476D01*
X137275571Y-130974000D01*
X137227952Y-130878761D01*
X137180333Y-130831142D01*
X137085095Y-130783523D01*
X136989857Y-130783523D01*
X136894619Y-130831142D01*
X136847000Y-130878761D01*
X136799380Y-130974000D01*
X136799380Y-131212095D01*
X136847000Y-131354952D01*
X137323190Y-131974000D02*
X137799380Y-131974000D01*
X136799380Y-131640666D02*
X137323190Y-131974000D01*
X136799380Y-132307333D01*
X137799380Y-132640666D02*
X136799380Y-132640666D01*
X137799380Y-133212095D01*
X136799380Y-133212095D01*
X137704142Y-134259714D02*
X137751761Y-134212095D01*
X137799380Y-134069238D01*
X137799380Y-133974000D01*
X137751761Y-133831142D01*
X137656523Y-133735904D01*
X137561285Y-133688285D01*
X137370809Y-133640666D01*
X137227952Y-133640666D01*
X137037476Y-133688285D01*
X136942238Y-133735904D01*
X136847000Y-133831142D01*
X136799380Y-133974000D01*
X136799380Y-134069238D01*
X136847000Y-134212095D01*
X136894619Y-134259714D01*
X137894619Y-134450190D02*
X137894619Y-135212095D01*
X137799380Y-135450190D02*
X136799380Y-135450190D01*
X137799380Y-135926380D02*
X136799380Y-135926380D01*
X137799380Y-136497809D01*
X136799380Y-136497809D01*
%TO.C,J6*%
X149313333Y-134922380D02*
X149313333Y-135636666D01*
X149360952Y-135779523D01*
X149456190Y-135874761D01*
X149599047Y-135922380D01*
X149694285Y-135922380D01*
X148408571Y-134922380D02*
X148599047Y-134922380D01*
X148694285Y-134970000D01*
X148741904Y-135017619D01*
X148837142Y-135160476D01*
X148884761Y-135350952D01*
X148884761Y-135731904D01*
X148837142Y-135827142D01*
X148789523Y-135874761D01*
X148694285Y-135922380D01*
X148503809Y-135922380D01*
X148408571Y-135874761D01*
X148360952Y-135827142D01*
X148313333Y-135731904D01*
X148313333Y-135493809D01*
X148360952Y-135398571D01*
X148408571Y-135350952D01*
X148503809Y-135303333D01*
X148694285Y-135303333D01*
X148789523Y-135350952D01*
X148837142Y-135398571D01*
X148884761Y-135493809D01*
X151879380Y-133970190D02*
X150879380Y-133970190D01*
X151879380Y-134541619D01*
X150879380Y-134541619D01*
X151355571Y-135017809D02*
X151355571Y-135351142D01*
X151879380Y-135494000D02*
X151879380Y-135017809D01*
X150879380Y-135017809D01*
X150879380Y-135494000D01*
X150927000Y-136446380D02*
X150879380Y-136351142D01*
X150879380Y-136208285D01*
X150927000Y-136065428D01*
X151022238Y-135970190D01*
X151117476Y-135922571D01*
X151307952Y-135874952D01*
X151450809Y-135874952D01*
X151641285Y-135922571D01*
X151736523Y-135970190D01*
X151831761Y-136065428D01*
X151879380Y-136208285D01*
X151879380Y-136303523D01*
X151831761Y-136446380D01*
X151784142Y-136494000D01*
X151450809Y-136494000D01*
X151450809Y-136303523D01*
X151974619Y-136684476D02*
X151974619Y-137446380D01*
X151879380Y-137684476D02*
X150879380Y-137684476D01*
X151355571Y-137684476D02*
X151355571Y-138255904D01*
X151879380Y-138255904D02*
X150879380Y-138255904D01*
X151593666Y-138684476D02*
X151593666Y-139160666D01*
X151879380Y-138589238D02*
X150879380Y-138922571D01*
X151879380Y-139255904D01*
X151879380Y-140160666D02*
X151403190Y-139827333D01*
X151879380Y-139589238D02*
X150879380Y-139589238D01*
X150879380Y-139970190D01*
X150927000Y-140065428D01*
X150974619Y-140113047D01*
X151069857Y-140160666D01*
X151212714Y-140160666D01*
X151307952Y-140113047D01*
X151355571Y-140065428D01*
X151403190Y-139970190D01*
X151403190Y-139589238D01*
X151879380Y-140589238D02*
X150879380Y-140589238D01*
X150879380Y-140827333D01*
X150927000Y-140970190D01*
X151022238Y-141065428D01*
X151117476Y-141113047D01*
X151307952Y-141160666D01*
X151450809Y-141160666D01*
X151641285Y-141113047D01*
X151736523Y-141065428D01*
X151831761Y-140970190D01*
X151879380Y-140827333D01*
X151879380Y-140589238D01*
X151974619Y-141351142D02*
X151974619Y-142113047D01*
X151831761Y-142303523D02*
X151879380Y-142446380D01*
X151879380Y-142684476D01*
X151831761Y-142779714D01*
X151784142Y-142827333D01*
X151688904Y-142874952D01*
X151593666Y-142874952D01*
X151498428Y-142827333D01*
X151450809Y-142779714D01*
X151403190Y-142684476D01*
X151355571Y-142494000D01*
X151307952Y-142398761D01*
X151260333Y-142351142D01*
X151165095Y-142303523D01*
X151069857Y-142303523D01*
X150974619Y-142351142D01*
X150927000Y-142398761D01*
X150879380Y-142494000D01*
X150879380Y-142732095D01*
X150927000Y-142874952D01*
X151403190Y-143494000D02*
X151879380Y-143494000D01*
X150879380Y-143160666D02*
X151403190Y-143494000D01*
X150879380Y-143827333D01*
X151879380Y-144160666D02*
X150879380Y-144160666D01*
X151879380Y-144732095D01*
X150879380Y-144732095D01*
X151784142Y-145779714D02*
X151831761Y-145732095D01*
X151879380Y-145589238D01*
X151879380Y-145494000D01*
X151831761Y-145351142D01*
X151736523Y-145255904D01*
X151641285Y-145208285D01*
X151450809Y-145160666D01*
X151307952Y-145160666D01*
X151117476Y-145208285D01*
X151022238Y-145255904D01*
X150927000Y-145351142D01*
X150879380Y-145494000D01*
X150879380Y-145589238D01*
X150927000Y-145732095D01*
X150974619Y-145779714D01*
X151974619Y-145970190D02*
X151974619Y-146732095D01*
X151879380Y-146970190D02*
X150879380Y-146970190D01*
X151879380Y-147446380D02*
X150879380Y-147446380D01*
X151879380Y-148017809D01*
X150879380Y-148017809D01*
%TO.C,J5*%
X135213333Y-140402380D02*
X135213333Y-141116666D01*
X135260952Y-141259523D01*
X135356190Y-141354761D01*
X135499047Y-141402380D01*
X135594285Y-141402380D01*
X134260952Y-140402380D02*
X134737142Y-140402380D01*
X134784761Y-140878571D01*
X134737142Y-140830952D01*
X134641904Y-140783333D01*
X134403809Y-140783333D01*
X134308571Y-140830952D01*
X134260952Y-140878571D01*
X134213333Y-140973809D01*
X134213333Y-141211904D01*
X134260952Y-141307142D01*
X134308571Y-141354761D01*
X134403809Y-141402380D01*
X134641904Y-141402380D01*
X134737142Y-141354761D01*
X134784761Y-141307142D01*
X137779380Y-139426380D02*
X136779380Y-139426380D01*
X136779380Y-139807333D01*
X136827000Y-139902571D01*
X136874619Y-139950190D01*
X136969857Y-139997809D01*
X137112714Y-139997809D01*
X137207952Y-139950190D01*
X137255571Y-139902571D01*
X137303190Y-139807333D01*
X137303190Y-139426380D01*
X136779380Y-140616857D02*
X136779380Y-140807333D01*
X136827000Y-140902571D01*
X136922238Y-140997809D01*
X137112714Y-141045428D01*
X137446047Y-141045428D01*
X137636523Y-140997809D01*
X137731761Y-140902571D01*
X137779380Y-140807333D01*
X137779380Y-140616857D01*
X137731761Y-140521619D01*
X137636523Y-140426380D01*
X137446047Y-140378761D01*
X137112714Y-140378761D01*
X136922238Y-140426380D01*
X136827000Y-140521619D01*
X136779380Y-140616857D01*
X137731761Y-141426380D02*
X137779380Y-141569238D01*
X137779380Y-141807333D01*
X137731761Y-141902571D01*
X137684142Y-141950190D01*
X137588904Y-141997809D01*
X137493666Y-141997809D01*
X137398428Y-141950190D01*
X137350809Y-141902571D01*
X137303190Y-141807333D01*
X137255571Y-141616857D01*
X137207952Y-141521619D01*
X137160333Y-141474000D01*
X137065095Y-141426380D01*
X136969857Y-141426380D01*
X136874619Y-141474000D01*
X136827000Y-141521619D01*
X136779380Y-141616857D01*
X136779380Y-141854952D01*
X136827000Y-141997809D01*
X137874619Y-142188285D02*
X137874619Y-142950190D01*
X137779380Y-143188285D02*
X136779380Y-143188285D01*
X137255571Y-143188285D02*
X137255571Y-143759714D01*
X137779380Y-143759714D02*
X136779380Y-143759714D01*
X137493666Y-144188285D02*
X137493666Y-144664476D01*
X137779380Y-144093047D02*
X136779380Y-144426380D01*
X137779380Y-144759714D01*
X137779380Y-145664476D02*
X137303190Y-145331142D01*
X137779380Y-145093047D02*
X136779380Y-145093047D01*
X136779380Y-145474000D01*
X136827000Y-145569238D01*
X136874619Y-145616857D01*
X136969857Y-145664476D01*
X137112714Y-145664476D01*
X137207952Y-145616857D01*
X137255571Y-145569238D01*
X137303190Y-145474000D01*
X137303190Y-145093047D01*
X137779380Y-146093047D02*
X136779380Y-146093047D01*
X136779380Y-146331142D01*
X136827000Y-146474000D01*
X136922238Y-146569238D01*
X137017476Y-146616857D01*
X137207952Y-146664476D01*
X137350809Y-146664476D01*
X137541285Y-146616857D01*
X137636523Y-146569238D01*
X137731761Y-146474000D01*
X137779380Y-146331142D01*
X137779380Y-146093047D01*
X137874619Y-146854952D02*
X137874619Y-147616857D01*
X137731761Y-147807333D02*
X137779380Y-147950190D01*
X137779380Y-148188285D01*
X137731761Y-148283523D01*
X137684142Y-148331142D01*
X137588904Y-148378761D01*
X137493666Y-148378761D01*
X137398428Y-148331142D01*
X137350809Y-148283523D01*
X137303190Y-148188285D01*
X137255571Y-147997809D01*
X137207952Y-147902571D01*
X137160333Y-147854952D01*
X137065095Y-147807333D01*
X136969857Y-147807333D01*
X136874619Y-147854952D01*
X136827000Y-147902571D01*
X136779380Y-147997809D01*
X136779380Y-148235904D01*
X136827000Y-148378761D01*
X137303190Y-148997809D02*
X137779380Y-148997809D01*
X136779380Y-148664476D02*
X137303190Y-148997809D01*
X136779380Y-149331142D01*
X137779380Y-149664476D02*
X136779380Y-149664476D01*
X137779380Y-150235904D01*
X136779380Y-150235904D01*
X137684142Y-151283523D02*
X137731761Y-151235904D01*
X137779380Y-151093047D01*
X137779380Y-150997809D01*
X137731761Y-150854952D01*
X137636523Y-150759714D01*
X137541285Y-150712095D01*
X137350809Y-150664476D01*
X137207952Y-150664476D01*
X137017476Y-150712095D01*
X136922238Y-150759714D01*
X136827000Y-150854952D01*
X136779380Y-150997809D01*
X136779380Y-151093047D01*
X136827000Y-151235904D01*
X136874619Y-151283523D01*
X137874619Y-151474000D02*
X137874619Y-152235904D01*
X137779380Y-152474000D02*
X136779380Y-152474000D01*
X137779380Y-152950190D02*
X136779380Y-152950190D01*
X137779380Y-153521619D01*
X136779380Y-153521619D01*
%TO.C,J4*%
X135233333Y-110292380D02*
X135233333Y-111006666D01*
X135280952Y-111149523D01*
X135376190Y-111244761D01*
X135519047Y-111292380D01*
X135614285Y-111292380D01*
X134328571Y-110625714D02*
X134328571Y-111292380D01*
X134566666Y-110244761D02*
X134804761Y-110959047D01*
X134185714Y-110959047D01*
X137275571Y-109959238D02*
X137275571Y-110292571D01*
X137799380Y-110435428D02*
X137799380Y-109959238D01*
X136799380Y-109959238D01*
X136799380Y-110435428D01*
X136799380Y-110768761D02*
X137799380Y-111435428D01*
X136799380Y-111435428D02*
X137799380Y-110768761D01*
X136799380Y-111673523D02*
X136799380Y-112244952D01*
X137799380Y-111959238D02*
X136799380Y-111959238D01*
X137894619Y-112340190D02*
X137894619Y-113102095D01*
X137799380Y-113340190D02*
X136799380Y-113340190D01*
X136799380Y-113721142D01*
X136847000Y-113816380D01*
X136894619Y-113864000D01*
X136989857Y-113911619D01*
X137132714Y-113911619D01*
X137227952Y-113864000D01*
X137275571Y-113816380D01*
X137323190Y-113721142D01*
X137323190Y-113340190D01*
X136799380Y-114244952D02*
X137799380Y-114483047D01*
X137085095Y-114673523D01*
X137799380Y-114864000D01*
X136799380Y-115102095D01*
X137799380Y-115483047D02*
X136799380Y-115483047D01*
X137513666Y-115816380D01*
X136799380Y-116149714D01*
X137799380Y-116149714D01*
X137894619Y-116387809D02*
X137894619Y-117149714D01*
X137704142Y-117959238D02*
X137751761Y-117911619D01*
X137799380Y-117768761D01*
X137799380Y-117673523D01*
X137751761Y-117530666D01*
X137656523Y-117435428D01*
X137561285Y-117387809D01*
X137370809Y-117340190D01*
X137227952Y-117340190D01*
X137037476Y-117387809D01*
X136942238Y-117435428D01*
X136847000Y-117530666D01*
X136799380Y-117673523D01*
X136799380Y-117768761D01*
X136847000Y-117911619D01*
X136894619Y-117959238D01*
X136799380Y-118244952D02*
X136799380Y-118816380D01*
X137799380Y-118530666D02*
X136799380Y-118530666D01*
X137799380Y-119721142D02*
X137323190Y-119387809D01*
X137799380Y-119149714D02*
X136799380Y-119149714D01*
X136799380Y-119530666D01*
X136847000Y-119625904D01*
X136894619Y-119673523D01*
X136989857Y-119721142D01*
X137132714Y-119721142D01*
X137227952Y-119673523D01*
X137275571Y-119625904D01*
X137323190Y-119530666D01*
X137323190Y-119149714D01*
X137799380Y-120625904D02*
X137799380Y-120149714D01*
X136799380Y-120149714D01*
X137894619Y-120721142D02*
X137894619Y-121483047D01*
X137799380Y-121721142D02*
X136799380Y-121721142D01*
X137799380Y-122197333D02*
X136799380Y-122197333D01*
X137799380Y-122768761D01*
X136799380Y-122768761D01*
%TO.C,J3*%
X135233333Y-95292380D02*
X135233333Y-96006666D01*
X135280952Y-96149523D01*
X135376190Y-96244761D01*
X135519047Y-96292380D01*
X135614285Y-96292380D01*
X134852380Y-95292380D02*
X134233333Y-95292380D01*
X134566666Y-95673333D01*
X134423809Y-95673333D01*
X134328571Y-95720952D01*
X134280952Y-95768571D01*
X134233333Y-95863809D01*
X134233333Y-96101904D01*
X134280952Y-96197142D01*
X134328571Y-96244761D01*
X134423809Y-96292380D01*
X134709523Y-96292380D01*
X134804761Y-96244761D01*
X134852380Y-96197142D01*
X137704142Y-98221142D02*
X137751761Y-98173523D01*
X137799380Y-98030666D01*
X137799380Y-97935428D01*
X137751761Y-97792571D01*
X137656523Y-97697333D01*
X137561285Y-97649714D01*
X137370809Y-97602095D01*
X137227952Y-97602095D01*
X137037476Y-97649714D01*
X136942238Y-97697333D01*
X136847000Y-97792571D01*
X136799380Y-97935428D01*
X136799380Y-98030666D01*
X136847000Y-98173523D01*
X136894619Y-98221142D01*
X136799380Y-98506857D02*
X137799380Y-98840190D01*
X136799380Y-99173523D01*
X136894619Y-99459238D02*
X136847000Y-99506857D01*
X136799380Y-99602095D01*
X136799380Y-99840190D01*
X136847000Y-99935428D01*
X136894619Y-99983047D01*
X136989857Y-100030666D01*
X137085095Y-100030666D01*
X137227952Y-99983047D01*
X137799380Y-99411619D01*
X137799380Y-100030666D01*
X137894619Y-100221142D02*
X137894619Y-100983047D01*
X137799380Y-101221142D02*
X136799380Y-101221142D01*
X137799380Y-101697333D02*
X136799380Y-101697333D01*
X137799380Y-102268761D01*
X136799380Y-102268761D01*
X137799380Y-102744952D02*
X136799380Y-102744952D01*
X136799380Y-103125904D01*
X136847000Y-103221142D01*
X136894619Y-103268761D01*
X136989857Y-103316380D01*
X137132714Y-103316380D01*
X137227952Y-103268761D01*
X137275571Y-103221142D01*
X137323190Y-103125904D01*
X137323190Y-102744952D01*
X136799380Y-103744952D02*
X137608904Y-103744952D01*
X137704142Y-103792571D01*
X137751761Y-103840190D01*
X137799380Y-103935428D01*
X137799380Y-104125904D01*
X137751761Y-104221142D01*
X137704142Y-104268761D01*
X137608904Y-104316380D01*
X136799380Y-104316380D01*
X136799380Y-104649714D02*
X136799380Y-105221142D01*
X137799380Y-104935428D02*
X136799380Y-104935428D01*
%TO.C,J2*%
X163403333Y-80662380D02*
X163403333Y-81376666D01*
X163450952Y-81519523D01*
X163546190Y-81614761D01*
X163689047Y-81662380D01*
X163784285Y-81662380D01*
X162974761Y-80757619D02*
X162927142Y-80710000D01*
X162831904Y-80662380D01*
X162593809Y-80662380D01*
X162498571Y-80710000D01*
X162450952Y-80757619D01*
X162403333Y-80852857D01*
X162403333Y-80948095D01*
X162450952Y-81090952D01*
X163022380Y-81662380D01*
X162403333Y-81662380D01*
X165969380Y-82853047D02*
X165969380Y-82281619D01*
X165969380Y-82567333D02*
X164969380Y-82567333D01*
X165112238Y-82472095D01*
X165207476Y-82376857D01*
X165255095Y-82281619D01*
X164969380Y-83138761D02*
X165969380Y-83472095D01*
X164969380Y-83805428D01*
X164921761Y-84853047D02*
X166207476Y-83995904D01*
X164969380Y-85376857D02*
X164969380Y-85567333D01*
X165017000Y-85662571D01*
X165112238Y-85757809D01*
X165302714Y-85805428D01*
X165636047Y-85805428D01*
X165826523Y-85757809D01*
X165921761Y-85662571D01*
X165969380Y-85567333D01*
X165969380Y-85376857D01*
X165921761Y-85281619D01*
X165826523Y-85186380D01*
X165636047Y-85138761D01*
X165302714Y-85138761D01*
X165112238Y-85186380D01*
X165017000Y-85281619D01*
X164969380Y-85376857D01*
X165874142Y-86805428D02*
X165921761Y-86757809D01*
X165969380Y-86614952D01*
X165969380Y-86519714D01*
X165921761Y-86376857D01*
X165826523Y-86281619D01*
X165731285Y-86234000D01*
X165540809Y-86186380D01*
X165397952Y-86186380D01*
X165207476Y-86234000D01*
X165112238Y-86281619D01*
X165017000Y-86376857D01*
X164969380Y-86519714D01*
X164969380Y-86614952D01*
X165017000Y-86757809D01*
X165064619Y-86805428D01*
X164969380Y-87091142D02*
X164969380Y-87662571D01*
X165969380Y-87376857D02*
X164969380Y-87376857D01*
X166064619Y-87757809D02*
X166064619Y-88519714D01*
X164969380Y-88948285D02*
X164969380Y-89138761D01*
X165017000Y-89234000D01*
X165112238Y-89329238D01*
X165302714Y-89376857D01*
X165636047Y-89376857D01*
X165826523Y-89329238D01*
X165921761Y-89234000D01*
X165969380Y-89138761D01*
X165969380Y-88948285D01*
X165921761Y-88853047D01*
X165826523Y-88757809D01*
X165636047Y-88710190D01*
X165302714Y-88710190D01*
X165112238Y-88757809D01*
X165017000Y-88853047D01*
X164969380Y-88948285D01*
X164969380Y-89805428D02*
X165778904Y-89805428D01*
X165874142Y-89853047D01*
X165921761Y-89900666D01*
X165969380Y-89995904D01*
X165969380Y-90186380D01*
X165921761Y-90281619D01*
X165874142Y-90329238D01*
X165778904Y-90376857D01*
X164969380Y-90376857D01*
X164969380Y-90710190D02*
X164969380Y-91281619D01*
X165969380Y-90995904D02*
X164969380Y-90995904D01*
%TO.C,J1*%
X135233333Y-80182380D02*
X135233333Y-80896666D01*
X135280952Y-81039523D01*
X135376190Y-81134761D01*
X135519047Y-81182380D01*
X135614285Y-81182380D01*
X134233333Y-81182380D02*
X134804761Y-81182380D01*
X134519047Y-81182380D02*
X134519047Y-80182380D01*
X134614285Y-80325238D01*
X134709523Y-80420476D01*
X134804761Y-80468095D01*
X137799380Y-83039714D02*
X137799380Y-82468285D01*
X137799380Y-82754000D02*
X136799380Y-82754000D01*
X136942238Y-82658761D01*
X137037476Y-82563523D01*
X137085095Y-82468285D01*
X136799380Y-83325428D02*
X137799380Y-83658761D01*
X136799380Y-83992095D01*
X136751761Y-85039714D02*
X138037476Y-84182571D01*
X136799380Y-85563523D02*
X136799380Y-85754000D01*
X136847000Y-85849238D01*
X136942238Y-85944476D01*
X137132714Y-85992095D01*
X137466047Y-85992095D01*
X137656523Y-85944476D01*
X137751761Y-85849238D01*
X137799380Y-85754000D01*
X137799380Y-85563523D01*
X137751761Y-85468285D01*
X137656523Y-85373047D01*
X137466047Y-85325428D01*
X137132714Y-85325428D01*
X136942238Y-85373047D01*
X136847000Y-85468285D01*
X136799380Y-85563523D01*
X137704142Y-86992095D02*
X137751761Y-86944476D01*
X137799380Y-86801619D01*
X137799380Y-86706380D01*
X137751761Y-86563523D01*
X137656523Y-86468285D01*
X137561285Y-86420666D01*
X137370809Y-86373047D01*
X137227952Y-86373047D01*
X137037476Y-86420666D01*
X136942238Y-86468285D01*
X136847000Y-86563523D01*
X136799380Y-86706380D01*
X136799380Y-86801619D01*
X136847000Y-86944476D01*
X136894619Y-86992095D01*
X136799380Y-87277809D02*
X136799380Y-87849238D01*
X137799380Y-87563523D02*
X136799380Y-87563523D01*
X137894619Y-87944476D02*
X137894619Y-88706380D01*
X137799380Y-88944476D02*
X136799380Y-88944476D01*
X137799380Y-89420666D02*
X136799380Y-89420666D01*
X137799380Y-89992095D01*
X136799380Y-89992095D01*
%TO.C,D4*%
X117278095Y-39592380D02*
X117278095Y-38592380D01*
X117040000Y-38592380D01*
X116897142Y-38640000D01*
X116801904Y-38735238D01*
X116754285Y-38830476D01*
X116706666Y-39020952D01*
X116706666Y-39163809D01*
X116754285Y-39354285D01*
X116801904Y-39449523D01*
X116897142Y-39544761D01*
X117040000Y-39592380D01*
X117278095Y-39592380D01*
X115849523Y-38925714D02*
X115849523Y-39592380D01*
X116087619Y-38544761D02*
X116325714Y-39259047D01*
X115706666Y-39259047D01*
X117182857Y-31672380D02*
X117659047Y-31672380D01*
X117659047Y-30672380D01*
X116849523Y-31148571D02*
X116516190Y-31148571D01*
X116373333Y-31672380D02*
X116849523Y-31672380D01*
X116849523Y-30672380D01*
X116373333Y-30672380D01*
X115944761Y-31672380D02*
X115944761Y-30672380D01*
X115706666Y-30672380D01*
X115563809Y-30720000D01*
X115468571Y-30815238D01*
X115420952Y-30910476D01*
X115373333Y-31100952D01*
X115373333Y-31243809D01*
X115420952Y-31434285D01*
X115468571Y-31529523D01*
X115563809Y-31624761D01*
X115706666Y-31672380D01*
X115944761Y-31672380D01*
%TD*%
M02*
