M48
METRIC,TZ
T1C0.400
T2C0.660
T3C0.800
T4C0.890
T5C1.000
T6C1.100
T7C1.220
T8C1.420
T9C1.430
%
G90
G05
T1
X121764Y-94988
X139682Y-121807
X140517Y-119359
X148544Y-40390
X154559Y-132343
X158051Y-122481
X164768Y-89040
X166850Y-128100
T2
X174244Y-79185
X176784Y-76645
X176784Y-81725
X174244Y-88485
X176784Y-85945
X176784Y-91025
X174244Y-97780
X176784Y-95240
X176784Y-100320
T3
X173200Y-69080
X175700Y-69080
X152654Y-95250
X152654Y-102870
X170942Y-124206
X170942Y-126746
X170942Y-129286
X170942Y-131826
X170942Y-134366
X170942Y-136906
X170942Y-139446
X178562Y-124206
X178562Y-126746
X178562Y-129286
X178562Y-131826
X178562Y-134366
X178562Y-136906
X178562Y-139446
X137922Y-81788
X137922Y-89408
X173400Y-59380
X175900Y-59380
X114046Y-121666
X114046Y-124206
X114046Y-126746
X114046Y-129286
X114046Y-131826
X114046Y-134366
X114046Y-136906
X114046Y-139446
X121666Y-121666
X121666Y-124206
X121666Y-126746
X121666Y-129286
X121666Y-131826
X121666Y-134366
X121666Y-136906
X121666Y-139446
X152654Y-83312
X152654Y-90932
T4
X173180Y-36670
X173180Y-39210
X173180Y-41750
X173180Y-44290
X173180Y-46830
X175720Y-36670
X175720Y-39210
X175720Y-41750
X175720Y-44290
X175720Y-46830
T5
X174200Y-107540
X174200Y-112540
X159338Y-81534
X161838Y-81534
X164338Y-81534
X127080Y-81788
X129580Y-81788
X132080Y-81788
X159592Y-47752
X162092Y-47752
X164592Y-47752
X127080Y-47752
X129580Y-47752
X132080Y-47752
X143296Y-65278
X145796Y-65278
X148296Y-65278
T7
X129540Y-87630
X145796Y-69596
X145796Y-127254
X129794Y-127508
X161544Y-106426
X162052Y-53594
X161798Y-87630
X161544Y-127000
X145796Y-106426
X129794Y-53594
X129540Y-106426
T8
X145796Y-72696
X145796Y-130354
X129794Y-130608
X161544Y-109526
X162052Y-56694
X161798Y-90730
X161544Y-130100
X145796Y-109526
X129794Y-56694
X129540Y-109526
X129540Y-90730
T9
X162052Y-64994
X161798Y-99030
X161544Y-138400
X145796Y-117826
X129794Y-64994
X129540Y-117826
X129540Y-99030
X145796Y-80996
X145796Y-138654
X129794Y-138908
X161544Y-117826
T5
G00X146446Y-89022
M15
G01X145146Y-89022
M16
G05
G00X146446Y-93472
M15
G01X145146Y-93472
M16
G05
G00X146446Y-97922
M15
G01X145146Y-97922
M16
G05
T6
G00X124780Y-73938
M15
G01X124780Y-74638
M16
G05
G00X134380Y-73938
M15
G01X134380Y-74638
M16
G05
G00X157292Y-39902
M15
G01X157292Y-40602
M16
G05
G00X166892Y-39902
M15
G01X166892Y-40602
M16
G05
G00X124780Y-39902
M15
G01X124780Y-40602
M16
G05
G00X134380Y-39902
M15
G01X134380Y-40602
M16
G05
G00X140996Y-57428
M15
G01X140996Y-58128
M16
G05
G00X150596Y-57428
M15
G01X150596Y-58128
M16
G05
G00X157038Y-73684
M15
G01X157038Y-74384
M16
G05
G00X166638Y-73684
M15
G01X166638Y-74384
M16
G05
T0
M30
