G04 #@! TF.GenerationSoftware,KiCad,Pcbnew,5.1.8*
G04 #@! TF.CreationDate,2020-12-03T15:53:58+01:00*
G04 #@! TF.ProjectId,AS3340-VCO,41533333-3430-42d5-9643-4f2e6b696361,1*
G04 #@! TF.SameCoordinates,Original*
G04 #@! TF.FileFunction,Legend,Bot*
G04 #@! TF.FilePolarity,Positive*
%FSLAX46Y46*%
G04 Gerber Fmt 4.6, Leading zero omitted, Abs format (unit mm)*
G04 Created by KiCad (PCBNEW 5.1.8) date 2020-12-03 15:53:58*
%MOMM*%
%LPD*%
G01*
G04 APERTURE LIST*
%ADD10C,0.300000*%
%ADD11C,0.120000*%
%ADD12C,0.150000*%
G04 APERTURE END LIST*
D10*
X161714142Y-145482571D02*
X160857000Y-145482571D01*
X161285571Y-146982571D02*
X161285571Y-145482571D01*
X160357000Y-146982571D02*
X160357000Y-145482571D01*
X159714142Y-146982571D02*
X159714142Y-146196857D01*
X159785571Y-146054000D01*
X159928428Y-145982571D01*
X160142714Y-145982571D01*
X160285571Y-146054000D01*
X160357000Y-146125428D01*
X158999857Y-146982571D02*
X158999857Y-145982571D01*
X158999857Y-145482571D02*
X159071285Y-145554000D01*
X158999857Y-145625428D01*
X158928428Y-145554000D01*
X158999857Y-145482571D01*
X158999857Y-145625428D01*
X158357000Y-146911142D02*
X158214142Y-146982571D01*
X157928428Y-146982571D01*
X157785571Y-146911142D01*
X157714142Y-146768285D01*
X157714142Y-146696857D01*
X157785571Y-146554000D01*
X157928428Y-146482571D01*
X158142714Y-146482571D01*
X158285571Y-146411142D01*
X158357000Y-146268285D01*
X158357000Y-146196857D01*
X158285571Y-146054000D01*
X158142714Y-145982571D01*
X157928428Y-145982571D01*
X157785571Y-146054000D01*
X155928428Y-146982571D02*
X155928428Y-145982571D01*
X155928428Y-146125428D02*
X155857000Y-146054000D01*
X155714142Y-145982571D01*
X155499857Y-145982571D01*
X155357000Y-146054000D01*
X155285571Y-146196857D01*
X155285571Y-146982571D01*
X155285571Y-146196857D02*
X155214142Y-146054000D01*
X155071285Y-145982571D01*
X154857000Y-145982571D01*
X154714142Y-146054000D01*
X154642714Y-146196857D01*
X154642714Y-146982571D01*
X153285571Y-146982571D02*
X153285571Y-146196857D01*
X153357000Y-146054000D01*
X153499857Y-145982571D01*
X153785571Y-145982571D01*
X153928428Y-146054000D01*
X153285571Y-146911142D02*
X153428428Y-146982571D01*
X153785571Y-146982571D01*
X153928428Y-146911142D01*
X153999857Y-146768285D01*
X153999857Y-146625428D01*
X153928428Y-146482571D01*
X153785571Y-146411142D01*
X153428428Y-146411142D01*
X153285571Y-146339714D01*
X151928428Y-146911142D02*
X152071285Y-146982571D01*
X152357000Y-146982571D01*
X152499857Y-146911142D01*
X152571285Y-146839714D01*
X152642714Y-146696857D01*
X152642714Y-146268285D01*
X152571285Y-146125428D01*
X152499857Y-146054000D01*
X152357000Y-145982571D01*
X152071285Y-145982571D01*
X151928428Y-146054000D01*
X151285571Y-146982571D02*
X151285571Y-145482571D01*
X150642714Y-146982571D02*
X150642714Y-146196857D01*
X150714142Y-146054000D01*
X150857000Y-145982571D01*
X151071285Y-145982571D01*
X151214142Y-146054000D01*
X151285571Y-146125428D01*
X149928428Y-146982571D02*
X149928428Y-145982571D01*
X149928428Y-145482571D02*
X149999857Y-145554000D01*
X149928428Y-145625428D01*
X149857000Y-145554000D01*
X149928428Y-145482571D01*
X149928428Y-145625428D01*
X149214142Y-145982571D02*
X149214142Y-146982571D01*
X149214142Y-146125428D02*
X149142714Y-146054000D01*
X148999857Y-145982571D01*
X148785571Y-145982571D01*
X148642714Y-146054000D01*
X148571285Y-146196857D01*
X148571285Y-146982571D01*
X147285571Y-146911142D02*
X147428428Y-146982571D01*
X147714142Y-146982571D01*
X147857000Y-146911142D01*
X147928428Y-146768285D01*
X147928428Y-146196857D01*
X147857000Y-146054000D01*
X147714142Y-145982571D01*
X147428428Y-145982571D01*
X147285571Y-146054000D01*
X147214142Y-146196857D01*
X147214142Y-146339714D01*
X147928428Y-146482571D01*
X145428428Y-146982571D02*
X145428428Y-145482571D01*
X145285571Y-146411142D02*
X144857000Y-146982571D01*
X144857000Y-145982571D02*
X145428428Y-146554000D01*
X144214142Y-146982571D02*
X144214142Y-145982571D01*
X144214142Y-145482571D02*
X144285571Y-145554000D01*
X144214142Y-145625428D01*
X144142714Y-145554000D01*
X144214142Y-145482571D01*
X144214142Y-145625428D01*
X143285571Y-146982571D02*
X143428428Y-146911142D01*
X143499857Y-146768285D01*
X143499857Y-145482571D01*
X142499857Y-146982571D02*
X142642714Y-146911142D01*
X142714142Y-146768285D01*
X142714142Y-145482571D01*
X141999857Y-146911142D02*
X141857000Y-146982571D01*
X141571285Y-146982571D01*
X141428428Y-146911142D01*
X141357000Y-146768285D01*
X141357000Y-146696857D01*
X141428428Y-146554000D01*
X141571285Y-146482571D01*
X141785571Y-146482571D01*
X141928428Y-146411142D01*
X141999857Y-146268285D01*
X141999857Y-146196857D01*
X141928428Y-146054000D01*
X141785571Y-145982571D01*
X141571285Y-145982571D01*
X141428428Y-146054000D01*
X139785571Y-145982571D02*
X139214142Y-145982571D01*
X139571285Y-146982571D02*
X139571285Y-145696857D01*
X139499857Y-145554000D01*
X139357000Y-145482571D01*
X139214142Y-145482571D01*
X138071285Y-146982571D02*
X138071285Y-146196857D01*
X138142714Y-146054000D01*
X138285571Y-145982571D01*
X138571285Y-145982571D01*
X138714142Y-146054000D01*
X138071285Y-146911142D02*
X138214142Y-146982571D01*
X138571285Y-146982571D01*
X138714142Y-146911142D01*
X138785571Y-146768285D01*
X138785571Y-146625428D01*
X138714142Y-146482571D01*
X138571285Y-146411142D01*
X138214142Y-146411142D01*
X138071285Y-146339714D01*
X137428428Y-146911142D02*
X137285571Y-146982571D01*
X136999857Y-146982571D01*
X136857000Y-146911142D01*
X136785571Y-146768285D01*
X136785571Y-146696857D01*
X136857000Y-146554000D01*
X136999857Y-146482571D01*
X137214142Y-146482571D01*
X137357000Y-146411142D01*
X137428428Y-146268285D01*
X137428428Y-146196857D01*
X137357000Y-146054000D01*
X137214142Y-145982571D01*
X136999857Y-145982571D01*
X136857000Y-146054000D01*
X135499857Y-146911142D02*
X135642714Y-146982571D01*
X135928428Y-146982571D01*
X136071285Y-146911142D01*
X136142714Y-146839714D01*
X136214142Y-146696857D01*
X136214142Y-146268285D01*
X136142714Y-146125428D01*
X136071285Y-146054000D01*
X135928428Y-145982571D01*
X135642714Y-145982571D01*
X135499857Y-146054000D01*
X134857000Y-146982571D02*
X134857000Y-145982571D01*
X134857000Y-145482571D02*
X134928428Y-145554000D01*
X134857000Y-145625428D01*
X134785571Y-145554000D01*
X134857000Y-145482571D01*
X134857000Y-145625428D01*
X134214142Y-146911142D02*
X134071285Y-146982571D01*
X133785571Y-146982571D01*
X133642714Y-146911142D01*
X133571285Y-146768285D01*
X133571285Y-146696857D01*
X133642714Y-146554000D01*
X133785571Y-146482571D01*
X133999857Y-146482571D01*
X134142714Y-146411142D01*
X134214142Y-146268285D01*
X134214142Y-146196857D01*
X134142714Y-146054000D01*
X133999857Y-145982571D01*
X133785571Y-145982571D01*
X133642714Y-146054000D01*
X133142714Y-145982571D02*
X132571285Y-145982571D01*
X132928428Y-145482571D02*
X132928428Y-146768285D01*
X132857000Y-146911142D01*
X132714142Y-146982571D01*
X132571285Y-146982571D01*
X132142714Y-146911142D02*
X131999857Y-146982571D01*
X131714142Y-146982571D01*
X131571285Y-146911142D01*
X131499857Y-146768285D01*
X131499857Y-146696857D01*
X131571285Y-146554000D01*
X131714142Y-146482571D01*
X131928428Y-146482571D01*
X132071285Y-146411142D01*
X132142714Y-146268285D01*
X132142714Y-146196857D01*
X132071285Y-146054000D01*
X131928428Y-145982571D01*
X131714142Y-145982571D01*
X131571285Y-146054000D01*
X130857000Y-146839714D02*
X130785571Y-146911142D01*
X130857000Y-146982571D01*
X130928428Y-146911142D01*
X130857000Y-146839714D01*
X130857000Y-146982571D01*
X153992857Y-26882142D02*
X153778571Y-26953571D01*
X153421428Y-26953571D01*
X153278571Y-26882142D01*
X153207142Y-26810714D01*
X153135714Y-26667857D01*
X153135714Y-26525000D01*
X153207142Y-26382142D01*
X153278571Y-26310714D01*
X153421428Y-26239285D01*
X153707142Y-26167857D01*
X153850000Y-26096428D01*
X153921428Y-26025000D01*
X153992857Y-25882142D01*
X153992857Y-25739285D01*
X153921428Y-25596428D01*
X153850000Y-25525000D01*
X153707142Y-25453571D01*
X153350000Y-25453571D01*
X153135714Y-25525000D01*
X151921428Y-26882142D02*
X152064285Y-26953571D01*
X152350000Y-26953571D01*
X152492857Y-26882142D01*
X152564285Y-26739285D01*
X152564285Y-26167857D01*
X152492857Y-26025000D01*
X152350000Y-25953571D01*
X152064285Y-25953571D01*
X151921428Y-26025000D01*
X151850000Y-26167857D01*
X151850000Y-26310714D01*
X152564285Y-26453571D01*
X150564285Y-26953571D02*
X150564285Y-26167857D01*
X150635714Y-26025000D01*
X150778571Y-25953571D01*
X151064285Y-25953571D01*
X151207142Y-26025000D01*
X150564285Y-26882142D02*
X150707142Y-26953571D01*
X151064285Y-26953571D01*
X151207142Y-26882142D01*
X151278571Y-26739285D01*
X151278571Y-26596428D01*
X151207142Y-26453571D01*
X151064285Y-26382142D01*
X150707142Y-26382142D01*
X150564285Y-26310714D01*
X150064285Y-25953571D02*
X149492857Y-25953571D01*
X149850000Y-25453571D02*
X149850000Y-26739285D01*
X149778571Y-26882142D01*
X149635714Y-26953571D01*
X149492857Y-26953571D01*
X149207142Y-25953571D02*
X148635714Y-25953571D01*
X148992857Y-25453571D02*
X148992857Y-26739285D01*
X148921428Y-26882142D01*
X148778571Y-26953571D01*
X148635714Y-26953571D01*
X147921428Y-26953571D02*
X148064285Y-26882142D01*
X148135714Y-26739285D01*
X148135714Y-25453571D01*
X146778571Y-26882142D02*
X146921428Y-26953571D01*
X147207142Y-26953571D01*
X147350000Y-26882142D01*
X147421428Y-26739285D01*
X147421428Y-26167857D01*
X147350000Y-26025000D01*
X147207142Y-25953571D01*
X146921428Y-25953571D01*
X146778571Y-26025000D01*
X146707142Y-26167857D01*
X146707142Y-26310714D01*
X147421428Y-26453571D01*
X144992857Y-26882142D02*
X144778571Y-26953571D01*
X144421428Y-26953571D01*
X144278571Y-26882142D01*
X144207142Y-26810714D01*
X144135714Y-26667857D01*
X144135714Y-26525000D01*
X144207142Y-26382142D01*
X144278571Y-26310714D01*
X144421428Y-26239285D01*
X144707142Y-26167857D01*
X144850000Y-26096428D01*
X144921428Y-26025000D01*
X144992857Y-25882142D01*
X144992857Y-25739285D01*
X144921428Y-25596428D01*
X144850000Y-25525000D01*
X144707142Y-25453571D01*
X144350000Y-25453571D01*
X144135714Y-25525000D01*
X143635714Y-25953571D02*
X143278571Y-26953571D01*
X142921428Y-25953571D02*
X143278571Y-26953571D01*
X143421428Y-27310714D01*
X143492857Y-27382142D01*
X143635714Y-27453571D01*
X142350000Y-25953571D02*
X142350000Y-26953571D01*
X142350000Y-26096428D02*
X142278571Y-26025000D01*
X142135714Y-25953571D01*
X141921428Y-25953571D01*
X141778571Y-26025000D01*
X141707142Y-26167857D01*
X141707142Y-26953571D01*
X141207142Y-25953571D02*
X140635714Y-25953571D01*
X140992857Y-25453571D02*
X140992857Y-26739285D01*
X140921428Y-26882142D01*
X140778571Y-26953571D01*
X140635714Y-26953571D01*
X140135714Y-26953571D02*
X140135714Y-25453571D01*
X139492857Y-26953571D02*
X139492857Y-26167857D01*
X139564285Y-26025000D01*
X139707142Y-25953571D01*
X139921428Y-25953571D01*
X140064285Y-26025000D01*
X140135714Y-26096428D01*
X138850000Y-26882142D02*
X138707142Y-26953571D01*
X138421428Y-26953571D01*
X138278571Y-26882142D01*
X138207142Y-26739285D01*
X138207142Y-26667857D01*
X138278571Y-26525000D01*
X138421428Y-26453571D01*
X138635714Y-26453571D01*
X138778571Y-26382142D01*
X138850000Y-26239285D01*
X138850000Y-26167857D01*
X138778571Y-26025000D01*
X138635714Y-25953571D01*
X138421428Y-25953571D01*
X138278571Y-26025000D01*
X151992857Y-29432142D02*
X151778571Y-29503571D01*
X151421428Y-29503571D01*
X151278571Y-29432142D01*
X151207142Y-29360714D01*
X151135714Y-29217857D01*
X151135714Y-29075000D01*
X151207142Y-28932142D01*
X151278571Y-28860714D01*
X151421428Y-28789285D01*
X151707142Y-28717857D01*
X151850000Y-28646428D01*
X151921428Y-28575000D01*
X151992857Y-28432142D01*
X151992857Y-28289285D01*
X151921428Y-28146428D01*
X151850000Y-28075000D01*
X151707142Y-28003571D01*
X151350000Y-28003571D01*
X151135714Y-28075000D01*
X150564285Y-29432142D02*
X150350000Y-29503571D01*
X149992857Y-29503571D01*
X149850000Y-29432142D01*
X149778571Y-29360714D01*
X149707142Y-29217857D01*
X149707142Y-29075000D01*
X149778571Y-28932142D01*
X149850000Y-28860714D01*
X149992857Y-28789285D01*
X150278571Y-28717857D01*
X150421428Y-28646428D01*
X150492857Y-28575000D01*
X150564285Y-28432142D01*
X150564285Y-28289285D01*
X150492857Y-28146428D01*
X150421428Y-28075000D01*
X150278571Y-28003571D01*
X149921428Y-28003571D01*
X149707142Y-28075000D01*
X149064285Y-28932142D02*
X147921428Y-28932142D01*
X147421428Y-28003571D02*
X146921428Y-29503571D01*
X146421428Y-28003571D01*
X145064285Y-29360714D02*
X145135714Y-29432142D01*
X145350000Y-29503571D01*
X145492857Y-29503571D01*
X145707142Y-29432142D01*
X145850000Y-29289285D01*
X145921428Y-29146428D01*
X145992857Y-28860714D01*
X145992857Y-28646428D01*
X145921428Y-28360714D01*
X145850000Y-28217857D01*
X145707142Y-28075000D01*
X145492857Y-28003571D01*
X145350000Y-28003571D01*
X145135714Y-28075000D01*
X145064285Y-28146428D01*
X144135714Y-28003571D02*
X143850000Y-28003571D01*
X143707142Y-28075000D01*
X143564285Y-28217857D01*
X143492857Y-28503571D01*
X143492857Y-29003571D01*
X143564285Y-29289285D01*
X143707142Y-29432142D01*
X143850000Y-29503571D01*
X144135714Y-29503571D01*
X144278571Y-29432142D01*
X144421428Y-29289285D01*
X144492857Y-29003571D01*
X144492857Y-28503571D01*
X144421428Y-28217857D01*
X144278571Y-28075000D01*
X144135714Y-28003571D01*
X142850000Y-28932142D02*
X141707142Y-28932142D01*
X140207142Y-29503571D02*
X141064285Y-29503571D01*
X140635714Y-29503571D02*
X140635714Y-28003571D01*
X140778571Y-28217857D01*
X140921428Y-28360714D01*
X141064285Y-28432142D01*
X157635714Y-32053571D02*
X158135714Y-31339285D01*
X158492857Y-32053571D02*
X158492857Y-30553571D01*
X157921428Y-30553571D01*
X157778571Y-30625000D01*
X157707142Y-30696428D01*
X157635714Y-30839285D01*
X157635714Y-31053571D01*
X157707142Y-31196428D01*
X157778571Y-31267857D01*
X157921428Y-31339285D01*
X158492857Y-31339285D01*
X156421428Y-31982142D02*
X156564285Y-32053571D01*
X156850000Y-32053571D01*
X156992857Y-31982142D01*
X157064285Y-31839285D01*
X157064285Y-31267857D01*
X156992857Y-31125000D01*
X156850000Y-31053571D01*
X156564285Y-31053571D01*
X156421428Y-31125000D01*
X156350000Y-31267857D01*
X156350000Y-31410714D01*
X157064285Y-31553571D01*
X155850000Y-31053571D02*
X155492857Y-32053571D01*
X155135714Y-31053571D01*
X154564285Y-31910714D02*
X154492857Y-31982142D01*
X154564285Y-32053571D01*
X154635714Y-31982142D01*
X154564285Y-31910714D01*
X154564285Y-32053571D01*
X152778571Y-30696428D02*
X152707142Y-30625000D01*
X152564285Y-30553571D01*
X152207142Y-30553571D01*
X152064285Y-30625000D01*
X151992857Y-30696428D01*
X151921428Y-30839285D01*
X151921428Y-30982142D01*
X151992857Y-31196428D01*
X152850000Y-32053571D01*
X151921428Y-32053571D01*
X149707142Y-32553571D02*
X150064285Y-32553571D01*
X150064285Y-30410714D01*
X149707142Y-30410714D01*
X149207142Y-30696428D02*
X149135714Y-30625000D01*
X148992857Y-30553571D01*
X148635714Y-30553571D01*
X148492857Y-30625000D01*
X148421428Y-30696428D01*
X148350000Y-30839285D01*
X148350000Y-30982142D01*
X148421428Y-31196428D01*
X149278571Y-32053571D01*
X148350000Y-32053571D01*
X147421428Y-30553571D02*
X147278571Y-30553571D01*
X147135714Y-30625000D01*
X147064285Y-30696428D01*
X146992857Y-30839285D01*
X146921428Y-31125000D01*
X146921428Y-31482142D01*
X146992857Y-31767857D01*
X147064285Y-31910714D01*
X147135714Y-31982142D01*
X147278571Y-32053571D01*
X147421428Y-32053571D01*
X147564285Y-31982142D01*
X147635714Y-31910714D01*
X147707142Y-31767857D01*
X147778571Y-31482142D01*
X147778571Y-31125000D01*
X147707142Y-30839285D01*
X147635714Y-30696428D01*
X147564285Y-30625000D01*
X147421428Y-30553571D01*
X146350000Y-30696428D02*
X146278571Y-30625000D01*
X146135714Y-30553571D01*
X145778571Y-30553571D01*
X145635714Y-30625000D01*
X145564285Y-30696428D01*
X145492857Y-30839285D01*
X145492857Y-30982142D01*
X145564285Y-31196428D01*
X146421428Y-32053571D01*
X145492857Y-32053571D01*
X144564285Y-30553571D02*
X144421428Y-30553571D01*
X144278571Y-30625000D01*
X144207142Y-30696428D01*
X144135714Y-30839285D01*
X144064285Y-31125000D01*
X144064285Y-31482142D01*
X144135714Y-31767857D01*
X144207142Y-31910714D01*
X144278571Y-31982142D01*
X144421428Y-32053571D01*
X144564285Y-32053571D01*
X144707142Y-31982142D01*
X144778571Y-31910714D01*
X144850000Y-31767857D01*
X144921428Y-31482142D01*
X144921428Y-31125000D01*
X144850000Y-30839285D01*
X144778571Y-30696428D01*
X144707142Y-30625000D01*
X144564285Y-30553571D01*
X143421428Y-31482142D02*
X142278571Y-31482142D01*
X140778571Y-32053571D02*
X141635714Y-32053571D01*
X141207142Y-32053571D02*
X141207142Y-30553571D01*
X141350000Y-30767857D01*
X141492857Y-30910714D01*
X141635714Y-30982142D01*
X139350000Y-32053571D02*
X140207142Y-32053571D01*
X139778571Y-32053571D02*
X139778571Y-30553571D01*
X139921428Y-30767857D01*
X140064285Y-30910714D01*
X140207142Y-30982142D01*
X138707142Y-31482142D02*
X137564285Y-31482142D01*
X136064285Y-32053571D02*
X136921428Y-32053571D01*
X136492857Y-32053571D02*
X136492857Y-30553571D01*
X136635714Y-30767857D01*
X136778571Y-30910714D01*
X136921428Y-30982142D01*
X134707142Y-30553571D02*
X135421428Y-30553571D01*
X135492857Y-31267857D01*
X135421428Y-31196428D01*
X135278571Y-31125000D01*
X134921428Y-31125000D01*
X134778571Y-31196428D01*
X134707142Y-31267857D01*
X134635714Y-31410714D01*
X134635714Y-31767857D01*
X134707142Y-31910714D01*
X134778571Y-31982142D01*
X134921428Y-32053571D01*
X135278571Y-32053571D01*
X135421428Y-31982142D01*
X135492857Y-31910714D01*
X134135714Y-32553571D02*
X133778571Y-32553571D01*
X133778571Y-30410714D01*
X134135714Y-30410714D01*
D11*
X144311000Y-40921000D02*
X146596000Y-40921000D01*
X144311000Y-42391000D02*
X144311000Y-40921000D01*
X146596000Y-42391000D02*
X144311000Y-42391000D01*
X141351000Y-86487000D02*
X141351000Y-100457000D01*
X141351000Y-100457000D02*
X150241000Y-100457000D01*
X150241000Y-100457000D02*
X150241000Y-86487000D01*
X150241000Y-86487000D02*
X141351000Y-86487000D01*
X142621000Y-91567000D02*
X142621000Y-95377000D01*
X142621000Y-95377000D02*
X145796000Y-96647000D01*
X145796000Y-96647000D02*
X148971000Y-95377000D01*
X148971000Y-95377000D02*
X148971000Y-91567000D01*
X148971000Y-91567000D02*
X145796000Y-90297000D01*
X145796000Y-90297000D02*
X142621000Y-91567000D01*
X149498654Y-93472000D02*
G75*
G03*
X149498654Y-93472000I-3702654J0D01*
G01*
X156968000Y-69064000D02*
X166708000Y-69064000D01*
X156968000Y-80654000D02*
X158458000Y-80654000D01*
X156968000Y-72124000D02*
X156968000Y-69064000D01*
X166718000Y-80654000D02*
X166718000Y-75934000D01*
X166708000Y-72124000D02*
X166708000Y-69064000D01*
X156968000Y-80654000D02*
X156968000Y-75934000D01*
X165528000Y-80654000D02*
X166708000Y-80654000D01*
X162628000Y-80654000D02*
X163158000Y-80654000D01*
X160178000Y-80654000D02*
X161008000Y-80654000D01*
X157222000Y-35282000D02*
X166962000Y-35282000D01*
X157222000Y-46872000D02*
X158712000Y-46872000D01*
X157222000Y-38342000D02*
X157222000Y-35282000D01*
X166972000Y-46872000D02*
X166972000Y-42152000D01*
X166962000Y-38342000D02*
X166962000Y-35282000D01*
X157222000Y-46872000D02*
X157222000Y-42152000D01*
X165782000Y-46872000D02*
X166962000Y-46872000D01*
X162882000Y-46872000D02*
X163412000Y-46872000D01*
X160432000Y-46872000D02*
X161262000Y-46872000D01*
X140926000Y-52808000D02*
X150666000Y-52808000D01*
X140926000Y-64398000D02*
X142416000Y-64398000D01*
X140926000Y-55868000D02*
X140926000Y-52808000D01*
X150676000Y-64398000D02*
X150676000Y-59678000D01*
X150666000Y-55868000D02*
X150666000Y-52808000D01*
X140926000Y-64398000D02*
X140926000Y-59678000D01*
X149486000Y-64398000D02*
X150666000Y-64398000D01*
X146586000Y-64398000D02*
X147116000Y-64398000D01*
X144136000Y-64398000D02*
X144966000Y-64398000D01*
X124710000Y-69318000D02*
X134450000Y-69318000D01*
X124710000Y-80908000D02*
X126200000Y-80908000D01*
X124710000Y-72378000D02*
X124710000Y-69318000D01*
X134460000Y-80908000D02*
X134460000Y-76188000D01*
X134450000Y-72378000D02*
X134450000Y-69318000D01*
X124710000Y-80908000D02*
X124710000Y-76188000D01*
X133270000Y-80908000D02*
X134450000Y-80908000D01*
X130370000Y-80908000D02*
X130900000Y-80908000D01*
X127920000Y-80908000D02*
X128750000Y-80908000D01*
X124710000Y-35282000D02*
X134450000Y-35282000D01*
X124710000Y-46872000D02*
X126200000Y-46872000D01*
X124710000Y-38342000D02*
X124710000Y-35282000D01*
X134460000Y-46872000D02*
X134460000Y-42152000D01*
X134450000Y-38342000D02*
X134450000Y-35282000D01*
X124710000Y-46872000D02*
X124710000Y-42152000D01*
X133270000Y-46872000D02*
X134450000Y-46872000D01*
X130370000Y-46872000D02*
X130900000Y-46872000D01*
X127920000Y-46872000D02*
X128750000Y-46872000D01*
X130854000Y-126508000D02*
X129994000Y-126508000D01*
X130854000Y-126508000D02*
X130854000Y-127308000D01*
X131594000Y-133988000D02*
G75*
G03*
X131594000Y-133988000I-1800000J0D01*
G01*
X130144000Y-129488000D02*
X134294000Y-129488000D01*
X125294000Y-129488000D02*
X129444000Y-129488000D01*
X130294000Y-139988000D02*
X134294000Y-139988000D01*
X125294000Y-139988000D02*
X129294000Y-139988000D01*
X125294000Y-129488000D02*
X125294000Y-139988000D01*
X134294000Y-129488000D02*
X134294000Y-139988000D01*
X146856000Y-126254000D02*
X145996000Y-126254000D01*
X146856000Y-126254000D02*
X146856000Y-127054000D01*
X147596000Y-133734000D02*
G75*
G03*
X147596000Y-133734000I-1800000J0D01*
G01*
X146146000Y-129234000D02*
X150296000Y-129234000D01*
X141296000Y-129234000D02*
X145446000Y-129234000D01*
X146296000Y-139734000D02*
X150296000Y-139734000D01*
X141296000Y-139734000D02*
X145296000Y-139734000D01*
X141296000Y-129234000D02*
X141296000Y-139734000D01*
X150296000Y-129234000D02*
X150296000Y-139734000D01*
X162604000Y-126000000D02*
X161744000Y-126000000D01*
X162604000Y-126000000D02*
X162604000Y-126800000D01*
X163344000Y-133480000D02*
G75*
G03*
X163344000Y-133480000I-1800000J0D01*
G01*
X161894000Y-128980000D02*
X166044000Y-128980000D01*
X157044000Y-128980000D02*
X161194000Y-128980000D01*
X162044000Y-139480000D02*
X166044000Y-139480000D01*
X157044000Y-139480000D02*
X161044000Y-139480000D01*
X157044000Y-128980000D02*
X157044000Y-139480000D01*
X166044000Y-128980000D02*
X166044000Y-139480000D01*
X162858000Y-86630000D02*
X161998000Y-86630000D01*
X162858000Y-86630000D02*
X162858000Y-87430000D01*
X163598000Y-94110000D02*
G75*
G03*
X163598000Y-94110000I-1800000J0D01*
G01*
X162148000Y-89610000D02*
X166298000Y-89610000D01*
X157298000Y-89610000D02*
X161448000Y-89610000D01*
X162298000Y-100110000D02*
X166298000Y-100110000D01*
X157298000Y-100110000D02*
X161298000Y-100110000D01*
X157298000Y-89610000D02*
X157298000Y-100110000D01*
X166298000Y-89610000D02*
X166298000Y-100110000D01*
X146856000Y-105426000D02*
X145996000Y-105426000D01*
X146856000Y-105426000D02*
X146856000Y-106226000D01*
X147596000Y-112906000D02*
G75*
G03*
X147596000Y-112906000I-1800000J0D01*
G01*
X146146000Y-108406000D02*
X150296000Y-108406000D01*
X141296000Y-108406000D02*
X145446000Y-108406000D01*
X146296000Y-118906000D02*
X150296000Y-118906000D01*
X141296000Y-118906000D02*
X145296000Y-118906000D01*
X141296000Y-108406000D02*
X141296000Y-118906000D01*
X150296000Y-108406000D02*
X150296000Y-118906000D01*
X162604000Y-105426000D02*
X161744000Y-105426000D01*
X162604000Y-105426000D02*
X162604000Y-106226000D01*
X163344000Y-112906000D02*
G75*
G03*
X163344000Y-112906000I-1800000J0D01*
G01*
X161894000Y-108406000D02*
X166044000Y-108406000D01*
X157044000Y-108406000D02*
X161194000Y-108406000D01*
X162044000Y-118906000D02*
X166044000Y-118906000D01*
X157044000Y-118906000D02*
X161044000Y-118906000D01*
X157044000Y-108406000D02*
X157044000Y-118906000D01*
X166044000Y-108406000D02*
X166044000Y-118906000D01*
X130600000Y-105426000D02*
X129740000Y-105426000D01*
X130600000Y-105426000D02*
X130600000Y-106226000D01*
X131340000Y-112906000D02*
G75*
G03*
X131340000Y-112906000I-1800000J0D01*
G01*
X129890000Y-108406000D02*
X134040000Y-108406000D01*
X125040000Y-108406000D02*
X129190000Y-108406000D01*
X130040000Y-118906000D02*
X134040000Y-118906000D01*
X125040000Y-118906000D02*
X129040000Y-118906000D01*
X125040000Y-108406000D02*
X125040000Y-118906000D01*
X134040000Y-108406000D02*
X134040000Y-118906000D01*
X146856000Y-68596000D02*
X145996000Y-68596000D01*
X146856000Y-68596000D02*
X146856000Y-69396000D01*
X147596000Y-76076000D02*
G75*
G03*
X147596000Y-76076000I-1800000J0D01*
G01*
X146146000Y-71576000D02*
X150296000Y-71576000D01*
X141296000Y-71576000D02*
X145446000Y-71576000D01*
X146296000Y-82076000D02*
X150296000Y-82076000D01*
X141296000Y-82076000D02*
X145296000Y-82076000D01*
X141296000Y-71576000D02*
X141296000Y-82076000D01*
X150296000Y-71576000D02*
X150296000Y-82076000D01*
X130600000Y-86630000D02*
X129740000Y-86630000D01*
X130600000Y-86630000D02*
X130600000Y-87430000D01*
X131340000Y-94110000D02*
G75*
G03*
X131340000Y-94110000I-1800000J0D01*
G01*
X129890000Y-89610000D02*
X134040000Y-89610000D01*
X125040000Y-89610000D02*
X129190000Y-89610000D01*
X130040000Y-100110000D02*
X134040000Y-100110000D01*
X125040000Y-100110000D02*
X129040000Y-100110000D01*
X125040000Y-89610000D02*
X125040000Y-100110000D01*
X134040000Y-89610000D02*
X134040000Y-100110000D01*
X130854000Y-52594000D02*
X129994000Y-52594000D01*
X130854000Y-52594000D02*
X130854000Y-53394000D01*
X131594000Y-60074000D02*
G75*
G03*
X131594000Y-60074000I-1800000J0D01*
G01*
X130144000Y-55574000D02*
X134294000Y-55574000D01*
X125294000Y-55574000D02*
X129444000Y-55574000D01*
X130294000Y-66074000D02*
X134294000Y-66074000D01*
X125294000Y-66074000D02*
X129294000Y-66074000D01*
X125294000Y-55574000D02*
X125294000Y-66074000D01*
X134294000Y-55574000D02*
X134294000Y-66074000D01*
X163112000Y-52594000D02*
X162252000Y-52594000D01*
X163112000Y-52594000D02*
X163112000Y-53394000D01*
X163852000Y-60074000D02*
G75*
G03*
X163852000Y-60074000I-1800000J0D01*
G01*
X162402000Y-55574000D02*
X166552000Y-55574000D01*
X157552000Y-55574000D02*
X161702000Y-55574000D01*
X162552000Y-66074000D02*
X166552000Y-66074000D01*
X157552000Y-66074000D02*
X161552000Y-66074000D01*
X157552000Y-55574000D02*
X157552000Y-66074000D01*
X166552000Y-55574000D02*
X166552000Y-66074000D01*
D12*
X146534095Y-43538380D02*
X146534095Y-42538380D01*
X146296000Y-42538380D01*
X146153142Y-42586000D01*
X146057904Y-42681238D01*
X146010285Y-42776476D01*
X145962666Y-42966952D01*
X145962666Y-43109809D01*
X146010285Y-43300285D01*
X146057904Y-43395523D01*
X146153142Y-43490761D01*
X146296000Y-43538380D01*
X146534095Y-43538380D01*
X145105523Y-42871714D02*
X145105523Y-43538380D01*
X145343619Y-42490761D02*
X145581714Y-43205047D01*
X144962666Y-43205047D01*
X146438857Y-40678380D02*
X146915047Y-40678380D01*
X146915047Y-39678380D01*
X146105523Y-40154571D02*
X145772190Y-40154571D01*
X145629333Y-40678380D02*
X146105523Y-40678380D01*
X146105523Y-39678380D01*
X145629333Y-39678380D01*
X145200761Y-40678380D02*
X145200761Y-39678380D01*
X144962666Y-39678380D01*
X144819809Y-39726000D01*
X144724571Y-39821238D01*
X144676952Y-39916476D01*
X144629333Y-40106952D01*
X144629333Y-40249809D01*
X144676952Y-40440285D01*
X144724571Y-40535523D01*
X144819809Y-40630761D01*
X144962666Y-40678380D01*
X145200761Y-40678380D01*
X168525619Y-75419238D02*
X169001809Y-75752571D01*
X168525619Y-75990666D02*
X169525619Y-75990666D01*
X169525619Y-75609714D01*
X169478000Y-75514476D01*
X169430380Y-75466857D01*
X169335142Y-75419238D01*
X169192285Y-75419238D01*
X169097047Y-75466857D01*
X169049428Y-75514476D01*
X169001809Y-75609714D01*
X169001809Y-75990666D01*
X169525619Y-75133523D02*
X168525619Y-74800190D01*
X169525619Y-74466857D01*
X169097047Y-73990666D02*
X169144666Y-74085904D01*
X169192285Y-74133523D01*
X169287523Y-74181142D01*
X169335142Y-74181142D01*
X169430380Y-74133523D01*
X169478000Y-74085904D01*
X169525619Y-73990666D01*
X169525619Y-73800190D01*
X169478000Y-73704952D01*
X169430380Y-73657333D01*
X169335142Y-73609714D01*
X169287523Y-73609714D01*
X169192285Y-73657333D01*
X169144666Y-73704952D01*
X169097047Y-73800190D01*
X169097047Y-73990666D01*
X169049428Y-74085904D01*
X169001809Y-74133523D01*
X168906571Y-74181142D01*
X168716095Y-74181142D01*
X168620857Y-74133523D01*
X168573238Y-74085904D01*
X168525619Y-73990666D01*
X168525619Y-73800190D01*
X168573238Y-73704952D01*
X168620857Y-73657333D01*
X168716095Y-73609714D01*
X168906571Y-73609714D01*
X169001809Y-73657333D01*
X169049428Y-73704952D01*
X169097047Y-73800190D01*
X154025619Y-84748285D02*
X154025619Y-85319714D01*
X154025619Y-85034000D02*
X155025619Y-85034000D01*
X154882761Y-85129238D01*
X154787523Y-85224476D01*
X154739904Y-85319714D01*
X155025619Y-84129238D02*
X155025619Y-84034000D01*
X154978000Y-83938761D01*
X154930380Y-83891142D01*
X154835142Y-83843523D01*
X154644666Y-83795904D01*
X154406571Y-83795904D01*
X154216095Y-83843523D01*
X154120857Y-83891142D01*
X154073238Y-83938761D01*
X154025619Y-84034000D01*
X154025619Y-84129238D01*
X154073238Y-84224476D01*
X154120857Y-84272095D01*
X154216095Y-84319714D01*
X154406571Y-84367333D01*
X154644666Y-84367333D01*
X154835142Y-84319714D01*
X154930380Y-84272095D01*
X154978000Y-84224476D01*
X155025619Y-84129238D01*
X155025619Y-83176857D02*
X155025619Y-83081619D01*
X154978000Y-82986380D01*
X154930380Y-82938761D01*
X154835142Y-82891142D01*
X154644666Y-82843523D01*
X154406571Y-82843523D01*
X154216095Y-82891142D01*
X154120857Y-82938761D01*
X154073238Y-82986380D01*
X154025619Y-83081619D01*
X154025619Y-83176857D01*
X154073238Y-83272095D01*
X154120857Y-83319714D01*
X154216095Y-83367333D01*
X154406571Y-83414952D01*
X154644666Y-83414952D01*
X154835142Y-83367333D01*
X154930380Y-83319714D01*
X154978000Y-83272095D01*
X155025619Y-83176857D01*
X154025619Y-82414952D02*
X155025619Y-82414952D01*
X154025619Y-81843523D02*
X154597047Y-82272095D01*
X155025619Y-81843523D02*
X154454190Y-82414952D01*
X153644666Y-80367333D02*
X153692285Y-80414952D01*
X153835142Y-80510190D01*
X153930380Y-80557809D01*
X154073238Y-80605428D01*
X154311333Y-80653047D01*
X154501809Y-80653047D01*
X154739904Y-80605428D01*
X154882761Y-80557809D01*
X154978000Y-80510190D01*
X155120857Y-80414952D01*
X155168476Y-80367333D01*
X154549428Y-79653047D02*
X154549428Y-79986380D01*
X154025619Y-79986380D02*
X155025619Y-79986380D01*
X155025619Y-79510190D01*
X154025619Y-79129238D02*
X155025619Y-79129238D01*
X154311333Y-78795904D01*
X155025619Y-78462571D01*
X154025619Y-78462571D01*
X153644666Y-78081619D02*
X153692285Y-78034000D01*
X153835142Y-77938761D01*
X153930380Y-77891142D01*
X154073238Y-77843523D01*
X154311333Y-77795904D01*
X154501809Y-77795904D01*
X154739904Y-77843523D01*
X154882761Y-77891142D01*
X154978000Y-77938761D01*
X155120857Y-78034000D01*
X155168476Y-78081619D01*
X168779619Y-41637238D02*
X169255809Y-41970571D01*
X168779619Y-42208666D02*
X169779619Y-42208666D01*
X169779619Y-41827714D01*
X169732000Y-41732476D01*
X169684380Y-41684857D01*
X169589142Y-41637238D01*
X169446285Y-41637238D01*
X169351047Y-41684857D01*
X169303428Y-41732476D01*
X169255809Y-41827714D01*
X169255809Y-42208666D01*
X169779619Y-41351523D02*
X168779619Y-41018190D01*
X169779619Y-40684857D01*
X169779619Y-39875333D02*
X169779619Y-40351523D01*
X169303428Y-40399142D01*
X169351047Y-40351523D01*
X169398666Y-40256285D01*
X169398666Y-40018190D01*
X169351047Y-39922952D01*
X169303428Y-39875333D01*
X169208190Y-39827714D01*
X168970095Y-39827714D01*
X168874857Y-39875333D01*
X168827238Y-39922952D01*
X168779619Y-40018190D01*
X168779619Y-40256285D01*
X168827238Y-40351523D01*
X168874857Y-40399142D01*
X154279619Y-51871047D02*
X154279619Y-52442476D01*
X154279619Y-52156761D02*
X155279619Y-52156761D01*
X155136761Y-52252000D01*
X155041523Y-52347238D01*
X154993904Y-52442476D01*
X155279619Y-51252000D02*
X155279619Y-51156761D01*
X155232000Y-51061523D01*
X155184380Y-51013904D01*
X155089142Y-50966285D01*
X154898666Y-50918666D01*
X154660571Y-50918666D01*
X154470095Y-50966285D01*
X154374857Y-51013904D01*
X154327238Y-51061523D01*
X154279619Y-51156761D01*
X154279619Y-51252000D01*
X154327238Y-51347238D01*
X154374857Y-51394857D01*
X154470095Y-51442476D01*
X154660571Y-51490095D01*
X154898666Y-51490095D01*
X155089142Y-51442476D01*
X155184380Y-51394857D01*
X155232000Y-51347238D01*
X155279619Y-51252000D01*
X155279619Y-50299619D02*
X155279619Y-50204380D01*
X155232000Y-50109142D01*
X155184380Y-50061523D01*
X155089142Y-50013904D01*
X154898666Y-49966285D01*
X154660571Y-49966285D01*
X154470095Y-50013904D01*
X154374857Y-50061523D01*
X154327238Y-50109142D01*
X154279619Y-50204380D01*
X154279619Y-50299619D01*
X154327238Y-50394857D01*
X154374857Y-50442476D01*
X154470095Y-50490095D01*
X154660571Y-50537714D01*
X154898666Y-50537714D01*
X155089142Y-50490095D01*
X155184380Y-50442476D01*
X155232000Y-50394857D01*
X155279619Y-50299619D01*
X154279619Y-49537714D02*
X155279619Y-49537714D01*
X154279619Y-48966285D02*
X154851047Y-49394857D01*
X155279619Y-48966285D02*
X154708190Y-49537714D01*
X153898666Y-47490095D02*
X153946285Y-47537714D01*
X154089142Y-47632952D01*
X154184380Y-47680571D01*
X154327238Y-47728190D01*
X154565333Y-47775809D01*
X154755809Y-47775809D01*
X154993904Y-47728190D01*
X155136761Y-47680571D01*
X155232000Y-47632952D01*
X155374857Y-47537714D01*
X155422476Y-47490095D01*
X154279619Y-47109142D02*
X155279619Y-47109142D01*
X155279619Y-46728190D01*
X155232000Y-46632952D01*
X155184380Y-46585333D01*
X155089142Y-46537714D01*
X154946285Y-46537714D01*
X154851047Y-46585333D01*
X154803428Y-46632952D01*
X154755809Y-46728190D01*
X154755809Y-47109142D01*
X154279619Y-46109142D02*
X154946285Y-46109142D01*
X155279619Y-46109142D02*
X155232000Y-46156761D01*
X155184380Y-46109142D01*
X155232000Y-46061523D01*
X155279619Y-46109142D01*
X155184380Y-46109142D01*
X154946285Y-45775809D02*
X154946285Y-45394857D01*
X155279619Y-45632952D02*
X154422476Y-45632952D01*
X154327238Y-45585333D01*
X154279619Y-45490095D01*
X154279619Y-45394857D01*
X154327238Y-44632952D02*
X154279619Y-44728190D01*
X154279619Y-44918666D01*
X154327238Y-45013904D01*
X154374857Y-45061523D01*
X154470095Y-45109142D01*
X154755809Y-45109142D01*
X154851047Y-45061523D01*
X154898666Y-45013904D01*
X154946285Y-44918666D01*
X154946285Y-44728190D01*
X154898666Y-44632952D01*
X154279619Y-44204380D02*
X155279619Y-44204380D01*
X154279619Y-43775809D02*
X154803428Y-43775809D01*
X154898666Y-43823428D01*
X154946285Y-43918666D01*
X154946285Y-44061523D01*
X154898666Y-44156761D01*
X154851047Y-44204380D01*
X153898666Y-43394857D02*
X153946285Y-43347238D01*
X154089142Y-43252000D01*
X154184380Y-43204380D01*
X154327238Y-43156761D01*
X154565333Y-43109142D01*
X154755809Y-43109142D01*
X154993904Y-43156761D01*
X155136761Y-43204380D01*
X155232000Y-43252000D01*
X155374857Y-43347238D01*
X155422476Y-43394857D01*
X152483619Y-59163238D02*
X152959809Y-59496571D01*
X152483619Y-59734666D02*
X153483619Y-59734666D01*
X153483619Y-59353714D01*
X153436000Y-59258476D01*
X153388380Y-59210857D01*
X153293142Y-59163238D01*
X153150285Y-59163238D01*
X153055047Y-59210857D01*
X153007428Y-59258476D01*
X152959809Y-59353714D01*
X152959809Y-59734666D01*
X153483619Y-58877523D02*
X152483619Y-58544190D01*
X153483619Y-58210857D01*
X153483619Y-57972761D02*
X153483619Y-57353714D01*
X153102666Y-57687047D01*
X153102666Y-57544190D01*
X153055047Y-57448952D01*
X153007428Y-57401333D01*
X152912190Y-57353714D01*
X152674095Y-57353714D01*
X152578857Y-57401333D01*
X152531238Y-57448952D01*
X152483619Y-57544190D01*
X152483619Y-57829904D01*
X152531238Y-57925142D01*
X152578857Y-57972761D01*
X137983619Y-69135142D02*
X137983619Y-69706571D01*
X137983619Y-69420857D02*
X138983619Y-69420857D01*
X138840761Y-69516095D01*
X138745523Y-69611333D01*
X138697904Y-69706571D01*
X138983619Y-68516095D02*
X138983619Y-68420857D01*
X138936000Y-68325619D01*
X138888380Y-68278000D01*
X138793142Y-68230380D01*
X138602666Y-68182761D01*
X138364571Y-68182761D01*
X138174095Y-68230380D01*
X138078857Y-68278000D01*
X138031238Y-68325619D01*
X137983619Y-68420857D01*
X137983619Y-68516095D01*
X138031238Y-68611333D01*
X138078857Y-68658952D01*
X138174095Y-68706571D01*
X138364571Y-68754190D01*
X138602666Y-68754190D01*
X138793142Y-68706571D01*
X138888380Y-68658952D01*
X138936000Y-68611333D01*
X138983619Y-68516095D01*
X138983619Y-67563714D02*
X138983619Y-67468476D01*
X138936000Y-67373238D01*
X138888380Y-67325619D01*
X138793142Y-67278000D01*
X138602666Y-67230380D01*
X138364571Y-67230380D01*
X138174095Y-67278000D01*
X138078857Y-67325619D01*
X138031238Y-67373238D01*
X137983619Y-67468476D01*
X137983619Y-67563714D01*
X138031238Y-67658952D01*
X138078857Y-67706571D01*
X138174095Y-67754190D01*
X138364571Y-67801809D01*
X138602666Y-67801809D01*
X138793142Y-67754190D01*
X138888380Y-67706571D01*
X138936000Y-67658952D01*
X138983619Y-67563714D01*
X137983619Y-66801809D02*
X138983619Y-66801809D01*
X137983619Y-66230380D02*
X138555047Y-66658952D01*
X138983619Y-66230380D02*
X138412190Y-66801809D01*
X137602666Y-64754190D02*
X137650285Y-64801809D01*
X137793142Y-64897047D01*
X137888380Y-64944666D01*
X138031238Y-64992285D01*
X138269333Y-65039904D01*
X138459809Y-65039904D01*
X138697904Y-64992285D01*
X138840761Y-64944666D01*
X138936000Y-64897047D01*
X139078857Y-64801809D01*
X139126476Y-64754190D01*
X137983619Y-64373238D02*
X138983619Y-64373238D01*
X138983619Y-63992285D01*
X138936000Y-63897047D01*
X138888380Y-63849428D01*
X138793142Y-63801809D01*
X138650285Y-63801809D01*
X138555047Y-63849428D01*
X138507428Y-63897047D01*
X138459809Y-63992285D01*
X138459809Y-64373238D01*
X138983619Y-63468476D02*
X137983619Y-63230380D01*
X138697904Y-63039904D01*
X137983619Y-62849428D01*
X138983619Y-62611333D01*
X137983619Y-62230380D02*
X138983619Y-62230380D01*
X138269333Y-61897047D01*
X138983619Y-61563714D01*
X137983619Y-61563714D01*
X137602666Y-61182761D02*
X137650285Y-61135142D01*
X137793142Y-61039904D01*
X137888380Y-60992285D01*
X138031238Y-60944666D01*
X138269333Y-60897047D01*
X138459809Y-60897047D01*
X138697904Y-60944666D01*
X138840761Y-60992285D01*
X138936000Y-61039904D01*
X139078857Y-61135142D01*
X139126476Y-61182761D01*
X136267619Y-75673238D02*
X136743809Y-76006571D01*
X136267619Y-76244666D02*
X137267619Y-76244666D01*
X137267619Y-75863714D01*
X137220000Y-75768476D01*
X137172380Y-75720857D01*
X137077142Y-75673238D01*
X136934285Y-75673238D01*
X136839047Y-75720857D01*
X136791428Y-75768476D01*
X136743809Y-75863714D01*
X136743809Y-76244666D01*
X137267619Y-75387523D02*
X136267619Y-75054190D01*
X137267619Y-74720857D01*
X137172380Y-74435142D02*
X137220000Y-74387523D01*
X137267619Y-74292285D01*
X137267619Y-74054190D01*
X137220000Y-73958952D01*
X137172380Y-73911333D01*
X137077142Y-73863714D01*
X136981904Y-73863714D01*
X136839047Y-73911333D01*
X136267619Y-74482761D01*
X136267619Y-73863714D01*
X121767619Y-85407047D02*
X121767619Y-85978476D01*
X121767619Y-85692761D02*
X122767619Y-85692761D01*
X122624761Y-85788000D01*
X122529523Y-85883238D01*
X122481904Y-85978476D01*
X122767619Y-84788000D02*
X122767619Y-84692761D01*
X122720000Y-84597523D01*
X122672380Y-84549904D01*
X122577142Y-84502285D01*
X122386666Y-84454666D01*
X122148571Y-84454666D01*
X121958095Y-84502285D01*
X121862857Y-84549904D01*
X121815238Y-84597523D01*
X121767619Y-84692761D01*
X121767619Y-84788000D01*
X121815238Y-84883238D01*
X121862857Y-84930857D01*
X121958095Y-84978476D01*
X122148571Y-85026095D01*
X122386666Y-85026095D01*
X122577142Y-84978476D01*
X122672380Y-84930857D01*
X122720000Y-84883238D01*
X122767619Y-84788000D01*
X122767619Y-83835619D02*
X122767619Y-83740380D01*
X122720000Y-83645142D01*
X122672380Y-83597523D01*
X122577142Y-83549904D01*
X122386666Y-83502285D01*
X122148571Y-83502285D01*
X121958095Y-83549904D01*
X121862857Y-83597523D01*
X121815238Y-83645142D01*
X121767619Y-83740380D01*
X121767619Y-83835619D01*
X121815238Y-83930857D01*
X121862857Y-83978476D01*
X121958095Y-84026095D01*
X122148571Y-84073714D01*
X122386666Y-84073714D01*
X122577142Y-84026095D01*
X122672380Y-83978476D01*
X122720000Y-83930857D01*
X122767619Y-83835619D01*
X121767619Y-83073714D02*
X122767619Y-83073714D01*
X121767619Y-82502285D02*
X122339047Y-82930857D01*
X122767619Y-82502285D02*
X122196190Y-83073714D01*
X121386666Y-81026095D02*
X121434285Y-81073714D01*
X121577142Y-81168952D01*
X121672380Y-81216571D01*
X121815238Y-81264190D01*
X122053333Y-81311809D01*
X122243809Y-81311809D01*
X122481904Y-81264190D01*
X122624761Y-81216571D01*
X122720000Y-81168952D01*
X122862857Y-81073714D01*
X122910476Y-81026095D01*
X121862857Y-80073714D02*
X121815238Y-80121333D01*
X121767619Y-80264190D01*
X121767619Y-80359428D01*
X121815238Y-80502285D01*
X121910476Y-80597523D01*
X122005714Y-80645142D01*
X122196190Y-80692761D01*
X122339047Y-80692761D01*
X122529523Y-80645142D01*
X122624761Y-80597523D01*
X122720000Y-80502285D01*
X122767619Y-80359428D01*
X122767619Y-80264190D01*
X122720000Y-80121333D01*
X122672380Y-80073714D01*
X122767619Y-79787999D02*
X121767619Y-79454666D01*
X122767619Y-79121333D01*
X122672380Y-78835619D02*
X122720000Y-78787999D01*
X122767619Y-78692761D01*
X122767619Y-78454666D01*
X122720000Y-78359428D01*
X122672380Y-78311809D01*
X122577142Y-78264190D01*
X122481904Y-78264190D01*
X122339047Y-78311809D01*
X121767619Y-78883238D01*
X121767619Y-78264190D01*
X121386666Y-77930857D02*
X121434285Y-77883238D01*
X121577142Y-77787999D01*
X121672380Y-77740380D01*
X121815238Y-77692761D01*
X122053333Y-77645142D01*
X122243809Y-77645142D01*
X122481904Y-77692761D01*
X122624761Y-77740380D01*
X122720000Y-77787999D01*
X122862857Y-77883238D01*
X122910476Y-77930857D01*
X136267619Y-41637238D02*
X136743809Y-41970571D01*
X136267619Y-42208666D02*
X137267619Y-42208666D01*
X137267619Y-41827714D01*
X137220000Y-41732476D01*
X137172380Y-41684857D01*
X137077142Y-41637238D01*
X136934285Y-41637238D01*
X136839047Y-41684857D01*
X136791428Y-41732476D01*
X136743809Y-41827714D01*
X136743809Y-42208666D01*
X137267619Y-41351523D02*
X136267619Y-41018190D01*
X137267619Y-40684857D01*
X136267619Y-39827714D02*
X136267619Y-40399142D01*
X136267619Y-40113428D02*
X137267619Y-40113428D01*
X137124761Y-40208666D01*
X137029523Y-40303904D01*
X136981904Y-40399142D01*
X121767619Y-51513904D02*
X121767619Y-52085333D01*
X121767619Y-51799619D02*
X122767619Y-51799619D01*
X122624761Y-51894857D01*
X122529523Y-51990095D01*
X122481904Y-52085333D01*
X122767619Y-50894857D02*
X122767619Y-50799619D01*
X122720000Y-50704380D01*
X122672380Y-50656761D01*
X122577142Y-50609142D01*
X122386666Y-50561523D01*
X122148571Y-50561523D01*
X121958095Y-50609142D01*
X121862857Y-50656761D01*
X121815238Y-50704380D01*
X121767619Y-50799619D01*
X121767619Y-50894857D01*
X121815238Y-50990095D01*
X121862857Y-51037714D01*
X121958095Y-51085333D01*
X122148571Y-51132952D01*
X122386666Y-51132952D01*
X122577142Y-51085333D01*
X122672380Y-51037714D01*
X122720000Y-50990095D01*
X122767619Y-50894857D01*
X122767619Y-49942476D02*
X122767619Y-49847238D01*
X122720000Y-49752000D01*
X122672380Y-49704380D01*
X122577142Y-49656761D01*
X122386666Y-49609142D01*
X122148571Y-49609142D01*
X121958095Y-49656761D01*
X121862857Y-49704380D01*
X121815238Y-49752000D01*
X121767619Y-49847238D01*
X121767619Y-49942476D01*
X121815238Y-50037714D01*
X121862857Y-50085333D01*
X121958095Y-50132952D01*
X122148571Y-50180571D01*
X122386666Y-50180571D01*
X122577142Y-50132952D01*
X122672380Y-50085333D01*
X122720000Y-50037714D01*
X122767619Y-49942476D01*
X121767619Y-49180571D02*
X122767619Y-49180571D01*
X121767619Y-48609142D02*
X122339047Y-49037714D01*
X122767619Y-48609142D02*
X122196190Y-49180571D01*
X121386666Y-47132952D02*
X121434285Y-47180571D01*
X121577142Y-47275809D01*
X121672380Y-47323428D01*
X121815238Y-47371047D01*
X122053333Y-47418666D01*
X122243809Y-47418666D01*
X122481904Y-47371047D01*
X122624761Y-47323428D01*
X122720000Y-47275809D01*
X122862857Y-47180571D01*
X122910476Y-47132952D01*
X122291428Y-46418666D02*
X122291428Y-46752000D01*
X121767619Y-46752000D02*
X122767619Y-46752000D01*
X122767619Y-46275809D01*
X121767619Y-45894857D02*
X122434285Y-45894857D01*
X122767619Y-45894857D02*
X122720000Y-45942476D01*
X122672380Y-45894857D01*
X122720000Y-45847238D01*
X122767619Y-45894857D01*
X122672380Y-45894857D01*
X122434285Y-45418666D02*
X121767619Y-45418666D01*
X122339047Y-45418666D02*
X122386666Y-45371047D01*
X122434285Y-45275809D01*
X122434285Y-45132952D01*
X122386666Y-45037714D01*
X122291428Y-44990095D01*
X121767619Y-44990095D01*
X121815238Y-44132952D02*
X121767619Y-44228190D01*
X121767619Y-44418666D01*
X121815238Y-44513904D01*
X121910476Y-44561523D01*
X122291428Y-44561523D01*
X122386666Y-44513904D01*
X122434285Y-44418666D01*
X122434285Y-44228190D01*
X122386666Y-44132952D01*
X122291428Y-44085333D01*
X122196190Y-44085333D01*
X122100952Y-44561523D01*
X121386666Y-43752000D02*
X121434285Y-43704380D01*
X121577142Y-43609142D01*
X121672380Y-43561523D01*
X121815238Y-43513904D01*
X122053333Y-43466285D01*
X122243809Y-43466285D01*
X122481904Y-43513904D01*
X122624761Y-43561523D01*
X122720000Y-43609142D01*
X122862857Y-43704380D01*
X122910476Y-43752000D01*
X134633523Y-128040380D02*
X134633523Y-128754666D01*
X134681142Y-128897523D01*
X134776380Y-128992761D01*
X134919238Y-129040380D01*
X135014476Y-129040380D01*
X133633523Y-129040380D02*
X134204952Y-129040380D01*
X133919238Y-129040380D02*
X133919238Y-128040380D01*
X134014476Y-128183238D01*
X134109714Y-128278476D01*
X134204952Y-128326095D01*
X132681142Y-129040380D02*
X133252571Y-129040380D01*
X132966857Y-129040380D02*
X132966857Y-128040380D01*
X133062095Y-128183238D01*
X133157333Y-128278476D01*
X133252571Y-128326095D01*
X135723380Y-128969142D02*
X135723380Y-129540571D01*
X136723380Y-129254857D02*
X135723380Y-129254857D01*
X136723380Y-130445333D02*
X136247190Y-130112000D01*
X136723380Y-129873904D02*
X135723380Y-129873904D01*
X135723380Y-130254857D01*
X135771000Y-130350095D01*
X135818619Y-130397714D01*
X135913857Y-130445333D01*
X136056714Y-130445333D01*
X136151952Y-130397714D01*
X136199571Y-130350095D01*
X136247190Y-130254857D01*
X136247190Y-129873904D01*
X136723380Y-130873904D02*
X135723380Y-130873904D01*
X136437666Y-131302476D02*
X136437666Y-131778666D01*
X136723380Y-131207238D02*
X135723380Y-131540571D01*
X136723380Y-131873904D01*
X136723380Y-132207238D02*
X135723380Y-132207238D01*
X136723380Y-132778666D01*
X135723380Y-132778666D01*
X135771000Y-133778666D02*
X135723380Y-133683428D01*
X135723380Y-133540571D01*
X135771000Y-133397714D01*
X135866238Y-133302476D01*
X135961476Y-133254857D01*
X136151952Y-133207238D01*
X136294809Y-133207238D01*
X136485285Y-133254857D01*
X136580523Y-133302476D01*
X136675761Y-133397714D01*
X136723380Y-133540571D01*
X136723380Y-133635809D01*
X136675761Y-133778666D01*
X136628142Y-133826285D01*
X136294809Y-133826285D01*
X136294809Y-133635809D01*
X136723380Y-134731047D02*
X136723380Y-134254857D01*
X135723380Y-134254857D01*
X136199571Y-135064380D02*
X136199571Y-135397714D01*
X136723380Y-135540571D02*
X136723380Y-135064380D01*
X135723380Y-135064380D01*
X135723380Y-135540571D01*
X136818619Y-135731047D02*
X136818619Y-136492952D01*
X135723380Y-136921523D02*
X135723380Y-137112000D01*
X135771000Y-137207238D01*
X135866238Y-137302476D01*
X136056714Y-137350095D01*
X136390047Y-137350095D01*
X136580523Y-137302476D01*
X136675761Y-137207238D01*
X136723380Y-137112000D01*
X136723380Y-136921523D01*
X136675761Y-136826285D01*
X136580523Y-136731047D01*
X136390047Y-136683428D01*
X136056714Y-136683428D01*
X135866238Y-136731047D01*
X135771000Y-136826285D01*
X135723380Y-136921523D01*
X135723380Y-137778666D02*
X136532904Y-137778666D01*
X136628142Y-137826285D01*
X136675761Y-137873904D01*
X136723380Y-137969142D01*
X136723380Y-138159619D01*
X136675761Y-138254857D01*
X136628142Y-138302476D01*
X136532904Y-138350095D01*
X135723380Y-138350095D01*
X135723380Y-138683428D02*
X135723380Y-139254857D01*
X136723380Y-138969142D02*
X135723380Y-138969142D01*
X150635523Y-127786380D02*
X150635523Y-128500666D01*
X150683142Y-128643523D01*
X150778380Y-128738761D01*
X150921238Y-128786380D01*
X151016476Y-128786380D01*
X149635523Y-128786380D02*
X150206952Y-128786380D01*
X149921238Y-128786380D02*
X149921238Y-127786380D01*
X150016476Y-127929238D01*
X150111714Y-128024476D01*
X150206952Y-128072095D01*
X149016476Y-127786380D02*
X148921238Y-127786380D01*
X148826000Y-127834000D01*
X148778380Y-127881619D01*
X148730761Y-127976857D01*
X148683142Y-128167333D01*
X148683142Y-128405428D01*
X148730761Y-128595904D01*
X148778380Y-128691142D01*
X148826000Y-128738761D01*
X148921238Y-128786380D01*
X149016476Y-128786380D01*
X149111714Y-128738761D01*
X149159333Y-128691142D01*
X149206952Y-128595904D01*
X149254571Y-128405428D01*
X149254571Y-128167333D01*
X149206952Y-127976857D01*
X149159333Y-127881619D01*
X149111714Y-127834000D01*
X149016476Y-127786380D01*
X152677761Y-128429428D02*
X152725380Y-128572285D01*
X152725380Y-128810380D01*
X152677761Y-128905619D01*
X152630142Y-128953238D01*
X152534904Y-129000857D01*
X152439666Y-129000857D01*
X152344428Y-128953238D01*
X152296809Y-128905619D01*
X152249190Y-128810380D01*
X152201571Y-128619904D01*
X152153952Y-128524666D01*
X152106333Y-128477047D01*
X152011095Y-128429428D01*
X151915857Y-128429428D01*
X151820619Y-128477047D01*
X151773000Y-128524666D01*
X151725380Y-128619904D01*
X151725380Y-128858000D01*
X151773000Y-129000857D01*
X152439666Y-129381809D02*
X152439666Y-129858000D01*
X152725380Y-129286571D02*
X151725380Y-129619904D01*
X152725380Y-129953238D01*
X151725380Y-130191333D02*
X152725380Y-130429428D01*
X152011095Y-130619904D01*
X152725380Y-130810380D01*
X151725380Y-131048476D01*
X151725380Y-131286571D02*
X151725380Y-131858000D01*
X152725380Y-131572285D02*
X151725380Y-131572285D01*
X151725380Y-132381809D02*
X151725380Y-132572285D01*
X151773000Y-132667523D01*
X151868238Y-132762761D01*
X152058714Y-132810380D01*
X152392047Y-132810380D01*
X152582523Y-132762761D01*
X152677761Y-132667523D01*
X152725380Y-132572285D01*
X152725380Y-132381809D01*
X152677761Y-132286571D01*
X152582523Y-132191333D01*
X152392047Y-132143714D01*
X152058714Y-132143714D01*
X151868238Y-132191333D01*
X151773000Y-132286571D01*
X151725380Y-132381809D01*
X151725380Y-133429428D02*
X151725380Y-133619904D01*
X151773000Y-133715142D01*
X151868238Y-133810380D01*
X152058714Y-133858000D01*
X152392047Y-133858000D01*
X152582523Y-133810380D01*
X152677761Y-133715142D01*
X152725380Y-133619904D01*
X152725380Y-133429428D01*
X152677761Y-133334190D01*
X152582523Y-133238952D01*
X152392047Y-133191333D01*
X152058714Y-133191333D01*
X151868238Y-133238952D01*
X151773000Y-133334190D01*
X151725380Y-133429428D01*
X151725380Y-134143714D02*
X151725380Y-134715142D01*
X152725380Y-134429428D02*
X151725380Y-134429428D01*
X152725380Y-135048476D02*
X151725380Y-135048476D01*
X152201571Y-135048476D02*
X152201571Y-135619904D01*
X152725380Y-135619904D02*
X151725380Y-135619904D01*
X152820619Y-135858000D02*
X152820619Y-136619904D01*
X151725380Y-137048476D02*
X151725380Y-137238952D01*
X151773000Y-137334190D01*
X151868238Y-137429428D01*
X152058714Y-137477047D01*
X152392047Y-137477047D01*
X152582523Y-137429428D01*
X152677761Y-137334190D01*
X152725380Y-137238952D01*
X152725380Y-137048476D01*
X152677761Y-136953238D01*
X152582523Y-136858000D01*
X152392047Y-136810380D01*
X152058714Y-136810380D01*
X151868238Y-136858000D01*
X151773000Y-136953238D01*
X151725380Y-137048476D01*
X151725380Y-137905619D02*
X152534904Y-137905619D01*
X152630142Y-137953238D01*
X152677761Y-138000857D01*
X152725380Y-138096095D01*
X152725380Y-138286571D01*
X152677761Y-138381809D01*
X152630142Y-138429428D01*
X152534904Y-138477047D01*
X151725380Y-138477047D01*
X151725380Y-138810380D02*
X151725380Y-139381809D01*
X152725380Y-139096095D02*
X151725380Y-139096095D01*
X165907333Y-127532380D02*
X165907333Y-128246666D01*
X165954952Y-128389523D01*
X166050190Y-128484761D01*
X166193047Y-128532380D01*
X166288285Y-128532380D01*
X165383523Y-128532380D02*
X165193047Y-128532380D01*
X165097809Y-128484761D01*
X165050190Y-128437142D01*
X164954952Y-128294285D01*
X164907333Y-128103809D01*
X164907333Y-127722857D01*
X164954952Y-127627619D01*
X165002571Y-127580000D01*
X165097809Y-127532380D01*
X165288285Y-127532380D01*
X165383523Y-127580000D01*
X165431142Y-127627619D01*
X165478761Y-127722857D01*
X165478761Y-127960952D01*
X165431142Y-128056190D01*
X165383523Y-128103809D01*
X165288285Y-128151428D01*
X165097809Y-128151428D01*
X165002571Y-128103809D01*
X164954952Y-128056190D01*
X164907333Y-127960952D01*
X168425761Y-129080190D02*
X168473380Y-129223047D01*
X168473380Y-129461142D01*
X168425761Y-129556380D01*
X168378142Y-129604000D01*
X168282904Y-129651619D01*
X168187666Y-129651619D01*
X168092428Y-129604000D01*
X168044809Y-129556380D01*
X167997190Y-129461142D01*
X167949571Y-129270666D01*
X167901952Y-129175428D01*
X167854333Y-129127809D01*
X167759095Y-129080190D01*
X167663857Y-129080190D01*
X167568619Y-129127809D01*
X167521000Y-129175428D01*
X167473380Y-129270666D01*
X167473380Y-129508761D01*
X167521000Y-129651619D01*
X168568619Y-130746857D02*
X168521000Y-130651619D01*
X168425761Y-130556380D01*
X168282904Y-130413523D01*
X168235285Y-130318285D01*
X168235285Y-130223047D01*
X168473380Y-130270666D02*
X168425761Y-130175428D01*
X168330523Y-130080190D01*
X168140047Y-130032571D01*
X167806714Y-130032571D01*
X167616238Y-130080190D01*
X167521000Y-130175428D01*
X167473380Y-130270666D01*
X167473380Y-130461142D01*
X167521000Y-130556380D01*
X167616238Y-130651619D01*
X167806714Y-130699238D01*
X168140047Y-130699238D01*
X168330523Y-130651619D01*
X168425761Y-130556380D01*
X168473380Y-130461142D01*
X168473380Y-130270666D01*
X167473380Y-131127809D02*
X168282904Y-131127809D01*
X168378142Y-131175428D01*
X168425761Y-131223047D01*
X168473380Y-131318285D01*
X168473380Y-131508761D01*
X168425761Y-131604000D01*
X168378142Y-131651619D01*
X168282904Y-131699238D01*
X167473380Y-131699238D01*
X168187666Y-132127809D02*
X168187666Y-132604000D01*
X168473380Y-132032571D02*
X167473380Y-132365904D01*
X168473380Y-132699238D01*
X168473380Y-133604000D02*
X167997190Y-133270666D01*
X168473380Y-133032571D02*
X167473380Y-133032571D01*
X167473380Y-133413523D01*
X167521000Y-133508761D01*
X167568619Y-133556380D01*
X167663857Y-133604000D01*
X167806714Y-133604000D01*
X167901952Y-133556380D01*
X167949571Y-133508761D01*
X167997190Y-133413523D01*
X167997190Y-133032571D01*
X167949571Y-134032571D02*
X167949571Y-134365904D01*
X168473380Y-134508761D02*
X168473380Y-134032571D01*
X167473380Y-134032571D01*
X167473380Y-134508761D01*
X168568619Y-134699238D02*
X168568619Y-135461142D01*
X167473380Y-135889714D02*
X167473380Y-136080190D01*
X167521000Y-136175428D01*
X167616238Y-136270666D01*
X167806714Y-136318285D01*
X168140047Y-136318285D01*
X168330523Y-136270666D01*
X168425761Y-136175428D01*
X168473380Y-136080190D01*
X168473380Y-135889714D01*
X168425761Y-135794476D01*
X168330523Y-135699238D01*
X168140047Y-135651619D01*
X167806714Y-135651619D01*
X167616238Y-135699238D01*
X167521000Y-135794476D01*
X167473380Y-135889714D01*
X167473380Y-136746857D02*
X168282904Y-136746857D01*
X168378142Y-136794476D01*
X168425761Y-136842095D01*
X168473380Y-136937333D01*
X168473380Y-137127809D01*
X168425761Y-137223047D01*
X168378142Y-137270666D01*
X168282904Y-137318285D01*
X167473380Y-137318285D01*
X167473380Y-137651619D02*
X167473380Y-138223047D01*
X168473380Y-137937333D02*
X167473380Y-137937333D01*
X166161333Y-88162380D02*
X166161333Y-88876666D01*
X166208952Y-89019523D01*
X166304190Y-89114761D01*
X166447047Y-89162380D01*
X166542285Y-89162380D01*
X165542285Y-88590952D02*
X165637523Y-88543333D01*
X165685142Y-88495714D01*
X165732761Y-88400476D01*
X165732761Y-88352857D01*
X165685142Y-88257619D01*
X165637523Y-88210000D01*
X165542285Y-88162380D01*
X165351809Y-88162380D01*
X165256571Y-88210000D01*
X165208952Y-88257619D01*
X165161333Y-88352857D01*
X165161333Y-88400476D01*
X165208952Y-88495714D01*
X165256571Y-88543333D01*
X165351809Y-88590952D01*
X165542285Y-88590952D01*
X165637523Y-88638571D01*
X165685142Y-88686190D01*
X165732761Y-88781428D01*
X165732761Y-88971904D01*
X165685142Y-89067142D01*
X165637523Y-89114761D01*
X165542285Y-89162380D01*
X165351809Y-89162380D01*
X165256571Y-89114761D01*
X165208952Y-89067142D01*
X165161333Y-88971904D01*
X165161333Y-88781428D01*
X165208952Y-88686190D01*
X165256571Y-88638571D01*
X165351809Y-88590952D01*
X168203571Y-92662571D02*
X168203571Y-92329238D01*
X168727380Y-92329238D02*
X167727380Y-92329238D01*
X167727380Y-92805428D01*
X168727380Y-93186380D02*
X167727380Y-93186380D01*
X168441666Y-93519714D01*
X167727380Y-93853047D01*
X168727380Y-93853047D01*
X168822619Y-94091142D02*
X168822619Y-94853047D01*
X168727380Y-95091142D02*
X167727380Y-95091142D01*
X168727380Y-95567333D02*
X167727380Y-95567333D01*
X168727380Y-96138761D01*
X167727380Y-96138761D01*
X150159333Y-106958380D02*
X150159333Y-107672666D01*
X150206952Y-107815523D01*
X150302190Y-107910761D01*
X150445047Y-107958380D01*
X150540285Y-107958380D01*
X149778380Y-106958380D02*
X149111714Y-106958380D01*
X149540285Y-107958380D01*
X152677761Y-107958571D02*
X152725380Y-108101428D01*
X152725380Y-108339523D01*
X152677761Y-108434761D01*
X152630142Y-108482380D01*
X152534904Y-108530000D01*
X152439666Y-108530000D01*
X152344428Y-108482380D01*
X152296809Y-108434761D01*
X152249190Y-108339523D01*
X152201571Y-108149047D01*
X152153952Y-108053809D01*
X152106333Y-108006190D01*
X152011095Y-107958571D01*
X151915857Y-107958571D01*
X151820619Y-108006190D01*
X151773000Y-108053809D01*
X151725380Y-108149047D01*
X151725380Y-108387142D01*
X151773000Y-108530000D01*
X151725380Y-109149047D02*
X151725380Y-109339523D01*
X151773000Y-109434761D01*
X151868238Y-109530000D01*
X152058714Y-109577619D01*
X152392047Y-109577619D01*
X152582523Y-109530000D01*
X152677761Y-109434761D01*
X152725380Y-109339523D01*
X152725380Y-109149047D01*
X152677761Y-109053809D01*
X152582523Y-108958571D01*
X152392047Y-108910952D01*
X152058714Y-108910952D01*
X151868238Y-108958571D01*
X151773000Y-109053809D01*
X151725380Y-109149047D01*
X152201571Y-110339523D02*
X152201571Y-110006190D01*
X152725380Y-110006190D02*
X151725380Y-110006190D01*
X151725380Y-110482380D01*
X151725380Y-110720476D02*
X151725380Y-111291904D01*
X152725380Y-111006190D02*
X151725380Y-111006190D01*
X152820619Y-111387142D02*
X152820619Y-112149047D01*
X152677761Y-112339523D02*
X152725380Y-112482380D01*
X152725380Y-112720476D01*
X152677761Y-112815714D01*
X152630142Y-112863333D01*
X152534904Y-112910952D01*
X152439666Y-112910952D01*
X152344428Y-112863333D01*
X152296809Y-112815714D01*
X152249190Y-112720476D01*
X152201571Y-112530000D01*
X152153952Y-112434761D01*
X152106333Y-112387142D01*
X152011095Y-112339523D01*
X151915857Y-112339523D01*
X151820619Y-112387142D01*
X151773000Y-112434761D01*
X151725380Y-112530000D01*
X151725380Y-112768095D01*
X151773000Y-112910952D01*
X152249190Y-113530000D02*
X152725380Y-113530000D01*
X151725380Y-113196666D02*
X152249190Y-113530000D01*
X151725380Y-113863333D01*
X152725380Y-114196666D02*
X151725380Y-114196666D01*
X152725380Y-114768095D01*
X151725380Y-114768095D01*
X152630142Y-115815714D02*
X152677761Y-115768095D01*
X152725380Y-115625238D01*
X152725380Y-115530000D01*
X152677761Y-115387142D01*
X152582523Y-115291904D01*
X152487285Y-115244285D01*
X152296809Y-115196666D01*
X152153952Y-115196666D01*
X151963476Y-115244285D01*
X151868238Y-115291904D01*
X151773000Y-115387142D01*
X151725380Y-115530000D01*
X151725380Y-115625238D01*
X151773000Y-115768095D01*
X151820619Y-115815714D01*
X152820619Y-116006190D02*
X152820619Y-116768095D01*
X152725380Y-117006190D02*
X151725380Y-117006190D01*
X152725380Y-117482380D02*
X151725380Y-117482380D01*
X152725380Y-118053809D01*
X151725380Y-118053809D01*
X165907333Y-106958380D02*
X165907333Y-107672666D01*
X165954952Y-107815523D01*
X166050190Y-107910761D01*
X166193047Y-107958380D01*
X166288285Y-107958380D01*
X165002571Y-106958380D02*
X165193047Y-106958380D01*
X165288285Y-107006000D01*
X165335904Y-107053619D01*
X165431142Y-107196476D01*
X165478761Y-107386952D01*
X165478761Y-107767904D01*
X165431142Y-107863142D01*
X165383523Y-107910761D01*
X165288285Y-107958380D01*
X165097809Y-107958380D01*
X165002571Y-107910761D01*
X164954952Y-107863142D01*
X164907333Y-107767904D01*
X164907333Y-107529809D01*
X164954952Y-107434571D01*
X165002571Y-107386952D01*
X165097809Y-107339333D01*
X165288285Y-107339333D01*
X165383523Y-107386952D01*
X165431142Y-107434571D01*
X165478761Y-107529809D01*
X168473380Y-106006190D02*
X167473380Y-106006190D01*
X168473380Y-106577619D01*
X167473380Y-106577619D01*
X167949571Y-107053809D02*
X167949571Y-107387142D01*
X168473380Y-107530000D02*
X168473380Y-107053809D01*
X167473380Y-107053809D01*
X167473380Y-107530000D01*
X167521000Y-108482380D02*
X167473380Y-108387142D01*
X167473380Y-108244285D01*
X167521000Y-108101428D01*
X167616238Y-108006190D01*
X167711476Y-107958571D01*
X167901952Y-107910952D01*
X168044809Y-107910952D01*
X168235285Y-107958571D01*
X168330523Y-108006190D01*
X168425761Y-108101428D01*
X168473380Y-108244285D01*
X168473380Y-108339523D01*
X168425761Y-108482380D01*
X168378142Y-108530000D01*
X168044809Y-108530000D01*
X168044809Y-108339523D01*
X168568619Y-108720476D02*
X168568619Y-109482380D01*
X168473380Y-109720476D02*
X167473380Y-109720476D01*
X167949571Y-109720476D02*
X167949571Y-110291904D01*
X168473380Y-110291904D02*
X167473380Y-110291904D01*
X168187666Y-110720476D02*
X168187666Y-111196666D01*
X168473380Y-110625238D02*
X167473380Y-110958571D01*
X168473380Y-111291904D01*
X168473380Y-112196666D02*
X167997190Y-111863333D01*
X168473380Y-111625238D02*
X167473380Y-111625238D01*
X167473380Y-112006190D01*
X167521000Y-112101428D01*
X167568619Y-112149047D01*
X167663857Y-112196666D01*
X167806714Y-112196666D01*
X167901952Y-112149047D01*
X167949571Y-112101428D01*
X167997190Y-112006190D01*
X167997190Y-111625238D01*
X168473380Y-112625238D02*
X167473380Y-112625238D01*
X167473380Y-112863333D01*
X167521000Y-113006190D01*
X167616238Y-113101428D01*
X167711476Y-113149047D01*
X167901952Y-113196666D01*
X168044809Y-113196666D01*
X168235285Y-113149047D01*
X168330523Y-113101428D01*
X168425761Y-113006190D01*
X168473380Y-112863333D01*
X168473380Y-112625238D01*
X168568619Y-113387142D02*
X168568619Y-114149047D01*
X168425761Y-114339523D02*
X168473380Y-114482380D01*
X168473380Y-114720476D01*
X168425761Y-114815714D01*
X168378142Y-114863333D01*
X168282904Y-114910952D01*
X168187666Y-114910952D01*
X168092428Y-114863333D01*
X168044809Y-114815714D01*
X167997190Y-114720476D01*
X167949571Y-114530000D01*
X167901952Y-114434761D01*
X167854333Y-114387142D01*
X167759095Y-114339523D01*
X167663857Y-114339523D01*
X167568619Y-114387142D01*
X167521000Y-114434761D01*
X167473380Y-114530000D01*
X167473380Y-114768095D01*
X167521000Y-114910952D01*
X167997190Y-115530000D02*
X168473380Y-115530000D01*
X167473380Y-115196666D02*
X167997190Y-115530000D01*
X167473380Y-115863333D01*
X168473380Y-116196666D02*
X167473380Y-116196666D01*
X168473380Y-116768095D01*
X167473380Y-116768095D01*
X168378142Y-117815714D02*
X168425761Y-117768095D01*
X168473380Y-117625238D01*
X168473380Y-117530000D01*
X168425761Y-117387142D01*
X168330523Y-117291904D01*
X168235285Y-117244285D01*
X168044809Y-117196666D01*
X167901952Y-117196666D01*
X167711476Y-117244285D01*
X167616238Y-117291904D01*
X167521000Y-117387142D01*
X167473380Y-117530000D01*
X167473380Y-117625238D01*
X167521000Y-117768095D01*
X167568619Y-117815714D01*
X168568619Y-118006190D02*
X168568619Y-118768095D01*
X168473380Y-119006190D02*
X167473380Y-119006190D01*
X168473380Y-119482380D02*
X167473380Y-119482380D01*
X168473380Y-120053809D01*
X167473380Y-120053809D01*
X133903333Y-106958380D02*
X133903333Y-107672666D01*
X133950952Y-107815523D01*
X134046190Y-107910761D01*
X134189047Y-107958380D01*
X134284285Y-107958380D01*
X132950952Y-106958380D02*
X133427142Y-106958380D01*
X133474761Y-107434571D01*
X133427142Y-107386952D01*
X133331904Y-107339333D01*
X133093809Y-107339333D01*
X132998571Y-107386952D01*
X132950952Y-107434571D01*
X132903333Y-107529809D01*
X132903333Y-107767904D01*
X132950952Y-107863142D01*
X132998571Y-107910761D01*
X133093809Y-107958380D01*
X133331904Y-107958380D01*
X133427142Y-107910761D01*
X133474761Y-107863142D01*
X136469380Y-105982380D02*
X135469380Y-105982380D01*
X135469380Y-106363333D01*
X135517000Y-106458571D01*
X135564619Y-106506190D01*
X135659857Y-106553809D01*
X135802714Y-106553809D01*
X135897952Y-106506190D01*
X135945571Y-106458571D01*
X135993190Y-106363333D01*
X135993190Y-105982380D01*
X135469380Y-107172857D02*
X135469380Y-107363333D01*
X135517000Y-107458571D01*
X135612238Y-107553809D01*
X135802714Y-107601428D01*
X136136047Y-107601428D01*
X136326523Y-107553809D01*
X136421761Y-107458571D01*
X136469380Y-107363333D01*
X136469380Y-107172857D01*
X136421761Y-107077619D01*
X136326523Y-106982380D01*
X136136047Y-106934761D01*
X135802714Y-106934761D01*
X135612238Y-106982380D01*
X135517000Y-107077619D01*
X135469380Y-107172857D01*
X136421761Y-107982380D02*
X136469380Y-108125238D01*
X136469380Y-108363333D01*
X136421761Y-108458571D01*
X136374142Y-108506190D01*
X136278904Y-108553809D01*
X136183666Y-108553809D01*
X136088428Y-108506190D01*
X136040809Y-108458571D01*
X135993190Y-108363333D01*
X135945571Y-108172857D01*
X135897952Y-108077619D01*
X135850333Y-108030000D01*
X135755095Y-107982380D01*
X135659857Y-107982380D01*
X135564619Y-108030000D01*
X135517000Y-108077619D01*
X135469380Y-108172857D01*
X135469380Y-108410952D01*
X135517000Y-108553809D01*
X136564619Y-108744285D02*
X136564619Y-109506190D01*
X136469380Y-109744285D02*
X135469380Y-109744285D01*
X135945571Y-109744285D02*
X135945571Y-110315714D01*
X136469380Y-110315714D02*
X135469380Y-110315714D01*
X136183666Y-110744285D02*
X136183666Y-111220476D01*
X136469380Y-110649047D02*
X135469380Y-110982380D01*
X136469380Y-111315714D01*
X136469380Y-112220476D02*
X135993190Y-111887142D01*
X136469380Y-111649047D02*
X135469380Y-111649047D01*
X135469380Y-112030000D01*
X135517000Y-112125238D01*
X135564619Y-112172857D01*
X135659857Y-112220476D01*
X135802714Y-112220476D01*
X135897952Y-112172857D01*
X135945571Y-112125238D01*
X135993190Y-112030000D01*
X135993190Y-111649047D01*
X136469380Y-112649047D02*
X135469380Y-112649047D01*
X135469380Y-112887142D01*
X135517000Y-113030000D01*
X135612238Y-113125238D01*
X135707476Y-113172857D01*
X135897952Y-113220476D01*
X136040809Y-113220476D01*
X136231285Y-113172857D01*
X136326523Y-113125238D01*
X136421761Y-113030000D01*
X136469380Y-112887142D01*
X136469380Y-112649047D01*
X136564619Y-113410952D02*
X136564619Y-114172857D01*
X136421761Y-114363333D02*
X136469380Y-114506190D01*
X136469380Y-114744285D01*
X136421761Y-114839523D01*
X136374142Y-114887142D01*
X136278904Y-114934761D01*
X136183666Y-114934761D01*
X136088428Y-114887142D01*
X136040809Y-114839523D01*
X135993190Y-114744285D01*
X135945571Y-114553809D01*
X135897952Y-114458571D01*
X135850333Y-114410952D01*
X135755095Y-114363333D01*
X135659857Y-114363333D01*
X135564619Y-114410952D01*
X135517000Y-114458571D01*
X135469380Y-114553809D01*
X135469380Y-114791904D01*
X135517000Y-114934761D01*
X135993190Y-115553809D02*
X136469380Y-115553809D01*
X135469380Y-115220476D02*
X135993190Y-115553809D01*
X135469380Y-115887142D01*
X136469380Y-116220476D02*
X135469380Y-116220476D01*
X136469380Y-116791904D01*
X135469380Y-116791904D01*
X136374142Y-117839523D02*
X136421761Y-117791904D01*
X136469380Y-117649047D01*
X136469380Y-117553809D01*
X136421761Y-117410952D01*
X136326523Y-117315714D01*
X136231285Y-117268095D01*
X136040809Y-117220476D01*
X135897952Y-117220476D01*
X135707476Y-117268095D01*
X135612238Y-117315714D01*
X135517000Y-117410952D01*
X135469380Y-117553809D01*
X135469380Y-117649047D01*
X135517000Y-117791904D01*
X135564619Y-117839523D01*
X136564619Y-118030000D02*
X136564619Y-118791904D01*
X136469380Y-119030000D02*
X135469380Y-119030000D01*
X136469380Y-119506190D02*
X135469380Y-119506190D01*
X136469380Y-120077619D01*
X135469380Y-120077619D01*
X150159333Y-70128380D02*
X150159333Y-70842666D01*
X150206952Y-70985523D01*
X150302190Y-71080761D01*
X150445047Y-71128380D01*
X150540285Y-71128380D01*
X149254571Y-70461714D02*
X149254571Y-71128380D01*
X149492666Y-70080761D02*
X149730761Y-70795047D01*
X149111714Y-70795047D01*
X152201571Y-69795238D02*
X152201571Y-70128571D01*
X152725380Y-70271428D02*
X152725380Y-69795238D01*
X151725380Y-69795238D01*
X151725380Y-70271428D01*
X151725380Y-70604761D02*
X152725380Y-71271428D01*
X151725380Y-71271428D02*
X152725380Y-70604761D01*
X151725380Y-71509523D02*
X151725380Y-72080952D01*
X152725380Y-71795238D02*
X151725380Y-71795238D01*
X152820619Y-72176190D02*
X152820619Y-72938095D01*
X152725380Y-73176190D02*
X151725380Y-73176190D01*
X151725380Y-73557142D01*
X151773000Y-73652380D01*
X151820619Y-73700000D01*
X151915857Y-73747619D01*
X152058714Y-73747619D01*
X152153952Y-73700000D01*
X152201571Y-73652380D01*
X152249190Y-73557142D01*
X152249190Y-73176190D01*
X151725380Y-74080952D02*
X152725380Y-74319047D01*
X152011095Y-74509523D01*
X152725380Y-74700000D01*
X151725380Y-74938095D01*
X152725380Y-75319047D02*
X151725380Y-75319047D01*
X152439666Y-75652380D01*
X151725380Y-75985714D01*
X152725380Y-75985714D01*
X152820619Y-76223809D02*
X152820619Y-76985714D01*
X152630142Y-77795238D02*
X152677761Y-77747619D01*
X152725380Y-77604761D01*
X152725380Y-77509523D01*
X152677761Y-77366666D01*
X152582523Y-77271428D01*
X152487285Y-77223809D01*
X152296809Y-77176190D01*
X152153952Y-77176190D01*
X151963476Y-77223809D01*
X151868238Y-77271428D01*
X151773000Y-77366666D01*
X151725380Y-77509523D01*
X151725380Y-77604761D01*
X151773000Y-77747619D01*
X151820619Y-77795238D01*
X151725380Y-78080952D02*
X151725380Y-78652380D01*
X152725380Y-78366666D02*
X151725380Y-78366666D01*
X152725380Y-79557142D02*
X152249190Y-79223809D01*
X152725380Y-78985714D02*
X151725380Y-78985714D01*
X151725380Y-79366666D01*
X151773000Y-79461904D01*
X151820619Y-79509523D01*
X151915857Y-79557142D01*
X152058714Y-79557142D01*
X152153952Y-79509523D01*
X152201571Y-79461904D01*
X152249190Y-79366666D01*
X152249190Y-78985714D01*
X152725380Y-80461904D02*
X152725380Y-79985714D01*
X151725380Y-79985714D01*
X152820619Y-80557142D02*
X152820619Y-81319047D01*
X152725380Y-81557142D02*
X151725380Y-81557142D01*
X152725380Y-82033333D02*
X151725380Y-82033333D01*
X152725380Y-82604761D01*
X151725380Y-82604761D01*
X133903333Y-88162380D02*
X133903333Y-88876666D01*
X133950952Y-89019523D01*
X134046190Y-89114761D01*
X134189047Y-89162380D01*
X134284285Y-89162380D01*
X133522380Y-88162380D02*
X132903333Y-88162380D01*
X133236666Y-88543333D01*
X133093809Y-88543333D01*
X132998571Y-88590952D01*
X132950952Y-88638571D01*
X132903333Y-88733809D01*
X132903333Y-88971904D01*
X132950952Y-89067142D01*
X132998571Y-89114761D01*
X133093809Y-89162380D01*
X133379523Y-89162380D01*
X133474761Y-89114761D01*
X133522380Y-89067142D01*
X136374142Y-91091142D02*
X136421761Y-91043523D01*
X136469380Y-90900666D01*
X136469380Y-90805428D01*
X136421761Y-90662571D01*
X136326523Y-90567333D01*
X136231285Y-90519714D01*
X136040809Y-90472095D01*
X135897952Y-90472095D01*
X135707476Y-90519714D01*
X135612238Y-90567333D01*
X135517000Y-90662571D01*
X135469380Y-90805428D01*
X135469380Y-90900666D01*
X135517000Y-91043523D01*
X135564619Y-91091142D01*
X135469380Y-91376857D02*
X136469380Y-91710190D01*
X135469380Y-92043523D01*
X135564619Y-92329238D02*
X135517000Y-92376857D01*
X135469380Y-92472095D01*
X135469380Y-92710190D01*
X135517000Y-92805428D01*
X135564619Y-92853047D01*
X135659857Y-92900666D01*
X135755095Y-92900666D01*
X135897952Y-92853047D01*
X136469380Y-92281619D01*
X136469380Y-92900666D01*
X136564619Y-93091142D02*
X136564619Y-93853047D01*
X136469380Y-94091142D02*
X135469380Y-94091142D01*
X136469380Y-94567333D02*
X135469380Y-94567333D01*
X136469380Y-95138761D01*
X135469380Y-95138761D01*
X136469380Y-95614952D02*
X135469380Y-95614952D01*
X135469380Y-95995904D01*
X135517000Y-96091142D01*
X135564619Y-96138761D01*
X135659857Y-96186380D01*
X135802714Y-96186380D01*
X135897952Y-96138761D01*
X135945571Y-96091142D01*
X135993190Y-95995904D01*
X135993190Y-95614952D01*
X135469380Y-96614952D02*
X136278904Y-96614952D01*
X136374142Y-96662571D01*
X136421761Y-96710190D01*
X136469380Y-96805428D01*
X136469380Y-96995904D01*
X136421761Y-97091142D01*
X136374142Y-97138761D01*
X136278904Y-97186380D01*
X135469380Y-97186380D01*
X135469380Y-97519714D02*
X135469380Y-98091142D01*
X136469380Y-97805428D02*
X135469380Y-97805428D01*
X134157333Y-54126380D02*
X134157333Y-54840666D01*
X134204952Y-54983523D01*
X134300190Y-55078761D01*
X134443047Y-55126380D01*
X134538285Y-55126380D01*
X133728761Y-54221619D02*
X133681142Y-54174000D01*
X133585904Y-54126380D01*
X133347809Y-54126380D01*
X133252571Y-54174000D01*
X133204952Y-54221619D01*
X133157333Y-54316857D01*
X133157333Y-54412095D01*
X133204952Y-54554952D01*
X133776380Y-55126380D01*
X133157333Y-55126380D01*
X136723380Y-56317047D02*
X136723380Y-55745619D01*
X136723380Y-56031333D02*
X135723380Y-56031333D01*
X135866238Y-55936095D01*
X135961476Y-55840857D01*
X136009095Y-55745619D01*
X135723380Y-56602761D02*
X136723380Y-56936095D01*
X135723380Y-57269428D01*
X135675761Y-58317047D02*
X136961476Y-57459904D01*
X135723380Y-58840857D02*
X135723380Y-59031333D01*
X135771000Y-59126571D01*
X135866238Y-59221809D01*
X136056714Y-59269428D01*
X136390047Y-59269428D01*
X136580523Y-59221809D01*
X136675761Y-59126571D01*
X136723380Y-59031333D01*
X136723380Y-58840857D01*
X136675761Y-58745619D01*
X136580523Y-58650380D01*
X136390047Y-58602761D01*
X136056714Y-58602761D01*
X135866238Y-58650380D01*
X135771000Y-58745619D01*
X135723380Y-58840857D01*
X136628142Y-60269428D02*
X136675761Y-60221809D01*
X136723380Y-60078952D01*
X136723380Y-59983714D01*
X136675761Y-59840857D01*
X136580523Y-59745619D01*
X136485285Y-59698000D01*
X136294809Y-59650380D01*
X136151952Y-59650380D01*
X135961476Y-59698000D01*
X135866238Y-59745619D01*
X135771000Y-59840857D01*
X135723380Y-59983714D01*
X135723380Y-60078952D01*
X135771000Y-60221809D01*
X135818619Y-60269428D01*
X135723380Y-60555142D02*
X135723380Y-61126571D01*
X136723380Y-60840857D02*
X135723380Y-60840857D01*
X136818619Y-61221809D02*
X136818619Y-61983714D01*
X135723380Y-62412285D02*
X135723380Y-62602761D01*
X135771000Y-62698000D01*
X135866238Y-62793238D01*
X136056714Y-62840857D01*
X136390047Y-62840857D01*
X136580523Y-62793238D01*
X136675761Y-62698000D01*
X136723380Y-62602761D01*
X136723380Y-62412285D01*
X136675761Y-62317047D01*
X136580523Y-62221809D01*
X136390047Y-62174190D01*
X136056714Y-62174190D01*
X135866238Y-62221809D01*
X135771000Y-62317047D01*
X135723380Y-62412285D01*
X135723380Y-63269428D02*
X136532904Y-63269428D01*
X136628142Y-63317047D01*
X136675761Y-63364666D01*
X136723380Y-63459904D01*
X136723380Y-63650380D01*
X136675761Y-63745619D01*
X136628142Y-63793238D01*
X136532904Y-63840857D01*
X135723380Y-63840857D01*
X135723380Y-64174190D02*
X135723380Y-64745619D01*
X136723380Y-64459904D02*
X135723380Y-64459904D01*
X166415333Y-54126380D02*
X166415333Y-54840666D01*
X166462952Y-54983523D01*
X166558190Y-55078761D01*
X166701047Y-55126380D01*
X166796285Y-55126380D01*
X165415333Y-55126380D02*
X165986761Y-55126380D01*
X165701047Y-55126380D02*
X165701047Y-54126380D01*
X165796285Y-54269238D01*
X165891523Y-54364476D01*
X165986761Y-54412095D01*
X168981380Y-56983714D02*
X168981380Y-56412285D01*
X168981380Y-56698000D02*
X167981380Y-56698000D01*
X168124238Y-56602761D01*
X168219476Y-56507523D01*
X168267095Y-56412285D01*
X167981380Y-57269428D02*
X168981380Y-57602761D01*
X167981380Y-57936095D01*
X167933761Y-58983714D02*
X169219476Y-58126571D01*
X167981380Y-59507523D02*
X167981380Y-59698000D01*
X168029000Y-59793238D01*
X168124238Y-59888476D01*
X168314714Y-59936095D01*
X168648047Y-59936095D01*
X168838523Y-59888476D01*
X168933761Y-59793238D01*
X168981380Y-59698000D01*
X168981380Y-59507523D01*
X168933761Y-59412285D01*
X168838523Y-59317047D01*
X168648047Y-59269428D01*
X168314714Y-59269428D01*
X168124238Y-59317047D01*
X168029000Y-59412285D01*
X167981380Y-59507523D01*
X168886142Y-60936095D02*
X168933761Y-60888476D01*
X168981380Y-60745619D01*
X168981380Y-60650380D01*
X168933761Y-60507523D01*
X168838523Y-60412285D01*
X168743285Y-60364666D01*
X168552809Y-60317047D01*
X168409952Y-60317047D01*
X168219476Y-60364666D01*
X168124238Y-60412285D01*
X168029000Y-60507523D01*
X167981380Y-60650380D01*
X167981380Y-60745619D01*
X168029000Y-60888476D01*
X168076619Y-60936095D01*
X167981380Y-61221809D02*
X167981380Y-61793238D01*
X168981380Y-61507523D02*
X167981380Y-61507523D01*
X169076619Y-61888476D02*
X169076619Y-62650380D01*
X168981380Y-62888476D02*
X167981380Y-62888476D01*
X168981380Y-63364666D02*
X167981380Y-63364666D01*
X168981380Y-63936095D01*
X167981380Y-63936095D01*
M02*
