G04 #@! TF.GenerationSoftware,KiCad,Pcbnew,5.1.8*
G04 #@! TF.CreationDate,2020-12-03T15:53:58+01:00*
G04 #@! TF.ProjectId,AS3340-VCO,41533333-3430-42d5-9643-4f2e6b696361,1*
G04 #@! TF.SameCoordinates,Original*
G04 #@! TF.FileFunction,Legend,Top*
G04 #@! TF.FilePolarity,Positive*
%FSLAX46Y46*%
G04 Gerber Fmt 4.6, Leading zero omitted, Abs format (unit mm)*
G04 Created by KiCad (PCBNEW 5.1.8) date 2020-12-03 15:53:58*
%MOMM*%
%LPD*%
G01*
G04 APERTURE LIST*
%ADD10C,0.120000*%
%ADD11C,0.127000*%
%ADD12C,0.300000*%
%ADD13C,0.150000*%
%ADD14C,0.015000*%
G04 APERTURE END LIST*
D10*
X119886000Y-100238779D02*
X119886000Y-99913221D01*
X120906000Y-100238779D02*
X120906000Y-99913221D01*
X136802000Y-87118000D02*
X139042000Y-87118000D01*
X136802000Y-86878000D02*
X139042000Y-86878000D01*
X136802000Y-86998000D02*
X139042000Y-86998000D01*
X137922000Y-82828000D02*
X137922000Y-83478000D01*
X137922000Y-88368000D02*
X137922000Y-87718000D01*
X136802000Y-83478000D02*
X136802000Y-87718000D01*
X139042000Y-83478000D02*
X136802000Y-83478000D01*
X139042000Y-87718000D02*
X139042000Y-83478000D01*
X136802000Y-87718000D02*
X139042000Y-87718000D01*
X151534000Y-100580000D02*
X153774000Y-100580000D01*
X151534000Y-100340000D02*
X153774000Y-100340000D01*
X151534000Y-100460000D02*
X153774000Y-100460000D01*
X152654000Y-96290000D02*
X152654000Y-96940000D01*
X152654000Y-101830000D02*
X152654000Y-101180000D01*
X151534000Y-96940000D02*
X151534000Y-101180000D01*
X153774000Y-96940000D02*
X151534000Y-96940000D01*
X153774000Y-101180000D02*
X153774000Y-96940000D01*
X151534000Y-101180000D02*
X153774000Y-101180000D01*
X151534000Y-88642000D02*
X153774000Y-88642000D01*
X151534000Y-88402000D02*
X153774000Y-88402000D01*
X151534000Y-88522000D02*
X153774000Y-88522000D01*
X152654000Y-84352000D02*
X152654000Y-85002000D01*
X152654000Y-89892000D02*
X152654000Y-89242000D01*
X151534000Y-85002000D02*
X151534000Y-89242000D01*
X153774000Y-85002000D02*
X151534000Y-85002000D01*
X153774000Y-89242000D02*
X153774000Y-85002000D01*
X151534000Y-89242000D02*
X153774000Y-89242000D01*
D11*
X173304000Y-82540000D02*
X173304000Y-75830000D01*
X177804000Y-82540000D02*
X173304000Y-82540000D01*
X177804000Y-75830000D02*
X177804000Y-82540000D01*
X173304000Y-75830000D02*
X177804000Y-75830000D01*
D12*
X176984000Y-83385000D02*
G75*
G03*
X176984000Y-83385000I-100000J0D01*
G01*
D11*
X173304000Y-91840000D02*
X173304000Y-85130000D01*
X177804000Y-91840000D02*
X173304000Y-91840000D01*
X177804000Y-85130000D02*
X177804000Y-91840000D01*
X173304000Y-85130000D02*
X177804000Y-85130000D01*
D12*
X176984000Y-92685000D02*
G75*
G03*
X176984000Y-92685000I-100000J0D01*
G01*
D11*
X173304000Y-101135000D02*
X173304000Y-94425000D01*
X177804000Y-101135000D02*
X173304000Y-101135000D01*
X177804000Y-94425000D02*
X177804000Y-101135000D01*
X173304000Y-94425000D02*
X177804000Y-94425000D01*
D12*
X176984000Y-101980000D02*
G75*
G03*
X176984000Y-101980000I-100000J0D01*
G01*
D10*
X172830000Y-113910000D02*
X172830000Y-106170000D01*
X175570000Y-113910000D02*
X175570000Y-106170000D01*
X172830000Y-113910000D02*
X175570000Y-113910000D01*
X172830000Y-106170000D02*
X175570000Y-106170000D01*
X149443221Y-50040000D02*
X149768779Y-50040000D01*
X149443221Y-49020000D02*
X149768779Y-49020000D01*
X140579221Y-49786000D02*
X140904779Y-49786000D01*
X140579221Y-48766000D02*
X140904779Y-48766000D01*
X129631221Y-123446000D02*
X129956779Y-123446000D01*
X129631221Y-122426000D02*
X129956779Y-122426000D01*
X139490221Y-38404000D02*
X139815779Y-38404000D01*
X139490221Y-37384000D02*
X139815779Y-37384000D01*
X151478221Y-43643000D02*
X151803779Y-43643000D01*
X151478221Y-42623000D02*
X151803779Y-42623000D01*
X160873221Y-122938000D02*
X161198779Y-122938000D01*
X160873221Y-121918000D02*
X161198779Y-121918000D01*
X153672000Y-78140779D02*
X153672000Y-77815221D01*
X152652000Y-78140779D02*
X152652000Y-77815221D01*
X122590779Y-54862000D02*
X122265221Y-54862000D01*
X122590779Y-55882000D02*
X122265221Y-55882000D01*
X151475221Y-37336000D02*
X151800779Y-37336000D01*
X151475221Y-38356000D02*
X151800779Y-38356000D01*
X165699221Y-143000000D02*
X166024779Y-143000000D01*
X165699221Y-144020000D02*
X166024779Y-144020000D01*
X146141221Y-142238000D02*
X146466779Y-142238000D01*
X146141221Y-143258000D02*
X146466779Y-143258000D01*
X165445221Y-121918000D02*
X165770779Y-121918000D01*
X165445221Y-122938000D02*
X165770779Y-122938000D01*
X170017221Y-143000000D02*
X170342779Y-143000000D01*
X170017221Y-144020000D02*
X170342779Y-144020000D01*
X156047221Y-121918000D02*
X156372779Y-121918000D01*
X156047221Y-122938000D02*
X156372779Y-122938000D01*
X150967221Y-122172000D02*
X151292779Y-122172000D01*
X150967221Y-123192000D02*
X151292779Y-123192000D01*
X145379221Y-122172000D02*
X145704779Y-122172000D01*
X145379221Y-123192000D02*
X145704779Y-123192000D01*
X139537221Y-122172000D02*
X139862779Y-122172000D01*
X139537221Y-123192000D02*
X139862779Y-123192000D01*
X134203221Y-122426000D02*
X134528779Y-122426000D01*
X134203221Y-123446000D02*
X134528779Y-123446000D01*
X170017221Y-82802000D02*
X170342779Y-82802000D01*
X170017221Y-83822000D02*
X170342779Y-83822000D01*
X145633221Y-36066000D02*
X145958779Y-36066000D01*
X145633221Y-37086000D02*
X145958779Y-37086000D01*
X140370779Y-43690000D02*
X140045221Y-43690000D01*
X140370779Y-42670000D02*
X140045221Y-42670000D01*
X155102779Y-35308000D02*
X154777221Y-35308000D01*
X155102779Y-34288000D02*
X154777221Y-34288000D01*
X138084779Y-143258000D02*
X137759221Y-143258000D01*
X138084779Y-142238000D02*
X137759221Y-142238000D01*
X166461221Y-88136000D02*
X166786779Y-88136000D01*
X166461221Y-89156000D02*
X166786779Y-89156000D01*
X129377221Y-102360000D02*
X129702779Y-102360000D01*
X129377221Y-103380000D02*
X129702779Y-103380000D01*
X176113221Y-118362000D02*
X176438779Y-118362000D01*
X176113221Y-119382000D02*
X176438779Y-119382000D01*
X153160000Y-112430779D02*
X153160000Y-112105221D01*
X154180000Y-112430779D02*
X154180000Y-112105221D01*
X154594779Y-143258000D02*
X154269221Y-143258000D01*
X154594779Y-142238000D02*
X154269221Y-142238000D01*
X134711221Y-51560000D02*
X135036779Y-51560000D01*
X134711221Y-52580000D02*
X135036779Y-52580000D01*
X117536779Y-61724000D02*
X117211221Y-61724000D01*
X117536779Y-60704000D02*
X117211221Y-60704000D01*
X113954779Y-54612000D02*
X113629221Y-54612000D01*
X113954779Y-53592000D02*
X113629221Y-53592000D01*
X120140000Y-94396779D02*
X120140000Y-94071221D01*
X121160000Y-94396779D02*
X121160000Y-94071221D01*
X121160000Y-88991221D02*
X121160000Y-89316779D01*
X120140000Y-88991221D02*
X120140000Y-89316779D01*
X125821221Y-142746000D02*
X126146779Y-142746000D01*
X125821221Y-143766000D02*
X126146779Y-143766000D01*
D12*
X169491419Y-36450000D02*
G75*
G03*
X169491419Y-36450000I-141419J0D01*
G01*
D11*
X178970000Y-51760000D02*
X170380000Y-51760000D01*
X170380000Y-51760000D02*
X170380000Y-31740000D01*
X170380000Y-31740000D02*
X178970000Y-31740000D01*
X178970000Y-31740000D02*
X178970000Y-51760000D01*
D10*
X177070000Y-69080000D02*
G75*
G03*
X177070000Y-69080000I-2620000J0D01*
G01*
X174450000Y-66500000D02*
X174450000Y-71660000D01*
X174490000Y-66500000D02*
X174490000Y-71660000D01*
X174530000Y-66501000D02*
X174530000Y-71659000D01*
X174570000Y-66502000D02*
X174570000Y-71658000D01*
X174610000Y-66504000D02*
X174610000Y-71656000D01*
X174650000Y-66507000D02*
X174650000Y-71653000D01*
X174690000Y-66511000D02*
X174690000Y-68040000D01*
X174690000Y-70120000D02*
X174690000Y-71649000D01*
X174730000Y-66515000D02*
X174730000Y-68040000D01*
X174730000Y-70120000D02*
X174730000Y-71645000D01*
X174770000Y-66519000D02*
X174770000Y-68040000D01*
X174770000Y-70120000D02*
X174770000Y-71641000D01*
X174810000Y-66524000D02*
X174810000Y-68040000D01*
X174810000Y-70120000D02*
X174810000Y-71636000D01*
X174850000Y-66530000D02*
X174850000Y-68040000D01*
X174850000Y-70120000D02*
X174850000Y-71630000D01*
X174890000Y-66537000D02*
X174890000Y-68040000D01*
X174890000Y-70120000D02*
X174890000Y-71623000D01*
X174930000Y-66544000D02*
X174930000Y-68040000D01*
X174930000Y-70120000D02*
X174930000Y-71616000D01*
X174970000Y-66552000D02*
X174970000Y-68040000D01*
X174970000Y-70120000D02*
X174970000Y-71608000D01*
X175010000Y-66560000D02*
X175010000Y-68040000D01*
X175010000Y-70120000D02*
X175010000Y-71600000D01*
X175050000Y-66569000D02*
X175050000Y-68040000D01*
X175050000Y-70120000D02*
X175050000Y-71591000D01*
X175090000Y-66579000D02*
X175090000Y-68040000D01*
X175090000Y-70120000D02*
X175090000Y-71581000D01*
X175130000Y-66589000D02*
X175130000Y-68040000D01*
X175130000Y-70120000D02*
X175130000Y-71571000D01*
X175171000Y-66600000D02*
X175171000Y-68040000D01*
X175171000Y-70120000D02*
X175171000Y-71560000D01*
X175211000Y-66612000D02*
X175211000Y-68040000D01*
X175211000Y-70120000D02*
X175211000Y-71548000D01*
X175251000Y-66625000D02*
X175251000Y-68040000D01*
X175251000Y-70120000D02*
X175251000Y-71535000D01*
X175291000Y-66638000D02*
X175291000Y-68040000D01*
X175291000Y-70120000D02*
X175291000Y-71522000D01*
X175331000Y-66652000D02*
X175331000Y-68040000D01*
X175331000Y-70120000D02*
X175331000Y-71508000D01*
X175371000Y-66666000D02*
X175371000Y-68040000D01*
X175371000Y-70120000D02*
X175371000Y-71494000D01*
X175411000Y-66682000D02*
X175411000Y-68040000D01*
X175411000Y-70120000D02*
X175411000Y-71478000D01*
X175451000Y-66698000D02*
X175451000Y-68040000D01*
X175451000Y-70120000D02*
X175451000Y-71462000D01*
X175491000Y-66715000D02*
X175491000Y-68040000D01*
X175491000Y-70120000D02*
X175491000Y-71445000D01*
X175531000Y-66732000D02*
X175531000Y-68040000D01*
X175531000Y-70120000D02*
X175531000Y-71428000D01*
X175571000Y-66751000D02*
X175571000Y-68040000D01*
X175571000Y-70120000D02*
X175571000Y-71409000D01*
X175611000Y-66770000D02*
X175611000Y-68040000D01*
X175611000Y-70120000D02*
X175611000Y-71390000D01*
X175651000Y-66790000D02*
X175651000Y-68040000D01*
X175651000Y-70120000D02*
X175651000Y-71370000D01*
X175691000Y-66812000D02*
X175691000Y-68040000D01*
X175691000Y-70120000D02*
X175691000Y-71348000D01*
X175731000Y-66833000D02*
X175731000Y-68040000D01*
X175731000Y-70120000D02*
X175731000Y-71327000D01*
X175771000Y-66856000D02*
X175771000Y-68040000D01*
X175771000Y-70120000D02*
X175771000Y-71304000D01*
X175811000Y-66880000D02*
X175811000Y-68040000D01*
X175811000Y-70120000D02*
X175811000Y-71280000D01*
X175851000Y-66905000D02*
X175851000Y-68040000D01*
X175851000Y-70120000D02*
X175851000Y-71255000D01*
X175891000Y-66931000D02*
X175891000Y-68040000D01*
X175891000Y-70120000D02*
X175891000Y-71229000D01*
X175931000Y-66958000D02*
X175931000Y-68040000D01*
X175931000Y-70120000D02*
X175931000Y-71202000D01*
X175971000Y-66985000D02*
X175971000Y-68040000D01*
X175971000Y-70120000D02*
X175971000Y-71175000D01*
X176011000Y-67015000D02*
X176011000Y-68040000D01*
X176011000Y-70120000D02*
X176011000Y-71145000D01*
X176051000Y-67045000D02*
X176051000Y-68040000D01*
X176051000Y-70120000D02*
X176051000Y-71115000D01*
X176091000Y-67076000D02*
X176091000Y-68040000D01*
X176091000Y-70120000D02*
X176091000Y-71084000D01*
X176131000Y-67109000D02*
X176131000Y-68040000D01*
X176131000Y-70120000D02*
X176131000Y-71051000D01*
X176171000Y-67143000D02*
X176171000Y-68040000D01*
X176171000Y-70120000D02*
X176171000Y-71017000D01*
X176211000Y-67179000D02*
X176211000Y-68040000D01*
X176211000Y-70120000D02*
X176211000Y-70981000D01*
X176251000Y-67216000D02*
X176251000Y-68040000D01*
X176251000Y-70120000D02*
X176251000Y-70944000D01*
X176291000Y-67254000D02*
X176291000Y-68040000D01*
X176291000Y-70120000D02*
X176291000Y-70906000D01*
X176331000Y-67295000D02*
X176331000Y-68040000D01*
X176331000Y-70120000D02*
X176331000Y-70865000D01*
X176371000Y-67337000D02*
X176371000Y-68040000D01*
X176371000Y-70120000D02*
X176371000Y-70823000D01*
X176411000Y-67381000D02*
X176411000Y-68040000D01*
X176411000Y-70120000D02*
X176411000Y-70779000D01*
X176451000Y-67427000D02*
X176451000Y-68040000D01*
X176451000Y-70120000D02*
X176451000Y-70733000D01*
X176491000Y-67475000D02*
X176491000Y-68040000D01*
X176491000Y-70120000D02*
X176491000Y-70685000D01*
X176531000Y-67526000D02*
X176531000Y-68040000D01*
X176531000Y-70120000D02*
X176531000Y-70634000D01*
X176571000Y-67580000D02*
X176571000Y-68040000D01*
X176571000Y-70120000D02*
X176571000Y-70580000D01*
X176611000Y-67637000D02*
X176611000Y-68040000D01*
X176611000Y-70120000D02*
X176611000Y-70523000D01*
X176651000Y-67697000D02*
X176651000Y-68040000D01*
X176651000Y-70120000D02*
X176651000Y-70463000D01*
X176691000Y-67761000D02*
X176691000Y-68040000D01*
X176691000Y-70120000D02*
X176691000Y-70399000D01*
X176731000Y-67829000D02*
X176731000Y-68040000D01*
X176731000Y-70120000D02*
X176731000Y-70331000D01*
X176771000Y-67902000D02*
X176771000Y-70258000D01*
X176811000Y-67982000D02*
X176811000Y-70178000D01*
X176851000Y-68069000D02*
X176851000Y-70091000D01*
X176891000Y-68165000D02*
X176891000Y-69995000D01*
X176931000Y-68275000D02*
X176931000Y-69885000D01*
X176971000Y-68403000D02*
X176971000Y-69757000D01*
X177011000Y-68562000D02*
X177011000Y-69598000D01*
X177051000Y-68796000D02*
X177051000Y-69364000D01*
X171325185Y-67315440D02*
X171825185Y-67315440D01*
X171575185Y-67065440D02*
X171575185Y-67565440D01*
X177270000Y-59380000D02*
G75*
G03*
X177270000Y-59380000I-2620000J0D01*
G01*
X174650000Y-56800000D02*
X174650000Y-61960000D01*
X174690000Y-56800000D02*
X174690000Y-61960000D01*
X174730000Y-56801000D02*
X174730000Y-61959000D01*
X174770000Y-56802000D02*
X174770000Y-61958000D01*
X174810000Y-56804000D02*
X174810000Y-61956000D01*
X174850000Y-56807000D02*
X174850000Y-61953000D01*
X174890000Y-56811000D02*
X174890000Y-58340000D01*
X174890000Y-60420000D02*
X174890000Y-61949000D01*
X174930000Y-56815000D02*
X174930000Y-58340000D01*
X174930000Y-60420000D02*
X174930000Y-61945000D01*
X174970000Y-56819000D02*
X174970000Y-58340000D01*
X174970000Y-60420000D02*
X174970000Y-61941000D01*
X175010000Y-56824000D02*
X175010000Y-58340000D01*
X175010000Y-60420000D02*
X175010000Y-61936000D01*
X175050000Y-56830000D02*
X175050000Y-58340000D01*
X175050000Y-60420000D02*
X175050000Y-61930000D01*
X175090000Y-56837000D02*
X175090000Y-58340000D01*
X175090000Y-60420000D02*
X175090000Y-61923000D01*
X175130000Y-56844000D02*
X175130000Y-58340000D01*
X175130000Y-60420000D02*
X175130000Y-61916000D01*
X175170000Y-56852000D02*
X175170000Y-58340000D01*
X175170000Y-60420000D02*
X175170000Y-61908000D01*
X175210000Y-56860000D02*
X175210000Y-58340000D01*
X175210000Y-60420000D02*
X175210000Y-61900000D01*
X175250000Y-56869000D02*
X175250000Y-58340000D01*
X175250000Y-60420000D02*
X175250000Y-61891000D01*
X175290000Y-56879000D02*
X175290000Y-58340000D01*
X175290000Y-60420000D02*
X175290000Y-61881000D01*
X175330000Y-56889000D02*
X175330000Y-58340000D01*
X175330000Y-60420000D02*
X175330000Y-61871000D01*
X175371000Y-56900000D02*
X175371000Y-58340000D01*
X175371000Y-60420000D02*
X175371000Y-61860000D01*
X175411000Y-56912000D02*
X175411000Y-58340000D01*
X175411000Y-60420000D02*
X175411000Y-61848000D01*
X175451000Y-56925000D02*
X175451000Y-58340000D01*
X175451000Y-60420000D02*
X175451000Y-61835000D01*
X175491000Y-56938000D02*
X175491000Y-58340000D01*
X175491000Y-60420000D02*
X175491000Y-61822000D01*
X175531000Y-56952000D02*
X175531000Y-58340000D01*
X175531000Y-60420000D02*
X175531000Y-61808000D01*
X175571000Y-56966000D02*
X175571000Y-58340000D01*
X175571000Y-60420000D02*
X175571000Y-61794000D01*
X175611000Y-56982000D02*
X175611000Y-58340000D01*
X175611000Y-60420000D02*
X175611000Y-61778000D01*
X175651000Y-56998000D02*
X175651000Y-58340000D01*
X175651000Y-60420000D02*
X175651000Y-61762000D01*
X175691000Y-57015000D02*
X175691000Y-58340000D01*
X175691000Y-60420000D02*
X175691000Y-61745000D01*
X175731000Y-57032000D02*
X175731000Y-58340000D01*
X175731000Y-60420000D02*
X175731000Y-61728000D01*
X175771000Y-57051000D02*
X175771000Y-58340000D01*
X175771000Y-60420000D02*
X175771000Y-61709000D01*
X175811000Y-57070000D02*
X175811000Y-58340000D01*
X175811000Y-60420000D02*
X175811000Y-61690000D01*
X175851000Y-57090000D02*
X175851000Y-58340000D01*
X175851000Y-60420000D02*
X175851000Y-61670000D01*
X175891000Y-57112000D02*
X175891000Y-58340000D01*
X175891000Y-60420000D02*
X175891000Y-61648000D01*
X175931000Y-57133000D02*
X175931000Y-58340000D01*
X175931000Y-60420000D02*
X175931000Y-61627000D01*
X175971000Y-57156000D02*
X175971000Y-58340000D01*
X175971000Y-60420000D02*
X175971000Y-61604000D01*
X176011000Y-57180000D02*
X176011000Y-58340000D01*
X176011000Y-60420000D02*
X176011000Y-61580000D01*
X176051000Y-57205000D02*
X176051000Y-58340000D01*
X176051000Y-60420000D02*
X176051000Y-61555000D01*
X176091000Y-57231000D02*
X176091000Y-58340000D01*
X176091000Y-60420000D02*
X176091000Y-61529000D01*
X176131000Y-57258000D02*
X176131000Y-58340000D01*
X176131000Y-60420000D02*
X176131000Y-61502000D01*
X176171000Y-57285000D02*
X176171000Y-58340000D01*
X176171000Y-60420000D02*
X176171000Y-61475000D01*
X176211000Y-57315000D02*
X176211000Y-58340000D01*
X176211000Y-60420000D02*
X176211000Y-61445000D01*
X176251000Y-57345000D02*
X176251000Y-58340000D01*
X176251000Y-60420000D02*
X176251000Y-61415000D01*
X176291000Y-57376000D02*
X176291000Y-58340000D01*
X176291000Y-60420000D02*
X176291000Y-61384000D01*
X176331000Y-57409000D02*
X176331000Y-58340000D01*
X176331000Y-60420000D02*
X176331000Y-61351000D01*
X176371000Y-57443000D02*
X176371000Y-58340000D01*
X176371000Y-60420000D02*
X176371000Y-61317000D01*
X176411000Y-57479000D02*
X176411000Y-58340000D01*
X176411000Y-60420000D02*
X176411000Y-61281000D01*
X176451000Y-57516000D02*
X176451000Y-58340000D01*
X176451000Y-60420000D02*
X176451000Y-61244000D01*
X176491000Y-57554000D02*
X176491000Y-58340000D01*
X176491000Y-60420000D02*
X176491000Y-61206000D01*
X176531000Y-57595000D02*
X176531000Y-58340000D01*
X176531000Y-60420000D02*
X176531000Y-61165000D01*
X176571000Y-57637000D02*
X176571000Y-58340000D01*
X176571000Y-60420000D02*
X176571000Y-61123000D01*
X176611000Y-57681000D02*
X176611000Y-58340000D01*
X176611000Y-60420000D02*
X176611000Y-61079000D01*
X176651000Y-57727000D02*
X176651000Y-58340000D01*
X176651000Y-60420000D02*
X176651000Y-61033000D01*
X176691000Y-57775000D02*
X176691000Y-58340000D01*
X176691000Y-60420000D02*
X176691000Y-60985000D01*
X176731000Y-57826000D02*
X176731000Y-58340000D01*
X176731000Y-60420000D02*
X176731000Y-60934000D01*
X176771000Y-57880000D02*
X176771000Y-58340000D01*
X176771000Y-60420000D02*
X176771000Y-60880000D01*
X176811000Y-57937000D02*
X176811000Y-58340000D01*
X176811000Y-60420000D02*
X176811000Y-60823000D01*
X176851000Y-57997000D02*
X176851000Y-58340000D01*
X176851000Y-60420000D02*
X176851000Y-60763000D01*
X176891000Y-58061000D02*
X176891000Y-58340000D01*
X176891000Y-60420000D02*
X176891000Y-60699000D01*
X176931000Y-58129000D02*
X176931000Y-58340000D01*
X176931000Y-60420000D02*
X176931000Y-60631000D01*
X176971000Y-58202000D02*
X176971000Y-60558000D01*
X177011000Y-58282000D02*
X177011000Y-60478000D01*
X177051000Y-58369000D02*
X177051000Y-60391000D01*
X177091000Y-58465000D02*
X177091000Y-60295000D01*
X177131000Y-58575000D02*
X177131000Y-60185000D01*
X177171000Y-58703000D02*
X177171000Y-60057000D01*
X177211000Y-58862000D02*
X177211000Y-59898000D01*
X177251000Y-59096000D02*
X177251000Y-59664000D01*
X171525185Y-57615440D02*
X172025185Y-57615440D01*
X171775185Y-57365440D02*
X171775185Y-57865440D01*
X118856000Y-140776000D02*
X120506000Y-140776000D01*
X120506000Y-140776000D02*
X120506000Y-120336000D01*
X120506000Y-120336000D02*
X115206000Y-120336000D01*
X115206000Y-120336000D02*
X115206000Y-140776000D01*
X115206000Y-140776000D02*
X116856000Y-140776000D01*
X122996000Y-140836000D02*
X122996000Y-120276000D01*
X122996000Y-120276000D02*
X112716000Y-120276000D01*
X112716000Y-120276000D02*
X112716000Y-140836000D01*
X112716000Y-140836000D02*
X122996000Y-140836000D01*
X116856000Y-140776000D02*
G75*
G02*
X118856000Y-140776000I1000000J0D01*
G01*
X173752000Y-122876000D02*
X172102000Y-122876000D01*
X172102000Y-122876000D02*
X172102000Y-140776000D01*
X172102000Y-140776000D02*
X177402000Y-140776000D01*
X177402000Y-140776000D02*
X177402000Y-122876000D01*
X177402000Y-122876000D02*
X175752000Y-122876000D01*
X169612000Y-122816000D02*
X169612000Y-140836000D01*
X169612000Y-140836000D02*
X179892000Y-140836000D01*
X179892000Y-140836000D02*
X179892000Y-122816000D01*
X179892000Y-122816000D02*
X169612000Y-122816000D01*
X175752000Y-122876000D02*
G75*
G02*
X173752000Y-122876000I-1000000J0D01*
G01*
D13*
X119418380Y-100242666D02*
X118942190Y-100576000D01*
X119418380Y-100814095D02*
X118418380Y-100814095D01*
X118418380Y-100433142D01*
X118466000Y-100337904D01*
X118513619Y-100290285D01*
X118608857Y-100242666D01*
X118751714Y-100242666D01*
X118846952Y-100290285D01*
X118894571Y-100337904D01*
X118942190Y-100433142D01*
X118942190Y-100814095D01*
X118513619Y-99861714D02*
X118466000Y-99814095D01*
X118418380Y-99718857D01*
X118418380Y-99480761D01*
X118466000Y-99385523D01*
X118513619Y-99337904D01*
X118608857Y-99290285D01*
X118704095Y-99290285D01*
X118846952Y-99337904D01*
X119418380Y-99909333D01*
X119418380Y-99290285D01*
X122278380Y-101242666D02*
X122278380Y-101814095D01*
X122278380Y-101528380D02*
X121278380Y-101528380D01*
X121421238Y-101623619D01*
X121516476Y-101718857D01*
X121564095Y-101814095D01*
X121278380Y-100623619D02*
X121278380Y-100528380D01*
X121326000Y-100433142D01*
X121373619Y-100385523D01*
X121468857Y-100337904D01*
X121659333Y-100290285D01*
X121897428Y-100290285D01*
X122087904Y-100337904D01*
X122183142Y-100385523D01*
X122230761Y-100433142D01*
X122278380Y-100528380D01*
X122278380Y-100623619D01*
X122230761Y-100718857D01*
X122183142Y-100766476D01*
X122087904Y-100814095D01*
X121897428Y-100861714D01*
X121659333Y-100861714D01*
X121468857Y-100814095D01*
X121373619Y-100766476D01*
X121326000Y-100718857D01*
X121278380Y-100623619D01*
X121278380Y-99671238D02*
X121278380Y-99576000D01*
X121326000Y-99480761D01*
X121373619Y-99433142D01*
X121468857Y-99385523D01*
X121659333Y-99337904D01*
X121897428Y-99337904D01*
X122087904Y-99385523D01*
X122183142Y-99433142D01*
X122230761Y-99480761D01*
X122278380Y-99576000D01*
X122278380Y-99671238D01*
X122230761Y-99766476D01*
X122183142Y-99814095D01*
X122087904Y-99861714D01*
X121897428Y-99909333D01*
X121659333Y-99909333D01*
X121468857Y-99861714D01*
X121373619Y-99814095D01*
X121326000Y-99766476D01*
X121278380Y-99671238D01*
X122278380Y-98909333D02*
X121278380Y-98909333D01*
X122278380Y-98337904D02*
X121706952Y-98766476D01*
X121278380Y-98337904D02*
X121849809Y-98909333D01*
X136254380Y-86336095D02*
X135254380Y-86336095D01*
X135254380Y-86098000D01*
X135302000Y-85955142D01*
X135397238Y-85859904D01*
X135492476Y-85812285D01*
X135682952Y-85764666D01*
X135825809Y-85764666D01*
X136016285Y-85812285D01*
X136111523Y-85859904D01*
X136206761Y-85955142D01*
X136254380Y-86098000D01*
X136254380Y-86336095D01*
X135254380Y-85431333D02*
X135254380Y-84812285D01*
X135635333Y-85145619D01*
X135635333Y-85002761D01*
X135682952Y-84907523D01*
X135730571Y-84859904D01*
X135825809Y-84812285D01*
X136063904Y-84812285D01*
X136159142Y-84859904D01*
X136206761Y-84907523D01*
X136254380Y-85002761D01*
X136254380Y-85288476D01*
X136206761Y-85383714D01*
X136159142Y-85431333D01*
X139494380Y-89312285D02*
X139494380Y-88645619D01*
X140494380Y-89312285D01*
X140494380Y-88645619D01*
X140446761Y-87883714D02*
X140494380Y-87978952D01*
X140494380Y-88169428D01*
X140446761Y-88264666D01*
X140351523Y-88312285D01*
X139970571Y-88312285D01*
X139875333Y-88264666D01*
X139827714Y-88169428D01*
X139827714Y-87978952D01*
X139875333Y-87883714D01*
X139970571Y-87836095D01*
X140065809Y-87836095D01*
X140161047Y-88312285D01*
X139827714Y-87407523D02*
X140494380Y-87407523D01*
X139922952Y-87407523D02*
X139875333Y-87359904D01*
X139827714Y-87264666D01*
X139827714Y-87121809D01*
X139875333Y-87026571D01*
X139970571Y-86978952D01*
X140494380Y-86978952D01*
X140446761Y-86121809D02*
X140494380Y-86217047D01*
X140494380Y-86407523D01*
X140446761Y-86502761D01*
X140351523Y-86550380D01*
X139970571Y-86550380D01*
X139875333Y-86502761D01*
X139827714Y-86407523D01*
X139827714Y-86217047D01*
X139875333Y-86121809D01*
X139970571Y-86074190D01*
X140065809Y-86074190D01*
X140161047Y-86550380D01*
X140494380Y-85645619D02*
X139827714Y-85645619D01*
X140018190Y-85645619D02*
X139922952Y-85598000D01*
X139875333Y-85550380D01*
X139827714Y-85455142D01*
X139827714Y-85359904D01*
X140494380Y-83740857D02*
X140494380Y-84312285D01*
X140494380Y-84026571D02*
X139494380Y-84026571D01*
X139637238Y-84121809D01*
X139732476Y-84217047D01*
X139780095Y-84312285D01*
X139494380Y-83121809D02*
X139494380Y-83026571D01*
X139542000Y-82931333D01*
X139589619Y-82883714D01*
X139684857Y-82836095D01*
X139875333Y-82788476D01*
X140113428Y-82788476D01*
X140303904Y-82836095D01*
X140399142Y-82883714D01*
X140446761Y-82931333D01*
X140494380Y-83026571D01*
X140494380Y-83121809D01*
X140446761Y-83217047D01*
X140399142Y-83264666D01*
X140303904Y-83312285D01*
X140113428Y-83359904D01*
X139875333Y-83359904D01*
X139684857Y-83312285D01*
X139589619Y-83264666D01*
X139542000Y-83217047D01*
X139494380Y-83121809D01*
X139494380Y-82502761D02*
X140494380Y-82169428D01*
X139494380Y-81836095D01*
X136574380Y-89669904D02*
X135574380Y-89669904D01*
X136574380Y-89098476D02*
X136002952Y-89527047D01*
X135574380Y-89098476D02*
X136145809Y-89669904D01*
X150986380Y-99798095D02*
X149986380Y-99798095D01*
X149986380Y-99560000D01*
X150034000Y-99417142D01*
X150129238Y-99321904D01*
X150224476Y-99274285D01*
X150414952Y-99226666D01*
X150557809Y-99226666D01*
X150748285Y-99274285D01*
X150843523Y-99321904D01*
X150938761Y-99417142D01*
X150986380Y-99560000D01*
X150986380Y-99798095D01*
X150081619Y-98845714D02*
X150034000Y-98798095D01*
X149986380Y-98702857D01*
X149986380Y-98464761D01*
X150034000Y-98369523D01*
X150081619Y-98321904D01*
X150176857Y-98274285D01*
X150272095Y-98274285D01*
X150414952Y-98321904D01*
X150986380Y-98893333D01*
X150986380Y-98274285D01*
X155226380Y-101202857D02*
X155226380Y-101774285D01*
X155226380Y-101488571D02*
X154226380Y-101488571D01*
X154369238Y-101583809D01*
X154464476Y-101679047D01*
X154512095Y-101774285D01*
X155226380Y-100774285D02*
X154226380Y-100774285D01*
X155226380Y-100202857D01*
X154226380Y-100202857D01*
X154559714Y-99298095D02*
X155226380Y-99298095D01*
X154178761Y-99536190D02*
X154893047Y-99774285D01*
X154893047Y-99155238D01*
X155226380Y-98250476D02*
X155226380Y-98821904D01*
X155226380Y-98536190D02*
X154226380Y-98536190D01*
X154369238Y-98631428D01*
X154464476Y-98726666D01*
X154512095Y-98821904D01*
X154559714Y-97393333D02*
X155226380Y-97393333D01*
X154178761Y-97631428D02*
X154893047Y-97869523D01*
X154893047Y-97250476D01*
X154654952Y-96726666D02*
X154607333Y-96821904D01*
X154559714Y-96869523D01*
X154464476Y-96917142D01*
X154416857Y-96917142D01*
X154321619Y-96869523D01*
X154274000Y-96821904D01*
X154226380Y-96726666D01*
X154226380Y-96536190D01*
X154274000Y-96440952D01*
X154321619Y-96393333D01*
X154416857Y-96345714D01*
X154464476Y-96345714D01*
X154559714Y-96393333D01*
X154607333Y-96440952D01*
X154654952Y-96536190D01*
X154654952Y-96726666D01*
X154702571Y-96821904D01*
X154750190Y-96869523D01*
X154845428Y-96917142D01*
X155035904Y-96917142D01*
X155131142Y-96869523D01*
X155178761Y-96821904D01*
X155226380Y-96726666D01*
X155226380Y-96536190D01*
X155178761Y-96440952D01*
X155131142Y-96393333D01*
X155035904Y-96345714D01*
X154845428Y-96345714D01*
X154750190Y-96393333D01*
X154702571Y-96440952D01*
X154654952Y-96536190D01*
X151306380Y-103131904D02*
X150306380Y-103131904D01*
X151306380Y-102560476D02*
X150734952Y-102989047D01*
X150306380Y-102560476D02*
X150877809Y-103131904D01*
X150986380Y-87860095D02*
X149986380Y-87860095D01*
X149986380Y-87622000D01*
X150034000Y-87479142D01*
X150129238Y-87383904D01*
X150224476Y-87336285D01*
X150414952Y-87288666D01*
X150557809Y-87288666D01*
X150748285Y-87336285D01*
X150843523Y-87383904D01*
X150938761Y-87479142D01*
X150986380Y-87622000D01*
X150986380Y-87860095D01*
X150986380Y-86336285D02*
X150986380Y-86907714D01*
X150986380Y-86622000D02*
X149986380Y-86622000D01*
X150129238Y-86717238D01*
X150224476Y-86812476D01*
X150272095Y-86907714D01*
X155226380Y-89264857D02*
X155226380Y-89836285D01*
X155226380Y-89550571D02*
X154226380Y-89550571D01*
X154369238Y-89645809D01*
X154464476Y-89741047D01*
X154512095Y-89836285D01*
X155226380Y-88836285D02*
X154226380Y-88836285D01*
X155226380Y-88264857D01*
X154226380Y-88264857D01*
X154559714Y-87360095D02*
X155226380Y-87360095D01*
X154178761Y-87598190D02*
X154893047Y-87836285D01*
X154893047Y-87217238D01*
X155226380Y-86312476D02*
X155226380Y-86883904D01*
X155226380Y-86598190D02*
X154226380Y-86598190D01*
X154369238Y-86693428D01*
X154464476Y-86788666D01*
X154512095Y-86883904D01*
X154559714Y-85455333D02*
X155226380Y-85455333D01*
X154178761Y-85693428D02*
X154893047Y-85931523D01*
X154893047Y-85312476D01*
X154654952Y-84788666D02*
X154607333Y-84883904D01*
X154559714Y-84931523D01*
X154464476Y-84979142D01*
X154416857Y-84979142D01*
X154321619Y-84931523D01*
X154274000Y-84883904D01*
X154226380Y-84788666D01*
X154226380Y-84598190D01*
X154274000Y-84502952D01*
X154321619Y-84455333D01*
X154416857Y-84407714D01*
X154464476Y-84407714D01*
X154559714Y-84455333D01*
X154607333Y-84502952D01*
X154654952Y-84598190D01*
X154654952Y-84788666D01*
X154702571Y-84883904D01*
X154750190Y-84931523D01*
X154845428Y-84979142D01*
X155035904Y-84979142D01*
X155131142Y-84931523D01*
X155178761Y-84883904D01*
X155226380Y-84788666D01*
X155226380Y-84598190D01*
X155178761Y-84502952D01*
X155131142Y-84455333D01*
X155035904Y-84407714D01*
X154845428Y-84407714D01*
X154750190Y-84455333D01*
X154702571Y-84502952D01*
X154654952Y-84598190D01*
X151306380Y-91193904D02*
X150306380Y-91193904D01*
X151306380Y-90622476D02*
X150734952Y-91051047D01*
X150306380Y-90622476D02*
X150877809Y-91193904D01*
D14*
X172712592Y-79383614D02*
X172044984Y-79850939D01*
X172712592Y-80184743D02*
X171310616Y-80184743D01*
X171310616Y-79650657D01*
X171377377Y-79517136D01*
X171444137Y-79450375D01*
X171577659Y-79383614D01*
X171777941Y-79383614D01*
X171911463Y-79450375D01*
X171978223Y-79517136D01*
X172044984Y-79650657D01*
X172044984Y-80184743D01*
X171310616Y-78983049D02*
X172712592Y-78515724D01*
X171310616Y-78048399D01*
X171310616Y-77714595D02*
X171310616Y-76779944D01*
X172712592Y-77380791D01*
X180358980Y-80027706D02*
X180358980Y-80828120D01*
X180358980Y-80427913D02*
X178958256Y-80427913D01*
X179158360Y-80561315D01*
X179291762Y-80694718D01*
X179358463Y-80828120D01*
X178958256Y-79160591D02*
X178958256Y-79027189D01*
X179024958Y-78893787D01*
X179091659Y-78827086D01*
X179225061Y-78760384D01*
X179491866Y-78693683D01*
X179825371Y-78693683D01*
X180092176Y-78760384D01*
X180225578Y-78827086D01*
X180292279Y-78893787D01*
X180358980Y-79027189D01*
X180358980Y-79160591D01*
X180292279Y-79293994D01*
X180225578Y-79360695D01*
X180092176Y-79427396D01*
X179825371Y-79494097D01*
X179491866Y-79494097D01*
X179225061Y-79427396D01*
X179091659Y-79360695D01*
X179024958Y-79293994D01*
X178958256Y-79160591D01*
X180358980Y-78093373D02*
X178958256Y-78093373D01*
X180358980Y-77292959D02*
X179558567Y-77893270D01*
X178958256Y-77292959D02*
X179758670Y-78093373D01*
X172712592Y-88683614D02*
X172044984Y-89150939D01*
X172712592Y-89484743D02*
X171310616Y-89484743D01*
X171310616Y-88950657D01*
X171377377Y-88817136D01*
X171444137Y-88750375D01*
X171577659Y-88683614D01*
X171777941Y-88683614D01*
X171911463Y-88750375D01*
X171978223Y-88817136D01*
X172044984Y-88950657D01*
X172044984Y-89484743D01*
X171310616Y-88283049D02*
X172712592Y-87815724D01*
X171310616Y-87348399D01*
X171310616Y-86280227D02*
X171310616Y-86547270D01*
X171377377Y-86680791D01*
X171444137Y-86747552D01*
X171644420Y-86881073D01*
X171911463Y-86947834D01*
X172445549Y-86947834D01*
X172579070Y-86881073D01*
X172645831Y-86814313D01*
X172712592Y-86680791D01*
X172712592Y-86413748D01*
X172645831Y-86280227D01*
X172579070Y-86213466D01*
X172445549Y-86146705D01*
X172111745Y-86146705D01*
X171978223Y-86213466D01*
X171911463Y-86280227D01*
X171844702Y-86413748D01*
X171844702Y-86680791D01*
X171911463Y-86814313D01*
X171978223Y-86881073D01*
X172111745Y-86947834D01*
X180358980Y-89327706D02*
X180358980Y-90128120D01*
X180358980Y-89727913D02*
X178958256Y-89727913D01*
X179158360Y-89861315D01*
X179291762Y-89994718D01*
X179358463Y-90128120D01*
X178958256Y-88460591D02*
X178958256Y-88327189D01*
X179024958Y-88193787D01*
X179091659Y-88127086D01*
X179225061Y-88060384D01*
X179491866Y-87993683D01*
X179825371Y-87993683D01*
X180092176Y-88060384D01*
X180225578Y-88127086D01*
X180292279Y-88193787D01*
X180358980Y-88327189D01*
X180358980Y-88460591D01*
X180292279Y-88593994D01*
X180225578Y-88660695D01*
X180092176Y-88727396D01*
X179825371Y-88794097D01*
X179491866Y-88794097D01*
X179225061Y-88727396D01*
X179091659Y-88660695D01*
X179024958Y-88593994D01*
X178958256Y-88460591D01*
X180358980Y-87393373D02*
X178958256Y-87393373D01*
X180358980Y-86592959D02*
X179558567Y-87193270D01*
X178958256Y-86592959D02*
X179758670Y-87393373D01*
X172712592Y-97978614D02*
X172044984Y-98445939D01*
X172712592Y-98779743D02*
X171310616Y-98779743D01*
X171310616Y-98245657D01*
X171377377Y-98112136D01*
X171444137Y-98045375D01*
X171577659Y-97978614D01*
X171777941Y-97978614D01*
X171911463Y-98045375D01*
X171978223Y-98112136D01*
X172044984Y-98245657D01*
X172044984Y-98779743D01*
X171310616Y-97578049D02*
X172712592Y-97110724D01*
X171310616Y-96643399D01*
X171777941Y-95575227D02*
X172712592Y-95575227D01*
X171243855Y-95909030D02*
X172245266Y-96242834D01*
X172245266Y-95374944D01*
X180358980Y-99289718D02*
X180358980Y-100090131D01*
X180358980Y-99689924D02*
X178958256Y-99689924D01*
X179158360Y-99823327D01*
X179291762Y-99956729D01*
X179358463Y-100090131D01*
X178958256Y-98422603D02*
X178958256Y-98289200D01*
X179024958Y-98155798D01*
X179091659Y-98089097D01*
X179225061Y-98022396D01*
X179491866Y-97955695D01*
X179825371Y-97955695D01*
X180092176Y-98022396D01*
X180225578Y-98089097D01*
X180292279Y-98155798D01*
X180358980Y-98289200D01*
X180358980Y-98422603D01*
X180292279Y-98556005D01*
X180225578Y-98622706D01*
X180092176Y-98689407D01*
X179825371Y-98756108D01*
X179491866Y-98756108D01*
X179225061Y-98689407D01*
X179091659Y-98622706D01*
X179024958Y-98556005D01*
X178958256Y-98422603D01*
X178958256Y-97088580D02*
X178958256Y-96955178D01*
X179024958Y-96821775D01*
X179091659Y-96755074D01*
X179225061Y-96688373D01*
X179491866Y-96621672D01*
X179825371Y-96621672D01*
X180092176Y-96688373D01*
X180225578Y-96755074D01*
X180292279Y-96821775D01*
X180358980Y-96955178D01*
X180358980Y-97088580D01*
X180292279Y-97221982D01*
X180225578Y-97288683D01*
X180092176Y-97355384D01*
X179825371Y-97422086D01*
X179491866Y-97422086D01*
X179225061Y-97355384D01*
X179091659Y-97288683D01*
X179024958Y-97221982D01*
X178958256Y-97088580D01*
X180358980Y-96021362D02*
X178958256Y-96021362D01*
X180358980Y-95220948D02*
X179558567Y-95821258D01*
X178958256Y-95220948D02*
X179758670Y-96021362D01*
D13*
X176192380Y-115404761D02*
X176192380Y-115880952D01*
X176668571Y-115928571D01*
X176620952Y-115880952D01*
X176573333Y-115785714D01*
X176573333Y-115547619D01*
X176620952Y-115452380D01*
X176668571Y-115404761D01*
X176763809Y-115357142D01*
X177001904Y-115357142D01*
X177097142Y-115404761D01*
X177144761Y-115452380D01*
X177192380Y-115547619D01*
X177192380Y-115785714D01*
X177144761Y-115880952D01*
X177097142Y-115928571D01*
X176192380Y-114738095D02*
X176192380Y-114642857D01*
X176240000Y-114547619D01*
X176287619Y-114500000D01*
X176382857Y-114452380D01*
X176573333Y-114404761D01*
X176811428Y-114404761D01*
X177001904Y-114452380D01*
X177097142Y-114500000D01*
X177144761Y-114547619D01*
X177192380Y-114642857D01*
X177192380Y-114738095D01*
X177144761Y-114833333D01*
X177097142Y-114880952D01*
X177001904Y-114928571D01*
X176811428Y-114976190D01*
X176573333Y-114976190D01*
X176382857Y-114928571D01*
X176287619Y-114880952D01*
X176240000Y-114833333D01*
X176192380Y-114738095D01*
X176192380Y-113785714D02*
X176192380Y-113690476D01*
X176240000Y-113595238D01*
X176287619Y-113547619D01*
X176382857Y-113500000D01*
X176573333Y-113452380D01*
X176811428Y-113452380D01*
X177001904Y-113500000D01*
X177097142Y-113547619D01*
X177144761Y-113595238D01*
X177192380Y-113690476D01*
X177192380Y-113785714D01*
X177144761Y-113880952D01*
X177097142Y-113928571D01*
X177001904Y-113976190D01*
X176811428Y-114023809D01*
X176573333Y-114023809D01*
X176382857Y-113976190D01*
X176287619Y-113928571D01*
X176240000Y-113880952D01*
X176192380Y-113785714D01*
X176525714Y-113023809D02*
X177525714Y-113023809D01*
X176573333Y-113023809D02*
X176525714Y-112928571D01*
X176525714Y-112738095D01*
X176573333Y-112642857D01*
X176620952Y-112595238D01*
X176716190Y-112547619D01*
X177001904Y-112547619D01*
X177097142Y-112595238D01*
X177144761Y-112642857D01*
X177192380Y-112738095D01*
X177192380Y-112928571D01*
X177144761Y-113023809D01*
X176668571Y-111785714D02*
X176668571Y-112119047D01*
X177192380Y-112119047D02*
X176192380Y-112119047D01*
X176192380Y-111642857D01*
X177573333Y-110214285D02*
X177525714Y-110261904D01*
X177382857Y-110357142D01*
X177287619Y-110404761D01*
X177144761Y-110452380D01*
X176906666Y-110500000D01*
X176716190Y-110500000D01*
X176478095Y-110452380D01*
X176335238Y-110404761D01*
X176240000Y-110357142D01*
X176097142Y-110261904D01*
X176049523Y-110214285D01*
X177144761Y-109880952D02*
X177192380Y-109738095D01*
X177192380Y-109500000D01*
X177144761Y-109404761D01*
X177097142Y-109357142D01*
X177001904Y-109309523D01*
X176906666Y-109309523D01*
X176811428Y-109357142D01*
X176763809Y-109404761D01*
X176716190Y-109500000D01*
X176668571Y-109690476D01*
X176620952Y-109785714D01*
X176573333Y-109833333D01*
X176478095Y-109880952D01*
X176382857Y-109880952D01*
X176287619Y-109833333D01*
X176240000Y-109785714D01*
X176192380Y-109690476D01*
X176192380Y-109452380D01*
X176240000Y-109309523D01*
X176525714Y-109023809D02*
X176525714Y-108642857D01*
X176192380Y-108880952D02*
X177049523Y-108880952D01*
X177144761Y-108833333D01*
X177192380Y-108738095D01*
X177192380Y-108642857D01*
X176525714Y-108404761D02*
X177192380Y-108166666D01*
X176525714Y-107928571D02*
X177192380Y-108166666D01*
X177430476Y-108261904D01*
X177478095Y-108309523D01*
X177525714Y-108404761D01*
X177192380Y-107547619D02*
X176525714Y-107547619D01*
X176716190Y-107547619D02*
X176620952Y-107500000D01*
X176573333Y-107452380D01*
X176525714Y-107357142D01*
X176525714Y-107261904D01*
X177144761Y-106547619D02*
X177192380Y-106642857D01*
X177192380Y-106833333D01*
X177144761Y-106928571D01*
X177049523Y-106976190D01*
X176668571Y-106976190D01*
X176573333Y-106928571D01*
X176525714Y-106833333D01*
X176525714Y-106642857D01*
X176573333Y-106547619D01*
X176668571Y-106500000D01*
X176763809Y-106500000D01*
X176859047Y-106976190D01*
X176525714Y-106071428D02*
X177192380Y-106071428D01*
X176620952Y-106071428D02*
X176573333Y-106023809D01*
X176525714Y-105928571D01*
X176525714Y-105785714D01*
X176573333Y-105690476D01*
X176668571Y-105642857D01*
X177192380Y-105642857D01*
X177144761Y-104785714D02*
X177192380Y-104880952D01*
X177192380Y-105071428D01*
X177144761Y-105166666D01*
X177049523Y-105214285D01*
X176668571Y-105214285D01*
X176573333Y-105166666D01*
X176525714Y-105071428D01*
X176525714Y-104880952D01*
X176573333Y-104785714D01*
X176668571Y-104738095D01*
X176763809Y-104738095D01*
X176859047Y-105214285D01*
X177573333Y-104404761D02*
X177525714Y-104357142D01*
X177382857Y-104261904D01*
X177287619Y-104214285D01*
X177144761Y-104166666D01*
X176906666Y-104119047D01*
X176716190Y-104119047D01*
X176478095Y-104166666D01*
X176335238Y-104214285D01*
X176240000Y-104261904D01*
X176097142Y-104357142D01*
X176049523Y-104404761D01*
X172017142Y-110166666D02*
X172064761Y-110214285D01*
X172112380Y-110357142D01*
X172112380Y-110452380D01*
X172064761Y-110595238D01*
X171969523Y-110690476D01*
X171874285Y-110738095D01*
X171683809Y-110785714D01*
X171540952Y-110785714D01*
X171350476Y-110738095D01*
X171255238Y-110690476D01*
X171160000Y-110595238D01*
X171112380Y-110452380D01*
X171112380Y-110357142D01*
X171160000Y-110214285D01*
X171207619Y-110166666D01*
X171112380Y-109309523D02*
X171112380Y-109500000D01*
X171160000Y-109595238D01*
X171207619Y-109642857D01*
X171350476Y-109738095D01*
X171540952Y-109785714D01*
X171921904Y-109785714D01*
X172017142Y-109738095D01*
X172064761Y-109690476D01*
X172112380Y-109595238D01*
X172112380Y-109404761D01*
X172064761Y-109309523D01*
X172017142Y-109261904D01*
X171921904Y-109214285D01*
X171683809Y-109214285D01*
X171588571Y-109261904D01*
X171540952Y-109309523D01*
X171493333Y-109404761D01*
X171493333Y-109595238D01*
X171540952Y-109690476D01*
X171588571Y-109738095D01*
X171683809Y-109785714D01*
X148963142Y-48457142D02*
X148915523Y-48504761D01*
X148772666Y-48552380D01*
X148677428Y-48552380D01*
X148534571Y-48504761D01*
X148439333Y-48409523D01*
X148391714Y-48314285D01*
X148344095Y-48123809D01*
X148344095Y-47980952D01*
X148391714Y-47790476D01*
X148439333Y-47695238D01*
X148534571Y-47600000D01*
X148677428Y-47552380D01*
X148772666Y-47552380D01*
X148915523Y-47600000D01*
X148963142Y-47647619D01*
X149915523Y-48552380D02*
X149344095Y-48552380D01*
X149629809Y-48552380D02*
X149629809Y-47552380D01*
X149534571Y-47695238D01*
X149439333Y-47790476D01*
X149344095Y-47838095D01*
X150867904Y-48552380D02*
X150296476Y-48552380D01*
X150582190Y-48552380D02*
X150582190Y-47552380D01*
X150486952Y-47695238D01*
X150391714Y-47790476D01*
X150296476Y-47838095D01*
X148058380Y-51412380D02*
X147486952Y-51412380D01*
X147772666Y-51412380D02*
X147772666Y-50412380D01*
X147677428Y-50555238D01*
X147582190Y-50650476D01*
X147486952Y-50698095D01*
X148677428Y-50412380D02*
X148772666Y-50412380D01*
X148867904Y-50460000D01*
X148915523Y-50507619D01*
X148963142Y-50602857D01*
X149010761Y-50793333D01*
X149010761Y-51031428D01*
X148963142Y-51221904D01*
X148915523Y-51317142D01*
X148867904Y-51364761D01*
X148772666Y-51412380D01*
X148677428Y-51412380D01*
X148582190Y-51364761D01*
X148534571Y-51317142D01*
X148486952Y-51221904D01*
X148439333Y-51031428D01*
X148439333Y-50793333D01*
X148486952Y-50602857D01*
X148534571Y-50507619D01*
X148582190Y-50460000D01*
X148677428Y-50412380D01*
X149629809Y-50412380D02*
X149725047Y-50412380D01*
X149820285Y-50460000D01*
X149867904Y-50507619D01*
X149915523Y-50602857D01*
X149963142Y-50793333D01*
X149963142Y-51031428D01*
X149915523Y-51221904D01*
X149867904Y-51317142D01*
X149820285Y-51364761D01*
X149725047Y-51412380D01*
X149629809Y-51412380D01*
X149534571Y-51364761D01*
X149486952Y-51317142D01*
X149439333Y-51221904D01*
X149391714Y-51031428D01*
X149391714Y-50793333D01*
X149439333Y-50602857D01*
X149486952Y-50507619D01*
X149534571Y-50460000D01*
X149629809Y-50412380D01*
X150391714Y-50745714D02*
X150391714Y-51412380D01*
X150391714Y-50840952D02*
X150439333Y-50793333D01*
X150534571Y-50745714D01*
X150677428Y-50745714D01*
X150772666Y-50793333D01*
X150820285Y-50888571D01*
X150820285Y-51412380D01*
X151629809Y-50888571D02*
X151296476Y-50888571D01*
X151296476Y-51412380D02*
X151296476Y-50412380D01*
X151772666Y-50412380D01*
X140575333Y-48203142D02*
X140527714Y-48250761D01*
X140384857Y-48298380D01*
X140289619Y-48298380D01*
X140146761Y-48250761D01*
X140051523Y-48155523D01*
X140003904Y-48060285D01*
X139956285Y-47869809D01*
X139956285Y-47726952D01*
X140003904Y-47536476D01*
X140051523Y-47441238D01*
X140146761Y-47346000D01*
X140289619Y-47298380D01*
X140384857Y-47298380D01*
X140527714Y-47346000D01*
X140575333Y-47393619D01*
X141051523Y-48298380D02*
X141242000Y-48298380D01*
X141337238Y-48250761D01*
X141384857Y-48203142D01*
X141480095Y-48060285D01*
X141527714Y-47869809D01*
X141527714Y-47488857D01*
X141480095Y-47393619D01*
X141432476Y-47346000D01*
X141337238Y-47298380D01*
X141146761Y-47298380D01*
X141051523Y-47346000D01*
X141003904Y-47393619D01*
X140956285Y-47488857D01*
X140956285Y-47726952D01*
X141003904Y-47822190D01*
X141051523Y-47869809D01*
X141146761Y-47917428D01*
X141337238Y-47917428D01*
X141432476Y-47869809D01*
X141480095Y-47822190D01*
X141527714Y-47726952D01*
X139194380Y-51158380D02*
X138622952Y-51158380D01*
X138908666Y-51158380D02*
X138908666Y-50158380D01*
X138813428Y-50301238D01*
X138718190Y-50396476D01*
X138622952Y-50444095D01*
X139813428Y-50158380D02*
X139908666Y-50158380D01*
X140003904Y-50206000D01*
X140051523Y-50253619D01*
X140099142Y-50348857D01*
X140146761Y-50539333D01*
X140146761Y-50777428D01*
X140099142Y-50967904D01*
X140051523Y-51063142D01*
X140003904Y-51110761D01*
X139908666Y-51158380D01*
X139813428Y-51158380D01*
X139718190Y-51110761D01*
X139670571Y-51063142D01*
X139622952Y-50967904D01*
X139575333Y-50777428D01*
X139575333Y-50539333D01*
X139622952Y-50348857D01*
X139670571Y-50253619D01*
X139718190Y-50206000D01*
X139813428Y-50158380D01*
X140765809Y-50158380D02*
X140861047Y-50158380D01*
X140956285Y-50206000D01*
X141003904Y-50253619D01*
X141051523Y-50348857D01*
X141099142Y-50539333D01*
X141099142Y-50777428D01*
X141051523Y-50967904D01*
X141003904Y-51063142D01*
X140956285Y-51110761D01*
X140861047Y-51158380D01*
X140765809Y-51158380D01*
X140670571Y-51110761D01*
X140622952Y-51063142D01*
X140575333Y-50967904D01*
X140527714Y-50777428D01*
X140527714Y-50539333D01*
X140575333Y-50348857D01*
X140622952Y-50253619D01*
X140670571Y-50206000D01*
X140765809Y-50158380D01*
X141527714Y-50491714D02*
X141527714Y-51158380D01*
X141527714Y-50586952D02*
X141575333Y-50539333D01*
X141670571Y-50491714D01*
X141813428Y-50491714D01*
X141908666Y-50539333D01*
X141956285Y-50634571D01*
X141956285Y-51158380D01*
X142765809Y-50634571D02*
X142432476Y-50634571D01*
X142432476Y-51158380D02*
X142432476Y-50158380D01*
X142908666Y-50158380D01*
X129627333Y-121863142D02*
X129579714Y-121910761D01*
X129436857Y-121958380D01*
X129341619Y-121958380D01*
X129198761Y-121910761D01*
X129103523Y-121815523D01*
X129055904Y-121720285D01*
X129008285Y-121529809D01*
X129008285Y-121386952D01*
X129055904Y-121196476D01*
X129103523Y-121101238D01*
X129198761Y-121006000D01*
X129341619Y-120958380D01*
X129436857Y-120958380D01*
X129579714Y-121006000D01*
X129627333Y-121053619D01*
X129960666Y-120958380D02*
X130627333Y-120958380D01*
X130198761Y-121958380D01*
X129198761Y-124818380D02*
X128627333Y-124818380D01*
X128913047Y-124818380D02*
X128913047Y-123818380D01*
X128817809Y-123961238D01*
X128722571Y-124056476D01*
X128627333Y-124104095D01*
X129627333Y-124151714D02*
X129627333Y-124818380D01*
X129627333Y-124246952D02*
X129674952Y-124199333D01*
X129770190Y-124151714D01*
X129913047Y-124151714D01*
X130008285Y-124199333D01*
X130055904Y-124294571D01*
X130055904Y-124818380D01*
X130865428Y-124294571D02*
X130532095Y-124294571D01*
X130532095Y-124818380D02*
X130532095Y-123818380D01*
X131008285Y-123818380D01*
X139486333Y-36821142D02*
X139438714Y-36868761D01*
X139295857Y-36916380D01*
X139200619Y-36916380D01*
X139057761Y-36868761D01*
X138962523Y-36773523D01*
X138914904Y-36678285D01*
X138867285Y-36487809D01*
X138867285Y-36344952D01*
X138914904Y-36154476D01*
X138962523Y-36059238D01*
X139057761Y-35964000D01*
X139200619Y-35916380D01*
X139295857Y-35916380D01*
X139438714Y-35964000D01*
X139486333Y-36011619D01*
X140391095Y-35916380D02*
X139914904Y-35916380D01*
X139867285Y-36392571D01*
X139914904Y-36344952D01*
X140010142Y-36297333D01*
X140248238Y-36297333D01*
X140343476Y-36344952D01*
X140391095Y-36392571D01*
X140438714Y-36487809D01*
X140438714Y-36725904D01*
X140391095Y-36821142D01*
X140343476Y-36868761D01*
X140248238Y-36916380D01*
X140010142Y-36916380D01*
X139914904Y-36868761D01*
X139867285Y-36821142D01*
X138581571Y-39776380D02*
X138010142Y-39776380D01*
X138295857Y-39776380D02*
X138295857Y-38776380D01*
X138200619Y-38919238D01*
X138105380Y-39014476D01*
X138010142Y-39062095D01*
X139200619Y-38776380D02*
X139295857Y-38776380D01*
X139391095Y-38824000D01*
X139438714Y-38871619D01*
X139486333Y-38966857D01*
X139533952Y-39157333D01*
X139533952Y-39395428D01*
X139486333Y-39585904D01*
X139438714Y-39681142D01*
X139391095Y-39728761D01*
X139295857Y-39776380D01*
X139200619Y-39776380D01*
X139105380Y-39728761D01*
X139057761Y-39681142D01*
X139010142Y-39585904D01*
X138962523Y-39395428D01*
X138962523Y-39157333D01*
X139010142Y-38966857D01*
X139057761Y-38871619D01*
X139105380Y-38824000D01*
X139200619Y-38776380D01*
X139962523Y-39109714D02*
X139962523Y-39776380D01*
X139962523Y-39204952D02*
X140010142Y-39157333D01*
X140105380Y-39109714D01*
X140248238Y-39109714D01*
X140343476Y-39157333D01*
X140391095Y-39252571D01*
X140391095Y-39776380D01*
X141200619Y-39252571D02*
X140867285Y-39252571D01*
X140867285Y-39776380D02*
X140867285Y-38776380D01*
X141343476Y-38776380D01*
X151474333Y-42060142D02*
X151426714Y-42107761D01*
X151283857Y-42155380D01*
X151188619Y-42155380D01*
X151045761Y-42107761D01*
X150950523Y-42012523D01*
X150902904Y-41917285D01*
X150855285Y-41726809D01*
X150855285Y-41583952D01*
X150902904Y-41393476D01*
X150950523Y-41298238D01*
X151045761Y-41203000D01*
X151188619Y-41155380D01*
X151283857Y-41155380D01*
X151426714Y-41203000D01*
X151474333Y-41250619D01*
X152331476Y-41488714D02*
X152331476Y-42155380D01*
X152093380Y-41107761D02*
X151855285Y-41822047D01*
X152474333Y-41822047D01*
X150093380Y-45015380D02*
X149521952Y-45015380D01*
X149807666Y-45015380D02*
X149807666Y-44015380D01*
X149712428Y-44158238D01*
X149617190Y-44253476D01*
X149521952Y-44301095D01*
X150712428Y-44015380D02*
X150807666Y-44015380D01*
X150902904Y-44063000D01*
X150950523Y-44110619D01*
X150998142Y-44205857D01*
X151045761Y-44396333D01*
X151045761Y-44634428D01*
X150998142Y-44824904D01*
X150950523Y-44920142D01*
X150902904Y-44967761D01*
X150807666Y-45015380D01*
X150712428Y-45015380D01*
X150617190Y-44967761D01*
X150569571Y-44920142D01*
X150521952Y-44824904D01*
X150474333Y-44634428D01*
X150474333Y-44396333D01*
X150521952Y-44205857D01*
X150569571Y-44110619D01*
X150617190Y-44063000D01*
X150712428Y-44015380D01*
X151664809Y-44015380D02*
X151760047Y-44015380D01*
X151855285Y-44063000D01*
X151902904Y-44110619D01*
X151950523Y-44205857D01*
X151998142Y-44396333D01*
X151998142Y-44634428D01*
X151950523Y-44824904D01*
X151902904Y-44920142D01*
X151855285Y-44967761D01*
X151760047Y-45015380D01*
X151664809Y-45015380D01*
X151569571Y-44967761D01*
X151521952Y-44920142D01*
X151474333Y-44824904D01*
X151426714Y-44634428D01*
X151426714Y-44396333D01*
X151474333Y-44205857D01*
X151521952Y-44110619D01*
X151569571Y-44063000D01*
X151664809Y-44015380D01*
X152426714Y-44348714D02*
X152426714Y-45015380D01*
X152426714Y-44443952D02*
X152474333Y-44396333D01*
X152569571Y-44348714D01*
X152712428Y-44348714D01*
X152807666Y-44396333D01*
X152855285Y-44491571D01*
X152855285Y-45015380D01*
X153664809Y-44491571D02*
X153331476Y-44491571D01*
X153331476Y-45015380D02*
X153331476Y-44015380D01*
X153807666Y-44015380D01*
X160869333Y-121355142D02*
X160821714Y-121402761D01*
X160678857Y-121450380D01*
X160583619Y-121450380D01*
X160440761Y-121402761D01*
X160345523Y-121307523D01*
X160297904Y-121212285D01*
X160250285Y-121021809D01*
X160250285Y-120878952D01*
X160297904Y-120688476D01*
X160345523Y-120593238D01*
X160440761Y-120498000D01*
X160583619Y-120450380D01*
X160678857Y-120450380D01*
X160821714Y-120498000D01*
X160869333Y-120545619D01*
X161202666Y-120450380D02*
X161821714Y-120450380D01*
X161488380Y-120831333D01*
X161631238Y-120831333D01*
X161726476Y-120878952D01*
X161774095Y-120926571D01*
X161821714Y-121021809D01*
X161821714Y-121259904D01*
X161774095Y-121355142D01*
X161726476Y-121402761D01*
X161631238Y-121450380D01*
X161345523Y-121450380D01*
X161250285Y-121402761D01*
X161202666Y-121355142D01*
X160440761Y-124310380D02*
X159869333Y-124310380D01*
X160155047Y-124310380D02*
X160155047Y-123310380D01*
X160059809Y-123453238D01*
X159964571Y-123548476D01*
X159869333Y-123596095D01*
X160869333Y-123643714D02*
X160869333Y-124310380D01*
X160869333Y-123738952D02*
X160916952Y-123691333D01*
X161012190Y-123643714D01*
X161155047Y-123643714D01*
X161250285Y-123691333D01*
X161297904Y-123786571D01*
X161297904Y-124310380D01*
X162107428Y-123786571D02*
X161774095Y-123786571D01*
X161774095Y-124310380D02*
X161774095Y-123310380D01*
X162250285Y-123310380D01*
X152089142Y-78144666D02*
X152136761Y-78192285D01*
X152184380Y-78335142D01*
X152184380Y-78430380D01*
X152136761Y-78573238D01*
X152041523Y-78668476D01*
X151946285Y-78716095D01*
X151755809Y-78763714D01*
X151612952Y-78763714D01*
X151422476Y-78716095D01*
X151327238Y-78668476D01*
X151232000Y-78573238D01*
X151184380Y-78430380D01*
X151184380Y-78335142D01*
X151232000Y-78192285D01*
X151279619Y-78144666D01*
X151279619Y-77763714D02*
X151232000Y-77716095D01*
X151184380Y-77620857D01*
X151184380Y-77382761D01*
X151232000Y-77287523D01*
X151279619Y-77239904D01*
X151374857Y-77192285D01*
X151470095Y-77192285D01*
X151612952Y-77239904D01*
X152184380Y-77811333D01*
X152184380Y-77192285D01*
X155044380Y-78573238D02*
X155044380Y-79144666D01*
X155044380Y-78858952D02*
X154044380Y-78858952D01*
X154187238Y-78954190D01*
X154282476Y-79049428D01*
X154330095Y-79144666D01*
X154377714Y-78144666D02*
X155044380Y-78144666D01*
X154472952Y-78144666D02*
X154425333Y-78097047D01*
X154377714Y-78001809D01*
X154377714Y-77858952D01*
X154425333Y-77763714D01*
X154520571Y-77716095D01*
X155044380Y-77716095D01*
X154520571Y-76906571D02*
X154520571Y-77239904D01*
X155044380Y-77239904D02*
X154044380Y-77239904D01*
X154044380Y-76763714D01*
X122261333Y-57159142D02*
X122213714Y-57206761D01*
X122070857Y-57254380D01*
X121975619Y-57254380D01*
X121832761Y-57206761D01*
X121737523Y-57111523D01*
X121689904Y-57016285D01*
X121642285Y-56825809D01*
X121642285Y-56682952D01*
X121689904Y-56492476D01*
X121737523Y-56397238D01*
X121832761Y-56302000D01*
X121975619Y-56254380D01*
X122070857Y-56254380D01*
X122213714Y-56302000D01*
X122261333Y-56349619D01*
X123213714Y-57254380D02*
X122642285Y-57254380D01*
X122928000Y-57254380D02*
X122928000Y-56254380D01*
X122832761Y-56397238D01*
X122737523Y-56492476D01*
X122642285Y-56540095D01*
X121356571Y-54394380D02*
X120785142Y-54394380D01*
X121070857Y-54394380D02*
X121070857Y-53394380D01*
X120975619Y-53537238D01*
X120880380Y-53632476D01*
X120785142Y-53680095D01*
X121975619Y-53394380D02*
X122070857Y-53394380D01*
X122166095Y-53442000D01*
X122213714Y-53489619D01*
X122261333Y-53584857D01*
X122308952Y-53775333D01*
X122308952Y-54013428D01*
X122261333Y-54203904D01*
X122213714Y-54299142D01*
X122166095Y-54346761D01*
X122070857Y-54394380D01*
X121975619Y-54394380D01*
X121880380Y-54346761D01*
X121832761Y-54299142D01*
X121785142Y-54203904D01*
X121737523Y-54013428D01*
X121737523Y-53775333D01*
X121785142Y-53584857D01*
X121832761Y-53489619D01*
X121880380Y-53442000D01*
X121975619Y-53394380D01*
X122737523Y-53727714D02*
X122737523Y-54394380D01*
X122737523Y-53822952D02*
X122785142Y-53775333D01*
X122880380Y-53727714D01*
X123023238Y-53727714D01*
X123118476Y-53775333D01*
X123166095Y-53870571D01*
X123166095Y-54394380D01*
X123975619Y-53870571D02*
X123642285Y-53870571D01*
X123642285Y-54394380D02*
X123642285Y-53394380D01*
X124118476Y-53394380D01*
X150995142Y-36868380D02*
X150661809Y-36392190D01*
X150423714Y-36868380D02*
X150423714Y-35868380D01*
X150804666Y-35868380D01*
X150899904Y-35916000D01*
X150947523Y-35963619D01*
X150995142Y-36058857D01*
X150995142Y-36201714D01*
X150947523Y-36296952D01*
X150899904Y-36344571D01*
X150804666Y-36392190D01*
X150423714Y-36392190D01*
X151376095Y-35963619D02*
X151423714Y-35916000D01*
X151518952Y-35868380D01*
X151757047Y-35868380D01*
X151852285Y-35916000D01*
X151899904Y-35963619D01*
X151947523Y-36058857D01*
X151947523Y-36154095D01*
X151899904Y-36296952D01*
X151328476Y-36868380D01*
X151947523Y-36868380D01*
X152280857Y-35868380D02*
X152947523Y-35868380D01*
X152518952Y-36868380D01*
X149852285Y-38728380D02*
X150471333Y-38728380D01*
X150138000Y-39109333D01*
X150280857Y-39109333D01*
X150376095Y-39156952D01*
X150423714Y-39204571D01*
X150471333Y-39299809D01*
X150471333Y-39537904D01*
X150423714Y-39633142D01*
X150376095Y-39680761D01*
X150280857Y-39728380D01*
X149995142Y-39728380D01*
X149899904Y-39680761D01*
X149852285Y-39633142D01*
X150804666Y-38728380D02*
X151423714Y-38728380D01*
X151090380Y-39109333D01*
X151233238Y-39109333D01*
X151328476Y-39156952D01*
X151376095Y-39204571D01*
X151423714Y-39299809D01*
X151423714Y-39537904D01*
X151376095Y-39633142D01*
X151328476Y-39680761D01*
X151233238Y-39728380D01*
X150947523Y-39728380D01*
X150852285Y-39680761D01*
X150804666Y-39633142D01*
X152042761Y-38728380D02*
X152138000Y-38728380D01*
X152233238Y-38776000D01*
X152280857Y-38823619D01*
X152328476Y-38918857D01*
X152376095Y-39109333D01*
X152376095Y-39347428D01*
X152328476Y-39537904D01*
X152280857Y-39633142D01*
X152233238Y-39680761D01*
X152138000Y-39728380D01*
X152042761Y-39728380D01*
X151947523Y-39680761D01*
X151899904Y-39633142D01*
X151852285Y-39537904D01*
X151804666Y-39347428D01*
X151804666Y-39109333D01*
X151852285Y-38918857D01*
X151899904Y-38823619D01*
X151947523Y-38776000D01*
X152042761Y-38728380D01*
X153376095Y-39728380D02*
X153042761Y-39252190D01*
X152804666Y-39728380D02*
X152804666Y-38728380D01*
X153185619Y-38728380D01*
X153280857Y-38776000D01*
X153328476Y-38823619D01*
X153376095Y-38918857D01*
X153376095Y-39061714D01*
X153328476Y-39156952D01*
X153280857Y-39204571D01*
X153185619Y-39252190D01*
X152804666Y-39252190D01*
X165219142Y-142532380D02*
X164885809Y-142056190D01*
X164647714Y-142532380D02*
X164647714Y-141532380D01*
X165028666Y-141532380D01*
X165123904Y-141580000D01*
X165171523Y-141627619D01*
X165219142Y-141722857D01*
X165219142Y-141865714D01*
X165171523Y-141960952D01*
X165123904Y-142008571D01*
X165028666Y-142056190D01*
X164647714Y-142056190D01*
X165600095Y-141627619D02*
X165647714Y-141580000D01*
X165742952Y-141532380D01*
X165981047Y-141532380D01*
X166076285Y-141580000D01*
X166123904Y-141627619D01*
X166171523Y-141722857D01*
X166171523Y-141818095D01*
X166123904Y-141960952D01*
X165552476Y-142532380D01*
X166171523Y-142532380D01*
X167028666Y-141532380D02*
X166838190Y-141532380D01*
X166742952Y-141580000D01*
X166695333Y-141627619D01*
X166600095Y-141770476D01*
X166552476Y-141960952D01*
X166552476Y-142341904D01*
X166600095Y-142437142D01*
X166647714Y-142484761D01*
X166742952Y-142532380D01*
X166933428Y-142532380D01*
X167028666Y-142484761D01*
X167076285Y-142437142D01*
X167123904Y-142341904D01*
X167123904Y-142103809D01*
X167076285Y-142008571D01*
X167028666Y-141960952D01*
X166933428Y-141913333D01*
X166742952Y-141913333D01*
X166647714Y-141960952D01*
X166600095Y-142008571D01*
X166552476Y-142103809D01*
X165647714Y-145392380D02*
X165076285Y-145392380D01*
X165362000Y-145392380D02*
X165362000Y-144392380D01*
X165266761Y-144535238D01*
X165171523Y-144630476D01*
X165076285Y-144678095D01*
X166076285Y-145392380D02*
X166076285Y-144392380D01*
X166647714Y-145392380D02*
X166219142Y-144820952D01*
X166647714Y-144392380D02*
X166076285Y-144963809D01*
X145661142Y-141770380D02*
X145327809Y-141294190D01*
X145089714Y-141770380D02*
X145089714Y-140770380D01*
X145470666Y-140770380D01*
X145565904Y-140818000D01*
X145613523Y-140865619D01*
X145661142Y-140960857D01*
X145661142Y-141103714D01*
X145613523Y-141198952D01*
X145565904Y-141246571D01*
X145470666Y-141294190D01*
X145089714Y-141294190D01*
X146042095Y-140865619D02*
X146089714Y-140818000D01*
X146184952Y-140770380D01*
X146423047Y-140770380D01*
X146518285Y-140818000D01*
X146565904Y-140865619D01*
X146613523Y-140960857D01*
X146613523Y-141056095D01*
X146565904Y-141198952D01*
X145994476Y-141770380D01*
X146613523Y-141770380D01*
X147518285Y-140770380D02*
X147042095Y-140770380D01*
X146994476Y-141246571D01*
X147042095Y-141198952D01*
X147137333Y-141151333D01*
X147375428Y-141151333D01*
X147470666Y-141198952D01*
X147518285Y-141246571D01*
X147565904Y-141341809D01*
X147565904Y-141579904D01*
X147518285Y-141675142D01*
X147470666Y-141722761D01*
X147375428Y-141770380D01*
X147137333Y-141770380D01*
X147042095Y-141722761D01*
X146994476Y-141675142D01*
X146089714Y-144630380D02*
X145518285Y-144630380D01*
X145804000Y-144630380D02*
X145804000Y-143630380D01*
X145708761Y-143773238D01*
X145613523Y-143868476D01*
X145518285Y-143916095D01*
X146518285Y-144630380D02*
X146518285Y-143630380D01*
X147089714Y-144630380D02*
X146661142Y-144058952D01*
X147089714Y-143630380D02*
X146518285Y-144201809D01*
X164965142Y-121450380D02*
X164631809Y-120974190D01*
X164393714Y-121450380D02*
X164393714Y-120450380D01*
X164774666Y-120450380D01*
X164869904Y-120498000D01*
X164917523Y-120545619D01*
X164965142Y-120640857D01*
X164965142Y-120783714D01*
X164917523Y-120878952D01*
X164869904Y-120926571D01*
X164774666Y-120974190D01*
X164393714Y-120974190D01*
X165346095Y-120545619D02*
X165393714Y-120498000D01*
X165488952Y-120450380D01*
X165727047Y-120450380D01*
X165822285Y-120498000D01*
X165869904Y-120545619D01*
X165917523Y-120640857D01*
X165917523Y-120736095D01*
X165869904Y-120878952D01*
X165298476Y-121450380D01*
X165917523Y-121450380D01*
X166774666Y-120783714D02*
X166774666Y-121450380D01*
X166536571Y-120402761D02*
X166298476Y-121117047D01*
X166917523Y-121117047D01*
X165393714Y-124310380D02*
X164822285Y-124310380D01*
X165108000Y-124310380D02*
X165108000Y-123310380D01*
X165012761Y-123453238D01*
X164917523Y-123548476D01*
X164822285Y-123596095D01*
X165822285Y-124310380D02*
X165822285Y-123310380D01*
X166393714Y-124310380D02*
X165965142Y-123738952D01*
X166393714Y-123310380D02*
X165822285Y-123881809D01*
X169537142Y-142532380D02*
X169203809Y-142056190D01*
X168965714Y-142532380D02*
X168965714Y-141532380D01*
X169346666Y-141532380D01*
X169441904Y-141580000D01*
X169489523Y-141627619D01*
X169537142Y-141722857D01*
X169537142Y-141865714D01*
X169489523Y-141960952D01*
X169441904Y-142008571D01*
X169346666Y-142056190D01*
X168965714Y-142056190D01*
X169918095Y-141627619D02*
X169965714Y-141580000D01*
X170060952Y-141532380D01*
X170299047Y-141532380D01*
X170394285Y-141580000D01*
X170441904Y-141627619D01*
X170489523Y-141722857D01*
X170489523Y-141818095D01*
X170441904Y-141960952D01*
X169870476Y-142532380D01*
X170489523Y-142532380D01*
X170822857Y-141532380D02*
X171441904Y-141532380D01*
X171108571Y-141913333D01*
X171251428Y-141913333D01*
X171346666Y-141960952D01*
X171394285Y-142008571D01*
X171441904Y-142103809D01*
X171441904Y-142341904D01*
X171394285Y-142437142D01*
X171346666Y-142484761D01*
X171251428Y-142532380D01*
X170965714Y-142532380D01*
X170870476Y-142484761D01*
X170822857Y-142437142D01*
X169013333Y-145392380D02*
X168441904Y-145392380D01*
X168727619Y-145392380D02*
X168727619Y-144392380D01*
X168632380Y-144535238D01*
X168537142Y-144630476D01*
X168441904Y-144678095D01*
X169632380Y-144392380D02*
X169727619Y-144392380D01*
X169822857Y-144440000D01*
X169870476Y-144487619D01*
X169918095Y-144582857D01*
X169965714Y-144773333D01*
X169965714Y-145011428D01*
X169918095Y-145201904D01*
X169870476Y-145297142D01*
X169822857Y-145344761D01*
X169727619Y-145392380D01*
X169632380Y-145392380D01*
X169537142Y-145344761D01*
X169489523Y-145297142D01*
X169441904Y-145201904D01*
X169394285Y-145011428D01*
X169394285Y-144773333D01*
X169441904Y-144582857D01*
X169489523Y-144487619D01*
X169537142Y-144440000D01*
X169632380Y-144392380D01*
X170584761Y-144392380D02*
X170680000Y-144392380D01*
X170775238Y-144440000D01*
X170822857Y-144487619D01*
X170870476Y-144582857D01*
X170918095Y-144773333D01*
X170918095Y-145011428D01*
X170870476Y-145201904D01*
X170822857Y-145297142D01*
X170775238Y-145344761D01*
X170680000Y-145392380D01*
X170584761Y-145392380D01*
X170489523Y-145344761D01*
X170441904Y-145297142D01*
X170394285Y-145201904D01*
X170346666Y-145011428D01*
X170346666Y-144773333D01*
X170394285Y-144582857D01*
X170441904Y-144487619D01*
X170489523Y-144440000D01*
X170584761Y-144392380D01*
X171346666Y-145392380D02*
X171346666Y-144392380D01*
X171918095Y-145392380D02*
X171489523Y-144820952D01*
X171918095Y-144392380D02*
X171346666Y-144963809D01*
X155567142Y-121450380D02*
X155233809Y-120974190D01*
X154995714Y-121450380D02*
X154995714Y-120450380D01*
X155376666Y-120450380D01*
X155471904Y-120498000D01*
X155519523Y-120545619D01*
X155567142Y-120640857D01*
X155567142Y-120783714D01*
X155519523Y-120878952D01*
X155471904Y-120926571D01*
X155376666Y-120974190D01*
X154995714Y-120974190D01*
X155948095Y-120545619D02*
X155995714Y-120498000D01*
X156090952Y-120450380D01*
X156329047Y-120450380D01*
X156424285Y-120498000D01*
X156471904Y-120545619D01*
X156519523Y-120640857D01*
X156519523Y-120736095D01*
X156471904Y-120878952D01*
X155900476Y-121450380D01*
X156519523Y-121450380D01*
X156900476Y-120545619D02*
X156948095Y-120498000D01*
X157043333Y-120450380D01*
X157281428Y-120450380D01*
X157376666Y-120498000D01*
X157424285Y-120545619D01*
X157471904Y-120640857D01*
X157471904Y-120736095D01*
X157424285Y-120878952D01*
X156852857Y-121450380D01*
X157471904Y-121450380D01*
X155043333Y-124310380D02*
X154471904Y-124310380D01*
X154757619Y-124310380D02*
X154757619Y-123310380D01*
X154662380Y-123453238D01*
X154567142Y-123548476D01*
X154471904Y-123596095D01*
X155662380Y-123310380D02*
X155757619Y-123310380D01*
X155852857Y-123358000D01*
X155900476Y-123405619D01*
X155948095Y-123500857D01*
X155995714Y-123691333D01*
X155995714Y-123929428D01*
X155948095Y-124119904D01*
X155900476Y-124215142D01*
X155852857Y-124262761D01*
X155757619Y-124310380D01*
X155662380Y-124310380D01*
X155567142Y-124262761D01*
X155519523Y-124215142D01*
X155471904Y-124119904D01*
X155424285Y-123929428D01*
X155424285Y-123691333D01*
X155471904Y-123500857D01*
X155519523Y-123405619D01*
X155567142Y-123358000D01*
X155662380Y-123310380D01*
X156614761Y-123310380D02*
X156710000Y-123310380D01*
X156805238Y-123358000D01*
X156852857Y-123405619D01*
X156900476Y-123500857D01*
X156948095Y-123691333D01*
X156948095Y-123929428D01*
X156900476Y-124119904D01*
X156852857Y-124215142D01*
X156805238Y-124262761D01*
X156710000Y-124310380D01*
X156614761Y-124310380D01*
X156519523Y-124262761D01*
X156471904Y-124215142D01*
X156424285Y-124119904D01*
X156376666Y-123929428D01*
X156376666Y-123691333D01*
X156424285Y-123500857D01*
X156471904Y-123405619D01*
X156519523Y-123358000D01*
X156614761Y-123310380D01*
X157376666Y-124310380D02*
X157376666Y-123310380D01*
X157948095Y-124310380D02*
X157519523Y-123738952D01*
X157948095Y-123310380D02*
X157376666Y-123881809D01*
X150487142Y-121704380D02*
X150153809Y-121228190D01*
X149915714Y-121704380D02*
X149915714Y-120704380D01*
X150296666Y-120704380D01*
X150391904Y-120752000D01*
X150439523Y-120799619D01*
X150487142Y-120894857D01*
X150487142Y-121037714D01*
X150439523Y-121132952D01*
X150391904Y-121180571D01*
X150296666Y-121228190D01*
X149915714Y-121228190D01*
X150868095Y-120799619D02*
X150915714Y-120752000D01*
X151010952Y-120704380D01*
X151249047Y-120704380D01*
X151344285Y-120752000D01*
X151391904Y-120799619D01*
X151439523Y-120894857D01*
X151439523Y-120990095D01*
X151391904Y-121132952D01*
X150820476Y-121704380D01*
X151439523Y-121704380D01*
X152391904Y-121704380D02*
X151820476Y-121704380D01*
X152106190Y-121704380D02*
X152106190Y-120704380D01*
X152010952Y-120847238D01*
X151915714Y-120942476D01*
X151820476Y-120990095D01*
X150344285Y-123897714D02*
X150344285Y-124564380D01*
X150106190Y-123516761D02*
X149868095Y-124231047D01*
X150487142Y-124231047D01*
X150772857Y-123564380D02*
X151439523Y-123564380D01*
X151010952Y-124564380D01*
X151820476Y-124564380D02*
X151820476Y-123564380D01*
X152391904Y-124564380D02*
X151963333Y-123992952D01*
X152391904Y-123564380D02*
X151820476Y-124135809D01*
X144899142Y-121704380D02*
X144565809Y-121228190D01*
X144327714Y-121704380D02*
X144327714Y-120704380D01*
X144708666Y-120704380D01*
X144803904Y-120752000D01*
X144851523Y-120799619D01*
X144899142Y-120894857D01*
X144899142Y-121037714D01*
X144851523Y-121132952D01*
X144803904Y-121180571D01*
X144708666Y-121228190D01*
X144327714Y-121228190D01*
X145280095Y-120799619D02*
X145327714Y-120752000D01*
X145422952Y-120704380D01*
X145661047Y-120704380D01*
X145756285Y-120752000D01*
X145803904Y-120799619D01*
X145851523Y-120894857D01*
X145851523Y-120990095D01*
X145803904Y-121132952D01*
X145232476Y-121704380D01*
X145851523Y-121704380D01*
X146470571Y-120704380D02*
X146565809Y-120704380D01*
X146661047Y-120752000D01*
X146708666Y-120799619D01*
X146756285Y-120894857D01*
X146803904Y-121085333D01*
X146803904Y-121323428D01*
X146756285Y-121513904D01*
X146708666Y-121609142D01*
X146661047Y-121656761D01*
X146565809Y-121704380D01*
X146470571Y-121704380D01*
X146375333Y-121656761D01*
X146327714Y-121609142D01*
X146280095Y-121513904D01*
X146232476Y-121323428D01*
X146232476Y-121085333D01*
X146280095Y-120894857D01*
X146327714Y-120799619D01*
X146375333Y-120752000D01*
X146470571Y-120704380D01*
X144756285Y-123659619D02*
X144803904Y-123612000D01*
X144899142Y-123564380D01*
X145137238Y-123564380D01*
X145232476Y-123612000D01*
X145280095Y-123659619D01*
X145327714Y-123754857D01*
X145327714Y-123850095D01*
X145280095Y-123992952D01*
X144708666Y-124564380D01*
X145327714Y-124564380D01*
X145756285Y-124564380D02*
X145756285Y-123564380D01*
X146327714Y-124564380D02*
X145899142Y-123992952D01*
X146327714Y-123564380D02*
X145756285Y-124135809D01*
X139057142Y-121704380D02*
X138723809Y-121228190D01*
X138485714Y-121704380D02*
X138485714Y-120704380D01*
X138866666Y-120704380D01*
X138961904Y-120752000D01*
X139009523Y-120799619D01*
X139057142Y-120894857D01*
X139057142Y-121037714D01*
X139009523Y-121132952D01*
X138961904Y-121180571D01*
X138866666Y-121228190D01*
X138485714Y-121228190D01*
X140009523Y-121704380D02*
X139438095Y-121704380D01*
X139723809Y-121704380D02*
X139723809Y-120704380D01*
X139628571Y-120847238D01*
X139533333Y-120942476D01*
X139438095Y-120990095D01*
X140485714Y-121704380D02*
X140676190Y-121704380D01*
X140771428Y-121656761D01*
X140819047Y-121609142D01*
X140914285Y-121466285D01*
X140961904Y-121275809D01*
X140961904Y-120894857D01*
X140914285Y-120799619D01*
X140866666Y-120752000D01*
X140771428Y-120704380D01*
X140580952Y-120704380D01*
X140485714Y-120752000D01*
X140438095Y-120799619D01*
X140390476Y-120894857D01*
X140390476Y-121132952D01*
X140438095Y-121228190D01*
X140485714Y-121275809D01*
X140580952Y-121323428D01*
X140771428Y-121323428D01*
X140866666Y-121275809D01*
X140914285Y-121228190D01*
X140961904Y-121132952D01*
X138438095Y-123564380D02*
X138247619Y-123564380D01*
X138152380Y-123612000D01*
X138104761Y-123659619D01*
X138009523Y-123802476D01*
X137961904Y-123992952D01*
X137961904Y-124373904D01*
X138009523Y-124469142D01*
X138057142Y-124516761D01*
X138152380Y-124564380D01*
X138342857Y-124564380D01*
X138438095Y-124516761D01*
X138485714Y-124469142D01*
X138533333Y-124373904D01*
X138533333Y-124135809D01*
X138485714Y-124040571D01*
X138438095Y-123992952D01*
X138342857Y-123945333D01*
X138152380Y-123945333D01*
X138057142Y-123992952D01*
X138009523Y-124040571D01*
X137961904Y-124135809D01*
X139104761Y-123992952D02*
X139009523Y-123945333D01*
X138961904Y-123897714D01*
X138914285Y-123802476D01*
X138914285Y-123754857D01*
X138961904Y-123659619D01*
X139009523Y-123612000D01*
X139104761Y-123564380D01*
X139295238Y-123564380D01*
X139390476Y-123612000D01*
X139438095Y-123659619D01*
X139485714Y-123754857D01*
X139485714Y-123802476D01*
X139438095Y-123897714D01*
X139390476Y-123945333D01*
X139295238Y-123992952D01*
X139104761Y-123992952D01*
X139009523Y-124040571D01*
X138961904Y-124088190D01*
X138914285Y-124183428D01*
X138914285Y-124373904D01*
X138961904Y-124469142D01*
X139009523Y-124516761D01*
X139104761Y-124564380D01*
X139295238Y-124564380D01*
X139390476Y-124516761D01*
X139438095Y-124469142D01*
X139485714Y-124373904D01*
X139485714Y-124183428D01*
X139438095Y-124088190D01*
X139390476Y-124040571D01*
X139295238Y-123992952D01*
X140104761Y-123564380D02*
X140200000Y-123564380D01*
X140295238Y-123612000D01*
X140342857Y-123659619D01*
X140390476Y-123754857D01*
X140438095Y-123945333D01*
X140438095Y-124183428D01*
X140390476Y-124373904D01*
X140342857Y-124469142D01*
X140295238Y-124516761D01*
X140200000Y-124564380D01*
X140104761Y-124564380D01*
X140009523Y-124516761D01*
X139961904Y-124469142D01*
X139914285Y-124373904D01*
X139866666Y-124183428D01*
X139866666Y-123945333D01*
X139914285Y-123754857D01*
X139961904Y-123659619D01*
X140009523Y-123612000D01*
X140104761Y-123564380D01*
X141438095Y-124564380D02*
X141104761Y-124088190D01*
X140866666Y-124564380D02*
X140866666Y-123564380D01*
X141247619Y-123564380D01*
X141342857Y-123612000D01*
X141390476Y-123659619D01*
X141438095Y-123754857D01*
X141438095Y-123897714D01*
X141390476Y-123992952D01*
X141342857Y-124040571D01*
X141247619Y-124088190D01*
X140866666Y-124088190D01*
X133723142Y-121958380D02*
X133389809Y-121482190D01*
X133151714Y-121958380D02*
X133151714Y-120958380D01*
X133532666Y-120958380D01*
X133627904Y-121006000D01*
X133675523Y-121053619D01*
X133723142Y-121148857D01*
X133723142Y-121291714D01*
X133675523Y-121386952D01*
X133627904Y-121434571D01*
X133532666Y-121482190D01*
X133151714Y-121482190D01*
X134675523Y-121958380D02*
X134104095Y-121958380D01*
X134389809Y-121958380D02*
X134389809Y-120958380D01*
X134294571Y-121101238D01*
X134199333Y-121196476D01*
X134104095Y-121244095D01*
X135246952Y-121386952D02*
X135151714Y-121339333D01*
X135104095Y-121291714D01*
X135056476Y-121196476D01*
X135056476Y-121148857D01*
X135104095Y-121053619D01*
X135151714Y-121006000D01*
X135246952Y-120958380D01*
X135437428Y-120958380D01*
X135532666Y-121006000D01*
X135580285Y-121053619D01*
X135627904Y-121148857D01*
X135627904Y-121196476D01*
X135580285Y-121291714D01*
X135532666Y-121339333D01*
X135437428Y-121386952D01*
X135246952Y-121386952D01*
X135151714Y-121434571D01*
X135104095Y-121482190D01*
X135056476Y-121577428D01*
X135056476Y-121767904D01*
X135104095Y-121863142D01*
X135151714Y-121910761D01*
X135246952Y-121958380D01*
X135437428Y-121958380D01*
X135532666Y-121910761D01*
X135580285Y-121863142D01*
X135627904Y-121767904D01*
X135627904Y-121577428D01*
X135580285Y-121482190D01*
X135532666Y-121434571D01*
X135437428Y-121386952D01*
X133675523Y-124818380D02*
X133104095Y-124818380D01*
X133389809Y-124818380D02*
X133389809Y-123818380D01*
X133294571Y-123961238D01*
X133199333Y-124056476D01*
X133104095Y-124104095D01*
X134104095Y-124818380D02*
X134104095Y-123818380D01*
X134675523Y-124818380D02*
X134246952Y-124246952D01*
X134675523Y-123818380D02*
X134104095Y-124389809D01*
X135246952Y-124246952D02*
X135151714Y-124199333D01*
X135104095Y-124151714D01*
X135056476Y-124056476D01*
X135056476Y-124008857D01*
X135104095Y-123913619D01*
X135151714Y-123866000D01*
X135246952Y-123818380D01*
X135437428Y-123818380D01*
X135532666Y-123866000D01*
X135580285Y-123913619D01*
X135627904Y-124008857D01*
X135627904Y-124056476D01*
X135580285Y-124151714D01*
X135532666Y-124199333D01*
X135437428Y-124246952D01*
X135246952Y-124246952D01*
X135151714Y-124294571D01*
X135104095Y-124342190D01*
X135056476Y-124437428D01*
X135056476Y-124627904D01*
X135104095Y-124723142D01*
X135151714Y-124770761D01*
X135246952Y-124818380D01*
X135437428Y-124818380D01*
X135532666Y-124770761D01*
X135580285Y-124723142D01*
X135627904Y-124627904D01*
X135627904Y-124437428D01*
X135580285Y-124342190D01*
X135532666Y-124294571D01*
X135437428Y-124246952D01*
X169537142Y-82334380D02*
X169203809Y-81858190D01*
X168965714Y-82334380D02*
X168965714Y-81334380D01*
X169346666Y-81334380D01*
X169441904Y-81382000D01*
X169489523Y-81429619D01*
X169537142Y-81524857D01*
X169537142Y-81667714D01*
X169489523Y-81762952D01*
X169441904Y-81810571D01*
X169346666Y-81858190D01*
X168965714Y-81858190D01*
X170489523Y-82334380D02*
X169918095Y-82334380D01*
X170203809Y-82334380D02*
X170203809Y-81334380D01*
X170108571Y-81477238D01*
X170013333Y-81572476D01*
X169918095Y-81620095D01*
X170822857Y-81334380D02*
X171489523Y-81334380D01*
X171060952Y-82334380D01*
X169894285Y-85194380D02*
X169322857Y-85194380D01*
X169608571Y-85194380D02*
X169608571Y-84194380D01*
X169513333Y-84337238D01*
X169418095Y-84432476D01*
X169322857Y-84480095D01*
X170322857Y-85194380D02*
X170322857Y-84194380D01*
X170656190Y-84908666D01*
X170989523Y-84194380D01*
X170989523Y-85194380D01*
X145153142Y-35598380D02*
X144819809Y-35122190D01*
X144581714Y-35598380D02*
X144581714Y-34598380D01*
X144962666Y-34598380D01*
X145057904Y-34646000D01*
X145105523Y-34693619D01*
X145153142Y-34788857D01*
X145153142Y-34931714D01*
X145105523Y-35026952D01*
X145057904Y-35074571D01*
X144962666Y-35122190D01*
X144581714Y-35122190D01*
X146105523Y-35598380D02*
X145534095Y-35598380D01*
X145819809Y-35598380D02*
X145819809Y-34598380D01*
X145724571Y-34741238D01*
X145629333Y-34836476D01*
X145534095Y-34884095D01*
X146962666Y-34598380D02*
X146772190Y-34598380D01*
X146676952Y-34646000D01*
X146629333Y-34693619D01*
X146534095Y-34836476D01*
X146486476Y-35026952D01*
X146486476Y-35407904D01*
X146534095Y-35503142D01*
X146581714Y-35550761D01*
X146676952Y-35598380D01*
X146867428Y-35598380D01*
X146962666Y-35550761D01*
X147010285Y-35503142D01*
X147057904Y-35407904D01*
X147057904Y-35169809D01*
X147010285Y-35074571D01*
X146962666Y-35026952D01*
X146867428Y-34979333D01*
X146676952Y-34979333D01*
X146581714Y-35026952D01*
X146534095Y-35074571D01*
X146486476Y-35169809D01*
X144534095Y-37791714D02*
X144534095Y-38458380D01*
X144296000Y-37410761D02*
X144057904Y-38125047D01*
X144676952Y-38125047D01*
X144962666Y-37458380D02*
X145629333Y-37458380D01*
X145200761Y-38458380D01*
X146200761Y-37458380D02*
X146296000Y-37458380D01*
X146391238Y-37506000D01*
X146438857Y-37553619D01*
X146486476Y-37648857D01*
X146534095Y-37839333D01*
X146534095Y-38077428D01*
X146486476Y-38267904D01*
X146438857Y-38363142D01*
X146391238Y-38410761D01*
X146296000Y-38458380D01*
X146200761Y-38458380D01*
X146105523Y-38410761D01*
X146057904Y-38363142D01*
X146010285Y-38267904D01*
X145962666Y-38077428D01*
X145962666Y-37839333D01*
X146010285Y-37648857D01*
X146057904Y-37553619D01*
X146105523Y-37506000D01*
X146200761Y-37458380D01*
X147534095Y-38458380D02*
X147200761Y-37982190D01*
X146962666Y-38458380D02*
X146962666Y-37458380D01*
X147343619Y-37458380D01*
X147438857Y-37506000D01*
X147486476Y-37553619D01*
X147534095Y-37648857D01*
X147534095Y-37791714D01*
X147486476Y-37886952D01*
X147438857Y-37934571D01*
X147343619Y-37982190D01*
X146962666Y-37982190D01*
X139565142Y-45062380D02*
X139231809Y-44586190D01*
X138993714Y-45062380D02*
X138993714Y-44062380D01*
X139374666Y-44062380D01*
X139469904Y-44110000D01*
X139517523Y-44157619D01*
X139565142Y-44252857D01*
X139565142Y-44395714D01*
X139517523Y-44490952D01*
X139469904Y-44538571D01*
X139374666Y-44586190D01*
X138993714Y-44586190D01*
X140517523Y-45062380D02*
X139946095Y-45062380D01*
X140231809Y-45062380D02*
X140231809Y-44062380D01*
X140136571Y-44205238D01*
X140041333Y-44300476D01*
X139946095Y-44348095D01*
X141422285Y-44062380D02*
X140946095Y-44062380D01*
X140898476Y-44538571D01*
X140946095Y-44490952D01*
X141041333Y-44443333D01*
X141279428Y-44443333D01*
X141374666Y-44490952D01*
X141422285Y-44538571D01*
X141469904Y-44633809D01*
X141469904Y-44871904D01*
X141422285Y-44967142D01*
X141374666Y-45014761D01*
X141279428Y-45062380D01*
X141041333Y-45062380D01*
X140946095Y-45014761D01*
X140898476Y-44967142D01*
X139922285Y-42202380D02*
X139350857Y-42202380D01*
X139636571Y-42202380D02*
X139636571Y-41202380D01*
X139541333Y-41345238D01*
X139446095Y-41440476D01*
X139350857Y-41488095D01*
X140350857Y-42202380D02*
X140350857Y-41202380D01*
X140684190Y-41916666D01*
X141017523Y-41202380D01*
X141017523Y-42202380D01*
X154297142Y-36680380D02*
X153963809Y-36204190D01*
X153725714Y-36680380D02*
X153725714Y-35680380D01*
X154106666Y-35680380D01*
X154201904Y-35728000D01*
X154249523Y-35775619D01*
X154297142Y-35870857D01*
X154297142Y-36013714D01*
X154249523Y-36108952D01*
X154201904Y-36156571D01*
X154106666Y-36204190D01*
X153725714Y-36204190D01*
X155249523Y-36680380D02*
X154678095Y-36680380D01*
X154963809Y-36680380D02*
X154963809Y-35680380D01*
X154868571Y-35823238D01*
X154773333Y-35918476D01*
X154678095Y-35966095D01*
X156106666Y-36013714D02*
X156106666Y-36680380D01*
X155868571Y-35632761D02*
X155630476Y-36347047D01*
X156249523Y-36347047D01*
X154178095Y-33820380D02*
X153606666Y-33820380D01*
X153892380Y-33820380D02*
X153892380Y-32820380D01*
X153797142Y-32963238D01*
X153701904Y-33058476D01*
X153606666Y-33106095D01*
X154606666Y-33820380D02*
X154606666Y-32820380D01*
X154940000Y-33534666D01*
X155273333Y-32820380D01*
X155273333Y-33820380D01*
X156225714Y-32820380D02*
X155749523Y-32820380D01*
X155701904Y-33296571D01*
X155749523Y-33248952D01*
X155844761Y-33201333D01*
X156082857Y-33201333D01*
X156178095Y-33248952D01*
X156225714Y-33296571D01*
X156273333Y-33391809D01*
X156273333Y-33629904D01*
X156225714Y-33725142D01*
X156178095Y-33772761D01*
X156082857Y-33820380D01*
X155844761Y-33820380D01*
X155749523Y-33772761D01*
X155701904Y-33725142D01*
X137279142Y-144630380D02*
X136945809Y-144154190D01*
X136707714Y-144630380D02*
X136707714Y-143630380D01*
X137088666Y-143630380D01*
X137183904Y-143678000D01*
X137231523Y-143725619D01*
X137279142Y-143820857D01*
X137279142Y-143963714D01*
X137231523Y-144058952D01*
X137183904Y-144106571D01*
X137088666Y-144154190D01*
X136707714Y-144154190D01*
X138231523Y-144630380D02*
X137660095Y-144630380D01*
X137945809Y-144630380D02*
X137945809Y-143630380D01*
X137850571Y-143773238D01*
X137755333Y-143868476D01*
X137660095Y-143916095D01*
X138564857Y-143630380D02*
X139183904Y-143630380D01*
X138850571Y-144011333D01*
X138993428Y-144011333D01*
X139088666Y-144058952D01*
X139136285Y-144106571D01*
X139183904Y-144201809D01*
X139183904Y-144439904D01*
X139136285Y-144535142D01*
X139088666Y-144582761D01*
X138993428Y-144630380D01*
X138707714Y-144630380D01*
X138612476Y-144582761D01*
X138564857Y-144535142D01*
X137183904Y-140770380D02*
X136707714Y-140770380D01*
X136660095Y-141246571D01*
X136707714Y-141198952D01*
X136802952Y-141151333D01*
X137041047Y-141151333D01*
X137136285Y-141198952D01*
X137183904Y-141246571D01*
X137231523Y-141341809D01*
X137231523Y-141579904D01*
X137183904Y-141675142D01*
X137136285Y-141722761D01*
X137041047Y-141770380D01*
X136802952Y-141770380D01*
X136707714Y-141722761D01*
X136660095Y-141675142D01*
X137660095Y-141770380D02*
X137660095Y-140770380D01*
X138231523Y-141770380D02*
X137802952Y-141198952D01*
X138231523Y-140770380D02*
X137660095Y-141341809D01*
X139088666Y-140770380D02*
X138898190Y-140770380D01*
X138802952Y-140818000D01*
X138755333Y-140865619D01*
X138660095Y-141008476D01*
X138612476Y-141198952D01*
X138612476Y-141579904D01*
X138660095Y-141675142D01*
X138707714Y-141722761D01*
X138802952Y-141770380D01*
X138993428Y-141770380D01*
X139088666Y-141722761D01*
X139136285Y-141675142D01*
X139183904Y-141579904D01*
X139183904Y-141341809D01*
X139136285Y-141246571D01*
X139088666Y-141198952D01*
X138993428Y-141151333D01*
X138802952Y-141151333D01*
X138707714Y-141198952D01*
X138660095Y-141246571D01*
X138612476Y-141341809D01*
X165981142Y-87668380D02*
X165647809Y-87192190D01*
X165409714Y-87668380D02*
X165409714Y-86668380D01*
X165790666Y-86668380D01*
X165885904Y-86716000D01*
X165933523Y-86763619D01*
X165981142Y-86858857D01*
X165981142Y-87001714D01*
X165933523Y-87096952D01*
X165885904Y-87144571D01*
X165790666Y-87192190D01*
X165409714Y-87192190D01*
X166933523Y-87668380D02*
X166362095Y-87668380D01*
X166647809Y-87668380D02*
X166647809Y-86668380D01*
X166552571Y-86811238D01*
X166457333Y-86906476D01*
X166362095Y-86954095D01*
X167314476Y-86763619D02*
X167362095Y-86716000D01*
X167457333Y-86668380D01*
X167695428Y-86668380D01*
X167790666Y-86716000D01*
X167838285Y-86763619D01*
X167885904Y-86858857D01*
X167885904Y-86954095D01*
X167838285Y-87096952D01*
X167266857Y-87668380D01*
X167885904Y-87668380D01*
X165362095Y-89623619D02*
X165409714Y-89576000D01*
X165504952Y-89528380D01*
X165743047Y-89528380D01*
X165838285Y-89576000D01*
X165885904Y-89623619D01*
X165933523Y-89718857D01*
X165933523Y-89814095D01*
X165885904Y-89956952D01*
X165314476Y-90528380D01*
X165933523Y-90528380D01*
X166790666Y-89861714D02*
X166790666Y-90528380D01*
X166552571Y-89480761D02*
X166314476Y-90195047D01*
X166933523Y-90195047D01*
X167314476Y-90528380D02*
X167314476Y-89528380D01*
X167885904Y-90528380D02*
X167457333Y-89956952D01*
X167885904Y-89528380D02*
X167314476Y-90099809D01*
X128897142Y-101892380D02*
X128563809Y-101416190D01*
X128325714Y-101892380D02*
X128325714Y-100892380D01*
X128706666Y-100892380D01*
X128801904Y-100940000D01*
X128849523Y-100987619D01*
X128897142Y-101082857D01*
X128897142Y-101225714D01*
X128849523Y-101320952D01*
X128801904Y-101368571D01*
X128706666Y-101416190D01*
X128325714Y-101416190D01*
X129849523Y-101892380D02*
X129278095Y-101892380D01*
X129563809Y-101892380D02*
X129563809Y-100892380D01*
X129468571Y-101035238D01*
X129373333Y-101130476D01*
X129278095Y-101178095D01*
X130801904Y-101892380D02*
X130230476Y-101892380D01*
X130516190Y-101892380D02*
X130516190Y-100892380D01*
X130420952Y-101035238D01*
X130325714Y-101130476D01*
X130230476Y-101178095D01*
X128754285Y-104085714D02*
X128754285Y-104752380D01*
X128516190Y-103704761D02*
X128278095Y-104419047D01*
X128897142Y-104419047D01*
X129182857Y-103752380D02*
X129849523Y-103752380D01*
X129420952Y-104752380D01*
X130230476Y-104752380D02*
X130230476Y-103752380D01*
X130801904Y-104752380D02*
X130373333Y-104180952D01*
X130801904Y-103752380D02*
X130230476Y-104323809D01*
X175633142Y-117894380D02*
X175299809Y-117418190D01*
X175061714Y-117894380D02*
X175061714Y-116894380D01*
X175442666Y-116894380D01*
X175537904Y-116942000D01*
X175585523Y-116989619D01*
X175633142Y-117084857D01*
X175633142Y-117227714D01*
X175585523Y-117322952D01*
X175537904Y-117370571D01*
X175442666Y-117418190D01*
X175061714Y-117418190D01*
X176585523Y-117894380D02*
X176014095Y-117894380D01*
X176299809Y-117894380D02*
X176299809Y-116894380D01*
X176204571Y-117037238D01*
X176109333Y-117132476D01*
X176014095Y-117180095D01*
X177204571Y-116894380D02*
X177299809Y-116894380D01*
X177395047Y-116942000D01*
X177442666Y-116989619D01*
X177490285Y-117084857D01*
X177537904Y-117275333D01*
X177537904Y-117513428D01*
X177490285Y-117703904D01*
X177442666Y-117799142D01*
X177395047Y-117846761D01*
X177299809Y-117894380D01*
X177204571Y-117894380D01*
X177109333Y-117846761D01*
X177061714Y-117799142D01*
X177014095Y-117703904D01*
X176966476Y-117513428D01*
X176966476Y-117275333D01*
X177014095Y-117084857D01*
X177061714Y-116989619D01*
X177109333Y-116942000D01*
X177204571Y-116894380D01*
X175490285Y-120087714D02*
X175490285Y-120754380D01*
X175252190Y-119706761D02*
X175014095Y-120421047D01*
X175633142Y-120421047D01*
X175918857Y-119754380D02*
X176585523Y-119754380D01*
X176156952Y-120754380D01*
X176966476Y-120754380D02*
X176966476Y-119754380D01*
X177537904Y-120754380D02*
X177109333Y-120182952D01*
X177537904Y-119754380D02*
X176966476Y-120325809D01*
X152692380Y-112434666D02*
X152216190Y-112768000D01*
X152692380Y-113006095D02*
X151692380Y-113006095D01*
X151692380Y-112625142D01*
X151740000Y-112529904D01*
X151787619Y-112482285D01*
X151882857Y-112434666D01*
X152025714Y-112434666D01*
X152120952Y-112482285D01*
X152168571Y-112529904D01*
X152216190Y-112625142D01*
X152216190Y-113006095D01*
X152692380Y-111958476D02*
X152692380Y-111768000D01*
X152644761Y-111672761D01*
X152597142Y-111625142D01*
X152454285Y-111529904D01*
X152263809Y-111482285D01*
X151882857Y-111482285D01*
X151787619Y-111529904D01*
X151740000Y-111577523D01*
X151692380Y-111672761D01*
X151692380Y-111863238D01*
X151740000Y-111958476D01*
X151787619Y-112006095D01*
X151882857Y-112053714D01*
X152120952Y-112053714D01*
X152216190Y-112006095D01*
X152263809Y-111958476D01*
X152311428Y-111863238D01*
X152311428Y-111672761D01*
X152263809Y-111577523D01*
X152216190Y-111529904D01*
X152120952Y-111482285D01*
X155552380Y-112958476D02*
X155552380Y-113529904D01*
X155552380Y-113244190D02*
X154552380Y-113244190D01*
X154695238Y-113339428D01*
X154790476Y-113434666D01*
X154838095Y-113529904D01*
X154552380Y-112339428D02*
X154552380Y-112244190D01*
X154600000Y-112148952D01*
X154647619Y-112101333D01*
X154742857Y-112053714D01*
X154933333Y-112006095D01*
X155171428Y-112006095D01*
X155361904Y-112053714D01*
X155457142Y-112101333D01*
X155504761Y-112148952D01*
X155552380Y-112244190D01*
X155552380Y-112339428D01*
X155504761Y-112434666D01*
X155457142Y-112482285D01*
X155361904Y-112529904D01*
X155171428Y-112577523D01*
X154933333Y-112577523D01*
X154742857Y-112529904D01*
X154647619Y-112482285D01*
X154600000Y-112434666D01*
X154552380Y-112339428D01*
X155552380Y-111577523D02*
X154552380Y-111577523D01*
X155552380Y-111006095D02*
X154980952Y-111434666D01*
X154552380Y-111006095D02*
X155123809Y-111577523D01*
X154265333Y-144630380D02*
X153932000Y-144154190D01*
X153693904Y-144630380D02*
X153693904Y-143630380D01*
X154074857Y-143630380D01*
X154170095Y-143678000D01*
X154217714Y-143725619D01*
X154265333Y-143820857D01*
X154265333Y-143963714D01*
X154217714Y-144058952D01*
X154170095Y-144106571D01*
X154074857Y-144154190D01*
X153693904Y-144154190D01*
X154836761Y-144058952D02*
X154741523Y-144011333D01*
X154693904Y-143963714D01*
X154646285Y-143868476D01*
X154646285Y-143820857D01*
X154693904Y-143725619D01*
X154741523Y-143678000D01*
X154836761Y-143630380D01*
X155027238Y-143630380D01*
X155122476Y-143678000D01*
X155170095Y-143725619D01*
X155217714Y-143820857D01*
X155217714Y-143868476D01*
X155170095Y-143963714D01*
X155122476Y-144011333D01*
X155027238Y-144058952D01*
X154836761Y-144058952D01*
X154741523Y-144106571D01*
X154693904Y-144154190D01*
X154646285Y-144249428D01*
X154646285Y-144439904D01*
X154693904Y-144535142D01*
X154741523Y-144582761D01*
X154836761Y-144630380D01*
X155027238Y-144630380D01*
X155122476Y-144582761D01*
X155170095Y-144535142D01*
X155217714Y-144439904D01*
X155217714Y-144249428D01*
X155170095Y-144154190D01*
X155122476Y-144106571D01*
X155027238Y-144058952D01*
X153741523Y-141770380D02*
X153170095Y-141770380D01*
X153455809Y-141770380D02*
X153455809Y-140770380D01*
X153360571Y-140913238D01*
X153265333Y-141008476D01*
X153170095Y-141056095D01*
X154360571Y-140770380D02*
X154455809Y-140770380D01*
X154551047Y-140818000D01*
X154598666Y-140865619D01*
X154646285Y-140960857D01*
X154693904Y-141151333D01*
X154693904Y-141389428D01*
X154646285Y-141579904D01*
X154598666Y-141675142D01*
X154551047Y-141722761D01*
X154455809Y-141770380D01*
X154360571Y-141770380D01*
X154265333Y-141722761D01*
X154217714Y-141675142D01*
X154170095Y-141579904D01*
X154122476Y-141389428D01*
X154122476Y-141151333D01*
X154170095Y-140960857D01*
X154217714Y-140865619D01*
X154265333Y-140818000D01*
X154360571Y-140770380D01*
X155122476Y-141770380D02*
X155122476Y-140770380D01*
X155693904Y-141770380D02*
X155265333Y-141198952D01*
X155693904Y-140770380D02*
X155122476Y-141341809D01*
X134707333Y-51092380D02*
X134374000Y-50616190D01*
X134135904Y-51092380D02*
X134135904Y-50092380D01*
X134516857Y-50092380D01*
X134612095Y-50140000D01*
X134659714Y-50187619D01*
X134707333Y-50282857D01*
X134707333Y-50425714D01*
X134659714Y-50520952D01*
X134612095Y-50568571D01*
X134516857Y-50616190D01*
X134135904Y-50616190D01*
X135040666Y-50092380D02*
X135707333Y-50092380D01*
X135278761Y-51092380D01*
X133612095Y-53047619D02*
X133659714Y-53000000D01*
X133754952Y-52952380D01*
X133993047Y-52952380D01*
X134088285Y-53000000D01*
X134135904Y-53047619D01*
X134183523Y-53142857D01*
X134183523Y-53238095D01*
X134135904Y-53380952D01*
X133564476Y-53952380D01*
X134183523Y-53952380D01*
X134802571Y-52952380D02*
X134897809Y-52952380D01*
X134993047Y-53000000D01*
X135040666Y-53047619D01*
X135088285Y-53142857D01*
X135135904Y-53333333D01*
X135135904Y-53571428D01*
X135088285Y-53761904D01*
X135040666Y-53857142D01*
X134993047Y-53904761D01*
X134897809Y-53952380D01*
X134802571Y-53952380D01*
X134707333Y-53904761D01*
X134659714Y-53857142D01*
X134612095Y-53761904D01*
X134564476Y-53571428D01*
X134564476Y-53333333D01*
X134612095Y-53142857D01*
X134659714Y-53047619D01*
X134707333Y-53000000D01*
X134802571Y-52952380D01*
X135564476Y-53952380D02*
X135564476Y-52952380D01*
X136135904Y-53952380D02*
X135707333Y-53380952D01*
X136135904Y-52952380D02*
X135564476Y-53523809D01*
X117207333Y-63096380D02*
X116874000Y-62620190D01*
X116635904Y-63096380D02*
X116635904Y-62096380D01*
X117016857Y-62096380D01*
X117112095Y-62144000D01*
X117159714Y-62191619D01*
X117207333Y-62286857D01*
X117207333Y-62429714D01*
X117159714Y-62524952D01*
X117112095Y-62572571D01*
X117016857Y-62620190D01*
X116635904Y-62620190D01*
X118064476Y-62096380D02*
X117874000Y-62096380D01*
X117778761Y-62144000D01*
X117731142Y-62191619D01*
X117635904Y-62334476D01*
X117588285Y-62524952D01*
X117588285Y-62905904D01*
X117635904Y-63001142D01*
X117683523Y-63048761D01*
X117778761Y-63096380D01*
X117969238Y-63096380D01*
X118064476Y-63048761D01*
X118112095Y-63001142D01*
X118159714Y-62905904D01*
X118159714Y-62667809D01*
X118112095Y-62572571D01*
X118064476Y-62524952D01*
X117969238Y-62477333D01*
X117778761Y-62477333D01*
X117683523Y-62524952D01*
X117635904Y-62572571D01*
X117588285Y-62667809D01*
X116112095Y-59569714D02*
X116112095Y-60236380D01*
X115874000Y-59188761D02*
X115635904Y-59903047D01*
X116254952Y-59903047D01*
X116540666Y-59236380D02*
X117207333Y-59236380D01*
X116778761Y-60236380D01*
X117778761Y-59236380D02*
X117874000Y-59236380D01*
X117969238Y-59284000D01*
X118016857Y-59331619D01*
X118064476Y-59426857D01*
X118112095Y-59617333D01*
X118112095Y-59855428D01*
X118064476Y-60045904D01*
X118016857Y-60141142D01*
X117969238Y-60188761D01*
X117874000Y-60236380D01*
X117778761Y-60236380D01*
X117683523Y-60188761D01*
X117635904Y-60141142D01*
X117588285Y-60045904D01*
X117540666Y-59855428D01*
X117540666Y-59617333D01*
X117588285Y-59426857D01*
X117635904Y-59331619D01*
X117683523Y-59284000D01*
X117778761Y-59236380D01*
X119112095Y-60236380D02*
X118778761Y-59760190D01*
X118540666Y-60236380D02*
X118540666Y-59236380D01*
X118921619Y-59236380D01*
X119016857Y-59284000D01*
X119064476Y-59331619D01*
X119112095Y-59426857D01*
X119112095Y-59569714D01*
X119064476Y-59664952D01*
X119016857Y-59712571D01*
X118921619Y-59760190D01*
X118540666Y-59760190D01*
X113625333Y-55984380D02*
X113292000Y-55508190D01*
X113053904Y-55984380D02*
X113053904Y-54984380D01*
X113434857Y-54984380D01*
X113530095Y-55032000D01*
X113577714Y-55079619D01*
X113625333Y-55174857D01*
X113625333Y-55317714D01*
X113577714Y-55412952D01*
X113530095Y-55460571D01*
X113434857Y-55508190D01*
X113053904Y-55508190D01*
X114530095Y-54984380D02*
X114053904Y-54984380D01*
X114006285Y-55460571D01*
X114053904Y-55412952D01*
X114149142Y-55365333D01*
X114387238Y-55365333D01*
X114482476Y-55412952D01*
X114530095Y-55460571D01*
X114577714Y-55555809D01*
X114577714Y-55793904D01*
X114530095Y-55889142D01*
X114482476Y-55936761D01*
X114387238Y-55984380D01*
X114149142Y-55984380D01*
X114053904Y-55936761D01*
X114006285Y-55889142D01*
X112411047Y-52124380D02*
X113030095Y-52124380D01*
X112696761Y-52505333D01*
X112839619Y-52505333D01*
X112934857Y-52552952D01*
X112982476Y-52600571D01*
X113030095Y-52695809D01*
X113030095Y-52933904D01*
X112982476Y-53029142D01*
X112934857Y-53076761D01*
X112839619Y-53124380D01*
X112553904Y-53124380D01*
X112458666Y-53076761D01*
X112411047Y-53029142D01*
X113458666Y-53124380D02*
X113458666Y-52124380D01*
X113792000Y-52838666D01*
X114125333Y-52124380D01*
X114125333Y-53124380D01*
X114506285Y-52124380D02*
X115125333Y-52124380D01*
X114792000Y-52505333D01*
X114934857Y-52505333D01*
X115030095Y-52552952D01*
X115077714Y-52600571D01*
X115125333Y-52695809D01*
X115125333Y-52933904D01*
X115077714Y-53029142D01*
X115030095Y-53076761D01*
X114934857Y-53124380D01*
X114649142Y-53124380D01*
X114553904Y-53076761D01*
X114506285Y-53029142D01*
X119672380Y-94400666D02*
X119196190Y-94734000D01*
X119672380Y-94972095D02*
X118672380Y-94972095D01*
X118672380Y-94591142D01*
X118720000Y-94495904D01*
X118767619Y-94448285D01*
X118862857Y-94400666D01*
X119005714Y-94400666D01*
X119100952Y-94448285D01*
X119148571Y-94495904D01*
X119196190Y-94591142D01*
X119196190Y-94972095D01*
X119005714Y-93543523D02*
X119672380Y-93543523D01*
X118624761Y-93781619D02*
X119339047Y-94019714D01*
X119339047Y-93400666D01*
X121532380Y-96019714D02*
X121532380Y-95400666D01*
X121913333Y-95734000D01*
X121913333Y-95591142D01*
X121960952Y-95495904D01*
X122008571Y-95448285D01*
X122103809Y-95400666D01*
X122341904Y-95400666D01*
X122437142Y-95448285D01*
X122484761Y-95495904D01*
X122532380Y-95591142D01*
X122532380Y-95876857D01*
X122484761Y-95972095D01*
X122437142Y-96019714D01*
X121532380Y-94781619D02*
X121532380Y-94686380D01*
X121580000Y-94591142D01*
X121627619Y-94543523D01*
X121722857Y-94495904D01*
X121913333Y-94448285D01*
X122151428Y-94448285D01*
X122341904Y-94495904D01*
X122437142Y-94543523D01*
X122484761Y-94591142D01*
X122532380Y-94686380D01*
X122532380Y-94781619D01*
X122484761Y-94876857D01*
X122437142Y-94924476D01*
X122341904Y-94972095D01*
X122151428Y-95019714D01*
X121913333Y-95019714D01*
X121722857Y-94972095D01*
X121627619Y-94924476D01*
X121580000Y-94876857D01*
X121532380Y-94781619D01*
X121532380Y-93829238D02*
X121532380Y-93734000D01*
X121580000Y-93638761D01*
X121627619Y-93591142D01*
X121722857Y-93543523D01*
X121913333Y-93495904D01*
X122151428Y-93495904D01*
X122341904Y-93543523D01*
X122437142Y-93591142D01*
X122484761Y-93638761D01*
X122532380Y-93734000D01*
X122532380Y-93829238D01*
X122484761Y-93924476D01*
X122437142Y-93972095D01*
X122341904Y-94019714D01*
X122151428Y-94067333D01*
X121913333Y-94067333D01*
X121722857Y-94019714D01*
X121627619Y-93972095D01*
X121580000Y-93924476D01*
X121532380Y-93829238D01*
X122532380Y-93067333D02*
X121532380Y-93067333D01*
X122532380Y-92495904D02*
X121960952Y-92924476D01*
X121532380Y-92495904D02*
X122103809Y-93067333D01*
X122532380Y-89320666D02*
X122056190Y-89654000D01*
X122532380Y-89892095D02*
X121532380Y-89892095D01*
X121532380Y-89511142D01*
X121580000Y-89415904D01*
X121627619Y-89368285D01*
X121722857Y-89320666D01*
X121865714Y-89320666D01*
X121960952Y-89368285D01*
X122008571Y-89415904D01*
X122056190Y-89511142D01*
X122056190Y-89892095D01*
X121532380Y-88987333D02*
X121532380Y-88368285D01*
X121913333Y-88701619D01*
X121913333Y-88558761D01*
X121960952Y-88463523D01*
X122008571Y-88415904D01*
X122103809Y-88368285D01*
X122341904Y-88368285D01*
X122437142Y-88415904D01*
X122484761Y-88463523D01*
X122532380Y-88558761D01*
X122532380Y-88844476D01*
X122484761Y-88939714D01*
X122437142Y-88987333D01*
X119672380Y-90320666D02*
X119672380Y-90892095D01*
X119672380Y-90606380D02*
X118672380Y-90606380D01*
X118815238Y-90701619D01*
X118910476Y-90796857D01*
X118958095Y-90892095D01*
X118672380Y-89701619D02*
X118672380Y-89606380D01*
X118720000Y-89511142D01*
X118767619Y-89463523D01*
X118862857Y-89415904D01*
X119053333Y-89368285D01*
X119291428Y-89368285D01*
X119481904Y-89415904D01*
X119577142Y-89463523D01*
X119624761Y-89511142D01*
X119672380Y-89606380D01*
X119672380Y-89701619D01*
X119624761Y-89796857D01*
X119577142Y-89844476D01*
X119481904Y-89892095D01*
X119291428Y-89939714D01*
X119053333Y-89939714D01*
X118862857Y-89892095D01*
X118767619Y-89844476D01*
X118720000Y-89796857D01*
X118672380Y-89701619D01*
X118672380Y-88749238D02*
X118672380Y-88654000D01*
X118720000Y-88558761D01*
X118767619Y-88511142D01*
X118862857Y-88463523D01*
X119053333Y-88415904D01*
X119291428Y-88415904D01*
X119481904Y-88463523D01*
X119577142Y-88511142D01*
X119624761Y-88558761D01*
X119672380Y-88654000D01*
X119672380Y-88749238D01*
X119624761Y-88844476D01*
X119577142Y-88892095D01*
X119481904Y-88939714D01*
X119291428Y-88987333D01*
X119053333Y-88987333D01*
X118862857Y-88939714D01*
X118767619Y-88892095D01*
X118720000Y-88844476D01*
X118672380Y-88749238D01*
X119672380Y-87987333D02*
X118672380Y-87987333D01*
X119672380Y-87415904D02*
X119100952Y-87844476D01*
X118672380Y-87415904D02*
X119243809Y-87987333D01*
X125817333Y-142278380D02*
X125484000Y-141802190D01*
X125245904Y-142278380D02*
X125245904Y-141278380D01*
X125626857Y-141278380D01*
X125722095Y-141326000D01*
X125769714Y-141373619D01*
X125817333Y-141468857D01*
X125817333Y-141611714D01*
X125769714Y-141706952D01*
X125722095Y-141754571D01*
X125626857Y-141802190D01*
X125245904Y-141802190D01*
X126769714Y-142278380D02*
X126198285Y-142278380D01*
X126484000Y-142278380D02*
X126484000Y-141278380D01*
X126388761Y-141421238D01*
X126293523Y-141516476D01*
X126198285Y-141564095D01*
X124245904Y-144233619D02*
X124293523Y-144186000D01*
X124388761Y-144138380D01*
X124626857Y-144138380D01*
X124722095Y-144186000D01*
X124769714Y-144233619D01*
X124817333Y-144328857D01*
X124817333Y-144424095D01*
X124769714Y-144566952D01*
X124198285Y-145138380D01*
X124817333Y-145138380D01*
X125150666Y-144138380D02*
X125817333Y-144138380D01*
X125388761Y-145138380D01*
X126388761Y-144138380D02*
X126484000Y-144138380D01*
X126579238Y-144186000D01*
X126626857Y-144233619D01*
X126674476Y-144328857D01*
X126722095Y-144519333D01*
X126722095Y-144757428D01*
X126674476Y-144947904D01*
X126626857Y-145043142D01*
X126579238Y-145090761D01*
X126484000Y-145138380D01*
X126388761Y-145138380D01*
X126293523Y-145090761D01*
X126245904Y-145043142D01*
X126198285Y-144947904D01*
X126150666Y-144757428D01*
X126150666Y-144519333D01*
X126198285Y-144328857D01*
X126245904Y-144233619D01*
X126293523Y-144186000D01*
X126388761Y-144138380D01*
X127150666Y-145138380D02*
X127150666Y-144138380D01*
X127722095Y-145138380D02*
X127293523Y-144566952D01*
X127722095Y-144138380D02*
X127150666Y-144709809D01*
D14*
X179617380Y-35574523D02*
X180331666Y-35574523D01*
X180474523Y-35622142D01*
X180569761Y-35717380D01*
X180617380Y-35860238D01*
X180617380Y-35955476D01*
X180617380Y-34574523D02*
X180617380Y-35145952D01*
X180617380Y-34860238D02*
X179617380Y-34860238D01*
X179760238Y-34955476D01*
X179855476Y-35050714D01*
X179903095Y-35145952D01*
X179712619Y-34193571D02*
X179665000Y-34145952D01*
X179617380Y-34050714D01*
X179617380Y-33812619D01*
X179665000Y-33717380D01*
X179712619Y-33669761D01*
X179807857Y-33622142D01*
X179903095Y-33622142D01*
X180045952Y-33669761D01*
X180617380Y-34241190D01*
X180617380Y-33622142D01*
X168964599Y-52846951D02*
X169297932Y-52846951D01*
X169440789Y-53370760D02*
X168964599Y-53370760D01*
X168964599Y-52370760D01*
X169440789Y-52370760D01*
X169869360Y-52370760D02*
X169869360Y-53180284D01*
X169916980Y-53275522D01*
X169964599Y-53323141D01*
X170059837Y-53370760D01*
X170250313Y-53370760D01*
X170345551Y-53323141D01*
X170393170Y-53275522D01*
X170440789Y-53180284D01*
X170440789Y-52370760D01*
X171488408Y-53370760D02*
X171155075Y-52894570D01*
X170916980Y-53370760D02*
X170916980Y-52370760D01*
X171297932Y-52370760D01*
X171393170Y-52418380D01*
X171440789Y-52465999D01*
X171488408Y-52561237D01*
X171488408Y-52704094D01*
X171440789Y-52799332D01*
X171393170Y-52846951D01*
X171297932Y-52894570D01*
X170916980Y-52894570D01*
X172107456Y-52370760D02*
X172297932Y-52370760D01*
X172393170Y-52418380D01*
X172488408Y-52513618D01*
X172536027Y-52704094D01*
X172536027Y-53037427D01*
X172488408Y-53227903D01*
X172393170Y-53323141D01*
X172297932Y-53370760D01*
X172107456Y-53370760D01*
X172012218Y-53323141D01*
X171916980Y-53227903D01*
X171869360Y-53037427D01*
X171869360Y-52704094D01*
X171916980Y-52513618D01*
X172012218Y-52418380D01*
X172107456Y-52370760D01*
X172726503Y-53465999D02*
X173488408Y-53465999D01*
X173726503Y-53370760D02*
X173726503Y-52370760D01*
X174107456Y-52370760D01*
X174202694Y-52418380D01*
X174250313Y-52465999D01*
X174297932Y-52561237D01*
X174297932Y-52704094D01*
X174250313Y-52799332D01*
X174202694Y-52846951D01*
X174107456Y-52894570D01*
X173726503Y-52894570D01*
X174631265Y-52370760D02*
X174869360Y-53370760D01*
X175059837Y-52656475D01*
X175250313Y-53370760D01*
X175488408Y-52370760D01*
X176440789Y-53370760D02*
X176107456Y-52894570D01*
X175869360Y-53370760D02*
X175869360Y-52370760D01*
X176250313Y-52370760D01*
X176345551Y-52418380D01*
X176393170Y-52465999D01*
X176440789Y-52561237D01*
X176440789Y-52704094D01*
X176393170Y-52799332D01*
X176345551Y-52846951D01*
X176250313Y-52894570D01*
X175869360Y-52894570D01*
X176631265Y-53465999D02*
X177393170Y-53465999D01*
X177583646Y-52465999D02*
X177631265Y-52418380D01*
X177726503Y-52370760D01*
X177964599Y-52370760D01*
X178059837Y-52418380D01*
X178107456Y-52465999D01*
X178155075Y-52561237D01*
X178155075Y-52656475D01*
X178107456Y-52799332D01*
X177536027Y-53370760D01*
X178155075Y-53370760D01*
X178488408Y-53370760D02*
X179012218Y-52704094D01*
X178488408Y-52704094D02*
X179012218Y-53370760D01*
X179869360Y-52370760D02*
X179393170Y-52370760D01*
X179345551Y-52846951D01*
X179393170Y-52799332D01*
X179488408Y-52751713D01*
X179726503Y-52751713D01*
X179821741Y-52799332D01*
X179869360Y-52846951D01*
X179916980Y-52942189D01*
X179916980Y-53180284D01*
X179869360Y-53275522D01*
X179821741Y-53323141D01*
X179726503Y-53370760D01*
X179488408Y-53370760D01*
X179393170Y-53323141D01*
X179345551Y-53275522D01*
D13*
X173807142Y-65687142D02*
X173759523Y-65734761D01*
X173616666Y-65782380D01*
X173521428Y-65782380D01*
X173378571Y-65734761D01*
X173283333Y-65639523D01*
X173235714Y-65544285D01*
X173188095Y-65353809D01*
X173188095Y-65210952D01*
X173235714Y-65020476D01*
X173283333Y-64925238D01*
X173378571Y-64830000D01*
X173521428Y-64782380D01*
X173616666Y-64782380D01*
X173759523Y-64830000D01*
X173807142Y-64877619D01*
X174759523Y-65782380D02*
X174188095Y-65782380D01*
X174473809Y-65782380D02*
X174473809Y-64782380D01*
X174378571Y-64925238D01*
X174283333Y-65020476D01*
X174188095Y-65068095D01*
X175378571Y-64782380D02*
X175473809Y-64782380D01*
X175569047Y-64830000D01*
X175616666Y-64877619D01*
X175664285Y-64972857D01*
X175711904Y-65163333D01*
X175711904Y-65401428D01*
X175664285Y-65591904D01*
X175616666Y-65687142D01*
X175569047Y-65734761D01*
X175473809Y-65782380D01*
X175378571Y-65782380D01*
X175283333Y-65734761D01*
X175235714Y-65687142D01*
X175188095Y-65591904D01*
X175140476Y-65401428D01*
X175140476Y-65163333D01*
X175188095Y-64972857D01*
X175235714Y-64877619D01*
X175283333Y-64830000D01*
X175378571Y-64782380D01*
X173378571Y-73282380D02*
X172807142Y-73282380D01*
X173092857Y-73282380D02*
X173092857Y-72282380D01*
X172997619Y-72425238D01*
X172902380Y-72520476D01*
X172807142Y-72568095D01*
X173997619Y-72282380D02*
X174092857Y-72282380D01*
X174188095Y-72330000D01*
X174235714Y-72377619D01*
X174283333Y-72472857D01*
X174330952Y-72663333D01*
X174330952Y-72901428D01*
X174283333Y-73091904D01*
X174235714Y-73187142D01*
X174188095Y-73234761D01*
X174092857Y-73282380D01*
X173997619Y-73282380D01*
X173902380Y-73234761D01*
X173854761Y-73187142D01*
X173807142Y-73091904D01*
X173759523Y-72901428D01*
X173759523Y-72663333D01*
X173807142Y-72472857D01*
X173854761Y-72377619D01*
X173902380Y-72330000D01*
X173997619Y-72282380D01*
X175188095Y-72615714D02*
X175188095Y-73282380D01*
X174759523Y-72615714D02*
X174759523Y-73139523D01*
X174807142Y-73234761D01*
X174902380Y-73282380D01*
X175045238Y-73282380D01*
X175140476Y-73234761D01*
X175188095Y-73187142D01*
X175997619Y-72758571D02*
X175664285Y-72758571D01*
X175664285Y-73282380D02*
X175664285Y-72282380D01*
X176140476Y-72282380D01*
X174483333Y-55987142D02*
X174435714Y-56034761D01*
X174292857Y-56082380D01*
X174197619Y-56082380D01*
X174054761Y-56034761D01*
X173959523Y-55939523D01*
X173911904Y-55844285D01*
X173864285Y-55653809D01*
X173864285Y-55510952D01*
X173911904Y-55320476D01*
X173959523Y-55225238D01*
X174054761Y-55130000D01*
X174197619Y-55082380D01*
X174292857Y-55082380D01*
X174435714Y-55130000D01*
X174483333Y-55177619D01*
X175054761Y-55510952D02*
X174959523Y-55463333D01*
X174911904Y-55415714D01*
X174864285Y-55320476D01*
X174864285Y-55272857D01*
X174911904Y-55177619D01*
X174959523Y-55130000D01*
X175054761Y-55082380D01*
X175245238Y-55082380D01*
X175340476Y-55130000D01*
X175388095Y-55177619D01*
X175435714Y-55272857D01*
X175435714Y-55320476D01*
X175388095Y-55415714D01*
X175340476Y-55463333D01*
X175245238Y-55510952D01*
X175054761Y-55510952D01*
X174959523Y-55558571D01*
X174911904Y-55606190D01*
X174864285Y-55701428D01*
X174864285Y-55891904D01*
X174911904Y-55987142D01*
X174959523Y-56034761D01*
X175054761Y-56082380D01*
X175245238Y-56082380D01*
X175340476Y-56034761D01*
X175388095Y-55987142D01*
X175435714Y-55891904D01*
X175435714Y-55701428D01*
X175388095Y-55606190D01*
X175340476Y-55558571D01*
X175245238Y-55510952D01*
X173578571Y-63582380D02*
X173007142Y-63582380D01*
X173292857Y-63582380D02*
X173292857Y-62582380D01*
X173197619Y-62725238D01*
X173102380Y-62820476D01*
X173007142Y-62868095D01*
X174197619Y-62582380D02*
X174292857Y-62582380D01*
X174388095Y-62630000D01*
X174435714Y-62677619D01*
X174483333Y-62772857D01*
X174530952Y-62963333D01*
X174530952Y-63201428D01*
X174483333Y-63391904D01*
X174435714Y-63487142D01*
X174388095Y-63534761D01*
X174292857Y-63582380D01*
X174197619Y-63582380D01*
X174102380Y-63534761D01*
X174054761Y-63487142D01*
X174007142Y-63391904D01*
X173959523Y-63201428D01*
X173959523Y-62963333D01*
X174007142Y-62772857D01*
X174054761Y-62677619D01*
X174102380Y-62630000D01*
X174197619Y-62582380D01*
X175388095Y-62915714D02*
X175388095Y-63582380D01*
X174959523Y-62915714D02*
X174959523Y-63439523D01*
X175007142Y-63534761D01*
X175102380Y-63582380D01*
X175245238Y-63582380D01*
X175340476Y-63534761D01*
X175388095Y-63487142D01*
X176197619Y-63058571D02*
X175864285Y-63058571D01*
X175864285Y-63582380D02*
X175864285Y-62582380D01*
X176340476Y-62582380D01*
X117094095Y-141228380D02*
X117094095Y-142037904D01*
X117141714Y-142133142D01*
X117189333Y-142180761D01*
X117284571Y-142228380D01*
X117475047Y-142228380D01*
X117570285Y-142180761D01*
X117617904Y-142133142D01*
X117665523Y-142037904D01*
X117665523Y-141228380D01*
X118094095Y-141323619D02*
X118141714Y-141276000D01*
X118236952Y-141228380D01*
X118475047Y-141228380D01*
X118570285Y-141276000D01*
X118617904Y-141323619D01*
X118665523Y-141418857D01*
X118665523Y-141514095D01*
X118617904Y-141656952D01*
X118046476Y-142228380D01*
X118665523Y-142228380D01*
X115236952Y-119502666D02*
X115713142Y-119502666D01*
X115141714Y-119788380D02*
X115475047Y-118788380D01*
X115808380Y-119788380D01*
X116094095Y-119740761D02*
X116236952Y-119788380D01*
X116475047Y-119788380D01*
X116570285Y-119740761D01*
X116617904Y-119693142D01*
X116665523Y-119597904D01*
X116665523Y-119502666D01*
X116617904Y-119407428D01*
X116570285Y-119359809D01*
X116475047Y-119312190D01*
X116284571Y-119264571D01*
X116189333Y-119216952D01*
X116141714Y-119169333D01*
X116094095Y-119074095D01*
X116094095Y-118978857D01*
X116141714Y-118883619D01*
X116189333Y-118836000D01*
X116284571Y-118788380D01*
X116522666Y-118788380D01*
X116665523Y-118836000D01*
X116998857Y-118788380D02*
X117617904Y-118788380D01*
X117284571Y-119169333D01*
X117427428Y-119169333D01*
X117522666Y-119216952D01*
X117570285Y-119264571D01*
X117617904Y-119359809D01*
X117617904Y-119597904D01*
X117570285Y-119693142D01*
X117522666Y-119740761D01*
X117427428Y-119788380D01*
X117141714Y-119788380D01*
X117046476Y-119740761D01*
X116998857Y-119693142D01*
X117951238Y-118788380D02*
X118570285Y-118788380D01*
X118236952Y-119169333D01*
X118379809Y-119169333D01*
X118475047Y-119216952D01*
X118522666Y-119264571D01*
X118570285Y-119359809D01*
X118570285Y-119597904D01*
X118522666Y-119693142D01*
X118475047Y-119740761D01*
X118379809Y-119788380D01*
X118094095Y-119788380D01*
X117998857Y-119740761D01*
X117951238Y-119693142D01*
X119427428Y-119121714D02*
X119427428Y-119788380D01*
X119189333Y-118740761D02*
X118951238Y-119455047D01*
X119570285Y-119455047D01*
X120141714Y-118788380D02*
X120236952Y-118788380D01*
X120332190Y-118836000D01*
X120379809Y-118883619D01*
X120427428Y-118978857D01*
X120475047Y-119169333D01*
X120475047Y-119407428D01*
X120427428Y-119597904D01*
X120379809Y-119693142D01*
X120332190Y-119740761D01*
X120236952Y-119788380D01*
X120141714Y-119788380D01*
X120046476Y-119740761D01*
X119998857Y-119693142D01*
X119951238Y-119597904D01*
X119903619Y-119407428D01*
X119903619Y-119169333D01*
X119951238Y-118978857D01*
X119998857Y-118883619D01*
X120046476Y-118836000D01*
X120141714Y-118788380D01*
X173990095Y-121328380D02*
X173990095Y-122137904D01*
X174037714Y-122233142D01*
X174085333Y-122280761D01*
X174180571Y-122328380D01*
X174371047Y-122328380D01*
X174466285Y-122280761D01*
X174513904Y-122233142D01*
X174561523Y-122137904D01*
X174561523Y-121328380D01*
X175561523Y-122328380D02*
X174990095Y-122328380D01*
X175275809Y-122328380D02*
X175275809Y-121328380D01*
X175180571Y-121471238D01*
X175085333Y-121566476D01*
X174990095Y-121614095D01*
X172632952Y-141228380D02*
X173204380Y-141228380D01*
X172918666Y-142228380D02*
X172918666Y-141228380D01*
X174013904Y-142228380D02*
X173537714Y-142228380D01*
X173537714Y-141228380D01*
X174537714Y-141228380D02*
X174632952Y-141228380D01*
X174728190Y-141276000D01*
X174775809Y-141323619D01*
X174823428Y-141418857D01*
X174871047Y-141609333D01*
X174871047Y-141847428D01*
X174823428Y-142037904D01*
X174775809Y-142133142D01*
X174728190Y-142180761D01*
X174632952Y-142228380D01*
X174537714Y-142228380D01*
X174442476Y-142180761D01*
X174394857Y-142133142D01*
X174347238Y-142037904D01*
X174299619Y-141847428D01*
X174299619Y-141609333D01*
X174347238Y-141418857D01*
X174394857Y-141323619D01*
X174442476Y-141276000D01*
X174537714Y-141228380D01*
X175204380Y-141228380D02*
X175871047Y-141228380D01*
X175442476Y-142228380D01*
X176680571Y-141561714D02*
X176680571Y-142228380D01*
X176442476Y-141180761D02*
X176204380Y-141895047D01*
X176823428Y-141895047D01*
M02*
