%TF.GenerationSoftware,KiCad,Pcbnew,5.1.7*%
%TF.CreationDate,2020-10-25T10:30:05+01:00*%
%TF.ProjectId,AS3340-VCO,41533333-3430-42d5-9643-4f2e6b696361,rev?*%
%TF.SameCoordinates,Original*%
%TF.FileFunction,Copper,L1,Top*%
%TF.FilePolarity,Positive*%
%FSLAX46Y46*%
G04 Gerber Fmt 4.6, Leading zero omitted, Abs format (unit mm)*
G04 Created by KiCad (PCBNEW 5.1.7) date 2020-10-25 10:30:05*
%MOMM*%
%LPD*%
G01*
G04 APERTURE LIST*
%TA.AperFunction,SMDPad,CuDef*%
%ADD10R,4.000000X4.000000*%
%TD*%
%TA.AperFunction,ComponentPad*%
%ADD11C,1.550000*%
%TD*%
%TA.AperFunction,ComponentPad*%
%ADD12R,1.550000X1.550000*%
%TD*%
%TA.AperFunction,ComponentPad*%
%ADD13C,2.130000*%
%TD*%
%TA.AperFunction,ComponentPad*%
%ADD14R,1.930000X1.830000*%
%TD*%
%TA.AperFunction,ComponentPad*%
%ADD15O,3.240000X2.720000*%
%TD*%
%TA.AperFunction,ComponentPad*%
%ADD16C,1.800000*%
%TD*%
%TA.AperFunction,ComponentPad*%
%ADD17R,1.800000X1.800000*%
%TD*%
%TA.AperFunction,ComponentPad*%
%ADD18C,2.000000*%
%TD*%
%TA.AperFunction,ComponentPad*%
%ADD19O,1.600000X1.600000*%
%TD*%
%TA.AperFunction,ComponentPad*%
%ADD20R,1.600000X1.600000*%
%TD*%
%TA.AperFunction,ComponentPad*%
%ADD21C,1.600000*%
%TD*%
%TA.AperFunction,ComponentPad*%
%ADD22O,3.500000X2.200000*%
%TD*%
%TA.AperFunction,ComponentPad*%
%ADD23O,2.500000X1.500000*%
%TD*%
%TA.AperFunction,ComponentPad*%
%ADD24R,2.500000X1.500000*%
%TD*%
%TA.AperFunction,ViaPad*%
%ADD25C,0.800000*%
%TD*%
%TA.AperFunction,Conductor*%
%ADD26C,0.250000*%
%TD*%
G04 APERTURE END LIST*
D10*
%TO.P,TP3,1*%
%TO.N,-12V*%
X160580000Y-137320000D03*
%TD*%
%TO.P,TP2,1*%
%TO.N,GND*%
X154530000Y-137320000D03*
%TD*%
%TO.P,TP1,1*%
%TO.N,+12V*%
X148480000Y-137320000D03*
%TD*%
D11*
%TO.P,RV4,2*%
%TO.N,Net-(R1-Pad1)*%
X149190000Y-66670000D03*
D12*
%TO.P,RV4,1*%
X146690000Y-61670000D03*
D11*
%TO.P,RV4,3*%
%TO.N,+12V*%
X151690000Y-61670000D03*
%TD*%
D13*
%TO.P,J6,T*%
%TO.N,Net-(C3-Pad2)*%
X149940000Y-131170000D03*
D14*
%TO.P,J6,S*%
%TO.N,GND*%
X149940000Y-119770000D03*
D13*
%TO.P,J6,TN*%
%TO.N,N/C*%
X149940000Y-122870000D03*
%TD*%
D15*
%TO.P,RV5,*%
%TO.N,*%
X144420000Y-43820000D03*
X144420000Y-53420000D03*
D16*
%TO.P,RV5,3*%
%TO.N,+12V*%
X136920000Y-51120000D03*
%TO.P,RV5,2*%
%TO.N,Net-(RV5-Pad2)*%
X136920000Y-48620000D03*
D17*
%TO.P,RV5,1*%
%TO.N,-12V*%
X136920000Y-46120000D03*
%TD*%
D18*
%TO.P,C1,2*%
%TO.N,Net-(C1-Pad2)*%
X125350000Y-46090000D03*
%TO.P,C1,1*%
%TO.N,GND*%
X120350000Y-46090000D03*
%TD*%
%TO.P,C2,2*%
%TO.N,Net-(C2-Pad2)*%
X125350000Y-53260000D03*
%TO.P,C2,1*%
%TO.N,Net-(C2-Pad1)*%
X120350000Y-53260000D03*
%TD*%
%TO.P,C3,2*%
%TO.N,Net-(C3-Pad2)*%
X125310000Y-60230000D03*
%TO.P,C3,1*%
%TO.N,Net-(C3-Pad1)*%
X120310000Y-60230000D03*
%TD*%
%TO.P,C4,2*%
%TO.N,Net-(C4-Pad2)*%
X125275000Y-67095000D03*
%TO.P,C4,1*%
%TO.N,Net-(C4-Pad1)*%
X120275000Y-67095000D03*
%TD*%
%TO.P,C5,2*%
%TO.N,Net-(C5-Pad2)*%
X125200000Y-73980000D03*
%TO.P,C5,1*%
%TO.N,GND*%
X120200000Y-73980000D03*
%TD*%
%TO.P,C6,2*%
%TO.N,Net-(C6-Pad2)*%
X125220000Y-80860000D03*
%TO.P,C6,1*%
%TO.N,GND*%
X120220000Y-80860000D03*
%TD*%
%TO.P,C7,2*%
%TO.N,Net-(C7-Pad2)*%
X124950000Y-87560000D03*
%TO.P,C7,1*%
%TO.N,/SOFT_SYNC*%
X119950000Y-87560000D03*
%TD*%
D19*
%TO.P,D1,2*%
%TO.N,Net-(C2-Pad1)*%
X126300000Y-94490000D03*
D20*
%TO.P,D1,1*%
%TO.N,/HARD_SYNC*%
X118680000Y-94490000D03*
%TD*%
D19*
%TO.P,D2,2*%
%TO.N,/HARD_SYNC*%
X126300000Y-100960000D03*
D20*
%TO.P,D2,1*%
%TO.N,Net-(C3-Pad1)*%
X118680000Y-100960000D03*
%TD*%
D19*
%TO.P,D3,2*%
%TO.N,GND*%
X126430000Y-107180000D03*
D20*
%TO.P,D3,1*%
%TO.N,Net-(D3-Pad1)*%
X118810000Y-107180000D03*
%TD*%
D13*
%TO.P,J1,T*%
%TO.N,Net-(J1-PadT)*%
X137760000Y-70720000D03*
D14*
%TO.P,J1,S*%
%TO.N,GND*%
X137760000Y-59320000D03*
D13*
%TO.P,J1,TN*%
%TO.N,N/C*%
X137760000Y-62420000D03*
%TD*%
%TO.P,J2,T*%
%TO.N,Net-(J1-PadT)*%
X183720000Y-70810000D03*
D14*
%TO.P,J2,S*%
%TO.N,GND*%
X183720000Y-59410000D03*
D13*
%TO.P,J2,TN*%
%TO.N,N/C*%
X183720000Y-62510000D03*
%TD*%
%TO.P,J3,T*%
%TO.N,Net-(J3-PadT)*%
X137760000Y-85830000D03*
D14*
%TO.P,J3,S*%
%TO.N,GND*%
X137760000Y-74430000D03*
D13*
%TO.P,J3,TN*%
%TO.N,N/C*%
X137760000Y-77530000D03*
%TD*%
%TO.P,J4,T*%
%TO.N,Net-(J4-PadT)*%
X137760000Y-100830000D03*
D14*
%TO.P,J4,S*%
%TO.N,GND*%
X137760000Y-89430000D03*
D13*
%TO.P,J4,TN*%
%TO.N,Net-(J4-PadTN)*%
X137760000Y-92530000D03*
%TD*%
%TO.P,J5,T*%
%TO.N,Net-(C2-Pad2)*%
X137740000Y-130940000D03*
D14*
%TO.P,J5,S*%
%TO.N,GND*%
X137740000Y-119540000D03*
D13*
%TO.P,J5,TN*%
%TO.N,N/C*%
X137740000Y-122640000D03*
%TD*%
%TO.P,J7,T*%
%TO.N,Net-(C7-Pad2)*%
X137760000Y-115940000D03*
D14*
%TO.P,J7,S*%
%TO.N,GND*%
X137760000Y-104540000D03*
D13*
%TO.P,J7,TN*%
%TO.N,N/C*%
X137760000Y-107640000D03*
%TD*%
%TO.P,J8,T*%
%TO.N,Net-(J8-PadT)*%
X183650000Y-85850000D03*
D14*
%TO.P,J8,S*%
%TO.N,GND*%
X183650000Y-74450000D03*
D13*
%TO.P,J8,TN*%
%TO.N,N/C*%
X183650000Y-77550000D03*
%TD*%
%TO.P,J9,T*%
%TO.N,/SQUARE_OUT*%
X183830000Y-130640000D03*
D14*
%TO.P,J9,S*%
%TO.N,GND*%
X183830000Y-119240000D03*
D13*
%TO.P,J9,TN*%
%TO.N,N/C*%
X183830000Y-122340000D03*
%TD*%
%TO.P,J10,T*%
%TO.N,/SAWTOOTH_OUT*%
X183710000Y-115660000D03*
D14*
%TO.P,J10,S*%
%TO.N,GND*%
X183710000Y-104260000D03*
D13*
%TO.P,J10,TN*%
%TO.N,N/C*%
X183710000Y-107360000D03*
%TD*%
%TO.P,J11,T*%
%TO.N,/TRIANGLE_OUT*%
X183730000Y-100780000D03*
D14*
%TO.P,J11,S*%
%TO.N,GND*%
X183730000Y-89380000D03*
D13*
%TO.P,J11,TN*%
%TO.N,N/C*%
X183730000Y-92480000D03*
%TD*%
D21*
%TO.P,R1,1*%
%TO.N,Net-(R1-Pad1)*%
X103650000Y-44720000D03*
D19*
%TO.P,R1,2*%
%TO.N,/FREQ_CTRL*%
X113810000Y-44720000D03*
%TD*%
D21*
%TO.P,R2,1*%
%TO.N,Net-(J1-PadT)*%
X103510000Y-49730000D03*
D19*
%TO.P,R2,2*%
%TO.N,/FREQ_CTRL*%
X113670000Y-49730000D03*
%TD*%
D21*
%TO.P,R3,1*%
%TO.N,Net-(R3-Pad1)*%
X103510000Y-54790000D03*
D19*
%TO.P,R3,2*%
%TO.N,/FREQ_CTRL*%
X113670000Y-54790000D03*
%TD*%
D21*
%TO.P,R4,1*%
%TO.N,Net-(R4-Pad1)*%
X103590000Y-59930000D03*
D19*
%TO.P,R4,2*%
%TO.N,/FREQ_CTRL*%
X113750000Y-59930000D03*
%TD*%
D21*
%TO.P,R5,1*%
%TO.N,Net-(R5-Pad1)*%
X103590000Y-65060000D03*
D19*
%TO.P,R5,2*%
%TO.N,/FREQ_CTRL*%
X113750000Y-65060000D03*
%TD*%
D21*
%TO.P,R6,1*%
%TO.N,Net-(C1-Pad2)*%
X103560000Y-70180000D03*
D19*
%TO.P,R6,2*%
%TO.N,/FREQ_CTRL*%
X113720000Y-70180000D03*
%TD*%
D21*
%TO.P,R7,1*%
%TO.N,+12V*%
X103560000Y-75310000D03*
D19*
%TO.P,R7,2*%
%TO.N,Net-(R7-Pad2)*%
X113720000Y-75310000D03*
%TD*%
D21*
%TO.P,R8,1*%
%TO.N,Net-(C2-Pad1)*%
X103560000Y-80370000D03*
D19*
%TO.P,R8,2*%
%TO.N,Net-(R13-Pad1)*%
X113720000Y-80370000D03*
%TD*%
D21*
%TO.P,R9,1*%
%TO.N,GND*%
X103560000Y-85500000D03*
D19*
%TO.P,R9,2*%
%TO.N,Net-(C3-Pad1)*%
X113720000Y-85500000D03*
%TD*%
D21*
%TO.P,R10,1*%
%TO.N,/PWM*%
X103560000Y-90610000D03*
D19*
%TO.P,R10,2*%
%TO.N,Net-(R10-Pad2)*%
X113720000Y-90610000D03*
%TD*%
D21*
%TO.P,R11,1*%
%TO.N,GND*%
X103630000Y-95740000D03*
D19*
%TO.P,R11,2*%
%TO.N,/PWM*%
X113790000Y-95740000D03*
%TD*%
D21*
%TO.P,R12,1*%
%TO.N,Net-(R12-Pad1)*%
X103560000Y-100880000D03*
D19*
%TO.P,R12,2*%
%TO.N,Net-(R12-Pad2)*%
X113720000Y-100880000D03*
%TD*%
D21*
%TO.P,R13,1*%
%TO.N,Net-(R13-Pad1)*%
X103560000Y-105940000D03*
D19*
%TO.P,R13,2*%
%TO.N,Net-(R13-Pad2)*%
X113720000Y-105940000D03*
%TD*%
D21*
%TO.P,R14,1*%
%TO.N,+12V*%
X103560000Y-110990000D03*
D19*
%TO.P,R14,2*%
%TO.N,/LINEAR_FM*%
X113720000Y-110990000D03*
%TD*%
D21*
%TO.P,R15,1*%
%TO.N,Net-(C4-Pad2)*%
X103560000Y-116130000D03*
D19*
%TO.P,R15,2*%
%TO.N,/LINEAR_FM*%
X113720000Y-116130000D03*
%TD*%
D21*
%TO.P,R16,1*%
%TO.N,Net-(C5-Pad2)*%
X103560000Y-121240000D03*
D19*
%TO.P,R16,2*%
%TO.N,/LINEAR_FM*%
X113720000Y-121240000D03*
%TD*%
D21*
%TO.P,R17,1*%
%TO.N,/FREQ_CTRL*%
X103480000Y-126370000D03*
D19*
%TO.P,R17,2*%
%TO.N,Net-(R17-Pad2)*%
X113640000Y-126370000D03*
%TD*%
D21*
%TO.P,R18,1*%
%TO.N,GND*%
X103410000Y-131500000D03*
D19*
%TO.P,R18,2*%
%TO.N,Net-(R18-Pad2)*%
X113570000Y-131500000D03*
%TD*%
D21*
%TO.P,R19,1*%
%TO.N,-12V*%
X103470000Y-136590000D03*
D19*
%TO.P,R19,2*%
%TO.N,Net-(R13-Pad1)*%
X113630000Y-136590000D03*
%TD*%
D21*
%TO.P,R20,1*%
%TO.N,Net-(D3-Pad1)*%
X117840000Y-116020000D03*
D19*
%TO.P,R20,2*%
%TO.N,/SQUARE*%
X128000000Y-116020000D03*
%TD*%
D21*
%TO.P,R21,1*%
%TO.N,GND*%
X117840000Y-121240000D03*
D19*
%TO.P,R21,2*%
%TO.N,Net-(D3-Pad1)*%
X128000000Y-121240000D03*
%TD*%
D21*
%TO.P,R22,1*%
%TO.N,GND*%
X117700000Y-126330000D03*
D19*
%TO.P,R22,2*%
%TO.N,Net-(R22-Pad2)*%
X127860000Y-126330000D03*
%TD*%
D21*
%TO.P,R23,1*%
%TO.N,Net-(R22-Pad2)*%
X117700000Y-131410000D03*
D19*
%TO.P,R23,2*%
%TO.N,Net-(R23-Pad2)*%
X127860000Y-131410000D03*
%TD*%
D21*
%TO.P,R24,1*%
%TO.N,/SAWTOOTH_OUT*%
X117850000Y-136600000D03*
D19*
%TO.P,R24,2*%
%TO.N,Net-(R24-Pad2)*%
X128010000Y-136600000D03*
%TD*%
D21*
%TO.P,R25,1*%
%TO.N,/TRIANGLE_OUT*%
X148640000Y-108690000D03*
D19*
%TO.P,R25,2*%
%TO.N,Net-(R23-Pad2)*%
X158800000Y-108690000D03*
%TD*%
D21*
%TO.P,R26,1*%
%TO.N,/SQUARE_OUT*%
X148640000Y-113860000D03*
D19*
%TO.P,R26,2*%
%TO.N,Net-(R26-Pad2)*%
X158800000Y-113860000D03*
%TD*%
D15*
%TO.P,RV1,*%
%TO.N,*%
X176850000Y-43720000D03*
X176850000Y-53320000D03*
D16*
%TO.P,RV1,3*%
%TO.N,+12V*%
X169350000Y-51020000D03*
%TO.P,RV1,2*%
%TO.N,Net-(R5-Pad1)*%
X169350000Y-48520000D03*
D17*
%TO.P,RV1,1*%
%TO.N,-12V*%
X169350000Y-46020000D03*
%TD*%
D15*
%TO.P,RV2,*%
%TO.N,*%
X154380000Y-75500000D03*
X154380000Y-85100000D03*
D16*
%TO.P,RV2,3*%
%TO.N,Net-(J3-PadT)*%
X146880000Y-82800000D03*
%TO.P,RV2,2*%
%TO.N,Net-(R3-Pad1)*%
X146880000Y-80300000D03*
D17*
%TO.P,RV2,1*%
%TO.N,GND*%
X146880000Y-77800000D03*
%TD*%
D15*
%TO.P,RV3,*%
%TO.N,*%
X154040000Y-91420000D03*
X154040000Y-101020000D03*
D16*
%TO.P,RV3,3*%
%TO.N,GND*%
X146540000Y-98720000D03*
%TO.P,RV3,2*%
%TO.N,Net-(J4-PadTN)*%
X146540000Y-96220000D03*
D17*
%TO.P,RV3,1*%
%TO.N,Net-(R7-Pad2)*%
X146540000Y-93720000D03*
%TD*%
D11*
%TO.P,RV6,2*%
%TO.N,Net-(R13-Pad1)*%
X158980000Y-66470000D03*
D12*
%TO.P,RV6,1*%
%TO.N,Net-(R12-Pad2)*%
X156480000Y-61470000D03*
D11*
%TO.P,RV6,3*%
%TO.N,Net-(R13-Pad1)*%
X161480000Y-61470000D03*
%TD*%
%TO.P,RV7,2*%
%TO.N,Net-(R17-Pad2)*%
X168670000Y-66670000D03*
D12*
%TO.P,RV7,1*%
%TO.N,Net-(RV7-Pad1)*%
X166170000Y-61670000D03*
D11*
%TO.P,RV7,3*%
%TO.N,GND*%
X171170000Y-61670000D03*
%TD*%
D15*
%TO.P,RV8,*%
%TO.N,*%
X170680000Y-75270000D03*
X170680000Y-84870000D03*
D16*
%TO.P,RV8,3*%
%TO.N,Net-(J8-PadT)*%
X163180000Y-82570000D03*
%TO.P,RV8,2*%
%TO.N,Net-(C4-Pad1)*%
X163180000Y-80070000D03*
D17*
%TO.P,RV8,1*%
%TO.N,GND*%
X163180000Y-77570000D03*
%TD*%
D22*
%TO.P,SW1,*%
%TO.N,*%
X158510000Y-44450000D03*
X158510000Y-52650000D03*
D23*
%TO.P,SW1,3*%
%TO.N,Net-(RV5-Pad2)*%
X158510000Y-46550000D03*
%TO.P,SW1,2*%
%TO.N,Net-(R4-Pad1)*%
X158510000Y-48550000D03*
D24*
%TO.P,SW1,1*%
%TO.N,GND*%
X158510000Y-50550000D03*
%TD*%
D19*
%TO.P,U1,14*%
%TO.N,Net-(R10-Pad2)*%
X171420000Y-116450000D03*
%TO.P,U1,7*%
%TO.N,Net-(R26-Pad2)*%
X163800000Y-131690000D03*
%TO.P,U1,13*%
%TO.N,Net-(R10-Pad2)*%
X171420000Y-118990000D03*
%TO.P,U1,6*%
%TO.N,Net-(R26-Pad2)*%
X163800000Y-129150000D03*
%TO.P,U1,12*%
%TO.N,Net-(J4-PadT)*%
X171420000Y-121530000D03*
%TO.P,U1,5*%
%TO.N,Net-(D3-Pad1)*%
X163800000Y-126610000D03*
%TO.P,U1,11*%
%TO.N,-12V*%
X171420000Y-124070000D03*
%TO.P,U1,4*%
%TO.N,+12V*%
X163800000Y-124070000D03*
%TO.P,U1,10*%
%TO.N,/TRIANGLE*%
X171420000Y-126610000D03*
%TO.P,U1,3*%
%TO.N,/SAWTOOTH*%
X163800000Y-121530000D03*
%TO.P,U1,9*%
%TO.N,Net-(R22-Pad2)*%
X171420000Y-129150000D03*
%TO.P,U1,2*%
%TO.N,Net-(R24-Pad2)*%
X163800000Y-118990000D03*
%TO.P,U1,8*%
%TO.N,Net-(R23-Pad2)*%
X171420000Y-131690000D03*
D20*
%TO.P,U1,1*%
%TO.N,Net-(R24-Pad2)*%
X163800000Y-116450000D03*
%TD*%
D19*
%TO.P,U2,16*%
%TO.N,+12V*%
X172590000Y-91800000D03*
%TO.P,U2,8*%
%TO.N,/SAWTOOTH*%
X164970000Y-109580000D03*
%TO.P,U2,15*%
%TO.N,/FREQ_CTRL*%
X172590000Y-94340000D03*
%TO.P,U2,7*%
%TO.N,Net-(RV7-Pad1)*%
X164970000Y-107040000D03*
%TO.P,U2,14*%
%TO.N,Net-(R18-Pad2)*%
X172590000Y-96880000D03*
%TO.P,U2,6*%
%TO.N,/HARD_SYNC*%
X164970000Y-104500000D03*
%TO.P,U2,13*%
%TO.N,/LINEAR_FM*%
X172590000Y-99420000D03*
%TO.P,U2,5*%
%TO.N,/PWM*%
X164970000Y-101960000D03*
%TO.P,U2,12*%
%TO.N,GND*%
X172590000Y-101960000D03*
%TO.P,U2,4*%
%TO.N,/SQUARE*%
X164970000Y-99420000D03*
%TO.P,U2,11*%
%TO.N,Net-(C6-Pad2)*%
X172590000Y-104500000D03*
%TO.P,U2,3*%
%TO.N,Net-(R13-Pad1)*%
X164970000Y-96880000D03*
%TO.P,U2,10*%
%TO.N,/TRIANGLE*%
X172590000Y-107040000D03*
%TO.P,U2,2*%
%TO.N,Net-(R13-Pad2)*%
X164970000Y-94340000D03*
%TO.P,U2,9*%
%TO.N,/SOFT_SYNC*%
X172590000Y-109580000D03*
D20*
%TO.P,U2,1*%
%TO.N,Net-(R12-Pad1)*%
X164970000Y-91800000D03*
%TD*%
D25*
%TO.N,Net-(C6-Pad2)*%
X168993000Y-93749400D03*
%TO.N,Net-(C7-Pad2)*%
X129969000Y-92579000D03*
%TO.N,/SOFT_SYNC*%
X132997600Y-114277200D03*
%TO.N,/HARD_SYNC*%
X146439100Y-100623900D03*
%TO.N,Net-(R10-Pad2)*%
X138263100Y-96667600D03*
%TO.N,/PWM*%
X150295700Y-101390200D03*
%TO.N,Net-(R12-Pad2)*%
X130727000Y-100999600D03*
%TO.N,Net-(R17-Pad2)*%
X166901000Y-100545500D03*
%TD*%
D26*
%TO.N,GND*%
X183650000Y-74450000D02*
X183650000Y-75690300D01*
X183730000Y-89380000D02*
X183730000Y-88139700D01*
X183730000Y-88139700D02*
X185054000Y-86815700D01*
X185054000Y-86815700D02*
X185054000Y-76939300D01*
X185054000Y-76939300D02*
X183805000Y-75690300D01*
X183805000Y-75690300D02*
X183650000Y-75690300D01*
X103560000Y-85500000D02*
X104724300Y-86664300D01*
X104724300Y-86664300D02*
X104724300Y-94645700D01*
X104724300Y-94645700D02*
X103630000Y-95740000D01*
X140177800Y-93727200D02*
X136339700Y-97565300D01*
X136339700Y-97565300D02*
X136339700Y-101879400D01*
X136339700Y-101879400D02*
X137760000Y-103299700D01*
X146540000Y-98720000D02*
X141547200Y-93727200D01*
X141547200Y-93727200D02*
X140177800Y-93727200D01*
X140177800Y-93727200D02*
X140177800Y-92933100D01*
X140177800Y-92933100D02*
X137915000Y-90670300D01*
X137915000Y-90670300D02*
X137760000Y-90670300D01*
X117700000Y-126330000D02*
X115130000Y-128900000D01*
X115130000Y-128900000D02*
X106010000Y-128900000D01*
X106010000Y-128900000D02*
X103410000Y-131500000D01*
X117840000Y-121240000D02*
X117700000Y-121380000D01*
X117700000Y-121380000D02*
X117700000Y-126330000D01*
X167646900Y-58146900D02*
X171170000Y-61670000D01*
X160085300Y-50550000D02*
X160085300Y-50585300D01*
X160085300Y-50585300D02*
X167646900Y-58146900D01*
X167646900Y-58146900D02*
X163180000Y-62613800D01*
X163180000Y-62613800D02*
X163180000Y-77570000D01*
X158510000Y-50550000D02*
X160085300Y-50550000D01*
X149940000Y-119770000D02*
X149940000Y-121010300D01*
X149940000Y-121010300D02*
X150057000Y-121010300D01*
X150057000Y-121010300D02*
X154530000Y-125483300D01*
X154530000Y-125483300D02*
X154530000Y-137320000D01*
X137760000Y-89430000D02*
X137760000Y-90670300D01*
X137760000Y-89430000D02*
X137760000Y-88189700D01*
X146880000Y-77800000D02*
X146880000Y-79025300D01*
X146880000Y-79025300D02*
X146420400Y-79025300D01*
X146420400Y-79025300D02*
X145654700Y-79791000D01*
X145654700Y-79791000D02*
X145654700Y-80295000D01*
X145654700Y-80295000D02*
X137760000Y-88189700D01*
X136301700Y-59320000D02*
X133580000Y-59320000D01*
X133580000Y-59320000D02*
X120350000Y-46090000D01*
X137760000Y-59320000D02*
X136301700Y-59320000D01*
X137760000Y-73189700D02*
X136301700Y-71731400D01*
X136301700Y-71731400D02*
X136301700Y-59320000D01*
X137760000Y-74430000D02*
X137760000Y-73189700D01*
X137760000Y-104540000D02*
X137760000Y-103299700D01*
X137760000Y-105160100D02*
X137760000Y-104540000D01*
X137760000Y-105160100D02*
X137760000Y-105780300D01*
X183830000Y-119240000D02*
X183830000Y-117999700D01*
X183710000Y-104260000D02*
X183710000Y-105500300D01*
X183710000Y-105500300D02*
X183865000Y-105500300D01*
X183865000Y-105500300D02*
X185120400Y-106755700D01*
X185120400Y-106755700D02*
X185120400Y-116709300D01*
X185120400Y-116709300D02*
X183830000Y-117999700D01*
X120220000Y-80860000D02*
X120220000Y-74000000D01*
X120220000Y-74000000D02*
X120200000Y-73980000D01*
X137740000Y-119540000D02*
X137740000Y-118299700D01*
X137760000Y-105780300D02*
X137915000Y-105780300D01*
X137915000Y-105780300D02*
X139169800Y-107035100D01*
X139169800Y-107035100D02*
X139169800Y-116869900D01*
X139169800Y-116869900D02*
X137740000Y-118299700D01*
X183720000Y-59410000D02*
X183720000Y-60650300D01*
X183650000Y-74450000D02*
X183650000Y-73209700D01*
X183650000Y-73209700D02*
X182315900Y-71875600D01*
X182315900Y-71875600D02*
X182315900Y-61899400D01*
X182315900Y-61899400D02*
X183565000Y-60650300D01*
X183565000Y-60650300D02*
X183720000Y-60650300D01*
%TO.N,Net-(C1-Pad2)*%
X103560000Y-70180000D02*
X110237400Y-70180000D01*
X110237400Y-70180000D02*
X115482200Y-64935200D01*
X115482200Y-64935200D02*
X115482200Y-48440400D01*
X115482200Y-48440400D02*
X119643700Y-44278900D01*
X119643700Y-44278900D02*
X123538900Y-44278900D01*
X123538900Y-44278900D02*
X125350000Y-46090000D01*
%TO.N,Net-(C2-Pad2)*%
X137740000Y-130940000D02*
X133722900Y-126922900D01*
X133722900Y-126922900D02*
X133722900Y-113976700D01*
X133722900Y-113976700D02*
X128688900Y-108942700D01*
X128688900Y-108942700D02*
X128688900Y-66977300D01*
X128688900Y-66977300D02*
X123953500Y-62241900D01*
X123953500Y-62241900D02*
X123953500Y-54656500D01*
X123953500Y-54656500D02*
X125350000Y-53260000D01*
%TO.N,Net-(C2-Pad1)*%
X103560000Y-80370000D02*
X103560000Y-78697900D01*
X103560000Y-78697900D02*
X116624600Y-65633300D01*
X116624600Y-65633300D02*
X116624600Y-56985400D01*
X116624600Y-56985400D02*
X120350000Y-53260000D01*
%TO.N,Net-(C3-Pad1)*%
X113720000Y-85500000D02*
X113720000Y-84374700D01*
X113720000Y-84374700D02*
X118300900Y-79793800D01*
X118300900Y-79793800D02*
X118300900Y-62239100D01*
X118300900Y-62239100D02*
X120310000Y-60230000D01*
%TO.N,Net-(C3-Pad2)*%
X149940000Y-131170000D02*
X139625700Y-120855700D01*
X139625700Y-120855700D02*
X136689900Y-120855700D01*
X136689900Y-120855700D02*
X134173200Y-118339000D01*
X134173200Y-118339000D02*
X134173200Y-113738900D01*
X134173200Y-113738900D02*
X129139400Y-108705100D01*
X129139400Y-108705100D02*
X129139400Y-64059400D01*
X129139400Y-64059400D02*
X125310000Y-60230000D01*
%TO.N,Net-(C4-Pad2)*%
X103560000Y-116130000D02*
X111345300Y-108344700D01*
X111345300Y-108344700D02*
X111345300Y-95677500D01*
X111345300Y-95677500D02*
X115699600Y-91323200D01*
X115699600Y-91323200D02*
X115699600Y-87787300D01*
X115699600Y-87787300D02*
X122991500Y-80495400D01*
X122991500Y-80495400D02*
X122991500Y-69378500D01*
X122991500Y-69378500D02*
X125275000Y-67095000D01*
%TO.N,Net-(C5-Pad2)*%
X103560000Y-121240000D02*
X112594700Y-112205300D01*
X112594700Y-112205300D02*
X112594700Y-95065000D01*
X112594700Y-95065000D02*
X118157600Y-89502100D01*
X118157600Y-89502100D02*
X118157600Y-86048000D01*
X118157600Y-86048000D02*
X125200000Y-79005600D01*
X125200000Y-79005600D02*
X125200000Y-73980000D01*
%TO.N,Net-(C6-Pad2)*%
X172590000Y-104500000D02*
X172590000Y-103374700D01*
X172590000Y-103374700D02*
X172308700Y-103374700D01*
X172308700Y-103374700D02*
X168993000Y-100059000D01*
X168993000Y-100059000D02*
X168993000Y-93749400D01*
%TO.N,Net-(C7-Pad2)*%
X137760000Y-115940000D02*
X129969000Y-108149000D01*
X129969000Y-108149000D02*
X129969000Y-92579000D01*
%TO.N,/SOFT_SYNC*%
X119950000Y-87560000D02*
X119950000Y-96369400D01*
X119950000Y-96369400D02*
X128013600Y-104433000D01*
X128013600Y-104433000D02*
X128013600Y-109293200D01*
X128013600Y-109293200D02*
X132997600Y-114277200D01*
%TO.N,/HARD_SYNC*%
X164970000Y-104500000D02*
X150315200Y-104500000D01*
X150315200Y-104500000D02*
X146439100Y-100623900D01*
%TO.N,Net-(D3-Pad1)*%
X118810000Y-116020000D02*
X117840000Y-116020000D01*
X126874700Y-121240000D02*
X121654700Y-116020000D01*
X121654700Y-116020000D02*
X118810000Y-116020000D01*
X118810000Y-116020000D02*
X118810000Y-108305300D01*
X118810000Y-107180000D02*
X118810000Y-108305300D01*
X128000000Y-121240000D02*
X126874700Y-121240000D01*
%TO.N,Net-(J4-PadT)*%
X171420000Y-121530000D02*
X170294700Y-121530000D01*
X170294700Y-121530000D02*
X169112300Y-122712400D01*
X169112300Y-122712400D02*
X163378800Y-122712400D01*
X163378800Y-122712400D02*
X162674600Y-122008200D01*
X162674600Y-122008200D02*
X162674600Y-110972900D01*
X162674600Y-110972900D02*
X158934300Y-107232600D01*
X158934300Y-107232600D02*
X144162600Y-107232600D01*
X144162600Y-107232600D02*
X137760000Y-100830000D01*
%TO.N,/FREQ_CTRL*%
X113670000Y-54790000D02*
X113670000Y-49730000D01*
X113750000Y-58804700D02*
X113670000Y-58724700D01*
X113670000Y-58724700D02*
X113670000Y-54790000D01*
X113720000Y-71305300D02*
X110027900Y-74997400D01*
X110027900Y-74997400D02*
X110027900Y-91723000D01*
X110027900Y-91723000D02*
X102417200Y-99333700D01*
X102417200Y-99333700D02*
X102417200Y-125307200D01*
X102417200Y-125307200D02*
X103480000Y-126370000D01*
X113750000Y-59930000D02*
X113750000Y-58804700D01*
X113750000Y-65060000D02*
X113750000Y-59930000D01*
X113720000Y-70180000D02*
X113720000Y-71305300D01*
X113670000Y-49730000D02*
X113670000Y-48604700D01*
X113670000Y-48604700D02*
X113810000Y-48464700D01*
X113810000Y-48464700D02*
X113810000Y-44720000D01*
%TO.N,Net-(R1-Pad1)*%
X103650000Y-44720000D02*
X104819000Y-43551000D01*
X104819000Y-43551000D02*
X128239900Y-43551000D01*
X128239900Y-43551000D02*
X134558900Y-49870000D01*
X134558900Y-49870000D02*
X137424200Y-49870000D01*
X137424200Y-49870000D02*
X146690000Y-59135800D01*
X146690000Y-59135800D02*
X146690000Y-61670000D01*
X146690000Y-61670000D02*
X146690000Y-62770300D01*
X146690000Y-62770300D02*
X149190000Y-65270300D01*
X149190000Y-65270300D02*
X149190000Y-66670000D01*
%TO.N,+12V*%
X168185500Y-125680200D02*
X171065700Y-122800000D01*
X171065700Y-122800000D02*
X171805600Y-122800000D01*
X171805600Y-122800000D02*
X172592300Y-122013300D01*
X172592300Y-122013300D02*
X172592300Y-113069300D01*
X172592300Y-113069300D02*
X171445400Y-111922400D01*
X171445400Y-111922400D02*
X171445400Y-106541500D01*
X171445400Y-106541500D02*
X172216900Y-105770000D01*
X172216900Y-105770000D02*
X172966200Y-105770000D01*
X172966200Y-105770000D02*
X173715300Y-105020900D01*
X173715300Y-105020900D02*
X173715300Y-93769200D01*
X173715300Y-93769200D02*
X172871400Y-92925300D01*
X172871400Y-92925300D02*
X172590000Y-92925300D01*
X150805300Y-137320000D02*
X150805300Y-138119400D01*
X150805300Y-138119400D02*
X152331200Y-139645300D01*
X152331200Y-139645300D02*
X156679500Y-139645300D01*
X156679500Y-139645300D02*
X156957500Y-139367300D01*
X156957500Y-139367300D02*
X156957500Y-136393800D01*
X156957500Y-136393800D02*
X159736900Y-133614400D01*
X159736900Y-133614400D02*
X171146800Y-133614400D01*
X171146800Y-133614400D02*
X172592200Y-132169000D01*
X172592200Y-132169000D02*
X172592200Y-131219000D01*
X172592200Y-131219000D02*
X171793200Y-130420000D01*
X171793200Y-130420000D02*
X171093900Y-130420000D01*
X171093900Y-130420000D02*
X168185500Y-127511600D01*
X168185500Y-127511600D02*
X168185500Y-125680200D01*
X168185500Y-125680200D02*
X166254200Y-125680200D01*
X166254200Y-125680200D02*
X164644000Y-124070000D01*
X172590000Y-91800000D02*
X172590000Y-92925300D01*
X172590000Y-91800000D02*
X172590000Y-90674700D01*
X172590000Y-90674700D02*
X172671300Y-90593400D01*
X172671300Y-90593400D02*
X172671300Y-54341300D01*
X172671300Y-54341300D02*
X169350000Y-51020000D01*
X148480000Y-137320000D02*
X150805300Y-137320000D01*
X163800000Y-124070000D02*
X164644000Y-124070000D01*
X103560000Y-75310000D02*
X105744300Y-75310000D01*
X105744300Y-75310000D02*
X116157600Y-64896700D01*
X116157600Y-64896700D02*
X116157600Y-48407700D01*
X116157600Y-48407700D02*
X119836000Y-44729300D01*
X119836000Y-44729300D02*
X122108200Y-44729300D01*
X122108200Y-44729300D02*
X128498900Y-51120000D01*
X128498900Y-51120000D02*
X136920000Y-51120000D01*
%TO.N,Net-(R13-Pad1)*%
X113720000Y-80370000D02*
X113720000Y-81495300D01*
X103560000Y-105940000D02*
X110637200Y-98862800D01*
X110637200Y-98862800D02*
X110637200Y-84578100D01*
X110637200Y-84578100D02*
X113720000Y-81495300D01*
X161480000Y-61470000D02*
X161480000Y-63970000D01*
X161480000Y-63970000D02*
X158980000Y-66470000D01*
X164970000Y-96880000D02*
X164970000Y-95754700D01*
X164970000Y-95754700D02*
X164688700Y-95754700D01*
X164688700Y-95754700D02*
X158980000Y-90046000D01*
X158980000Y-90046000D02*
X158980000Y-66470000D01*
%TO.N,Net-(R10-Pad2)*%
X171420000Y-116450000D02*
X171420000Y-114428800D01*
X171420000Y-114428800D02*
X165445800Y-108454600D01*
X165445800Y-108454600D02*
X161002100Y-108454600D01*
X161002100Y-108454600D02*
X158761200Y-106213700D01*
X158761200Y-106213700D02*
X147809200Y-106213700D01*
X147809200Y-106213700D02*
X138263100Y-96667600D01*
X171420000Y-118990000D02*
X171420000Y-116450000D01*
%TO.N,/PWM*%
X163844700Y-101960000D02*
X163099300Y-102705400D01*
X163099300Y-102705400D02*
X151610900Y-102705400D01*
X151610900Y-102705400D02*
X150295700Y-101390200D01*
X164970000Y-101960000D02*
X163844700Y-101960000D01*
%TO.N,Net-(R12-Pad2)*%
X156480000Y-61470000D02*
X156480000Y-62570300D01*
X130727000Y-100999600D02*
X130727000Y-88323300D01*
X130727000Y-88323300D02*
X156480000Y-62570300D01*
%TO.N,/LINEAR_FM*%
X113720000Y-116130000D02*
X113720000Y-110990000D01*
X113720000Y-121240000D02*
X113720000Y-116130000D01*
%TO.N,Net-(R17-Pad2)*%
X168670000Y-66670000D02*
X166901000Y-68439000D01*
X166901000Y-68439000D02*
X166901000Y-100545500D01*
%TO.N,-12V*%
X171789000Y-127880000D02*
X173048200Y-129139200D01*
X173048200Y-129139200D02*
X173048200Y-132349900D01*
X173048200Y-132349900D02*
X168078100Y-137320000D01*
X168078100Y-137320000D02*
X160580000Y-137320000D01*
X171420000Y-125195300D02*
X171138700Y-125195300D01*
X171138700Y-125195300D02*
X170267100Y-126066900D01*
X170267100Y-126066900D02*
X170267100Y-127114700D01*
X170267100Y-127114700D02*
X171032400Y-127880000D01*
X171032400Y-127880000D02*
X171789000Y-127880000D01*
X171789000Y-127880000D02*
X174197600Y-125471400D01*
X174197600Y-125471400D02*
X174197600Y-51633400D01*
X174197600Y-51633400D02*
X169809500Y-47245300D01*
X169809500Y-47245300D02*
X169350000Y-47245300D01*
X169350000Y-46020000D02*
X169350000Y-47245300D01*
X171420000Y-124070000D02*
X171420000Y-125195300D01*
X103470000Y-136590000D02*
X107016400Y-140136400D01*
X107016400Y-140136400D02*
X156829700Y-140136400D01*
X156829700Y-140136400D02*
X158254700Y-138711400D01*
X158254700Y-138711400D02*
X158254700Y-137320000D01*
X160580000Y-137320000D02*
X158254700Y-137320000D01*
%TO.N,Net-(R22-Pad2)*%
X127860000Y-126330000D02*
X126734700Y-126330000D01*
X126734700Y-126330000D02*
X121654700Y-131410000D01*
X121654700Y-131410000D02*
X117700000Y-131410000D01*
%TO.N,Net-(R23-Pad2)*%
X158800000Y-108690000D02*
X158800000Y-109815300D01*
X171420000Y-131690000D02*
X170294700Y-131690000D01*
X170294700Y-131690000D02*
X170294700Y-131408700D01*
X170294700Y-131408700D02*
X164226000Y-125340000D01*
X164226000Y-125340000D02*
X163425400Y-125340000D01*
X163425400Y-125340000D02*
X159925300Y-121839900D01*
X159925300Y-121839900D02*
X159925300Y-110940600D01*
X159925300Y-110940600D02*
X158800000Y-109815300D01*
%TO.N,Net-(R24-Pad2)*%
X163800000Y-116450000D02*
X163800000Y-118990000D01*
%TO.N,Net-(R26-Pad2)*%
X163800000Y-129150000D02*
X163800000Y-128024700D01*
X163800000Y-128024700D02*
X163518700Y-128024700D01*
X163518700Y-128024700D02*
X158800000Y-123306000D01*
X158800000Y-123306000D02*
X158800000Y-113860000D01*
X163800000Y-131690000D02*
X163800000Y-129150000D01*
%TO.N,Net-(RV7-Pad1)*%
X164970000Y-107040000D02*
X164970000Y-105914700D01*
X164970000Y-105914700D02*
X165251300Y-105914700D01*
X165251300Y-105914700D02*
X166170000Y-104996000D01*
X166170000Y-104996000D02*
X166170000Y-61670000D01*
%TO.N,/SAWTOOTH*%
X163800000Y-121530000D02*
X163800000Y-120404700D01*
X164970000Y-109580000D02*
X164970000Y-119516000D01*
X164970000Y-119516000D02*
X164081300Y-120404700D01*
X164081300Y-120404700D02*
X163800000Y-120404700D01*
%TO.N,/TRIANGLE*%
X172590000Y-107040000D02*
X172590000Y-108165300D01*
X172590000Y-108165300D02*
X172871300Y-108165300D01*
X172871300Y-108165300D02*
X173727700Y-109021700D01*
X173727700Y-109021700D02*
X173727700Y-124302300D01*
X173727700Y-124302300D02*
X171420000Y-126610000D01*
%TD*%
M02*
