%TF.GenerationSoftware,KiCad,Pcbnew,5.1.7*%
%TF.CreationDate,2020-11-09T18:52:16+01:00*%
%TF.ProjectId,AS3340-VCO,41533333-3430-42d5-9643-4f2e6b696361,1*%
%TF.SameCoordinates,Original*%
%TF.FileFunction,Legend,Bot*%
%TF.FilePolarity,Positive*%
%FSLAX46Y46*%
G04 Gerber Fmt 4.6, Leading zero omitted, Abs format (unit mm)*
G04 Created by KiCad (PCBNEW 5.1.7) date 2020-11-09 18:52:16*
%MOMM*%
%LPD*%
G01*
G04 APERTURE LIST*
%ADD10C,0.300000*%
%ADD11C,0.120000*%
%ADD12C,0.150000*%
G04 APERTURE END LIST*
D10*
X174491428Y-129522142D02*
X174491428Y-128665000D01*
X172991428Y-129093571D02*
X174491428Y-129093571D01*
X172991428Y-128165000D02*
X174491428Y-128165000D01*
X172991428Y-127522142D02*
X173777142Y-127522142D01*
X173920000Y-127593571D01*
X173991428Y-127736428D01*
X173991428Y-127950714D01*
X173920000Y-128093571D01*
X173848571Y-128165000D01*
X172991428Y-126807857D02*
X173991428Y-126807857D01*
X174491428Y-126807857D02*
X174420000Y-126879285D01*
X174348571Y-126807857D01*
X174420000Y-126736428D01*
X174491428Y-126807857D01*
X174348571Y-126807857D01*
X173062857Y-126165000D02*
X172991428Y-126022142D01*
X172991428Y-125736428D01*
X173062857Y-125593571D01*
X173205714Y-125522142D01*
X173277142Y-125522142D01*
X173420000Y-125593571D01*
X173491428Y-125736428D01*
X173491428Y-125950714D01*
X173562857Y-126093571D01*
X173705714Y-126165000D01*
X173777142Y-126165000D01*
X173920000Y-126093571D01*
X173991428Y-125950714D01*
X173991428Y-125736428D01*
X173920000Y-125593571D01*
X172991428Y-123736428D02*
X173991428Y-123736428D01*
X173848571Y-123736428D02*
X173920000Y-123665000D01*
X173991428Y-123522142D01*
X173991428Y-123307857D01*
X173920000Y-123165000D01*
X173777142Y-123093571D01*
X172991428Y-123093571D01*
X173777142Y-123093571D02*
X173920000Y-123022142D01*
X173991428Y-122879285D01*
X173991428Y-122665000D01*
X173920000Y-122522142D01*
X173777142Y-122450714D01*
X172991428Y-122450714D01*
X172991428Y-121093571D02*
X173777142Y-121093571D01*
X173920000Y-121165000D01*
X173991428Y-121307857D01*
X173991428Y-121593571D01*
X173920000Y-121736428D01*
X173062857Y-121093571D02*
X172991428Y-121236428D01*
X172991428Y-121593571D01*
X173062857Y-121736428D01*
X173205714Y-121807857D01*
X173348571Y-121807857D01*
X173491428Y-121736428D01*
X173562857Y-121593571D01*
X173562857Y-121236428D01*
X173634285Y-121093571D01*
X173062857Y-119736428D02*
X172991428Y-119879285D01*
X172991428Y-120165000D01*
X173062857Y-120307857D01*
X173134285Y-120379285D01*
X173277142Y-120450714D01*
X173705714Y-120450714D01*
X173848571Y-120379285D01*
X173920000Y-120307857D01*
X173991428Y-120165000D01*
X173991428Y-119879285D01*
X173920000Y-119736428D01*
X172991428Y-119093571D02*
X174491428Y-119093571D01*
X172991428Y-118450714D02*
X173777142Y-118450714D01*
X173920000Y-118522142D01*
X173991428Y-118665000D01*
X173991428Y-118879285D01*
X173920000Y-119022142D01*
X173848571Y-119093571D01*
X172991428Y-117736428D02*
X173991428Y-117736428D01*
X174491428Y-117736428D02*
X174420000Y-117807857D01*
X174348571Y-117736428D01*
X174420000Y-117665000D01*
X174491428Y-117736428D01*
X174348571Y-117736428D01*
X173991428Y-117022142D02*
X172991428Y-117022142D01*
X173848571Y-117022142D02*
X173920000Y-116950714D01*
X173991428Y-116807857D01*
X173991428Y-116593571D01*
X173920000Y-116450714D01*
X173777142Y-116379285D01*
X172991428Y-116379285D01*
X173062857Y-115093571D02*
X172991428Y-115236428D01*
X172991428Y-115522142D01*
X173062857Y-115665000D01*
X173205714Y-115736428D01*
X173777142Y-115736428D01*
X173920000Y-115665000D01*
X173991428Y-115522142D01*
X173991428Y-115236428D01*
X173920000Y-115093571D01*
X173777142Y-115022142D01*
X173634285Y-115022142D01*
X173491428Y-115736428D01*
X172991428Y-113236428D02*
X174491428Y-113236428D01*
X173562857Y-113093571D02*
X172991428Y-112665000D01*
X173991428Y-112665000D02*
X173420000Y-113236428D01*
X172991428Y-112022142D02*
X173991428Y-112022142D01*
X174491428Y-112022142D02*
X174420000Y-112093571D01*
X174348571Y-112022142D01*
X174420000Y-111950714D01*
X174491428Y-112022142D01*
X174348571Y-112022142D01*
X172991428Y-111093571D02*
X173062857Y-111236428D01*
X173205714Y-111307857D01*
X174491428Y-111307857D01*
X172991428Y-110307857D02*
X173062857Y-110450714D01*
X173205714Y-110522142D01*
X174491428Y-110522142D01*
X173062857Y-109807857D02*
X172991428Y-109665000D01*
X172991428Y-109379285D01*
X173062857Y-109236428D01*
X173205714Y-109165000D01*
X173277142Y-109165000D01*
X173420000Y-109236428D01*
X173491428Y-109379285D01*
X173491428Y-109593571D01*
X173562857Y-109736428D01*
X173705714Y-109807857D01*
X173777142Y-109807857D01*
X173920000Y-109736428D01*
X173991428Y-109593571D01*
X173991428Y-109379285D01*
X173920000Y-109236428D01*
X173991428Y-107593571D02*
X173991428Y-107022142D01*
X172991428Y-107379285D02*
X174277142Y-107379285D01*
X174420000Y-107307857D01*
X174491428Y-107165000D01*
X174491428Y-107022142D01*
X172991428Y-105879285D02*
X173777142Y-105879285D01*
X173920000Y-105950714D01*
X173991428Y-106093571D01*
X173991428Y-106379285D01*
X173920000Y-106522142D01*
X173062857Y-105879285D02*
X172991428Y-106022142D01*
X172991428Y-106379285D01*
X173062857Y-106522142D01*
X173205714Y-106593571D01*
X173348571Y-106593571D01*
X173491428Y-106522142D01*
X173562857Y-106379285D01*
X173562857Y-106022142D01*
X173634285Y-105879285D01*
X173062857Y-105236428D02*
X172991428Y-105093571D01*
X172991428Y-104807857D01*
X173062857Y-104665000D01*
X173205714Y-104593571D01*
X173277142Y-104593571D01*
X173420000Y-104665000D01*
X173491428Y-104807857D01*
X173491428Y-105022142D01*
X173562857Y-105165000D01*
X173705714Y-105236428D01*
X173777142Y-105236428D01*
X173920000Y-105165000D01*
X173991428Y-105022142D01*
X173991428Y-104807857D01*
X173920000Y-104665000D01*
X173062857Y-103307857D02*
X172991428Y-103450714D01*
X172991428Y-103736428D01*
X173062857Y-103879285D01*
X173134285Y-103950714D01*
X173277142Y-104022142D01*
X173705714Y-104022142D01*
X173848571Y-103950714D01*
X173920000Y-103879285D01*
X173991428Y-103736428D01*
X173991428Y-103450714D01*
X173920000Y-103307857D01*
X172991428Y-102665000D02*
X173991428Y-102665000D01*
X174491428Y-102665000D02*
X174420000Y-102736428D01*
X174348571Y-102665000D01*
X174420000Y-102593571D01*
X174491428Y-102665000D01*
X174348571Y-102665000D01*
X173062857Y-102022142D02*
X172991428Y-101879285D01*
X172991428Y-101593571D01*
X173062857Y-101450714D01*
X173205714Y-101379285D01*
X173277142Y-101379285D01*
X173420000Y-101450714D01*
X173491428Y-101593571D01*
X173491428Y-101807857D01*
X173562857Y-101950714D01*
X173705714Y-102022142D01*
X173777142Y-102022142D01*
X173920000Y-101950714D01*
X173991428Y-101807857D01*
X173991428Y-101593571D01*
X173920000Y-101450714D01*
X173991428Y-100950714D02*
X173991428Y-100379285D01*
X174491428Y-100736428D02*
X173205714Y-100736428D01*
X173062857Y-100665000D01*
X172991428Y-100522142D01*
X172991428Y-100379285D01*
X173062857Y-99950714D02*
X172991428Y-99807857D01*
X172991428Y-99522142D01*
X173062857Y-99379285D01*
X173205714Y-99307857D01*
X173277142Y-99307857D01*
X173420000Y-99379285D01*
X173491428Y-99522142D01*
X173491428Y-99736428D01*
X173562857Y-99879285D01*
X173705714Y-99950714D01*
X173777142Y-99950714D01*
X173920000Y-99879285D01*
X173991428Y-99736428D01*
X173991428Y-99522142D01*
X173920000Y-99379285D01*
X173134285Y-98665000D02*
X173062857Y-98593571D01*
X172991428Y-98665000D01*
X173062857Y-98736428D01*
X173134285Y-98665000D01*
X172991428Y-98665000D01*
X177092857Y-50079285D02*
X177021428Y-49865000D01*
X177021428Y-49507857D01*
X177092857Y-49365000D01*
X177164285Y-49293571D01*
X177307142Y-49222142D01*
X177450000Y-49222142D01*
X177592857Y-49293571D01*
X177664285Y-49365000D01*
X177735714Y-49507857D01*
X177807142Y-49793571D01*
X177878571Y-49936428D01*
X177950000Y-50007857D01*
X178092857Y-50079285D01*
X178235714Y-50079285D01*
X178378571Y-50007857D01*
X178450000Y-49936428D01*
X178521428Y-49793571D01*
X178521428Y-49436428D01*
X178450000Y-49222142D01*
X177092857Y-48007857D02*
X177021428Y-48150714D01*
X177021428Y-48436428D01*
X177092857Y-48579285D01*
X177235714Y-48650714D01*
X177807142Y-48650714D01*
X177950000Y-48579285D01*
X178021428Y-48436428D01*
X178021428Y-48150714D01*
X177950000Y-48007857D01*
X177807142Y-47936428D01*
X177664285Y-47936428D01*
X177521428Y-48650714D01*
X177021428Y-46650714D02*
X177807142Y-46650714D01*
X177950000Y-46722142D01*
X178021428Y-46865000D01*
X178021428Y-47150714D01*
X177950000Y-47293571D01*
X177092857Y-46650714D02*
X177021428Y-46793571D01*
X177021428Y-47150714D01*
X177092857Y-47293571D01*
X177235714Y-47365000D01*
X177378571Y-47365000D01*
X177521428Y-47293571D01*
X177592857Y-47150714D01*
X177592857Y-46793571D01*
X177664285Y-46650714D01*
X178021428Y-46150714D02*
X178021428Y-45579285D01*
X178521428Y-45936428D02*
X177235714Y-45936428D01*
X177092857Y-45865000D01*
X177021428Y-45722142D01*
X177021428Y-45579285D01*
X178021428Y-45293571D02*
X178021428Y-44722142D01*
X178521428Y-45079285D02*
X177235714Y-45079285D01*
X177092857Y-45007857D01*
X177021428Y-44865000D01*
X177021428Y-44722142D01*
X177021428Y-44007857D02*
X177092857Y-44150714D01*
X177235714Y-44222142D01*
X178521428Y-44222142D01*
X177092857Y-42865000D02*
X177021428Y-43007857D01*
X177021428Y-43293571D01*
X177092857Y-43436428D01*
X177235714Y-43507857D01*
X177807142Y-43507857D01*
X177950000Y-43436428D01*
X178021428Y-43293571D01*
X178021428Y-43007857D01*
X177950000Y-42865000D01*
X177807142Y-42793571D01*
X177664285Y-42793571D01*
X177521428Y-43507857D01*
X177092857Y-41079285D02*
X177021428Y-40865000D01*
X177021428Y-40507857D01*
X177092857Y-40365000D01*
X177164285Y-40293571D01*
X177307142Y-40222142D01*
X177450000Y-40222142D01*
X177592857Y-40293571D01*
X177664285Y-40365000D01*
X177735714Y-40507857D01*
X177807142Y-40793571D01*
X177878571Y-40936428D01*
X177950000Y-41007857D01*
X178092857Y-41079285D01*
X178235714Y-41079285D01*
X178378571Y-41007857D01*
X178450000Y-40936428D01*
X178521428Y-40793571D01*
X178521428Y-40436428D01*
X178450000Y-40222142D01*
X178021428Y-39722142D02*
X177021428Y-39365000D01*
X178021428Y-39007857D02*
X177021428Y-39365000D01*
X176664285Y-39507857D01*
X176592857Y-39579285D01*
X176521428Y-39722142D01*
X178021428Y-38436428D02*
X177021428Y-38436428D01*
X177878571Y-38436428D02*
X177950000Y-38365000D01*
X178021428Y-38222142D01*
X178021428Y-38007857D01*
X177950000Y-37865000D01*
X177807142Y-37793571D01*
X177021428Y-37793571D01*
X178021428Y-37293571D02*
X178021428Y-36722142D01*
X178521428Y-37079285D02*
X177235714Y-37079285D01*
X177092857Y-37007857D01*
X177021428Y-36865000D01*
X177021428Y-36722142D01*
X177021428Y-36222142D02*
X178521428Y-36222142D01*
X177021428Y-35579285D02*
X177807142Y-35579285D01*
X177950000Y-35650714D01*
X178021428Y-35793571D01*
X178021428Y-36007857D01*
X177950000Y-36150714D01*
X177878571Y-36222142D01*
X177092857Y-34936428D02*
X177021428Y-34793571D01*
X177021428Y-34507857D01*
X177092857Y-34365000D01*
X177235714Y-34293571D01*
X177307142Y-34293571D01*
X177450000Y-34365000D01*
X177521428Y-34507857D01*
X177521428Y-34722142D01*
X177592857Y-34865000D01*
X177735714Y-34936428D01*
X177807142Y-34936428D01*
X177950000Y-34865000D01*
X178021428Y-34722142D01*
X178021428Y-34507857D01*
X177950000Y-34365000D01*
X174542857Y-50079285D02*
X174471428Y-49865000D01*
X174471428Y-49507857D01*
X174542857Y-49365000D01*
X174614285Y-49293571D01*
X174757142Y-49222142D01*
X174900000Y-49222142D01*
X175042857Y-49293571D01*
X175114285Y-49365000D01*
X175185714Y-49507857D01*
X175257142Y-49793571D01*
X175328571Y-49936428D01*
X175400000Y-50007857D01*
X175542857Y-50079285D01*
X175685714Y-50079285D01*
X175828571Y-50007857D01*
X175900000Y-49936428D01*
X175971428Y-49793571D01*
X175971428Y-49436428D01*
X175900000Y-49222142D01*
X174542857Y-48650714D02*
X174471428Y-48436428D01*
X174471428Y-48079285D01*
X174542857Y-47936428D01*
X174614285Y-47865000D01*
X174757142Y-47793571D01*
X174900000Y-47793571D01*
X175042857Y-47865000D01*
X175114285Y-47936428D01*
X175185714Y-48079285D01*
X175257142Y-48365000D01*
X175328571Y-48507857D01*
X175400000Y-48579285D01*
X175542857Y-48650714D01*
X175685714Y-48650714D01*
X175828571Y-48579285D01*
X175900000Y-48507857D01*
X175971428Y-48365000D01*
X175971428Y-48007857D01*
X175900000Y-47793571D01*
X175042857Y-47150714D02*
X175042857Y-46007857D01*
X175971428Y-45507857D02*
X174471428Y-45007857D01*
X175971428Y-44507857D01*
X174614285Y-43150714D02*
X174542857Y-43222142D01*
X174471428Y-43436428D01*
X174471428Y-43579285D01*
X174542857Y-43793571D01*
X174685714Y-43936428D01*
X174828571Y-44007857D01*
X175114285Y-44079285D01*
X175328571Y-44079285D01*
X175614285Y-44007857D01*
X175757142Y-43936428D01*
X175900000Y-43793571D01*
X175971428Y-43579285D01*
X175971428Y-43436428D01*
X175900000Y-43222142D01*
X175828571Y-43150714D01*
X175971428Y-42222142D02*
X175971428Y-41936428D01*
X175900000Y-41793571D01*
X175757142Y-41650714D01*
X175471428Y-41579285D01*
X174971428Y-41579285D01*
X174685714Y-41650714D01*
X174542857Y-41793571D01*
X174471428Y-41936428D01*
X174471428Y-42222142D01*
X174542857Y-42365000D01*
X174685714Y-42507857D01*
X174971428Y-42579285D01*
X175471428Y-42579285D01*
X175757142Y-42507857D01*
X175900000Y-42365000D01*
X175971428Y-42222142D01*
X175042857Y-40936428D02*
X175042857Y-39793571D01*
X174471428Y-38293571D02*
X174471428Y-39150714D01*
X174471428Y-38722142D02*
X175971428Y-38722142D01*
X175757142Y-38865000D01*
X175614285Y-39007857D01*
X175542857Y-39150714D01*
X171921428Y-49150714D02*
X172635714Y-49650714D01*
X171921428Y-50007857D02*
X173421428Y-50007857D01*
X173421428Y-49436428D01*
X173350000Y-49293571D01*
X173278571Y-49222142D01*
X173135714Y-49150714D01*
X172921428Y-49150714D01*
X172778571Y-49222142D01*
X172707142Y-49293571D01*
X172635714Y-49436428D01*
X172635714Y-50007857D01*
X171992857Y-47936428D02*
X171921428Y-48079285D01*
X171921428Y-48365000D01*
X171992857Y-48507857D01*
X172135714Y-48579285D01*
X172707142Y-48579285D01*
X172850000Y-48507857D01*
X172921428Y-48365000D01*
X172921428Y-48079285D01*
X172850000Y-47936428D01*
X172707142Y-47865000D01*
X172564285Y-47865000D01*
X172421428Y-48579285D01*
X172921428Y-47365000D02*
X171921428Y-47007857D01*
X172921428Y-46650714D01*
X172064285Y-46079285D02*
X171992857Y-46007857D01*
X171921428Y-46079285D01*
X171992857Y-46150714D01*
X172064285Y-46079285D01*
X171921428Y-46079285D01*
X171921428Y-43436428D02*
X171921428Y-44293571D01*
X171921428Y-43865000D02*
X173421428Y-43865000D01*
X173207142Y-44007857D01*
X173064285Y-44150714D01*
X172992857Y-44293571D01*
X171421428Y-41222142D02*
X171421428Y-41579285D01*
X173564285Y-41579285D01*
X173564285Y-41222142D01*
X173278571Y-40722142D02*
X173350000Y-40650714D01*
X173421428Y-40507857D01*
X173421428Y-40150714D01*
X173350000Y-40007857D01*
X173278571Y-39936428D01*
X173135714Y-39865000D01*
X172992857Y-39865000D01*
X172778571Y-39936428D01*
X171921428Y-40793571D01*
X171921428Y-39865000D01*
X173421428Y-38936428D02*
X173421428Y-38793571D01*
X173350000Y-38650714D01*
X173278571Y-38579285D01*
X173135714Y-38507857D01*
X172850000Y-38436428D01*
X172492857Y-38436428D01*
X172207142Y-38507857D01*
X172064285Y-38579285D01*
X171992857Y-38650714D01*
X171921428Y-38793571D01*
X171921428Y-38936428D01*
X171992857Y-39079285D01*
X172064285Y-39150714D01*
X172207142Y-39222142D01*
X172492857Y-39293571D01*
X172850000Y-39293571D01*
X173135714Y-39222142D01*
X173278571Y-39150714D01*
X173350000Y-39079285D01*
X173421428Y-38936428D01*
X173278571Y-37865000D02*
X173350000Y-37793571D01*
X173421428Y-37650714D01*
X173421428Y-37293571D01*
X173350000Y-37150714D01*
X173278571Y-37079285D01*
X173135714Y-37007857D01*
X172992857Y-37007857D01*
X172778571Y-37079285D01*
X171921428Y-37936428D01*
X171921428Y-37007857D01*
X173421428Y-36079285D02*
X173421428Y-35936428D01*
X173350000Y-35793571D01*
X173278571Y-35722142D01*
X173135714Y-35650714D01*
X172850000Y-35579285D01*
X172492857Y-35579285D01*
X172207142Y-35650714D01*
X172064285Y-35722142D01*
X171992857Y-35793571D01*
X171921428Y-35936428D01*
X171921428Y-36079285D01*
X171992857Y-36222142D01*
X172064285Y-36293571D01*
X172207142Y-36365000D01*
X172492857Y-36436428D01*
X172850000Y-36436428D01*
X173135714Y-36365000D01*
X173278571Y-36293571D01*
X173350000Y-36222142D01*
X173421428Y-36079285D01*
X172492857Y-34936428D02*
X172492857Y-33793571D01*
X171921428Y-32293571D02*
X171921428Y-33150714D01*
X171921428Y-32722142D02*
X173421428Y-32722142D01*
X173207142Y-32865000D01*
X173064285Y-33007857D01*
X172992857Y-33150714D01*
X171921428Y-30865000D02*
X171921428Y-31722142D01*
X171921428Y-31293571D02*
X173421428Y-31293571D01*
X173207142Y-31436428D01*
X173064285Y-31579285D01*
X172992857Y-31722142D01*
X172492857Y-30222142D02*
X172492857Y-29079285D01*
X173421428Y-28079285D02*
X173421428Y-27936428D01*
X173350000Y-27793571D01*
X173278571Y-27722142D01*
X173135714Y-27650714D01*
X172850000Y-27579285D01*
X172492857Y-27579285D01*
X172207142Y-27650714D01*
X172064285Y-27722142D01*
X171992857Y-27793571D01*
X171921428Y-27936428D01*
X171921428Y-28079285D01*
X171992857Y-28222142D01*
X172064285Y-28293571D01*
X172207142Y-28365000D01*
X172492857Y-28436428D01*
X172850000Y-28436428D01*
X173135714Y-28365000D01*
X173278571Y-28293571D01*
X173350000Y-28222142D01*
X173421428Y-28079285D01*
X172778571Y-26722142D02*
X172850000Y-26865000D01*
X172921428Y-26936428D01*
X173064285Y-27007857D01*
X173135714Y-27007857D01*
X173278571Y-26936428D01*
X173350000Y-26865000D01*
X173421428Y-26722142D01*
X173421428Y-26436428D01*
X173350000Y-26293571D01*
X173278571Y-26222142D01*
X173135714Y-26150714D01*
X173064285Y-26150714D01*
X172921428Y-26222142D01*
X172850000Y-26293571D01*
X172778571Y-26436428D01*
X172778571Y-26722142D01*
X172707142Y-26865000D01*
X172635714Y-26936428D01*
X172492857Y-27007857D01*
X172207142Y-27007857D01*
X172064285Y-26936428D01*
X171992857Y-26865000D01*
X171921428Y-26722142D01*
X171921428Y-26436428D01*
X171992857Y-26293571D01*
X172064285Y-26222142D01*
X172207142Y-26150714D01*
X172492857Y-26150714D01*
X172635714Y-26222142D01*
X172707142Y-26293571D01*
X172778571Y-26436428D01*
X171421428Y-25650714D02*
X171421428Y-25293571D01*
X173564285Y-25293571D01*
X173564285Y-25650714D01*
D11*
%TO.C,SW1*%
X150932654Y-110310000D02*
G75*
G03*
X150932654Y-110310000I-3702654J0D01*
G01*
X147230000Y-107135000D02*
X144055000Y-108405000D01*
X150405000Y-108405000D02*
X147230000Y-107135000D01*
X150405000Y-112215000D02*
X150405000Y-108405000D01*
X147230000Y-113485000D02*
X150405000Y-112215000D01*
X144055000Y-112215000D02*
X147230000Y-113485000D01*
X144055000Y-108405000D02*
X144055000Y-112215000D01*
X151675000Y-103325000D02*
X142785000Y-103325000D01*
X151675000Y-117295000D02*
X151675000Y-103325000D01*
X142785000Y-117295000D02*
X151675000Y-117295000D01*
X142785000Y-103325000D02*
X142785000Y-117295000D01*
%TO.C,RV8*%
X154250000Y-58660000D02*
X163990000Y-58660000D01*
X154250000Y-70250000D02*
X155740000Y-70250000D01*
X154250000Y-61720000D02*
X154250000Y-58660000D01*
X164000000Y-70250000D02*
X164000000Y-65530000D01*
X163990000Y-61720000D02*
X163990000Y-58660000D01*
X154250000Y-70250000D02*
X154250000Y-65530000D01*
X162810000Y-70250000D02*
X163990000Y-70250000D01*
X159910000Y-70250000D02*
X160440000Y-70250000D01*
X157460000Y-70250000D02*
X158290000Y-70250000D01*
%TO.C,RV5*%
X129680000Y-30240000D02*
X139420000Y-30240000D01*
X129680000Y-41830000D02*
X131170000Y-41830000D01*
X129680000Y-33300000D02*
X129680000Y-30240000D01*
X139430000Y-41830000D02*
X139430000Y-37110000D01*
X139420000Y-33300000D02*
X139420000Y-30240000D01*
X129680000Y-41830000D02*
X129680000Y-37110000D01*
X138240000Y-41830000D02*
X139420000Y-41830000D01*
X135340000Y-41830000D02*
X135870000Y-41830000D01*
X132890000Y-41830000D02*
X133720000Y-41830000D01*
%TO.C,RV3*%
X142300000Y-77410000D02*
X152040000Y-77410000D01*
X142300000Y-89000000D02*
X143790000Y-89000000D01*
X142300000Y-80470000D02*
X142300000Y-77410000D01*
X152050000Y-89000000D02*
X152050000Y-84280000D01*
X152040000Y-80470000D02*
X152040000Y-77410000D01*
X142300000Y-89000000D02*
X142300000Y-84280000D01*
X150860000Y-89000000D02*
X152040000Y-89000000D01*
X147960000Y-89000000D02*
X148490000Y-89000000D01*
X145510000Y-89000000D02*
X146340000Y-89000000D01*
%TO.C,RV2*%
X129680000Y-58700000D02*
X139420000Y-58700000D01*
X129680000Y-70290000D02*
X131170000Y-70290000D01*
X129680000Y-61760000D02*
X129680000Y-58700000D01*
X139430000Y-70290000D02*
X139430000Y-65570000D01*
X139420000Y-61760000D02*
X139420000Y-58700000D01*
X129680000Y-70290000D02*
X129680000Y-65570000D01*
X138240000Y-70290000D02*
X139420000Y-70290000D01*
X135340000Y-70290000D02*
X135870000Y-70290000D01*
X132890000Y-70290000D02*
X133720000Y-70290000D01*
%TO.C,RV1*%
X154350000Y-30350000D02*
X164090000Y-30350000D01*
X154350000Y-41940000D02*
X155840000Y-41940000D01*
X154350000Y-33410000D02*
X154350000Y-30350000D01*
X164100000Y-41940000D02*
X164100000Y-37220000D01*
X164090000Y-33410000D02*
X164090000Y-30350000D01*
X154350000Y-41940000D02*
X154350000Y-37220000D01*
X162910000Y-41940000D02*
X164090000Y-41940000D01*
X160010000Y-41940000D02*
X160540000Y-41940000D01*
X157560000Y-41940000D02*
X158390000Y-41940000D01*
%TO.C,J11*%
X162170000Y-104410000D02*
X161310000Y-104410000D01*
X162170000Y-104410000D02*
X162170000Y-105210000D01*
X162910000Y-111890000D02*
G75*
G03*
X162910000Y-111890000I-1800000J0D01*
G01*
X161460000Y-107390000D02*
X165610000Y-107390000D01*
X156610000Y-107390000D02*
X160760000Y-107390000D01*
X161610000Y-117890000D02*
X165610000Y-117890000D01*
X156610000Y-117890000D02*
X160610000Y-117890000D01*
X156610000Y-107390000D02*
X156610000Y-117890000D01*
X165610000Y-107390000D02*
X165610000Y-117890000D01*
%TO.C,J10*%
X162150000Y-119290000D02*
X161290000Y-119290000D01*
X162150000Y-119290000D02*
X162150000Y-120090000D01*
X162890000Y-126770000D02*
G75*
G03*
X162890000Y-126770000I-1800000J0D01*
G01*
X161440000Y-122270000D02*
X165590000Y-122270000D01*
X156590000Y-122270000D02*
X160740000Y-122270000D01*
X161590000Y-132770000D02*
X165590000Y-132770000D01*
X156590000Y-132770000D02*
X160590000Y-132770000D01*
X156590000Y-122270000D02*
X156590000Y-132770000D01*
X165590000Y-122270000D02*
X165590000Y-132770000D01*
%TO.C,J9*%
X162270000Y-134270000D02*
X161410000Y-134270000D01*
X162270000Y-134270000D02*
X162270000Y-135070000D01*
X163010000Y-141750000D02*
G75*
G03*
X163010000Y-141750000I-1800000J0D01*
G01*
X161560000Y-137250000D02*
X165710000Y-137250000D01*
X156710000Y-137250000D02*
X160860000Y-137250000D01*
X161710000Y-147750000D02*
X165710000Y-147750000D01*
X156710000Y-147750000D02*
X160710000Y-147750000D01*
X156710000Y-137250000D02*
X156710000Y-147750000D01*
X165710000Y-137250000D02*
X165710000Y-147750000D01*
%TO.C,J8*%
X162090000Y-89480000D02*
X161230000Y-89480000D01*
X162090000Y-89480000D02*
X162090000Y-90280000D01*
X162830000Y-96960000D02*
G75*
G03*
X162830000Y-96960000I-1800000J0D01*
G01*
X161380000Y-92460000D02*
X165530000Y-92460000D01*
X156530000Y-92460000D02*
X160680000Y-92460000D01*
X161530000Y-102960000D02*
X165530000Y-102960000D01*
X156530000Y-102960000D02*
X160530000Y-102960000D01*
X156530000Y-92460000D02*
X156530000Y-102960000D01*
X165530000Y-92460000D02*
X165530000Y-102960000D01*
%TO.C,J7*%
X133990000Y-119180000D02*
X133130000Y-119180000D01*
X133990000Y-119180000D02*
X133990000Y-119980000D01*
X134730000Y-126660000D02*
G75*
G03*
X134730000Y-126660000I-1800000J0D01*
G01*
X133280000Y-122160000D02*
X137430000Y-122160000D01*
X128430000Y-122160000D02*
X132580000Y-122160000D01*
X133430000Y-132660000D02*
X137430000Y-132660000D01*
X128430000Y-132660000D02*
X132430000Y-132660000D01*
X128430000Y-122160000D02*
X128430000Y-132660000D01*
X137430000Y-122160000D02*
X137430000Y-132660000D01*
%TO.C,J6*%
X148070000Y-128700000D02*
X147210000Y-128700000D01*
X148070000Y-128700000D02*
X148070000Y-129500000D01*
X148810000Y-136180000D02*
G75*
G03*
X148810000Y-136180000I-1800000J0D01*
G01*
X147360000Y-131680000D02*
X151510000Y-131680000D01*
X142510000Y-131680000D02*
X146660000Y-131680000D01*
X147510000Y-142180000D02*
X151510000Y-142180000D01*
X142510000Y-142180000D02*
X146510000Y-142180000D01*
X142510000Y-131680000D02*
X142510000Y-142180000D01*
X151510000Y-131680000D02*
X151510000Y-142180000D01*
%TO.C,J5*%
X133970000Y-134180000D02*
X133110000Y-134180000D01*
X133970000Y-134180000D02*
X133970000Y-134980000D01*
X134710000Y-141660000D02*
G75*
G03*
X134710000Y-141660000I-1800000J0D01*
G01*
X133260000Y-137160000D02*
X137410000Y-137160000D01*
X128410000Y-137160000D02*
X132560000Y-137160000D01*
X133410000Y-147660000D02*
X137410000Y-147660000D01*
X128410000Y-147660000D02*
X132410000Y-147660000D01*
X128410000Y-137160000D02*
X128410000Y-147660000D01*
X137410000Y-137160000D02*
X137410000Y-147660000D01*
%TO.C,J4*%
X133990000Y-104070000D02*
X133130000Y-104070000D01*
X133990000Y-104070000D02*
X133990000Y-104870000D01*
X134730000Y-111550000D02*
G75*
G03*
X134730000Y-111550000I-1800000J0D01*
G01*
X133280000Y-107050000D02*
X137430000Y-107050000D01*
X128430000Y-107050000D02*
X132580000Y-107050000D01*
X133430000Y-117550000D02*
X137430000Y-117550000D01*
X128430000Y-117550000D02*
X132430000Y-117550000D01*
X128430000Y-107050000D02*
X128430000Y-117550000D01*
X137430000Y-107050000D02*
X137430000Y-117550000D01*
%TO.C,J3*%
X133990000Y-89070000D02*
X133130000Y-89070000D01*
X133990000Y-89070000D02*
X133990000Y-89870000D01*
X134730000Y-96550000D02*
G75*
G03*
X134730000Y-96550000I-1800000J0D01*
G01*
X133280000Y-92050000D02*
X137430000Y-92050000D01*
X128430000Y-92050000D02*
X132580000Y-92050000D01*
X133430000Y-102550000D02*
X137430000Y-102550000D01*
X128430000Y-102550000D02*
X132430000Y-102550000D01*
X128430000Y-92050000D02*
X128430000Y-102550000D01*
X137430000Y-92050000D02*
X137430000Y-102550000D01*
%TO.C,J2*%
X162160000Y-74440000D02*
X161300000Y-74440000D01*
X162160000Y-74440000D02*
X162160000Y-75240000D01*
X162900000Y-81920000D02*
G75*
G03*
X162900000Y-81920000I-1800000J0D01*
G01*
X161450000Y-77420000D02*
X165600000Y-77420000D01*
X156600000Y-77420000D02*
X160750000Y-77420000D01*
X161600000Y-87920000D02*
X165600000Y-87920000D01*
X156600000Y-87920000D02*
X160600000Y-87920000D01*
X156600000Y-77420000D02*
X156600000Y-87920000D01*
X165600000Y-77420000D02*
X165600000Y-87920000D01*
%TO.C,J1*%
X133990000Y-73960000D02*
X133130000Y-73960000D01*
X133990000Y-73960000D02*
X133990000Y-74760000D01*
X134730000Y-81440000D02*
G75*
G03*
X134730000Y-81440000I-1800000J0D01*
G01*
X133280000Y-76940000D02*
X137430000Y-76940000D01*
X128430000Y-76940000D02*
X132580000Y-76940000D01*
X133430000Y-87440000D02*
X137430000Y-87440000D01*
X128430000Y-87440000D02*
X132430000Y-87440000D01*
X128430000Y-76940000D02*
X128430000Y-87440000D01*
X137430000Y-76940000D02*
X137430000Y-87440000D01*
%TO.C,D4*%
X116040000Y-32035000D02*
X116040000Y-28945000D01*
X121100000Y-30490000D02*
G75*
G03*
X121100000Y-30490000I-2500000J0D01*
G01*
X121590000Y-30490462D02*
G75*
G03*
X116040000Y-28945170I-2990000J462D01*
G01*
X121590000Y-30489538D02*
G75*
G02*
X116040000Y-32034830I-2990000J-462D01*
G01*
%TO.C,RV8*%
D12*
X166712380Y-63824761D02*
X166236190Y-63491428D01*
X166712380Y-63253333D02*
X165712380Y-63253333D01*
X165712380Y-63634285D01*
X165760000Y-63729523D01*
X165807619Y-63777142D01*
X165902857Y-63824761D01*
X166045714Y-63824761D01*
X166140952Y-63777142D01*
X166188571Y-63729523D01*
X166236190Y-63634285D01*
X166236190Y-63253333D01*
X165712380Y-64110476D02*
X166712380Y-64443809D01*
X165712380Y-64777142D01*
X166140952Y-65253333D02*
X166093333Y-65158095D01*
X166045714Y-65110476D01*
X165950476Y-65062857D01*
X165902857Y-65062857D01*
X165807619Y-65110476D01*
X165760000Y-65158095D01*
X165712380Y-65253333D01*
X165712380Y-65443809D01*
X165760000Y-65539047D01*
X165807619Y-65586666D01*
X165902857Y-65634285D01*
X165950476Y-65634285D01*
X166045714Y-65586666D01*
X166093333Y-65539047D01*
X166140952Y-65443809D01*
X166140952Y-65253333D01*
X166188571Y-65158095D01*
X166236190Y-65110476D01*
X166331428Y-65062857D01*
X166521904Y-65062857D01*
X166617142Y-65110476D01*
X166664761Y-65158095D01*
X166712380Y-65253333D01*
X166712380Y-65443809D01*
X166664761Y-65539047D01*
X166617142Y-65586666D01*
X166521904Y-65634285D01*
X166331428Y-65634285D01*
X166236190Y-65586666D01*
X166188571Y-65539047D01*
X166140952Y-65443809D01*
X152212380Y-69963333D02*
X152212380Y-69391904D01*
X152212380Y-69677619D02*
X151212380Y-69677619D01*
X151355238Y-69582380D01*
X151450476Y-69487142D01*
X151498095Y-69391904D01*
X151212380Y-70582380D02*
X151212380Y-70677619D01*
X151260000Y-70772857D01*
X151307619Y-70820476D01*
X151402857Y-70868095D01*
X151593333Y-70915714D01*
X151831428Y-70915714D01*
X152021904Y-70868095D01*
X152117142Y-70820476D01*
X152164761Y-70772857D01*
X152212380Y-70677619D01*
X152212380Y-70582380D01*
X152164761Y-70487142D01*
X152117142Y-70439523D01*
X152021904Y-70391904D01*
X151831428Y-70344285D01*
X151593333Y-70344285D01*
X151402857Y-70391904D01*
X151307619Y-70439523D01*
X151260000Y-70487142D01*
X151212380Y-70582380D01*
X151212380Y-71534761D02*
X151212380Y-71630000D01*
X151260000Y-71725238D01*
X151307619Y-71772857D01*
X151402857Y-71820476D01*
X151593333Y-71868095D01*
X151831428Y-71868095D01*
X152021904Y-71820476D01*
X152117142Y-71772857D01*
X152164761Y-71725238D01*
X152212380Y-71630000D01*
X152212380Y-71534761D01*
X152164761Y-71439523D01*
X152117142Y-71391904D01*
X152021904Y-71344285D01*
X151831428Y-71296666D01*
X151593333Y-71296666D01*
X151402857Y-71344285D01*
X151307619Y-71391904D01*
X151260000Y-71439523D01*
X151212380Y-71534761D01*
X152212380Y-72296666D02*
X151212380Y-72296666D01*
X152212380Y-72868095D02*
X151640952Y-72439523D01*
X151212380Y-72868095D02*
X151783809Y-72296666D01*
%TO.C,RV5*%
X142142380Y-35404761D02*
X141666190Y-35071428D01*
X142142380Y-34833333D02*
X141142380Y-34833333D01*
X141142380Y-35214285D01*
X141190000Y-35309523D01*
X141237619Y-35357142D01*
X141332857Y-35404761D01*
X141475714Y-35404761D01*
X141570952Y-35357142D01*
X141618571Y-35309523D01*
X141666190Y-35214285D01*
X141666190Y-34833333D01*
X141142380Y-35690476D02*
X142142380Y-36023809D01*
X141142380Y-36357142D01*
X141142380Y-37166666D02*
X141142380Y-36690476D01*
X141618571Y-36642857D01*
X141570952Y-36690476D01*
X141523333Y-36785714D01*
X141523333Y-37023809D01*
X141570952Y-37119047D01*
X141618571Y-37166666D01*
X141713809Y-37214285D01*
X141951904Y-37214285D01*
X142047142Y-37166666D01*
X142094761Y-37119047D01*
X142142380Y-37023809D01*
X142142380Y-36785714D01*
X142094761Y-36690476D01*
X142047142Y-36642857D01*
X127642380Y-41543333D02*
X127642380Y-40971904D01*
X127642380Y-41257619D02*
X126642380Y-41257619D01*
X126785238Y-41162380D01*
X126880476Y-41067142D01*
X126928095Y-40971904D01*
X126642380Y-42162380D02*
X126642380Y-42257619D01*
X126690000Y-42352857D01*
X126737619Y-42400476D01*
X126832857Y-42448095D01*
X127023333Y-42495714D01*
X127261428Y-42495714D01*
X127451904Y-42448095D01*
X127547142Y-42400476D01*
X127594761Y-42352857D01*
X127642380Y-42257619D01*
X127642380Y-42162380D01*
X127594761Y-42067142D01*
X127547142Y-42019523D01*
X127451904Y-41971904D01*
X127261428Y-41924285D01*
X127023333Y-41924285D01*
X126832857Y-41971904D01*
X126737619Y-42019523D01*
X126690000Y-42067142D01*
X126642380Y-42162380D01*
X126642380Y-43114761D02*
X126642380Y-43210000D01*
X126690000Y-43305238D01*
X126737619Y-43352857D01*
X126832857Y-43400476D01*
X127023333Y-43448095D01*
X127261428Y-43448095D01*
X127451904Y-43400476D01*
X127547142Y-43352857D01*
X127594761Y-43305238D01*
X127642380Y-43210000D01*
X127642380Y-43114761D01*
X127594761Y-43019523D01*
X127547142Y-42971904D01*
X127451904Y-42924285D01*
X127261428Y-42876666D01*
X127023333Y-42876666D01*
X126832857Y-42924285D01*
X126737619Y-42971904D01*
X126690000Y-43019523D01*
X126642380Y-43114761D01*
X127642380Y-43876666D02*
X126642380Y-43876666D01*
X127642380Y-44448095D02*
X127070952Y-44019523D01*
X126642380Y-44448095D02*
X127213809Y-43876666D01*
%TO.C,RV3*%
X154762380Y-82574761D02*
X154286190Y-82241428D01*
X154762380Y-82003333D02*
X153762380Y-82003333D01*
X153762380Y-82384285D01*
X153810000Y-82479523D01*
X153857619Y-82527142D01*
X153952857Y-82574761D01*
X154095714Y-82574761D01*
X154190952Y-82527142D01*
X154238571Y-82479523D01*
X154286190Y-82384285D01*
X154286190Y-82003333D01*
X153762380Y-82860476D02*
X154762380Y-83193809D01*
X153762380Y-83527142D01*
X153762380Y-83765238D02*
X153762380Y-84384285D01*
X154143333Y-84050952D01*
X154143333Y-84193809D01*
X154190952Y-84289047D01*
X154238571Y-84336666D01*
X154333809Y-84384285D01*
X154571904Y-84384285D01*
X154667142Y-84336666D01*
X154714761Y-84289047D01*
X154762380Y-84193809D01*
X154762380Y-83908095D01*
X154714761Y-83812857D01*
X154667142Y-83765238D01*
X140262380Y-88713333D02*
X140262380Y-88141904D01*
X140262380Y-88427619D02*
X139262380Y-88427619D01*
X139405238Y-88332380D01*
X139500476Y-88237142D01*
X139548095Y-88141904D01*
X139262380Y-89332380D02*
X139262380Y-89427619D01*
X139310000Y-89522857D01*
X139357619Y-89570476D01*
X139452857Y-89618095D01*
X139643333Y-89665714D01*
X139881428Y-89665714D01*
X140071904Y-89618095D01*
X140167142Y-89570476D01*
X140214761Y-89522857D01*
X140262380Y-89427619D01*
X140262380Y-89332380D01*
X140214761Y-89237142D01*
X140167142Y-89189523D01*
X140071904Y-89141904D01*
X139881428Y-89094285D01*
X139643333Y-89094285D01*
X139452857Y-89141904D01*
X139357619Y-89189523D01*
X139310000Y-89237142D01*
X139262380Y-89332380D01*
X139262380Y-90284761D02*
X139262380Y-90380000D01*
X139310000Y-90475238D01*
X139357619Y-90522857D01*
X139452857Y-90570476D01*
X139643333Y-90618095D01*
X139881428Y-90618095D01*
X140071904Y-90570476D01*
X140167142Y-90522857D01*
X140214761Y-90475238D01*
X140262380Y-90380000D01*
X140262380Y-90284761D01*
X140214761Y-90189523D01*
X140167142Y-90141904D01*
X140071904Y-90094285D01*
X139881428Y-90046666D01*
X139643333Y-90046666D01*
X139452857Y-90094285D01*
X139357619Y-90141904D01*
X139310000Y-90189523D01*
X139262380Y-90284761D01*
X140262380Y-91046666D02*
X139262380Y-91046666D01*
X140262380Y-91618095D02*
X139690952Y-91189523D01*
X139262380Y-91618095D02*
X139833809Y-91046666D01*
%TO.C,RV2*%
X142142380Y-63864761D02*
X141666190Y-63531428D01*
X142142380Y-63293333D02*
X141142380Y-63293333D01*
X141142380Y-63674285D01*
X141190000Y-63769523D01*
X141237619Y-63817142D01*
X141332857Y-63864761D01*
X141475714Y-63864761D01*
X141570952Y-63817142D01*
X141618571Y-63769523D01*
X141666190Y-63674285D01*
X141666190Y-63293333D01*
X141142380Y-64150476D02*
X142142380Y-64483809D01*
X141142380Y-64817142D01*
X141237619Y-65102857D02*
X141190000Y-65150476D01*
X141142380Y-65245714D01*
X141142380Y-65483809D01*
X141190000Y-65579047D01*
X141237619Y-65626666D01*
X141332857Y-65674285D01*
X141428095Y-65674285D01*
X141570952Y-65626666D01*
X142142380Y-65055238D01*
X142142380Y-65674285D01*
X127642380Y-70003333D02*
X127642380Y-69431904D01*
X127642380Y-69717619D02*
X126642380Y-69717619D01*
X126785238Y-69622380D01*
X126880476Y-69527142D01*
X126928095Y-69431904D01*
X126642380Y-70622380D02*
X126642380Y-70717619D01*
X126690000Y-70812857D01*
X126737619Y-70860476D01*
X126832857Y-70908095D01*
X127023333Y-70955714D01*
X127261428Y-70955714D01*
X127451904Y-70908095D01*
X127547142Y-70860476D01*
X127594761Y-70812857D01*
X127642380Y-70717619D01*
X127642380Y-70622380D01*
X127594761Y-70527142D01*
X127547142Y-70479523D01*
X127451904Y-70431904D01*
X127261428Y-70384285D01*
X127023333Y-70384285D01*
X126832857Y-70431904D01*
X126737619Y-70479523D01*
X126690000Y-70527142D01*
X126642380Y-70622380D01*
X126642380Y-71574761D02*
X126642380Y-71670000D01*
X126690000Y-71765238D01*
X126737619Y-71812857D01*
X126832857Y-71860476D01*
X127023333Y-71908095D01*
X127261428Y-71908095D01*
X127451904Y-71860476D01*
X127547142Y-71812857D01*
X127594761Y-71765238D01*
X127642380Y-71670000D01*
X127642380Y-71574761D01*
X127594761Y-71479523D01*
X127547142Y-71431904D01*
X127451904Y-71384285D01*
X127261428Y-71336666D01*
X127023333Y-71336666D01*
X126832857Y-71384285D01*
X126737619Y-71431904D01*
X126690000Y-71479523D01*
X126642380Y-71574761D01*
X127642380Y-72336666D02*
X126642380Y-72336666D01*
X127642380Y-72908095D02*
X127070952Y-72479523D01*
X126642380Y-72908095D02*
X127213809Y-72336666D01*
%TO.C,RV1*%
X166812380Y-35514761D02*
X166336190Y-35181428D01*
X166812380Y-34943333D02*
X165812380Y-34943333D01*
X165812380Y-35324285D01*
X165860000Y-35419523D01*
X165907619Y-35467142D01*
X166002857Y-35514761D01*
X166145714Y-35514761D01*
X166240952Y-35467142D01*
X166288571Y-35419523D01*
X166336190Y-35324285D01*
X166336190Y-34943333D01*
X165812380Y-35800476D02*
X166812380Y-36133809D01*
X165812380Y-36467142D01*
X166812380Y-37324285D02*
X166812380Y-36752857D01*
X166812380Y-37038571D02*
X165812380Y-37038571D01*
X165955238Y-36943333D01*
X166050476Y-36848095D01*
X166098095Y-36752857D01*
X152312380Y-41653333D02*
X152312380Y-41081904D01*
X152312380Y-41367619D02*
X151312380Y-41367619D01*
X151455238Y-41272380D01*
X151550476Y-41177142D01*
X151598095Y-41081904D01*
X151312380Y-42272380D02*
X151312380Y-42367619D01*
X151360000Y-42462857D01*
X151407619Y-42510476D01*
X151502857Y-42558095D01*
X151693333Y-42605714D01*
X151931428Y-42605714D01*
X152121904Y-42558095D01*
X152217142Y-42510476D01*
X152264761Y-42462857D01*
X152312380Y-42367619D01*
X152312380Y-42272380D01*
X152264761Y-42177142D01*
X152217142Y-42129523D01*
X152121904Y-42081904D01*
X151931428Y-42034285D01*
X151693333Y-42034285D01*
X151502857Y-42081904D01*
X151407619Y-42129523D01*
X151360000Y-42177142D01*
X151312380Y-42272380D01*
X151312380Y-43224761D02*
X151312380Y-43320000D01*
X151360000Y-43415238D01*
X151407619Y-43462857D01*
X151502857Y-43510476D01*
X151693333Y-43558095D01*
X151931428Y-43558095D01*
X152121904Y-43510476D01*
X152217142Y-43462857D01*
X152264761Y-43415238D01*
X152312380Y-43320000D01*
X152312380Y-43224761D01*
X152264761Y-43129523D01*
X152217142Y-43081904D01*
X152121904Y-43034285D01*
X151931428Y-42986666D01*
X151693333Y-42986666D01*
X151502857Y-43034285D01*
X151407619Y-43081904D01*
X151360000Y-43129523D01*
X151312380Y-43224761D01*
X152312380Y-43986666D02*
X151312380Y-43986666D01*
X152312380Y-44558095D02*
X151740952Y-44129523D01*
X151312380Y-44558095D02*
X151883809Y-43986666D01*
%TO.C,J11*%
X165949523Y-105942380D02*
X165949523Y-106656666D01*
X165997142Y-106799523D01*
X166092380Y-106894761D01*
X166235238Y-106942380D01*
X166330476Y-106942380D01*
X164949523Y-106942380D02*
X165520952Y-106942380D01*
X165235238Y-106942380D02*
X165235238Y-105942380D01*
X165330476Y-106085238D01*
X165425714Y-106180476D01*
X165520952Y-106228095D01*
X163997142Y-106942380D02*
X164568571Y-106942380D01*
X164282857Y-106942380D02*
X164282857Y-105942380D01*
X164378095Y-106085238D01*
X164473333Y-106180476D01*
X164568571Y-106228095D01*
X167039380Y-106871142D02*
X167039380Y-107442571D01*
X168039380Y-107156857D02*
X167039380Y-107156857D01*
X168039380Y-108347333D02*
X167563190Y-108014000D01*
X168039380Y-107775904D02*
X167039380Y-107775904D01*
X167039380Y-108156857D01*
X167087000Y-108252095D01*
X167134619Y-108299714D01*
X167229857Y-108347333D01*
X167372714Y-108347333D01*
X167467952Y-108299714D01*
X167515571Y-108252095D01*
X167563190Y-108156857D01*
X167563190Y-107775904D01*
X168039380Y-108775904D02*
X167039380Y-108775904D01*
X167753666Y-109204476D02*
X167753666Y-109680666D01*
X168039380Y-109109238D02*
X167039380Y-109442571D01*
X168039380Y-109775904D01*
X168039380Y-110109238D02*
X167039380Y-110109238D01*
X168039380Y-110680666D01*
X167039380Y-110680666D01*
X167087000Y-111680666D02*
X167039380Y-111585428D01*
X167039380Y-111442571D01*
X167087000Y-111299714D01*
X167182238Y-111204476D01*
X167277476Y-111156857D01*
X167467952Y-111109238D01*
X167610809Y-111109238D01*
X167801285Y-111156857D01*
X167896523Y-111204476D01*
X167991761Y-111299714D01*
X168039380Y-111442571D01*
X168039380Y-111537809D01*
X167991761Y-111680666D01*
X167944142Y-111728285D01*
X167610809Y-111728285D01*
X167610809Y-111537809D01*
X168039380Y-112633047D02*
X168039380Y-112156857D01*
X167039380Y-112156857D01*
X167515571Y-112966380D02*
X167515571Y-113299714D01*
X168039380Y-113442571D02*
X168039380Y-112966380D01*
X167039380Y-112966380D01*
X167039380Y-113442571D01*
X168134619Y-113633047D02*
X168134619Y-114394952D01*
X167039380Y-114823523D02*
X167039380Y-115014000D01*
X167087000Y-115109238D01*
X167182238Y-115204476D01*
X167372714Y-115252095D01*
X167706047Y-115252095D01*
X167896523Y-115204476D01*
X167991761Y-115109238D01*
X168039380Y-115014000D01*
X168039380Y-114823523D01*
X167991761Y-114728285D01*
X167896523Y-114633047D01*
X167706047Y-114585428D01*
X167372714Y-114585428D01*
X167182238Y-114633047D01*
X167087000Y-114728285D01*
X167039380Y-114823523D01*
X167039380Y-115680666D02*
X167848904Y-115680666D01*
X167944142Y-115728285D01*
X167991761Y-115775904D01*
X168039380Y-115871142D01*
X168039380Y-116061619D01*
X167991761Y-116156857D01*
X167944142Y-116204476D01*
X167848904Y-116252095D01*
X167039380Y-116252095D01*
X167039380Y-116585428D02*
X167039380Y-117156857D01*
X168039380Y-116871142D02*
X167039380Y-116871142D01*
%TO.C,J10*%
X165929523Y-120822380D02*
X165929523Y-121536666D01*
X165977142Y-121679523D01*
X166072380Y-121774761D01*
X166215238Y-121822380D01*
X166310476Y-121822380D01*
X164929523Y-121822380D02*
X165500952Y-121822380D01*
X165215238Y-121822380D02*
X165215238Y-120822380D01*
X165310476Y-120965238D01*
X165405714Y-121060476D01*
X165500952Y-121108095D01*
X164310476Y-120822380D02*
X164215238Y-120822380D01*
X164120000Y-120870000D01*
X164072380Y-120917619D01*
X164024761Y-121012857D01*
X163977142Y-121203333D01*
X163977142Y-121441428D01*
X164024761Y-121631904D01*
X164072380Y-121727142D01*
X164120000Y-121774761D01*
X164215238Y-121822380D01*
X164310476Y-121822380D01*
X164405714Y-121774761D01*
X164453333Y-121727142D01*
X164500952Y-121631904D01*
X164548571Y-121441428D01*
X164548571Y-121203333D01*
X164500952Y-121012857D01*
X164453333Y-120917619D01*
X164405714Y-120870000D01*
X164310476Y-120822380D01*
X167971761Y-121465428D02*
X168019380Y-121608285D01*
X168019380Y-121846380D01*
X167971761Y-121941619D01*
X167924142Y-121989238D01*
X167828904Y-122036857D01*
X167733666Y-122036857D01*
X167638428Y-121989238D01*
X167590809Y-121941619D01*
X167543190Y-121846380D01*
X167495571Y-121655904D01*
X167447952Y-121560666D01*
X167400333Y-121513047D01*
X167305095Y-121465428D01*
X167209857Y-121465428D01*
X167114619Y-121513047D01*
X167067000Y-121560666D01*
X167019380Y-121655904D01*
X167019380Y-121894000D01*
X167067000Y-122036857D01*
X167733666Y-122417809D02*
X167733666Y-122894000D01*
X168019380Y-122322571D02*
X167019380Y-122655904D01*
X168019380Y-122989238D01*
X167019380Y-123227333D02*
X168019380Y-123465428D01*
X167305095Y-123655904D01*
X168019380Y-123846380D01*
X167019380Y-124084476D01*
X167019380Y-124322571D02*
X167019380Y-124894000D01*
X168019380Y-124608285D02*
X167019380Y-124608285D01*
X167019380Y-125417809D02*
X167019380Y-125608285D01*
X167067000Y-125703523D01*
X167162238Y-125798761D01*
X167352714Y-125846380D01*
X167686047Y-125846380D01*
X167876523Y-125798761D01*
X167971761Y-125703523D01*
X168019380Y-125608285D01*
X168019380Y-125417809D01*
X167971761Y-125322571D01*
X167876523Y-125227333D01*
X167686047Y-125179714D01*
X167352714Y-125179714D01*
X167162238Y-125227333D01*
X167067000Y-125322571D01*
X167019380Y-125417809D01*
X167019380Y-126465428D02*
X167019380Y-126655904D01*
X167067000Y-126751142D01*
X167162238Y-126846380D01*
X167352714Y-126894000D01*
X167686047Y-126894000D01*
X167876523Y-126846380D01*
X167971761Y-126751142D01*
X168019380Y-126655904D01*
X168019380Y-126465428D01*
X167971761Y-126370190D01*
X167876523Y-126274952D01*
X167686047Y-126227333D01*
X167352714Y-126227333D01*
X167162238Y-126274952D01*
X167067000Y-126370190D01*
X167019380Y-126465428D01*
X167019380Y-127179714D02*
X167019380Y-127751142D01*
X168019380Y-127465428D02*
X167019380Y-127465428D01*
X168019380Y-128084476D02*
X167019380Y-128084476D01*
X167495571Y-128084476D02*
X167495571Y-128655904D01*
X168019380Y-128655904D02*
X167019380Y-128655904D01*
X168114619Y-128894000D02*
X168114619Y-129655904D01*
X167019380Y-130084476D02*
X167019380Y-130274952D01*
X167067000Y-130370190D01*
X167162238Y-130465428D01*
X167352714Y-130513047D01*
X167686047Y-130513047D01*
X167876523Y-130465428D01*
X167971761Y-130370190D01*
X168019380Y-130274952D01*
X168019380Y-130084476D01*
X167971761Y-129989238D01*
X167876523Y-129894000D01*
X167686047Y-129846380D01*
X167352714Y-129846380D01*
X167162238Y-129894000D01*
X167067000Y-129989238D01*
X167019380Y-130084476D01*
X167019380Y-130941619D02*
X167828904Y-130941619D01*
X167924142Y-130989238D01*
X167971761Y-131036857D01*
X168019380Y-131132095D01*
X168019380Y-131322571D01*
X167971761Y-131417809D01*
X167924142Y-131465428D01*
X167828904Y-131513047D01*
X167019380Y-131513047D01*
X167019380Y-131846380D02*
X167019380Y-132417809D01*
X168019380Y-132132095D02*
X167019380Y-132132095D01*
%TO.C,J9*%
X165573333Y-135802380D02*
X165573333Y-136516666D01*
X165620952Y-136659523D01*
X165716190Y-136754761D01*
X165859047Y-136802380D01*
X165954285Y-136802380D01*
X165049523Y-136802380D02*
X164859047Y-136802380D01*
X164763809Y-136754761D01*
X164716190Y-136707142D01*
X164620952Y-136564285D01*
X164573333Y-136373809D01*
X164573333Y-135992857D01*
X164620952Y-135897619D01*
X164668571Y-135850000D01*
X164763809Y-135802380D01*
X164954285Y-135802380D01*
X165049523Y-135850000D01*
X165097142Y-135897619D01*
X165144761Y-135992857D01*
X165144761Y-136230952D01*
X165097142Y-136326190D01*
X165049523Y-136373809D01*
X164954285Y-136421428D01*
X164763809Y-136421428D01*
X164668571Y-136373809D01*
X164620952Y-136326190D01*
X164573333Y-136230952D01*
X168091761Y-137350190D02*
X168139380Y-137493047D01*
X168139380Y-137731142D01*
X168091761Y-137826380D01*
X168044142Y-137874000D01*
X167948904Y-137921619D01*
X167853666Y-137921619D01*
X167758428Y-137874000D01*
X167710809Y-137826380D01*
X167663190Y-137731142D01*
X167615571Y-137540666D01*
X167567952Y-137445428D01*
X167520333Y-137397809D01*
X167425095Y-137350190D01*
X167329857Y-137350190D01*
X167234619Y-137397809D01*
X167187000Y-137445428D01*
X167139380Y-137540666D01*
X167139380Y-137778761D01*
X167187000Y-137921619D01*
X168234619Y-139016857D02*
X168187000Y-138921619D01*
X168091761Y-138826380D01*
X167948904Y-138683523D01*
X167901285Y-138588285D01*
X167901285Y-138493047D01*
X168139380Y-138540666D02*
X168091761Y-138445428D01*
X167996523Y-138350190D01*
X167806047Y-138302571D01*
X167472714Y-138302571D01*
X167282238Y-138350190D01*
X167187000Y-138445428D01*
X167139380Y-138540666D01*
X167139380Y-138731142D01*
X167187000Y-138826380D01*
X167282238Y-138921619D01*
X167472714Y-138969238D01*
X167806047Y-138969238D01*
X167996523Y-138921619D01*
X168091761Y-138826380D01*
X168139380Y-138731142D01*
X168139380Y-138540666D01*
X167139380Y-139397809D02*
X167948904Y-139397809D01*
X168044142Y-139445428D01*
X168091761Y-139493047D01*
X168139380Y-139588285D01*
X168139380Y-139778761D01*
X168091761Y-139874000D01*
X168044142Y-139921619D01*
X167948904Y-139969238D01*
X167139380Y-139969238D01*
X167853666Y-140397809D02*
X167853666Y-140874000D01*
X168139380Y-140302571D02*
X167139380Y-140635904D01*
X168139380Y-140969238D01*
X168139380Y-141874000D02*
X167663190Y-141540666D01*
X168139380Y-141302571D02*
X167139380Y-141302571D01*
X167139380Y-141683523D01*
X167187000Y-141778761D01*
X167234619Y-141826380D01*
X167329857Y-141874000D01*
X167472714Y-141874000D01*
X167567952Y-141826380D01*
X167615571Y-141778761D01*
X167663190Y-141683523D01*
X167663190Y-141302571D01*
X167615571Y-142302571D02*
X167615571Y-142635904D01*
X168139380Y-142778761D02*
X168139380Y-142302571D01*
X167139380Y-142302571D01*
X167139380Y-142778761D01*
X168234619Y-142969238D02*
X168234619Y-143731142D01*
X167139380Y-144159714D02*
X167139380Y-144350190D01*
X167187000Y-144445428D01*
X167282238Y-144540666D01*
X167472714Y-144588285D01*
X167806047Y-144588285D01*
X167996523Y-144540666D01*
X168091761Y-144445428D01*
X168139380Y-144350190D01*
X168139380Y-144159714D01*
X168091761Y-144064476D01*
X167996523Y-143969238D01*
X167806047Y-143921619D01*
X167472714Y-143921619D01*
X167282238Y-143969238D01*
X167187000Y-144064476D01*
X167139380Y-144159714D01*
X167139380Y-145016857D02*
X167948904Y-145016857D01*
X168044142Y-145064476D01*
X168091761Y-145112095D01*
X168139380Y-145207333D01*
X168139380Y-145397809D01*
X168091761Y-145493047D01*
X168044142Y-145540666D01*
X167948904Y-145588285D01*
X167139380Y-145588285D01*
X167139380Y-145921619D02*
X167139380Y-146493047D01*
X168139380Y-146207333D02*
X167139380Y-146207333D01*
%TO.C,J8*%
X165393333Y-91012380D02*
X165393333Y-91726666D01*
X165440952Y-91869523D01*
X165536190Y-91964761D01*
X165679047Y-92012380D01*
X165774285Y-92012380D01*
X164774285Y-91440952D02*
X164869523Y-91393333D01*
X164917142Y-91345714D01*
X164964761Y-91250476D01*
X164964761Y-91202857D01*
X164917142Y-91107619D01*
X164869523Y-91060000D01*
X164774285Y-91012380D01*
X164583809Y-91012380D01*
X164488571Y-91060000D01*
X164440952Y-91107619D01*
X164393333Y-91202857D01*
X164393333Y-91250476D01*
X164440952Y-91345714D01*
X164488571Y-91393333D01*
X164583809Y-91440952D01*
X164774285Y-91440952D01*
X164869523Y-91488571D01*
X164917142Y-91536190D01*
X164964761Y-91631428D01*
X164964761Y-91821904D01*
X164917142Y-91917142D01*
X164869523Y-91964761D01*
X164774285Y-92012380D01*
X164583809Y-92012380D01*
X164488571Y-91964761D01*
X164440952Y-91917142D01*
X164393333Y-91821904D01*
X164393333Y-91631428D01*
X164440952Y-91536190D01*
X164488571Y-91488571D01*
X164583809Y-91440952D01*
X167435571Y-95512571D02*
X167435571Y-95179238D01*
X167959380Y-95179238D02*
X166959380Y-95179238D01*
X166959380Y-95655428D01*
X167959380Y-96036380D02*
X166959380Y-96036380D01*
X167673666Y-96369714D01*
X166959380Y-96703047D01*
X167959380Y-96703047D01*
X168054619Y-96941142D02*
X168054619Y-97703047D01*
X167959380Y-97941142D02*
X166959380Y-97941142D01*
X167959380Y-98417333D02*
X166959380Y-98417333D01*
X167959380Y-98988761D01*
X166959380Y-98988761D01*
%TO.C,J7*%
X137293333Y-120712380D02*
X137293333Y-121426666D01*
X137340952Y-121569523D01*
X137436190Y-121664761D01*
X137579047Y-121712380D01*
X137674285Y-121712380D01*
X136912380Y-120712380D02*
X136245714Y-120712380D01*
X136674285Y-121712380D01*
X139811761Y-121712571D02*
X139859380Y-121855428D01*
X139859380Y-122093523D01*
X139811761Y-122188761D01*
X139764142Y-122236380D01*
X139668904Y-122284000D01*
X139573666Y-122284000D01*
X139478428Y-122236380D01*
X139430809Y-122188761D01*
X139383190Y-122093523D01*
X139335571Y-121903047D01*
X139287952Y-121807809D01*
X139240333Y-121760190D01*
X139145095Y-121712571D01*
X139049857Y-121712571D01*
X138954619Y-121760190D01*
X138907000Y-121807809D01*
X138859380Y-121903047D01*
X138859380Y-122141142D01*
X138907000Y-122284000D01*
X138859380Y-122903047D02*
X138859380Y-123093523D01*
X138907000Y-123188761D01*
X139002238Y-123284000D01*
X139192714Y-123331619D01*
X139526047Y-123331619D01*
X139716523Y-123284000D01*
X139811761Y-123188761D01*
X139859380Y-123093523D01*
X139859380Y-122903047D01*
X139811761Y-122807809D01*
X139716523Y-122712571D01*
X139526047Y-122664952D01*
X139192714Y-122664952D01*
X139002238Y-122712571D01*
X138907000Y-122807809D01*
X138859380Y-122903047D01*
X139335571Y-124093523D02*
X139335571Y-123760190D01*
X139859380Y-123760190D02*
X138859380Y-123760190D01*
X138859380Y-124236380D01*
X138859380Y-124474476D02*
X138859380Y-125045904D01*
X139859380Y-124760190D02*
X138859380Y-124760190D01*
X139954619Y-125141142D02*
X139954619Y-125903047D01*
X139811761Y-126093523D02*
X139859380Y-126236380D01*
X139859380Y-126474476D01*
X139811761Y-126569714D01*
X139764142Y-126617333D01*
X139668904Y-126664952D01*
X139573666Y-126664952D01*
X139478428Y-126617333D01*
X139430809Y-126569714D01*
X139383190Y-126474476D01*
X139335571Y-126284000D01*
X139287952Y-126188761D01*
X139240333Y-126141142D01*
X139145095Y-126093523D01*
X139049857Y-126093523D01*
X138954619Y-126141142D01*
X138907000Y-126188761D01*
X138859380Y-126284000D01*
X138859380Y-126522095D01*
X138907000Y-126664952D01*
X139383190Y-127284000D02*
X139859380Y-127284000D01*
X138859380Y-126950666D02*
X139383190Y-127284000D01*
X138859380Y-127617333D01*
X139859380Y-127950666D02*
X138859380Y-127950666D01*
X139859380Y-128522095D01*
X138859380Y-128522095D01*
X139764142Y-129569714D02*
X139811761Y-129522095D01*
X139859380Y-129379238D01*
X139859380Y-129284000D01*
X139811761Y-129141142D01*
X139716523Y-129045904D01*
X139621285Y-128998285D01*
X139430809Y-128950666D01*
X139287952Y-128950666D01*
X139097476Y-128998285D01*
X139002238Y-129045904D01*
X138907000Y-129141142D01*
X138859380Y-129284000D01*
X138859380Y-129379238D01*
X138907000Y-129522095D01*
X138954619Y-129569714D01*
X139954619Y-129760190D02*
X139954619Y-130522095D01*
X139859380Y-130760190D02*
X138859380Y-130760190D01*
X139859380Y-131236380D02*
X138859380Y-131236380D01*
X139859380Y-131807809D01*
X138859380Y-131807809D01*
%TO.C,J6*%
X151373333Y-130232380D02*
X151373333Y-130946666D01*
X151420952Y-131089523D01*
X151516190Y-131184761D01*
X151659047Y-131232380D01*
X151754285Y-131232380D01*
X150468571Y-130232380D02*
X150659047Y-130232380D01*
X150754285Y-130280000D01*
X150801904Y-130327619D01*
X150897142Y-130470476D01*
X150944761Y-130660952D01*
X150944761Y-131041904D01*
X150897142Y-131137142D01*
X150849523Y-131184761D01*
X150754285Y-131232380D01*
X150563809Y-131232380D01*
X150468571Y-131184761D01*
X150420952Y-131137142D01*
X150373333Y-131041904D01*
X150373333Y-130803809D01*
X150420952Y-130708571D01*
X150468571Y-130660952D01*
X150563809Y-130613333D01*
X150754285Y-130613333D01*
X150849523Y-130660952D01*
X150897142Y-130708571D01*
X150944761Y-130803809D01*
X153939380Y-129280190D02*
X152939380Y-129280190D01*
X153939380Y-129851619D01*
X152939380Y-129851619D01*
X153415571Y-130327809D02*
X153415571Y-130661142D01*
X153939380Y-130804000D02*
X153939380Y-130327809D01*
X152939380Y-130327809D01*
X152939380Y-130804000D01*
X152987000Y-131756380D02*
X152939380Y-131661142D01*
X152939380Y-131518285D01*
X152987000Y-131375428D01*
X153082238Y-131280190D01*
X153177476Y-131232571D01*
X153367952Y-131184952D01*
X153510809Y-131184952D01*
X153701285Y-131232571D01*
X153796523Y-131280190D01*
X153891761Y-131375428D01*
X153939380Y-131518285D01*
X153939380Y-131613523D01*
X153891761Y-131756380D01*
X153844142Y-131804000D01*
X153510809Y-131804000D01*
X153510809Y-131613523D01*
X154034619Y-131994476D02*
X154034619Y-132756380D01*
X153939380Y-132994476D02*
X152939380Y-132994476D01*
X153415571Y-132994476D02*
X153415571Y-133565904D01*
X153939380Y-133565904D02*
X152939380Y-133565904D01*
X153653666Y-133994476D02*
X153653666Y-134470666D01*
X153939380Y-133899238D02*
X152939380Y-134232571D01*
X153939380Y-134565904D01*
X153939380Y-135470666D02*
X153463190Y-135137333D01*
X153939380Y-134899238D02*
X152939380Y-134899238D01*
X152939380Y-135280190D01*
X152987000Y-135375428D01*
X153034619Y-135423047D01*
X153129857Y-135470666D01*
X153272714Y-135470666D01*
X153367952Y-135423047D01*
X153415571Y-135375428D01*
X153463190Y-135280190D01*
X153463190Y-134899238D01*
X153939380Y-135899238D02*
X152939380Y-135899238D01*
X152939380Y-136137333D01*
X152987000Y-136280190D01*
X153082238Y-136375428D01*
X153177476Y-136423047D01*
X153367952Y-136470666D01*
X153510809Y-136470666D01*
X153701285Y-136423047D01*
X153796523Y-136375428D01*
X153891761Y-136280190D01*
X153939380Y-136137333D01*
X153939380Y-135899238D01*
X154034619Y-136661142D02*
X154034619Y-137423047D01*
X153891761Y-137613523D02*
X153939380Y-137756380D01*
X153939380Y-137994476D01*
X153891761Y-138089714D01*
X153844142Y-138137333D01*
X153748904Y-138184952D01*
X153653666Y-138184952D01*
X153558428Y-138137333D01*
X153510809Y-138089714D01*
X153463190Y-137994476D01*
X153415571Y-137804000D01*
X153367952Y-137708761D01*
X153320333Y-137661142D01*
X153225095Y-137613523D01*
X153129857Y-137613523D01*
X153034619Y-137661142D01*
X152987000Y-137708761D01*
X152939380Y-137804000D01*
X152939380Y-138042095D01*
X152987000Y-138184952D01*
X153463190Y-138804000D02*
X153939380Y-138804000D01*
X152939380Y-138470666D02*
X153463190Y-138804000D01*
X152939380Y-139137333D01*
X153939380Y-139470666D02*
X152939380Y-139470666D01*
X153939380Y-140042095D01*
X152939380Y-140042095D01*
X153844142Y-141089714D02*
X153891761Y-141042095D01*
X153939380Y-140899238D01*
X153939380Y-140804000D01*
X153891761Y-140661142D01*
X153796523Y-140565904D01*
X153701285Y-140518285D01*
X153510809Y-140470666D01*
X153367952Y-140470666D01*
X153177476Y-140518285D01*
X153082238Y-140565904D01*
X152987000Y-140661142D01*
X152939380Y-140804000D01*
X152939380Y-140899238D01*
X152987000Y-141042095D01*
X153034619Y-141089714D01*
X154034619Y-141280190D02*
X154034619Y-142042095D01*
X153939380Y-142280190D02*
X152939380Y-142280190D01*
X153939380Y-142756380D02*
X152939380Y-142756380D01*
X153939380Y-143327809D01*
X152939380Y-143327809D01*
%TO.C,J5*%
X137273333Y-135712380D02*
X137273333Y-136426666D01*
X137320952Y-136569523D01*
X137416190Y-136664761D01*
X137559047Y-136712380D01*
X137654285Y-136712380D01*
X136320952Y-135712380D02*
X136797142Y-135712380D01*
X136844761Y-136188571D01*
X136797142Y-136140952D01*
X136701904Y-136093333D01*
X136463809Y-136093333D01*
X136368571Y-136140952D01*
X136320952Y-136188571D01*
X136273333Y-136283809D01*
X136273333Y-136521904D01*
X136320952Y-136617142D01*
X136368571Y-136664761D01*
X136463809Y-136712380D01*
X136701904Y-136712380D01*
X136797142Y-136664761D01*
X136844761Y-136617142D01*
X139839380Y-134736380D02*
X138839380Y-134736380D01*
X138839380Y-135117333D01*
X138887000Y-135212571D01*
X138934619Y-135260190D01*
X139029857Y-135307809D01*
X139172714Y-135307809D01*
X139267952Y-135260190D01*
X139315571Y-135212571D01*
X139363190Y-135117333D01*
X139363190Y-134736380D01*
X138839380Y-135926857D02*
X138839380Y-136117333D01*
X138887000Y-136212571D01*
X138982238Y-136307809D01*
X139172714Y-136355428D01*
X139506047Y-136355428D01*
X139696523Y-136307809D01*
X139791761Y-136212571D01*
X139839380Y-136117333D01*
X139839380Y-135926857D01*
X139791761Y-135831619D01*
X139696523Y-135736380D01*
X139506047Y-135688761D01*
X139172714Y-135688761D01*
X138982238Y-135736380D01*
X138887000Y-135831619D01*
X138839380Y-135926857D01*
X139791761Y-136736380D02*
X139839380Y-136879238D01*
X139839380Y-137117333D01*
X139791761Y-137212571D01*
X139744142Y-137260190D01*
X139648904Y-137307809D01*
X139553666Y-137307809D01*
X139458428Y-137260190D01*
X139410809Y-137212571D01*
X139363190Y-137117333D01*
X139315571Y-136926857D01*
X139267952Y-136831619D01*
X139220333Y-136784000D01*
X139125095Y-136736380D01*
X139029857Y-136736380D01*
X138934619Y-136784000D01*
X138887000Y-136831619D01*
X138839380Y-136926857D01*
X138839380Y-137164952D01*
X138887000Y-137307809D01*
X139934619Y-137498285D02*
X139934619Y-138260190D01*
X139839380Y-138498285D02*
X138839380Y-138498285D01*
X139315571Y-138498285D02*
X139315571Y-139069714D01*
X139839380Y-139069714D02*
X138839380Y-139069714D01*
X139553666Y-139498285D02*
X139553666Y-139974476D01*
X139839380Y-139403047D02*
X138839380Y-139736380D01*
X139839380Y-140069714D01*
X139839380Y-140974476D02*
X139363190Y-140641142D01*
X139839380Y-140403047D02*
X138839380Y-140403047D01*
X138839380Y-140784000D01*
X138887000Y-140879238D01*
X138934619Y-140926857D01*
X139029857Y-140974476D01*
X139172714Y-140974476D01*
X139267952Y-140926857D01*
X139315571Y-140879238D01*
X139363190Y-140784000D01*
X139363190Y-140403047D01*
X139839380Y-141403047D02*
X138839380Y-141403047D01*
X138839380Y-141641142D01*
X138887000Y-141784000D01*
X138982238Y-141879238D01*
X139077476Y-141926857D01*
X139267952Y-141974476D01*
X139410809Y-141974476D01*
X139601285Y-141926857D01*
X139696523Y-141879238D01*
X139791761Y-141784000D01*
X139839380Y-141641142D01*
X139839380Y-141403047D01*
X139934619Y-142164952D02*
X139934619Y-142926857D01*
X139791761Y-143117333D02*
X139839380Y-143260190D01*
X139839380Y-143498285D01*
X139791761Y-143593523D01*
X139744142Y-143641142D01*
X139648904Y-143688761D01*
X139553666Y-143688761D01*
X139458428Y-143641142D01*
X139410809Y-143593523D01*
X139363190Y-143498285D01*
X139315571Y-143307809D01*
X139267952Y-143212571D01*
X139220333Y-143164952D01*
X139125095Y-143117333D01*
X139029857Y-143117333D01*
X138934619Y-143164952D01*
X138887000Y-143212571D01*
X138839380Y-143307809D01*
X138839380Y-143545904D01*
X138887000Y-143688761D01*
X139363190Y-144307809D02*
X139839380Y-144307809D01*
X138839380Y-143974476D02*
X139363190Y-144307809D01*
X138839380Y-144641142D01*
X139839380Y-144974476D02*
X138839380Y-144974476D01*
X139839380Y-145545904D01*
X138839380Y-145545904D01*
X139744142Y-146593523D02*
X139791761Y-146545904D01*
X139839380Y-146403047D01*
X139839380Y-146307809D01*
X139791761Y-146164952D01*
X139696523Y-146069714D01*
X139601285Y-146022095D01*
X139410809Y-145974476D01*
X139267952Y-145974476D01*
X139077476Y-146022095D01*
X138982238Y-146069714D01*
X138887000Y-146164952D01*
X138839380Y-146307809D01*
X138839380Y-146403047D01*
X138887000Y-146545904D01*
X138934619Y-146593523D01*
X139934619Y-146784000D02*
X139934619Y-147545904D01*
X139839380Y-147784000D02*
X138839380Y-147784000D01*
X139839380Y-148260190D02*
X138839380Y-148260190D01*
X139839380Y-148831619D01*
X138839380Y-148831619D01*
%TO.C,J4*%
X137293333Y-105602380D02*
X137293333Y-106316666D01*
X137340952Y-106459523D01*
X137436190Y-106554761D01*
X137579047Y-106602380D01*
X137674285Y-106602380D01*
X136388571Y-105935714D02*
X136388571Y-106602380D01*
X136626666Y-105554761D02*
X136864761Y-106269047D01*
X136245714Y-106269047D01*
X139335571Y-105269238D02*
X139335571Y-105602571D01*
X139859380Y-105745428D02*
X139859380Y-105269238D01*
X138859380Y-105269238D01*
X138859380Y-105745428D01*
X138859380Y-106078761D02*
X139859380Y-106745428D01*
X138859380Y-106745428D02*
X139859380Y-106078761D01*
X138859380Y-106983523D02*
X138859380Y-107554952D01*
X139859380Y-107269238D02*
X138859380Y-107269238D01*
X139954619Y-107650190D02*
X139954619Y-108412095D01*
X139859380Y-108650190D02*
X138859380Y-108650190D01*
X138859380Y-109031142D01*
X138907000Y-109126380D01*
X138954619Y-109174000D01*
X139049857Y-109221619D01*
X139192714Y-109221619D01*
X139287952Y-109174000D01*
X139335571Y-109126380D01*
X139383190Y-109031142D01*
X139383190Y-108650190D01*
X138859380Y-109554952D02*
X139859380Y-109793047D01*
X139145095Y-109983523D01*
X139859380Y-110174000D01*
X138859380Y-110412095D01*
X139859380Y-110793047D02*
X138859380Y-110793047D01*
X139573666Y-111126380D01*
X138859380Y-111459714D01*
X139859380Y-111459714D01*
X139954619Y-111697809D02*
X139954619Y-112459714D01*
X139764142Y-113269238D02*
X139811761Y-113221619D01*
X139859380Y-113078761D01*
X139859380Y-112983523D01*
X139811761Y-112840666D01*
X139716523Y-112745428D01*
X139621285Y-112697809D01*
X139430809Y-112650190D01*
X139287952Y-112650190D01*
X139097476Y-112697809D01*
X139002238Y-112745428D01*
X138907000Y-112840666D01*
X138859380Y-112983523D01*
X138859380Y-113078761D01*
X138907000Y-113221619D01*
X138954619Y-113269238D01*
X138859380Y-113554952D02*
X138859380Y-114126380D01*
X139859380Y-113840666D02*
X138859380Y-113840666D01*
X139859380Y-115031142D02*
X139383190Y-114697809D01*
X139859380Y-114459714D02*
X138859380Y-114459714D01*
X138859380Y-114840666D01*
X138907000Y-114935904D01*
X138954619Y-114983523D01*
X139049857Y-115031142D01*
X139192714Y-115031142D01*
X139287952Y-114983523D01*
X139335571Y-114935904D01*
X139383190Y-114840666D01*
X139383190Y-114459714D01*
X139859380Y-115935904D02*
X139859380Y-115459714D01*
X138859380Y-115459714D01*
X139954619Y-116031142D02*
X139954619Y-116793047D01*
X139859380Y-117031142D02*
X138859380Y-117031142D01*
X139859380Y-117507333D02*
X138859380Y-117507333D01*
X139859380Y-118078761D01*
X138859380Y-118078761D01*
%TO.C,J3*%
X137293333Y-90602380D02*
X137293333Y-91316666D01*
X137340952Y-91459523D01*
X137436190Y-91554761D01*
X137579047Y-91602380D01*
X137674285Y-91602380D01*
X136912380Y-90602380D02*
X136293333Y-90602380D01*
X136626666Y-90983333D01*
X136483809Y-90983333D01*
X136388571Y-91030952D01*
X136340952Y-91078571D01*
X136293333Y-91173809D01*
X136293333Y-91411904D01*
X136340952Y-91507142D01*
X136388571Y-91554761D01*
X136483809Y-91602380D01*
X136769523Y-91602380D01*
X136864761Y-91554761D01*
X136912380Y-91507142D01*
X139764142Y-93531142D02*
X139811761Y-93483523D01*
X139859380Y-93340666D01*
X139859380Y-93245428D01*
X139811761Y-93102571D01*
X139716523Y-93007333D01*
X139621285Y-92959714D01*
X139430809Y-92912095D01*
X139287952Y-92912095D01*
X139097476Y-92959714D01*
X139002238Y-93007333D01*
X138907000Y-93102571D01*
X138859380Y-93245428D01*
X138859380Y-93340666D01*
X138907000Y-93483523D01*
X138954619Y-93531142D01*
X138859380Y-93816857D02*
X139859380Y-94150190D01*
X138859380Y-94483523D01*
X138954619Y-94769238D02*
X138907000Y-94816857D01*
X138859380Y-94912095D01*
X138859380Y-95150190D01*
X138907000Y-95245428D01*
X138954619Y-95293047D01*
X139049857Y-95340666D01*
X139145095Y-95340666D01*
X139287952Y-95293047D01*
X139859380Y-94721619D01*
X139859380Y-95340666D01*
X139954619Y-95531142D02*
X139954619Y-96293047D01*
X139859380Y-96531142D02*
X138859380Y-96531142D01*
X139859380Y-97007333D02*
X138859380Y-97007333D01*
X139859380Y-97578761D01*
X138859380Y-97578761D01*
X139859380Y-98054952D02*
X138859380Y-98054952D01*
X138859380Y-98435904D01*
X138907000Y-98531142D01*
X138954619Y-98578761D01*
X139049857Y-98626380D01*
X139192714Y-98626380D01*
X139287952Y-98578761D01*
X139335571Y-98531142D01*
X139383190Y-98435904D01*
X139383190Y-98054952D01*
X138859380Y-99054952D02*
X139668904Y-99054952D01*
X139764142Y-99102571D01*
X139811761Y-99150190D01*
X139859380Y-99245428D01*
X139859380Y-99435904D01*
X139811761Y-99531142D01*
X139764142Y-99578761D01*
X139668904Y-99626380D01*
X138859380Y-99626380D01*
X138859380Y-99959714D02*
X138859380Y-100531142D01*
X139859380Y-100245428D02*
X138859380Y-100245428D01*
%TO.C,J2*%
X165463333Y-75972380D02*
X165463333Y-76686666D01*
X165510952Y-76829523D01*
X165606190Y-76924761D01*
X165749047Y-76972380D01*
X165844285Y-76972380D01*
X165034761Y-76067619D02*
X164987142Y-76020000D01*
X164891904Y-75972380D01*
X164653809Y-75972380D01*
X164558571Y-76020000D01*
X164510952Y-76067619D01*
X164463333Y-76162857D01*
X164463333Y-76258095D01*
X164510952Y-76400952D01*
X165082380Y-76972380D01*
X164463333Y-76972380D01*
X168029380Y-78163047D02*
X168029380Y-77591619D01*
X168029380Y-77877333D02*
X167029380Y-77877333D01*
X167172238Y-77782095D01*
X167267476Y-77686857D01*
X167315095Y-77591619D01*
X167029380Y-78448761D02*
X168029380Y-78782095D01*
X167029380Y-79115428D01*
X166981761Y-80163047D02*
X168267476Y-79305904D01*
X167029380Y-80686857D02*
X167029380Y-80877333D01*
X167077000Y-80972571D01*
X167172238Y-81067809D01*
X167362714Y-81115428D01*
X167696047Y-81115428D01*
X167886523Y-81067809D01*
X167981761Y-80972571D01*
X168029380Y-80877333D01*
X168029380Y-80686857D01*
X167981761Y-80591619D01*
X167886523Y-80496380D01*
X167696047Y-80448761D01*
X167362714Y-80448761D01*
X167172238Y-80496380D01*
X167077000Y-80591619D01*
X167029380Y-80686857D01*
X167934142Y-82115428D02*
X167981761Y-82067809D01*
X168029380Y-81924952D01*
X168029380Y-81829714D01*
X167981761Y-81686857D01*
X167886523Y-81591619D01*
X167791285Y-81544000D01*
X167600809Y-81496380D01*
X167457952Y-81496380D01*
X167267476Y-81544000D01*
X167172238Y-81591619D01*
X167077000Y-81686857D01*
X167029380Y-81829714D01*
X167029380Y-81924952D01*
X167077000Y-82067809D01*
X167124619Y-82115428D01*
X167029380Y-82401142D02*
X167029380Y-82972571D01*
X168029380Y-82686857D02*
X167029380Y-82686857D01*
X168124619Y-83067809D02*
X168124619Y-83829714D01*
X167029380Y-84258285D02*
X167029380Y-84448761D01*
X167077000Y-84544000D01*
X167172238Y-84639238D01*
X167362714Y-84686857D01*
X167696047Y-84686857D01*
X167886523Y-84639238D01*
X167981761Y-84544000D01*
X168029380Y-84448761D01*
X168029380Y-84258285D01*
X167981761Y-84163047D01*
X167886523Y-84067809D01*
X167696047Y-84020190D01*
X167362714Y-84020190D01*
X167172238Y-84067809D01*
X167077000Y-84163047D01*
X167029380Y-84258285D01*
X167029380Y-85115428D02*
X167838904Y-85115428D01*
X167934142Y-85163047D01*
X167981761Y-85210666D01*
X168029380Y-85305904D01*
X168029380Y-85496380D01*
X167981761Y-85591619D01*
X167934142Y-85639238D01*
X167838904Y-85686857D01*
X167029380Y-85686857D01*
X167029380Y-86020190D02*
X167029380Y-86591619D01*
X168029380Y-86305904D02*
X167029380Y-86305904D01*
%TO.C,J1*%
X137293333Y-75492380D02*
X137293333Y-76206666D01*
X137340952Y-76349523D01*
X137436190Y-76444761D01*
X137579047Y-76492380D01*
X137674285Y-76492380D01*
X136293333Y-76492380D02*
X136864761Y-76492380D01*
X136579047Y-76492380D02*
X136579047Y-75492380D01*
X136674285Y-75635238D01*
X136769523Y-75730476D01*
X136864761Y-75778095D01*
X139859380Y-78349714D02*
X139859380Y-77778285D01*
X139859380Y-78064000D02*
X138859380Y-78064000D01*
X139002238Y-77968761D01*
X139097476Y-77873523D01*
X139145095Y-77778285D01*
X138859380Y-78635428D02*
X139859380Y-78968761D01*
X138859380Y-79302095D01*
X138811761Y-80349714D02*
X140097476Y-79492571D01*
X138859380Y-80873523D02*
X138859380Y-81064000D01*
X138907000Y-81159238D01*
X139002238Y-81254476D01*
X139192714Y-81302095D01*
X139526047Y-81302095D01*
X139716523Y-81254476D01*
X139811761Y-81159238D01*
X139859380Y-81064000D01*
X139859380Y-80873523D01*
X139811761Y-80778285D01*
X139716523Y-80683047D01*
X139526047Y-80635428D01*
X139192714Y-80635428D01*
X139002238Y-80683047D01*
X138907000Y-80778285D01*
X138859380Y-80873523D01*
X139764142Y-82302095D02*
X139811761Y-82254476D01*
X139859380Y-82111619D01*
X139859380Y-82016380D01*
X139811761Y-81873523D01*
X139716523Y-81778285D01*
X139621285Y-81730666D01*
X139430809Y-81683047D01*
X139287952Y-81683047D01*
X139097476Y-81730666D01*
X139002238Y-81778285D01*
X138907000Y-81873523D01*
X138859380Y-82016380D01*
X138859380Y-82111619D01*
X138907000Y-82254476D01*
X138954619Y-82302095D01*
X138859380Y-82587809D02*
X138859380Y-83159238D01*
X139859380Y-82873523D02*
X138859380Y-82873523D01*
X139954619Y-83254476D02*
X139954619Y-84016380D01*
X139859380Y-84254476D02*
X138859380Y-84254476D01*
X139859380Y-84730666D02*
X138859380Y-84730666D01*
X139859380Y-85302095D01*
X138859380Y-85302095D01*
%TO.C,D4*%
X119338095Y-34902380D02*
X119338095Y-33902380D01*
X119100000Y-33902380D01*
X118957142Y-33950000D01*
X118861904Y-34045238D01*
X118814285Y-34140476D01*
X118766666Y-34330952D01*
X118766666Y-34473809D01*
X118814285Y-34664285D01*
X118861904Y-34759523D01*
X118957142Y-34854761D01*
X119100000Y-34902380D01*
X119338095Y-34902380D01*
X117909523Y-34235714D02*
X117909523Y-34902380D01*
X118147619Y-33854761D02*
X118385714Y-34569047D01*
X117766666Y-34569047D01*
X119242857Y-26982380D02*
X119719047Y-26982380D01*
X119719047Y-25982380D01*
X118909523Y-26458571D02*
X118576190Y-26458571D01*
X118433333Y-26982380D02*
X118909523Y-26982380D01*
X118909523Y-25982380D01*
X118433333Y-25982380D01*
X118004761Y-26982380D02*
X118004761Y-25982380D01*
X117766666Y-25982380D01*
X117623809Y-26030000D01*
X117528571Y-26125238D01*
X117480952Y-26220476D01*
X117433333Y-26410952D01*
X117433333Y-26553809D01*
X117480952Y-26744285D01*
X117528571Y-26839523D01*
X117623809Y-26934761D01*
X117766666Y-26982380D01*
X118004761Y-26982380D01*
%TD*%
M02*
