%TF.GenerationSoftware,KiCad,Pcbnew,5.1.7*%
%TF.CreationDate,2020-11-10T17:58:31+01:00*%
%TF.ProjectId,AS3340-VCO,41533333-3430-42d5-9643-4f2e6b696361,1*%
%TF.SameCoordinates,Original*%
%TF.FileFunction,Legend,Top*%
%TF.FilePolarity,Positive*%
%FSLAX46Y46*%
G04 Gerber Fmt 4.6, Leading zero omitted, Abs format (unit mm)*
G04 Created by KiCad (PCBNEW 5.1.7) date 2020-11-10 17:58:31*
%MOMM*%
%LPD*%
G01*
G04 APERTURE LIST*
%ADD10C,0.127000*%
%ADD11C,0.300000*%
%ADD12C,0.120000*%
%ADD13C,0.015000*%
%ADD14C,0.150000*%
G04 APERTURE END LIST*
D10*
%TO.C,RV7*%
X143165000Y-64040000D02*
X149875000Y-64040000D01*
X143165000Y-68540000D02*
X143165000Y-64040000D01*
X149875000Y-68540000D02*
X143165000Y-68540000D01*
X149875000Y-64040000D02*
X149875000Y-68540000D01*
D11*
X142420000Y-67620000D02*
G75*
G03*
X142420000Y-67620000I-100000J0D01*
G01*
D10*
%TO.C,RV6*%
X114295000Y-49660000D02*
X121005000Y-49660000D01*
X114295000Y-54160000D02*
X114295000Y-49660000D01*
X121005000Y-54160000D02*
X114295000Y-54160000D01*
X121005000Y-49660000D02*
X121005000Y-54160000D01*
D11*
X113550000Y-53240000D02*
G75*
G03*
X113550000Y-53240000I-100000J0D01*
G01*
D10*
%TO.C,RV4*%
X170505000Y-70750000D02*
X177215000Y-70750000D01*
X170505000Y-75250000D02*
X170505000Y-70750000D01*
X177215000Y-75250000D02*
X170505000Y-75250000D01*
X177215000Y-70750000D02*
X177215000Y-75250000D01*
D11*
X169760000Y-74330000D02*
G75*
G03*
X169760000Y-74330000I-100000J0D01*
G01*
D12*
%TO.C,C10*%
X145280000Y-123100000D02*
G75*
G03*
X145280000Y-123100000I-2620000J0D01*
G01*
X142660000Y-120520000D02*
X142660000Y-125680000D01*
X142700000Y-120520000D02*
X142700000Y-125680000D01*
X142740000Y-120521000D02*
X142740000Y-125679000D01*
X142780000Y-120522000D02*
X142780000Y-125678000D01*
X142820000Y-120524000D02*
X142820000Y-125676000D01*
X142860000Y-120527000D02*
X142860000Y-125673000D01*
X142900000Y-120531000D02*
X142900000Y-122060000D01*
X142900000Y-124140000D02*
X142900000Y-125669000D01*
X142940000Y-120535000D02*
X142940000Y-122060000D01*
X142940000Y-124140000D02*
X142940000Y-125665000D01*
X142980000Y-120539000D02*
X142980000Y-122060000D01*
X142980000Y-124140000D02*
X142980000Y-125661000D01*
X143020000Y-120544000D02*
X143020000Y-122060000D01*
X143020000Y-124140000D02*
X143020000Y-125656000D01*
X143060000Y-120550000D02*
X143060000Y-122060000D01*
X143060000Y-124140000D02*
X143060000Y-125650000D01*
X143100000Y-120557000D02*
X143100000Y-122060000D01*
X143100000Y-124140000D02*
X143100000Y-125643000D01*
X143140000Y-120564000D02*
X143140000Y-122060000D01*
X143140000Y-124140000D02*
X143140000Y-125636000D01*
X143180000Y-120572000D02*
X143180000Y-122060000D01*
X143180000Y-124140000D02*
X143180000Y-125628000D01*
X143220000Y-120580000D02*
X143220000Y-122060000D01*
X143220000Y-124140000D02*
X143220000Y-125620000D01*
X143260000Y-120589000D02*
X143260000Y-122060000D01*
X143260000Y-124140000D02*
X143260000Y-125611000D01*
X143300000Y-120599000D02*
X143300000Y-122060000D01*
X143300000Y-124140000D02*
X143300000Y-125601000D01*
X143340000Y-120609000D02*
X143340000Y-122060000D01*
X143340000Y-124140000D02*
X143340000Y-125591000D01*
X143381000Y-120620000D02*
X143381000Y-122060000D01*
X143381000Y-124140000D02*
X143381000Y-125580000D01*
X143421000Y-120632000D02*
X143421000Y-122060000D01*
X143421000Y-124140000D02*
X143421000Y-125568000D01*
X143461000Y-120645000D02*
X143461000Y-122060000D01*
X143461000Y-124140000D02*
X143461000Y-125555000D01*
X143501000Y-120658000D02*
X143501000Y-122060000D01*
X143501000Y-124140000D02*
X143501000Y-125542000D01*
X143541000Y-120672000D02*
X143541000Y-122060000D01*
X143541000Y-124140000D02*
X143541000Y-125528000D01*
X143581000Y-120686000D02*
X143581000Y-122060000D01*
X143581000Y-124140000D02*
X143581000Y-125514000D01*
X143621000Y-120702000D02*
X143621000Y-122060000D01*
X143621000Y-124140000D02*
X143621000Y-125498000D01*
X143661000Y-120718000D02*
X143661000Y-122060000D01*
X143661000Y-124140000D02*
X143661000Y-125482000D01*
X143701000Y-120735000D02*
X143701000Y-122060000D01*
X143701000Y-124140000D02*
X143701000Y-125465000D01*
X143741000Y-120752000D02*
X143741000Y-122060000D01*
X143741000Y-124140000D02*
X143741000Y-125448000D01*
X143781000Y-120771000D02*
X143781000Y-122060000D01*
X143781000Y-124140000D02*
X143781000Y-125429000D01*
X143821000Y-120790000D02*
X143821000Y-122060000D01*
X143821000Y-124140000D02*
X143821000Y-125410000D01*
X143861000Y-120810000D02*
X143861000Y-122060000D01*
X143861000Y-124140000D02*
X143861000Y-125390000D01*
X143901000Y-120832000D02*
X143901000Y-122060000D01*
X143901000Y-124140000D02*
X143901000Y-125368000D01*
X143941000Y-120853000D02*
X143941000Y-122060000D01*
X143941000Y-124140000D02*
X143941000Y-125347000D01*
X143981000Y-120876000D02*
X143981000Y-122060000D01*
X143981000Y-124140000D02*
X143981000Y-125324000D01*
X144021000Y-120900000D02*
X144021000Y-122060000D01*
X144021000Y-124140000D02*
X144021000Y-125300000D01*
X144061000Y-120925000D02*
X144061000Y-122060000D01*
X144061000Y-124140000D02*
X144061000Y-125275000D01*
X144101000Y-120951000D02*
X144101000Y-122060000D01*
X144101000Y-124140000D02*
X144101000Y-125249000D01*
X144141000Y-120978000D02*
X144141000Y-122060000D01*
X144141000Y-124140000D02*
X144141000Y-125222000D01*
X144181000Y-121005000D02*
X144181000Y-122060000D01*
X144181000Y-124140000D02*
X144181000Y-125195000D01*
X144221000Y-121035000D02*
X144221000Y-122060000D01*
X144221000Y-124140000D02*
X144221000Y-125165000D01*
X144261000Y-121065000D02*
X144261000Y-122060000D01*
X144261000Y-124140000D02*
X144261000Y-125135000D01*
X144301000Y-121096000D02*
X144301000Y-122060000D01*
X144301000Y-124140000D02*
X144301000Y-125104000D01*
X144341000Y-121129000D02*
X144341000Y-122060000D01*
X144341000Y-124140000D02*
X144341000Y-125071000D01*
X144381000Y-121163000D02*
X144381000Y-122060000D01*
X144381000Y-124140000D02*
X144381000Y-125037000D01*
X144421000Y-121199000D02*
X144421000Y-122060000D01*
X144421000Y-124140000D02*
X144421000Y-125001000D01*
X144461000Y-121236000D02*
X144461000Y-122060000D01*
X144461000Y-124140000D02*
X144461000Y-124964000D01*
X144501000Y-121274000D02*
X144501000Y-122060000D01*
X144501000Y-124140000D02*
X144501000Y-124926000D01*
X144541000Y-121315000D02*
X144541000Y-122060000D01*
X144541000Y-124140000D02*
X144541000Y-124885000D01*
X144581000Y-121357000D02*
X144581000Y-122060000D01*
X144581000Y-124140000D02*
X144581000Y-124843000D01*
X144621000Y-121401000D02*
X144621000Y-122060000D01*
X144621000Y-124140000D02*
X144621000Y-124799000D01*
X144661000Y-121447000D02*
X144661000Y-122060000D01*
X144661000Y-124140000D02*
X144661000Y-124753000D01*
X144701000Y-121495000D02*
X144701000Y-122060000D01*
X144701000Y-124140000D02*
X144701000Y-124705000D01*
X144741000Y-121546000D02*
X144741000Y-122060000D01*
X144741000Y-124140000D02*
X144741000Y-124654000D01*
X144781000Y-121600000D02*
X144781000Y-122060000D01*
X144781000Y-124140000D02*
X144781000Y-124600000D01*
X144821000Y-121657000D02*
X144821000Y-122060000D01*
X144821000Y-124140000D02*
X144821000Y-124543000D01*
X144861000Y-121717000D02*
X144861000Y-122060000D01*
X144861000Y-124140000D02*
X144861000Y-124483000D01*
X144901000Y-121781000D02*
X144901000Y-122060000D01*
X144901000Y-124140000D02*
X144901000Y-124419000D01*
X144941000Y-121849000D02*
X144941000Y-122060000D01*
X144941000Y-124140000D02*
X144941000Y-124351000D01*
X144981000Y-121922000D02*
X144981000Y-124278000D01*
X145021000Y-122002000D02*
X145021000Y-124198000D01*
X145061000Y-122089000D02*
X145061000Y-124111000D01*
X145101000Y-122185000D02*
X145101000Y-124015000D01*
X145141000Y-122295000D02*
X145141000Y-123905000D01*
X145181000Y-122423000D02*
X145181000Y-123777000D01*
X145221000Y-122582000D02*
X145221000Y-123618000D01*
X145261000Y-122816000D02*
X145261000Y-123384000D01*
X139855225Y-121625000D02*
X140355225Y-121625000D01*
X140105225Y-121375000D02*
X140105225Y-121875000D01*
%TO.C,C8*%
X145280000Y-97340000D02*
G75*
G03*
X145280000Y-97340000I-2620000J0D01*
G01*
X142660000Y-94760000D02*
X142660000Y-99920000D01*
X142700000Y-94760000D02*
X142700000Y-99920000D01*
X142740000Y-94761000D02*
X142740000Y-99919000D01*
X142780000Y-94762000D02*
X142780000Y-99918000D01*
X142820000Y-94764000D02*
X142820000Y-99916000D01*
X142860000Y-94767000D02*
X142860000Y-99913000D01*
X142900000Y-94771000D02*
X142900000Y-96300000D01*
X142900000Y-98380000D02*
X142900000Y-99909000D01*
X142940000Y-94775000D02*
X142940000Y-96300000D01*
X142940000Y-98380000D02*
X142940000Y-99905000D01*
X142980000Y-94779000D02*
X142980000Y-96300000D01*
X142980000Y-98380000D02*
X142980000Y-99901000D01*
X143020000Y-94784000D02*
X143020000Y-96300000D01*
X143020000Y-98380000D02*
X143020000Y-99896000D01*
X143060000Y-94790000D02*
X143060000Y-96300000D01*
X143060000Y-98380000D02*
X143060000Y-99890000D01*
X143100000Y-94797000D02*
X143100000Y-96300000D01*
X143100000Y-98380000D02*
X143100000Y-99883000D01*
X143140000Y-94804000D02*
X143140000Y-96300000D01*
X143140000Y-98380000D02*
X143140000Y-99876000D01*
X143180000Y-94812000D02*
X143180000Y-96300000D01*
X143180000Y-98380000D02*
X143180000Y-99868000D01*
X143220000Y-94820000D02*
X143220000Y-96300000D01*
X143220000Y-98380000D02*
X143220000Y-99860000D01*
X143260000Y-94829000D02*
X143260000Y-96300000D01*
X143260000Y-98380000D02*
X143260000Y-99851000D01*
X143300000Y-94839000D02*
X143300000Y-96300000D01*
X143300000Y-98380000D02*
X143300000Y-99841000D01*
X143340000Y-94849000D02*
X143340000Y-96300000D01*
X143340000Y-98380000D02*
X143340000Y-99831000D01*
X143381000Y-94860000D02*
X143381000Y-96300000D01*
X143381000Y-98380000D02*
X143381000Y-99820000D01*
X143421000Y-94872000D02*
X143421000Y-96300000D01*
X143421000Y-98380000D02*
X143421000Y-99808000D01*
X143461000Y-94885000D02*
X143461000Y-96300000D01*
X143461000Y-98380000D02*
X143461000Y-99795000D01*
X143501000Y-94898000D02*
X143501000Y-96300000D01*
X143501000Y-98380000D02*
X143501000Y-99782000D01*
X143541000Y-94912000D02*
X143541000Y-96300000D01*
X143541000Y-98380000D02*
X143541000Y-99768000D01*
X143581000Y-94926000D02*
X143581000Y-96300000D01*
X143581000Y-98380000D02*
X143581000Y-99754000D01*
X143621000Y-94942000D02*
X143621000Y-96300000D01*
X143621000Y-98380000D02*
X143621000Y-99738000D01*
X143661000Y-94958000D02*
X143661000Y-96300000D01*
X143661000Y-98380000D02*
X143661000Y-99722000D01*
X143701000Y-94975000D02*
X143701000Y-96300000D01*
X143701000Y-98380000D02*
X143701000Y-99705000D01*
X143741000Y-94992000D02*
X143741000Y-96300000D01*
X143741000Y-98380000D02*
X143741000Y-99688000D01*
X143781000Y-95011000D02*
X143781000Y-96300000D01*
X143781000Y-98380000D02*
X143781000Y-99669000D01*
X143821000Y-95030000D02*
X143821000Y-96300000D01*
X143821000Y-98380000D02*
X143821000Y-99650000D01*
X143861000Y-95050000D02*
X143861000Y-96300000D01*
X143861000Y-98380000D02*
X143861000Y-99630000D01*
X143901000Y-95072000D02*
X143901000Y-96300000D01*
X143901000Y-98380000D02*
X143901000Y-99608000D01*
X143941000Y-95093000D02*
X143941000Y-96300000D01*
X143941000Y-98380000D02*
X143941000Y-99587000D01*
X143981000Y-95116000D02*
X143981000Y-96300000D01*
X143981000Y-98380000D02*
X143981000Y-99564000D01*
X144021000Y-95140000D02*
X144021000Y-96300000D01*
X144021000Y-98380000D02*
X144021000Y-99540000D01*
X144061000Y-95165000D02*
X144061000Y-96300000D01*
X144061000Y-98380000D02*
X144061000Y-99515000D01*
X144101000Y-95191000D02*
X144101000Y-96300000D01*
X144101000Y-98380000D02*
X144101000Y-99489000D01*
X144141000Y-95218000D02*
X144141000Y-96300000D01*
X144141000Y-98380000D02*
X144141000Y-99462000D01*
X144181000Y-95245000D02*
X144181000Y-96300000D01*
X144181000Y-98380000D02*
X144181000Y-99435000D01*
X144221000Y-95275000D02*
X144221000Y-96300000D01*
X144221000Y-98380000D02*
X144221000Y-99405000D01*
X144261000Y-95305000D02*
X144261000Y-96300000D01*
X144261000Y-98380000D02*
X144261000Y-99375000D01*
X144301000Y-95336000D02*
X144301000Y-96300000D01*
X144301000Y-98380000D02*
X144301000Y-99344000D01*
X144341000Y-95369000D02*
X144341000Y-96300000D01*
X144341000Y-98380000D02*
X144341000Y-99311000D01*
X144381000Y-95403000D02*
X144381000Y-96300000D01*
X144381000Y-98380000D02*
X144381000Y-99277000D01*
X144421000Y-95439000D02*
X144421000Y-96300000D01*
X144421000Y-98380000D02*
X144421000Y-99241000D01*
X144461000Y-95476000D02*
X144461000Y-96300000D01*
X144461000Y-98380000D02*
X144461000Y-99204000D01*
X144501000Y-95514000D02*
X144501000Y-96300000D01*
X144501000Y-98380000D02*
X144501000Y-99166000D01*
X144541000Y-95555000D02*
X144541000Y-96300000D01*
X144541000Y-98380000D02*
X144541000Y-99125000D01*
X144581000Y-95597000D02*
X144581000Y-96300000D01*
X144581000Y-98380000D02*
X144581000Y-99083000D01*
X144621000Y-95641000D02*
X144621000Y-96300000D01*
X144621000Y-98380000D02*
X144621000Y-99039000D01*
X144661000Y-95687000D02*
X144661000Y-96300000D01*
X144661000Y-98380000D02*
X144661000Y-98993000D01*
X144701000Y-95735000D02*
X144701000Y-96300000D01*
X144701000Y-98380000D02*
X144701000Y-98945000D01*
X144741000Y-95786000D02*
X144741000Y-96300000D01*
X144741000Y-98380000D02*
X144741000Y-98894000D01*
X144781000Y-95840000D02*
X144781000Y-96300000D01*
X144781000Y-98380000D02*
X144781000Y-98840000D01*
X144821000Y-95897000D02*
X144821000Y-96300000D01*
X144821000Y-98380000D02*
X144821000Y-98783000D01*
X144861000Y-95957000D02*
X144861000Y-96300000D01*
X144861000Y-98380000D02*
X144861000Y-98723000D01*
X144901000Y-96021000D02*
X144901000Y-96300000D01*
X144901000Y-98380000D02*
X144901000Y-98659000D01*
X144941000Y-96089000D02*
X144941000Y-96300000D01*
X144941000Y-98380000D02*
X144941000Y-98591000D01*
X144981000Y-96162000D02*
X144981000Y-98518000D01*
X145021000Y-96242000D02*
X145021000Y-98438000D01*
X145061000Y-96329000D02*
X145061000Y-98351000D01*
X145101000Y-96425000D02*
X145101000Y-98255000D01*
X145141000Y-96535000D02*
X145141000Y-98145000D01*
X145181000Y-96663000D02*
X145181000Y-98017000D01*
X145221000Y-96822000D02*
X145221000Y-97858000D01*
X145261000Y-97056000D02*
X145261000Y-97624000D01*
X139855225Y-95865000D02*
X140355225Y-95865000D01*
X140105225Y-95615000D02*
X140105225Y-96115000D01*
%TO.C,U2*%
X124910000Y-46710000D02*
X124910000Y-56990000D01*
X145470000Y-46710000D02*
X124910000Y-46710000D01*
X145470000Y-56990000D02*
X145470000Y-46710000D01*
X124910000Y-56990000D02*
X145470000Y-56990000D01*
X124970000Y-49200000D02*
X124970000Y-50850000D01*
X145410000Y-49200000D02*
X124970000Y-49200000D01*
X145410000Y-54500000D02*
X145410000Y-49200000D01*
X124970000Y-54500000D02*
X145410000Y-54500000D01*
X124970000Y-52850000D02*
X124970000Y-54500000D01*
X124970000Y-50850000D02*
G75*
G02*
X124970000Y-52850000I0J-1000000D01*
G01*
%TO.C,U1*%
X150300000Y-46520000D02*
X150300000Y-56800000D01*
X168320000Y-46520000D02*
X150300000Y-46520000D01*
X168320000Y-56800000D02*
X168320000Y-46520000D01*
X150300000Y-56800000D02*
X168320000Y-56800000D01*
X150360000Y-49010000D02*
X150360000Y-50660000D01*
X168260000Y-49010000D02*
X150360000Y-49010000D01*
X168260000Y-54310000D02*
X168260000Y-49010000D01*
X150360000Y-54310000D02*
X168260000Y-54310000D01*
X150360000Y-52660000D02*
X150360000Y-54310000D01*
X150360000Y-50660000D02*
G75*
G02*
X150360000Y-52660000I0J-1000000D01*
G01*
%TO.C,C11*%
X154340000Y-121450000D02*
X154340000Y-124190000D01*
X146600000Y-121450000D02*
X146600000Y-124190000D01*
X146600000Y-124190000D02*
X154340000Y-124190000D01*
X146600000Y-121450000D02*
X154340000Y-121450000D01*
%TO.C,C9*%
X154120000Y-95700000D02*
X154120000Y-98440000D01*
X146380000Y-95700000D02*
X146380000Y-98440000D01*
X146380000Y-98440000D02*
X154120000Y-98440000D01*
X146380000Y-95700000D02*
X154120000Y-95700000D01*
%TO.C,R27*%
X145670000Y-40110000D02*
X148410000Y-40110000D01*
X148410000Y-40110000D02*
X148410000Y-33570000D01*
X148410000Y-33570000D02*
X145670000Y-33570000D01*
X145670000Y-33570000D02*
X145670000Y-40110000D01*
X147040000Y-40880000D02*
X147040000Y-40110000D01*
X147040000Y-32800000D02*
X147040000Y-33570000D01*
%TO.C,R26*%
X170660000Y-142790000D02*
X170660000Y-145530000D01*
X170660000Y-145530000D02*
X177200000Y-145530000D01*
X177200000Y-145530000D02*
X177200000Y-142790000D01*
X177200000Y-142790000D02*
X170660000Y-142790000D01*
X169890000Y-144160000D02*
X170660000Y-144160000D01*
X177970000Y-144160000D02*
X177200000Y-144160000D01*
%TO.C,R25*%
X170660000Y-137620000D02*
X170660000Y-140360000D01*
X170660000Y-140360000D02*
X177200000Y-140360000D01*
X177200000Y-140360000D02*
X177200000Y-137620000D01*
X177200000Y-137620000D02*
X170660000Y-137620000D01*
X169890000Y-138990000D02*
X170660000Y-138990000D01*
X177970000Y-138990000D02*
X177200000Y-138990000D01*
%TO.C,R24*%
X170760000Y-132640000D02*
X170760000Y-135380000D01*
X170760000Y-135380000D02*
X177300000Y-135380000D01*
X177300000Y-135380000D02*
X177300000Y-132640000D01*
X177300000Y-132640000D02*
X170760000Y-132640000D01*
X169990000Y-134010000D02*
X170760000Y-134010000D01*
X178070000Y-134010000D02*
X177300000Y-134010000D01*
%TO.C,R23*%
X170610000Y-127450000D02*
X170610000Y-130190000D01*
X170610000Y-130190000D02*
X177150000Y-130190000D01*
X177150000Y-130190000D02*
X177150000Y-127450000D01*
X177150000Y-127450000D02*
X170610000Y-127450000D01*
X169840000Y-128820000D02*
X170610000Y-128820000D01*
X177920000Y-128820000D02*
X177150000Y-128820000D01*
%TO.C,R22*%
X170610000Y-122370000D02*
X170610000Y-125110000D01*
X170610000Y-125110000D02*
X177150000Y-125110000D01*
X177150000Y-125110000D02*
X177150000Y-122370000D01*
X177150000Y-122370000D02*
X170610000Y-122370000D01*
X169840000Y-123740000D02*
X170610000Y-123740000D01*
X177920000Y-123740000D02*
X177150000Y-123740000D01*
%TO.C,R21*%
X170750000Y-117280000D02*
X170750000Y-120020000D01*
X170750000Y-120020000D02*
X177290000Y-120020000D01*
X177290000Y-120020000D02*
X177290000Y-117280000D01*
X177290000Y-117280000D02*
X170750000Y-117280000D01*
X169980000Y-118650000D02*
X170750000Y-118650000D01*
X178060000Y-118650000D02*
X177290000Y-118650000D01*
%TO.C,R20*%
X170750000Y-112060000D02*
X170750000Y-114800000D01*
X170750000Y-114800000D02*
X177290000Y-114800000D01*
X177290000Y-114800000D02*
X177290000Y-112060000D01*
X177290000Y-112060000D02*
X170750000Y-112060000D01*
X169980000Y-113430000D02*
X170750000Y-113430000D01*
X178060000Y-113430000D02*
X177290000Y-113430000D01*
%TO.C,R19*%
X115500000Y-142870000D02*
X115500000Y-145610000D01*
X115500000Y-145610000D02*
X122040000Y-145610000D01*
X122040000Y-145610000D02*
X122040000Y-142870000D01*
X122040000Y-142870000D02*
X115500000Y-142870000D01*
X114730000Y-144240000D02*
X115500000Y-144240000D01*
X122810000Y-144240000D02*
X122040000Y-144240000D01*
%TO.C,R18*%
X115440000Y-137780000D02*
X115440000Y-140520000D01*
X115440000Y-140520000D02*
X121980000Y-140520000D01*
X121980000Y-140520000D02*
X121980000Y-137780000D01*
X121980000Y-137780000D02*
X115440000Y-137780000D01*
X114670000Y-139150000D02*
X115440000Y-139150000D01*
X122750000Y-139150000D02*
X121980000Y-139150000D01*
%TO.C,R17*%
X115510000Y-132650000D02*
X115510000Y-135390000D01*
X115510000Y-135390000D02*
X122050000Y-135390000D01*
X122050000Y-135390000D02*
X122050000Y-132650000D01*
X122050000Y-132650000D02*
X115510000Y-132650000D01*
X114740000Y-134020000D02*
X115510000Y-134020000D01*
X122820000Y-134020000D02*
X122050000Y-134020000D01*
%TO.C,R16*%
X115590000Y-127520000D02*
X115590000Y-130260000D01*
X115590000Y-130260000D02*
X122130000Y-130260000D01*
X122130000Y-130260000D02*
X122130000Y-127520000D01*
X122130000Y-127520000D02*
X115590000Y-127520000D01*
X114820000Y-128890000D02*
X115590000Y-128890000D01*
X122900000Y-128890000D02*
X122130000Y-128890000D01*
%TO.C,R15*%
X115590000Y-122410000D02*
X115590000Y-125150000D01*
X115590000Y-125150000D02*
X122130000Y-125150000D01*
X122130000Y-125150000D02*
X122130000Y-122410000D01*
X122130000Y-122410000D02*
X115590000Y-122410000D01*
X114820000Y-123780000D02*
X115590000Y-123780000D01*
X122900000Y-123780000D02*
X122130000Y-123780000D01*
%TO.C,R14*%
X115590000Y-117270000D02*
X115590000Y-120010000D01*
X115590000Y-120010000D02*
X122130000Y-120010000D01*
X122130000Y-120010000D02*
X122130000Y-117270000D01*
X122130000Y-117270000D02*
X115590000Y-117270000D01*
X114820000Y-118640000D02*
X115590000Y-118640000D01*
X122900000Y-118640000D02*
X122130000Y-118640000D01*
%TO.C,R13*%
X115590000Y-112220000D02*
X115590000Y-114960000D01*
X115590000Y-114960000D02*
X122130000Y-114960000D01*
X122130000Y-114960000D02*
X122130000Y-112220000D01*
X122130000Y-112220000D02*
X115590000Y-112220000D01*
X114820000Y-113590000D02*
X115590000Y-113590000D01*
X122900000Y-113590000D02*
X122130000Y-113590000D01*
%TO.C,R12*%
X115590000Y-107160000D02*
X115590000Y-109900000D01*
X115590000Y-109900000D02*
X122130000Y-109900000D01*
X122130000Y-109900000D02*
X122130000Y-107160000D01*
X122130000Y-107160000D02*
X115590000Y-107160000D01*
X114820000Y-108530000D02*
X115590000Y-108530000D01*
X122900000Y-108530000D02*
X122130000Y-108530000D01*
%TO.C,R11*%
X115660000Y-102020000D02*
X115660000Y-104760000D01*
X115660000Y-104760000D02*
X122200000Y-104760000D01*
X122200000Y-104760000D02*
X122200000Y-102020000D01*
X122200000Y-102020000D02*
X115660000Y-102020000D01*
X114890000Y-103390000D02*
X115660000Y-103390000D01*
X122970000Y-103390000D02*
X122200000Y-103390000D01*
%TO.C,R10*%
X115590000Y-96890000D02*
X115590000Y-99630000D01*
X115590000Y-99630000D02*
X122130000Y-99630000D01*
X122130000Y-99630000D02*
X122130000Y-96890000D01*
X122130000Y-96890000D02*
X115590000Y-96890000D01*
X114820000Y-98260000D02*
X115590000Y-98260000D01*
X122900000Y-98260000D02*
X122130000Y-98260000D01*
%TO.C,R9*%
X115590000Y-91780000D02*
X115590000Y-94520000D01*
X115590000Y-94520000D02*
X122130000Y-94520000D01*
X122130000Y-94520000D02*
X122130000Y-91780000D01*
X122130000Y-91780000D02*
X115590000Y-91780000D01*
X114820000Y-93150000D02*
X115590000Y-93150000D01*
X122900000Y-93150000D02*
X122130000Y-93150000D01*
%TO.C,R8*%
X115590000Y-86650000D02*
X115590000Y-89390000D01*
X115590000Y-89390000D02*
X122130000Y-89390000D01*
X122130000Y-89390000D02*
X122130000Y-86650000D01*
X122130000Y-86650000D02*
X115590000Y-86650000D01*
X114820000Y-88020000D02*
X115590000Y-88020000D01*
X122900000Y-88020000D02*
X122130000Y-88020000D01*
%TO.C,R7*%
X115590000Y-81590000D02*
X115590000Y-84330000D01*
X115590000Y-84330000D02*
X122130000Y-84330000D01*
X122130000Y-84330000D02*
X122130000Y-81590000D01*
X122130000Y-81590000D02*
X115590000Y-81590000D01*
X114820000Y-82960000D02*
X115590000Y-82960000D01*
X122900000Y-82960000D02*
X122130000Y-82960000D01*
%TO.C,R6*%
X115590000Y-76460000D02*
X115590000Y-79200000D01*
X115590000Y-79200000D02*
X122130000Y-79200000D01*
X122130000Y-79200000D02*
X122130000Y-76460000D01*
X122130000Y-76460000D02*
X115590000Y-76460000D01*
X114820000Y-77830000D02*
X115590000Y-77830000D01*
X122900000Y-77830000D02*
X122130000Y-77830000D01*
%TO.C,R5*%
X115720000Y-71290000D02*
X115720000Y-74030000D01*
X115720000Y-74030000D02*
X122260000Y-74030000D01*
X122260000Y-74030000D02*
X122260000Y-71290000D01*
X122260000Y-71290000D02*
X115720000Y-71290000D01*
X114950000Y-72660000D02*
X115720000Y-72660000D01*
X123030000Y-72660000D02*
X122260000Y-72660000D01*
%TO.C,R4*%
X115720000Y-66160000D02*
X115720000Y-68900000D01*
X115720000Y-68900000D02*
X122260000Y-68900000D01*
X122260000Y-68900000D02*
X122260000Y-66160000D01*
X122260000Y-66160000D02*
X115720000Y-66160000D01*
X114950000Y-67530000D02*
X115720000Y-67530000D01*
X123030000Y-67530000D02*
X122260000Y-67530000D01*
%TO.C,R3*%
X115640000Y-61020000D02*
X115640000Y-63760000D01*
X115640000Y-63760000D02*
X122180000Y-63760000D01*
X122180000Y-63760000D02*
X122180000Y-61020000D01*
X122180000Y-61020000D02*
X115640000Y-61020000D01*
X114870000Y-62390000D02*
X115640000Y-62390000D01*
X122950000Y-62390000D02*
X122180000Y-62390000D01*
%TO.C,R2*%
X115280000Y-40920000D02*
X115280000Y-43660000D01*
X115280000Y-43660000D02*
X121820000Y-43660000D01*
X121820000Y-43660000D02*
X121820000Y-40920000D01*
X121820000Y-40920000D02*
X115280000Y-40920000D01*
X114510000Y-42290000D02*
X115280000Y-42290000D01*
X122590000Y-42290000D02*
X121820000Y-42290000D01*
%TO.C,R1*%
X115420000Y-35910000D02*
X115420000Y-38650000D01*
X115420000Y-38650000D02*
X121960000Y-38650000D01*
X121960000Y-38650000D02*
X121960000Y-35910000D01*
X121960000Y-35910000D02*
X115420000Y-35910000D01*
X114650000Y-37280000D02*
X115420000Y-37280000D01*
X122730000Y-37280000D02*
X121960000Y-37280000D01*
%TO.C,J12*%
X172710000Y-51690000D02*
X174040000Y-51690000D01*
X172710000Y-53020000D02*
X172710000Y-51690000D01*
X175310000Y-51690000D02*
X177910000Y-51690000D01*
X175310000Y-54290000D02*
X175310000Y-51690000D01*
X172710000Y-54290000D02*
X175310000Y-54290000D01*
X177910000Y-51690000D02*
X177910000Y-64510000D01*
X172710000Y-54290000D02*
X172710000Y-64510000D01*
X172710000Y-64510000D02*
X177910000Y-64510000D01*
%TO.C,D3*%
X171980000Y-107400000D02*
X171980000Y-109640000D01*
X172220000Y-107400000D02*
X172220000Y-109640000D01*
X172100000Y-107400000D02*
X172100000Y-109640000D01*
X176270000Y-108520000D02*
X175620000Y-108520000D01*
X170730000Y-108520000D02*
X171380000Y-108520000D01*
X175620000Y-107400000D02*
X171380000Y-107400000D01*
X175620000Y-109640000D02*
X175620000Y-107400000D01*
X171380000Y-109640000D02*
X175620000Y-109640000D01*
X171380000Y-107400000D02*
X171380000Y-109640000D01*
%TO.C,D2*%
X171780000Y-101290000D02*
X171780000Y-103530000D01*
X172020000Y-101290000D02*
X172020000Y-103530000D01*
X171900000Y-101290000D02*
X171900000Y-103530000D01*
X176070000Y-102410000D02*
X175420000Y-102410000D01*
X170530000Y-102410000D02*
X171180000Y-102410000D01*
X175420000Y-101290000D02*
X171180000Y-101290000D01*
X175420000Y-103530000D02*
X175420000Y-101290000D01*
X171180000Y-103530000D02*
X175420000Y-103530000D01*
X171180000Y-101290000D02*
X171180000Y-103530000D01*
%TO.C,D1*%
X171920000Y-95450000D02*
X171920000Y-97690000D01*
X172160000Y-95450000D02*
X172160000Y-97690000D01*
X172040000Y-95450000D02*
X172040000Y-97690000D01*
X176210000Y-96570000D02*
X175560000Y-96570000D01*
X170670000Y-96570000D02*
X171320000Y-96570000D01*
X175560000Y-95450000D02*
X171320000Y-95450000D01*
X175560000Y-97690000D02*
X175560000Y-95450000D01*
X171320000Y-97690000D02*
X175560000Y-97690000D01*
X171320000Y-95450000D02*
X171320000Y-97690000D01*
%TO.C,C7*%
X169390000Y-88890000D02*
X177130000Y-88890000D01*
X169390000Y-91630000D02*
X177130000Y-91630000D01*
X169390000Y-88890000D02*
X169390000Y-91630000D01*
X177130000Y-88890000D02*
X177130000Y-91630000D01*
%TO.C,C6*%
X169240000Y-82080000D02*
X176980000Y-82080000D01*
X169240000Y-84820000D02*
X176980000Y-84820000D01*
X169240000Y-82080000D02*
X169240000Y-84820000D01*
X176980000Y-82080000D02*
X176980000Y-84820000D01*
%TO.C,C5*%
X161420000Y-23580000D02*
X169160000Y-23580000D01*
X161420000Y-26320000D02*
X169160000Y-26320000D01*
X161420000Y-23580000D02*
X161420000Y-26320000D01*
X169160000Y-23580000D02*
X169160000Y-26320000D01*
%TO.C,C4*%
X152150000Y-23580000D02*
X159890000Y-23580000D01*
X152150000Y-26320000D02*
X159890000Y-26320000D01*
X152150000Y-23580000D02*
X152150000Y-26320000D01*
X159890000Y-23580000D02*
X159890000Y-26320000D01*
%TO.C,C3*%
X142690000Y-23580000D02*
X150430000Y-23580000D01*
X142690000Y-26320000D02*
X150430000Y-26320000D01*
X142690000Y-23580000D02*
X142690000Y-26320000D01*
X150430000Y-23580000D02*
X150430000Y-26320000D01*
%TO.C,C2*%
X133230000Y-23580000D02*
X140970000Y-23580000D01*
X133230000Y-26320000D02*
X140970000Y-26320000D01*
X133230000Y-23580000D02*
X133230000Y-26320000D01*
X140970000Y-23580000D02*
X140970000Y-26320000D01*
%TO.C,C1*%
X123770000Y-23580000D02*
X131510000Y-23580000D01*
X123770000Y-26320000D02*
X131510000Y-26320000D01*
X123770000Y-23580000D02*
X123770000Y-26320000D01*
X131510000Y-23580000D02*
X131510000Y-26320000D01*
%TO.C,TP3*%
X173270000Y-46520000D02*
X173270000Y-42120000D01*
X173270000Y-42120000D02*
X177670000Y-42120000D01*
X177670000Y-42120000D02*
X177670000Y-46520000D01*
X177670000Y-46520000D02*
X173270000Y-46520000D01*
%TO.C,TP2*%
X177670000Y-35830000D02*
X177670000Y-40230000D01*
X177670000Y-40230000D02*
X173270000Y-40230000D01*
X173270000Y-40230000D02*
X173270000Y-35830000D01*
X173270000Y-35830000D02*
X177670000Y-35830000D01*
%TO.C,TP1*%
X177610000Y-29920000D02*
X177610000Y-34320000D01*
X177610000Y-34320000D02*
X173210000Y-34320000D01*
X173210000Y-34320000D02*
X173210000Y-29920000D01*
X173210000Y-29920000D02*
X177610000Y-29920000D01*
%TO.C,RV7*%
D13*
X146321385Y-63448592D02*
X145854060Y-62780984D01*
X145520256Y-63448592D02*
X145520256Y-62046616D01*
X146054342Y-62046616D01*
X146187863Y-62113377D01*
X146254624Y-62180137D01*
X146321385Y-62313659D01*
X146321385Y-62513941D01*
X146254624Y-62647463D01*
X146187863Y-62714223D01*
X146054342Y-62780984D01*
X145520256Y-62780984D01*
X146721950Y-62046616D02*
X147189275Y-63448592D01*
X147656600Y-62046616D01*
X147990404Y-62046616D02*
X148925055Y-62046616D01*
X148324208Y-63448592D01*
%TO.C,RV6*%
X117451385Y-49068592D02*
X116984060Y-48400984D01*
X116650256Y-49068592D02*
X116650256Y-47666616D01*
X117184342Y-47666616D01*
X117317863Y-47733377D01*
X117384624Y-47800137D01*
X117451385Y-47933659D01*
X117451385Y-48133941D01*
X117384624Y-48267463D01*
X117317863Y-48334223D01*
X117184342Y-48400984D01*
X116650256Y-48400984D01*
X117851950Y-47666616D02*
X118319275Y-49068592D01*
X118786600Y-47666616D01*
X119854772Y-47666616D02*
X119587729Y-47666616D01*
X119454208Y-47733377D01*
X119387447Y-47800137D01*
X119253926Y-48000420D01*
X119187165Y-48267463D01*
X119187165Y-48801549D01*
X119253926Y-48935070D01*
X119320686Y-49001831D01*
X119454208Y-49068592D01*
X119721251Y-49068592D01*
X119854772Y-49001831D01*
X119921533Y-48935070D01*
X119988294Y-48801549D01*
X119988294Y-48467745D01*
X119921533Y-48334223D01*
X119854772Y-48267463D01*
X119721251Y-48200702D01*
X119454208Y-48200702D01*
X119320686Y-48267463D01*
X119253926Y-48334223D01*
X119187165Y-48467745D01*
%TO.C,RV4*%
X173661385Y-70158592D02*
X173194060Y-69490984D01*
X172860256Y-70158592D02*
X172860256Y-68756616D01*
X173394342Y-68756616D01*
X173527863Y-68823377D01*
X173594624Y-68890137D01*
X173661385Y-69023659D01*
X173661385Y-69223941D01*
X173594624Y-69357463D01*
X173527863Y-69424223D01*
X173394342Y-69490984D01*
X172860256Y-69490984D01*
X174061950Y-68756616D02*
X174529275Y-70158592D01*
X174996600Y-68756616D01*
X176064772Y-69223941D02*
X176064772Y-70158592D01*
X175730969Y-68689855D02*
X175397165Y-69691266D01*
X176265055Y-69691266D01*
%TO.C,TOP_LEFT_MOUNT*%
D14*
X122088095Y-19912380D02*
X122659523Y-19912380D01*
X122373809Y-20912380D02*
X122373809Y-19912380D01*
X123183333Y-19912380D02*
X123373809Y-19912380D01*
X123469047Y-19960000D01*
X123564285Y-20055238D01*
X123611904Y-20245714D01*
X123611904Y-20579047D01*
X123564285Y-20769523D01*
X123469047Y-20864761D01*
X123373809Y-20912380D01*
X123183333Y-20912380D01*
X123088095Y-20864761D01*
X122992857Y-20769523D01*
X122945238Y-20579047D01*
X122945238Y-20245714D01*
X122992857Y-20055238D01*
X123088095Y-19960000D01*
X123183333Y-19912380D01*
X124040476Y-20912380D02*
X124040476Y-19912380D01*
X124421428Y-19912380D01*
X124516666Y-19960000D01*
X124564285Y-20007619D01*
X124611904Y-20102857D01*
X124611904Y-20245714D01*
X124564285Y-20340952D01*
X124516666Y-20388571D01*
X124421428Y-20436190D01*
X124040476Y-20436190D01*
X124802380Y-21007619D02*
X125564285Y-21007619D01*
X126278571Y-20912380D02*
X125802380Y-20912380D01*
X125802380Y-19912380D01*
X126611904Y-20388571D02*
X126945238Y-20388571D01*
X127088095Y-20912380D02*
X126611904Y-20912380D01*
X126611904Y-19912380D01*
X127088095Y-19912380D01*
X127850000Y-20388571D02*
X127516666Y-20388571D01*
X127516666Y-20912380D02*
X127516666Y-19912380D01*
X127992857Y-19912380D01*
X128230952Y-19912380D02*
X128802380Y-19912380D01*
X128516666Y-20912380D02*
X128516666Y-19912380D01*
X128897619Y-21007619D02*
X129659523Y-21007619D01*
X129897619Y-20912380D02*
X129897619Y-19912380D01*
X130230952Y-20626666D01*
X130564285Y-19912380D01*
X130564285Y-20912380D01*
X131230952Y-19912380D02*
X131421428Y-19912380D01*
X131516666Y-19960000D01*
X131611904Y-20055238D01*
X131659523Y-20245714D01*
X131659523Y-20579047D01*
X131611904Y-20769523D01*
X131516666Y-20864761D01*
X131421428Y-20912380D01*
X131230952Y-20912380D01*
X131135714Y-20864761D01*
X131040476Y-20769523D01*
X130992857Y-20579047D01*
X130992857Y-20245714D01*
X131040476Y-20055238D01*
X131135714Y-19960000D01*
X131230952Y-19912380D01*
X132088095Y-19912380D02*
X132088095Y-20721904D01*
X132135714Y-20817142D01*
X132183333Y-20864761D01*
X132278571Y-20912380D01*
X132469047Y-20912380D01*
X132564285Y-20864761D01*
X132611904Y-20817142D01*
X132659523Y-20721904D01*
X132659523Y-19912380D01*
X133135714Y-20912380D02*
X133135714Y-19912380D01*
X133707142Y-20912380D01*
X133707142Y-19912380D01*
X134040476Y-19912380D02*
X134611904Y-19912380D01*
X134326190Y-20912380D02*
X134326190Y-19912380D01*
%TO.C,TOP_RIGHT_MOUNT*%
X156681904Y-20002380D02*
X157253333Y-20002380D01*
X156967619Y-21002380D02*
X156967619Y-20002380D01*
X157777142Y-20002380D02*
X157967619Y-20002380D01*
X158062857Y-20050000D01*
X158158095Y-20145238D01*
X158205714Y-20335714D01*
X158205714Y-20669047D01*
X158158095Y-20859523D01*
X158062857Y-20954761D01*
X157967619Y-21002380D01*
X157777142Y-21002380D01*
X157681904Y-20954761D01*
X157586666Y-20859523D01*
X157539047Y-20669047D01*
X157539047Y-20335714D01*
X157586666Y-20145238D01*
X157681904Y-20050000D01*
X157777142Y-20002380D01*
X158634285Y-21002380D02*
X158634285Y-20002380D01*
X159015238Y-20002380D01*
X159110476Y-20050000D01*
X159158095Y-20097619D01*
X159205714Y-20192857D01*
X159205714Y-20335714D01*
X159158095Y-20430952D01*
X159110476Y-20478571D01*
X159015238Y-20526190D01*
X158634285Y-20526190D01*
X159396190Y-21097619D02*
X160158095Y-21097619D01*
X160967619Y-21002380D02*
X160634285Y-20526190D01*
X160396190Y-21002380D02*
X160396190Y-20002380D01*
X160777142Y-20002380D01*
X160872380Y-20050000D01*
X160920000Y-20097619D01*
X160967619Y-20192857D01*
X160967619Y-20335714D01*
X160920000Y-20430952D01*
X160872380Y-20478571D01*
X160777142Y-20526190D01*
X160396190Y-20526190D01*
X161396190Y-21002380D02*
X161396190Y-20002380D01*
X162396190Y-20050000D02*
X162300952Y-20002380D01*
X162158095Y-20002380D01*
X162015238Y-20050000D01*
X161920000Y-20145238D01*
X161872380Y-20240476D01*
X161824761Y-20430952D01*
X161824761Y-20573809D01*
X161872380Y-20764285D01*
X161920000Y-20859523D01*
X162015238Y-20954761D01*
X162158095Y-21002380D01*
X162253333Y-21002380D01*
X162396190Y-20954761D01*
X162443809Y-20907142D01*
X162443809Y-20573809D01*
X162253333Y-20573809D01*
X162872380Y-21002380D02*
X162872380Y-20002380D01*
X162872380Y-20478571D02*
X163443809Y-20478571D01*
X163443809Y-21002380D02*
X163443809Y-20002380D01*
X163777142Y-20002380D02*
X164348571Y-20002380D01*
X164062857Y-21002380D02*
X164062857Y-20002380D01*
X164443809Y-21097619D02*
X165205714Y-21097619D01*
X165443809Y-21002380D02*
X165443809Y-20002380D01*
X165777142Y-20716666D01*
X166110476Y-20002380D01*
X166110476Y-21002380D01*
X166777142Y-20002380D02*
X166967619Y-20002380D01*
X167062857Y-20050000D01*
X167158095Y-20145238D01*
X167205714Y-20335714D01*
X167205714Y-20669047D01*
X167158095Y-20859523D01*
X167062857Y-20954761D01*
X166967619Y-21002380D01*
X166777142Y-21002380D01*
X166681904Y-20954761D01*
X166586666Y-20859523D01*
X166539047Y-20669047D01*
X166539047Y-20335714D01*
X166586666Y-20145238D01*
X166681904Y-20050000D01*
X166777142Y-20002380D01*
X167634285Y-20002380D02*
X167634285Y-20811904D01*
X167681904Y-20907142D01*
X167729523Y-20954761D01*
X167824761Y-21002380D01*
X168015238Y-21002380D01*
X168110476Y-20954761D01*
X168158095Y-20907142D01*
X168205714Y-20811904D01*
X168205714Y-20002380D01*
X168681904Y-21002380D02*
X168681904Y-20002380D01*
X169253333Y-21002380D01*
X169253333Y-20002380D01*
X169586666Y-20002380D02*
X170158095Y-20002380D01*
X169872380Y-21002380D02*
X169872380Y-20002380D01*
%TO.C,BOTTOM_RIGHT_MOUNT*%
X154041904Y-151498571D02*
X154184761Y-151546190D01*
X154232380Y-151593809D01*
X154280000Y-151689047D01*
X154280000Y-151831904D01*
X154232380Y-151927142D01*
X154184761Y-151974761D01*
X154089523Y-152022380D01*
X153708571Y-152022380D01*
X153708571Y-151022380D01*
X154041904Y-151022380D01*
X154137142Y-151070000D01*
X154184761Y-151117619D01*
X154232380Y-151212857D01*
X154232380Y-151308095D01*
X154184761Y-151403333D01*
X154137142Y-151450952D01*
X154041904Y-151498571D01*
X153708571Y-151498571D01*
X154899047Y-151022380D02*
X155089523Y-151022380D01*
X155184761Y-151070000D01*
X155280000Y-151165238D01*
X155327619Y-151355714D01*
X155327619Y-151689047D01*
X155280000Y-151879523D01*
X155184761Y-151974761D01*
X155089523Y-152022380D01*
X154899047Y-152022380D01*
X154803809Y-151974761D01*
X154708571Y-151879523D01*
X154660952Y-151689047D01*
X154660952Y-151355714D01*
X154708571Y-151165238D01*
X154803809Y-151070000D01*
X154899047Y-151022380D01*
X155613333Y-151022380D02*
X156184761Y-151022380D01*
X155899047Y-152022380D02*
X155899047Y-151022380D01*
X156375238Y-151022380D02*
X156946666Y-151022380D01*
X156660952Y-152022380D02*
X156660952Y-151022380D01*
X157470476Y-151022380D02*
X157660952Y-151022380D01*
X157756190Y-151070000D01*
X157851428Y-151165238D01*
X157899047Y-151355714D01*
X157899047Y-151689047D01*
X157851428Y-151879523D01*
X157756190Y-151974761D01*
X157660952Y-152022380D01*
X157470476Y-152022380D01*
X157375238Y-151974761D01*
X157280000Y-151879523D01*
X157232380Y-151689047D01*
X157232380Y-151355714D01*
X157280000Y-151165238D01*
X157375238Y-151070000D01*
X157470476Y-151022380D01*
X158327619Y-152022380D02*
X158327619Y-151022380D01*
X158660952Y-151736666D01*
X158994285Y-151022380D01*
X158994285Y-152022380D01*
X159232380Y-152117619D02*
X159994285Y-152117619D01*
X160803809Y-152022380D02*
X160470476Y-151546190D01*
X160232380Y-152022380D02*
X160232380Y-151022380D01*
X160613333Y-151022380D01*
X160708571Y-151070000D01*
X160756190Y-151117619D01*
X160803809Y-151212857D01*
X160803809Y-151355714D01*
X160756190Y-151450952D01*
X160708571Y-151498571D01*
X160613333Y-151546190D01*
X160232380Y-151546190D01*
X161232380Y-152022380D02*
X161232380Y-151022380D01*
X162232380Y-151070000D02*
X162137142Y-151022380D01*
X161994285Y-151022380D01*
X161851428Y-151070000D01*
X161756190Y-151165238D01*
X161708571Y-151260476D01*
X161660952Y-151450952D01*
X161660952Y-151593809D01*
X161708571Y-151784285D01*
X161756190Y-151879523D01*
X161851428Y-151974761D01*
X161994285Y-152022380D01*
X162089523Y-152022380D01*
X162232380Y-151974761D01*
X162280000Y-151927142D01*
X162280000Y-151593809D01*
X162089523Y-151593809D01*
X162708571Y-152022380D02*
X162708571Y-151022380D01*
X162708571Y-151498571D02*
X163280000Y-151498571D01*
X163280000Y-152022380D02*
X163280000Y-151022380D01*
X163613333Y-151022380D02*
X164184761Y-151022380D01*
X163899047Y-152022380D02*
X163899047Y-151022380D01*
X164280000Y-152117619D02*
X165041904Y-152117619D01*
X165280000Y-152022380D02*
X165280000Y-151022380D01*
X165613333Y-151736666D01*
X165946666Y-151022380D01*
X165946666Y-152022380D01*
X166613333Y-151022380D02*
X166803809Y-151022380D01*
X166899047Y-151070000D01*
X166994285Y-151165238D01*
X167041904Y-151355714D01*
X167041904Y-151689047D01*
X166994285Y-151879523D01*
X166899047Y-151974761D01*
X166803809Y-152022380D01*
X166613333Y-152022380D01*
X166518095Y-151974761D01*
X166422857Y-151879523D01*
X166375238Y-151689047D01*
X166375238Y-151355714D01*
X166422857Y-151165238D01*
X166518095Y-151070000D01*
X166613333Y-151022380D01*
X167470476Y-151022380D02*
X167470476Y-151831904D01*
X167518095Y-151927142D01*
X167565714Y-151974761D01*
X167660952Y-152022380D01*
X167851428Y-152022380D01*
X167946666Y-151974761D01*
X167994285Y-151927142D01*
X168041904Y-151831904D01*
X168041904Y-151022380D01*
X168518095Y-152022380D02*
X168518095Y-151022380D01*
X169089523Y-152022380D01*
X169089523Y-151022380D01*
X169422857Y-151022380D02*
X169994285Y-151022380D01*
X169708571Y-152022380D02*
X169708571Y-151022380D01*
%TO.C,BOTTOM_LEFT_MOUNT*%
X122178095Y-151458571D02*
X122320952Y-151506190D01*
X122368571Y-151553809D01*
X122416190Y-151649047D01*
X122416190Y-151791904D01*
X122368571Y-151887142D01*
X122320952Y-151934761D01*
X122225714Y-151982380D01*
X121844761Y-151982380D01*
X121844761Y-150982380D01*
X122178095Y-150982380D01*
X122273333Y-151030000D01*
X122320952Y-151077619D01*
X122368571Y-151172857D01*
X122368571Y-151268095D01*
X122320952Y-151363333D01*
X122273333Y-151410952D01*
X122178095Y-151458571D01*
X121844761Y-151458571D01*
X123035238Y-150982380D02*
X123225714Y-150982380D01*
X123320952Y-151030000D01*
X123416190Y-151125238D01*
X123463809Y-151315714D01*
X123463809Y-151649047D01*
X123416190Y-151839523D01*
X123320952Y-151934761D01*
X123225714Y-151982380D01*
X123035238Y-151982380D01*
X122940000Y-151934761D01*
X122844761Y-151839523D01*
X122797142Y-151649047D01*
X122797142Y-151315714D01*
X122844761Y-151125238D01*
X122940000Y-151030000D01*
X123035238Y-150982380D01*
X123749523Y-150982380D02*
X124320952Y-150982380D01*
X124035238Y-151982380D02*
X124035238Y-150982380D01*
X124511428Y-150982380D02*
X125082857Y-150982380D01*
X124797142Y-151982380D02*
X124797142Y-150982380D01*
X125606666Y-150982380D02*
X125797142Y-150982380D01*
X125892380Y-151030000D01*
X125987619Y-151125238D01*
X126035238Y-151315714D01*
X126035238Y-151649047D01*
X125987619Y-151839523D01*
X125892380Y-151934761D01*
X125797142Y-151982380D01*
X125606666Y-151982380D01*
X125511428Y-151934761D01*
X125416190Y-151839523D01*
X125368571Y-151649047D01*
X125368571Y-151315714D01*
X125416190Y-151125238D01*
X125511428Y-151030000D01*
X125606666Y-150982380D01*
X126463809Y-151982380D02*
X126463809Y-150982380D01*
X126797142Y-151696666D01*
X127130476Y-150982380D01*
X127130476Y-151982380D01*
X127368571Y-152077619D02*
X128130476Y-152077619D01*
X128844761Y-151982380D02*
X128368571Y-151982380D01*
X128368571Y-150982380D01*
X129178095Y-151458571D02*
X129511428Y-151458571D01*
X129654285Y-151982380D02*
X129178095Y-151982380D01*
X129178095Y-150982380D01*
X129654285Y-150982380D01*
X130416190Y-151458571D02*
X130082857Y-151458571D01*
X130082857Y-151982380D02*
X130082857Y-150982380D01*
X130559047Y-150982380D01*
X130797142Y-150982380D02*
X131368571Y-150982380D01*
X131082857Y-151982380D02*
X131082857Y-150982380D01*
X131463809Y-152077619D02*
X132225714Y-152077619D01*
X132463809Y-151982380D02*
X132463809Y-150982380D01*
X132797142Y-151696666D01*
X133130476Y-150982380D01*
X133130476Y-151982380D01*
X133797142Y-150982380D02*
X133987619Y-150982380D01*
X134082857Y-151030000D01*
X134178095Y-151125238D01*
X134225714Y-151315714D01*
X134225714Y-151649047D01*
X134178095Y-151839523D01*
X134082857Y-151934761D01*
X133987619Y-151982380D01*
X133797142Y-151982380D01*
X133701904Y-151934761D01*
X133606666Y-151839523D01*
X133559047Y-151649047D01*
X133559047Y-151315714D01*
X133606666Y-151125238D01*
X133701904Y-151030000D01*
X133797142Y-150982380D01*
X134654285Y-150982380D02*
X134654285Y-151791904D01*
X134701904Y-151887142D01*
X134749523Y-151934761D01*
X134844761Y-151982380D01*
X135035238Y-151982380D01*
X135130476Y-151934761D01*
X135178095Y-151887142D01*
X135225714Y-151791904D01*
X135225714Y-150982380D01*
X135701904Y-151982380D02*
X135701904Y-150982380D01*
X136273333Y-151982380D01*
X136273333Y-150982380D01*
X136606666Y-150982380D02*
X137178095Y-150982380D01*
X136892380Y-151982380D02*
X136892380Y-150982380D01*
%TO.C,C10*%
X142017142Y-119707142D02*
X141969523Y-119754761D01*
X141826666Y-119802380D01*
X141731428Y-119802380D01*
X141588571Y-119754761D01*
X141493333Y-119659523D01*
X141445714Y-119564285D01*
X141398095Y-119373809D01*
X141398095Y-119230952D01*
X141445714Y-119040476D01*
X141493333Y-118945238D01*
X141588571Y-118850000D01*
X141731428Y-118802380D01*
X141826666Y-118802380D01*
X141969523Y-118850000D01*
X142017142Y-118897619D01*
X142969523Y-119802380D02*
X142398095Y-119802380D01*
X142683809Y-119802380D02*
X142683809Y-118802380D01*
X142588571Y-118945238D01*
X142493333Y-119040476D01*
X142398095Y-119088095D01*
X143588571Y-118802380D02*
X143683809Y-118802380D01*
X143779047Y-118850000D01*
X143826666Y-118897619D01*
X143874285Y-118992857D01*
X143921904Y-119183333D01*
X143921904Y-119421428D01*
X143874285Y-119611904D01*
X143826666Y-119707142D01*
X143779047Y-119754761D01*
X143683809Y-119802380D01*
X143588571Y-119802380D01*
X143493333Y-119754761D01*
X143445714Y-119707142D01*
X143398095Y-119611904D01*
X143350476Y-119421428D01*
X143350476Y-119183333D01*
X143398095Y-118992857D01*
X143445714Y-118897619D01*
X143493333Y-118850000D01*
X143588571Y-118802380D01*
X141588571Y-127302380D02*
X141017142Y-127302380D01*
X141302857Y-127302380D02*
X141302857Y-126302380D01*
X141207619Y-126445238D01*
X141112380Y-126540476D01*
X141017142Y-126588095D01*
X142207619Y-126302380D02*
X142302857Y-126302380D01*
X142398095Y-126350000D01*
X142445714Y-126397619D01*
X142493333Y-126492857D01*
X142540952Y-126683333D01*
X142540952Y-126921428D01*
X142493333Y-127111904D01*
X142445714Y-127207142D01*
X142398095Y-127254761D01*
X142302857Y-127302380D01*
X142207619Y-127302380D01*
X142112380Y-127254761D01*
X142064761Y-127207142D01*
X142017142Y-127111904D01*
X141969523Y-126921428D01*
X141969523Y-126683333D01*
X142017142Y-126492857D01*
X142064761Y-126397619D01*
X142112380Y-126350000D01*
X142207619Y-126302380D01*
X143398095Y-126635714D02*
X143398095Y-127302380D01*
X142969523Y-126635714D02*
X142969523Y-127159523D01*
X143017142Y-127254761D01*
X143112380Y-127302380D01*
X143255238Y-127302380D01*
X143350476Y-127254761D01*
X143398095Y-127207142D01*
X144207619Y-126778571D02*
X143874285Y-126778571D01*
X143874285Y-127302380D02*
X143874285Y-126302380D01*
X144350476Y-126302380D01*
%TO.C,C8*%
X142493333Y-93947142D02*
X142445714Y-93994761D01*
X142302857Y-94042380D01*
X142207619Y-94042380D01*
X142064761Y-93994761D01*
X141969523Y-93899523D01*
X141921904Y-93804285D01*
X141874285Y-93613809D01*
X141874285Y-93470952D01*
X141921904Y-93280476D01*
X141969523Y-93185238D01*
X142064761Y-93090000D01*
X142207619Y-93042380D01*
X142302857Y-93042380D01*
X142445714Y-93090000D01*
X142493333Y-93137619D01*
X143064761Y-93470952D02*
X142969523Y-93423333D01*
X142921904Y-93375714D01*
X142874285Y-93280476D01*
X142874285Y-93232857D01*
X142921904Y-93137619D01*
X142969523Y-93090000D01*
X143064761Y-93042380D01*
X143255238Y-93042380D01*
X143350476Y-93090000D01*
X143398095Y-93137619D01*
X143445714Y-93232857D01*
X143445714Y-93280476D01*
X143398095Y-93375714D01*
X143350476Y-93423333D01*
X143255238Y-93470952D01*
X143064761Y-93470952D01*
X142969523Y-93518571D01*
X142921904Y-93566190D01*
X142874285Y-93661428D01*
X142874285Y-93851904D01*
X142921904Y-93947142D01*
X142969523Y-93994761D01*
X143064761Y-94042380D01*
X143255238Y-94042380D01*
X143350476Y-93994761D01*
X143398095Y-93947142D01*
X143445714Y-93851904D01*
X143445714Y-93661428D01*
X143398095Y-93566190D01*
X143350476Y-93518571D01*
X143255238Y-93470952D01*
X141588571Y-101542380D02*
X141017142Y-101542380D01*
X141302857Y-101542380D02*
X141302857Y-100542380D01*
X141207619Y-100685238D01*
X141112380Y-100780476D01*
X141017142Y-100828095D01*
X142207619Y-100542380D02*
X142302857Y-100542380D01*
X142398095Y-100590000D01*
X142445714Y-100637619D01*
X142493333Y-100732857D01*
X142540952Y-100923333D01*
X142540952Y-101161428D01*
X142493333Y-101351904D01*
X142445714Y-101447142D01*
X142398095Y-101494761D01*
X142302857Y-101542380D01*
X142207619Y-101542380D01*
X142112380Y-101494761D01*
X142064761Y-101447142D01*
X142017142Y-101351904D01*
X141969523Y-101161428D01*
X141969523Y-100923333D01*
X142017142Y-100732857D01*
X142064761Y-100637619D01*
X142112380Y-100590000D01*
X142207619Y-100542380D01*
X143398095Y-100875714D02*
X143398095Y-101542380D01*
X142969523Y-100875714D02*
X142969523Y-101399523D01*
X143017142Y-101494761D01*
X143112380Y-101542380D01*
X143255238Y-101542380D01*
X143350476Y-101494761D01*
X143398095Y-101447142D01*
X144207619Y-101018571D02*
X143874285Y-101018571D01*
X143874285Y-101542380D02*
X143874285Y-100542380D01*
X144350476Y-100542380D01*
%TO.C,U2*%
X123422380Y-52611904D02*
X124231904Y-52611904D01*
X124327142Y-52564285D01*
X124374761Y-52516666D01*
X124422380Y-52421428D01*
X124422380Y-52230952D01*
X124374761Y-52135714D01*
X124327142Y-52088095D01*
X124231904Y-52040476D01*
X123422380Y-52040476D01*
X123517619Y-51611904D02*
X123470000Y-51564285D01*
X123422380Y-51469047D01*
X123422380Y-51230952D01*
X123470000Y-51135714D01*
X123517619Y-51088095D01*
X123612857Y-51040476D01*
X123708095Y-51040476D01*
X123850952Y-51088095D01*
X124422380Y-51659523D01*
X124422380Y-51040476D01*
X146576666Y-54469047D02*
X146576666Y-53992857D01*
X146862380Y-54564285D02*
X145862380Y-54230952D01*
X146862380Y-53897619D01*
X146814761Y-53611904D02*
X146862380Y-53469047D01*
X146862380Y-53230952D01*
X146814761Y-53135714D01*
X146767142Y-53088095D01*
X146671904Y-53040476D01*
X146576666Y-53040476D01*
X146481428Y-53088095D01*
X146433809Y-53135714D01*
X146386190Y-53230952D01*
X146338571Y-53421428D01*
X146290952Y-53516666D01*
X146243333Y-53564285D01*
X146148095Y-53611904D01*
X146052857Y-53611904D01*
X145957619Y-53564285D01*
X145910000Y-53516666D01*
X145862380Y-53421428D01*
X145862380Y-53183333D01*
X145910000Y-53040476D01*
X145862380Y-52707142D02*
X145862380Y-52088095D01*
X146243333Y-52421428D01*
X146243333Y-52278571D01*
X146290952Y-52183333D01*
X146338571Y-52135714D01*
X146433809Y-52088095D01*
X146671904Y-52088095D01*
X146767142Y-52135714D01*
X146814761Y-52183333D01*
X146862380Y-52278571D01*
X146862380Y-52564285D01*
X146814761Y-52659523D01*
X146767142Y-52707142D01*
X145862380Y-51754761D02*
X145862380Y-51135714D01*
X146243333Y-51469047D01*
X146243333Y-51326190D01*
X146290952Y-51230952D01*
X146338571Y-51183333D01*
X146433809Y-51135714D01*
X146671904Y-51135714D01*
X146767142Y-51183333D01*
X146814761Y-51230952D01*
X146862380Y-51326190D01*
X146862380Y-51611904D01*
X146814761Y-51707142D01*
X146767142Y-51754761D01*
X146195714Y-50278571D02*
X146862380Y-50278571D01*
X145814761Y-50516666D02*
X146529047Y-50754761D01*
X146529047Y-50135714D01*
X145862380Y-49564285D02*
X145862380Y-49469047D01*
X145910000Y-49373809D01*
X145957619Y-49326190D01*
X146052857Y-49278571D01*
X146243333Y-49230952D01*
X146481428Y-49230952D01*
X146671904Y-49278571D01*
X146767142Y-49326190D01*
X146814761Y-49373809D01*
X146862380Y-49469047D01*
X146862380Y-49564285D01*
X146814761Y-49659523D01*
X146767142Y-49707142D01*
X146671904Y-49754761D01*
X146481428Y-49802380D01*
X146243333Y-49802380D01*
X146052857Y-49754761D01*
X145957619Y-49707142D01*
X145910000Y-49659523D01*
X145862380Y-49564285D01*
%TO.C,U1*%
X148812380Y-52421904D02*
X149621904Y-52421904D01*
X149717142Y-52374285D01*
X149764761Y-52326666D01*
X149812380Y-52231428D01*
X149812380Y-52040952D01*
X149764761Y-51945714D01*
X149717142Y-51898095D01*
X149621904Y-51850476D01*
X148812380Y-51850476D01*
X149812380Y-50850476D02*
X149812380Y-51421904D01*
X149812380Y-51136190D02*
X148812380Y-51136190D01*
X148955238Y-51231428D01*
X149050476Y-51326666D01*
X149098095Y-51421904D01*
X168712380Y-53779047D02*
X168712380Y-53207619D01*
X169712380Y-53493333D02*
X168712380Y-53493333D01*
X169712380Y-52398095D02*
X169712380Y-52874285D01*
X168712380Y-52874285D01*
X168712380Y-51874285D02*
X168712380Y-51779047D01*
X168760000Y-51683809D01*
X168807619Y-51636190D01*
X168902857Y-51588571D01*
X169093333Y-51540952D01*
X169331428Y-51540952D01*
X169521904Y-51588571D01*
X169617142Y-51636190D01*
X169664761Y-51683809D01*
X169712380Y-51779047D01*
X169712380Y-51874285D01*
X169664761Y-51969523D01*
X169617142Y-52017142D01*
X169521904Y-52064761D01*
X169331428Y-52112380D01*
X169093333Y-52112380D01*
X168902857Y-52064761D01*
X168807619Y-52017142D01*
X168760000Y-51969523D01*
X168712380Y-51874285D01*
X168712380Y-51207619D02*
X168712380Y-50540952D01*
X169712380Y-50969523D01*
X169045714Y-49731428D02*
X169712380Y-49731428D01*
X168664761Y-49969523D02*
X169379047Y-50207619D01*
X169379047Y-49588571D01*
%TO.C,C11*%
X148962380Y-125812380D02*
X148390952Y-125812380D01*
X148676666Y-125812380D02*
X148676666Y-124812380D01*
X148581428Y-124955238D01*
X148486190Y-125050476D01*
X148390952Y-125098095D01*
X149581428Y-124812380D02*
X149676666Y-124812380D01*
X149771904Y-124860000D01*
X149819523Y-124907619D01*
X149867142Y-125002857D01*
X149914761Y-125193333D01*
X149914761Y-125431428D01*
X149867142Y-125621904D01*
X149819523Y-125717142D01*
X149771904Y-125764761D01*
X149676666Y-125812380D01*
X149581428Y-125812380D01*
X149486190Y-125764761D01*
X149438571Y-125717142D01*
X149390952Y-125621904D01*
X149343333Y-125431428D01*
X149343333Y-125193333D01*
X149390952Y-125002857D01*
X149438571Y-124907619D01*
X149486190Y-124860000D01*
X149581428Y-124812380D01*
X150533809Y-124812380D02*
X150629047Y-124812380D01*
X150724285Y-124860000D01*
X150771904Y-124907619D01*
X150819523Y-125002857D01*
X150867142Y-125193333D01*
X150867142Y-125431428D01*
X150819523Y-125621904D01*
X150771904Y-125717142D01*
X150724285Y-125764761D01*
X150629047Y-125812380D01*
X150533809Y-125812380D01*
X150438571Y-125764761D01*
X150390952Y-125717142D01*
X150343333Y-125621904D01*
X150295714Y-125431428D01*
X150295714Y-125193333D01*
X150343333Y-125002857D01*
X150390952Y-124907619D01*
X150438571Y-124860000D01*
X150533809Y-124812380D01*
X151295714Y-125145714D02*
X151295714Y-125812380D01*
X151295714Y-125240952D02*
X151343333Y-125193333D01*
X151438571Y-125145714D01*
X151581428Y-125145714D01*
X151676666Y-125193333D01*
X151724285Y-125288571D01*
X151724285Y-125812380D01*
X152533809Y-125288571D02*
X152200476Y-125288571D01*
X152200476Y-125812380D02*
X152200476Y-124812380D01*
X152676666Y-124812380D01*
X149867142Y-120637142D02*
X149819523Y-120684761D01*
X149676666Y-120732380D01*
X149581428Y-120732380D01*
X149438571Y-120684761D01*
X149343333Y-120589523D01*
X149295714Y-120494285D01*
X149248095Y-120303809D01*
X149248095Y-120160952D01*
X149295714Y-119970476D01*
X149343333Y-119875238D01*
X149438571Y-119780000D01*
X149581428Y-119732380D01*
X149676666Y-119732380D01*
X149819523Y-119780000D01*
X149867142Y-119827619D01*
X150819523Y-120732380D02*
X150248095Y-120732380D01*
X150533809Y-120732380D02*
X150533809Y-119732380D01*
X150438571Y-119875238D01*
X150343333Y-119970476D01*
X150248095Y-120018095D01*
X151771904Y-120732380D02*
X151200476Y-120732380D01*
X151486190Y-120732380D02*
X151486190Y-119732380D01*
X151390952Y-119875238D01*
X151295714Y-119970476D01*
X151200476Y-120018095D01*
%TO.C,C9*%
X148742380Y-100062380D02*
X148170952Y-100062380D01*
X148456666Y-100062380D02*
X148456666Y-99062380D01*
X148361428Y-99205238D01*
X148266190Y-99300476D01*
X148170952Y-99348095D01*
X149361428Y-99062380D02*
X149456666Y-99062380D01*
X149551904Y-99110000D01*
X149599523Y-99157619D01*
X149647142Y-99252857D01*
X149694761Y-99443333D01*
X149694761Y-99681428D01*
X149647142Y-99871904D01*
X149599523Y-99967142D01*
X149551904Y-100014761D01*
X149456666Y-100062380D01*
X149361428Y-100062380D01*
X149266190Y-100014761D01*
X149218571Y-99967142D01*
X149170952Y-99871904D01*
X149123333Y-99681428D01*
X149123333Y-99443333D01*
X149170952Y-99252857D01*
X149218571Y-99157619D01*
X149266190Y-99110000D01*
X149361428Y-99062380D01*
X150313809Y-99062380D02*
X150409047Y-99062380D01*
X150504285Y-99110000D01*
X150551904Y-99157619D01*
X150599523Y-99252857D01*
X150647142Y-99443333D01*
X150647142Y-99681428D01*
X150599523Y-99871904D01*
X150551904Y-99967142D01*
X150504285Y-100014761D01*
X150409047Y-100062380D01*
X150313809Y-100062380D01*
X150218571Y-100014761D01*
X150170952Y-99967142D01*
X150123333Y-99871904D01*
X150075714Y-99681428D01*
X150075714Y-99443333D01*
X150123333Y-99252857D01*
X150170952Y-99157619D01*
X150218571Y-99110000D01*
X150313809Y-99062380D01*
X151075714Y-99395714D02*
X151075714Y-100062380D01*
X151075714Y-99490952D02*
X151123333Y-99443333D01*
X151218571Y-99395714D01*
X151361428Y-99395714D01*
X151456666Y-99443333D01*
X151504285Y-99538571D01*
X151504285Y-100062380D01*
X152313809Y-99538571D02*
X151980476Y-99538571D01*
X151980476Y-100062380D02*
X151980476Y-99062380D01*
X152456666Y-99062380D01*
X150123333Y-94887142D02*
X150075714Y-94934761D01*
X149932857Y-94982380D01*
X149837619Y-94982380D01*
X149694761Y-94934761D01*
X149599523Y-94839523D01*
X149551904Y-94744285D01*
X149504285Y-94553809D01*
X149504285Y-94410952D01*
X149551904Y-94220476D01*
X149599523Y-94125238D01*
X149694761Y-94030000D01*
X149837619Y-93982380D01*
X149932857Y-93982380D01*
X150075714Y-94030000D01*
X150123333Y-94077619D01*
X150599523Y-94982380D02*
X150790000Y-94982380D01*
X150885238Y-94934761D01*
X150932857Y-94887142D01*
X151028095Y-94744285D01*
X151075714Y-94553809D01*
X151075714Y-94172857D01*
X151028095Y-94077619D01*
X150980476Y-94030000D01*
X150885238Y-93982380D01*
X150694761Y-93982380D01*
X150599523Y-94030000D01*
X150551904Y-94077619D01*
X150504285Y-94172857D01*
X150504285Y-94410952D01*
X150551904Y-94506190D01*
X150599523Y-94553809D01*
X150694761Y-94601428D01*
X150885238Y-94601428D01*
X150980476Y-94553809D01*
X151028095Y-94506190D01*
X151075714Y-94410952D01*
%TO.C,R27*%
X146492380Y-38625714D02*
X146492380Y-38006666D01*
X146873333Y-38340000D01*
X146873333Y-38197142D01*
X146920952Y-38101904D01*
X146968571Y-38054285D01*
X147063809Y-38006666D01*
X147301904Y-38006666D01*
X147397142Y-38054285D01*
X147444761Y-38101904D01*
X147492380Y-38197142D01*
X147492380Y-38482857D01*
X147444761Y-38578095D01*
X147397142Y-38625714D01*
X146492380Y-37673333D02*
X146492380Y-37054285D01*
X146873333Y-37387619D01*
X146873333Y-37244761D01*
X146920952Y-37149523D01*
X146968571Y-37101904D01*
X147063809Y-37054285D01*
X147301904Y-37054285D01*
X147397142Y-37101904D01*
X147444761Y-37149523D01*
X147492380Y-37244761D01*
X147492380Y-37530476D01*
X147444761Y-37625714D01*
X147397142Y-37673333D01*
X146492380Y-36435238D02*
X146492380Y-36340000D01*
X146540000Y-36244761D01*
X146587619Y-36197142D01*
X146682857Y-36149523D01*
X146873333Y-36101904D01*
X147111428Y-36101904D01*
X147301904Y-36149523D01*
X147397142Y-36197142D01*
X147444761Y-36244761D01*
X147492380Y-36340000D01*
X147492380Y-36435238D01*
X147444761Y-36530476D01*
X147397142Y-36578095D01*
X147301904Y-36625714D01*
X147111428Y-36673333D01*
X146873333Y-36673333D01*
X146682857Y-36625714D01*
X146587619Y-36578095D01*
X146540000Y-36530476D01*
X146492380Y-36435238D01*
X147492380Y-35101904D02*
X147016190Y-35435238D01*
X147492380Y-35673333D02*
X146492380Y-35673333D01*
X146492380Y-35292380D01*
X146540000Y-35197142D01*
X146587619Y-35149523D01*
X146682857Y-35101904D01*
X146825714Y-35101904D01*
X146920952Y-35149523D01*
X146968571Y-35197142D01*
X147016190Y-35292380D01*
X147016190Y-35673333D01*
X150032380Y-37482857D02*
X149556190Y-37816190D01*
X150032380Y-38054285D02*
X149032380Y-38054285D01*
X149032380Y-37673333D01*
X149080000Y-37578095D01*
X149127619Y-37530476D01*
X149222857Y-37482857D01*
X149365714Y-37482857D01*
X149460952Y-37530476D01*
X149508571Y-37578095D01*
X149556190Y-37673333D01*
X149556190Y-38054285D01*
X149127619Y-37101904D02*
X149080000Y-37054285D01*
X149032380Y-36959047D01*
X149032380Y-36720952D01*
X149080000Y-36625714D01*
X149127619Y-36578095D01*
X149222857Y-36530476D01*
X149318095Y-36530476D01*
X149460952Y-36578095D01*
X150032380Y-37149523D01*
X150032380Y-36530476D01*
X149032380Y-36197142D02*
X149032380Y-35530476D01*
X150032380Y-35959047D01*
%TO.C,R26*%
X173715714Y-144612380D02*
X173144285Y-144612380D01*
X173430000Y-144612380D02*
X173430000Y-143612380D01*
X173334761Y-143755238D01*
X173239523Y-143850476D01*
X173144285Y-143898095D01*
X174144285Y-144612380D02*
X174144285Y-143612380D01*
X174715714Y-144612380D02*
X174287142Y-144040952D01*
X174715714Y-143612380D02*
X174144285Y-144183809D01*
X173287142Y-147152380D02*
X172953809Y-146676190D01*
X172715714Y-147152380D02*
X172715714Y-146152380D01*
X173096666Y-146152380D01*
X173191904Y-146200000D01*
X173239523Y-146247619D01*
X173287142Y-146342857D01*
X173287142Y-146485714D01*
X173239523Y-146580952D01*
X173191904Y-146628571D01*
X173096666Y-146676190D01*
X172715714Y-146676190D01*
X173668095Y-146247619D02*
X173715714Y-146200000D01*
X173810952Y-146152380D01*
X174049047Y-146152380D01*
X174144285Y-146200000D01*
X174191904Y-146247619D01*
X174239523Y-146342857D01*
X174239523Y-146438095D01*
X174191904Y-146580952D01*
X173620476Y-147152380D01*
X174239523Y-147152380D01*
X175096666Y-146152380D02*
X174906190Y-146152380D01*
X174810952Y-146200000D01*
X174763333Y-146247619D01*
X174668095Y-146390476D01*
X174620476Y-146580952D01*
X174620476Y-146961904D01*
X174668095Y-147057142D01*
X174715714Y-147104761D01*
X174810952Y-147152380D01*
X175001428Y-147152380D01*
X175096666Y-147104761D01*
X175144285Y-147057142D01*
X175191904Y-146961904D01*
X175191904Y-146723809D01*
X175144285Y-146628571D01*
X175096666Y-146580952D01*
X175001428Y-146533333D01*
X174810952Y-146533333D01*
X174715714Y-146580952D01*
X174668095Y-146628571D01*
X174620476Y-146723809D01*
%TO.C,R25*%
X173715714Y-139442380D02*
X173144285Y-139442380D01*
X173430000Y-139442380D02*
X173430000Y-138442380D01*
X173334761Y-138585238D01*
X173239523Y-138680476D01*
X173144285Y-138728095D01*
X174144285Y-139442380D02*
X174144285Y-138442380D01*
X174715714Y-139442380D02*
X174287142Y-138870952D01*
X174715714Y-138442380D02*
X174144285Y-139013809D01*
X173287142Y-141982380D02*
X172953809Y-141506190D01*
X172715714Y-141982380D02*
X172715714Y-140982380D01*
X173096666Y-140982380D01*
X173191904Y-141030000D01*
X173239523Y-141077619D01*
X173287142Y-141172857D01*
X173287142Y-141315714D01*
X173239523Y-141410952D01*
X173191904Y-141458571D01*
X173096666Y-141506190D01*
X172715714Y-141506190D01*
X173668095Y-141077619D02*
X173715714Y-141030000D01*
X173810952Y-140982380D01*
X174049047Y-140982380D01*
X174144285Y-141030000D01*
X174191904Y-141077619D01*
X174239523Y-141172857D01*
X174239523Y-141268095D01*
X174191904Y-141410952D01*
X173620476Y-141982380D01*
X174239523Y-141982380D01*
X175144285Y-140982380D02*
X174668095Y-140982380D01*
X174620476Y-141458571D01*
X174668095Y-141410952D01*
X174763333Y-141363333D01*
X175001428Y-141363333D01*
X175096666Y-141410952D01*
X175144285Y-141458571D01*
X175191904Y-141553809D01*
X175191904Y-141791904D01*
X175144285Y-141887142D01*
X175096666Y-141934761D01*
X175001428Y-141982380D01*
X174763333Y-141982380D01*
X174668095Y-141934761D01*
X174620476Y-141887142D01*
%TO.C,R24*%
X173815714Y-134462380D02*
X173244285Y-134462380D01*
X173530000Y-134462380D02*
X173530000Y-133462380D01*
X173434761Y-133605238D01*
X173339523Y-133700476D01*
X173244285Y-133748095D01*
X174244285Y-134462380D02*
X174244285Y-133462380D01*
X174815714Y-134462380D02*
X174387142Y-133890952D01*
X174815714Y-133462380D02*
X174244285Y-134033809D01*
X173387142Y-137002380D02*
X173053809Y-136526190D01*
X172815714Y-137002380D02*
X172815714Y-136002380D01*
X173196666Y-136002380D01*
X173291904Y-136050000D01*
X173339523Y-136097619D01*
X173387142Y-136192857D01*
X173387142Y-136335714D01*
X173339523Y-136430952D01*
X173291904Y-136478571D01*
X173196666Y-136526190D01*
X172815714Y-136526190D01*
X173768095Y-136097619D02*
X173815714Y-136050000D01*
X173910952Y-136002380D01*
X174149047Y-136002380D01*
X174244285Y-136050000D01*
X174291904Y-136097619D01*
X174339523Y-136192857D01*
X174339523Y-136288095D01*
X174291904Y-136430952D01*
X173720476Y-137002380D01*
X174339523Y-137002380D01*
X175196666Y-136335714D02*
X175196666Y-137002380D01*
X174958571Y-135954761D02*
X174720476Y-136669047D01*
X175339523Y-136669047D01*
%TO.C,R23*%
X172713333Y-129272380D02*
X172141904Y-129272380D01*
X172427619Y-129272380D02*
X172427619Y-128272380D01*
X172332380Y-128415238D01*
X172237142Y-128510476D01*
X172141904Y-128558095D01*
X173332380Y-128272380D02*
X173427619Y-128272380D01*
X173522857Y-128320000D01*
X173570476Y-128367619D01*
X173618095Y-128462857D01*
X173665714Y-128653333D01*
X173665714Y-128891428D01*
X173618095Y-129081904D01*
X173570476Y-129177142D01*
X173522857Y-129224761D01*
X173427619Y-129272380D01*
X173332380Y-129272380D01*
X173237142Y-129224761D01*
X173189523Y-129177142D01*
X173141904Y-129081904D01*
X173094285Y-128891428D01*
X173094285Y-128653333D01*
X173141904Y-128462857D01*
X173189523Y-128367619D01*
X173237142Y-128320000D01*
X173332380Y-128272380D01*
X174284761Y-128272380D02*
X174380000Y-128272380D01*
X174475238Y-128320000D01*
X174522857Y-128367619D01*
X174570476Y-128462857D01*
X174618095Y-128653333D01*
X174618095Y-128891428D01*
X174570476Y-129081904D01*
X174522857Y-129177142D01*
X174475238Y-129224761D01*
X174380000Y-129272380D01*
X174284761Y-129272380D01*
X174189523Y-129224761D01*
X174141904Y-129177142D01*
X174094285Y-129081904D01*
X174046666Y-128891428D01*
X174046666Y-128653333D01*
X174094285Y-128462857D01*
X174141904Y-128367619D01*
X174189523Y-128320000D01*
X174284761Y-128272380D01*
X175046666Y-129272380D02*
X175046666Y-128272380D01*
X175618095Y-129272380D02*
X175189523Y-128700952D01*
X175618095Y-128272380D02*
X175046666Y-128843809D01*
X173237142Y-131812380D02*
X172903809Y-131336190D01*
X172665714Y-131812380D02*
X172665714Y-130812380D01*
X173046666Y-130812380D01*
X173141904Y-130860000D01*
X173189523Y-130907619D01*
X173237142Y-131002857D01*
X173237142Y-131145714D01*
X173189523Y-131240952D01*
X173141904Y-131288571D01*
X173046666Y-131336190D01*
X172665714Y-131336190D01*
X173618095Y-130907619D02*
X173665714Y-130860000D01*
X173760952Y-130812380D01*
X173999047Y-130812380D01*
X174094285Y-130860000D01*
X174141904Y-130907619D01*
X174189523Y-131002857D01*
X174189523Y-131098095D01*
X174141904Y-131240952D01*
X173570476Y-131812380D01*
X174189523Y-131812380D01*
X174522857Y-130812380D02*
X175141904Y-130812380D01*
X174808571Y-131193333D01*
X174951428Y-131193333D01*
X175046666Y-131240952D01*
X175094285Y-131288571D01*
X175141904Y-131383809D01*
X175141904Y-131621904D01*
X175094285Y-131717142D01*
X175046666Y-131764761D01*
X174951428Y-131812380D01*
X174665714Y-131812380D01*
X174570476Y-131764761D01*
X174522857Y-131717142D01*
%TO.C,R22*%
X172713333Y-124192380D02*
X172141904Y-124192380D01*
X172427619Y-124192380D02*
X172427619Y-123192380D01*
X172332380Y-123335238D01*
X172237142Y-123430476D01*
X172141904Y-123478095D01*
X173332380Y-123192380D02*
X173427619Y-123192380D01*
X173522857Y-123240000D01*
X173570476Y-123287619D01*
X173618095Y-123382857D01*
X173665714Y-123573333D01*
X173665714Y-123811428D01*
X173618095Y-124001904D01*
X173570476Y-124097142D01*
X173522857Y-124144761D01*
X173427619Y-124192380D01*
X173332380Y-124192380D01*
X173237142Y-124144761D01*
X173189523Y-124097142D01*
X173141904Y-124001904D01*
X173094285Y-123811428D01*
X173094285Y-123573333D01*
X173141904Y-123382857D01*
X173189523Y-123287619D01*
X173237142Y-123240000D01*
X173332380Y-123192380D01*
X174284761Y-123192380D02*
X174380000Y-123192380D01*
X174475238Y-123240000D01*
X174522857Y-123287619D01*
X174570476Y-123382857D01*
X174618095Y-123573333D01*
X174618095Y-123811428D01*
X174570476Y-124001904D01*
X174522857Y-124097142D01*
X174475238Y-124144761D01*
X174380000Y-124192380D01*
X174284761Y-124192380D01*
X174189523Y-124144761D01*
X174141904Y-124097142D01*
X174094285Y-124001904D01*
X174046666Y-123811428D01*
X174046666Y-123573333D01*
X174094285Y-123382857D01*
X174141904Y-123287619D01*
X174189523Y-123240000D01*
X174284761Y-123192380D01*
X175046666Y-124192380D02*
X175046666Y-123192380D01*
X175618095Y-124192380D02*
X175189523Y-123620952D01*
X175618095Y-123192380D02*
X175046666Y-123763809D01*
X173237142Y-126732380D02*
X172903809Y-126256190D01*
X172665714Y-126732380D02*
X172665714Y-125732380D01*
X173046666Y-125732380D01*
X173141904Y-125780000D01*
X173189523Y-125827619D01*
X173237142Y-125922857D01*
X173237142Y-126065714D01*
X173189523Y-126160952D01*
X173141904Y-126208571D01*
X173046666Y-126256190D01*
X172665714Y-126256190D01*
X173618095Y-125827619D02*
X173665714Y-125780000D01*
X173760952Y-125732380D01*
X173999047Y-125732380D01*
X174094285Y-125780000D01*
X174141904Y-125827619D01*
X174189523Y-125922857D01*
X174189523Y-126018095D01*
X174141904Y-126160952D01*
X173570476Y-126732380D01*
X174189523Y-126732380D01*
X174570476Y-125827619D02*
X174618095Y-125780000D01*
X174713333Y-125732380D01*
X174951428Y-125732380D01*
X175046666Y-125780000D01*
X175094285Y-125827619D01*
X175141904Y-125922857D01*
X175141904Y-126018095D01*
X175094285Y-126160952D01*
X174522857Y-126732380D01*
X175141904Y-126732380D01*
%TO.C,R21*%
X173234285Y-118435714D02*
X173234285Y-119102380D01*
X172996190Y-118054761D02*
X172758095Y-118769047D01*
X173377142Y-118769047D01*
X173662857Y-118102380D02*
X174329523Y-118102380D01*
X173900952Y-119102380D01*
X174710476Y-119102380D02*
X174710476Y-118102380D01*
X175281904Y-119102380D02*
X174853333Y-118530952D01*
X175281904Y-118102380D02*
X174710476Y-118673809D01*
X173377142Y-121642380D02*
X173043809Y-121166190D01*
X172805714Y-121642380D02*
X172805714Y-120642380D01*
X173186666Y-120642380D01*
X173281904Y-120690000D01*
X173329523Y-120737619D01*
X173377142Y-120832857D01*
X173377142Y-120975714D01*
X173329523Y-121070952D01*
X173281904Y-121118571D01*
X173186666Y-121166190D01*
X172805714Y-121166190D01*
X173758095Y-120737619D02*
X173805714Y-120690000D01*
X173900952Y-120642380D01*
X174139047Y-120642380D01*
X174234285Y-120690000D01*
X174281904Y-120737619D01*
X174329523Y-120832857D01*
X174329523Y-120928095D01*
X174281904Y-121070952D01*
X173710476Y-121642380D01*
X174329523Y-121642380D01*
X175281904Y-121642380D02*
X174710476Y-121642380D01*
X174996190Y-121642380D02*
X174996190Y-120642380D01*
X174900952Y-120785238D01*
X174805714Y-120880476D01*
X174710476Y-120928095D01*
%TO.C,R20*%
X173234285Y-112977619D02*
X173281904Y-112930000D01*
X173377142Y-112882380D01*
X173615238Y-112882380D01*
X173710476Y-112930000D01*
X173758095Y-112977619D01*
X173805714Y-113072857D01*
X173805714Y-113168095D01*
X173758095Y-113310952D01*
X173186666Y-113882380D01*
X173805714Y-113882380D01*
X174234285Y-113882380D02*
X174234285Y-112882380D01*
X174805714Y-113882380D02*
X174377142Y-113310952D01*
X174805714Y-112882380D02*
X174234285Y-113453809D01*
X173377142Y-116422380D02*
X173043809Y-115946190D01*
X172805714Y-116422380D02*
X172805714Y-115422380D01*
X173186666Y-115422380D01*
X173281904Y-115470000D01*
X173329523Y-115517619D01*
X173377142Y-115612857D01*
X173377142Y-115755714D01*
X173329523Y-115850952D01*
X173281904Y-115898571D01*
X173186666Y-115946190D01*
X172805714Y-115946190D01*
X173758095Y-115517619D02*
X173805714Y-115470000D01*
X173900952Y-115422380D01*
X174139047Y-115422380D01*
X174234285Y-115470000D01*
X174281904Y-115517619D01*
X174329523Y-115612857D01*
X174329523Y-115708095D01*
X174281904Y-115850952D01*
X173710476Y-116422380D01*
X174329523Y-116422380D01*
X174948571Y-115422380D02*
X175043809Y-115422380D01*
X175139047Y-115470000D01*
X175186666Y-115517619D01*
X175234285Y-115612857D01*
X175281904Y-115803333D01*
X175281904Y-116041428D01*
X175234285Y-116231904D01*
X175186666Y-116327142D01*
X175139047Y-116374761D01*
X175043809Y-116422380D01*
X174948571Y-116422380D01*
X174853333Y-116374761D01*
X174805714Y-116327142D01*
X174758095Y-116231904D01*
X174710476Y-116041428D01*
X174710476Y-115803333D01*
X174758095Y-115612857D01*
X174805714Y-115517619D01*
X174853333Y-115470000D01*
X174948571Y-115422380D01*
%TO.C,R19*%
X117508095Y-143692380D02*
X117317619Y-143692380D01*
X117222380Y-143740000D01*
X117174761Y-143787619D01*
X117079523Y-143930476D01*
X117031904Y-144120952D01*
X117031904Y-144501904D01*
X117079523Y-144597142D01*
X117127142Y-144644761D01*
X117222380Y-144692380D01*
X117412857Y-144692380D01*
X117508095Y-144644761D01*
X117555714Y-144597142D01*
X117603333Y-144501904D01*
X117603333Y-144263809D01*
X117555714Y-144168571D01*
X117508095Y-144120952D01*
X117412857Y-144073333D01*
X117222380Y-144073333D01*
X117127142Y-144120952D01*
X117079523Y-144168571D01*
X117031904Y-144263809D01*
X118174761Y-144120952D02*
X118079523Y-144073333D01*
X118031904Y-144025714D01*
X117984285Y-143930476D01*
X117984285Y-143882857D01*
X118031904Y-143787619D01*
X118079523Y-143740000D01*
X118174761Y-143692380D01*
X118365238Y-143692380D01*
X118460476Y-143740000D01*
X118508095Y-143787619D01*
X118555714Y-143882857D01*
X118555714Y-143930476D01*
X118508095Y-144025714D01*
X118460476Y-144073333D01*
X118365238Y-144120952D01*
X118174761Y-144120952D01*
X118079523Y-144168571D01*
X118031904Y-144216190D01*
X117984285Y-144311428D01*
X117984285Y-144501904D01*
X118031904Y-144597142D01*
X118079523Y-144644761D01*
X118174761Y-144692380D01*
X118365238Y-144692380D01*
X118460476Y-144644761D01*
X118508095Y-144597142D01*
X118555714Y-144501904D01*
X118555714Y-144311428D01*
X118508095Y-144216190D01*
X118460476Y-144168571D01*
X118365238Y-144120952D01*
X119174761Y-143692380D02*
X119270000Y-143692380D01*
X119365238Y-143740000D01*
X119412857Y-143787619D01*
X119460476Y-143882857D01*
X119508095Y-144073333D01*
X119508095Y-144311428D01*
X119460476Y-144501904D01*
X119412857Y-144597142D01*
X119365238Y-144644761D01*
X119270000Y-144692380D01*
X119174761Y-144692380D01*
X119079523Y-144644761D01*
X119031904Y-144597142D01*
X118984285Y-144501904D01*
X118936666Y-144311428D01*
X118936666Y-144073333D01*
X118984285Y-143882857D01*
X119031904Y-143787619D01*
X119079523Y-143740000D01*
X119174761Y-143692380D01*
X120508095Y-144692380D02*
X120174761Y-144216190D01*
X119936666Y-144692380D02*
X119936666Y-143692380D01*
X120317619Y-143692380D01*
X120412857Y-143740000D01*
X120460476Y-143787619D01*
X120508095Y-143882857D01*
X120508095Y-144025714D01*
X120460476Y-144120952D01*
X120412857Y-144168571D01*
X120317619Y-144216190D01*
X119936666Y-144216190D01*
X118127142Y-147232380D02*
X117793809Y-146756190D01*
X117555714Y-147232380D02*
X117555714Y-146232380D01*
X117936666Y-146232380D01*
X118031904Y-146280000D01*
X118079523Y-146327619D01*
X118127142Y-146422857D01*
X118127142Y-146565714D01*
X118079523Y-146660952D01*
X118031904Y-146708571D01*
X117936666Y-146756190D01*
X117555714Y-146756190D01*
X119079523Y-147232380D02*
X118508095Y-147232380D01*
X118793809Y-147232380D02*
X118793809Y-146232380D01*
X118698571Y-146375238D01*
X118603333Y-146470476D01*
X118508095Y-146518095D01*
X119555714Y-147232380D02*
X119746190Y-147232380D01*
X119841428Y-147184761D01*
X119889047Y-147137142D01*
X119984285Y-146994285D01*
X120031904Y-146803809D01*
X120031904Y-146422857D01*
X119984285Y-146327619D01*
X119936666Y-146280000D01*
X119841428Y-146232380D01*
X119650952Y-146232380D01*
X119555714Y-146280000D01*
X119508095Y-146327619D01*
X119460476Y-146422857D01*
X119460476Y-146660952D01*
X119508095Y-146756190D01*
X119555714Y-146803809D01*
X119650952Y-146851428D01*
X119841428Y-146851428D01*
X119936666Y-146803809D01*
X119984285Y-146756190D01*
X120031904Y-146660952D01*
%TO.C,R18*%
X118019523Y-139602380D02*
X117448095Y-139602380D01*
X117733809Y-139602380D02*
X117733809Y-138602380D01*
X117638571Y-138745238D01*
X117543333Y-138840476D01*
X117448095Y-138888095D01*
X118448095Y-139602380D02*
X118448095Y-138602380D01*
X119019523Y-139602380D02*
X118590952Y-139030952D01*
X119019523Y-138602380D02*
X118448095Y-139173809D01*
X119590952Y-139030952D02*
X119495714Y-138983333D01*
X119448095Y-138935714D01*
X119400476Y-138840476D01*
X119400476Y-138792857D01*
X119448095Y-138697619D01*
X119495714Y-138650000D01*
X119590952Y-138602380D01*
X119781428Y-138602380D01*
X119876666Y-138650000D01*
X119924285Y-138697619D01*
X119971904Y-138792857D01*
X119971904Y-138840476D01*
X119924285Y-138935714D01*
X119876666Y-138983333D01*
X119781428Y-139030952D01*
X119590952Y-139030952D01*
X119495714Y-139078571D01*
X119448095Y-139126190D01*
X119400476Y-139221428D01*
X119400476Y-139411904D01*
X119448095Y-139507142D01*
X119495714Y-139554761D01*
X119590952Y-139602380D01*
X119781428Y-139602380D01*
X119876666Y-139554761D01*
X119924285Y-139507142D01*
X119971904Y-139411904D01*
X119971904Y-139221428D01*
X119924285Y-139126190D01*
X119876666Y-139078571D01*
X119781428Y-139030952D01*
X118067142Y-142142380D02*
X117733809Y-141666190D01*
X117495714Y-142142380D02*
X117495714Y-141142380D01*
X117876666Y-141142380D01*
X117971904Y-141190000D01*
X118019523Y-141237619D01*
X118067142Y-141332857D01*
X118067142Y-141475714D01*
X118019523Y-141570952D01*
X117971904Y-141618571D01*
X117876666Y-141666190D01*
X117495714Y-141666190D01*
X119019523Y-142142380D02*
X118448095Y-142142380D01*
X118733809Y-142142380D02*
X118733809Y-141142380D01*
X118638571Y-141285238D01*
X118543333Y-141380476D01*
X118448095Y-141428095D01*
X119590952Y-141570952D02*
X119495714Y-141523333D01*
X119448095Y-141475714D01*
X119400476Y-141380476D01*
X119400476Y-141332857D01*
X119448095Y-141237619D01*
X119495714Y-141190000D01*
X119590952Y-141142380D01*
X119781428Y-141142380D01*
X119876666Y-141190000D01*
X119924285Y-141237619D01*
X119971904Y-141332857D01*
X119971904Y-141380476D01*
X119924285Y-141475714D01*
X119876666Y-141523333D01*
X119781428Y-141570952D01*
X119590952Y-141570952D01*
X119495714Y-141618571D01*
X119448095Y-141666190D01*
X119400476Y-141761428D01*
X119400476Y-141951904D01*
X119448095Y-142047142D01*
X119495714Y-142094761D01*
X119590952Y-142142380D01*
X119781428Y-142142380D01*
X119876666Y-142094761D01*
X119924285Y-142047142D01*
X119971904Y-141951904D01*
X119971904Y-141761428D01*
X119924285Y-141666190D01*
X119876666Y-141618571D01*
X119781428Y-141570952D01*
%TO.C,R17*%
X118494285Y-134472380D02*
X117922857Y-134472380D01*
X118208571Y-134472380D02*
X118208571Y-133472380D01*
X118113333Y-133615238D01*
X118018095Y-133710476D01*
X117922857Y-133758095D01*
X118922857Y-134472380D02*
X118922857Y-133472380D01*
X119256190Y-134186666D01*
X119589523Y-133472380D01*
X119589523Y-134472380D01*
X118137142Y-137012380D02*
X117803809Y-136536190D01*
X117565714Y-137012380D02*
X117565714Y-136012380D01*
X117946666Y-136012380D01*
X118041904Y-136060000D01*
X118089523Y-136107619D01*
X118137142Y-136202857D01*
X118137142Y-136345714D01*
X118089523Y-136440952D01*
X118041904Y-136488571D01*
X117946666Y-136536190D01*
X117565714Y-136536190D01*
X119089523Y-137012380D02*
X118518095Y-137012380D01*
X118803809Y-137012380D02*
X118803809Y-136012380D01*
X118708571Y-136155238D01*
X118613333Y-136250476D01*
X118518095Y-136298095D01*
X119422857Y-136012380D02*
X120089523Y-136012380D01*
X119660952Y-137012380D01*
%TO.C,R16*%
X117598095Y-128675714D02*
X117598095Y-129342380D01*
X117360000Y-128294761D02*
X117121904Y-129009047D01*
X117740952Y-129009047D01*
X118026666Y-128342380D02*
X118693333Y-128342380D01*
X118264761Y-129342380D01*
X119264761Y-128342380D02*
X119360000Y-128342380D01*
X119455238Y-128390000D01*
X119502857Y-128437619D01*
X119550476Y-128532857D01*
X119598095Y-128723333D01*
X119598095Y-128961428D01*
X119550476Y-129151904D01*
X119502857Y-129247142D01*
X119455238Y-129294761D01*
X119360000Y-129342380D01*
X119264761Y-129342380D01*
X119169523Y-129294761D01*
X119121904Y-129247142D01*
X119074285Y-129151904D01*
X119026666Y-128961428D01*
X119026666Y-128723333D01*
X119074285Y-128532857D01*
X119121904Y-128437619D01*
X119169523Y-128390000D01*
X119264761Y-128342380D01*
X120598095Y-129342380D02*
X120264761Y-128866190D01*
X120026666Y-129342380D02*
X120026666Y-128342380D01*
X120407619Y-128342380D01*
X120502857Y-128390000D01*
X120550476Y-128437619D01*
X120598095Y-128532857D01*
X120598095Y-128675714D01*
X120550476Y-128770952D01*
X120502857Y-128818571D01*
X120407619Y-128866190D01*
X120026666Y-128866190D01*
X118217142Y-131882380D02*
X117883809Y-131406190D01*
X117645714Y-131882380D02*
X117645714Y-130882380D01*
X118026666Y-130882380D01*
X118121904Y-130930000D01*
X118169523Y-130977619D01*
X118217142Y-131072857D01*
X118217142Y-131215714D01*
X118169523Y-131310952D01*
X118121904Y-131358571D01*
X118026666Y-131406190D01*
X117645714Y-131406190D01*
X119169523Y-131882380D02*
X118598095Y-131882380D01*
X118883809Y-131882380D02*
X118883809Y-130882380D01*
X118788571Y-131025238D01*
X118693333Y-131120476D01*
X118598095Y-131168095D01*
X120026666Y-130882380D02*
X119836190Y-130882380D01*
X119740952Y-130930000D01*
X119693333Y-130977619D01*
X119598095Y-131120476D01*
X119550476Y-131310952D01*
X119550476Y-131691904D01*
X119598095Y-131787142D01*
X119645714Y-131834761D01*
X119740952Y-131882380D01*
X119931428Y-131882380D01*
X120026666Y-131834761D01*
X120074285Y-131787142D01*
X120121904Y-131691904D01*
X120121904Y-131453809D01*
X120074285Y-131358571D01*
X120026666Y-131310952D01*
X119931428Y-131263333D01*
X119740952Y-131263333D01*
X119645714Y-131310952D01*
X119598095Y-131358571D01*
X119550476Y-131453809D01*
%TO.C,R15*%
X118574285Y-124232380D02*
X118002857Y-124232380D01*
X118288571Y-124232380D02*
X118288571Y-123232380D01*
X118193333Y-123375238D01*
X118098095Y-123470476D01*
X118002857Y-123518095D01*
X119002857Y-124232380D02*
X119002857Y-123232380D01*
X119336190Y-123946666D01*
X119669523Y-123232380D01*
X119669523Y-124232380D01*
X118217142Y-126772380D02*
X117883809Y-126296190D01*
X117645714Y-126772380D02*
X117645714Y-125772380D01*
X118026666Y-125772380D01*
X118121904Y-125820000D01*
X118169523Y-125867619D01*
X118217142Y-125962857D01*
X118217142Y-126105714D01*
X118169523Y-126200952D01*
X118121904Y-126248571D01*
X118026666Y-126296190D01*
X117645714Y-126296190D01*
X119169523Y-126772380D02*
X118598095Y-126772380D01*
X118883809Y-126772380D02*
X118883809Y-125772380D01*
X118788571Y-125915238D01*
X118693333Y-126010476D01*
X118598095Y-126058095D01*
X120074285Y-125772380D02*
X119598095Y-125772380D01*
X119550476Y-126248571D01*
X119598095Y-126200952D01*
X119693333Y-126153333D01*
X119931428Y-126153333D01*
X120026666Y-126200952D01*
X120074285Y-126248571D01*
X120121904Y-126343809D01*
X120121904Y-126581904D01*
X120074285Y-126677142D01*
X120026666Y-126724761D01*
X119931428Y-126772380D01*
X119693333Y-126772380D01*
X119598095Y-126724761D01*
X119550476Y-126677142D01*
%TO.C,R14*%
X118098095Y-119092380D02*
X117526666Y-119092380D01*
X117812380Y-119092380D02*
X117812380Y-118092380D01*
X117717142Y-118235238D01*
X117621904Y-118330476D01*
X117526666Y-118378095D01*
X118526666Y-119092380D02*
X118526666Y-118092380D01*
X118860000Y-118806666D01*
X119193333Y-118092380D01*
X119193333Y-119092380D01*
X120145714Y-118092380D02*
X119669523Y-118092380D01*
X119621904Y-118568571D01*
X119669523Y-118520952D01*
X119764761Y-118473333D01*
X120002857Y-118473333D01*
X120098095Y-118520952D01*
X120145714Y-118568571D01*
X120193333Y-118663809D01*
X120193333Y-118901904D01*
X120145714Y-118997142D01*
X120098095Y-119044761D01*
X120002857Y-119092380D01*
X119764761Y-119092380D01*
X119669523Y-119044761D01*
X119621904Y-118997142D01*
X118217142Y-121632380D02*
X117883809Y-121156190D01*
X117645714Y-121632380D02*
X117645714Y-120632380D01*
X118026666Y-120632380D01*
X118121904Y-120680000D01*
X118169523Y-120727619D01*
X118217142Y-120822857D01*
X118217142Y-120965714D01*
X118169523Y-121060952D01*
X118121904Y-121108571D01*
X118026666Y-121156190D01*
X117645714Y-121156190D01*
X119169523Y-121632380D02*
X118598095Y-121632380D01*
X118883809Y-121632380D02*
X118883809Y-120632380D01*
X118788571Y-120775238D01*
X118693333Y-120870476D01*
X118598095Y-120918095D01*
X120026666Y-120965714D02*
X120026666Y-121632380D01*
X119788571Y-120584761D02*
X119550476Y-121299047D01*
X120169523Y-121299047D01*
%TO.C,R13*%
X118121904Y-113042380D02*
X117645714Y-113042380D01*
X117598095Y-113518571D01*
X117645714Y-113470952D01*
X117740952Y-113423333D01*
X117979047Y-113423333D01*
X118074285Y-113470952D01*
X118121904Y-113518571D01*
X118169523Y-113613809D01*
X118169523Y-113851904D01*
X118121904Y-113947142D01*
X118074285Y-113994761D01*
X117979047Y-114042380D01*
X117740952Y-114042380D01*
X117645714Y-113994761D01*
X117598095Y-113947142D01*
X118598095Y-114042380D02*
X118598095Y-113042380D01*
X119169523Y-114042380D02*
X118740952Y-113470952D01*
X119169523Y-113042380D02*
X118598095Y-113613809D01*
X120026666Y-113042380D02*
X119836190Y-113042380D01*
X119740952Y-113090000D01*
X119693333Y-113137619D01*
X119598095Y-113280476D01*
X119550476Y-113470952D01*
X119550476Y-113851904D01*
X119598095Y-113947142D01*
X119645714Y-113994761D01*
X119740952Y-114042380D01*
X119931428Y-114042380D01*
X120026666Y-113994761D01*
X120074285Y-113947142D01*
X120121904Y-113851904D01*
X120121904Y-113613809D01*
X120074285Y-113518571D01*
X120026666Y-113470952D01*
X119931428Y-113423333D01*
X119740952Y-113423333D01*
X119645714Y-113470952D01*
X119598095Y-113518571D01*
X119550476Y-113613809D01*
X118217142Y-116582380D02*
X117883809Y-116106190D01*
X117645714Y-116582380D02*
X117645714Y-115582380D01*
X118026666Y-115582380D01*
X118121904Y-115630000D01*
X118169523Y-115677619D01*
X118217142Y-115772857D01*
X118217142Y-115915714D01*
X118169523Y-116010952D01*
X118121904Y-116058571D01*
X118026666Y-116106190D01*
X117645714Y-116106190D01*
X119169523Y-116582380D02*
X118598095Y-116582380D01*
X118883809Y-116582380D02*
X118883809Y-115582380D01*
X118788571Y-115725238D01*
X118693333Y-115820476D01*
X118598095Y-115868095D01*
X119502857Y-115582380D02*
X120121904Y-115582380D01*
X119788571Y-115963333D01*
X119931428Y-115963333D01*
X120026666Y-116010952D01*
X120074285Y-116058571D01*
X120121904Y-116153809D01*
X120121904Y-116391904D01*
X120074285Y-116487142D01*
X120026666Y-116534761D01*
X119931428Y-116582380D01*
X119645714Y-116582380D01*
X119550476Y-116534761D01*
X119502857Y-116487142D01*
%TO.C,R12*%
X117598095Y-108077619D02*
X117645714Y-108030000D01*
X117740952Y-107982380D01*
X117979047Y-107982380D01*
X118074285Y-108030000D01*
X118121904Y-108077619D01*
X118169523Y-108172857D01*
X118169523Y-108268095D01*
X118121904Y-108410952D01*
X117550476Y-108982380D01*
X118169523Y-108982380D01*
X119026666Y-108315714D02*
X119026666Y-108982380D01*
X118788571Y-107934761D02*
X118550476Y-108649047D01*
X119169523Y-108649047D01*
X119550476Y-108982380D02*
X119550476Y-107982380D01*
X120121904Y-108982380D02*
X119693333Y-108410952D01*
X120121904Y-107982380D02*
X119550476Y-108553809D01*
X118217142Y-111522380D02*
X117883809Y-111046190D01*
X117645714Y-111522380D02*
X117645714Y-110522380D01*
X118026666Y-110522380D01*
X118121904Y-110570000D01*
X118169523Y-110617619D01*
X118217142Y-110712857D01*
X118217142Y-110855714D01*
X118169523Y-110950952D01*
X118121904Y-110998571D01*
X118026666Y-111046190D01*
X117645714Y-111046190D01*
X119169523Y-111522380D02*
X118598095Y-111522380D01*
X118883809Y-111522380D02*
X118883809Y-110522380D01*
X118788571Y-110665238D01*
X118693333Y-110760476D01*
X118598095Y-110808095D01*
X119550476Y-110617619D02*
X119598095Y-110570000D01*
X119693333Y-110522380D01*
X119931428Y-110522380D01*
X120026666Y-110570000D01*
X120074285Y-110617619D01*
X120121904Y-110712857D01*
X120121904Y-110808095D01*
X120074285Y-110950952D01*
X119502857Y-111522380D01*
X120121904Y-111522380D01*
%TO.C,R11*%
X118144285Y-103175714D02*
X118144285Y-103842380D01*
X117906190Y-102794761D02*
X117668095Y-103509047D01*
X118287142Y-103509047D01*
X118572857Y-102842380D02*
X119239523Y-102842380D01*
X118810952Y-103842380D01*
X119620476Y-103842380D02*
X119620476Y-102842380D01*
X120191904Y-103842380D02*
X119763333Y-103270952D01*
X120191904Y-102842380D02*
X119620476Y-103413809D01*
X118287142Y-106382380D02*
X117953809Y-105906190D01*
X117715714Y-106382380D02*
X117715714Y-105382380D01*
X118096666Y-105382380D01*
X118191904Y-105430000D01*
X118239523Y-105477619D01*
X118287142Y-105572857D01*
X118287142Y-105715714D01*
X118239523Y-105810952D01*
X118191904Y-105858571D01*
X118096666Y-105906190D01*
X117715714Y-105906190D01*
X119239523Y-106382380D02*
X118668095Y-106382380D01*
X118953809Y-106382380D02*
X118953809Y-105382380D01*
X118858571Y-105525238D01*
X118763333Y-105620476D01*
X118668095Y-105668095D01*
X120191904Y-106382380D02*
X119620476Y-106382380D01*
X119906190Y-106382380D02*
X119906190Y-105382380D01*
X119810952Y-105525238D01*
X119715714Y-105620476D01*
X119620476Y-105668095D01*
%TO.C,R10*%
X118074285Y-98045714D02*
X118074285Y-98712380D01*
X117836190Y-97664761D02*
X117598095Y-98379047D01*
X118217142Y-98379047D01*
X118502857Y-97712380D02*
X119169523Y-97712380D01*
X118740952Y-98712380D01*
X119550476Y-98712380D02*
X119550476Y-97712380D01*
X120121904Y-98712380D02*
X119693333Y-98140952D01*
X120121904Y-97712380D02*
X119550476Y-98283809D01*
X118217142Y-101252380D02*
X117883809Y-100776190D01*
X117645714Y-101252380D02*
X117645714Y-100252380D01*
X118026666Y-100252380D01*
X118121904Y-100300000D01*
X118169523Y-100347619D01*
X118217142Y-100442857D01*
X118217142Y-100585714D01*
X118169523Y-100680952D01*
X118121904Y-100728571D01*
X118026666Y-100776190D01*
X117645714Y-100776190D01*
X119169523Y-101252380D02*
X118598095Y-101252380D01*
X118883809Y-101252380D02*
X118883809Y-100252380D01*
X118788571Y-100395238D01*
X118693333Y-100490476D01*
X118598095Y-100538095D01*
X119788571Y-100252380D02*
X119883809Y-100252380D01*
X119979047Y-100300000D01*
X120026666Y-100347619D01*
X120074285Y-100442857D01*
X120121904Y-100633333D01*
X120121904Y-100871428D01*
X120074285Y-101061904D01*
X120026666Y-101157142D01*
X119979047Y-101204761D01*
X119883809Y-101252380D01*
X119788571Y-101252380D01*
X119693333Y-101204761D01*
X119645714Y-101157142D01*
X119598095Y-101061904D01*
X119550476Y-100871428D01*
X119550476Y-100633333D01*
X119598095Y-100442857D01*
X119645714Y-100347619D01*
X119693333Y-100300000D01*
X119788571Y-100252380D01*
%TO.C,R9*%
X118169523Y-93602380D02*
X117598095Y-93602380D01*
X117883809Y-93602380D02*
X117883809Y-92602380D01*
X117788571Y-92745238D01*
X117693333Y-92840476D01*
X117598095Y-92888095D01*
X118788571Y-92602380D02*
X118883809Y-92602380D01*
X118979047Y-92650000D01*
X119026666Y-92697619D01*
X119074285Y-92792857D01*
X119121904Y-92983333D01*
X119121904Y-93221428D01*
X119074285Y-93411904D01*
X119026666Y-93507142D01*
X118979047Y-93554761D01*
X118883809Y-93602380D01*
X118788571Y-93602380D01*
X118693333Y-93554761D01*
X118645714Y-93507142D01*
X118598095Y-93411904D01*
X118550476Y-93221428D01*
X118550476Y-92983333D01*
X118598095Y-92792857D01*
X118645714Y-92697619D01*
X118693333Y-92650000D01*
X118788571Y-92602380D01*
X119550476Y-93602380D02*
X119550476Y-92602380D01*
X120121904Y-93602380D02*
X119693333Y-93030952D01*
X120121904Y-92602380D02*
X119550476Y-93173809D01*
X118693333Y-96142380D02*
X118360000Y-95666190D01*
X118121904Y-96142380D02*
X118121904Y-95142380D01*
X118502857Y-95142380D01*
X118598095Y-95190000D01*
X118645714Y-95237619D01*
X118693333Y-95332857D01*
X118693333Y-95475714D01*
X118645714Y-95570952D01*
X118598095Y-95618571D01*
X118502857Y-95666190D01*
X118121904Y-95666190D01*
X119169523Y-96142380D02*
X119360000Y-96142380D01*
X119455238Y-96094761D01*
X119502857Y-96047142D01*
X119598095Y-95904285D01*
X119645714Y-95713809D01*
X119645714Y-95332857D01*
X119598095Y-95237619D01*
X119550476Y-95190000D01*
X119455238Y-95142380D01*
X119264761Y-95142380D01*
X119169523Y-95190000D01*
X119121904Y-95237619D01*
X119074285Y-95332857D01*
X119074285Y-95570952D01*
X119121904Y-95666190D01*
X119169523Y-95713809D01*
X119264761Y-95761428D01*
X119455238Y-95761428D01*
X119550476Y-95713809D01*
X119598095Y-95666190D01*
X119645714Y-95570952D01*
%TO.C,R8*%
X118169523Y-88472380D02*
X117598095Y-88472380D01*
X117883809Y-88472380D02*
X117883809Y-87472380D01*
X117788571Y-87615238D01*
X117693333Y-87710476D01*
X117598095Y-87758095D01*
X118788571Y-87472380D02*
X118883809Y-87472380D01*
X118979047Y-87520000D01*
X119026666Y-87567619D01*
X119074285Y-87662857D01*
X119121904Y-87853333D01*
X119121904Y-88091428D01*
X119074285Y-88281904D01*
X119026666Y-88377142D01*
X118979047Y-88424761D01*
X118883809Y-88472380D01*
X118788571Y-88472380D01*
X118693333Y-88424761D01*
X118645714Y-88377142D01*
X118598095Y-88281904D01*
X118550476Y-88091428D01*
X118550476Y-87853333D01*
X118598095Y-87662857D01*
X118645714Y-87567619D01*
X118693333Y-87520000D01*
X118788571Y-87472380D01*
X119550476Y-88472380D02*
X119550476Y-87472380D01*
X120121904Y-88472380D02*
X119693333Y-87900952D01*
X120121904Y-87472380D02*
X119550476Y-88043809D01*
X118693333Y-91012380D02*
X118360000Y-90536190D01*
X118121904Y-91012380D02*
X118121904Y-90012380D01*
X118502857Y-90012380D01*
X118598095Y-90060000D01*
X118645714Y-90107619D01*
X118693333Y-90202857D01*
X118693333Y-90345714D01*
X118645714Y-90440952D01*
X118598095Y-90488571D01*
X118502857Y-90536190D01*
X118121904Y-90536190D01*
X119264761Y-90440952D02*
X119169523Y-90393333D01*
X119121904Y-90345714D01*
X119074285Y-90250476D01*
X119074285Y-90202857D01*
X119121904Y-90107619D01*
X119169523Y-90060000D01*
X119264761Y-90012380D01*
X119455238Y-90012380D01*
X119550476Y-90060000D01*
X119598095Y-90107619D01*
X119645714Y-90202857D01*
X119645714Y-90250476D01*
X119598095Y-90345714D01*
X119550476Y-90393333D01*
X119455238Y-90440952D01*
X119264761Y-90440952D01*
X119169523Y-90488571D01*
X119121904Y-90536190D01*
X119074285Y-90631428D01*
X119074285Y-90821904D01*
X119121904Y-90917142D01*
X119169523Y-90964761D01*
X119264761Y-91012380D01*
X119455238Y-91012380D01*
X119550476Y-90964761D01*
X119598095Y-90917142D01*
X119645714Y-90821904D01*
X119645714Y-90631428D01*
X119598095Y-90536190D01*
X119550476Y-90488571D01*
X119455238Y-90440952D01*
%TO.C,R7*%
X117598095Y-82507619D02*
X117645714Y-82460000D01*
X117740952Y-82412380D01*
X117979047Y-82412380D01*
X118074285Y-82460000D01*
X118121904Y-82507619D01*
X118169523Y-82602857D01*
X118169523Y-82698095D01*
X118121904Y-82840952D01*
X117550476Y-83412380D01*
X118169523Y-83412380D01*
X118788571Y-82412380D02*
X118883809Y-82412380D01*
X118979047Y-82460000D01*
X119026666Y-82507619D01*
X119074285Y-82602857D01*
X119121904Y-82793333D01*
X119121904Y-83031428D01*
X119074285Y-83221904D01*
X119026666Y-83317142D01*
X118979047Y-83364761D01*
X118883809Y-83412380D01*
X118788571Y-83412380D01*
X118693333Y-83364761D01*
X118645714Y-83317142D01*
X118598095Y-83221904D01*
X118550476Y-83031428D01*
X118550476Y-82793333D01*
X118598095Y-82602857D01*
X118645714Y-82507619D01*
X118693333Y-82460000D01*
X118788571Y-82412380D01*
X119550476Y-83412380D02*
X119550476Y-82412380D01*
X120121904Y-83412380D02*
X119693333Y-82840952D01*
X120121904Y-82412380D02*
X119550476Y-82983809D01*
X118693333Y-85952380D02*
X118360000Y-85476190D01*
X118121904Y-85952380D02*
X118121904Y-84952380D01*
X118502857Y-84952380D01*
X118598095Y-85000000D01*
X118645714Y-85047619D01*
X118693333Y-85142857D01*
X118693333Y-85285714D01*
X118645714Y-85380952D01*
X118598095Y-85428571D01*
X118502857Y-85476190D01*
X118121904Y-85476190D01*
X119026666Y-84952380D02*
X119693333Y-84952380D01*
X119264761Y-85952380D01*
%TO.C,R6*%
X117598095Y-77615714D02*
X117598095Y-78282380D01*
X117360000Y-77234761D02*
X117121904Y-77949047D01*
X117740952Y-77949047D01*
X118026666Y-77282380D02*
X118693333Y-77282380D01*
X118264761Y-78282380D01*
X119264761Y-77282380D02*
X119360000Y-77282380D01*
X119455238Y-77330000D01*
X119502857Y-77377619D01*
X119550476Y-77472857D01*
X119598095Y-77663333D01*
X119598095Y-77901428D01*
X119550476Y-78091904D01*
X119502857Y-78187142D01*
X119455238Y-78234761D01*
X119360000Y-78282380D01*
X119264761Y-78282380D01*
X119169523Y-78234761D01*
X119121904Y-78187142D01*
X119074285Y-78091904D01*
X119026666Y-77901428D01*
X119026666Y-77663333D01*
X119074285Y-77472857D01*
X119121904Y-77377619D01*
X119169523Y-77330000D01*
X119264761Y-77282380D01*
X120598095Y-78282380D02*
X120264761Y-77806190D01*
X120026666Y-78282380D02*
X120026666Y-77282380D01*
X120407619Y-77282380D01*
X120502857Y-77330000D01*
X120550476Y-77377619D01*
X120598095Y-77472857D01*
X120598095Y-77615714D01*
X120550476Y-77710952D01*
X120502857Y-77758571D01*
X120407619Y-77806190D01*
X120026666Y-77806190D01*
X118693333Y-80822380D02*
X118360000Y-80346190D01*
X118121904Y-80822380D02*
X118121904Y-79822380D01*
X118502857Y-79822380D01*
X118598095Y-79870000D01*
X118645714Y-79917619D01*
X118693333Y-80012857D01*
X118693333Y-80155714D01*
X118645714Y-80250952D01*
X118598095Y-80298571D01*
X118502857Y-80346190D01*
X118121904Y-80346190D01*
X119550476Y-79822380D02*
X119360000Y-79822380D01*
X119264761Y-79870000D01*
X119217142Y-79917619D01*
X119121904Y-80060476D01*
X119074285Y-80250952D01*
X119074285Y-80631904D01*
X119121904Y-80727142D01*
X119169523Y-80774761D01*
X119264761Y-80822380D01*
X119455238Y-80822380D01*
X119550476Y-80774761D01*
X119598095Y-80727142D01*
X119645714Y-80631904D01*
X119645714Y-80393809D01*
X119598095Y-80298571D01*
X119550476Y-80250952D01*
X119455238Y-80203333D01*
X119264761Y-80203333D01*
X119169523Y-80250952D01*
X119121904Y-80298571D01*
X119074285Y-80393809D01*
%TO.C,R5*%
X117609047Y-72112380D02*
X118228095Y-72112380D01*
X117894761Y-72493333D01*
X118037619Y-72493333D01*
X118132857Y-72540952D01*
X118180476Y-72588571D01*
X118228095Y-72683809D01*
X118228095Y-72921904D01*
X118180476Y-73017142D01*
X118132857Y-73064761D01*
X118037619Y-73112380D01*
X117751904Y-73112380D01*
X117656666Y-73064761D01*
X117609047Y-73017142D01*
X118656666Y-73112380D02*
X118656666Y-72112380D01*
X118990000Y-72826666D01*
X119323333Y-72112380D01*
X119323333Y-73112380D01*
X119704285Y-72112380D02*
X120323333Y-72112380D01*
X119990000Y-72493333D01*
X120132857Y-72493333D01*
X120228095Y-72540952D01*
X120275714Y-72588571D01*
X120323333Y-72683809D01*
X120323333Y-72921904D01*
X120275714Y-73017142D01*
X120228095Y-73064761D01*
X120132857Y-73112380D01*
X119847142Y-73112380D01*
X119751904Y-73064761D01*
X119704285Y-73017142D01*
X118823333Y-75652380D02*
X118490000Y-75176190D01*
X118251904Y-75652380D02*
X118251904Y-74652380D01*
X118632857Y-74652380D01*
X118728095Y-74700000D01*
X118775714Y-74747619D01*
X118823333Y-74842857D01*
X118823333Y-74985714D01*
X118775714Y-75080952D01*
X118728095Y-75128571D01*
X118632857Y-75176190D01*
X118251904Y-75176190D01*
X119728095Y-74652380D02*
X119251904Y-74652380D01*
X119204285Y-75128571D01*
X119251904Y-75080952D01*
X119347142Y-75033333D01*
X119585238Y-75033333D01*
X119680476Y-75080952D01*
X119728095Y-75128571D01*
X119775714Y-75223809D01*
X119775714Y-75461904D01*
X119728095Y-75557142D01*
X119680476Y-75604761D01*
X119585238Y-75652380D01*
X119347142Y-75652380D01*
X119251904Y-75604761D01*
X119204285Y-75557142D01*
%TO.C,R4*%
X117204285Y-66982380D02*
X117823333Y-66982380D01*
X117490000Y-67363333D01*
X117632857Y-67363333D01*
X117728095Y-67410952D01*
X117775714Y-67458571D01*
X117823333Y-67553809D01*
X117823333Y-67791904D01*
X117775714Y-67887142D01*
X117728095Y-67934761D01*
X117632857Y-67982380D01*
X117347142Y-67982380D01*
X117251904Y-67934761D01*
X117204285Y-67887142D01*
X118442380Y-66982380D02*
X118537619Y-66982380D01*
X118632857Y-67030000D01*
X118680476Y-67077619D01*
X118728095Y-67172857D01*
X118775714Y-67363333D01*
X118775714Y-67601428D01*
X118728095Y-67791904D01*
X118680476Y-67887142D01*
X118632857Y-67934761D01*
X118537619Y-67982380D01*
X118442380Y-67982380D01*
X118347142Y-67934761D01*
X118299523Y-67887142D01*
X118251904Y-67791904D01*
X118204285Y-67601428D01*
X118204285Y-67363333D01*
X118251904Y-67172857D01*
X118299523Y-67077619D01*
X118347142Y-67030000D01*
X118442380Y-66982380D01*
X119394761Y-66982380D02*
X119490000Y-66982380D01*
X119585238Y-67030000D01*
X119632857Y-67077619D01*
X119680476Y-67172857D01*
X119728095Y-67363333D01*
X119728095Y-67601428D01*
X119680476Y-67791904D01*
X119632857Y-67887142D01*
X119585238Y-67934761D01*
X119490000Y-67982380D01*
X119394761Y-67982380D01*
X119299523Y-67934761D01*
X119251904Y-67887142D01*
X119204285Y-67791904D01*
X119156666Y-67601428D01*
X119156666Y-67363333D01*
X119204285Y-67172857D01*
X119251904Y-67077619D01*
X119299523Y-67030000D01*
X119394761Y-66982380D01*
X120156666Y-67982380D02*
X120156666Y-66982380D01*
X120728095Y-67982380D02*
X120299523Y-67410952D01*
X120728095Y-66982380D02*
X120156666Y-67553809D01*
X118823333Y-70522380D02*
X118490000Y-70046190D01*
X118251904Y-70522380D02*
X118251904Y-69522380D01*
X118632857Y-69522380D01*
X118728095Y-69570000D01*
X118775714Y-69617619D01*
X118823333Y-69712857D01*
X118823333Y-69855714D01*
X118775714Y-69950952D01*
X118728095Y-69998571D01*
X118632857Y-70046190D01*
X118251904Y-70046190D01*
X119680476Y-69855714D02*
X119680476Y-70522380D01*
X119442380Y-69474761D02*
X119204285Y-70189047D01*
X119823333Y-70189047D01*
%TO.C,R3*%
X117743333Y-62842380D02*
X117171904Y-62842380D01*
X117457619Y-62842380D02*
X117457619Y-61842380D01*
X117362380Y-61985238D01*
X117267142Y-62080476D01*
X117171904Y-62128095D01*
X118362380Y-61842380D02*
X118457619Y-61842380D01*
X118552857Y-61890000D01*
X118600476Y-61937619D01*
X118648095Y-62032857D01*
X118695714Y-62223333D01*
X118695714Y-62461428D01*
X118648095Y-62651904D01*
X118600476Y-62747142D01*
X118552857Y-62794761D01*
X118457619Y-62842380D01*
X118362380Y-62842380D01*
X118267142Y-62794761D01*
X118219523Y-62747142D01*
X118171904Y-62651904D01*
X118124285Y-62461428D01*
X118124285Y-62223333D01*
X118171904Y-62032857D01*
X118219523Y-61937619D01*
X118267142Y-61890000D01*
X118362380Y-61842380D01*
X119314761Y-61842380D02*
X119410000Y-61842380D01*
X119505238Y-61890000D01*
X119552857Y-61937619D01*
X119600476Y-62032857D01*
X119648095Y-62223333D01*
X119648095Y-62461428D01*
X119600476Y-62651904D01*
X119552857Y-62747142D01*
X119505238Y-62794761D01*
X119410000Y-62842380D01*
X119314761Y-62842380D01*
X119219523Y-62794761D01*
X119171904Y-62747142D01*
X119124285Y-62651904D01*
X119076666Y-62461428D01*
X119076666Y-62223333D01*
X119124285Y-62032857D01*
X119171904Y-61937619D01*
X119219523Y-61890000D01*
X119314761Y-61842380D01*
X120076666Y-62842380D02*
X120076666Y-61842380D01*
X120648095Y-62842380D02*
X120219523Y-62270952D01*
X120648095Y-61842380D02*
X120076666Y-62413809D01*
X118743333Y-65382380D02*
X118410000Y-64906190D01*
X118171904Y-65382380D02*
X118171904Y-64382380D01*
X118552857Y-64382380D01*
X118648095Y-64430000D01*
X118695714Y-64477619D01*
X118743333Y-64572857D01*
X118743333Y-64715714D01*
X118695714Y-64810952D01*
X118648095Y-64858571D01*
X118552857Y-64906190D01*
X118171904Y-64906190D01*
X119076666Y-64382380D02*
X119695714Y-64382380D01*
X119362380Y-64763333D01*
X119505238Y-64763333D01*
X119600476Y-64810952D01*
X119648095Y-64858571D01*
X119695714Y-64953809D01*
X119695714Y-65191904D01*
X119648095Y-65287142D01*
X119600476Y-65334761D01*
X119505238Y-65382380D01*
X119219523Y-65382380D01*
X119124285Y-65334761D01*
X119076666Y-65287142D01*
%TO.C,R2*%
X117383333Y-42742380D02*
X116811904Y-42742380D01*
X117097619Y-42742380D02*
X117097619Y-41742380D01*
X117002380Y-41885238D01*
X116907142Y-41980476D01*
X116811904Y-42028095D01*
X118002380Y-41742380D02*
X118097619Y-41742380D01*
X118192857Y-41790000D01*
X118240476Y-41837619D01*
X118288095Y-41932857D01*
X118335714Y-42123333D01*
X118335714Y-42361428D01*
X118288095Y-42551904D01*
X118240476Y-42647142D01*
X118192857Y-42694761D01*
X118097619Y-42742380D01*
X118002380Y-42742380D01*
X117907142Y-42694761D01*
X117859523Y-42647142D01*
X117811904Y-42551904D01*
X117764285Y-42361428D01*
X117764285Y-42123333D01*
X117811904Y-41932857D01*
X117859523Y-41837619D01*
X117907142Y-41790000D01*
X118002380Y-41742380D01*
X118954761Y-41742380D02*
X119050000Y-41742380D01*
X119145238Y-41790000D01*
X119192857Y-41837619D01*
X119240476Y-41932857D01*
X119288095Y-42123333D01*
X119288095Y-42361428D01*
X119240476Y-42551904D01*
X119192857Y-42647142D01*
X119145238Y-42694761D01*
X119050000Y-42742380D01*
X118954761Y-42742380D01*
X118859523Y-42694761D01*
X118811904Y-42647142D01*
X118764285Y-42551904D01*
X118716666Y-42361428D01*
X118716666Y-42123333D01*
X118764285Y-41932857D01*
X118811904Y-41837619D01*
X118859523Y-41790000D01*
X118954761Y-41742380D01*
X119716666Y-42742380D02*
X119716666Y-41742380D01*
X120288095Y-42742380D02*
X119859523Y-42170952D01*
X120288095Y-41742380D02*
X119716666Y-42313809D01*
X118383333Y-45282380D02*
X118050000Y-44806190D01*
X117811904Y-45282380D02*
X117811904Y-44282380D01*
X118192857Y-44282380D01*
X118288095Y-44330000D01*
X118335714Y-44377619D01*
X118383333Y-44472857D01*
X118383333Y-44615714D01*
X118335714Y-44710952D01*
X118288095Y-44758571D01*
X118192857Y-44806190D01*
X117811904Y-44806190D01*
X118764285Y-44377619D02*
X118811904Y-44330000D01*
X118907142Y-44282380D01*
X119145238Y-44282380D01*
X119240476Y-44330000D01*
X119288095Y-44377619D01*
X119335714Y-44472857D01*
X119335714Y-44568095D01*
X119288095Y-44710952D01*
X118716666Y-45282380D01*
X119335714Y-45282380D01*
%TO.C,R1*%
X116951904Y-36827619D02*
X116999523Y-36780000D01*
X117094761Y-36732380D01*
X117332857Y-36732380D01*
X117428095Y-36780000D01*
X117475714Y-36827619D01*
X117523333Y-36922857D01*
X117523333Y-37018095D01*
X117475714Y-37160952D01*
X116904285Y-37732380D01*
X117523333Y-37732380D01*
X117856666Y-36732380D02*
X118523333Y-36732380D01*
X118094761Y-37732380D01*
X119094761Y-36732380D02*
X119190000Y-36732380D01*
X119285238Y-36780000D01*
X119332857Y-36827619D01*
X119380476Y-36922857D01*
X119428095Y-37113333D01*
X119428095Y-37351428D01*
X119380476Y-37541904D01*
X119332857Y-37637142D01*
X119285238Y-37684761D01*
X119190000Y-37732380D01*
X119094761Y-37732380D01*
X118999523Y-37684761D01*
X118951904Y-37637142D01*
X118904285Y-37541904D01*
X118856666Y-37351428D01*
X118856666Y-37113333D01*
X118904285Y-36922857D01*
X118951904Y-36827619D01*
X118999523Y-36780000D01*
X119094761Y-36732380D01*
X119856666Y-37732380D02*
X119856666Y-36732380D01*
X120428095Y-37732380D02*
X119999523Y-37160952D01*
X120428095Y-36732380D02*
X119856666Y-37303809D01*
X118523333Y-40272380D02*
X118190000Y-39796190D01*
X117951904Y-40272380D02*
X117951904Y-39272380D01*
X118332857Y-39272380D01*
X118428095Y-39320000D01*
X118475714Y-39367619D01*
X118523333Y-39462857D01*
X118523333Y-39605714D01*
X118475714Y-39700952D01*
X118428095Y-39748571D01*
X118332857Y-39796190D01*
X117951904Y-39796190D01*
X119475714Y-40272380D02*
X118904285Y-40272380D01*
X119190000Y-40272380D02*
X119190000Y-39272380D01*
X119094761Y-39415238D01*
X118999523Y-39510476D01*
X118904285Y-39558095D01*
%TO.C,J12*%
X174500476Y-50142380D02*
X174500476Y-50856666D01*
X174452857Y-50999523D01*
X174357619Y-51094761D01*
X174214761Y-51142380D01*
X174119523Y-51142380D01*
X175500476Y-51142380D02*
X174929047Y-51142380D01*
X175214761Y-51142380D02*
X175214761Y-50142380D01*
X175119523Y-50285238D01*
X175024285Y-50380476D01*
X174929047Y-50428095D01*
X175881428Y-50237619D02*
X175929047Y-50190000D01*
X176024285Y-50142380D01*
X176262380Y-50142380D01*
X176357619Y-50190000D01*
X176405238Y-50237619D01*
X176452857Y-50332857D01*
X176452857Y-50428095D01*
X176405238Y-50570952D01*
X175833809Y-51142380D01*
X176452857Y-51142380D01*
X169857619Y-65438571D02*
X170190952Y-65438571D01*
X170333809Y-65962380D02*
X169857619Y-65962380D01*
X169857619Y-64962380D01*
X170333809Y-64962380D01*
X170762380Y-64962380D02*
X170762380Y-65771904D01*
X170810000Y-65867142D01*
X170857619Y-65914761D01*
X170952857Y-65962380D01*
X171143333Y-65962380D01*
X171238571Y-65914761D01*
X171286190Y-65867142D01*
X171333809Y-65771904D01*
X171333809Y-64962380D01*
X172381428Y-65962380D02*
X172048095Y-65486190D01*
X171810000Y-65962380D02*
X171810000Y-64962380D01*
X172190952Y-64962380D01*
X172286190Y-65010000D01*
X172333809Y-65057619D01*
X172381428Y-65152857D01*
X172381428Y-65295714D01*
X172333809Y-65390952D01*
X172286190Y-65438571D01*
X172190952Y-65486190D01*
X171810000Y-65486190D01*
X173000476Y-64962380D02*
X173190952Y-64962380D01*
X173286190Y-65010000D01*
X173381428Y-65105238D01*
X173429047Y-65295714D01*
X173429047Y-65629047D01*
X173381428Y-65819523D01*
X173286190Y-65914761D01*
X173190952Y-65962380D01*
X173000476Y-65962380D01*
X172905238Y-65914761D01*
X172810000Y-65819523D01*
X172762380Y-65629047D01*
X172762380Y-65295714D01*
X172810000Y-65105238D01*
X172905238Y-65010000D01*
X173000476Y-64962380D01*
X173619523Y-66057619D02*
X174381428Y-66057619D01*
X174619523Y-65962380D02*
X174619523Y-64962380D01*
X175000476Y-64962380D01*
X175095714Y-65010000D01*
X175143333Y-65057619D01*
X175190952Y-65152857D01*
X175190952Y-65295714D01*
X175143333Y-65390952D01*
X175095714Y-65438571D01*
X175000476Y-65486190D01*
X174619523Y-65486190D01*
X175524285Y-64962380D02*
X175762380Y-65962380D01*
X175952857Y-65248095D01*
X176143333Y-65962380D01*
X176381428Y-64962380D01*
X177333809Y-65962380D02*
X177000476Y-65486190D01*
X176762380Y-65962380D02*
X176762380Y-64962380D01*
X177143333Y-64962380D01*
X177238571Y-65010000D01*
X177286190Y-65057619D01*
X177333809Y-65152857D01*
X177333809Y-65295714D01*
X177286190Y-65390952D01*
X177238571Y-65438571D01*
X177143333Y-65486190D01*
X176762380Y-65486190D01*
X177524285Y-66057619D02*
X178286190Y-66057619D01*
X178476666Y-65057619D02*
X178524285Y-65010000D01*
X178619523Y-64962380D01*
X178857619Y-64962380D01*
X178952857Y-65010000D01*
X179000476Y-65057619D01*
X179048095Y-65152857D01*
X179048095Y-65248095D01*
X179000476Y-65390952D01*
X178429047Y-65962380D01*
X179048095Y-65962380D01*
X179381428Y-65962380D02*
X179905238Y-65295714D01*
X179381428Y-65295714D02*
X179905238Y-65962380D01*
X180762380Y-64962380D02*
X180286190Y-64962380D01*
X180238571Y-65438571D01*
X180286190Y-65390952D01*
X180381428Y-65343333D01*
X180619523Y-65343333D01*
X180714761Y-65390952D01*
X180762380Y-65438571D01*
X180810000Y-65533809D01*
X180810000Y-65771904D01*
X180762380Y-65867142D01*
X180714761Y-65914761D01*
X180619523Y-65962380D01*
X180381428Y-65962380D01*
X180286190Y-65914761D01*
X180238571Y-65867142D01*
%TO.C,D3*%
X172761904Y-106852380D02*
X172761904Y-105852380D01*
X173000000Y-105852380D01*
X173142857Y-105900000D01*
X173238095Y-105995238D01*
X173285714Y-106090476D01*
X173333333Y-106280952D01*
X173333333Y-106423809D01*
X173285714Y-106614285D01*
X173238095Y-106709523D01*
X173142857Y-106804761D01*
X173000000Y-106852380D01*
X172761904Y-106852380D01*
X173666666Y-105852380D02*
X174285714Y-105852380D01*
X173952380Y-106233333D01*
X174095238Y-106233333D01*
X174190476Y-106280952D01*
X174238095Y-106328571D01*
X174285714Y-106423809D01*
X174285714Y-106661904D01*
X174238095Y-106757142D01*
X174190476Y-106804761D01*
X174095238Y-106852380D01*
X173809523Y-106852380D01*
X173714285Y-106804761D01*
X173666666Y-106757142D01*
X169785714Y-110092380D02*
X170452380Y-110092380D01*
X169785714Y-111092380D01*
X170452380Y-111092380D01*
X171214285Y-111044761D02*
X171119047Y-111092380D01*
X170928571Y-111092380D01*
X170833333Y-111044761D01*
X170785714Y-110949523D01*
X170785714Y-110568571D01*
X170833333Y-110473333D01*
X170928571Y-110425714D01*
X171119047Y-110425714D01*
X171214285Y-110473333D01*
X171261904Y-110568571D01*
X171261904Y-110663809D01*
X170785714Y-110759047D01*
X171690476Y-110425714D02*
X171690476Y-111092380D01*
X171690476Y-110520952D02*
X171738095Y-110473333D01*
X171833333Y-110425714D01*
X171976190Y-110425714D01*
X172071428Y-110473333D01*
X172119047Y-110568571D01*
X172119047Y-111092380D01*
X172976190Y-111044761D02*
X172880952Y-111092380D01*
X172690476Y-111092380D01*
X172595238Y-111044761D01*
X172547619Y-110949523D01*
X172547619Y-110568571D01*
X172595238Y-110473333D01*
X172690476Y-110425714D01*
X172880952Y-110425714D01*
X172976190Y-110473333D01*
X173023809Y-110568571D01*
X173023809Y-110663809D01*
X172547619Y-110759047D01*
X173452380Y-111092380D02*
X173452380Y-110425714D01*
X173452380Y-110616190D02*
X173500000Y-110520952D01*
X173547619Y-110473333D01*
X173642857Y-110425714D01*
X173738095Y-110425714D01*
X175357142Y-111092380D02*
X174785714Y-111092380D01*
X175071428Y-111092380D02*
X175071428Y-110092380D01*
X174976190Y-110235238D01*
X174880952Y-110330476D01*
X174785714Y-110378095D01*
X175976190Y-110092380D02*
X176071428Y-110092380D01*
X176166666Y-110140000D01*
X176214285Y-110187619D01*
X176261904Y-110282857D01*
X176309523Y-110473333D01*
X176309523Y-110711428D01*
X176261904Y-110901904D01*
X176214285Y-110997142D01*
X176166666Y-111044761D01*
X176071428Y-111092380D01*
X175976190Y-111092380D01*
X175880952Y-111044761D01*
X175833333Y-110997142D01*
X175785714Y-110901904D01*
X175738095Y-110711428D01*
X175738095Y-110473333D01*
X175785714Y-110282857D01*
X175833333Y-110187619D01*
X175880952Y-110140000D01*
X175976190Y-110092380D01*
X176595238Y-110092380D02*
X176928571Y-111092380D01*
X177261904Y-110092380D01*
X169428095Y-107172380D02*
X169428095Y-106172380D01*
X169999523Y-107172380D02*
X169570952Y-106600952D01*
X169999523Y-106172380D02*
X169428095Y-106743809D01*
%TO.C,D2*%
X172561904Y-100742380D02*
X172561904Y-99742380D01*
X172800000Y-99742380D01*
X172942857Y-99790000D01*
X173038095Y-99885238D01*
X173085714Y-99980476D01*
X173133333Y-100170952D01*
X173133333Y-100313809D01*
X173085714Y-100504285D01*
X173038095Y-100599523D01*
X172942857Y-100694761D01*
X172800000Y-100742380D01*
X172561904Y-100742380D01*
X173514285Y-99837619D02*
X173561904Y-99790000D01*
X173657142Y-99742380D01*
X173895238Y-99742380D01*
X173990476Y-99790000D01*
X174038095Y-99837619D01*
X174085714Y-99932857D01*
X174085714Y-100028095D01*
X174038095Y-100170952D01*
X173466666Y-100742380D01*
X174085714Y-100742380D01*
X171157142Y-104982380D02*
X170585714Y-104982380D01*
X170871428Y-104982380D02*
X170871428Y-103982380D01*
X170776190Y-104125238D01*
X170680952Y-104220476D01*
X170585714Y-104268095D01*
X171585714Y-104982380D02*
X171585714Y-103982380D01*
X172157142Y-104982380D01*
X172157142Y-103982380D01*
X173061904Y-104315714D02*
X173061904Y-104982380D01*
X172823809Y-103934761D02*
X172585714Y-104649047D01*
X173204761Y-104649047D01*
X174109523Y-104982380D02*
X173538095Y-104982380D01*
X173823809Y-104982380D02*
X173823809Y-103982380D01*
X173728571Y-104125238D01*
X173633333Y-104220476D01*
X173538095Y-104268095D01*
X174966666Y-104315714D02*
X174966666Y-104982380D01*
X174728571Y-103934761D02*
X174490476Y-104649047D01*
X175109523Y-104649047D01*
X175633333Y-104410952D02*
X175538095Y-104363333D01*
X175490476Y-104315714D01*
X175442857Y-104220476D01*
X175442857Y-104172857D01*
X175490476Y-104077619D01*
X175538095Y-104030000D01*
X175633333Y-103982380D01*
X175823809Y-103982380D01*
X175919047Y-104030000D01*
X175966666Y-104077619D01*
X176014285Y-104172857D01*
X176014285Y-104220476D01*
X175966666Y-104315714D01*
X175919047Y-104363333D01*
X175823809Y-104410952D01*
X175633333Y-104410952D01*
X175538095Y-104458571D01*
X175490476Y-104506190D01*
X175442857Y-104601428D01*
X175442857Y-104791904D01*
X175490476Y-104887142D01*
X175538095Y-104934761D01*
X175633333Y-104982380D01*
X175823809Y-104982380D01*
X175919047Y-104934761D01*
X175966666Y-104887142D01*
X176014285Y-104791904D01*
X176014285Y-104601428D01*
X175966666Y-104506190D01*
X175919047Y-104458571D01*
X175823809Y-104410952D01*
X169228095Y-101062380D02*
X169228095Y-100062380D01*
X169799523Y-101062380D02*
X169370952Y-100490952D01*
X169799523Y-100062380D02*
X169228095Y-100633809D01*
%TO.C,D1*%
X172701904Y-94902380D02*
X172701904Y-93902380D01*
X172940000Y-93902380D01*
X173082857Y-93950000D01*
X173178095Y-94045238D01*
X173225714Y-94140476D01*
X173273333Y-94330952D01*
X173273333Y-94473809D01*
X173225714Y-94664285D01*
X173178095Y-94759523D01*
X173082857Y-94854761D01*
X172940000Y-94902380D01*
X172701904Y-94902380D01*
X174225714Y-94902380D02*
X173654285Y-94902380D01*
X173940000Y-94902380D02*
X173940000Y-93902380D01*
X173844761Y-94045238D01*
X173749523Y-94140476D01*
X173654285Y-94188095D01*
X171297142Y-99142380D02*
X170725714Y-99142380D01*
X171011428Y-99142380D02*
X171011428Y-98142380D01*
X170916190Y-98285238D01*
X170820952Y-98380476D01*
X170725714Y-98428095D01*
X171725714Y-99142380D02*
X171725714Y-98142380D01*
X172297142Y-99142380D01*
X172297142Y-98142380D01*
X173201904Y-98475714D02*
X173201904Y-99142380D01*
X172963809Y-98094761D02*
X172725714Y-98809047D01*
X173344761Y-98809047D01*
X174249523Y-99142380D02*
X173678095Y-99142380D01*
X173963809Y-99142380D02*
X173963809Y-98142380D01*
X173868571Y-98285238D01*
X173773333Y-98380476D01*
X173678095Y-98428095D01*
X175106666Y-98475714D02*
X175106666Y-99142380D01*
X174868571Y-98094761D02*
X174630476Y-98809047D01*
X175249523Y-98809047D01*
X175773333Y-98570952D02*
X175678095Y-98523333D01*
X175630476Y-98475714D01*
X175582857Y-98380476D01*
X175582857Y-98332857D01*
X175630476Y-98237619D01*
X175678095Y-98190000D01*
X175773333Y-98142380D01*
X175963809Y-98142380D01*
X176059047Y-98190000D01*
X176106666Y-98237619D01*
X176154285Y-98332857D01*
X176154285Y-98380476D01*
X176106666Y-98475714D01*
X176059047Y-98523333D01*
X175963809Y-98570952D01*
X175773333Y-98570952D01*
X175678095Y-98618571D01*
X175630476Y-98666190D01*
X175582857Y-98761428D01*
X175582857Y-98951904D01*
X175630476Y-99047142D01*
X175678095Y-99094761D01*
X175773333Y-99142380D01*
X175963809Y-99142380D01*
X176059047Y-99094761D01*
X176106666Y-99047142D01*
X176154285Y-98951904D01*
X176154285Y-98761428D01*
X176106666Y-98666190D01*
X176059047Y-98618571D01*
X175963809Y-98570952D01*
X169368095Y-95222380D02*
X169368095Y-94222380D01*
X169939523Y-95222380D02*
X169510952Y-94650952D01*
X169939523Y-94222380D02*
X169368095Y-94793809D01*
%TO.C,C7*%
X172704761Y-93252380D02*
X172133333Y-93252380D01*
X172419047Y-93252380D02*
X172419047Y-92252380D01*
X172323809Y-92395238D01*
X172228571Y-92490476D01*
X172133333Y-92538095D01*
X173133333Y-92585714D02*
X173133333Y-93252380D01*
X173133333Y-92680952D02*
X173180952Y-92633333D01*
X173276190Y-92585714D01*
X173419047Y-92585714D01*
X173514285Y-92633333D01*
X173561904Y-92728571D01*
X173561904Y-93252380D01*
X174371428Y-92728571D02*
X174038095Y-92728571D01*
X174038095Y-93252380D02*
X174038095Y-92252380D01*
X174514285Y-92252380D01*
X173133333Y-88077142D02*
X173085714Y-88124761D01*
X172942857Y-88172380D01*
X172847619Y-88172380D01*
X172704761Y-88124761D01*
X172609523Y-88029523D01*
X172561904Y-87934285D01*
X172514285Y-87743809D01*
X172514285Y-87600952D01*
X172561904Y-87410476D01*
X172609523Y-87315238D01*
X172704761Y-87220000D01*
X172847619Y-87172380D01*
X172942857Y-87172380D01*
X173085714Y-87220000D01*
X173133333Y-87267619D01*
X173466666Y-87172380D02*
X174133333Y-87172380D01*
X173704761Y-88172380D01*
%TO.C,C6*%
X167745238Y-85442380D02*
X167269047Y-85442380D01*
X167221428Y-85918571D01*
X167269047Y-85870952D01*
X167364285Y-85823333D01*
X167602380Y-85823333D01*
X167697619Y-85870952D01*
X167745238Y-85918571D01*
X167792857Y-86013809D01*
X167792857Y-86251904D01*
X167745238Y-86347142D01*
X167697619Y-86394761D01*
X167602380Y-86442380D01*
X167364285Y-86442380D01*
X167269047Y-86394761D01*
X167221428Y-86347142D01*
X168411904Y-85442380D02*
X168507142Y-85442380D01*
X168602380Y-85490000D01*
X168650000Y-85537619D01*
X168697619Y-85632857D01*
X168745238Y-85823333D01*
X168745238Y-86061428D01*
X168697619Y-86251904D01*
X168650000Y-86347142D01*
X168602380Y-86394761D01*
X168507142Y-86442380D01*
X168411904Y-86442380D01*
X168316666Y-86394761D01*
X168269047Y-86347142D01*
X168221428Y-86251904D01*
X168173809Y-86061428D01*
X168173809Y-85823333D01*
X168221428Y-85632857D01*
X168269047Y-85537619D01*
X168316666Y-85490000D01*
X168411904Y-85442380D01*
X169364285Y-85442380D02*
X169459523Y-85442380D01*
X169554761Y-85490000D01*
X169602380Y-85537619D01*
X169650000Y-85632857D01*
X169697619Y-85823333D01*
X169697619Y-86061428D01*
X169650000Y-86251904D01*
X169602380Y-86347142D01*
X169554761Y-86394761D01*
X169459523Y-86442380D01*
X169364285Y-86442380D01*
X169269047Y-86394761D01*
X169221428Y-86347142D01*
X169173809Y-86251904D01*
X169126190Y-86061428D01*
X169126190Y-85823333D01*
X169173809Y-85632857D01*
X169221428Y-85537619D01*
X169269047Y-85490000D01*
X169364285Y-85442380D01*
X170126190Y-85775714D02*
X170126190Y-86775714D01*
X170126190Y-85823333D02*
X170221428Y-85775714D01*
X170411904Y-85775714D01*
X170507142Y-85823333D01*
X170554761Y-85870952D01*
X170602380Y-85966190D01*
X170602380Y-86251904D01*
X170554761Y-86347142D01*
X170507142Y-86394761D01*
X170411904Y-86442380D01*
X170221428Y-86442380D01*
X170126190Y-86394761D01*
X171364285Y-85918571D02*
X171030952Y-85918571D01*
X171030952Y-86442380D02*
X171030952Y-85442380D01*
X171507142Y-85442380D01*
X172935714Y-86823333D02*
X172888095Y-86775714D01*
X172792857Y-86632857D01*
X172745238Y-86537619D01*
X172697619Y-86394761D01*
X172650000Y-86156666D01*
X172650000Y-85966190D01*
X172697619Y-85728095D01*
X172745238Y-85585238D01*
X172792857Y-85490000D01*
X172888095Y-85347142D01*
X172935714Y-85299523D01*
X173269047Y-86394761D02*
X173411904Y-86442380D01*
X173650000Y-86442380D01*
X173745238Y-86394761D01*
X173792857Y-86347142D01*
X173840476Y-86251904D01*
X173840476Y-86156666D01*
X173792857Y-86061428D01*
X173745238Y-86013809D01*
X173650000Y-85966190D01*
X173459523Y-85918571D01*
X173364285Y-85870952D01*
X173316666Y-85823333D01*
X173269047Y-85728095D01*
X173269047Y-85632857D01*
X173316666Y-85537619D01*
X173364285Y-85490000D01*
X173459523Y-85442380D01*
X173697619Y-85442380D01*
X173840476Y-85490000D01*
X174126190Y-85775714D02*
X174507142Y-85775714D01*
X174269047Y-85442380D02*
X174269047Y-86299523D01*
X174316666Y-86394761D01*
X174411904Y-86442380D01*
X174507142Y-86442380D01*
X174745238Y-85775714D02*
X174983333Y-86442380D01*
X175221428Y-85775714D02*
X174983333Y-86442380D01*
X174888095Y-86680476D01*
X174840476Y-86728095D01*
X174745238Y-86775714D01*
X175602380Y-86442380D02*
X175602380Y-85775714D01*
X175602380Y-85966190D02*
X175650000Y-85870952D01*
X175697619Y-85823333D01*
X175792857Y-85775714D01*
X175888095Y-85775714D01*
X176602380Y-86394761D02*
X176507142Y-86442380D01*
X176316666Y-86442380D01*
X176221428Y-86394761D01*
X176173809Y-86299523D01*
X176173809Y-85918571D01*
X176221428Y-85823333D01*
X176316666Y-85775714D01*
X176507142Y-85775714D01*
X176602380Y-85823333D01*
X176650000Y-85918571D01*
X176650000Y-86013809D01*
X176173809Y-86109047D01*
X177078571Y-85775714D02*
X177078571Y-86442380D01*
X177078571Y-85870952D02*
X177126190Y-85823333D01*
X177221428Y-85775714D01*
X177364285Y-85775714D01*
X177459523Y-85823333D01*
X177507142Y-85918571D01*
X177507142Y-86442380D01*
X178364285Y-86394761D02*
X178269047Y-86442380D01*
X178078571Y-86442380D01*
X177983333Y-86394761D01*
X177935714Y-86299523D01*
X177935714Y-85918571D01*
X177983333Y-85823333D01*
X178078571Y-85775714D01*
X178269047Y-85775714D01*
X178364285Y-85823333D01*
X178411904Y-85918571D01*
X178411904Y-86013809D01*
X177935714Y-86109047D01*
X178745238Y-86823333D02*
X178792857Y-86775714D01*
X178888095Y-86632857D01*
X178935714Y-86537619D01*
X178983333Y-86394761D01*
X179030952Y-86156666D01*
X179030952Y-85966190D01*
X178983333Y-85728095D01*
X178935714Y-85585238D01*
X178888095Y-85490000D01*
X178792857Y-85347142D01*
X178745238Y-85299523D01*
X172983333Y-81267142D02*
X172935714Y-81314761D01*
X172792857Y-81362380D01*
X172697619Y-81362380D01*
X172554761Y-81314761D01*
X172459523Y-81219523D01*
X172411904Y-81124285D01*
X172364285Y-80933809D01*
X172364285Y-80790952D01*
X172411904Y-80600476D01*
X172459523Y-80505238D01*
X172554761Y-80410000D01*
X172697619Y-80362380D01*
X172792857Y-80362380D01*
X172935714Y-80410000D01*
X172983333Y-80457619D01*
X173840476Y-80362380D02*
X173650000Y-80362380D01*
X173554761Y-80410000D01*
X173507142Y-80457619D01*
X173411904Y-80600476D01*
X173364285Y-80790952D01*
X173364285Y-81171904D01*
X173411904Y-81267142D01*
X173459523Y-81314761D01*
X173554761Y-81362380D01*
X173745238Y-81362380D01*
X173840476Y-81314761D01*
X173888095Y-81267142D01*
X173935714Y-81171904D01*
X173935714Y-80933809D01*
X173888095Y-80838571D01*
X173840476Y-80790952D01*
X173745238Y-80743333D01*
X173554761Y-80743333D01*
X173459523Y-80790952D01*
X173411904Y-80838571D01*
X173364285Y-80933809D01*
%TO.C,C5*%
X164258571Y-27942380D02*
X163687142Y-27942380D01*
X163972857Y-27942380D02*
X163972857Y-26942380D01*
X163877619Y-27085238D01*
X163782380Y-27180476D01*
X163687142Y-27228095D01*
X164877619Y-26942380D02*
X164972857Y-26942380D01*
X165068095Y-26990000D01*
X165115714Y-27037619D01*
X165163333Y-27132857D01*
X165210952Y-27323333D01*
X165210952Y-27561428D01*
X165163333Y-27751904D01*
X165115714Y-27847142D01*
X165068095Y-27894761D01*
X164972857Y-27942380D01*
X164877619Y-27942380D01*
X164782380Y-27894761D01*
X164734761Y-27847142D01*
X164687142Y-27751904D01*
X164639523Y-27561428D01*
X164639523Y-27323333D01*
X164687142Y-27132857D01*
X164734761Y-27037619D01*
X164782380Y-26990000D01*
X164877619Y-26942380D01*
X165639523Y-27275714D02*
X165639523Y-27942380D01*
X165639523Y-27370952D02*
X165687142Y-27323333D01*
X165782380Y-27275714D01*
X165925238Y-27275714D01*
X166020476Y-27323333D01*
X166068095Y-27418571D01*
X166068095Y-27942380D01*
X166877619Y-27418571D02*
X166544285Y-27418571D01*
X166544285Y-27942380D02*
X166544285Y-26942380D01*
X167020476Y-26942380D01*
X165163333Y-22767142D02*
X165115714Y-22814761D01*
X164972857Y-22862380D01*
X164877619Y-22862380D01*
X164734761Y-22814761D01*
X164639523Y-22719523D01*
X164591904Y-22624285D01*
X164544285Y-22433809D01*
X164544285Y-22290952D01*
X164591904Y-22100476D01*
X164639523Y-22005238D01*
X164734761Y-21910000D01*
X164877619Y-21862380D01*
X164972857Y-21862380D01*
X165115714Y-21910000D01*
X165163333Y-21957619D01*
X166068095Y-21862380D02*
X165591904Y-21862380D01*
X165544285Y-22338571D01*
X165591904Y-22290952D01*
X165687142Y-22243333D01*
X165925238Y-22243333D01*
X166020476Y-22290952D01*
X166068095Y-22338571D01*
X166115714Y-22433809D01*
X166115714Y-22671904D01*
X166068095Y-22767142D01*
X166020476Y-22814761D01*
X165925238Y-22862380D01*
X165687142Y-22862380D01*
X165591904Y-22814761D01*
X165544285Y-22767142D01*
%TO.C,C4*%
X154512380Y-27942380D02*
X153940952Y-27942380D01*
X154226666Y-27942380D02*
X154226666Y-26942380D01*
X154131428Y-27085238D01*
X154036190Y-27180476D01*
X153940952Y-27228095D01*
X155131428Y-26942380D02*
X155226666Y-26942380D01*
X155321904Y-26990000D01*
X155369523Y-27037619D01*
X155417142Y-27132857D01*
X155464761Y-27323333D01*
X155464761Y-27561428D01*
X155417142Y-27751904D01*
X155369523Y-27847142D01*
X155321904Y-27894761D01*
X155226666Y-27942380D01*
X155131428Y-27942380D01*
X155036190Y-27894761D01*
X154988571Y-27847142D01*
X154940952Y-27751904D01*
X154893333Y-27561428D01*
X154893333Y-27323333D01*
X154940952Y-27132857D01*
X154988571Y-27037619D01*
X155036190Y-26990000D01*
X155131428Y-26942380D01*
X156083809Y-26942380D02*
X156179047Y-26942380D01*
X156274285Y-26990000D01*
X156321904Y-27037619D01*
X156369523Y-27132857D01*
X156417142Y-27323333D01*
X156417142Y-27561428D01*
X156369523Y-27751904D01*
X156321904Y-27847142D01*
X156274285Y-27894761D01*
X156179047Y-27942380D01*
X156083809Y-27942380D01*
X155988571Y-27894761D01*
X155940952Y-27847142D01*
X155893333Y-27751904D01*
X155845714Y-27561428D01*
X155845714Y-27323333D01*
X155893333Y-27132857D01*
X155940952Y-27037619D01*
X155988571Y-26990000D01*
X156083809Y-26942380D01*
X156845714Y-27275714D02*
X156845714Y-27942380D01*
X156845714Y-27370952D02*
X156893333Y-27323333D01*
X156988571Y-27275714D01*
X157131428Y-27275714D01*
X157226666Y-27323333D01*
X157274285Y-27418571D01*
X157274285Y-27942380D01*
X158083809Y-27418571D02*
X157750476Y-27418571D01*
X157750476Y-27942380D02*
X157750476Y-26942380D01*
X158226666Y-26942380D01*
X155893333Y-22767142D02*
X155845714Y-22814761D01*
X155702857Y-22862380D01*
X155607619Y-22862380D01*
X155464761Y-22814761D01*
X155369523Y-22719523D01*
X155321904Y-22624285D01*
X155274285Y-22433809D01*
X155274285Y-22290952D01*
X155321904Y-22100476D01*
X155369523Y-22005238D01*
X155464761Y-21910000D01*
X155607619Y-21862380D01*
X155702857Y-21862380D01*
X155845714Y-21910000D01*
X155893333Y-21957619D01*
X156750476Y-22195714D02*
X156750476Y-22862380D01*
X156512380Y-21814761D02*
X156274285Y-22529047D01*
X156893333Y-22529047D01*
%TO.C,C3*%
X146004761Y-27942380D02*
X145433333Y-27942380D01*
X145719047Y-27942380D02*
X145719047Y-26942380D01*
X145623809Y-27085238D01*
X145528571Y-27180476D01*
X145433333Y-27228095D01*
X146433333Y-27275714D02*
X146433333Y-27942380D01*
X146433333Y-27370952D02*
X146480952Y-27323333D01*
X146576190Y-27275714D01*
X146719047Y-27275714D01*
X146814285Y-27323333D01*
X146861904Y-27418571D01*
X146861904Y-27942380D01*
X147671428Y-27418571D02*
X147338095Y-27418571D01*
X147338095Y-27942380D02*
X147338095Y-26942380D01*
X147814285Y-26942380D01*
X146433333Y-22767142D02*
X146385714Y-22814761D01*
X146242857Y-22862380D01*
X146147619Y-22862380D01*
X146004761Y-22814761D01*
X145909523Y-22719523D01*
X145861904Y-22624285D01*
X145814285Y-22433809D01*
X145814285Y-22290952D01*
X145861904Y-22100476D01*
X145909523Y-22005238D01*
X146004761Y-21910000D01*
X146147619Y-21862380D01*
X146242857Y-21862380D01*
X146385714Y-21910000D01*
X146433333Y-21957619D01*
X146766666Y-21862380D02*
X147385714Y-21862380D01*
X147052380Y-22243333D01*
X147195238Y-22243333D01*
X147290476Y-22290952D01*
X147338095Y-22338571D01*
X147385714Y-22433809D01*
X147385714Y-22671904D01*
X147338095Y-22767142D01*
X147290476Y-22814761D01*
X147195238Y-22862380D01*
X146909523Y-22862380D01*
X146814285Y-22814761D01*
X146766666Y-22767142D01*
%TO.C,C2*%
X136544761Y-27942380D02*
X135973333Y-27942380D01*
X136259047Y-27942380D02*
X136259047Y-26942380D01*
X136163809Y-27085238D01*
X136068571Y-27180476D01*
X135973333Y-27228095D01*
X136973333Y-27275714D02*
X136973333Y-27942380D01*
X136973333Y-27370952D02*
X137020952Y-27323333D01*
X137116190Y-27275714D01*
X137259047Y-27275714D01*
X137354285Y-27323333D01*
X137401904Y-27418571D01*
X137401904Y-27942380D01*
X138211428Y-27418571D02*
X137878095Y-27418571D01*
X137878095Y-27942380D02*
X137878095Y-26942380D01*
X138354285Y-26942380D01*
X136973333Y-22767142D02*
X136925714Y-22814761D01*
X136782857Y-22862380D01*
X136687619Y-22862380D01*
X136544761Y-22814761D01*
X136449523Y-22719523D01*
X136401904Y-22624285D01*
X136354285Y-22433809D01*
X136354285Y-22290952D01*
X136401904Y-22100476D01*
X136449523Y-22005238D01*
X136544761Y-21910000D01*
X136687619Y-21862380D01*
X136782857Y-21862380D01*
X136925714Y-21910000D01*
X136973333Y-21957619D01*
X137354285Y-21957619D02*
X137401904Y-21910000D01*
X137497142Y-21862380D01*
X137735238Y-21862380D01*
X137830476Y-21910000D01*
X137878095Y-21957619D01*
X137925714Y-22052857D01*
X137925714Y-22148095D01*
X137878095Y-22290952D01*
X137306666Y-22862380D01*
X137925714Y-22862380D01*
%TO.C,C1*%
X126608571Y-27942380D02*
X126037142Y-27942380D01*
X126322857Y-27942380D02*
X126322857Y-26942380D01*
X126227619Y-27085238D01*
X126132380Y-27180476D01*
X126037142Y-27228095D01*
X127227619Y-26942380D02*
X127322857Y-26942380D01*
X127418095Y-26990000D01*
X127465714Y-27037619D01*
X127513333Y-27132857D01*
X127560952Y-27323333D01*
X127560952Y-27561428D01*
X127513333Y-27751904D01*
X127465714Y-27847142D01*
X127418095Y-27894761D01*
X127322857Y-27942380D01*
X127227619Y-27942380D01*
X127132380Y-27894761D01*
X127084761Y-27847142D01*
X127037142Y-27751904D01*
X126989523Y-27561428D01*
X126989523Y-27323333D01*
X127037142Y-27132857D01*
X127084761Y-27037619D01*
X127132380Y-26990000D01*
X127227619Y-26942380D01*
X127989523Y-27275714D02*
X127989523Y-27942380D01*
X127989523Y-27370952D02*
X128037142Y-27323333D01*
X128132380Y-27275714D01*
X128275238Y-27275714D01*
X128370476Y-27323333D01*
X128418095Y-27418571D01*
X128418095Y-27942380D01*
X129227619Y-27418571D02*
X128894285Y-27418571D01*
X128894285Y-27942380D02*
X128894285Y-26942380D01*
X129370476Y-26942380D01*
X127513333Y-22767142D02*
X127465714Y-22814761D01*
X127322857Y-22862380D01*
X127227619Y-22862380D01*
X127084761Y-22814761D01*
X126989523Y-22719523D01*
X126941904Y-22624285D01*
X126894285Y-22433809D01*
X126894285Y-22290952D01*
X126941904Y-22100476D01*
X126989523Y-22005238D01*
X127084761Y-21910000D01*
X127227619Y-21862380D01*
X127322857Y-21862380D01*
X127465714Y-21910000D01*
X127513333Y-21957619D01*
X128465714Y-22862380D02*
X127894285Y-22862380D01*
X128180000Y-22862380D02*
X128180000Y-21862380D01*
X128084761Y-22005238D01*
X127989523Y-22100476D01*
X127894285Y-22148095D01*
%TO.C,TP3*%
X172024380Y-45581904D02*
X172024380Y-45010476D01*
X173024380Y-45296190D02*
X172024380Y-45296190D01*
X173024380Y-44677142D02*
X172024380Y-44677142D01*
X172024380Y-44296190D01*
X172072000Y-44200952D01*
X172119619Y-44153333D01*
X172214857Y-44105714D01*
X172357714Y-44105714D01*
X172452952Y-44153333D01*
X172500571Y-44200952D01*
X172548190Y-44296190D01*
X172548190Y-44677142D01*
X172024380Y-43772380D02*
X172024380Y-43153333D01*
X172405333Y-43486666D01*
X172405333Y-43343809D01*
X172452952Y-43248571D01*
X172500571Y-43200952D01*
X172595809Y-43153333D01*
X172833904Y-43153333D01*
X172929142Y-43200952D01*
X172976761Y-43248571D01*
X173024380Y-43343809D01*
X173024380Y-43629523D01*
X172976761Y-43724761D01*
X172929142Y-43772380D01*
X178641428Y-46081904D02*
X178641428Y-45320000D01*
X179022380Y-44320000D02*
X179022380Y-44891428D01*
X179022380Y-44605714D02*
X178022380Y-44605714D01*
X178165238Y-44700952D01*
X178260476Y-44796190D01*
X178308095Y-44891428D01*
X178117619Y-43939047D02*
X178070000Y-43891428D01*
X178022380Y-43796190D01*
X178022380Y-43558095D01*
X178070000Y-43462857D01*
X178117619Y-43415238D01*
X178212857Y-43367619D01*
X178308095Y-43367619D01*
X178450952Y-43415238D01*
X179022380Y-43986666D01*
X179022380Y-43367619D01*
X178022380Y-43081904D02*
X179022380Y-42748571D01*
X178022380Y-42415238D01*
%TO.C,TP2*%
X177820380Y-39291904D02*
X177820380Y-38720476D01*
X178820380Y-39006190D02*
X177820380Y-39006190D01*
X178820380Y-38387142D02*
X177820380Y-38387142D01*
X177820380Y-38006190D01*
X177868000Y-37910952D01*
X177915619Y-37863333D01*
X178010857Y-37815714D01*
X178153714Y-37815714D01*
X178248952Y-37863333D01*
X178296571Y-37910952D01*
X178344190Y-38006190D01*
X178344190Y-38387142D01*
X177915619Y-37434761D02*
X177868000Y-37387142D01*
X177820380Y-37291904D01*
X177820380Y-37053809D01*
X177868000Y-36958571D01*
X177915619Y-36910952D01*
X178010857Y-36863333D01*
X178106095Y-36863333D01*
X178248952Y-36910952D01*
X178820380Y-37482380D01*
X178820380Y-36863333D01*
X171870000Y-38791904D02*
X171822380Y-38887142D01*
X171822380Y-39030000D01*
X171870000Y-39172857D01*
X171965238Y-39268095D01*
X172060476Y-39315714D01*
X172250952Y-39363333D01*
X172393809Y-39363333D01*
X172584285Y-39315714D01*
X172679523Y-39268095D01*
X172774761Y-39172857D01*
X172822380Y-39030000D01*
X172822380Y-38934761D01*
X172774761Y-38791904D01*
X172727142Y-38744285D01*
X172393809Y-38744285D01*
X172393809Y-38934761D01*
X172822380Y-38315714D02*
X171822380Y-38315714D01*
X172822380Y-37744285D01*
X171822380Y-37744285D01*
X172822380Y-37268095D02*
X171822380Y-37268095D01*
X171822380Y-37030000D01*
X171870000Y-36887142D01*
X171965238Y-36791904D01*
X172060476Y-36744285D01*
X172250952Y-36696666D01*
X172393809Y-36696666D01*
X172584285Y-36744285D01*
X172679523Y-36791904D01*
X172774761Y-36887142D01*
X172822380Y-37030000D01*
X172822380Y-37268095D01*
%TO.C,TP1*%
X177760380Y-33381904D02*
X177760380Y-32810476D01*
X178760380Y-33096190D02*
X177760380Y-33096190D01*
X178760380Y-32477142D02*
X177760380Y-32477142D01*
X177760380Y-32096190D01*
X177808000Y-32000952D01*
X177855619Y-31953333D01*
X177950857Y-31905714D01*
X178093714Y-31905714D01*
X178188952Y-31953333D01*
X178236571Y-32000952D01*
X178284190Y-32096190D01*
X178284190Y-32477142D01*
X178760380Y-30953333D02*
X178760380Y-31524761D01*
X178760380Y-31239047D02*
X177760380Y-31239047D01*
X177903238Y-31334285D01*
X177998476Y-31429523D01*
X178046095Y-31524761D01*
X172381428Y-33881904D02*
X172381428Y-33120000D01*
X172762380Y-33500952D02*
X172000476Y-33500952D01*
X172762380Y-32120000D02*
X172762380Y-32691428D01*
X172762380Y-32405714D02*
X171762380Y-32405714D01*
X171905238Y-32500952D01*
X172000476Y-32596190D01*
X172048095Y-32691428D01*
X171857619Y-31739047D02*
X171810000Y-31691428D01*
X171762380Y-31596190D01*
X171762380Y-31358095D01*
X171810000Y-31262857D01*
X171857619Y-31215238D01*
X171952857Y-31167619D01*
X172048095Y-31167619D01*
X172190952Y-31215238D01*
X172762380Y-31786666D01*
X172762380Y-31167619D01*
X171762380Y-30881904D02*
X172762380Y-30548571D01*
X171762380Y-30215238D01*
%TD*%
M02*
