%TF.GenerationSoftware,KiCad,Pcbnew,5.1.7*%
%TF.CreationDate,2020-11-10T17:58:31+01:00*%
%TF.ProjectId,AS3340-VCO,41533333-3430-42d5-9643-4f2e6b696361,1*%
%TF.SameCoordinates,Original*%
%TF.FileFunction,Copper,L2,Bot*%
%TF.FilePolarity,Positive*%
%FSLAX46Y46*%
G04 Gerber Fmt 4.6, Leading zero omitted, Abs format (unit mm)*
G04 Created by KiCad (PCBNEW 5.1.7) date 2020-11-10 17:58:31*
%MOMM*%
%LPD*%
G01*
G04 APERTURE LIST*
%TA.AperFunction,ComponentPad*%
%ADD10C,1.168000*%
%TD*%
%TA.AperFunction,ComponentPad*%
%ADD11R,1.168000X1.168000*%
%TD*%
%TA.AperFunction,ComponentPad*%
%ADD12C,1.600000*%
%TD*%
%TA.AperFunction,ComponentPad*%
%ADD13R,1.600000X1.600000*%
%TD*%
%TA.AperFunction,ComponentPad*%
%ADD14O,1.600000X1.600000*%
%TD*%
%TA.AperFunction,ComponentPad*%
%ADD15O,5.000000X3.200000*%
%TD*%
%TA.AperFunction,ComponentPad*%
%ADD16C,2.000000*%
%TD*%
%TA.AperFunction,ComponentPad*%
%ADD17O,2.720000X3.240000*%
%TD*%
%TA.AperFunction,ComponentPad*%
%ADD18C,1.800000*%
%TD*%
%TA.AperFunction,ComponentPad*%
%ADD19R,1.800000X1.800000*%
%TD*%
%TA.AperFunction,ComponentPad*%
%ADD20O,1.700000X1.700000*%
%TD*%
%TA.AperFunction,ComponentPad*%
%ADD21R,1.700000X1.700000*%
%TD*%
%TA.AperFunction,ComponentPad*%
%ADD22C,2.130000*%
%TD*%
%TA.AperFunction,ComponentPad*%
%ADD23R,1.930000X1.830000*%
%TD*%
%TA.AperFunction,ViaPad*%
%ADD24C,0.800000*%
%TD*%
%TA.AperFunction,Conductor*%
%ADD25C,0.250000*%
%TD*%
G04 APERTURE END LIST*
D10*
%TO.P,RV7,2*%
%TO.N,Net-(R17-Pad2)*%
X146520000Y-64980000D03*
%TO.P,RV7,3*%
%TO.N,GND*%
X149060000Y-67520000D03*
D11*
%TO.P,RV7,1*%
%TO.N,Net-(RV7-Pad1)*%
X143980000Y-67520000D03*
%TD*%
D10*
%TO.P,RV6,2*%
%TO.N,Net-(R13-Pad1)*%
X117650000Y-50600000D03*
%TO.P,RV6,3*%
X120190000Y-53140000D03*
D11*
%TO.P,RV6,1*%
%TO.N,Net-(R12-Pad2)*%
X115110000Y-53140000D03*
%TD*%
D10*
%TO.P,RV4,2*%
%TO.N,Net-(R1-Pad1)*%
X173860000Y-71690000D03*
%TO.P,RV4,3*%
%TO.N,+12V*%
X176400000Y-74230000D03*
D11*
%TO.P,RV4,1*%
%TO.N,Net-(R1-Pad1)*%
X171320000Y-74230000D03*
%TD*%
D12*
%TO.P,C10,2*%
%TO.N,GND*%
X143910000Y-123100000D03*
D13*
%TO.P,C10,1*%
%TO.N,+12V*%
X141410000Y-123100000D03*
%TD*%
D12*
%TO.P,C8,2*%
%TO.N,-12V*%
X143910000Y-97340000D03*
D13*
%TO.P,C8,1*%
%TO.N,GND*%
X141410000Y-97340000D03*
%TD*%
D14*
%TO.P,U2,16*%
%TO.N,+12V*%
X126300000Y-48040000D03*
%TO.P,U2,8*%
%TO.N,/SAWTOOTH*%
X144080000Y-55660000D03*
%TO.P,U2,15*%
%TO.N,/FREQ_CTRL*%
X128840000Y-48040000D03*
%TO.P,U2,7*%
%TO.N,Net-(RV7-Pad1)*%
X141540000Y-55660000D03*
%TO.P,U2,14*%
%TO.N,Net-(R18-Pad2)*%
X131380000Y-48040000D03*
%TO.P,U2,6*%
%TO.N,/HARD_SYNC*%
X139000000Y-55660000D03*
%TO.P,U2,13*%
%TO.N,/LINEAR_FM*%
X133920000Y-48040000D03*
%TO.P,U2,5*%
%TO.N,/PWM*%
X136460000Y-55660000D03*
%TO.P,U2,12*%
%TO.N,GND*%
X136460000Y-48040000D03*
%TO.P,U2,4*%
%TO.N,/SQUARE*%
X133920000Y-55660000D03*
%TO.P,U2,11*%
%TO.N,Net-(C6-Pad2)*%
X139000000Y-48040000D03*
%TO.P,U2,3*%
%TO.N,Net-(R13-Pad1)*%
X131380000Y-55660000D03*
%TO.P,U2,10*%
%TO.N,/TRIANGLE*%
X141540000Y-48040000D03*
%TO.P,U2,2*%
%TO.N,Net-(R13-Pad2)*%
X128840000Y-55660000D03*
%TO.P,U2,9*%
%TO.N,/SOFT_SYNC*%
X144080000Y-48040000D03*
D13*
%TO.P,U2,1*%
%TO.N,Net-(R12-Pad1)*%
X126300000Y-55660000D03*
%TD*%
D14*
%TO.P,U1,14*%
%TO.N,Net-(R10-Pad2)*%
X151690000Y-47850000D03*
%TO.P,U1,7*%
%TO.N,Net-(R26-Pad2)*%
X166930000Y-55470000D03*
%TO.P,U1,13*%
%TO.N,Net-(R10-Pad2)*%
X154230000Y-47850000D03*
%TO.P,U1,6*%
%TO.N,Net-(R26-Pad2)*%
X164390000Y-55470000D03*
%TO.P,U1,12*%
%TO.N,Net-(J4-PadT)*%
X156770000Y-47850000D03*
%TO.P,U1,5*%
%TO.N,Net-(D3-Pad1)*%
X161850000Y-55470000D03*
%TO.P,U1,11*%
%TO.N,-12V*%
X159310000Y-47850000D03*
%TO.P,U1,4*%
%TO.N,+12V*%
X159310000Y-55470000D03*
%TO.P,U1,10*%
%TO.N,/TRIANGLE*%
X161850000Y-47850000D03*
%TO.P,U1,3*%
%TO.N,/SAWTOOTH*%
X156770000Y-55470000D03*
%TO.P,U1,9*%
%TO.N,Net-(R22-Pad2)*%
X164390000Y-47850000D03*
%TO.P,U1,2*%
%TO.N,Net-(R24-Pad2)*%
X154230000Y-55470000D03*
%TO.P,U1,8*%
%TO.N,Net-(R23-Pad2)*%
X166930000Y-47850000D03*
D13*
%TO.P,U1,1*%
%TO.N,Net-(R24-Pad2)*%
X151690000Y-55470000D03*
%TD*%
D15*
%TO.P,SW1,1*%
%TO.N,GND*%
X147230000Y-105860000D03*
%TO.P,SW1,2*%
%TO.N,Net-(R4-Pad1)*%
X147230000Y-110310000D03*
%TO.P,SW1,3*%
%TO.N,Net-(RV5-Pad2)*%
X147230000Y-114760000D03*
%TD*%
D16*
%TO.P,C11,2*%
%TO.N,+12V*%
X152970000Y-122820000D03*
%TO.P,C11,1*%
%TO.N,GND*%
X147970000Y-122820000D03*
%TD*%
%TO.P,C9,2*%
%TO.N,GND*%
X152750000Y-97070000D03*
%TO.P,C9,1*%
%TO.N,-12V*%
X147750000Y-97070000D03*
%TD*%
D17*
%TO.P,RV8,*%
%TO.N,*%
X163920000Y-63630000D03*
X154320000Y-63630000D03*
D18*
%TO.P,RV8,3*%
%TO.N,Net-(J8-PadT)*%
X156620000Y-71130000D03*
%TO.P,RV8,2*%
%TO.N,Net-(C4-Pad1)*%
X159120000Y-71130000D03*
D19*
%TO.P,RV8,1*%
%TO.N,GND*%
X161620000Y-71130000D03*
%TD*%
D17*
%TO.P,RV5,*%
%TO.N,*%
X139350000Y-35210000D03*
X129750000Y-35210000D03*
D18*
%TO.P,RV5,3*%
%TO.N,+12V*%
X132050000Y-42710000D03*
%TO.P,RV5,2*%
%TO.N,Net-(RV5-Pad2)*%
X134550000Y-42710000D03*
D19*
%TO.P,RV5,1*%
%TO.N,-12V*%
X137050000Y-42710000D03*
%TD*%
D17*
%TO.P,RV3,*%
%TO.N,*%
X151970000Y-82380000D03*
X142370000Y-82380000D03*
D18*
%TO.P,RV3,3*%
%TO.N,GND*%
X144670000Y-89880000D03*
%TO.P,RV3,2*%
%TO.N,Net-(J4-PadTN)*%
X147170000Y-89880000D03*
D19*
%TO.P,RV3,1*%
%TO.N,Net-(R7-Pad2)*%
X149670000Y-89880000D03*
%TD*%
D17*
%TO.P,RV2,*%
%TO.N,*%
X139350000Y-63670000D03*
X129750000Y-63670000D03*
D18*
%TO.P,RV2,3*%
%TO.N,Net-(J3-PadT)*%
X132050000Y-71170000D03*
%TO.P,RV2,2*%
%TO.N,Net-(R3-Pad1)*%
X134550000Y-71170000D03*
D19*
%TO.P,RV2,1*%
%TO.N,GND*%
X137050000Y-71170000D03*
%TD*%
D17*
%TO.P,RV1,*%
%TO.N,*%
X164020000Y-35320000D03*
X154420000Y-35320000D03*
D18*
%TO.P,RV1,3*%
%TO.N,+12V*%
X156720000Y-42820000D03*
%TO.P,RV1,2*%
%TO.N,Net-(R5-Pad1)*%
X159220000Y-42820000D03*
D19*
%TO.P,RV1,1*%
%TO.N,-12V*%
X161720000Y-42820000D03*
%TD*%
D12*
%TO.P,R27,1*%
%TO.N,Net-(D4-Pad2)*%
X147040000Y-41920000D03*
D14*
%TO.P,R27,2*%
%TO.N,+12V*%
X147040000Y-31760000D03*
%TD*%
D12*
%TO.P,R26,1*%
%TO.N,/SQUARE_OUT*%
X168850000Y-144160000D03*
D14*
%TO.P,R26,2*%
%TO.N,Net-(R26-Pad2)*%
X179010000Y-144160000D03*
%TD*%
D12*
%TO.P,R25,1*%
%TO.N,/TRIANGLE_OUT*%
X168850000Y-138990000D03*
D14*
%TO.P,R25,2*%
%TO.N,Net-(R23-Pad2)*%
X179010000Y-138990000D03*
%TD*%
D12*
%TO.P,R24,1*%
%TO.N,/SAWTOOTH_OUT*%
X168950000Y-134010000D03*
D14*
%TO.P,R24,2*%
%TO.N,Net-(R24-Pad2)*%
X179110000Y-134010000D03*
%TD*%
D12*
%TO.P,R23,1*%
%TO.N,Net-(R22-Pad2)*%
X168800000Y-128820000D03*
D14*
%TO.P,R23,2*%
%TO.N,Net-(R23-Pad2)*%
X178960000Y-128820000D03*
%TD*%
D12*
%TO.P,R22,1*%
%TO.N,GND*%
X168800000Y-123740000D03*
D14*
%TO.P,R22,2*%
%TO.N,Net-(R22-Pad2)*%
X178960000Y-123740000D03*
%TD*%
D12*
%TO.P,R21,1*%
%TO.N,GND*%
X168940000Y-118650000D03*
D14*
%TO.P,R21,2*%
%TO.N,Net-(D3-Pad1)*%
X179100000Y-118650000D03*
%TD*%
D12*
%TO.P,R20,1*%
%TO.N,Net-(D3-Pad1)*%
X168940000Y-113430000D03*
D14*
%TO.P,R20,2*%
%TO.N,/SQUARE*%
X179100000Y-113430000D03*
%TD*%
D12*
%TO.P,R19,1*%
%TO.N,-12V*%
X113690000Y-144240000D03*
D14*
%TO.P,R19,2*%
%TO.N,Net-(R13-Pad1)*%
X123850000Y-144240000D03*
%TD*%
D12*
%TO.P,R18,1*%
%TO.N,GND*%
X113630000Y-139150000D03*
D14*
%TO.P,R18,2*%
%TO.N,Net-(R18-Pad2)*%
X123790000Y-139150000D03*
%TD*%
D12*
%TO.P,R17,1*%
%TO.N,/FREQ_CTRL*%
X113700000Y-134020000D03*
D14*
%TO.P,R17,2*%
%TO.N,Net-(R17-Pad2)*%
X123860000Y-134020000D03*
%TD*%
D12*
%TO.P,R16,1*%
%TO.N,Net-(C5-Pad2)*%
X113780000Y-128890000D03*
D14*
%TO.P,R16,2*%
%TO.N,/LINEAR_FM*%
X123940000Y-128890000D03*
%TD*%
D12*
%TO.P,R15,1*%
%TO.N,Net-(C4-Pad2)*%
X113780000Y-123780000D03*
D14*
%TO.P,R15,2*%
%TO.N,/LINEAR_FM*%
X123940000Y-123780000D03*
%TD*%
D12*
%TO.P,R14,1*%
%TO.N,+12V*%
X113780000Y-118640000D03*
D14*
%TO.P,R14,2*%
%TO.N,/LINEAR_FM*%
X123940000Y-118640000D03*
%TD*%
D12*
%TO.P,R13,1*%
%TO.N,Net-(R13-Pad1)*%
X113780000Y-113590000D03*
D14*
%TO.P,R13,2*%
%TO.N,Net-(R13-Pad2)*%
X123940000Y-113590000D03*
%TD*%
D12*
%TO.P,R12,1*%
%TO.N,Net-(R12-Pad1)*%
X113780000Y-108530000D03*
D14*
%TO.P,R12,2*%
%TO.N,Net-(R12-Pad2)*%
X123940000Y-108530000D03*
%TD*%
D12*
%TO.P,R11,1*%
%TO.N,GND*%
X113850000Y-103390000D03*
D14*
%TO.P,R11,2*%
%TO.N,/PWM*%
X124010000Y-103390000D03*
%TD*%
D12*
%TO.P,R10,1*%
%TO.N,/PWM*%
X113780000Y-98260000D03*
D14*
%TO.P,R10,2*%
%TO.N,Net-(R10-Pad2)*%
X123940000Y-98260000D03*
%TD*%
D12*
%TO.P,R9,1*%
%TO.N,GND*%
X113780000Y-93150000D03*
D14*
%TO.P,R9,2*%
%TO.N,Net-(C3-Pad1)*%
X123940000Y-93150000D03*
%TD*%
D12*
%TO.P,R8,1*%
%TO.N,Net-(C2-Pad1)*%
X113780000Y-88020000D03*
D14*
%TO.P,R8,2*%
%TO.N,Net-(R13-Pad1)*%
X123940000Y-88020000D03*
%TD*%
D12*
%TO.P,R7,1*%
%TO.N,+12V*%
X113780000Y-82960000D03*
D14*
%TO.P,R7,2*%
%TO.N,Net-(R7-Pad2)*%
X123940000Y-82960000D03*
%TD*%
D12*
%TO.P,R6,1*%
%TO.N,Net-(C1-Pad2)*%
X113780000Y-77830000D03*
D14*
%TO.P,R6,2*%
%TO.N,/FREQ_CTRL*%
X123940000Y-77830000D03*
%TD*%
D12*
%TO.P,R5,1*%
%TO.N,Net-(R5-Pad1)*%
X113910000Y-72660000D03*
D14*
%TO.P,R5,2*%
%TO.N,/FREQ_CTRL*%
X124070000Y-72660000D03*
%TD*%
D12*
%TO.P,R4,1*%
%TO.N,Net-(R4-Pad1)*%
X113910000Y-67530000D03*
D14*
%TO.P,R4,2*%
%TO.N,/FREQ_CTRL*%
X124070000Y-67530000D03*
%TD*%
D12*
%TO.P,R3,1*%
%TO.N,Net-(R3-Pad1)*%
X113830000Y-62390000D03*
D14*
%TO.P,R3,2*%
%TO.N,/FREQ_CTRL*%
X123990000Y-62390000D03*
%TD*%
D12*
%TO.P,R2,1*%
%TO.N,Net-(J1-PadT)*%
X113470000Y-42290000D03*
D14*
%TO.P,R2,2*%
%TO.N,/FREQ_CTRL*%
X123630000Y-42290000D03*
%TD*%
D12*
%TO.P,R1,1*%
%TO.N,Net-(R1-Pad1)*%
X113610000Y-37280000D03*
D14*
%TO.P,R1,2*%
%TO.N,/FREQ_CTRL*%
X123770000Y-37280000D03*
%TD*%
D20*
%TO.P,J12,10*%
%TO.N,-12V*%
X176580000Y-63180000D03*
%TO.P,J12,9*%
X174040000Y-63180000D03*
%TO.P,J12,8*%
%TO.N,GND*%
X176580000Y-60640000D03*
%TO.P,J12,7*%
X174040000Y-60640000D03*
%TO.P,J12,6*%
X176580000Y-58100000D03*
%TO.P,J12,5*%
X174040000Y-58100000D03*
%TO.P,J12,4*%
X176580000Y-55560000D03*
%TO.P,J12,3*%
X174040000Y-55560000D03*
%TO.P,J12,2*%
%TO.N,+12V*%
X176580000Y-53020000D03*
D21*
%TO.P,J12,1*%
X174040000Y-53020000D03*
%TD*%
D22*
%TO.P,J11,T*%
%TO.N,/TRIANGLE_OUT*%
X161110000Y-116810000D03*
D23*
%TO.P,J11,S*%
%TO.N,GND*%
X161110000Y-105410000D03*
D22*
%TO.P,J11,TN*%
%TO.N,N/C*%
X161110000Y-108510000D03*
%TD*%
%TO.P,J10,T*%
%TO.N,/SAWTOOTH_OUT*%
X161090000Y-131690000D03*
D23*
%TO.P,J10,S*%
%TO.N,GND*%
X161090000Y-120290000D03*
D22*
%TO.P,J10,TN*%
%TO.N,N/C*%
X161090000Y-123390000D03*
%TD*%
%TO.P,J9,T*%
%TO.N,/SQUARE_OUT*%
X161210000Y-146670000D03*
D23*
%TO.P,J9,S*%
%TO.N,GND*%
X161210000Y-135270000D03*
D22*
%TO.P,J9,TN*%
%TO.N,N/C*%
X161210000Y-138370000D03*
%TD*%
%TO.P,J8,T*%
%TO.N,Net-(J8-PadT)*%
X161030000Y-101880000D03*
D23*
%TO.P,J8,S*%
%TO.N,GND*%
X161030000Y-90480000D03*
D22*
%TO.P,J8,TN*%
%TO.N,N/C*%
X161030000Y-93580000D03*
%TD*%
%TO.P,J7,T*%
%TO.N,Net-(C7-Pad2)*%
X132930000Y-131580000D03*
D23*
%TO.P,J7,S*%
%TO.N,GND*%
X132930000Y-120180000D03*
D22*
%TO.P,J7,TN*%
%TO.N,N/C*%
X132930000Y-123280000D03*
%TD*%
%TO.P,J6,T*%
%TO.N,Net-(C3-Pad2)*%
X147010000Y-141100000D03*
D23*
%TO.P,J6,S*%
%TO.N,GND*%
X147010000Y-129700000D03*
D22*
%TO.P,J6,TN*%
%TO.N,N/C*%
X147010000Y-132800000D03*
%TD*%
%TO.P,J5,T*%
%TO.N,Net-(C2-Pad2)*%
X132910000Y-146580000D03*
D23*
%TO.P,J5,S*%
%TO.N,GND*%
X132910000Y-135180000D03*
D22*
%TO.P,J5,TN*%
%TO.N,N/C*%
X132910000Y-138280000D03*
%TD*%
%TO.P,J4,T*%
%TO.N,Net-(J4-PadT)*%
X132930000Y-116470000D03*
D23*
%TO.P,J4,S*%
%TO.N,GND*%
X132930000Y-105070000D03*
D22*
%TO.P,J4,TN*%
%TO.N,Net-(J4-PadTN)*%
X132930000Y-108170000D03*
%TD*%
%TO.P,J3,T*%
%TO.N,Net-(J3-PadT)*%
X132930000Y-101470000D03*
D23*
%TO.P,J3,S*%
%TO.N,GND*%
X132930000Y-90070000D03*
D22*
%TO.P,J3,TN*%
%TO.N,N/C*%
X132930000Y-93170000D03*
%TD*%
%TO.P,J2,T*%
%TO.N,Net-(J1-PadT)*%
X161100000Y-86840000D03*
D23*
%TO.P,J2,S*%
%TO.N,GND*%
X161100000Y-75440000D03*
D22*
%TO.P,J2,TN*%
%TO.N,N/C*%
X161100000Y-78540000D03*
%TD*%
%TO.P,J1,T*%
%TO.N,Net-(J1-PadT)*%
X132930000Y-86360000D03*
D23*
%TO.P,J1,S*%
%TO.N,GND*%
X132930000Y-74960000D03*
D22*
%TO.P,J1,TN*%
%TO.N,N/C*%
X132930000Y-78060000D03*
%TD*%
D18*
%TO.P,D4,2*%
%TO.N,Net-(D4-Pad2)*%
X119870000Y-30490000D03*
D19*
%TO.P,D4,1*%
%TO.N,GND*%
X117330000Y-30490000D03*
%TD*%
D14*
%TO.P,D3,2*%
%TO.N,GND*%
X177310000Y-108520000D03*
D13*
%TO.P,D3,1*%
%TO.N,Net-(D3-Pad1)*%
X169690000Y-108520000D03*
%TD*%
D14*
%TO.P,D2,2*%
%TO.N,/HARD_SYNC*%
X177110000Y-102410000D03*
D13*
%TO.P,D2,1*%
%TO.N,Net-(C3-Pad1)*%
X169490000Y-102410000D03*
%TD*%
D14*
%TO.P,D1,2*%
%TO.N,Net-(C2-Pad1)*%
X177250000Y-96570000D03*
D13*
%TO.P,D1,1*%
%TO.N,/HARD_SYNC*%
X169630000Y-96570000D03*
%TD*%
D16*
%TO.P,C7,2*%
%TO.N,Net-(C7-Pad2)*%
X175760000Y-90260000D03*
%TO.P,C7,1*%
%TO.N,/SOFT_SYNC*%
X170760000Y-90260000D03*
%TD*%
%TO.P,C6,2*%
%TO.N,Net-(C6-Pad2)*%
X175610000Y-83450000D03*
%TO.P,C6,1*%
%TO.N,GND*%
X170610000Y-83450000D03*
%TD*%
%TO.P,C5,2*%
%TO.N,Net-(C5-Pad2)*%
X167790000Y-24950000D03*
%TO.P,C5,1*%
%TO.N,GND*%
X162790000Y-24950000D03*
%TD*%
%TO.P,C4,2*%
%TO.N,Net-(C4-Pad2)*%
X158520000Y-24950000D03*
%TO.P,C4,1*%
%TO.N,Net-(C4-Pad1)*%
X153520000Y-24950000D03*
%TD*%
%TO.P,C3,2*%
%TO.N,Net-(C3-Pad2)*%
X149060000Y-24950000D03*
%TO.P,C3,1*%
%TO.N,Net-(C3-Pad1)*%
X144060000Y-24950000D03*
%TD*%
%TO.P,C2,2*%
%TO.N,Net-(C2-Pad2)*%
X139600000Y-24950000D03*
%TO.P,C2,1*%
%TO.N,Net-(C2-Pad1)*%
X134600000Y-24950000D03*
%TD*%
%TO.P,C1,2*%
%TO.N,Net-(C1-Pad2)*%
X130140000Y-24950000D03*
%TO.P,C1,1*%
%TO.N,GND*%
X125140000Y-24950000D03*
%TD*%
D24*
%TO.N,Net-(J4-PadTN)*%
X145334600Y-98700000D03*
%TO.N,Net-(R1-Pad1)*%
X162781600Y-76918300D03*
%TO.N,Net-(R5-Pad1)*%
X123124100Y-33575100D03*
%TO.N,Net-(R13-Pad1)*%
X126366600Y-63538200D03*
%TO.N,Net-(R10-Pad2)*%
X136007500Y-46621700D03*
%TO.N,/SQUARE*%
X159411200Y-76179100D03*
%TD*%
D25*
%TO.N,GND*%
X147230000Y-98465300D02*
X146739400Y-97974700D01*
X146739400Y-97974700D02*
X145034200Y-97974700D01*
X145034200Y-97974700D02*
X144543700Y-98465200D01*
X144543700Y-98465200D02*
X144543700Y-98465300D01*
X144543700Y-98465300D02*
X141410000Y-98465300D01*
X132910000Y-135180000D02*
X117600000Y-135180000D01*
X117600000Y-135180000D02*
X113630000Y-139150000D01*
X159809700Y-75440000D02*
X156980000Y-75440000D01*
X156980000Y-75440000D02*
X149060000Y-67520000D01*
X132930000Y-90070000D02*
X134220300Y-90070000D01*
X144670000Y-89880000D02*
X134410300Y-89880000D01*
X134410300Y-89880000D02*
X134220300Y-90070000D01*
X132930000Y-90070000D02*
X116860000Y-90070000D01*
X116860000Y-90070000D02*
X113780000Y-93150000D01*
X118555300Y-30490000D02*
X118555300Y-30949600D01*
X118555300Y-30949600D02*
X122636700Y-35031000D01*
X122636700Y-35031000D02*
X123173400Y-35031000D01*
X123173400Y-35031000D02*
X130077500Y-41935100D01*
X130077500Y-41935100D02*
X130077500Y-42551000D01*
X130077500Y-42551000D02*
X135334700Y-47808200D01*
X135334700Y-47808200D02*
X135334700Y-48040000D01*
X161100000Y-75440000D02*
X162390300Y-75440000D01*
X163929200Y-83450000D02*
X163929200Y-86340500D01*
X163929200Y-86340500D02*
X161030000Y-89239700D01*
X170610000Y-83450000D02*
X163929200Y-83450000D01*
X162390300Y-75440000D02*
X163929200Y-76978900D01*
X163929200Y-76978900D02*
X163929200Y-83450000D01*
X160454900Y-75440000D02*
X161100000Y-75440000D01*
X160454900Y-75440000D02*
X159809700Y-75440000D01*
X152750000Y-97070000D02*
X151354700Y-98465300D01*
X151354700Y-98465300D02*
X147230000Y-98465300D01*
X147230000Y-98465300D02*
X147230000Y-103934700D01*
X147230000Y-105860000D02*
X147230000Y-103934700D01*
X141410000Y-97340000D02*
X141410000Y-98465300D01*
X141410000Y-98465300D02*
X140825000Y-98465300D01*
X140825000Y-98465300D02*
X134220300Y-105070000D01*
X132930000Y-105070000D02*
X134220300Y-105070000D01*
X161030000Y-90480000D02*
X161030000Y-89239700D01*
X137050000Y-71170000D02*
X137050000Y-72395300D01*
X125140000Y-24950000D02*
X123643100Y-24950000D01*
X123643100Y-24950000D02*
X118555300Y-30037800D01*
X118555300Y-30037800D02*
X118555300Y-30490000D01*
X117330000Y-30490000D02*
X118555300Y-30490000D01*
X136460000Y-48040000D02*
X135334700Y-48040000D01*
X174040000Y-55560000D02*
X175404700Y-55560000D01*
X176580000Y-55560000D02*
X175404700Y-55560000D01*
X174040000Y-55560000D02*
X174040000Y-56924700D01*
X174040000Y-58100000D02*
X174040000Y-56924700D01*
X174040000Y-58100000D02*
X174040000Y-60640000D01*
X167300000Y-120290000D02*
X161090000Y-120290000D01*
X168940000Y-118650000D02*
X167300000Y-120290000D01*
X167300000Y-120290000D02*
X168800000Y-121790000D01*
X168800000Y-121790000D02*
X168800000Y-123740000D01*
X132930000Y-74960000D02*
X134220300Y-74960000D01*
X137050000Y-72395300D02*
X136785000Y-72395300D01*
X136785000Y-72395300D02*
X134220300Y-74960000D01*
X162845300Y-71130000D02*
X172864700Y-61110600D01*
X172864700Y-61110600D02*
X172864700Y-60640000D01*
X161620000Y-71130000D02*
X162845300Y-71130000D01*
X174040000Y-60640000D02*
X172864700Y-60640000D01*
%TO.N,Net-(C2-Pad2)*%
X139600000Y-24950000D02*
X138260900Y-23610900D01*
X138260900Y-23610900D02*
X121916200Y-23610900D01*
X121916200Y-23610900D02*
X111702300Y-33824800D01*
X111702300Y-33824800D02*
X111702300Y-118164200D01*
X111702300Y-118164200D02*
X119497900Y-125959800D01*
X119497900Y-125959800D02*
X125207600Y-125959800D01*
X125207600Y-125959800D02*
X132421600Y-133173800D01*
X132421600Y-133173800D02*
X133361000Y-133173800D01*
X133361000Y-133173800D02*
X134306100Y-134118900D01*
X134306100Y-134118900D02*
X134306100Y-145183900D01*
X134306100Y-145183900D02*
X132910000Y-146580000D01*
%TO.N,Net-(C2-Pad1)*%
X177250000Y-96570000D02*
X176124700Y-96570000D01*
X113780000Y-88020000D02*
X114905300Y-89145300D01*
X114905300Y-89145300D02*
X130269400Y-89145300D01*
X130269400Y-89145300D02*
X130760000Y-88654700D01*
X130760000Y-88654700D02*
X145186700Y-88654700D01*
X145186700Y-88654700D02*
X145920000Y-89388000D01*
X145920000Y-89388000D02*
X145920000Y-90461400D01*
X145920000Y-90461400D02*
X150429000Y-94970400D01*
X150429000Y-94970400D02*
X164267500Y-94970400D01*
X164267500Y-94970400D02*
X166992400Y-97695300D01*
X166992400Y-97695300D02*
X174999400Y-97695300D01*
X174999400Y-97695300D02*
X176124700Y-96570000D01*
%TO.N,Net-(C3-Pad1)*%
X123940000Y-93150000D02*
X125065300Y-93150000D01*
X169490000Y-102410000D02*
X168364700Y-102410000D01*
X168364700Y-102410000D02*
X161553600Y-95598900D01*
X161553600Y-95598900D02*
X127514200Y-95598900D01*
X127514200Y-95598900D02*
X125065300Y-93150000D01*
%TO.N,Net-(C3-Pad2)*%
X147010000Y-141100000D02*
X154605100Y-133504900D01*
X154605100Y-133504900D02*
X154605100Y-121348600D01*
X154605100Y-121348600D02*
X177348200Y-98605500D01*
X177348200Y-98605500D02*
X178103800Y-98605500D01*
X178103800Y-98605500D02*
X179297700Y-97411600D01*
X179297700Y-97411600D02*
X179297700Y-54070200D01*
X179297700Y-54070200D02*
X150177500Y-24950000D01*
X150177500Y-24950000D02*
X149060000Y-24950000D01*
%TO.N,Net-(C6-Pad2)*%
X139000000Y-48040000D02*
X139000000Y-49165300D01*
X175610000Y-83450000D02*
X164668700Y-72508700D01*
X164668700Y-72508700D02*
X160737700Y-72508700D01*
X160737700Y-72508700D02*
X160394600Y-72165600D01*
X160394600Y-72165600D02*
X160394600Y-70611100D01*
X160394600Y-70611100D02*
X158799200Y-69015700D01*
X158799200Y-69015700D02*
X155829900Y-69015700D01*
X155829900Y-69015700D02*
X142810000Y-55995800D01*
X142810000Y-55995800D02*
X142810000Y-52975300D01*
X142810000Y-52975300D02*
X139000000Y-49165300D01*
%TO.N,Net-(C7-Pad2)*%
X175760000Y-90260000D02*
X178397100Y-92897100D01*
X178397100Y-92897100D02*
X178397100Y-97038400D01*
X178397100Y-97038400D02*
X177730600Y-97704900D01*
X177730600Y-97704900D02*
X176400900Y-97704900D01*
X176400900Y-97704900D02*
X156904000Y-117201800D01*
X156904000Y-117201800D02*
X151651800Y-117201800D01*
X151651800Y-117201800D02*
X137273600Y-131580000D01*
X137273600Y-131580000D02*
X132930000Y-131580000D01*
%TO.N,/SOFT_SYNC*%
X142954700Y-48040000D02*
X142954700Y-47758600D01*
X142954700Y-47758600D02*
X142110800Y-46914700D01*
X142110800Y-46914700D02*
X138495800Y-46914700D01*
X138495800Y-46914700D02*
X137825700Y-47584800D01*
X137825700Y-47584800D02*
X137825700Y-56112400D01*
X137825700Y-56112400D02*
X145575500Y-63862200D01*
X145575500Y-63862200D02*
X147029100Y-63862200D01*
X147029100Y-63862200D02*
X157051200Y-73884300D01*
X157051200Y-73884300D02*
X162921300Y-73884300D01*
X162921300Y-73884300D02*
X171942200Y-82905200D01*
X171942200Y-82905200D02*
X171942200Y-89077800D01*
X171942200Y-89077800D02*
X170760000Y-90260000D01*
X144080000Y-48040000D02*
X142954700Y-48040000D01*
%TO.N,/HARD_SYNC*%
X140125300Y-55660000D02*
X140125300Y-55941400D01*
X140125300Y-55941400D02*
X153734500Y-69550600D01*
X153734500Y-69550600D02*
X156783800Y-69550600D01*
X156783800Y-69550600D02*
X157870000Y-70636800D01*
X157870000Y-70636800D02*
X157870000Y-71627100D01*
X157870000Y-71627100D02*
X159280100Y-73037200D01*
X159280100Y-73037200D02*
X162711100Y-73037200D01*
X162711100Y-73037200D02*
X172410100Y-82736200D01*
X172410100Y-82736200D02*
X172410100Y-92664600D01*
X172410100Y-92664600D02*
X169630000Y-95444700D01*
X139000000Y-55660000D02*
X140125300Y-55660000D01*
X169630000Y-96570000D02*
X169630000Y-95444700D01*
%TO.N,Net-(D3-Pad1)*%
X169698700Y-112671300D02*
X175677400Y-118650000D01*
X175677400Y-118650000D02*
X179100000Y-118650000D01*
X169690000Y-109645300D02*
X169690000Y-112662600D01*
X169690000Y-112662600D02*
X169698700Y-112671300D01*
X168940000Y-113430000D02*
X169698700Y-112671300D01*
X169690000Y-108520000D02*
X169690000Y-109645300D01*
%TO.N,Net-(J1-PadT)*%
X132930000Y-86360000D02*
X132930000Y-83251600D01*
X132930000Y-83251600D02*
X112703700Y-63025300D01*
X112703700Y-63025300D02*
X112703700Y-61277000D01*
X112703700Y-61277000D02*
X116019400Y-57961300D01*
X116019400Y-57961300D02*
X116019400Y-44839400D01*
X116019400Y-44839400D02*
X113470000Y-42290000D01*
X132930000Y-86360000D02*
X160620000Y-86360000D01*
X160620000Y-86360000D02*
X161100000Y-86840000D01*
%TO.N,Net-(J4-PadTN)*%
X132930000Y-108170000D02*
X135864600Y-108170000D01*
X135864600Y-108170000D02*
X145334600Y-98700000D01*
%TO.N,/SAWTOOTH_OUT*%
X161090000Y-131690000D02*
X163410000Y-134010000D01*
X163410000Y-134010000D02*
X168950000Y-134010000D01*
%TO.N,/FREQ_CTRL*%
X128840000Y-48040000D02*
X127714700Y-48040000D01*
X123630000Y-42290000D02*
X123630000Y-43415300D01*
X123630000Y-43415300D02*
X127714700Y-47500000D01*
X127714700Y-47500000D02*
X127714700Y-48040000D01*
X123990000Y-62390000D02*
X123990000Y-63515300D01*
X123990000Y-63515300D02*
X124070000Y-63595300D01*
X124070000Y-63595300D02*
X124070000Y-67530000D01*
%TO.N,Net-(R1-Pad1)*%
X171320000Y-74230000D02*
X172229300Y-74230000D01*
X172229300Y-74230000D02*
X172229300Y-73320700D01*
X172229300Y-73320700D02*
X173860000Y-71690000D01*
X162781600Y-76918300D02*
X156470300Y-76918300D01*
X156470300Y-76918300D02*
X139656300Y-60104300D01*
X139656300Y-60104300D02*
X136739500Y-60104300D01*
X136739500Y-60104300D02*
X132650000Y-56014800D01*
X132650000Y-56014800D02*
X132650000Y-55282200D01*
X132650000Y-55282200D02*
X130968300Y-53600500D01*
X130968300Y-53600500D02*
X129930500Y-53600500D01*
X129930500Y-53600500D02*
X113610000Y-37280000D01*
%TO.N,Net-(R3-Pad1)*%
X113830000Y-62390000D02*
X120262400Y-68822400D01*
X120262400Y-68822400D02*
X132202400Y-68822400D01*
X132202400Y-68822400D02*
X134550000Y-71170000D01*
%TO.N,Net-(R4-Pad1)*%
X147230000Y-110310000D02*
X132572600Y-110310000D01*
X132572600Y-110310000D02*
X117955200Y-95692600D01*
X117955200Y-95692600D02*
X114731100Y-95692600D01*
X114731100Y-95692600D02*
X112643900Y-93605400D01*
X112643900Y-93605400D02*
X112643900Y-68796100D01*
X112643900Y-68796100D02*
X113910000Y-67530000D01*
%TO.N,Net-(R5-Pad1)*%
X159220000Y-42820000D02*
X152685800Y-36285800D01*
X152685800Y-36285800D02*
X152685800Y-35801900D01*
X152685800Y-35801900D02*
X147509600Y-30625700D01*
X147509600Y-30625700D02*
X126073500Y-30625700D01*
X126073500Y-30625700D02*
X123124100Y-33575100D01*
%TO.N,+12V*%
X152970000Y-122820000D02*
X152970000Y-122273300D01*
X152970000Y-122273300D02*
X177088100Y-98155200D01*
X177088100Y-98155200D02*
X177917200Y-98155200D01*
X177917200Y-98155200D02*
X178847400Y-97225000D01*
X178847400Y-97225000D02*
X178847400Y-76677400D01*
X178847400Y-76677400D02*
X176400000Y-74230000D01*
X141410000Y-123100000D02*
X140284700Y-123100000D01*
X140284700Y-123100000D02*
X138680400Y-121495700D01*
X138680400Y-121495700D02*
X116635700Y-121495700D01*
X116635700Y-121495700D02*
X113780000Y-118640000D01*
X152235400Y-38335400D02*
X147505500Y-43065300D01*
X147505500Y-43065300D02*
X141765900Y-43065300D01*
X141765900Y-43065300D02*
X140147700Y-41447100D01*
X140147700Y-41447100D02*
X133312900Y-41447100D01*
X133312900Y-41447100D02*
X132050000Y-42710000D01*
X147040000Y-32885300D02*
X152235400Y-38080700D01*
X152235400Y-38080700D02*
X152235400Y-38335400D01*
X152235400Y-38335400D02*
X156720000Y-42820000D01*
X147040000Y-31760000D02*
X147040000Y-32885300D01*
X162991000Y-53020000D02*
X162604000Y-53020000D01*
X162604000Y-53020000D02*
X160435300Y-55188700D01*
X160435300Y-55188700D02*
X160435300Y-55470000D01*
X174040000Y-53020000D02*
X162991000Y-53020000D01*
X162991000Y-53020000D02*
X162991000Y-47347200D01*
X162991000Y-47347200D02*
X159749700Y-44105900D01*
X159749700Y-44105900D02*
X158005900Y-44105900D01*
X158005900Y-44105900D02*
X156720000Y-42820000D01*
X174040000Y-53020000D02*
X175215300Y-53020000D01*
X176580000Y-53607600D02*
X175802900Y-53607600D01*
X175802900Y-53607600D02*
X175215300Y-53020000D01*
X176580000Y-53607600D02*
X176580000Y-54195300D01*
X176580000Y-53020000D02*
X176580000Y-53607600D01*
X176580000Y-54195300D02*
X176947300Y-54195300D01*
X176947300Y-54195300D02*
X177763000Y-55011000D01*
X177763000Y-55011000D02*
X177763000Y-72867000D01*
X177763000Y-72867000D02*
X176400000Y-74230000D01*
X159310000Y-55470000D02*
X160435300Y-55470000D01*
%TO.N,Net-(R7-Pad2)*%
X149670000Y-89880000D02*
X148444700Y-89880000D01*
X123940000Y-82960000D02*
X125065300Y-82960000D01*
X125065300Y-82960000D02*
X130130700Y-88025400D01*
X130130700Y-88025400D02*
X147049600Y-88025400D01*
X147049600Y-88025400D02*
X148444700Y-89420500D01*
X148444700Y-89420500D02*
X148444700Y-89880000D01*
%TO.N,Net-(R13-Pad1)*%
X130254700Y-55660000D02*
X130254700Y-59650100D01*
X130254700Y-59650100D02*
X126366600Y-63538200D01*
X120190000Y-53140000D02*
X117650000Y-50600000D01*
X130254700Y-55660000D02*
X130254700Y-55453400D01*
X130254700Y-55453400D02*
X127941300Y-53140000D01*
X127941300Y-53140000D02*
X120190000Y-53140000D01*
X131380000Y-55660000D02*
X130254700Y-55660000D01*
%TO.N,Net-(R10-Pad2)*%
X151690000Y-47850000D02*
X150564700Y-47850000D01*
X136007500Y-46621700D02*
X136184500Y-46444700D01*
X136184500Y-46444700D02*
X149159400Y-46444700D01*
X149159400Y-46444700D02*
X150564700Y-47850000D01*
%TO.N,/PWM*%
X124010000Y-103390000D02*
X122884700Y-103390000D01*
X113780000Y-98260000D02*
X117754700Y-98260000D01*
X117754700Y-98260000D02*
X122884700Y-103390000D01*
%TO.N,Net-(R12-Pad2)*%
X115110000Y-53140000D02*
X115110000Y-54049300D01*
X123940000Y-108530000D02*
X122399200Y-108530000D01*
X122399200Y-108530000D02*
X112178200Y-98309000D01*
X112178200Y-98309000D02*
X112178200Y-56981100D01*
X112178200Y-56981100D02*
X115110000Y-54049300D01*
%TO.N,-12V*%
X137050000Y-42710000D02*
X138275300Y-42710000D01*
X159310000Y-47850000D02*
X158184700Y-47850000D01*
X158184700Y-47850000D02*
X158184700Y-47568700D01*
X158184700Y-47568700D02*
X154551300Y-43935300D01*
X154551300Y-43935300D02*
X139500600Y-43935300D01*
X139500600Y-43935300D02*
X138275300Y-42710000D01*
X147750000Y-97070000D02*
X144180000Y-97070000D01*
X144180000Y-97070000D02*
X143910000Y-97340000D01*
%TO.N,/SQUARE*%
X135045300Y-55660000D02*
X135045300Y-55941400D01*
X135045300Y-55941400D02*
X135889200Y-56785300D01*
X135889200Y-56785300D02*
X136974200Y-56785300D01*
X136974200Y-56785300D02*
X156368000Y-76179100D01*
X156368000Y-76179100D02*
X159411200Y-76179100D01*
X133920000Y-55660000D02*
X135045300Y-55660000D01*
%TO.N,Net-(R22-Pad2)*%
X178960000Y-123740000D02*
X177834700Y-123740000D01*
X177834700Y-123740000D02*
X172754700Y-128820000D01*
X172754700Y-128820000D02*
X168800000Y-128820000D01*
%TO.N,Net-(R24-Pad2)*%
X154230000Y-55470000D02*
X152815300Y-55470000D01*
X151690000Y-55470000D02*
X152815300Y-55470000D01*
%TO.N,Net-(R26-Pad2)*%
X164390000Y-55470000D02*
X166930000Y-55470000D01*
%TO.N,/SAWTOOTH*%
X144080000Y-55660000D02*
X145205300Y-55660000D01*
X156770000Y-55470000D02*
X155644700Y-55470000D01*
X155644700Y-55470000D02*
X155644700Y-55751300D01*
X155644700Y-55751300D02*
X154800700Y-56595300D01*
X154800700Y-56595300D02*
X146140600Y-56595300D01*
X146140600Y-56595300D02*
X145205300Y-55660000D01*
%TO.N,/TRIANGLE*%
X161850000Y-47850000D02*
X160724700Y-47850000D01*
X160724700Y-47850000D02*
X160724700Y-48131300D01*
X160724700Y-48131300D02*
X159679400Y-49176600D01*
X159679400Y-49176600D02*
X142676600Y-49176600D01*
X142676600Y-49176600D02*
X141540000Y-48040000D01*
%TO.N,Net-(D4-Pad2)*%
X119870000Y-30490000D02*
X119870000Y-31346900D01*
X119870000Y-31346900D02*
X122823600Y-34300500D01*
X122823600Y-34300500D02*
X124413100Y-34300500D01*
X124413100Y-34300500D02*
X129923200Y-39810600D01*
X129923200Y-39810600D02*
X144930600Y-39810600D01*
X144930600Y-39810600D02*
X147040000Y-41920000D01*
%TD*%
M02*
