%TF.GenerationSoftware,KiCad,Pcbnew,5.1.7*%
%TF.CreationDate,2020-11-08T18:51:04+01:00*%
%TF.ProjectId,AS3340-VCO,41533333-3430-42d5-9643-4f2e6b696361,rev?*%
%TF.SameCoordinates,Original*%
%TF.FileFunction,Copper,L1,Top*%
%TF.FilePolarity,Positive*%
%FSLAX46Y46*%
G04 Gerber Fmt 4.6, Leading zero omitted, Abs format (unit mm)*
G04 Created by KiCad (PCBNEW 5.1.7) date 2020-11-08 18:51:04*
%MOMM*%
%LPD*%
G01*
G04 APERTURE LIST*
%TA.AperFunction,ComponentPad*%
%ADD10C,1.600000*%
%TD*%
%TA.AperFunction,ComponentPad*%
%ADD11R,1.600000X1.600000*%
%TD*%
%TA.AperFunction,ComponentPad*%
%ADD12O,1.600000X1.600000*%
%TD*%
%TA.AperFunction,ComponentPad*%
%ADD13O,5.000000X3.200000*%
%TD*%
%TA.AperFunction,ComponentPad*%
%ADD14C,2.000000*%
%TD*%
%TA.AperFunction,ComponentPad*%
%ADD15O,2.720000X3.240000*%
%TD*%
%TA.AperFunction,ComponentPad*%
%ADD16C,1.800000*%
%TD*%
%TA.AperFunction,ComponentPad*%
%ADD17R,1.800000X1.800000*%
%TD*%
%TA.AperFunction,ComponentPad*%
%ADD18C,1.550000*%
%TD*%
%TA.AperFunction,ComponentPad*%
%ADD19R,1.550000X1.550000*%
%TD*%
%TA.AperFunction,ComponentPad*%
%ADD20O,1.700000X1.700000*%
%TD*%
%TA.AperFunction,ComponentPad*%
%ADD21R,1.700000X1.700000*%
%TD*%
%TA.AperFunction,ComponentPad*%
%ADD22C,2.130000*%
%TD*%
%TA.AperFunction,ComponentPad*%
%ADD23R,1.930000X1.830000*%
%TD*%
%TA.AperFunction,SMDPad,CuDef*%
%ADD24R,4.000000X4.000000*%
%TD*%
%TA.AperFunction,ViaPad*%
%ADD25C,0.800000*%
%TD*%
%TA.AperFunction,Conductor*%
%ADD26C,0.250000*%
%TD*%
G04 APERTURE END LIST*
D10*
%TO.P,C10,2*%
%TO.N,GND*%
X141850000Y-127790000D03*
D11*
%TO.P,C10,1*%
%TO.N,+12V*%
X139350000Y-127790000D03*
%TD*%
D10*
%TO.P,C8,2*%
%TO.N,-12V*%
X141850000Y-102030000D03*
D11*
%TO.P,C8,1*%
%TO.N,GND*%
X139350000Y-102030000D03*
%TD*%
D12*
%TO.P,U2,16*%
%TO.N,+12V*%
X124240000Y-52730000D03*
%TO.P,U2,8*%
%TO.N,/SAWTOOTH*%
X142020000Y-60350000D03*
%TO.P,U2,15*%
%TO.N,/FREQ_CTRL*%
X126780000Y-52730000D03*
%TO.P,U2,7*%
%TO.N,Net-(RV7-Pad1)*%
X139480000Y-60350000D03*
%TO.P,U2,14*%
%TO.N,Net-(R18-Pad2)*%
X129320000Y-52730000D03*
%TO.P,U2,6*%
%TO.N,/HARD_SYNC*%
X136940000Y-60350000D03*
%TO.P,U2,13*%
%TO.N,/LINEAR_FM*%
X131860000Y-52730000D03*
%TO.P,U2,5*%
%TO.N,/PWM*%
X134400000Y-60350000D03*
%TO.P,U2,12*%
%TO.N,GND*%
X134400000Y-52730000D03*
%TO.P,U2,4*%
%TO.N,/SQUARE*%
X131860000Y-60350000D03*
%TO.P,U2,11*%
%TO.N,Net-(C6-Pad2)*%
X136940000Y-52730000D03*
%TO.P,U2,3*%
%TO.N,Net-(R13-Pad1)*%
X129320000Y-60350000D03*
%TO.P,U2,10*%
%TO.N,/TRIANGLE*%
X139480000Y-52730000D03*
%TO.P,U2,2*%
%TO.N,Net-(R13-Pad2)*%
X126780000Y-60350000D03*
%TO.P,U2,9*%
%TO.N,/SOFT_SYNC*%
X142020000Y-52730000D03*
D11*
%TO.P,U2,1*%
%TO.N,Net-(R12-Pad1)*%
X124240000Y-60350000D03*
%TD*%
D12*
%TO.P,U1,14*%
%TO.N,Net-(R10-Pad2)*%
X149630000Y-52540000D03*
%TO.P,U1,7*%
%TO.N,Net-(R26-Pad2)*%
X164870000Y-60160000D03*
%TO.P,U1,13*%
%TO.N,Net-(R10-Pad2)*%
X152170000Y-52540000D03*
%TO.P,U1,6*%
%TO.N,Net-(R26-Pad2)*%
X162330000Y-60160000D03*
%TO.P,U1,12*%
%TO.N,Net-(J4-PadT)*%
X154710000Y-52540000D03*
%TO.P,U1,5*%
%TO.N,Net-(D3-Pad1)*%
X159790000Y-60160000D03*
%TO.P,U1,11*%
%TO.N,-12V*%
X157250000Y-52540000D03*
%TO.P,U1,4*%
%TO.N,+12V*%
X157250000Y-60160000D03*
%TO.P,U1,10*%
%TO.N,/TRIANGLE*%
X159790000Y-52540000D03*
%TO.P,U1,3*%
%TO.N,/SAWTOOTH*%
X154710000Y-60160000D03*
%TO.P,U1,9*%
%TO.N,Net-(R22-Pad2)*%
X162330000Y-52540000D03*
%TO.P,U1,2*%
%TO.N,Net-(R24-Pad2)*%
X152170000Y-60160000D03*
%TO.P,U1,8*%
%TO.N,Net-(R23-Pad2)*%
X164870000Y-52540000D03*
D11*
%TO.P,U1,1*%
%TO.N,Net-(R24-Pad2)*%
X149630000Y-60160000D03*
%TD*%
D13*
%TO.P,SW1,1*%
%TO.N,GND*%
X145170000Y-110550000D03*
%TO.P,SW1,2*%
%TO.N,Net-(R4-Pad1)*%
X145170000Y-115000000D03*
%TO.P,SW1,3*%
%TO.N,Net-(RV5-Pad2)*%
X145170000Y-119450000D03*
%TD*%
D14*
%TO.P,C11,2*%
%TO.N,+12V*%
X150910000Y-127510000D03*
%TO.P,C11,1*%
%TO.N,GND*%
X145910000Y-127510000D03*
%TD*%
%TO.P,C9,2*%
%TO.N,GND*%
X150690000Y-101760000D03*
%TO.P,C9,1*%
%TO.N,-12V*%
X145690000Y-101760000D03*
%TD*%
D15*
%TO.P,RV8,*%
%TO.N,*%
X161860000Y-68320000D03*
X152260000Y-68320000D03*
D16*
%TO.P,RV8,3*%
%TO.N,Net-(J8-PadT)*%
X154560000Y-75820000D03*
%TO.P,RV8,2*%
%TO.N,Net-(C4-Pad1)*%
X157060000Y-75820000D03*
D17*
%TO.P,RV8,1*%
%TO.N,GND*%
X159560000Y-75820000D03*
%TD*%
D18*
%TO.P,RV7,2*%
%TO.N,Net-(R17-Pad2)*%
X144880000Y-72060000D03*
D19*
%TO.P,RV7,1*%
%TO.N,Net-(RV7-Pad1)*%
X142380000Y-67060000D03*
D18*
%TO.P,RV7,3*%
%TO.N,GND*%
X147380000Y-67060000D03*
%TD*%
%TO.P,RV6,2*%
%TO.N,Net-(R13-Pad1)*%
X113950000Y-59360000D03*
D19*
%TO.P,RV6,1*%
%TO.N,Net-(R12-Pad2)*%
X111450000Y-54360000D03*
D18*
%TO.P,RV6,3*%
%TO.N,Net-(R13-Pad1)*%
X116450000Y-54360000D03*
%TD*%
D15*
%TO.P,RV5,*%
%TO.N,*%
X137290000Y-39900000D03*
X127690000Y-39900000D03*
D16*
%TO.P,RV5,3*%
%TO.N,+12V*%
X129990000Y-47400000D03*
%TO.P,RV5,2*%
%TO.N,Net-(RV5-Pad2)*%
X132490000Y-47400000D03*
D17*
%TO.P,RV5,1*%
%TO.N,-12V*%
X134990000Y-47400000D03*
%TD*%
D18*
%TO.P,RV4,2*%
%TO.N,Net-(R1-Pad1)*%
X172430000Y-81350000D03*
D19*
%TO.P,RV4,1*%
X169930000Y-76350000D03*
D18*
%TO.P,RV4,3*%
%TO.N,+12V*%
X174930000Y-76350000D03*
%TD*%
D15*
%TO.P,RV3,*%
%TO.N,*%
X149910000Y-87070000D03*
X140310000Y-87070000D03*
D16*
%TO.P,RV3,3*%
%TO.N,GND*%
X142610000Y-94570000D03*
%TO.P,RV3,2*%
%TO.N,Net-(J4-PadTN)*%
X145110000Y-94570000D03*
D17*
%TO.P,RV3,1*%
%TO.N,Net-(R7-Pad2)*%
X147610000Y-94570000D03*
%TD*%
D15*
%TO.P,RV2,*%
%TO.N,*%
X137290000Y-68360000D03*
X127690000Y-68360000D03*
D16*
%TO.P,RV2,3*%
%TO.N,Net-(J3-PadT)*%
X129990000Y-75860000D03*
%TO.P,RV2,2*%
%TO.N,Net-(R3-Pad1)*%
X132490000Y-75860000D03*
D17*
%TO.P,RV2,1*%
%TO.N,GND*%
X134990000Y-75860000D03*
%TD*%
D15*
%TO.P,RV1,*%
%TO.N,*%
X161960000Y-40010000D03*
X152360000Y-40010000D03*
D16*
%TO.P,RV1,3*%
%TO.N,+12V*%
X154660000Y-47510000D03*
%TO.P,RV1,2*%
%TO.N,Net-(R5-Pad1)*%
X157160000Y-47510000D03*
D17*
%TO.P,RV1,1*%
%TO.N,-12V*%
X159660000Y-47510000D03*
%TD*%
D10*
%TO.P,R27,1*%
%TO.N,Net-(D4-Pad2)*%
X144980000Y-46610000D03*
D12*
%TO.P,R27,2*%
%TO.N,+12V*%
X144980000Y-36450000D03*
%TD*%
D10*
%TO.P,R26,1*%
%TO.N,/SQUARE_OUT*%
X166790000Y-148850000D03*
D12*
%TO.P,R26,2*%
%TO.N,Net-(R26-Pad2)*%
X176950000Y-148850000D03*
%TD*%
D10*
%TO.P,R25,1*%
%TO.N,/TRIANGLE_OUT*%
X166790000Y-143680000D03*
D12*
%TO.P,R25,2*%
%TO.N,Net-(R23-Pad2)*%
X176950000Y-143680000D03*
%TD*%
D10*
%TO.P,R24,1*%
%TO.N,/SAWTOOTH_OUT*%
X166890000Y-138700000D03*
D12*
%TO.P,R24,2*%
%TO.N,Net-(R24-Pad2)*%
X177050000Y-138700000D03*
%TD*%
D10*
%TO.P,R23,1*%
%TO.N,Net-(R22-Pad2)*%
X166740000Y-133510000D03*
D12*
%TO.P,R23,2*%
%TO.N,Net-(R23-Pad2)*%
X176900000Y-133510000D03*
%TD*%
D10*
%TO.P,R22,1*%
%TO.N,GND*%
X166740000Y-128430000D03*
D12*
%TO.P,R22,2*%
%TO.N,Net-(R22-Pad2)*%
X176900000Y-128430000D03*
%TD*%
D10*
%TO.P,R21,1*%
%TO.N,GND*%
X166880000Y-123340000D03*
D12*
%TO.P,R21,2*%
%TO.N,Net-(D3-Pad1)*%
X177040000Y-123340000D03*
%TD*%
D10*
%TO.P,R20,1*%
%TO.N,Net-(D3-Pad1)*%
X166880000Y-118120000D03*
D12*
%TO.P,R20,2*%
%TO.N,/SQUARE*%
X177040000Y-118120000D03*
%TD*%
D10*
%TO.P,R19,1*%
%TO.N,-12V*%
X111630000Y-148930000D03*
D12*
%TO.P,R19,2*%
%TO.N,Net-(R13-Pad1)*%
X121790000Y-148930000D03*
%TD*%
D10*
%TO.P,R18,1*%
%TO.N,GND*%
X111570000Y-143840000D03*
D12*
%TO.P,R18,2*%
%TO.N,Net-(R18-Pad2)*%
X121730000Y-143840000D03*
%TD*%
D10*
%TO.P,R17,1*%
%TO.N,/FREQ_CTRL*%
X111640000Y-138710000D03*
D12*
%TO.P,R17,2*%
%TO.N,Net-(R17-Pad2)*%
X121800000Y-138710000D03*
%TD*%
D10*
%TO.P,R16,1*%
%TO.N,Net-(C5-Pad2)*%
X111720000Y-133580000D03*
D12*
%TO.P,R16,2*%
%TO.N,/LINEAR_FM*%
X121880000Y-133580000D03*
%TD*%
D10*
%TO.P,R15,1*%
%TO.N,Net-(C4-Pad2)*%
X111720000Y-128470000D03*
D12*
%TO.P,R15,2*%
%TO.N,/LINEAR_FM*%
X121880000Y-128470000D03*
%TD*%
D10*
%TO.P,R14,1*%
%TO.N,+12V*%
X111720000Y-123330000D03*
D12*
%TO.P,R14,2*%
%TO.N,/LINEAR_FM*%
X121880000Y-123330000D03*
%TD*%
D10*
%TO.P,R13,1*%
%TO.N,Net-(R13-Pad1)*%
X111720000Y-118280000D03*
D12*
%TO.P,R13,2*%
%TO.N,Net-(R13-Pad2)*%
X121880000Y-118280000D03*
%TD*%
D10*
%TO.P,R12,1*%
%TO.N,Net-(R12-Pad1)*%
X111720000Y-113220000D03*
D12*
%TO.P,R12,2*%
%TO.N,Net-(R12-Pad2)*%
X121880000Y-113220000D03*
%TD*%
D10*
%TO.P,R11,1*%
%TO.N,GND*%
X111790000Y-108080000D03*
D12*
%TO.P,R11,2*%
%TO.N,/PWM*%
X121950000Y-108080000D03*
%TD*%
D10*
%TO.P,R10,1*%
%TO.N,/PWM*%
X111720000Y-102950000D03*
D12*
%TO.P,R10,2*%
%TO.N,Net-(R10-Pad2)*%
X121880000Y-102950000D03*
%TD*%
D10*
%TO.P,R9,1*%
%TO.N,GND*%
X111720000Y-97840000D03*
D12*
%TO.P,R9,2*%
%TO.N,Net-(C3-Pad1)*%
X121880000Y-97840000D03*
%TD*%
D10*
%TO.P,R8,1*%
%TO.N,Net-(C2-Pad1)*%
X111720000Y-92710000D03*
D12*
%TO.P,R8,2*%
%TO.N,Net-(R13-Pad1)*%
X121880000Y-92710000D03*
%TD*%
D10*
%TO.P,R7,1*%
%TO.N,+12V*%
X111720000Y-87650000D03*
D12*
%TO.P,R7,2*%
%TO.N,Net-(R7-Pad2)*%
X121880000Y-87650000D03*
%TD*%
D10*
%TO.P,R6,1*%
%TO.N,Net-(C1-Pad2)*%
X111720000Y-82520000D03*
D12*
%TO.P,R6,2*%
%TO.N,/FREQ_CTRL*%
X121880000Y-82520000D03*
%TD*%
D10*
%TO.P,R5,1*%
%TO.N,Net-(R5-Pad1)*%
X111850000Y-77350000D03*
D12*
%TO.P,R5,2*%
%TO.N,/FREQ_CTRL*%
X122010000Y-77350000D03*
%TD*%
D10*
%TO.P,R4,1*%
%TO.N,Net-(R4-Pad1)*%
X111850000Y-72220000D03*
D12*
%TO.P,R4,2*%
%TO.N,/FREQ_CTRL*%
X122010000Y-72220000D03*
%TD*%
D10*
%TO.P,R3,1*%
%TO.N,Net-(R3-Pad1)*%
X111770000Y-67080000D03*
D12*
%TO.P,R3,2*%
%TO.N,/FREQ_CTRL*%
X121930000Y-67080000D03*
%TD*%
D10*
%TO.P,R2,1*%
%TO.N,Net-(J1-PadT)*%
X111410000Y-46980000D03*
D12*
%TO.P,R2,2*%
%TO.N,/FREQ_CTRL*%
X121570000Y-46980000D03*
%TD*%
D10*
%TO.P,R1,1*%
%TO.N,Net-(R1-Pad1)*%
X111550000Y-41970000D03*
D12*
%TO.P,R1,2*%
%TO.N,/FREQ_CTRL*%
X121710000Y-41970000D03*
%TD*%
D20*
%TO.P,J12,10*%
%TO.N,-12V*%
X174520000Y-67870000D03*
%TO.P,J12,9*%
X171980000Y-67870000D03*
%TO.P,J12,8*%
%TO.N,GND*%
X174520000Y-65330000D03*
%TO.P,J12,7*%
X171980000Y-65330000D03*
%TO.P,J12,6*%
X174520000Y-62790000D03*
%TO.P,J12,5*%
X171980000Y-62790000D03*
%TO.P,J12,4*%
X174520000Y-60250000D03*
%TO.P,J12,3*%
X171980000Y-60250000D03*
%TO.P,J12,2*%
%TO.N,+12V*%
X174520000Y-57710000D03*
D21*
%TO.P,J12,1*%
X171980000Y-57710000D03*
%TD*%
D22*
%TO.P,J11,T*%
%TO.N,/TRIANGLE_OUT*%
X159050000Y-121500000D03*
D23*
%TO.P,J11,S*%
%TO.N,GND*%
X159050000Y-110100000D03*
D22*
%TO.P,J11,TN*%
%TO.N,N/C*%
X159050000Y-113200000D03*
%TD*%
%TO.P,J10,T*%
%TO.N,/SAWTOOTH_OUT*%
X159030000Y-136380000D03*
D23*
%TO.P,J10,S*%
%TO.N,GND*%
X159030000Y-124980000D03*
D22*
%TO.P,J10,TN*%
%TO.N,N/C*%
X159030000Y-128080000D03*
%TD*%
%TO.P,J9,T*%
%TO.N,/SQUARE_OUT*%
X159150000Y-151360000D03*
D23*
%TO.P,J9,S*%
%TO.N,GND*%
X159150000Y-139960000D03*
D22*
%TO.P,J9,TN*%
%TO.N,N/C*%
X159150000Y-143060000D03*
%TD*%
%TO.P,J8,T*%
%TO.N,Net-(J8-PadT)*%
X158970000Y-106570000D03*
D23*
%TO.P,J8,S*%
%TO.N,GND*%
X158970000Y-95170000D03*
D22*
%TO.P,J8,TN*%
%TO.N,N/C*%
X158970000Y-98270000D03*
%TD*%
%TO.P,J7,T*%
%TO.N,Net-(C7-Pad2)*%
X130870000Y-136270000D03*
D23*
%TO.P,J7,S*%
%TO.N,GND*%
X130870000Y-124870000D03*
D22*
%TO.P,J7,TN*%
%TO.N,N/C*%
X130870000Y-127970000D03*
%TD*%
%TO.P,J6,T*%
%TO.N,Net-(C3-Pad2)*%
X144950000Y-145790000D03*
D23*
%TO.P,J6,S*%
%TO.N,GND*%
X144950000Y-134390000D03*
D22*
%TO.P,J6,TN*%
%TO.N,N/C*%
X144950000Y-137490000D03*
%TD*%
%TO.P,J5,T*%
%TO.N,Net-(C2-Pad2)*%
X130850000Y-151270000D03*
D23*
%TO.P,J5,S*%
%TO.N,GND*%
X130850000Y-139870000D03*
D22*
%TO.P,J5,TN*%
%TO.N,N/C*%
X130850000Y-142970000D03*
%TD*%
%TO.P,J4,T*%
%TO.N,Net-(J4-PadT)*%
X130870000Y-121160000D03*
D23*
%TO.P,J4,S*%
%TO.N,GND*%
X130870000Y-109760000D03*
D22*
%TO.P,J4,TN*%
%TO.N,Net-(J4-PadTN)*%
X130870000Y-112860000D03*
%TD*%
%TO.P,J3,T*%
%TO.N,Net-(J3-PadT)*%
X130870000Y-106160000D03*
D23*
%TO.P,J3,S*%
%TO.N,GND*%
X130870000Y-94760000D03*
D22*
%TO.P,J3,TN*%
%TO.N,N/C*%
X130870000Y-97860000D03*
%TD*%
%TO.P,J2,T*%
%TO.N,Net-(J1-PadT)*%
X159040000Y-91530000D03*
D23*
%TO.P,J2,S*%
%TO.N,GND*%
X159040000Y-80130000D03*
D22*
%TO.P,J2,TN*%
%TO.N,N/C*%
X159040000Y-83230000D03*
%TD*%
%TO.P,J1,T*%
%TO.N,Net-(J1-PadT)*%
X130870000Y-91050000D03*
D23*
%TO.P,J1,S*%
%TO.N,GND*%
X130870000Y-79650000D03*
D22*
%TO.P,J1,TN*%
%TO.N,N/C*%
X130870000Y-82750000D03*
%TD*%
D16*
%TO.P,D4,2*%
%TO.N,Net-(D4-Pad2)*%
X117810000Y-35180000D03*
D17*
%TO.P,D4,1*%
%TO.N,GND*%
X115270000Y-35180000D03*
%TD*%
D12*
%TO.P,D3,2*%
%TO.N,GND*%
X175250000Y-113210000D03*
D11*
%TO.P,D3,1*%
%TO.N,Net-(D3-Pad1)*%
X167630000Y-113210000D03*
%TD*%
D12*
%TO.P,D2,2*%
%TO.N,/HARD_SYNC*%
X175050000Y-107100000D03*
D11*
%TO.P,D2,1*%
%TO.N,Net-(C3-Pad1)*%
X167430000Y-107100000D03*
%TD*%
D12*
%TO.P,D1,2*%
%TO.N,Net-(C2-Pad1)*%
X175190000Y-101260000D03*
D11*
%TO.P,D1,1*%
%TO.N,/HARD_SYNC*%
X167570000Y-101260000D03*
%TD*%
D14*
%TO.P,C7,2*%
%TO.N,Net-(C7-Pad2)*%
X173700000Y-94950000D03*
%TO.P,C7,1*%
%TO.N,/SOFT_SYNC*%
X168700000Y-94950000D03*
%TD*%
%TO.P,C6,2*%
%TO.N,Net-(C6-Pad2)*%
X173550000Y-88140000D03*
%TO.P,C6,1*%
%TO.N,GND*%
X168550000Y-88140000D03*
%TD*%
%TO.P,C5,2*%
%TO.N,Net-(C5-Pad2)*%
X165730000Y-29640000D03*
%TO.P,C5,1*%
%TO.N,GND*%
X160730000Y-29640000D03*
%TD*%
%TO.P,C4,2*%
%TO.N,Net-(C4-Pad2)*%
X156460000Y-29640000D03*
%TO.P,C4,1*%
%TO.N,Net-(C4-Pad1)*%
X151460000Y-29640000D03*
%TD*%
%TO.P,C3,2*%
%TO.N,Net-(C3-Pad2)*%
X147000000Y-29640000D03*
%TO.P,C3,1*%
%TO.N,Net-(C3-Pad1)*%
X142000000Y-29640000D03*
%TD*%
%TO.P,C2,2*%
%TO.N,Net-(C2-Pad2)*%
X137540000Y-29640000D03*
%TO.P,C2,1*%
%TO.N,Net-(C2-Pad1)*%
X132540000Y-29640000D03*
%TD*%
%TO.P,C1,2*%
%TO.N,Net-(C1-Pad2)*%
X128080000Y-29640000D03*
%TO.P,C1,1*%
%TO.N,GND*%
X123080000Y-29640000D03*
%TD*%
D24*
%TO.P,TP3,1*%
%TO.N,-12V*%
X173410000Y-49010000D03*
%TD*%
%TO.P,TP2,1*%
%TO.N,GND*%
X173410000Y-42720000D03*
%TD*%
%TO.P,TP1,1*%
%TO.N,+12V*%
X173350000Y-36810000D03*
%TD*%
D25*
%TO.N,/SOFT_SYNC*%
X157844200Y-63267100D03*
%TO.N,/HARD_SYNC*%
X155494000Y-77102600D03*
%TO.N,Net-(J4-PadT)*%
X153199400Y-103222400D03*
%TO.N,Net-(R5-Pad1)*%
X118131200Y-45560200D03*
%TO.N,Net-(R10-Pad2)*%
X141478700Y-58366300D03*
%TO.N,Net-(RV5-Pad2)*%
X143458300Y-48479900D03*
%TD*%
D26*
%TO.N,GND*%
X130870000Y-79650000D02*
X130870000Y-80890300D01*
X130870000Y-94760000D02*
X130870000Y-93519700D01*
X130870000Y-93519700D02*
X132260400Y-92129300D01*
X132260400Y-92129300D02*
X132260400Y-82125700D01*
X132260400Y-82125700D02*
X131025000Y-80890300D01*
X131025000Y-80890300D02*
X130870000Y-80890300D01*
X139350000Y-102030000D02*
X139350000Y-103155300D01*
X139350000Y-103155300D02*
X138765000Y-103155300D01*
X138765000Y-103155300D02*
X132160300Y-109760000D01*
X142610000Y-94570000D02*
X139350000Y-97830000D01*
X139350000Y-97830000D02*
X139350000Y-102030000D01*
X134400000Y-52730000D02*
X134400000Y-53855300D01*
X134990000Y-75860000D02*
X134990000Y-74634700D01*
X134990000Y-74634700D02*
X135525300Y-74099400D01*
X135525300Y-74099400D02*
X135525300Y-54980600D01*
X135525300Y-54980600D02*
X134400000Y-53855300D01*
X173410000Y-42720000D02*
X173410000Y-40394700D01*
X173410000Y-42720000D02*
X173410000Y-45045300D01*
X174520000Y-59074700D02*
X174152700Y-59074700D01*
X174152700Y-59074700D02*
X173333900Y-58255900D01*
X173333900Y-58255900D02*
X173333900Y-53595500D01*
X173333900Y-53595500D02*
X175735300Y-51194100D01*
X175735300Y-51194100D02*
X175735300Y-46861800D01*
X175735300Y-46861800D02*
X173918800Y-45045300D01*
X173918800Y-45045300D02*
X173410000Y-45045300D01*
X173410000Y-40394700D02*
X171484700Y-40394700D01*
X171484700Y-40394700D02*
X160730000Y-29640000D01*
X130870000Y-109760000D02*
X132160300Y-109760000D01*
X144950000Y-128856800D02*
X142916800Y-128856800D01*
X142916800Y-128856800D02*
X141850000Y-127790000D01*
X145910000Y-127510000D02*
X145910000Y-127896800D01*
X145910000Y-127896800D02*
X144950000Y-128856800D01*
X144950000Y-128856800D02*
X144950000Y-133149700D01*
X159050000Y-110100000D02*
X160340300Y-110100000D01*
X166218600Y-116056300D02*
X160340300Y-110178000D01*
X160340300Y-110178000D02*
X160340300Y-110100000D01*
X166218600Y-116056300D02*
X165707300Y-116567600D01*
X165707300Y-116567600D02*
X165707300Y-122167300D01*
X165707300Y-122167300D02*
X166880000Y-123340000D01*
X174124700Y-113210000D02*
X171278400Y-116056300D01*
X171278400Y-116056300D02*
X166218600Y-116056300D01*
X159050000Y-108486300D02*
X157416300Y-108486300D01*
X157416300Y-108486300D02*
X150690000Y-101760000D01*
X158970000Y-96410300D02*
X159125000Y-96410300D01*
X159125000Y-96410300D02*
X160379700Y-97665000D01*
X160379700Y-97665000D02*
X160379700Y-107156600D01*
X160379700Y-107156600D02*
X159050000Y-108486300D01*
X159050000Y-108486300D02*
X159050000Y-110100000D01*
X175250000Y-113210000D02*
X174124700Y-113210000D01*
X159030000Y-124980000D02*
X159030000Y-126220300D01*
X158970000Y-95170000D02*
X158970000Y-96410300D01*
X144950000Y-134390000D02*
X144950000Y-133149700D01*
X174520000Y-60250000D02*
X174520000Y-59074700D01*
X159150000Y-139960000D02*
X159150000Y-138719700D01*
X159030000Y-126220300D02*
X159185000Y-126220300D01*
X159185000Y-126220300D02*
X160437200Y-127472500D01*
X160437200Y-127472500D02*
X160437200Y-137432500D01*
X160437200Y-137432500D02*
X159150000Y-138719700D01*
X111790000Y-108080000D02*
X110590400Y-106880400D01*
X110590400Y-106880400D02*
X110590400Y-98969600D01*
X110590400Y-98969600D02*
X111720000Y-97840000D01*
X174520000Y-62790000D02*
X174520000Y-65330000D01*
X174520000Y-60250000D02*
X174520000Y-62790000D01*
X171980000Y-62790000D02*
X171980000Y-65330000D01*
X159040000Y-80130000D02*
X159040000Y-78889700D01*
X159040000Y-78889700D02*
X159560000Y-78369700D01*
X159560000Y-78369700D02*
X159560000Y-75820000D01*
%TO.N,Net-(C1-Pad2)*%
X111720000Y-82520000D02*
X118237100Y-76002900D01*
X118237100Y-76002900D02*
X118237100Y-46480100D01*
X118237100Y-46480100D02*
X118856500Y-45860700D01*
X118856500Y-45860700D02*
X118856500Y-38863500D01*
X118856500Y-38863500D02*
X128080000Y-29640000D01*
%TO.N,Net-(C2-Pad2)*%
X130850000Y-151270000D02*
X137300000Y-144820000D01*
X137300000Y-144820000D02*
X137300000Y-127479900D01*
X137300000Y-127479900D02*
X142344600Y-122435300D01*
X142344600Y-122435300D02*
X142344600Y-106996900D01*
X142344600Y-106996900D02*
X147653800Y-101687700D01*
X147653800Y-101687700D02*
X147653800Y-97000600D01*
X147653800Y-97000600D02*
X148835400Y-95819000D01*
X148835400Y-95819000D02*
X148835400Y-92517500D01*
X148835400Y-92517500D02*
X147166000Y-90848100D01*
X147166000Y-90848100D02*
X147166000Y-71363600D01*
X147166000Y-71363600D02*
X145371300Y-69568900D01*
X145371300Y-69568900D02*
X145371300Y-54411400D01*
X145371300Y-54411400D02*
X142733000Y-51773100D01*
X142733000Y-51773100D02*
X142733000Y-34833000D01*
X142733000Y-34833000D02*
X137540000Y-29640000D01*
%TO.N,Net-(C2-Pad1)*%
X132540000Y-29640000D02*
X131240000Y-30940000D01*
X131240000Y-30940000D02*
X131240000Y-47889800D01*
X131240000Y-47889800D02*
X128050000Y-51079800D01*
X128050000Y-51079800D02*
X128050000Y-54180900D01*
X128050000Y-54180900D02*
X123114700Y-59116200D01*
X123114700Y-59116200D02*
X123114700Y-61284800D01*
X123114700Y-61284800D02*
X123557600Y-61727700D01*
X123557600Y-61727700D02*
X123557600Y-68215700D01*
X123557600Y-68215700D02*
X120754600Y-71018700D01*
X120754600Y-71018700D02*
X120754600Y-83675400D01*
X120754600Y-83675400D02*
X111720000Y-92710000D01*
%TO.N,Net-(C3-Pad1)*%
X121880000Y-97840000D02*
X121880000Y-96714700D01*
X142000000Y-29640000D02*
X140662800Y-28302800D01*
X140662800Y-28302800D02*
X137000200Y-28302800D01*
X137000200Y-28302800D02*
X133764600Y-31538400D01*
X133764600Y-31538400D02*
X133764600Y-48135400D01*
X133764600Y-48135400D02*
X133130000Y-48770000D01*
X133130000Y-48770000D02*
X133130000Y-68607300D01*
X133130000Y-68607300D02*
X126435700Y-75301600D01*
X126435700Y-75301600D02*
X126435700Y-92159000D01*
X126435700Y-92159000D02*
X121880000Y-96714700D01*
%TO.N,Net-(C3-Pad2)*%
X147000000Y-29640000D02*
X143847500Y-32792500D01*
X143847500Y-32792500D02*
X143847500Y-42713200D01*
X143847500Y-42713200D02*
X148480400Y-47346100D01*
X148480400Y-47346100D02*
X148480400Y-74972100D01*
X148480400Y-74972100D02*
X151613700Y-78105400D01*
X151613700Y-78105400D02*
X151613700Y-97264000D01*
X151613700Y-97264000D02*
X148892300Y-99985400D01*
X148892300Y-99985400D02*
X148892300Y-123088600D01*
X148892300Y-123088600D02*
X152288100Y-126484400D01*
X152288100Y-126484400D02*
X152288100Y-138451900D01*
X152288100Y-138451900D02*
X144950000Y-145790000D01*
%TO.N,Net-(C4-Pad2)*%
X111720000Y-128470000D02*
X109656900Y-126406900D01*
X109656900Y-126406900D02*
X109656900Y-87965500D01*
X109656900Y-87965500D02*
X119137900Y-78484500D01*
X119137900Y-78484500D02*
X119137900Y-46853100D01*
X119137900Y-46853100D02*
X119757100Y-46233900D01*
X119757100Y-46233900D02*
X119757100Y-40537600D01*
X119757100Y-40537600D02*
X132450300Y-27844400D01*
X132450300Y-27844400D02*
X154664400Y-27844400D01*
X154664400Y-27844400D02*
X156460000Y-29640000D01*
%TO.N,Net-(C4-Pad1)*%
X151460000Y-29640000D02*
X155909700Y-34089700D01*
X155909700Y-34089700D02*
X155909700Y-74669700D01*
X155909700Y-74669700D02*
X157060000Y-75820000D01*
%TO.N,Net-(C5-Pad2)*%
X111720000Y-133580000D02*
X109201700Y-131061700D01*
X109201700Y-131061700D02*
X109201700Y-87432200D01*
X109201700Y-87432200D02*
X118687500Y-77946400D01*
X118687500Y-77946400D02*
X118687500Y-46666600D01*
X118687500Y-46666600D02*
X119306800Y-46047300D01*
X119306800Y-46047300D02*
X119306800Y-40319300D01*
X119306800Y-40319300D02*
X132232100Y-27394000D01*
X132232100Y-27394000D02*
X163484000Y-27394000D01*
X163484000Y-27394000D02*
X165730000Y-29640000D01*
%TO.N,/SOFT_SYNC*%
X168700000Y-94950000D02*
X161194800Y-87444800D01*
X161194800Y-87444800D02*
X161194800Y-74594600D01*
X161194800Y-74594600D02*
X157844200Y-71244000D01*
X157844200Y-71244000D02*
X157844200Y-63267100D01*
%TO.N,/HARD_SYNC*%
X167570000Y-101260000D02*
X167570000Y-100134700D01*
X167570000Y-100134700D02*
X166444700Y-99009400D01*
X166444700Y-99009400D02*
X166444700Y-94524000D01*
X166444700Y-94524000D02*
X155494000Y-83573300D01*
X155494000Y-83573300D02*
X155494000Y-77102600D01*
%TO.N,Net-(D3-Pad1)*%
X159790000Y-61285300D02*
X163897900Y-65393200D01*
X163897900Y-65393200D02*
X163897900Y-86939500D01*
X163897900Y-86939500D02*
X170057100Y-93098700D01*
X170057100Y-93098700D02*
X170057100Y-109657600D01*
X170057100Y-109657600D02*
X167630000Y-112084700D01*
X159790000Y-60160000D02*
X159790000Y-61285300D01*
X167630000Y-113210000D02*
X167630000Y-112084700D01*
%TO.N,Net-(J3-PadT)*%
X130870000Y-106160000D02*
X129476100Y-104766100D01*
X129476100Y-104766100D02*
X129476100Y-76373900D01*
X129476100Y-76373900D02*
X129990000Y-75860000D01*
%TO.N,Net-(J4-PadT)*%
X154710000Y-53665300D02*
X153584700Y-54790600D01*
X153584700Y-54790600D02*
X153584700Y-64039100D01*
X153584700Y-64039100D02*
X153945400Y-64399800D01*
X153945400Y-64399800D02*
X153945400Y-73657400D01*
X153945400Y-73657400D02*
X153199400Y-74403400D01*
X153199400Y-74403400D02*
X153199400Y-103222400D01*
X154710000Y-52540000D02*
X154710000Y-53665300D01*
%TO.N,Net-(J4-PadTN)*%
X130870000Y-112860000D02*
X140475400Y-103254600D01*
X140475400Y-103254600D02*
X140475400Y-99204600D01*
X140475400Y-99204600D02*
X145110000Y-94570000D01*
%TO.N,Net-(J8-PadT)*%
X154560000Y-75820000D02*
X154560000Y-102160000D01*
X154560000Y-102160000D02*
X158970000Y-106570000D01*
%TO.N,/TRIANGLE_OUT*%
X159050000Y-121500000D02*
X162935400Y-125385400D01*
X162935400Y-125385400D02*
X162935400Y-139825400D01*
X162935400Y-139825400D02*
X166790000Y-143680000D01*
%TO.N,/FREQ_CTRL*%
X111640000Y-138710000D02*
X112849400Y-137500600D01*
X112849400Y-137500600D02*
X112849400Y-121892600D01*
X112849400Y-121892600D02*
X110590600Y-119633800D01*
X110590600Y-119633800D02*
X110590600Y-111660300D01*
X110590600Y-111660300D02*
X113890200Y-108360700D01*
X113890200Y-108360700D02*
X113890200Y-91635100D01*
X113890200Y-91635100D02*
X121880000Y-83645300D01*
X121880000Y-82520000D02*
X121880000Y-83645300D01*
X122010000Y-78475300D02*
X121880000Y-78605300D01*
X121880000Y-78605300D02*
X121880000Y-82520000D01*
X122010000Y-77350000D02*
X122010000Y-78475300D01*
X122010000Y-72220000D02*
X122010000Y-77350000D01*
X121710000Y-41970000D02*
X121710000Y-43095300D01*
X121710000Y-43095300D02*
X121570000Y-43235300D01*
X121570000Y-43235300D02*
X121570000Y-46980000D01*
X121570000Y-46980000D02*
X121570000Y-48105300D01*
X121930000Y-67080000D02*
X121930000Y-48465300D01*
X121930000Y-48465300D02*
X121570000Y-48105300D01*
%TO.N,Net-(R1-Pad1)*%
X169930000Y-76350000D02*
X169930000Y-77450300D01*
X169930000Y-77450300D02*
X172430000Y-79950300D01*
X172430000Y-79950300D02*
X172430000Y-81350000D01*
%TO.N,Net-(R5-Pad1)*%
X111850000Y-77350000D02*
X117550400Y-71649600D01*
X117550400Y-71649600D02*
X117550400Y-46141000D01*
X117550400Y-46141000D02*
X118131200Y-45560200D01*
%TO.N,+12V*%
X139350000Y-127790000D02*
X140475300Y-127790000D01*
X140475300Y-127790000D02*
X140475300Y-127508700D01*
X140475300Y-127508700D02*
X141864700Y-126119300D01*
X141864700Y-126119300D02*
X149519300Y-126119300D01*
X149519300Y-126119300D02*
X150910000Y-127510000D01*
X111720000Y-123330000D02*
X110134700Y-121744700D01*
X110134700Y-121744700D02*
X110134700Y-89235300D01*
X110134700Y-89235300D02*
X111720000Y-87650000D01*
X124240000Y-53855300D02*
X122664400Y-55430900D01*
X122664400Y-55430900D02*
X122664400Y-61471400D01*
X122664400Y-61471400D02*
X123058400Y-61865400D01*
X123058400Y-61865400D02*
X123058400Y-67663600D01*
X123058400Y-67663600D02*
X119665800Y-71056200D01*
X119665800Y-71056200D02*
X119665800Y-79704200D01*
X119665800Y-79704200D02*
X111720000Y-87650000D01*
X124240000Y-52730000D02*
X124240000Y-53855300D01*
X124240000Y-52730000D02*
X125365300Y-52730000D01*
X129990000Y-47400000D02*
X125365300Y-52024700D01*
X125365300Y-52024700D02*
X125365300Y-52730000D01*
X144980000Y-37575300D02*
X154660000Y-47255300D01*
X154660000Y-47255300D02*
X154660000Y-47510000D01*
X174520000Y-57710000D02*
X174520000Y-56534700D01*
X173350000Y-36810000D02*
X173350000Y-39135300D01*
X173350000Y-39135300D02*
X174294700Y-39135300D01*
X174294700Y-39135300D02*
X176192000Y-41032600D01*
X176192000Y-41032600D02*
X176192000Y-54862700D01*
X176192000Y-54862700D02*
X174520000Y-56534700D01*
X174930000Y-76350000D02*
X173155300Y-74575300D01*
X173155300Y-74575300D02*
X173155300Y-59693200D01*
X173155300Y-59693200D02*
X172347400Y-58885300D01*
X172347400Y-58885300D02*
X171980000Y-58885300D01*
X171980000Y-57710000D02*
X171980000Y-58885300D01*
X144980000Y-36450000D02*
X144980000Y-37575300D01*
%TO.N,Net-(R13-Pad1)*%
X111720000Y-118280000D02*
X117825400Y-124385400D01*
X117825400Y-124385400D02*
X117825400Y-143840100D01*
X117825400Y-143840100D02*
X121790000Y-147804700D01*
X121790000Y-148930000D02*
X121790000Y-147804700D01*
X121880000Y-93835300D02*
X118825600Y-96889700D01*
X118825600Y-96889700D02*
X118825600Y-111174400D01*
X118825600Y-111174400D02*
X111720000Y-118280000D01*
X121880000Y-92710000D02*
X121880000Y-93835300D01*
%TO.N,Net-(R10-Pad2)*%
X121880000Y-101824700D02*
X127891200Y-95813500D01*
X127891200Y-95813500D02*
X127891200Y-76204700D01*
X127891200Y-76204700D02*
X129461300Y-74634600D01*
X129461300Y-74634600D02*
X130536200Y-74634600D01*
X130536200Y-74634600D02*
X131215400Y-75313800D01*
X131215400Y-75313800D02*
X131215400Y-76347200D01*
X131215400Y-76347200D02*
X132004600Y-77136400D01*
X132004600Y-77136400D02*
X136017600Y-77136400D01*
X136017600Y-77136400D02*
X140620400Y-72533600D01*
X140620400Y-72533600D02*
X140620400Y-59224600D01*
X140620400Y-59224600D02*
X141478700Y-58366300D01*
X121880000Y-102950000D02*
X121880000Y-101824700D01*
X152170000Y-52540000D02*
X151044700Y-52540000D01*
X149630000Y-53102600D02*
X150482100Y-53102600D01*
X150482100Y-53102600D02*
X151044700Y-52540000D01*
X149630000Y-52540000D02*
X149630000Y-53102600D01*
%TO.N,/PWM*%
X134400000Y-61475300D02*
X134400000Y-68197300D01*
X134400000Y-68197300D02*
X126886000Y-75711300D01*
X126886000Y-75711300D02*
X126886000Y-95889100D01*
X126886000Y-95889100D02*
X120717200Y-102057900D01*
X120717200Y-102057900D02*
X120717200Y-105721900D01*
X120717200Y-105721900D02*
X121950000Y-106954700D01*
X121950000Y-108080000D02*
X121950000Y-106954700D01*
X134400000Y-60350000D02*
X134400000Y-61475300D01*
%TO.N,Net-(R12-Pad1)*%
X124240000Y-61475300D02*
X124240000Y-82108800D01*
X124240000Y-82108800D02*
X114546500Y-91802300D01*
X114546500Y-91802300D02*
X114546500Y-110393500D01*
X114546500Y-110393500D02*
X111720000Y-113220000D01*
X124240000Y-60350000D02*
X124240000Y-61475300D01*
%TO.N,Net-(R13-Pad2)*%
X121880000Y-117154700D02*
X119764600Y-115039300D01*
X119764600Y-115039300D02*
X119764600Y-97384200D01*
X119764600Y-97384200D02*
X125309900Y-91838900D01*
X125309900Y-91838900D02*
X125309900Y-62945400D01*
X125309900Y-62945400D02*
X126780000Y-61475300D01*
X126780000Y-60350000D02*
X126780000Y-61475300D01*
X121880000Y-118280000D02*
X121880000Y-117154700D01*
%TO.N,/LINEAR_FM*%
X121880000Y-122204700D02*
X123007300Y-121077400D01*
X123007300Y-121077400D02*
X123007300Y-112755800D01*
X123007300Y-112755800D02*
X120266900Y-110015400D01*
X120266900Y-110015400D02*
X120266900Y-97518800D01*
X120266900Y-97518800D02*
X125760200Y-92025500D01*
X125760200Y-92025500D02*
X125760200Y-75263400D01*
X125760200Y-75263400D02*
X130734700Y-70288900D01*
X130734700Y-70288900D02*
X130734700Y-54980600D01*
X130734700Y-54980600D02*
X131860000Y-53855300D01*
X121880000Y-128470000D02*
X121880000Y-133580000D01*
X121880000Y-123330000D02*
X121880000Y-128470000D01*
X121880000Y-123330000D02*
X121880000Y-122204700D01*
X131860000Y-52730000D02*
X131860000Y-53855300D01*
%TO.N,Net-(R17-Pad2)*%
X121800000Y-138710000D02*
X121800000Y-137584700D01*
X121800000Y-137584700D02*
X126775600Y-132609100D01*
X126775600Y-132609100D02*
X126775600Y-111418700D01*
X126775600Y-111418700D02*
X130000000Y-108194300D01*
X130000000Y-108194300D02*
X130816800Y-108194300D01*
X130816800Y-108194300D02*
X138452200Y-100558900D01*
X138452200Y-100558900D02*
X138452200Y-78487800D01*
X138452200Y-78487800D02*
X144880000Y-72060000D01*
%TO.N,Net-(R18-Pad2)*%
X121730000Y-142714700D02*
X119276000Y-140260700D01*
X119276000Y-140260700D02*
X119276000Y-97235900D01*
X119276000Y-97235900D02*
X124690400Y-91821500D01*
X124690400Y-91821500D02*
X124690400Y-62928000D01*
X124690400Y-62928000D02*
X125365400Y-62253000D01*
X125365400Y-62253000D02*
X125365400Y-57809900D01*
X125365400Y-57809900D02*
X129320000Y-53855300D01*
X129320000Y-52730000D02*
X129320000Y-53855300D01*
X121730000Y-143840000D02*
X121730000Y-142714700D01*
%TO.N,-12V*%
X134990000Y-47400000D02*
X134990000Y-48625300D01*
X134990000Y-48625300D02*
X138210000Y-51845300D01*
X138210000Y-51845300D02*
X138210000Y-53191600D01*
X138210000Y-53191600D02*
X143480400Y-58462000D01*
X143480400Y-58462000D02*
X143480400Y-69045300D01*
X143480400Y-69045300D02*
X146384600Y-71949500D01*
X146384600Y-71949500D02*
X146384600Y-101065400D01*
X146384600Y-101065400D02*
X145690000Y-101760000D01*
X170804700Y-53940600D02*
X170804700Y-65886800D01*
X170804700Y-65886800D02*
X171612600Y-66694700D01*
X171612600Y-66694700D02*
X171980000Y-66694700D01*
X173410000Y-51335300D02*
X170804700Y-53940600D01*
X170804700Y-53940600D02*
X164374100Y-47510000D01*
X164374100Y-47510000D02*
X159660000Y-47510000D01*
X171980000Y-67870000D02*
X171980000Y-66694700D01*
X173410000Y-49010000D02*
X173410000Y-51335300D01*
X141850000Y-102030000D02*
X141850000Y-120251600D01*
X141850000Y-120251600D02*
X123691500Y-138410100D01*
X123691500Y-138410100D02*
X123691500Y-148673100D01*
X123691500Y-148673100D02*
X122280000Y-150084600D01*
X122280000Y-150084600D02*
X112784600Y-150084600D01*
X112784600Y-150084600D02*
X111630000Y-148930000D01*
X157250000Y-51977300D02*
X157250000Y-52540000D01*
X157250000Y-51977300D02*
X157250000Y-51414700D01*
X157250000Y-51414700D02*
X158434700Y-50230000D01*
X158434700Y-50230000D02*
X158434700Y-47510000D01*
X159660000Y-47510000D02*
X158434700Y-47510000D01*
%TO.N,Net-(R22-Pad2)*%
X162330000Y-53665300D02*
X163455300Y-54790600D01*
X163455300Y-54790600D02*
X163455300Y-62099600D01*
X163455300Y-62099600D02*
X165544900Y-64189200D01*
X165544900Y-64189200D02*
X165544900Y-69176900D01*
X165544900Y-69176900D02*
X178193900Y-81825900D01*
X178193900Y-81825900D02*
X178193900Y-126010800D01*
X178193900Y-126010800D02*
X176900000Y-127304700D01*
X162330000Y-52540000D02*
X162330000Y-53665300D01*
X176900000Y-128430000D02*
X176900000Y-127304700D01*
%TO.N,Net-(R23-Pad2)*%
X176950000Y-142554700D02*
X178655200Y-140849500D01*
X178655200Y-140849500D02*
X178655200Y-136390500D01*
X178655200Y-136390500D02*
X176900000Y-134635300D01*
X164870000Y-52540000D02*
X164870000Y-53665300D01*
X176900000Y-133510000D02*
X176900000Y-132384700D01*
X176900000Y-132384700D02*
X178644300Y-130640400D01*
X178644300Y-130640400D02*
X178644300Y-81639400D01*
X178644300Y-81639400D02*
X165995300Y-68990400D01*
X165995300Y-68990400D02*
X165995300Y-54790600D01*
X165995300Y-54790600D02*
X164870000Y-53665300D01*
X176900000Y-134072600D02*
X176900000Y-133510000D01*
X176900000Y-134072600D02*
X176900000Y-134635300D01*
X176950000Y-143680000D02*
X176950000Y-142554700D01*
%TO.N,Net-(R24-Pad2)*%
X177050000Y-138700000D02*
X177050000Y-137110500D01*
X177050000Y-137110500D02*
X149343500Y-109404000D01*
X149343500Y-109404000D02*
X149343500Y-100434600D01*
X149343500Y-100434600D02*
X152065300Y-97712800D01*
X152065300Y-97712800D02*
X152065300Y-71075000D01*
X152065300Y-71075000D02*
X149630000Y-68639700D01*
X149630000Y-68639700D02*
X149630000Y-60160000D01*
%TO.N,Net-(R26-Pad2)*%
X176950000Y-148850000D02*
X176950000Y-147724700D01*
X176950000Y-147724700D02*
X175774600Y-146549300D01*
X175774600Y-146549300D02*
X175774600Y-142212000D01*
X175774600Y-142212000D02*
X178204900Y-139781700D01*
X178204900Y-139781700D02*
X178204900Y-137242800D01*
X178204900Y-137242800D02*
X175731600Y-134769500D01*
X175731600Y-134769500D02*
X175731600Y-115074300D01*
X175731600Y-115074300D02*
X176418600Y-114387300D01*
X176418600Y-114387300D02*
X176418600Y-89043900D01*
X176418600Y-89043900D02*
X165094500Y-77719800D01*
X165094500Y-77719800D02*
X165094500Y-65389600D01*
X165094500Y-65389600D02*
X162330000Y-62625100D01*
X162330000Y-62625100D02*
X162330000Y-60160000D01*
%TO.N,Net-(RV5-Pad2)*%
X145170000Y-117524700D02*
X146298100Y-117524700D01*
X146298100Y-117524700D02*
X148441900Y-115380900D01*
X148441900Y-115380900D02*
X148441900Y-98230600D01*
X148441900Y-98230600D02*
X149311000Y-97361500D01*
X149311000Y-97361500D02*
X149311000Y-90632400D01*
X149311000Y-90632400D02*
X147761200Y-89082600D01*
X147761200Y-89082600D02*
X147761200Y-70030200D01*
X147761200Y-70030200D02*
X145891400Y-68160400D01*
X145891400Y-68160400D02*
X145891400Y-50913000D01*
X145891400Y-50913000D02*
X143458300Y-48479900D01*
X145170000Y-119450000D02*
X145170000Y-117524700D01*
%TD*%
M02*
