%TF.GenerationSoftware,KiCad,Pcbnew,5.1.7*%
%TF.CreationDate,2020-11-09T18:52:16+01:00*%
%TF.ProjectId,AS3340-VCO,41533333-3430-42d5-9643-4f2e6b696361,1*%
%TF.SameCoordinates,Original*%
%TF.FileFunction,Copper,L2,Bot*%
%TF.FilePolarity,Positive*%
%FSLAX46Y46*%
G04 Gerber Fmt 4.6, Leading zero omitted, Abs format (unit mm)*
G04 Created by KiCad (PCBNEW 5.1.7) date 2020-11-09 18:52:16*
%MOMM*%
%LPD*%
G01*
G04 APERTURE LIST*
%TA.AperFunction,ComponentPad*%
%ADD10C,1.600000*%
%TD*%
%TA.AperFunction,ComponentPad*%
%ADD11R,1.600000X1.600000*%
%TD*%
%TA.AperFunction,ComponentPad*%
%ADD12O,1.600000X1.600000*%
%TD*%
%TA.AperFunction,ComponentPad*%
%ADD13O,5.000000X3.200000*%
%TD*%
%TA.AperFunction,ComponentPad*%
%ADD14C,2.000000*%
%TD*%
%TA.AperFunction,ComponentPad*%
%ADD15O,2.720000X3.240000*%
%TD*%
%TA.AperFunction,ComponentPad*%
%ADD16C,1.800000*%
%TD*%
%TA.AperFunction,ComponentPad*%
%ADD17R,1.800000X1.800000*%
%TD*%
%TA.AperFunction,ComponentPad*%
%ADD18C,1.550000*%
%TD*%
%TA.AperFunction,ComponentPad*%
%ADD19R,1.550000X1.550000*%
%TD*%
%TA.AperFunction,ComponentPad*%
%ADD20O,1.700000X1.700000*%
%TD*%
%TA.AperFunction,ComponentPad*%
%ADD21R,1.700000X1.700000*%
%TD*%
%TA.AperFunction,ComponentPad*%
%ADD22C,2.130000*%
%TD*%
%TA.AperFunction,ComponentPad*%
%ADD23R,1.930000X1.830000*%
%TD*%
%TA.AperFunction,ViaPad*%
%ADD24C,0.800000*%
%TD*%
%TA.AperFunction,Conductor*%
%ADD25C,0.250000*%
%TD*%
G04 APERTURE END LIST*
D10*
%TO.P,C10,2*%
%TO.N,GND*%
X143910000Y-123100000D03*
D11*
%TO.P,C10,1*%
%TO.N,+12V*%
X141410000Y-123100000D03*
%TD*%
D10*
%TO.P,C8,2*%
%TO.N,-12V*%
X143910000Y-97340000D03*
D11*
%TO.P,C8,1*%
%TO.N,GND*%
X141410000Y-97340000D03*
%TD*%
D12*
%TO.P,U2,16*%
%TO.N,+12V*%
X126300000Y-48040000D03*
%TO.P,U2,8*%
%TO.N,/SAWTOOTH*%
X144080000Y-55660000D03*
%TO.P,U2,15*%
%TO.N,/FREQ_CTRL*%
X128840000Y-48040000D03*
%TO.P,U2,7*%
%TO.N,Net-(RV7-Pad1)*%
X141540000Y-55660000D03*
%TO.P,U2,14*%
%TO.N,Net-(R18-Pad2)*%
X131380000Y-48040000D03*
%TO.P,U2,6*%
%TO.N,/HARD_SYNC*%
X139000000Y-55660000D03*
%TO.P,U2,13*%
%TO.N,/LINEAR_FM*%
X133920000Y-48040000D03*
%TO.P,U2,5*%
%TO.N,/PWM*%
X136460000Y-55660000D03*
%TO.P,U2,12*%
%TO.N,GND*%
X136460000Y-48040000D03*
%TO.P,U2,4*%
%TO.N,/SQUARE*%
X133920000Y-55660000D03*
%TO.P,U2,11*%
%TO.N,Net-(C6-Pad2)*%
X139000000Y-48040000D03*
%TO.P,U2,3*%
%TO.N,Net-(R13-Pad1)*%
X131380000Y-55660000D03*
%TO.P,U2,10*%
%TO.N,/TRIANGLE*%
X141540000Y-48040000D03*
%TO.P,U2,2*%
%TO.N,Net-(R13-Pad2)*%
X128840000Y-55660000D03*
%TO.P,U2,9*%
%TO.N,/SOFT_SYNC*%
X144080000Y-48040000D03*
D11*
%TO.P,U2,1*%
%TO.N,Net-(R12-Pad1)*%
X126300000Y-55660000D03*
%TD*%
D12*
%TO.P,U1,14*%
%TO.N,Net-(R10-Pad2)*%
X151690000Y-47850000D03*
%TO.P,U1,7*%
%TO.N,Net-(R26-Pad2)*%
X166930000Y-55470000D03*
%TO.P,U1,13*%
%TO.N,Net-(R10-Pad2)*%
X154230000Y-47850000D03*
%TO.P,U1,6*%
%TO.N,Net-(R26-Pad2)*%
X164390000Y-55470000D03*
%TO.P,U1,12*%
%TO.N,Net-(J4-PadT)*%
X156770000Y-47850000D03*
%TO.P,U1,5*%
%TO.N,Net-(D3-Pad1)*%
X161850000Y-55470000D03*
%TO.P,U1,11*%
%TO.N,-12V*%
X159310000Y-47850000D03*
%TO.P,U1,4*%
%TO.N,+12V*%
X159310000Y-55470000D03*
%TO.P,U1,10*%
%TO.N,/TRIANGLE*%
X161850000Y-47850000D03*
%TO.P,U1,3*%
%TO.N,/SAWTOOTH*%
X156770000Y-55470000D03*
%TO.P,U1,9*%
%TO.N,Net-(R22-Pad2)*%
X164390000Y-47850000D03*
%TO.P,U1,2*%
%TO.N,Net-(R24-Pad2)*%
X154230000Y-55470000D03*
%TO.P,U1,8*%
%TO.N,Net-(R23-Pad2)*%
X166930000Y-47850000D03*
D11*
%TO.P,U1,1*%
%TO.N,Net-(R24-Pad2)*%
X151690000Y-55470000D03*
%TD*%
D13*
%TO.P,SW1,1*%
%TO.N,GND*%
X147230000Y-105860000D03*
%TO.P,SW1,2*%
%TO.N,Net-(R4-Pad1)*%
X147230000Y-110310000D03*
%TO.P,SW1,3*%
%TO.N,Net-(RV5-Pad2)*%
X147230000Y-114760000D03*
%TD*%
D14*
%TO.P,C11,2*%
%TO.N,+12V*%
X152970000Y-122820000D03*
%TO.P,C11,1*%
%TO.N,GND*%
X147970000Y-122820000D03*
%TD*%
%TO.P,C9,2*%
%TO.N,GND*%
X152750000Y-97070000D03*
%TO.P,C9,1*%
%TO.N,-12V*%
X147750000Y-97070000D03*
%TD*%
D15*
%TO.P,RV8,*%
%TO.N,*%
X163920000Y-63630000D03*
X154320000Y-63630000D03*
D16*
%TO.P,RV8,3*%
%TO.N,Net-(J8-PadT)*%
X156620000Y-71130000D03*
%TO.P,RV8,2*%
%TO.N,Net-(C4-Pad1)*%
X159120000Y-71130000D03*
D17*
%TO.P,RV8,1*%
%TO.N,GND*%
X161620000Y-71130000D03*
%TD*%
D18*
%TO.P,RV7,2*%
%TO.N,Net-(R17-Pad2)*%
X146940000Y-67370000D03*
D19*
%TO.P,RV7,1*%
%TO.N,Net-(RV7-Pad1)*%
X144440000Y-62370000D03*
D18*
%TO.P,RV7,3*%
%TO.N,GND*%
X149440000Y-62370000D03*
%TD*%
%TO.P,RV6,2*%
%TO.N,Net-(R13-Pad1)*%
X116010000Y-54670000D03*
D19*
%TO.P,RV6,1*%
%TO.N,Net-(R12-Pad2)*%
X113510000Y-49670000D03*
D18*
%TO.P,RV6,3*%
%TO.N,Net-(R13-Pad1)*%
X118510000Y-49670000D03*
%TD*%
D15*
%TO.P,RV5,*%
%TO.N,*%
X139350000Y-35210000D03*
X129750000Y-35210000D03*
D16*
%TO.P,RV5,3*%
%TO.N,+12V*%
X132050000Y-42710000D03*
%TO.P,RV5,2*%
%TO.N,Net-(RV5-Pad2)*%
X134550000Y-42710000D03*
D17*
%TO.P,RV5,1*%
%TO.N,-12V*%
X137050000Y-42710000D03*
%TD*%
D18*
%TO.P,RV4,2*%
%TO.N,Net-(R1-Pad1)*%
X174490000Y-76660000D03*
D19*
%TO.P,RV4,1*%
X171990000Y-71660000D03*
D18*
%TO.P,RV4,3*%
%TO.N,+12V*%
X176990000Y-71660000D03*
%TD*%
D15*
%TO.P,RV3,*%
%TO.N,*%
X151970000Y-82380000D03*
X142370000Y-82380000D03*
D16*
%TO.P,RV3,3*%
%TO.N,GND*%
X144670000Y-89880000D03*
%TO.P,RV3,2*%
%TO.N,Net-(J4-PadTN)*%
X147170000Y-89880000D03*
D17*
%TO.P,RV3,1*%
%TO.N,Net-(R7-Pad2)*%
X149670000Y-89880000D03*
%TD*%
D15*
%TO.P,RV2,*%
%TO.N,*%
X139350000Y-63670000D03*
X129750000Y-63670000D03*
D16*
%TO.P,RV2,3*%
%TO.N,Net-(J3-PadT)*%
X132050000Y-71170000D03*
%TO.P,RV2,2*%
%TO.N,Net-(R3-Pad1)*%
X134550000Y-71170000D03*
D17*
%TO.P,RV2,1*%
%TO.N,GND*%
X137050000Y-71170000D03*
%TD*%
D15*
%TO.P,RV1,*%
%TO.N,*%
X164020000Y-35320000D03*
X154420000Y-35320000D03*
D16*
%TO.P,RV1,3*%
%TO.N,+12V*%
X156720000Y-42820000D03*
%TO.P,RV1,2*%
%TO.N,Net-(R5-Pad1)*%
X159220000Y-42820000D03*
D17*
%TO.P,RV1,1*%
%TO.N,-12V*%
X161720000Y-42820000D03*
%TD*%
D10*
%TO.P,R27,1*%
%TO.N,Net-(D4-Pad2)*%
X147040000Y-41920000D03*
D12*
%TO.P,R27,2*%
%TO.N,+12V*%
X147040000Y-31760000D03*
%TD*%
D10*
%TO.P,R26,1*%
%TO.N,/SQUARE_OUT*%
X168850000Y-144160000D03*
D12*
%TO.P,R26,2*%
%TO.N,Net-(R26-Pad2)*%
X179010000Y-144160000D03*
%TD*%
D10*
%TO.P,R25,1*%
%TO.N,/TRIANGLE_OUT*%
X168850000Y-138990000D03*
D12*
%TO.P,R25,2*%
%TO.N,Net-(R23-Pad2)*%
X179010000Y-138990000D03*
%TD*%
D10*
%TO.P,R24,1*%
%TO.N,/SAWTOOTH_OUT*%
X168950000Y-134010000D03*
D12*
%TO.P,R24,2*%
%TO.N,Net-(R24-Pad2)*%
X179110000Y-134010000D03*
%TD*%
D10*
%TO.P,R23,1*%
%TO.N,Net-(R22-Pad2)*%
X168800000Y-128820000D03*
D12*
%TO.P,R23,2*%
%TO.N,Net-(R23-Pad2)*%
X178960000Y-128820000D03*
%TD*%
D10*
%TO.P,R22,1*%
%TO.N,GND*%
X168800000Y-123740000D03*
D12*
%TO.P,R22,2*%
%TO.N,Net-(R22-Pad2)*%
X178960000Y-123740000D03*
%TD*%
D10*
%TO.P,R21,1*%
%TO.N,GND*%
X168940000Y-118650000D03*
D12*
%TO.P,R21,2*%
%TO.N,Net-(D3-Pad1)*%
X179100000Y-118650000D03*
%TD*%
D10*
%TO.P,R20,1*%
%TO.N,Net-(D3-Pad1)*%
X168940000Y-113430000D03*
D12*
%TO.P,R20,2*%
%TO.N,/SQUARE*%
X179100000Y-113430000D03*
%TD*%
D10*
%TO.P,R19,1*%
%TO.N,-12V*%
X113690000Y-144240000D03*
D12*
%TO.P,R19,2*%
%TO.N,Net-(R13-Pad1)*%
X123850000Y-144240000D03*
%TD*%
D10*
%TO.P,R18,1*%
%TO.N,GND*%
X113630000Y-139150000D03*
D12*
%TO.P,R18,2*%
%TO.N,Net-(R18-Pad2)*%
X123790000Y-139150000D03*
%TD*%
D10*
%TO.P,R17,1*%
%TO.N,/FREQ_CTRL*%
X113700000Y-134020000D03*
D12*
%TO.P,R17,2*%
%TO.N,Net-(R17-Pad2)*%
X123860000Y-134020000D03*
%TD*%
D10*
%TO.P,R16,1*%
%TO.N,Net-(C5-Pad2)*%
X113780000Y-128890000D03*
D12*
%TO.P,R16,2*%
%TO.N,/LINEAR_FM*%
X123940000Y-128890000D03*
%TD*%
D10*
%TO.P,R15,1*%
%TO.N,Net-(C4-Pad2)*%
X113780000Y-123780000D03*
D12*
%TO.P,R15,2*%
%TO.N,/LINEAR_FM*%
X123940000Y-123780000D03*
%TD*%
D10*
%TO.P,R14,1*%
%TO.N,+12V*%
X113780000Y-118640000D03*
D12*
%TO.P,R14,2*%
%TO.N,/LINEAR_FM*%
X123940000Y-118640000D03*
%TD*%
D10*
%TO.P,R13,1*%
%TO.N,Net-(R13-Pad1)*%
X113780000Y-113590000D03*
D12*
%TO.P,R13,2*%
%TO.N,Net-(R13-Pad2)*%
X123940000Y-113590000D03*
%TD*%
D10*
%TO.P,R12,1*%
%TO.N,Net-(R12-Pad1)*%
X113780000Y-108530000D03*
D12*
%TO.P,R12,2*%
%TO.N,Net-(R12-Pad2)*%
X123940000Y-108530000D03*
%TD*%
D10*
%TO.P,R11,1*%
%TO.N,GND*%
X113850000Y-103390000D03*
D12*
%TO.P,R11,2*%
%TO.N,/PWM*%
X124010000Y-103390000D03*
%TD*%
D10*
%TO.P,R10,1*%
%TO.N,/PWM*%
X113780000Y-98260000D03*
D12*
%TO.P,R10,2*%
%TO.N,Net-(R10-Pad2)*%
X123940000Y-98260000D03*
%TD*%
D10*
%TO.P,R9,1*%
%TO.N,GND*%
X113780000Y-93150000D03*
D12*
%TO.P,R9,2*%
%TO.N,Net-(C3-Pad1)*%
X123940000Y-93150000D03*
%TD*%
D10*
%TO.P,R8,1*%
%TO.N,Net-(C2-Pad1)*%
X113780000Y-88020000D03*
D12*
%TO.P,R8,2*%
%TO.N,Net-(R13-Pad1)*%
X123940000Y-88020000D03*
%TD*%
D10*
%TO.P,R7,1*%
%TO.N,+12V*%
X113780000Y-82960000D03*
D12*
%TO.P,R7,2*%
%TO.N,Net-(R7-Pad2)*%
X123940000Y-82960000D03*
%TD*%
D10*
%TO.P,R6,1*%
%TO.N,Net-(C1-Pad2)*%
X113780000Y-77830000D03*
D12*
%TO.P,R6,2*%
%TO.N,/FREQ_CTRL*%
X123940000Y-77830000D03*
%TD*%
D10*
%TO.P,R5,1*%
%TO.N,Net-(R5-Pad1)*%
X113910000Y-72660000D03*
D12*
%TO.P,R5,2*%
%TO.N,/FREQ_CTRL*%
X124070000Y-72660000D03*
%TD*%
D10*
%TO.P,R4,1*%
%TO.N,Net-(R4-Pad1)*%
X113910000Y-67530000D03*
D12*
%TO.P,R4,2*%
%TO.N,/FREQ_CTRL*%
X124070000Y-67530000D03*
%TD*%
D10*
%TO.P,R3,1*%
%TO.N,Net-(R3-Pad1)*%
X113830000Y-62390000D03*
D12*
%TO.P,R3,2*%
%TO.N,/FREQ_CTRL*%
X123990000Y-62390000D03*
%TD*%
D10*
%TO.P,R2,1*%
%TO.N,Net-(J1-PadT)*%
X113470000Y-42290000D03*
D12*
%TO.P,R2,2*%
%TO.N,/FREQ_CTRL*%
X123630000Y-42290000D03*
%TD*%
D10*
%TO.P,R1,1*%
%TO.N,Net-(R1-Pad1)*%
X113610000Y-37280000D03*
D12*
%TO.P,R1,2*%
%TO.N,/FREQ_CTRL*%
X123770000Y-37280000D03*
%TD*%
D20*
%TO.P,J12,10*%
%TO.N,-12V*%
X176580000Y-63180000D03*
%TO.P,J12,9*%
X174040000Y-63180000D03*
%TO.P,J12,8*%
%TO.N,GND*%
X176580000Y-60640000D03*
%TO.P,J12,7*%
X174040000Y-60640000D03*
%TO.P,J12,6*%
X176580000Y-58100000D03*
%TO.P,J12,5*%
X174040000Y-58100000D03*
%TO.P,J12,4*%
X176580000Y-55560000D03*
%TO.P,J12,3*%
X174040000Y-55560000D03*
%TO.P,J12,2*%
%TO.N,+12V*%
X176580000Y-53020000D03*
D21*
%TO.P,J12,1*%
X174040000Y-53020000D03*
%TD*%
D22*
%TO.P,J11,T*%
%TO.N,/TRIANGLE_OUT*%
X161110000Y-116810000D03*
D23*
%TO.P,J11,S*%
%TO.N,GND*%
X161110000Y-105410000D03*
D22*
%TO.P,J11,TN*%
%TO.N,N/C*%
X161110000Y-108510000D03*
%TD*%
%TO.P,J10,T*%
%TO.N,/SAWTOOTH_OUT*%
X161090000Y-131690000D03*
D23*
%TO.P,J10,S*%
%TO.N,GND*%
X161090000Y-120290000D03*
D22*
%TO.P,J10,TN*%
%TO.N,N/C*%
X161090000Y-123390000D03*
%TD*%
%TO.P,J9,T*%
%TO.N,/SQUARE_OUT*%
X161210000Y-146670000D03*
D23*
%TO.P,J9,S*%
%TO.N,GND*%
X161210000Y-135270000D03*
D22*
%TO.P,J9,TN*%
%TO.N,N/C*%
X161210000Y-138370000D03*
%TD*%
%TO.P,J8,T*%
%TO.N,Net-(J8-PadT)*%
X161030000Y-101880000D03*
D23*
%TO.P,J8,S*%
%TO.N,GND*%
X161030000Y-90480000D03*
D22*
%TO.P,J8,TN*%
%TO.N,N/C*%
X161030000Y-93580000D03*
%TD*%
%TO.P,J7,T*%
%TO.N,Net-(C7-Pad2)*%
X132930000Y-131580000D03*
D23*
%TO.P,J7,S*%
%TO.N,GND*%
X132930000Y-120180000D03*
D22*
%TO.P,J7,TN*%
%TO.N,N/C*%
X132930000Y-123280000D03*
%TD*%
%TO.P,J6,T*%
%TO.N,Net-(C3-Pad2)*%
X147010000Y-141100000D03*
D23*
%TO.P,J6,S*%
%TO.N,GND*%
X147010000Y-129700000D03*
D22*
%TO.P,J6,TN*%
%TO.N,N/C*%
X147010000Y-132800000D03*
%TD*%
%TO.P,J5,T*%
%TO.N,Net-(C2-Pad2)*%
X132910000Y-146580000D03*
D23*
%TO.P,J5,S*%
%TO.N,GND*%
X132910000Y-135180000D03*
D22*
%TO.P,J5,TN*%
%TO.N,N/C*%
X132910000Y-138280000D03*
%TD*%
%TO.P,J4,T*%
%TO.N,Net-(J4-PadT)*%
X132930000Y-116470000D03*
D23*
%TO.P,J4,S*%
%TO.N,GND*%
X132930000Y-105070000D03*
D22*
%TO.P,J4,TN*%
%TO.N,Net-(J4-PadTN)*%
X132930000Y-108170000D03*
%TD*%
%TO.P,J3,T*%
%TO.N,Net-(J3-PadT)*%
X132930000Y-101470000D03*
D23*
%TO.P,J3,S*%
%TO.N,GND*%
X132930000Y-90070000D03*
D22*
%TO.P,J3,TN*%
%TO.N,N/C*%
X132930000Y-93170000D03*
%TD*%
%TO.P,J2,T*%
%TO.N,Net-(J1-PadT)*%
X161100000Y-86840000D03*
D23*
%TO.P,J2,S*%
%TO.N,GND*%
X161100000Y-75440000D03*
D22*
%TO.P,J2,TN*%
%TO.N,N/C*%
X161100000Y-78540000D03*
%TD*%
%TO.P,J1,T*%
%TO.N,Net-(J1-PadT)*%
X132930000Y-86360000D03*
D23*
%TO.P,J1,S*%
%TO.N,GND*%
X132930000Y-74960000D03*
D22*
%TO.P,J1,TN*%
%TO.N,N/C*%
X132930000Y-78060000D03*
%TD*%
D16*
%TO.P,D4,2*%
%TO.N,Net-(D4-Pad2)*%
X119870000Y-30490000D03*
D17*
%TO.P,D4,1*%
%TO.N,GND*%
X117330000Y-30490000D03*
%TD*%
D12*
%TO.P,D3,2*%
%TO.N,GND*%
X177310000Y-108520000D03*
D11*
%TO.P,D3,1*%
%TO.N,Net-(D3-Pad1)*%
X169690000Y-108520000D03*
%TD*%
D12*
%TO.P,D2,2*%
%TO.N,/HARD_SYNC*%
X177110000Y-102410000D03*
D11*
%TO.P,D2,1*%
%TO.N,Net-(C3-Pad1)*%
X169490000Y-102410000D03*
%TD*%
D12*
%TO.P,D1,2*%
%TO.N,Net-(C2-Pad1)*%
X177250000Y-96570000D03*
D11*
%TO.P,D1,1*%
%TO.N,/HARD_SYNC*%
X169630000Y-96570000D03*
%TD*%
D14*
%TO.P,C7,2*%
%TO.N,Net-(C7-Pad2)*%
X175760000Y-90260000D03*
%TO.P,C7,1*%
%TO.N,/SOFT_SYNC*%
X170760000Y-90260000D03*
%TD*%
%TO.P,C6,2*%
%TO.N,Net-(C6-Pad2)*%
X175610000Y-83450000D03*
%TO.P,C6,1*%
%TO.N,GND*%
X170610000Y-83450000D03*
%TD*%
%TO.P,C5,2*%
%TO.N,Net-(C5-Pad2)*%
X167790000Y-24950000D03*
%TO.P,C5,1*%
%TO.N,GND*%
X162790000Y-24950000D03*
%TD*%
%TO.P,C4,2*%
%TO.N,Net-(C4-Pad2)*%
X158520000Y-24950000D03*
%TO.P,C4,1*%
%TO.N,Net-(C4-Pad1)*%
X153520000Y-24950000D03*
%TD*%
%TO.P,C3,2*%
%TO.N,Net-(C3-Pad2)*%
X149060000Y-24950000D03*
%TO.P,C3,1*%
%TO.N,Net-(C3-Pad1)*%
X144060000Y-24950000D03*
%TD*%
%TO.P,C2,2*%
%TO.N,Net-(C2-Pad2)*%
X139600000Y-24950000D03*
%TO.P,C2,1*%
%TO.N,Net-(C2-Pad1)*%
X134600000Y-24950000D03*
%TD*%
%TO.P,C1,2*%
%TO.N,Net-(C1-Pad2)*%
X130140000Y-24950000D03*
%TO.P,C1,1*%
%TO.N,GND*%
X125140000Y-24950000D03*
%TD*%
D24*
%TO.N,/SOFT_SYNC*%
X159904200Y-58577100D03*
%TO.N,/HARD_SYNC*%
X157554000Y-72412600D03*
%TO.N,Net-(J4-PadT)*%
X155259400Y-98532400D03*
%TO.N,Net-(R5-Pad1)*%
X120191200Y-40870200D03*
%TO.N,Net-(R10-Pad2)*%
X143538700Y-53676300D03*
%TO.N,Net-(RV5-Pad2)*%
X145518300Y-43789900D03*
%TD*%
D25*
%TO.N,GND*%
X118473900Y-30490000D02*
X118473900Y-40178600D01*
X118473900Y-40178600D02*
X119890800Y-41595500D01*
X119890800Y-41595500D02*
X120491700Y-41595500D01*
X120491700Y-41595500D02*
X120947900Y-41139300D01*
X120947900Y-41139300D02*
X124858600Y-41139300D01*
X124858600Y-41139300D02*
X130634000Y-46914700D01*
X130634000Y-46914700D02*
X134490800Y-46914700D01*
X134490800Y-46914700D02*
X135334700Y-47758600D01*
X135334700Y-47758600D02*
X135334700Y-48040000D01*
X136460000Y-48040000D02*
X135334700Y-48040000D01*
X118473900Y-30490000D02*
X118555300Y-30490000D01*
X117330000Y-30490000D02*
X118473900Y-30490000D01*
X161090000Y-120290000D02*
X159799700Y-120290000D01*
X159799700Y-120290000D02*
X150500000Y-120290000D01*
X150500000Y-120290000D02*
X147970000Y-122820000D01*
X167300000Y-120290000D02*
X161090000Y-120290000D01*
X161620000Y-69904600D02*
X158003500Y-66288100D01*
X158003500Y-66288100D02*
X153358100Y-66288100D01*
X153358100Y-66288100D02*
X149440000Y-62370000D01*
X132930000Y-105070000D02*
X115530000Y-105070000D01*
X115530000Y-105070000D02*
X113850000Y-103390000D01*
X125140000Y-24950000D02*
X123635800Y-24950000D01*
X123635800Y-24950000D02*
X118555300Y-30030500D01*
X118555300Y-30030500D02*
X118555300Y-30490000D01*
X143910000Y-123100000D02*
X140990000Y-120180000D01*
X140990000Y-120180000D02*
X132930000Y-120180000D01*
X167422200Y-82847500D02*
X161030000Y-89239700D01*
X170610000Y-83450000D02*
X170007500Y-82847500D01*
X170007500Y-82847500D02*
X167422200Y-82847500D01*
X161100000Y-76680300D02*
X161255000Y-76680300D01*
X161255000Y-76680300D02*
X167422200Y-82847500D01*
X161100000Y-75440000D02*
X161100000Y-76680300D01*
X161030000Y-90480000D02*
X161030000Y-89239700D01*
X137050000Y-71170000D02*
X137050000Y-72395300D01*
X147230000Y-98465300D02*
X143379200Y-98465300D01*
X143379200Y-98465300D02*
X142535300Y-97621400D01*
X142535300Y-97621400D02*
X142535300Y-97340000D01*
X152750000Y-97070000D02*
X151354700Y-98465300D01*
X151354700Y-98465300D02*
X147230000Y-98465300D01*
X147230000Y-98465300D02*
X147230000Y-103934700D01*
X147230000Y-105860000D02*
X147230000Y-103934700D01*
X141410000Y-97340000D02*
X142535300Y-97340000D01*
X174040000Y-55560000D02*
X174040000Y-56924700D01*
X174040000Y-55560000D02*
X176580000Y-55560000D01*
X174040000Y-58100000D02*
X174040000Y-56924700D01*
X168940000Y-118650000D02*
X167300000Y-120290000D01*
X167300000Y-120290000D02*
X168800000Y-121790000D01*
X168800000Y-121790000D02*
X168800000Y-123740000D01*
X132930000Y-90070000D02*
X134220300Y-90070000D01*
X144670000Y-89880000D02*
X134410300Y-89880000D01*
X134410300Y-89880000D02*
X134220300Y-90070000D01*
X172864700Y-60640000D02*
X163600100Y-69904600D01*
X163600100Y-69904600D02*
X161620000Y-69904600D01*
X161620000Y-69904700D02*
X161620000Y-69904600D01*
X161620000Y-71130000D02*
X161620000Y-69904700D01*
X174040000Y-60640000D02*
X172864700Y-60640000D01*
X132910000Y-135180000D02*
X132910000Y-133939700D01*
X147010000Y-129700000D02*
X147010000Y-130940300D01*
X132910000Y-133939700D02*
X135909400Y-130940300D01*
X135909400Y-130940300D02*
X147010000Y-130940300D01*
X113630000Y-139150000D02*
X117600000Y-135180000D01*
X117600000Y-135180000D02*
X132910000Y-135180000D01*
X132930000Y-74960000D02*
X134220300Y-74960000D01*
X134220300Y-74960000D02*
X136785000Y-72395300D01*
X136785000Y-72395300D02*
X137050000Y-72395300D01*
%TO.N,Net-(C2-Pad1)*%
X176124700Y-96570000D02*
X171334300Y-91779600D01*
X171334300Y-91779600D02*
X117539600Y-91779600D01*
X117539600Y-91779600D02*
X113780000Y-88020000D01*
X177250000Y-96570000D02*
X176124700Y-96570000D01*
%TO.N,Net-(C3-Pad1)*%
X169490000Y-102410000D02*
X168364700Y-102410000D01*
X123940000Y-93150000D02*
X125065300Y-93150000D01*
X125065300Y-93150000D02*
X126885700Y-94970400D01*
X126885700Y-94970400D02*
X160925100Y-94970400D01*
X160925100Y-94970400D02*
X168364700Y-102410000D01*
%TO.N,Net-(C6-Pad2)*%
X139000000Y-49165300D02*
X140125300Y-50290600D01*
X140125300Y-50290600D02*
X140125300Y-60069500D01*
X140125300Y-60069500D02*
X144046000Y-63990200D01*
X144046000Y-63990200D02*
X146854900Y-63990200D01*
X146854900Y-63990200D02*
X152769400Y-69904700D01*
X152769400Y-69904700D02*
X157211000Y-69904700D01*
X157211000Y-69904700D02*
X157870100Y-70563800D01*
X157870100Y-70563800D02*
X157870100Y-71662700D01*
X157870100Y-71662700D02*
X159419000Y-73211600D01*
X159419000Y-73211600D02*
X165371600Y-73211600D01*
X165371600Y-73211600D02*
X175610000Y-83450000D01*
X139000000Y-48040000D02*
X139000000Y-49165300D01*
%TO.N,Net-(C7-Pad2)*%
X175760000Y-90260000D02*
X178377600Y-92877600D01*
X178377600Y-92877600D02*
X178377600Y-102780200D01*
X178377600Y-102780200D02*
X173763100Y-107394700D01*
X173763100Y-107394700D02*
X168309800Y-107394700D01*
X168309800Y-107394700D02*
X159019100Y-116685400D01*
X159019100Y-116685400D02*
X152082600Y-116685400D01*
X152082600Y-116685400D02*
X141304700Y-127463300D01*
X141304700Y-127463300D02*
X137046700Y-127463300D01*
X137046700Y-127463300D02*
X132930000Y-131580000D01*
%TO.N,/SOFT_SYNC*%
X145205300Y-48040000D02*
X146523900Y-46721400D01*
X146523900Y-46721400D02*
X152185200Y-46721400D01*
X152185200Y-46721400D02*
X152960000Y-47496200D01*
X152960000Y-47496200D02*
X152960000Y-49165500D01*
X152960000Y-49165500D02*
X158040000Y-54245500D01*
X158040000Y-54245500D02*
X158040000Y-56712900D01*
X158040000Y-56712900D02*
X159904200Y-58577100D01*
X144080000Y-48040000D02*
X145205300Y-48040000D01*
%TO.N,/HARD_SYNC*%
X139000000Y-56785300D02*
X139000000Y-59581100D01*
X139000000Y-59581100D02*
X145303300Y-65884400D01*
X145303300Y-65884400D02*
X148082300Y-65884400D01*
X148082300Y-65884400D02*
X154610500Y-72412600D01*
X154610500Y-72412600D02*
X157554000Y-72412600D01*
X169630000Y-96570000D02*
X170755300Y-96570000D01*
X177110000Y-102410000D02*
X175984700Y-102410000D01*
X170755300Y-96570000D02*
X170755300Y-97180600D01*
X170755300Y-97180600D02*
X175984700Y-102410000D01*
X139000000Y-55660000D02*
X139000000Y-56785300D01*
%TO.N,Net-(D3-Pad1)*%
X169698700Y-112671300D02*
X175677400Y-118650000D01*
X175677400Y-118650000D02*
X179100000Y-118650000D01*
X169690000Y-109645300D02*
X169690000Y-112662600D01*
X169690000Y-112662600D02*
X169698700Y-112671300D01*
X168940000Y-113430000D02*
X169698700Y-112671300D01*
X169690000Y-108520000D02*
X169690000Y-109645300D01*
%TO.N,Net-(J1-PadT)*%
X138275400Y-86360000D02*
X138275400Y-69944500D01*
X138275400Y-69944500D02*
X132650000Y-64319100D01*
X132650000Y-64319100D02*
X132650000Y-55334000D01*
X132650000Y-55334000D02*
X127888000Y-50572000D01*
X127888000Y-50572000D02*
X121752000Y-50572000D01*
X121752000Y-50572000D02*
X113470000Y-42290000D01*
X161100000Y-86840000D02*
X138755400Y-86840000D01*
X138755400Y-86840000D02*
X138275400Y-86360000D01*
X132930000Y-86360000D02*
X138275400Y-86360000D01*
%TO.N,Net-(J4-PadT)*%
X132930000Y-116470000D02*
X136865000Y-112535000D01*
X136865000Y-112535000D02*
X148634600Y-112535000D01*
X148634600Y-112535000D02*
X155259400Y-105910200D01*
X155259400Y-105910200D02*
X155259400Y-98532400D01*
%TO.N,/SQUARE_OUT*%
X161210000Y-146670000D02*
X166340000Y-146670000D01*
X166340000Y-146670000D02*
X168850000Y-144160000D01*
%TO.N,/SAWTOOTH_OUT*%
X161090000Y-131690000D02*
X166630000Y-131690000D01*
X166630000Y-131690000D02*
X168950000Y-134010000D01*
%TO.N,/FREQ_CTRL*%
X128840000Y-48040000D02*
X127714700Y-48040000D01*
X123630000Y-42290000D02*
X123630000Y-43415300D01*
X123630000Y-43415300D02*
X127714700Y-47500000D01*
X127714700Y-47500000D02*
X127714700Y-48040000D01*
X123990000Y-62390000D02*
X123990000Y-63515300D01*
X123990000Y-63515300D02*
X124070000Y-63595300D01*
X124070000Y-63595300D02*
X124070000Y-67530000D01*
%TO.N,Net-(R1-Pad1)*%
X171990000Y-71660000D02*
X170889700Y-71660000D01*
X113610000Y-37280000D02*
X125542100Y-49212100D01*
X125542100Y-49212100D02*
X136885400Y-49212100D01*
X136885400Y-49212100D02*
X137730000Y-48367500D01*
X137730000Y-48367500D02*
X137730000Y-47676700D01*
X137730000Y-47676700D02*
X138557900Y-46848800D01*
X138557900Y-46848800D02*
X139431900Y-46848800D01*
X139431900Y-46848800D02*
X140145300Y-47562200D01*
X140145300Y-47562200D02*
X140145300Y-48734900D01*
X140145300Y-48734900D02*
X142810000Y-51399600D01*
X142810000Y-51399600D02*
X142810000Y-57333600D01*
X142810000Y-57333600D02*
X153089000Y-67612600D01*
X153089000Y-67612600D02*
X157366500Y-67612600D01*
X157366500Y-67612600D02*
X160394600Y-70640700D01*
X160394600Y-70640700D02*
X160394600Y-72248200D01*
X160394600Y-72248200D02*
X160501800Y-72355400D01*
X160501800Y-72355400D02*
X170194300Y-72355400D01*
X170194300Y-72355400D02*
X170889700Y-71660000D01*
%TO.N,Net-(R3-Pad1)*%
X113830000Y-62390000D02*
X120143900Y-68703900D01*
X120143900Y-68703900D02*
X132083900Y-68703900D01*
X132083900Y-68703900D02*
X134550000Y-71170000D01*
%TO.N,Net-(R4-Pad1)*%
X147230000Y-110310000D02*
X147230000Y-108384700D01*
X113910000Y-67530000D02*
X112616000Y-68824000D01*
X112616000Y-68824000D02*
X112616000Y-88454400D01*
X112616000Y-88454400D02*
X119582400Y-95420800D01*
X119582400Y-95420800D02*
X132340800Y-95420800D01*
X132340800Y-95420800D02*
X145304700Y-108384700D01*
X145304700Y-108384700D02*
X147230000Y-108384700D01*
%TO.N,Net-(R5-Pad1)*%
X120191200Y-40870200D02*
X120372500Y-40688900D01*
X120372500Y-40688900D02*
X126094700Y-40688900D01*
X126094700Y-40688900D02*
X129921000Y-44515200D01*
X129921000Y-44515200D02*
X153139500Y-44515200D01*
X153139500Y-44515200D02*
X156067800Y-41586900D01*
X156067800Y-41586900D02*
X157986900Y-41586900D01*
X157986900Y-41586900D02*
X159220000Y-42820000D01*
%TO.N,+12V*%
X141410000Y-123100000D02*
X140284700Y-123100000D01*
X162991000Y-53020000D02*
X162604000Y-53020000D01*
X162604000Y-53020000D02*
X160435300Y-55188700D01*
X160435300Y-55188700D02*
X160435300Y-55470000D01*
X174040000Y-53020000D02*
X162991000Y-53020000D01*
X162991000Y-53020000D02*
X162991000Y-47358600D01*
X162991000Y-47358600D02*
X160270800Y-44638400D01*
X160270800Y-44638400D02*
X158538400Y-44638400D01*
X158538400Y-44638400D02*
X156720000Y-42820000D01*
X159310000Y-55470000D02*
X160435300Y-55470000D01*
X176580000Y-53020000D02*
X174040000Y-53020000D01*
X147040000Y-31760000D02*
X145914700Y-31760000D01*
X145914700Y-31760000D02*
X136958300Y-40716400D01*
X136958300Y-40716400D02*
X134043600Y-40716400D01*
X134043600Y-40716400D02*
X132050000Y-42710000D01*
X140284700Y-123100000D02*
X138680400Y-121495700D01*
X138680400Y-121495700D02*
X116635700Y-121495700D01*
X116635700Y-121495700D02*
X113780000Y-118640000D01*
%TO.N,Net-(R7-Pad2)*%
X149670000Y-89880000D02*
X148444700Y-89880000D01*
X123940000Y-82960000D02*
X125065300Y-82960000D01*
X125065300Y-82960000D02*
X130760000Y-88654700D01*
X130760000Y-88654700D02*
X147679000Y-88654700D01*
X147679000Y-88654700D02*
X148444700Y-89420400D01*
X148444700Y-89420400D02*
X148444700Y-89880000D01*
%TO.N,Net-(R13-Pad1)*%
X123940000Y-88020000D02*
X123940000Y-86894700D01*
X123940000Y-86894700D02*
X122814700Y-85769400D01*
X122814700Y-85769400D02*
X122814700Y-74144100D01*
X122814700Y-74144100D02*
X112669000Y-63998400D01*
X112669000Y-63998400D02*
X112669000Y-58011000D01*
X112669000Y-58011000D02*
X116010000Y-54670000D01*
X119657600Y-51022400D02*
X116010000Y-54670000D01*
X118510000Y-49670000D02*
X119657600Y-50817600D01*
X119657600Y-50817600D02*
X119657600Y-51022400D01*
X130254700Y-55660000D02*
X130254700Y-55378700D01*
X130254700Y-55378700D02*
X125898400Y-51022400D01*
X125898400Y-51022400D02*
X119657600Y-51022400D01*
X131380000Y-55660000D02*
X130254700Y-55660000D01*
%TO.N,Net-(R10-Pad2)*%
X150564700Y-47850000D02*
X144738400Y-53676300D01*
X144738400Y-53676300D02*
X143538700Y-53676300D01*
X151690000Y-47850000D02*
X150564700Y-47850000D01*
%TO.N,/PWM*%
X124010000Y-103390000D02*
X122884700Y-103390000D01*
X113780000Y-98260000D02*
X117754700Y-98260000D01*
X117754700Y-98260000D02*
X122884700Y-103390000D01*
%TO.N,Net-(R12-Pad2)*%
X113510000Y-50770300D02*
X112165600Y-52114700D01*
X112165600Y-52114700D02*
X112165600Y-103308400D01*
X112165600Y-103308400D02*
X117387200Y-108530000D01*
X117387200Y-108530000D02*
X123940000Y-108530000D01*
X113510000Y-49670000D02*
X113510000Y-50770300D01*
%TO.N,-12V*%
X137050000Y-42710000D02*
X138275300Y-42710000D01*
X161720000Y-42820000D02*
X160494700Y-42820000D01*
X160494700Y-42820000D02*
X160494700Y-42360500D01*
X160494700Y-42360500D02*
X159263400Y-41129200D01*
X159263400Y-41129200D02*
X151217600Y-41129200D01*
X151217600Y-41129200D02*
X149282300Y-43064500D01*
X149282300Y-43064500D02*
X138629800Y-43064500D01*
X138629800Y-43064500D02*
X138275300Y-42710000D01*
X147750000Y-97070000D02*
X144180000Y-97070000D01*
X144180000Y-97070000D02*
X143910000Y-97340000D01*
X176580000Y-63180000D02*
X175404700Y-63180000D01*
X174040000Y-63767600D02*
X174817100Y-63767600D01*
X174817100Y-63767600D02*
X175404700Y-63180000D01*
X174040000Y-63180000D02*
X174040000Y-63767600D01*
%TO.N,/SQUARE*%
X133920000Y-55660000D02*
X135045300Y-55660000D01*
X179100000Y-113430000D02*
X179100000Y-90017000D01*
X179100000Y-90017000D02*
X163272400Y-74189400D01*
X163272400Y-74189400D02*
X152149600Y-74189400D01*
X152149600Y-74189400D02*
X145538700Y-67578500D01*
X145538700Y-67578500D02*
X145538700Y-67169600D01*
X145538700Y-67169600D02*
X135045300Y-56676200D01*
X135045300Y-56676200D02*
X135045300Y-55660000D01*
%TO.N,Net-(R22-Pad2)*%
X178960000Y-123740000D02*
X177834700Y-123740000D01*
X177834700Y-123740000D02*
X172754700Y-128820000D01*
X172754700Y-128820000D02*
X168800000Y-128820000D01*
%TO.N,Net-(R24-Pad2)*%
X154230000Y-55470000D02*
X153104700Y-55470000D01*
X151690000Y-56032600D02*
X152542100Y-56032600D01*
X152542100Y-56032600D02*
X153104700Y-55470000D01*
X151690000Y-55470000D02*
X151690000Y-56032600D01*
%TO.N,Net-(R26-Pad2)*%
X164390000Y-55470000D02*
X166930000Y-55470000D01*
%TO.N,Net-(RV5-Pad2)*%
X134550000Y-42710000D02*
X135775400Y-43935400D01*
X135775400Y-43935400D02*
X145372800Y-43935400D01*
X145372800Y-43935400D02*
X145518300Y-43789900D01*
%TO.N,Net-(RV7-Pad1)*%
X141540000Y-55660000D02*
X141540000Y-56785300D01*
X144440000Y-62370000D02*
X144440000Y-59685300D01*
X144440000Y-59685300D02*
X141540000Y-56785300D01*
%TO.N,/SAWTOOTH*%
X156770000Y-55470000D02*
X155644700Y-55470000D01*
X144080000Y-55660000D02*
X145205300Y-55660000D01*
X155644700Y-55470000D02*
X155644700Y-55188700D01*
X155644700Y-55188700D02*
X154800600Y-54344600D01*
X154800600Y-54344600D02*
X146520700Y-54344600D01*
X146520700Y-54344600D02*
X145205300Y-55660000D01*
%TO.N,/TRIANGLE*%
X142665300Y-48040000D02*
X142665300Y-47758700D01*
X142665300Y-47758700D02*
X144156300Y-46267700D01*
X144156300Y-46267700D02*
X159336600Y-46267700D01*
X159336600Y-46267700D02*
X160724700Y-47655800D01*
X160724700Y-47655800D02*
X160724700Y-47850000D01*
X141540000Y-48040000D02*
X142665300Y-48040000D01*
X161850000Y-47850000D02*
X160724700Y-47850000D01*
%TO.N,Net-(D4-Pad2)*%
X119870000Y-30490000D02*
X129574200Y-40194200D01*
X129574200Y-40194200D02*
X129574200Y-42031300D01*
X129574200Y-42031300D02*
X131480200Y-43937300D01*
X131480200Y-43937300D02*
X132592000Y-43937300D01*
X132592000Y-43937300D02*
X133300000Y-43229300D01*
X133300000Y-43229300D02*
X133300000Y-42167700D01*
X133300000Y-42167700D02*
X133983100Y-41484600D01*
X133983100Y-41484600D02*
X146604600Y-41484600D01*
X146604600Y-41484600D02*
X147040000Y-41920000D01*
%TD*%
M02*
