%TF.GenerationSoftware,KiCad,Pcbnew,5.1.7*%
%TF.CreationDate,2020-10-25T10:30:05+01:00*%
%TF.ProjectId,AS3340-VCO,41533333-3430-42d5-9643-4f2e6b696361,rev?*%
%TF.SameCoordinates,Original*%
%TF.FileFunction,Copper,L2,Bot*%
%TF.FilePolarity,Positive*%
%FSLAX46Y46*%
G04 Gerber Fmt 4.6, Leading zero omitted, Abs format (unit mm)*
G04 Created by KiCad (PCBNEW 5.1.7) date 2020-10-25 10:30:05*
%MOMM*%
%LPD*%
G01*
G04 APERTURE LIST*
%TA.AperFunction,ComponentPad*%
%ADD10C,1.550000*%
%TD*%
%TA.AperFunction,ComponentPad*%
%ADD11R,1.550000X1.550000*%
%TD*%
%TA.AperFunction,ComponentPad*%
%ADD12C,2.130000*%
%TD*%
%TA.AperFunction,ComponentPad*%
%ADD13R,1.930000X1.830000*%
%TD*%
%TA.AperFunction,ComponentPad*%
%ADD14O,3.240000X2.720000*%
%TD*%
%TA.AperFunction,ComponentPad*%
%ADD15C,1.800000*%
%TD*%
%TA.AperFunction,ComponentPad*%
%ADD16R,1.800000X1.800000*%
%TD*%
%TA.AperFunction,ComponentPad*%
%ADD17C,2.000000*%
%TD*%
%TA.AperFunction,ComponentPad*%
%ADD18O,1.600000X1.600000*%
%TD*%
%TA.AperFunction,ComponentPad*%
%ADD19R,1.600000X1.600000*%
%TD*%
%TA.AperFunction,ComponentPad*%
%ADD20C,1.600000*%
%TD*%
%TA.AperFunction,ComponentPad*%
%ADD21O,3.500000X2.200000*%
%TD*%
%TA.AperFunction,ComponentPad*%
%ADD22O,2.500000X1.500000*%
%TD*%
%TA.AperFunction,ComponentPad*%
%ADD23R,2.500000X1.500000*%
%TD*%
%TA.AperFunction,ViaPad*%
%ADD24C,0.800000*%
%TD*%
%TA.AperFunction,Conductor*%
%ADD25C,0.250000*%
%TD*%
G04 APERTURE END LIST*
D10*
%TO.P,RV4,2*%
%TO.N,Net-(R1-Pad1)*%
X149190000Y-66670000D03*
D11*
%TO.P,RV4,1*%
X146690000Y-61670000D03*
D10*
%TO.P,RV4,3*%
%TO.N,+12V*%
X151690000Y-61670000D03*
%TD*%
D12*
%TO.P,J6,T*%
%TO.N,Net-(C3-Pad2)*%
X149940000Y-131170000D03*
D13*
%TO.P,J6,S*%
%TO.N,GND*%
X149940000Y-119770000D03*
D12*
%TO.P,J6,TN*%
%TO.N,N/C*%
X149940000Y-122870000D03*
%TD*%
D14*
%TO.P,RV5,*%
%TO.N,*%
X144420000Y-43820000D03*
X144420000Y-53420000D03*
D15*
%TO.P,RV5,3*%
%TO.N,+12V*%
X136920000Y-51120000D03*
%TO.P,RV5,2*%
%TO.N,Net-(RV5-Pad2)*%
X136920000Y-48620000D03*
D16*
%TO.P,RV5,1*%
%TO.N,-12V*%
X136920000Y-46120000D03*
%TD*%
D17*
%TO.P,C1,2*%
%TO.N,Net-(C1-Pad2)*%
X125350000Y-46090000D03*
%TO.P,C1,1*%
%TO.N,GND*%
X120350000Y-46090000D03*
%TD*%
%TO.P,C2,2*%
%TO.N,Net-(C2-Pad2)*%
X125350000Y-53260000D03*
%TO.P,C2,1*%
%TO.N,Net-(C2-Pad1)*%
X120350000Y-53260000D03*
%TD*%
%TO.P,C3,2*%
%TO.N,Net-(C3-Pad2)*%
X125310000Y-60230000D03*
%TO.P,C3,1*%
%TO.N,Net-(C3-Pad1)*%
X120310000Y-60230000D03*
%TD*%
%TO.P,C4,2*%
%TO.N,Net-(C4-Pad2)*%
X125275000Y-67095000D03*
%TO.P,C4,1*%
%TO.N,Net-(C4-Pad1)*%
X120275000Y-67095000D03*
%TD*%
%TO.P,C5,2*%
%TO.N,Net-(C5-Pad2)*%
X125200000Y-73980000D03*
%TO.P,C5,1*%
%TO.N,GND*%
X120200000Y-73980000D03*
%TD*%
%TO.P,C6,2*%
%TO.N,Net-(C6-Pad2)*%
X125220000Y-80860000D03*
%TO.P,C6,1*%
%TO.N,GND*%
X120220000Y-80860000D03*
%TD*%
%TO.P,C7,2*%
%TO.N,Net-(C7-Pad2)*%
X124950000Y-87560000D03*
%TO.P,C7,1*%
%TO.N,/SOFT_SYNC*%
X119950000Y-87560000D03*
%TD*%
D18*
%TO.P,D1,2*%
%TO.N,Net-(C2-Pad1)*%
X126300000Y-94490000D03*
D19*
%TO.P,D1,1*%
%TO.N,/HARD_SYNC*%
X118680000Y-94490000D03*
%TD*%
D18*
%TO.P,D2,2*%
%TO.N,/HARD_SYNC*%
X126300000Y-100960000D03*
D19*
%TO.P,D2,1*%
%TO.N,Net-(C3-Pad1)*%
X118680000Y-100960000D03*
%TD*%
D18*
%TO.P,D3,2*%
%TO.N,GND*%
X126430000Y-107180000D03*
D19*
%TO.P,D3,1*%
%TO.N,Net-(D3-Pad1)*%
X118810000Y-107180000D03*
%TD*%
D12*
%TO.P,J1,T*%
%TO.N,Net-(J1-PadT)*%
X137760000Y-70720000D03*
D13*
%TO.P,J1,S*%
%TO.N,GND*%
X137760000Y-59320000D03*
D12*
%TO.P,J1,TN*%
%TO.N,N/C*%
X137760000Y-62420000D03*
%TD*%
%TO.P,J2,T*%
%TO.N,Net-(J1-PadT)*%
X183720000Y-70810000D03*
D13*
%TO.P,J2,S*%
%TO.N,GND*%
X183720000Y-59410000D03*
D12*
%TO.P,J2,TN*%
%TO.N,N/C*%
X183720000Y-62510000D03*
%TD*%
%TO.P,J3,T*%
%TO.N,Net-(J3-PadT)*%
X137760000Y-85830000D03*
D13*
%TO.P,J3,S*%
%TO.N,GND*%
X137760000Y-74430000D03*
D12*
%TO.P,J3,TN*%
%TO.N,N/C*%
X137760000Y-77530000D03*
%TD*%
%TO.P,J4,T*%
%TO.N,Net-(J4-PadT)*%
X137760000Y-100830000D03*
D13*
%TO.P,J4,S*%
%TO.N,GND*%
X137760000Y-89430000D03*
D12*
%TO.P,J4,TN*%
%TO.N,Net-(J4-PadTN)*%
X137760000Y-92530000D03*
%TD*%
%TO.P,J5,T*%
%TO.N,Net-(C2-Pad2)*%
X137740000Y-130940000D03*
D13*
%TO.P,J5,S*%
%TO.N,GND*%
X137740000Y-119540000D03*
D12*
%TO.P,J5,TN*%
%TO.N,N/C*%
X137740000Y-122640000D03*
%TD*%
%TO.P,J7,T*%
%TO.N,Net-(C7-Pad2)*%
X137760000Y-115940000D03*
D13*
%TO.P,J7,S*%
%TO.N,GND*%
X137760000Y-104540000D03*
D12*
%TO.P,J7,TN*%
%TO.N,N/C*%
X137760000Y-107640000D03*
%TD*%
%TO.P,J8,T*%
%TO.N,Net-(J8-PadT)*%
X183650000Y-85850000D03*
D13*
%TO.P,J8,S*%
%TO.N,GND*%
X183650000Y-74450000D03*
D12*
%TO.P,J8,TN*%
%TO.N,N/C*%
X183650000Y-77550000D03*
%TD*%
%TO.P,J9,T*%
%TO.N,/SQUARE_OUT*%
X183830000Y-130640000D03*
D13*
%TO.P,J9,S*%
%TO.N,GND*%
X183830000Y-119240000D03*
D12*
%TO.P,J9,TN*%
%TO.N,N/C*%
X183830000Y-122340000D03*
%TD*%
%TO.P,J10,T*%
%TO.N,/SAWTOOTH_OUT*%
X183710000Y-115660000D03*
D13*
%TO.P,J10,S*%
%TO.N,GND*%
X183710000Y-104260000D03*
D12*
%TO.P,J10,TN*%
%TO.N,N/C*%
X183710000Y-107360000D03*
%TD*%
%TO.P,J11,T*%
%TO.N,/TRIANGLE_OUT*%
X183730000Y-100780000D03*
D13*
%TO.P,J11,S*%
%TO.N,GND*%
X183730000Y-89380000D03*
D12*
%TO.P,J11,TN*%
%TO.N,N/C*%
X183730000Y-92480000D03*
%TD*%
D20*
%TO.P,R1,1*%
%TO.N,Net-(R1-Pad1)*%
X103650000Y-44720000D03*
D18*
%TO.P,R1,2*%
%TO.N,/FREQ_CTRL*%
X113810000Y-44720000D03*
%TD*%
D20*
%TO.P,R2,1*%
%TO.N,Net-(J1-PadT)*%
X103510000Y-49730000D03*
D18*
%TO.P,R2,2*%
%TO.N,/FREQ_CTRL*%
X113670000Y-49730000D03*
%TD*%
D20*
%TO.P,R3,1*%
%TO.N,Net-(R3-Pad1)*%
X103510000Y-54790000D03*
D18*
%TO.P,R3,2*%
%TO.N,/FREQ_CTRL*%
X113670000Y-54790000D03*
%TD*%
D20*
%TO.P,R4,1*%
%TO.N,Net-(R4-Pad1)*%
X103590000Y-59930000D03*
D18*
%TO.P,R4,2*%
%TO.N,/FREQ_CTRL*%
X113750000Y-59930000D03*
%TD*%
D20*
%TO.P,R5,1*%
%TO.N,Net-(R5-Pad1)*%
X103590000Y-65060000D03*
D18*
%TO.P,R5,2*%
%TO.N,/FREQ_CTRL*%
X113750000Y-65060000D03*
%TD*%
D20*
%TO.P,R6,1*%
%TO.N,Net-(C1-Pad2)*%
X103560000Y-70180000D03*
D18*
%TO.P,R6,2*%
%TO.N,/FREQ_CTRL*%
X113720000Y-70180000D03*
%TD*%
D20*
%TO.P,R7,1*%
%TO.N,+12V*%
X103560000Y-75310000D03*
D18*
%TO.P,R7,2*%
%TO.N,Net-(R7-Pad2)*%
X113720000Y-75310000D03*
%TD*%
D20*
%TO.P,R8,1*%
%TO.N,Net-(C2-Pad1)*%
X103560000Y-80370000D03*
D18*
%TO.P,R8,2*%
%TO.N,Net-(R13-Pad1)*%
X113720000Y-80370000D03*
%TD*%
D20*
%TO.P,R9,1*%
%TO.N,GND*%
X103560000Y-85500000D03*
D18*
%TO.P,R9,2*%
%TO.N,Net-(C3-Pad1)*%
X113720000Y-85500000D03*
%TD*%
D20*
%TO.P,R10,1*%
%TO.N,/PWM*%
X103560000Y-90610000D03*
D18*
%TO.P,R10,2*%
%TO.N,Net-(R10-Pad2)*%
X113720000Y-90610000D03*
%TD*%
D20*
%TO.P,R11,1*%
%TO.N,GND*%
X103630000Y-95740000D03*
D18*
%TO.P,R11,2*%
%TO.N,/PWM*%
X113790000Y-95740000D03*
%TD*%
D20*
%TO.P,R12,1*%
%TO.N,Net-(R12-Pad1)*%
X103560000Y-100880000D03*
D18*
%TO.P,R12,2*%
%TO.N,Net-(R12-Pad2)*%
X113720000Y-100880000D03*
%TD*%
D20*
%TO.P,R13,1*%
%TO.N,Net-(R13-Pad1)*%
X103560000Y-105940000D03*
D18*
%TO.P,R13,2*%
%TO.N,Net-(R13-Pad2)*%
X113720000Y-105940000D03*
%TD*%
D20*
%TO.P,R14,1*%
%TO.N,+12V*%
X103560000Y-110990000D03*
D18*
%TO.P,R14,2*%
%TO.N,/LINEAR_FM*%
X113720000Y-110990000D03*
%TD*%
D20*
%TO.P,R15,1*%
%TO.N,Net-(C4-Pad2)*%
X103560000Y-116130000D03*
D18*
%TO.P,R15,2*%
%TO.N,/LINEAR_FM*%
X113720000Y-116130000D03*
%TD*%
D20*
%TO.P,R16,1*%
%TO.N,Net-(C5-Pad2)*%
X103560000Y-121240000D03*
D18*
%TO.P,R16,2*%
%TO.N,/LINEAR_FM*%
X113720000Y-121240000D03*
%TD*%
D20*
%TO.P,R17,1*%
%TO.N,/FREQ_CTRL*%
X103480000Y-126370000D03*
D18*
%TO.P,R17,2*%
%TO.N,Net-(R17-Pad2)*%
X113640000Y-126370000D03*
%TD*%
D20*
%TO.P,R18,1*%
%TO.N,GND*%
X103410000Y-131500000D03*
D18*
%TO.P,R18,2*%
%TO.N,Net-(R18-Pad2)*%
X113570000Y-131500000D03*
%TD*%
D20*
%TO.P,R19,1*%
%TO.N,-12V*%
X103470000Y-136590000D03*
D18*
%TO.P,R19,2*%
%TO.N,Net-(R13-Pad1)*%
X113630000Y-136590000D03*
%TD*%
D20*
%TO.P,R20,1*%
%TO.N,Net-(D3-Pad1)*%
X117840000Y-116020000D03*
D18*
%TO.P,R20,2*%
%TO.N,/SQUARE*%
X128000000Y-116020000D03*
%TD*%
D20*
%TO.P,R21,1*%
%TO.N,GND*%
X117840000Y-121240000D03*
D18*
%TO.P,R21,2*%
%TO.N,Net-(D3-Pad1)*%
X128000000Y-121240000D03*
%TD*%
D20*
%TO.P,R22,1*%
%TO.N,GND*%
X117700000Y-126330000D03*
D18*
%TO.P,R22,2*%
%TO.N,Net-(R22-Pad2)*%
X127860000Y-126330000D03*
%TD*%
D20*
%TO.P,R23,1*%
%TO.N,Net-(R22-Pad2)*%
X117700000Y-131410000D03*
D18*
%TO.P,R23,2*%
%TO.N,Net-(R23-Pad2)*%
X127860000Y-131410000D03*
%TD*%
D20*
%TO.P,R24,1*%
%TO.N,/SAWTOOTH_OUT*%
X117850000Y-136600000D03*
D18*
%TO.P,R24,2*%
%TO.N,Net-(R24-Pad2)*%
X128010000Y-136600000D03*
%TD*%
D20*
%TO.P,R25,1*%
%TO.N,/TRIANGLE_OUT*%
X148640000Y-108690000D03*
D18*
%TO.P,R25,2*%
%TO.N,Net-(R23-Pad2)*%
X158800000Y-108690000D03*
%TD*%
D20*
%TO.P,R26,1*%
%TO.N,/SQUARE_OUT*%
X148640000Y-113860000D03*
D18*
%TO.P,R26,2*%
%TO.N,Net-(R26-Pad2)*%
X158800000Y-113860000D03*
%TD*%
D14*
%TO.P,RV1,*%
%TO.N,*%
X176850000Y-43720000D03*
X176850000Y-53320000D03*
D15*
%TO.P,RV1,3*%
%TO.N,+12V*%
X169350000Y-51020000D03*
%TO.P,RV1,2*%
%TO.N,Net-(R5-Pad1)*%
X169350000Y-48520000D03*
D16*
%TO.P,RV1,1*%
%TO.N,-12V*%
X169350000Y-46020000D03*
%TD*%
D14*
%TO.P,RV2,*%
%TO.N,*%
X154380000Y-75500000D03*
X154380000Y-85100000D03*
D15*
%TO.P,RV2,3*%
%TO.N,Net-(J3-PadT)*%
X146880000Y-82800000D03*
%TO.P,RV2,2*%
%TO.N,Net-(R3-Pad1)*%
X146880000Y-80300000D03*
D16*
%TO.P,RV2,1*%
%TO.N,GND*%
X146880000Y-77800000D03*
%TD*%
D14*
%TO.P,RV3,*%
%TO.N,*%
X154040000Y-91420000D03*
X154040000Y-101020000D03*
D15*
%TO.P,RV3,3*%
%TO.N,GND*%
X146540000Y-98720000D03*
%TO.P,RV3,2*%
%TO.N,Net-(J4-PadTN)*%
X146540000Y-96220000D03*
D16*
%TO.P,RV3,1*%
%TO.N,Net-(R7-Pad2)*%
X146540000Y-93720000D03*
%TD*%
D10*
%TO.P,RV6,2*%
%TO.N,Net-(R13-Pad1)*%
X158980000Y-66470000D03*
D11*
%TO.P,RV6,1*%
%TO.N,Net-(R12-Pad2)*%
X156480000Y-61470000D03*
D10*
%TO.P,RV6,3*%
%TO.N,Net-(R13-Pad1)*%
X161480000Y-61470000D03*
%TD*%
%TO.P,RV7,2*%
%TO.N,Net-(R17-Pad2)*%
X168670000Y-66670000D03*
D11*
%TO.P,RV7,1*%
%TO.N,Net-(RV7-Pad1)*%
X166170000Y-61670000D03*
D10*
%TO.P,RV7,3*%
%TO.N,GND*%
X171170000Y-61670000D03*
%TD*%
D14*
%TO.P,RV8,*%
%TO.N,*%
X170680000Y-75270000D03*
X170680000Y-84870000D03*
D15*
%TO.P,RV8,3*%
%TO.N,Net-(J8-PadT)*%
X163180000Y-82570000D03*
%TO.P,RV8,2*%
%TO.N,Net-(C4-Pad1)*%
X163180000Y-80070000D03*
D16*
%TO.P,RV8,1*%
%TO.N,GND*%
X163180000Y-77570000D03*
%TD*%
D21*
%TO.P,SW1,*%
%TO.N,*%
X158510000Y-44450000D03*
X158510000Y-52650000D03*
D22*
%TO.P,SW1,3*%
%TO.N,Net-(RV5-Pad2)*%
X158510000Y-46550000D03*
%TO.P,SW1,2*%
%TO.N,Net-(R4-Pad1)*%
X158510000Y-48550000D03*
D23*
%TO.P,SW1,1*%
%TO.N,GND*%
X158510000Y-50550000D03*
%TD*%
D18*
%TO.P,U1,14*%
%TO.N,Net-(R10-Pad2)*%
X171420000Y-116450000D03*
%TO.P,U1,7*%
%TO.N,Net-(R26-Pad2)*%
X163800000Y-131690000D03*
%TO.P,U1,13*%
%TO.N,Net-(R10-Pad2)*%
X171420000Y-118990000D03*
%TO.P,U1,6*%
%TO.N,Net-(R26-Pad2)*%
X163800000Y-129150000D03*
%TO.P,U1,12*%
%TO.N,Net-(J4-PadT)*%
X171420000Y-121530000D03*
%TO.P,U1,5*%
%TO.N,Net-(D3-Pad1)*%
X163800000Y-126610000D03*
%TO.P,U1,11*%
%TO.N,-12V*%
X171420000Y-124070000D03*
%TO.P,U1,4*%
%TO.N,+12V*%
X163800000Y-124070000D03*
%TO.P,U1,10*%
%TO.N,/TRIANGLE*%
X171420000Y-126610000D03*
%TO.P,U1,3*%
%TO.N,/SAWTOOTH*%
X163800000Y-121530000D03*
%TO.P,U1,9*%
%TO.N,Net-(R22-Pad2)*%
X171420000Y-129150000D03*
%TO.P,U1,2*%
%TO.N,Net-(R24-Pad2)*%
X163800000Y-118990000D03*
%TO.P,U1,8*%
%TO.N,Net-(R23-Pad2)*%
X171420000Y-131690000D03*
D19*
%TO.P,U1,1*%
%TO.N,Net-(R24-Pad2)*%
X163800000Y-116450000D03*
%TD*%
D18*
%TO.P,U2,16*%
%TO.N,+12V*%
X172590000Y-91800000D03*
%TO.P,U2,8*%
%TO.N,/SAWTOOTH*%
X164970000Y-109580000D03*
%TO.P,U2,15*%
%TO.N,/FREQ_CTRL*%
X172590000Y-94340000D03*
%TO.P,U2,7*%
%TO.N,Net-(RV7-Pad1)*%
X164970000Y-107040000D03*
%TO.P,U2,14*%
%TO.N,Net-(R18-Pad2)*%
X172590000Y-96880000D03*
%TO.P,U2,6*%
%TO.N,/HARD_SYNC*%
X164970000Y-104500000D03*
%TO.P,U2,13*%
%TO.N,/LINEAR_FM*%
X172590000Y-99420000D03*
%TO.P,U2,5*%
%TO.N,/PWM*%
X164970000Y-101960000D03*
%TO.P,U2,12*%
%TO.N,GND*%
X172590000Y-101960000D03*
%TO.P,U2,4*%
%TO.N,/SQUARE*%
X164970000Y-99420000D03*
%TO.P,U2,11*%
%TO.N,Net-(C6-Pad2)*%
X172590000Y-104500000D03*
%TO.P,U2,3*%
%TO.N,Net-(R13-Pad1)*%
X164970000Y-96880000D03*
%TO.P,U2,10*%
%TO.N,/TRIANGLE*%
X172590000Y-107040000D03*
%TO.P,U2,2*%
%TO.N,Net-(R13-Pad2)*%
X164970000Y-94340000D03*
%TO.P,U2,9*%
%TO.N,/SOFT_SYNC*%
X172590000Y-109580000D03*
D19*
%TO.P,U2,1*%
%TO.N,Net-(R12-Pad1)*%
X164970000Y-91800000D03*
%TD*%
D24*
%TO.N,Net-(C6-Pad2)*%
X168993000Y-93749400D03*
%TO.N,Net-(C7-Pad2)*%
X129969000Y-92579000D03*
%TO.N,/SOFT_SYNC*%
X132997600Y-114277200D03*
%TO.N,/HARD_SYNC*%
X146439100Y-100623900D03*
%TO.N,Net-(R10-Pad2)*%
X138263100Y-96667600D03*
%TO.N,/PWM*%
X150295700Y-101390200D03*
%TO.N,Net-(R12-Pad2)*%
X130727000Y-100999600D03*
%TO.N,Net-(R17-Pad2)*%
X166901000Y-100545500D03*
%TD*%
D25*
%TO.N,GND*%
X120220000Y-80860000D02*
X118145000Y-82935000D01*
X118145000Y-82935000D02*
X106125000Y-82935000D01*
X106125000Y-82935000D02*
X103560000Y-85500000D01*
X183720000Y-59410000D02*
X173430000Y-59410000D01*
X173430000Y-59410000D02*
X171170000Y-61670000D01*
X163180000Y-77570000D02*
X161954700Y-77570000D01*
X161954700Y-77570000D02*
X161724700Y-77800000D01*
X161724700Y-77800000D02*
X146880000Y-77800000D01*
X137760000Y-74430000D02*
X136469700Y-74430000D01*
X136469700Y-74430000D02*
X135549800Y-75349900D01*
X135549800Y-75349900D02*
X121569900Y-75349900D01*
X121569900Y-75349900D02*
X120200000Y-73980000D01*
X145654700Y-77800000D02*
X142284700Y-74430000D01*
X142284700Y-74430000D02*
X137760000Y-74430000D01*
X146880000Y-77800000D02*
X145654700Y-77800000D01*
X183730000Y-89380000D02*
X183730000Y-90620300D01*
X183730000Y-90620300D02*
X183885000Y-90620300D01*
X183885000Y-90620300D02*
X185134600Y-91869900D01*
X185134600Y-91869900D02*
X185134600Y-101595100D01*
X185134600Y-101595100D02*
X183710000Y-103019700D01*
X183710000Y-104260000D02*
X183710000Y-103019700D01*
X172590000Y-101960000D02*
X182650300Y-101960000D01*
X182650300Y-101960000D02*
X183710000Y-103019700D01*
X126430000Y-107180000D02*
X127555300Y-107180000D01*
X137760000Y-104540000D02*
X130195300Y-104540000D01*
X130195300Y-104540000D02*
X127555300Y-107180000D01*
X149940000Y-119770000D02*
X148649700Y-119770000D01*
X137740000Y-119540000D02*
X148419700Y-119540000D01*
X148419700Y-119540000D02*
X148649700Y-119770000D01*
X117840000Y-121240000D02*
X119540000Y-119540000D01*
X119540000Y-119540000D02*
X137740000Y-119540000D01*
%TO.N,Net-(C2-Pad1)*%
X103560000Y-80370000D02*
X104687400Y-79242600D01*
X104687400Y-79242600D02*
X120485000Y-79242600D01*
X120485000Y-79242600D02*
X122450100Y-81207700D01*
X122450100Y-81207700D02*
X122450100Y-89514800D01*
X122450100Y-89514800D02*
X126300000Y-93364700D01*
X126300000Y-94490000D02*
X126300000Y-93364700D01*
%TO.N,Net-(C3-Pad1)*%
X113720000Y-85500000D02*
X113720000Y-86625300D01*
X113720000Y-86625300D02*
X112568000Y-87777300D01*
X112568000Y-87777300D02*
X112568000Y-92677200D01*
X112568000Y-92677200D02*
X118680000Y-98789200D01*
X118680000Y-98789200D02*
X118680000Y-100960000D01*
%TO.N,Net-(C4-Pad1)*%
X120275000Y-67095000D02*
X126145100Y-72965100D01*
X126145100Y-72965100D02*
X160875800Y-72965100D01*
X160875800Y-72965100D02*
X164405400Y-76494700D01*
X164405400Y-76494700D02*
X164405400Y-78844600D01*
X164405400Y-78844600D02*
X163180000Y-80070000D01*
%TO.N,Net-(C6-Pad2)*%
X168993000Y-93749400D02*
X162657200Y-87413600D01*
X162657200Y-87413600D02*
X131773600Y-87413600D01*
X131773600Y-87413600D02*
X125220000Y-80860000D01*
%TO.N,Net-(C7-Pad2)*%
X124950000Y-87560000D02*
X129969000Y-92579000D01*
%TO.N,/SOFT_SYNC*%
X172590000Y-109580000D02*
X171464700Y-109580000D01*
X171464700Y-109580000D02*
X168310100Y-112734600D01*
X168310100Y-112734600D02*
X134540200Y-112734600D01*
X134540200Y-112734600D02*
X132997600Y-114277200D01*
%TO.N,/HARD_SYNC*%
X127425300Y-100960000D02*
X129402800Y-98982500D01*
X129402800Y-98982500D02*
X144797700Y-98982500D01*
X144797700Y-98982500D02*
X146439100Y-100623900D01*
X126300000Y-100960000D02*
X127425300Y-100960000D01*
X126300000Y-100960000D02*
X125174700Y-100960000D01*
X118680000Y-94490000D02*
X119805300Y-94490000D01*
X125174700Y-100960000D02*
X125174700Y-99859400D01*
X125174700Y-99859400D02*
X119805300Y-94490000D01*
%TO.N,Net-(D3-Pad1)*%
X162674700Y-126610000D02*
X134495300Y-126610000D01*
X134495300Y-126610000D02*
X129125300Y-121240000D01*
X163800000Y-126610000D02*
X162674700Y-126610000D01*
X128000000Y-121240000D02*
X129125300Y-121240000D01*
%TO.N,Net-(J1-PadT)*%
X137760000Y-70720000D02*
X130850400Y-63810400D01*
X130850400Y-63810400D02*
X105828100Y-63810400D01*
X105828100Y-63810400D02*
X102450600Y-60432900D01*
X102450600Y-60432900D02*
X102450600Y-58020300D01*
X102450600Y-58020300D02*
X104659100Y-55811800D01*
X104659100Y-55811800D02*
X104659100Y-50879100D01*
X104659100Y-50879100D02*
X103510000Y-49730000D01*
X183720000Y-70810000D02*
X137850000Y-70810000D01*
X137850000Y-70810000D02*
X137760000Y-70720000D01*
%TO.N,Net-(J3-PadT)*%
X146880000Y-82800000D02*
X143850000Y-85830000D01*
X143850000Y-85830000D02*
X137760000Y-85830000D01*
%TO.N,Net-(J4-PadTN)*%
X146540000Y-96220000D02*
X141450000Y-96220000D01*
X141450000Y-96220000D02*
X137760000Y-92530000D01*
%TO.N,Net-(J8-PadT)*%
X163180000Y-82570000D02*
X180370000Y-82570000D01*
X180370000Y-82570000D02*
X183650000Y-85850000D01*
%TO.N,/SQUARE_OUT*%
X148640000Y-113860000D02*
X152355400Y-117575400D01*
X152355400Y-117575400D02*
X165822500Y-117575400D01*
X165822500Y-117575400D02*
X171047100Y-122800000D01*
X171047100Y-122800000D02*
X175990000Y-122800000D01*
X175990000Y-122800000D02*
X183830000Y-130640000D01*
%TO.N,/SAWTOOTH_OUT*%
X117850000Y-136600000D02*
X118983900Y-137733900D01*
X118983900Y-137733900D02*
X178718800Y-137733900D01*
X178718800Y-137733900D02*
X185245400Y-131207300D01*
X185245400Y-131207300D02*
X185245400Y-117195400D01*
X185245400Y-117195400D02*
X183710000Y-115660000D01*
%TO.N,/TRIANGLE_OUT*%
X183730000Y-100780000D02*
X178684300Y-95734300D01*
X178684300Y-95734300D02*
X163716600Y-95734300D01*
X163716600Y-95734300D02*
X150760900Y-108690000D01*
X150760900Y-108690000D02*
X148640000Y-108690000D01*
%TO.N,/FREQ_CTRL*%
X171464700Y-94340000D02*
X156150100Y-79025400D01*
X156150100Y-79025400D02*
X123292600Y-79025400D01*
X123292600Y-79025400D02*
X114845300Y-70578100D01*
X114845300Y-70578100D02*
X114845300Y-70180000D01*
X114282700Y-70180000D02*
X113750000Y-69647300D01*
X113750000Y-69647300D02*
X113750000Y-65060000D01*
X114282700Y-70180000D02*
X114845300Y-70180000D01*
X113720000Y-70180000D02*
X114282700Y-70180000D01*
X172590000Y-94340000D02*
X171464700Y-94340000D01*
%TO.N,Net-(R3-Pad1)*%
X103510000Y-54790000D02*
X102000200Y-56299800D01*
X102000200Y-56299800D02*
X102000200Y-60619400D01*
X102000200Y-60619400D02*
X114544700Y-73163900D01*
X114544700Y-73163900D02*
X115680100Y-73163900D01*
X115680100Y-73163900D02*
X121992000Y-79475800D01*
X121992000Y-79475800D02*
X146055800Y-79475800D01*
X146055800Y-79475800D02*
X146880000Y-80300000D01*
%TO.N,Net-(R4-Pad1)*%
X158510000Y-48550000D02*
X148552500Y-48550000D01*
X148552500Y-48550000D02*
X147232500Y-49870000D01*
X147232500Y-49870000D02*
X121040500Y-49870000D01*
X121040500Y-49870000D02*
X110980500Y-59930000D01*
X110980500Y-59930000D02*
X103590000Y-59930000D01*
%TO.N,Net-(R5-Pad1)*%
X103590000Y-65060000D02*
X101549800Y-63019800D01*
X101549800Y-63019800D02*
X101549800Y-50070900D01*
X101549800Y-50070900D02*
X104108300Y-47512400D01*
X104108300Y-47512400D02*
X130823100Y-47512400D01*
X130823100Y-47512400D02*
X130990100Y-47345400D01*
X130990100Y-47345400D02*
X146039800Y-47345400D01*
X146039800Y-47345400D02*
X150361500Y-43023700D01*
X150361500Y-43023700D02*
X163853700Y-43023700D01*
X163853700Y-43023700D02*
X169350000Y-48520000D01*
%TO.N,+12V*%
X103560000Y-75310000D02*
X102423000Y-76447000D01*
X102423000Y-76447000D02*
X102423000Y-109853000D01*
X102423000Y-109853000D02*
X103560000Y-110990000D01*
X136920000Y-51120000D02*
X144789700Y-58989700D01*
X144789700Y-58989700D02*
X149009700Y-58989700D01*
X149009700Y-58989700D02*
X151690000Y-61670000D01*
X169350000Y-51020000D02*
X161749700Y-58620300D01*
X161749700Y-58620300D02*
X154739700Y-58620300D01*
X154739700Y-58620300D02*
X151690000Y-61670000D01*
%TO.N,Net-(R7-Pad2)*%
X113720000Y-75310000D02*
X117189300Y-75310000D01*
X117189300Y-75310000D02*
X129906100Y-88026800D01*
X129906100Y-88026800D02*
X139621500Y-88026800D01*
X139621500Y-88026800D02*
X145314700Y-93720000D01*
X146540000Y-93720000D02*
X145314700Y-93720000D01*
%TO.N,Net-(R13-Pad1)*%
X163844700Y-96880000D02*
X163451000Y-96880000D01*
X163451000Y-96880000D02*
X150466400Y-109864600D01*
X150466400Y-109864600D02*
X112434500Y-109864600D01*
X112434500Y-109864600D02*
X107484600Y-109864600D01*
X107484600Y-109864600D02*
X103560000Y-105940000D01*
X112434500Y-109864600D02*
X112434500Y-134269200D01*
X112434500Y-134269200D02*
X113630000Y-135464700D01*
X113630000Y-136590000D02*
X113630000Y-135464700D01*
X164970000Y-96880000D02*
X163844700Y-96880000D01*
%TO.N,Net-(R10-Pad2)*%
X138263100Y-96667600D02*
X126795500Y-96667600D01*
X126795500Y-96667600D02*
X120737900Y-90610000D01*
X120737900Y-90610000D02*
X113720000Y-90610000D01*
%TO.N,/PWM*%
X113790000Y-95740000D02*
X108690000Y-95740000D01*
X108690000Y-95740000D02*
X103560000Y-90610000D01*
X113790000Y-95740000D02*
X113790000Y-98130100D01*
X113790000Y-98130100D02*
X117745200Y-102085300D01*
X117745200Y-102085300D02*
X127258800Y-102085300D01*
X127258800Y-102085300D02*
X129911200Y-99432900D01*
X129911200Y-99432900D02*
X138965600Y-99432900D01*
X138965600Y-99432900D02*
X140922900Y-101390200D01*
X140922900Y-101390200D02*
X150295700Y-101390200D01*
%TO.N,Net-(R12-Pad1)*%
X103560000Y-100880000D02*
X105668300Y-102988300D01*
X105668300Y-102988300D02*
X127854600Y-102988300D01*
X127854600Y-102988300D02*
X128276500Y-102566400D01*
X128276500Y-102566400D02*
X150145300Y-102566400D01*
X150145300Y-102566400D02*
X151021000Y-101690700D01*
X151021000Y-101690700D02*
X151021000Y-101395600D01*
X151021000Y-101395600D02*
X160616600Y-91800000D01*
X160616600Y-91800000D02*
X163844700Y-91800000D01*
X164970000Y-91800000D02*
X163844700Y-91800000D01*
%TO.N,Net-(R12-Pad2)*%
X113720000Y-100880000D02*
X114845300Y-100880000D01*
X114845300Y-100880000D02*
X116503200Y-102537900D01*
X116503200Y-102537900D02*
X127443100Y-102537900D01*
X127443100Y-102537900D02*
X128981400Y-100999600D01*
X128981400Y-100999600D02*
X130727000Y-100999600D01*
%TO.N,Net-(R13-Pad2)*%
X114845300Y-105940000D02*
X125539800Y-105940000D01*
X125539800Y-105940000D02*
X128180200Y-103299600D01*
X128180200Y-103299600D02*
X154885100Y-103299600D01*
X154885100Y-103299600D02*
X163844700Y-94340000D01*
X113720000Y-105940000D02*
X114845300Y-105940000D01*
X164970000Y-94340000D02*
X163844700Y-94340000D01*
%TO.N,/LINEAR_FM*%
X171464700Y-99420000D02*
X170330100Y-98285400D01*
X170330100Y-98285400D02*
X162682500Y-98285400D01*
X162682500Y-98285400D02*
X150601300Y-110366600D01*
X150601300Y-110366600D02*
X115468700Y-110366600D01*
X115468700Y-110366600D02*
X114845300Y-110990000D01*
X113720000Y-110990000D02*
X114845300Y-110990000D01*
X172590000Y-99420000D02*
X171464700Y-99420000D01*
%TO.N,Net-(R17-Pad2)*%
X166901000Y-100545500D02*
X162333100Y-100545500D01*
X162333100Y-100545500D02*
X151609200Y-111269400D01*
X151609200Y-111269400D02*
X134342800Y-111269400D01*
X134342800Y-111269400D02*
X131822000Y-113790200D01*
X131822000Y-113790200D02*
X131822000Y-114057000D01*
X131822000Y-114057000D02*
X128545300Y-117333700D01*
X128545300Y-117333700D02*
X119419600Y-117333700D01*
X119419600Y-117333700D02*
X113640000Y-123113300D01*
X113640000Y-123113300D02*
X113640000Y-126370000D01*
%TO.N,Net-(R18-Pad2)*%
X172590000Y-98005300D02*
X172871300Y-98005300D01*
X172871300Y-98005300D02*
X173738800Y-98872800D01*
X173738800Y-98872800D02*
X173738800Y-99872100D01*
X173738800Y-99872100D02*
X172994800Y-100616100D01*
X172994800Y-100616100D02*
X169643400Y-100616100D01*
X169643400Y-100616100D02*
X167029500Y-103230000D01*
X167029500Y-103230000D02*
X162668400Y-103230000D01*
X162668400Y-103230000D02*
X153899100Y-111999300D01*
X153899100Y-111999300D02*
X134249800Y-111999300D01*
X134249800Y-111999300D02*
X132272300Y-113976800D01*
X132272300Y-113976800D02*
X132272300Y-114269500D01*
X132272300Y-114269500D02*
X128757700Y-117784100D01*
X128757700Y-117784100D02*
X119655200Y-117784100D01*
X119655200Y-117784100D02*
X115690100Y-121749200D01*
X115690100Y-121749200D02*
X115690100Y-128254600D01*
X115690100Y-128254600D02*
X113570000Y-130374700D01*
X113570000Y-131500000D02*
X113570000Y-130374700D01*
X172590000Y-96880000D02*
X172590000Y-98005300D01*
%TO.N,-12V*%
X136920000Y-46120000D02*
X138145300Y-46120000D01*
X169350000Y-46020000D02*
X168124700Y-46020000D01*
X168124700Y-46020000D02*
X164678000Y-42573300D01*
X164678000Y-42573300D02*
X150175000Y-42573300D01*
X150175000Y-42573300D02*
X146628300Y-46120000D01*
X146628300Y-46120000D02*
X138145300Y-46120000D01*
%TO.N,/SQUARE*%
X164970000Y-99420000D02*
X162184800Y-99420000D01*
X162184800Y-99420000D02*
X150787800Y-110817000D01*
X150787800Y-110817000D02*
X134158300Y-110817000D01*
X134158300Y-110817000D02*
X129125300Y-115850000D01*
X129125300Y-115850000D02*
X129125300Y-116020000D01*
X128000000Y-116020000D02*
X129125300Y-116020000D01*
%TO.N,Net-(R22-Pad2)*%
X127860000Y-126330000D02*
X128985300Y-126330000D01*
X171420000Y-129150000D02*
X170294700Y-129150000D01*
X170294700Y-129150000D02*
X169169400Y-128024700D01*
X169169400Y-128024700D02*
X130680000Y-128024700D01*
X130680000Y-128024700D02*
X128985300Y-126330000D01*
%TO.N,Net-(R23-Pad2)*%
X127860000Y-131410000D02*
X128985300Y-131410000D01*
X171420000Y-131690000D02*
X170294700Y-131690000D01*
X170294700Y-131690000D02*
X169147000Y-132837700D01*
X169147000Y-132837700D02*
X130413000Y-132837700D01*
X130413000Y-132837700D02*
X128985300Y-131410000D01*
%TO.N,Net-(R24-Pad2)*%
X128010000Y-136600000D02*
X128010000Y-135474700D01*
X163800000Y-118990000D02*
X162674700Y-118990000D01*
X162674700Y-118990000D02*
X160649800Y-121014900D01*
X160649800Y-121014900D02*
X134148600Y-121014900D01*
X134148600Y-121014900D02*
X133205500Y-120071800D01*
X133205500Y-120071800D02*
X127548600Y-120071800D01*
X127548600Y-120071800D02*
X126703800Y-120916600D01*
X126703800Y-120916600D02*
X126703800Y-134168500D01*
X126703800Y-134168500D02*
X128010000Y-135474700D01*
%TO.N,Net-(RV5-Pad2)*%
X158510000Y-46550000D02*
X149915600Y-46550000D01*
X149915600Y-46550000D02*
X147845600Y-48620000D01*
X147845600Y-48620000D02*
X136920000Y-48620000D01*
%TD*%
M02*
