M48
; DRILL file {KiCad 5.1.7} date Sun Nov  8 18:51:06 2020
; FORMAT={-:-/ absolute / inch / decimal}
; #@! TF.CreationDate,2020-11-08T18:51:06+01:00
; #@! TF.GenerationSoftware,Kicad,Pcbnew,5.1.7
; #@! TF.FileFunction,Plated,1,2,PTH
FMAT,2
INCH
T1C0.0157
T2C0.0315
T3C0.0354
T4C0.0394
T5C0.0433
T6C0.0480
T7C0.0559
T8C0.0563
%
G90
G05
T1
X4.6508Y-1.7937
X5.57Y-2.2979
X5.648Y-1.9087
X6.0315Y-4.0639
X6.1218Y-3.0355
X6.2143Y-2.4908
T2
X6.5701Y-4.8559
X6.9701Y-4.8559
X6.5665Y-5.8602
X6.9665Y-5.8602
X4.4035Y-2.8433
X4.8035Y-2.8433
X4.3984Y-5.2591
X4.7984Y-5.2591
X6.5646Y-5.0563
X6.9646Y-5.0563
X5.7079Y-1.435
X5.7079Y-1.835
X4.8913Y-2.076
X4.8913Y-2.376
X4.9913Y-2.076
X4.9913Y-2.376
X5.0913Y-2.076
X5.0913Y-2.376
X5.1913Y-2.076
X5.1913Y-2.376
X5.2913Y-2.076
X5.2913Y-2.376
X5.3913Y-2.076
X5.3913Y-2.376
X5.4913Y-2.076
X5.4913Y-2.376
X5.5913Y-2.076
X5.5913Y-2.376
X4.3984Y-4.0531
X4.7984Y-4.0531
X4.3984Y-4.6567
X4.7984Y-4.6567
X6.5996Y-4.4571
X6.8996Y-4.4571
X4.3925Y-5.663
X4.7925Y-5.663
X6.5646Y-5.2563
X6.9646Y-5.2563
X4.3917Y-1.6524
X4.7917Y-1.6524
X4.3949Y-5.8634
X4.7949Y-5.8634
X4.3984Y-3.2488
X4.7984Y-3.2488
X5.8909Y-2.0685
X5.8909Y-2.3685
X5.9909Y-2.0685
X5.9909Y-2.3685
X6.0909Y-2.0685
X6.0909Y-2.3685
X6.1909Y-2.0685
X6.1909Y-2.3685
X6.2909Y-2.0685
X6.2909Y-2.3685
X6.3909Y-2.0685
X6.3909Y-2.3685
X6.4909Y-2.0685
X6.4909Y-2.3685
X4.3984Y-3.65
X4.7984Y-3.65
X4.4012Y-4.2551
X4.8012Y-4.2551
X5.4862Y-4.0169
X5.5846Y-4.0169
X4.3862Y-1.8496
X4.7862Y-1.8496
X5.4862Y-5.0311
X5.5846Y-5.0311
X4.3984Y-3.852
X4.7984Y-3.852
X6.5705Y-5.4606
X6.9705Y-5.4606
X4.3984Y-4.4575
X4.7984Y-4.4575
X6.5665Y-5.6567
X6.9665Y-5.6567
X4.3984Y-4.8555
X4.7984Y-4.8555
X4.4004Y-2.6409
X4.8004Y-2.6409
X4.3953Y-5.461
X4.7953Y-5.461
X4.4035Y-3.0453
X4.8035Y-3.0453
X6.5701Y-4.6504
X6.9701Y-4.6504
X6.5917Y-4.2165
X6.8917Y-4.2165
X4.3984Y-5.0579
X4.7984Y-5.0579
X4.3984Y-3.4508
X4.7984Y-3.4508
X6.5972Y-3.9866
X6.8972Y-3.9866
T3
X4.5382Y-1.385
X4.6382Y-1.385
T4
X5.1177Y-2.9866
X5.2161Y-2.9866
X5.3146Y-2.9866
X5.6055Y-2.6402
X5.7039Y-2.837
X5.8024Y-2.6402
X6.6358Y-3.4701
X6.8327Y-3.4701
X5.1177Y-1.8661
X5.2161Y-1.8661
X5.3146Y-1.8661
X6.089Y-1.8705
X6.1874Y-1.8705
X6.2858Y-1.8705
X6.7709Y-2.272
X6.7709Y-2.372
X6.7709Y-2.472
X6.7709Y-2.572
X6.7709Y-2.672
X6.8709Y-2.272
X6.8709Y-2.372
X6.8709Y-2.472
X6.8709Y-2.572
X6.8709Y-2.672
X6.6902Y-3.0059
X6.7886Y-3.2028
X6.887Y-3.0059
X5.5906Y-1.1669
X5.7874Y-1.1669
X5.7358Y-4.0063
X5.9327Y-4.0063
X5.7445Y-5.0201
X5.9413Y-5.0201
X4.3878Y-2.1402
X4.4862Y-2.337
X4.5846Y-2.1402
X5.963Y-1.1669
X6.1598Y-1.1669
X5.2181Y-1.1669
X5.415Y-1.1669
X6.328Y-1.1669
X6.5248Y-1.1669
X6.085Y-2.985
X6.1835Y-2.985
X6.2819Y-2.985
X6.6417Y-3.7382
X6.8386Y-3.7382
X4.8457Y-1.1669
X5.0425Y-1.1669
X5.6146Y-3.7232
X5.713Y-3.7232
X5.8114Y-3.7232
T6
X5.1524Y-4.9161
X6.2657Y-5.5102
X5.1524Y-3.1358
X6.261Y-4.9205
X5.1524Y-4.3213
X5.1524Y-3.7307
X5.1516Y-5.5067
X6.2614Y-3.1547
X5.7067Y-5.2909
X6.2587Y-3.7469
X6.2618Y-4.3346
T7
X5.1524Y-3.2579
X6.261Y-5.0425
X5.1524Y-4.4433
X5.1524Y-3.8528
X5.1516Y-5.6287
X6.2614Y-3.2768
X5.7067Y-5.413
X6.2587Y-3.8689
X6.2618Y-4.4567
X5.1524Y-5.0382
X6.2657Y-5.6323
T8
X6.2657Y-5.9591
X5.1524Y-3.5846
X6.261Y-5.3693
X5.1516Y-5.9555
X6.2614Y-3.6035
X5.7067Y-5.7398
X6.2587Y-4.1957
X6.2618Y-4.7835
X5.1524Y-5.365
X5.1524Y-4.7701
X5.1524Y-4.1795
T4
G00X5.7409Y-4.3524
M15
G01X5.6898Y-4.3524
M16
G05
G00X5.7409Y-4.5276
M15
G01X5.6898Y-4.5276
M16
G05
G00X5.7409Y-4.7028
M15
G01X5.6898Y-4.7028
M16
G05
T5
G00X5.524Y-3.4142
M15
G01X5.524Y-3.4417
M16
G05
G00X5.902Y-3.4142
M15
G01X5.902Y-3.4417
M16
G05
G00X5.0272Y-2.6776
M15
G01X5.0272Y-2.7051
M16
G05
G00X5.4051Y-2.6776
M15
G01X5.4051Y-2.7051
M16
G05
G00X5.0272Y-1.5571
M15
G01X5.0272Y-1.5846
M16
G05
G00X5.4051Y-1.5571
M15
G01X5.4051Y-1.5846
M16
G05
G00X5.9984Y-1.5614
M15
G01X5.9984Y-1.589
M16
G05
G00X6.3764Y-1.5614
M15
G01X6.3764Y-1.589
M16
G05
G00X5.9945Y-2.676
M15
G01X5.9945Y-2.7035
M16
G05
G00X6.3724Y-2.676
M15
G01X6.3724Y-2.7035
M16
G05
T0
M30
