%TF.GenerationSoftware,KiCad,Pcbnew,5.1.7*%
%TF.CreationDate,2020-11-10T17:58:31+01:00*%
%TF.ProjectId,AS3340-VCO,41533333-3430-42d5-9643-4f2e6b696361,1*%
%TF.SameCoordinates,Original*%
%TF.FileFunction,Copper,L1,Top*%
%TF.FilePolarity,Positive*%
%FSLAX46Y46*%
G04 Gerber Fmt 4.6, Leading zero omitted, Abs format (unit mm)*
G04 Created by KiCad (PCBNEW 5.1.7) date 2020-11-10 17:58:31*
%MOMM*%
%LPD*%
G01*
G04 APERTURE LIST*
%TA.AperFunction,ComponentPad*%
%ADD10C,1.168000*%
%TD*%
%TA.AperFunction,ComponentPad*%
%ADD11R,1.168000X1.168000*%
%TD*%
%TA.AperFunction,ComponentPad*%
%ADD12C,1.600000*%
%TD*%
%TA.AperFunction,ComponentPad*%
%ADD13R,1.600000X1.600000*%
%TD*%
%TA.AperFunction,ComponentPad*%
%ADD14O,1.600000X1.600000*%
%TD*%
%TA.AperFunction,ComponentPad*%
%ADD15O,5.000000X3.200000*%
%TD*%
%TA.AperFunction,ComponentPad*%
%ADD16C,2.000000*%
%TD*%
%TA.AperFunction,ComponentPad*%
%ADD17O,2.720000X3.240000*%
%TD*%
%TA.AperFunction,ComponentPad*%
%ADD18C,1.800000*%
%TD*%
%TA.AperFunction,ComponentPad*%
%ADD19R,1.800000X1.800000*%
%TD*%
%TA.AperFunction,ComponentPad*%
%ADD20O,1.700000X1.700000*%
%TD*%
%TA.AperFunction,ComponentPad*%
%ADD21R,1.700000X1.700000*%
%TD*%
%TA.AperFunction,ComponentPad*%
%ADD22C,2.130000*%
%TD*%
%TA.AperFunction,ComponentPad*%
%ADD23R,1.930000X1.830000*%
%TD*%
%TA.AperFunction,SMDPad,CuDef*%
%ADD24R,4.000000X4.000000*%
%TD*%
%TA.AperFunction,ViaPad*%
%ADD25C,0.800000*%
%TD*%
%TA.AperFunction,Conductor*%
%ADD26C,0.250000*%
%TD*%
G04 APERTURE END LIST*
D10*
%TO.P,RV7,2*%
%TO.N,Net-(R17-Pad2)*%
X146520000Y-64980000D03*
%TO.P,RV7,3*%
%TO.N,GND*%
X149060000Y-67520000D03*
D11*
%TO.P,RV7,1*%
%TO.N,Net-(RV7-Pad1)*%
X143980000Y-67520000D03*
%TD*%
D10*
%TO.P,RV6,2*%
%TO.N,Net-(R13-Pad1)*%
X117650000Y-50600000D03*
%TO.P,RV6,3*%
X120190000Y-53140000D03*
D11*
%TO.P,RV6,1*%
%TO.N,Net-(R12-Pad2)*%
X115110000Y-53140000D03*
%TD*%
D10*
%TO.P,RV4,2*%
%TO.N,Net-(R1-Pad1)*%
X173860000Y-71690000D03*
%TO.P,RV4,3*%
%TO.N,+12V*%
X176400000Y-74230000D03*
D11*
%TO.P,RV4,1*%
%TO.N,Net-(R1-Pad1)*%
X171320000Y-74230000D03*
%TD*%
D12*
%TO.P,C10,2*%
%TO.N,GND*%
X143910000Y-123100000D03*
D13*
%TO.P,C10,1*%
%TO.N,+12V*%
X141410000Y-123100000D03*
%TD*%
D12*
%TO.P,C8,2*%
%TO.N,-12V*%
X143910000Y-97340000D03*
D13*
%TO.P,C8,1*%
%TO.N,GND*%
X141410000Y-97340000D03*
%TD*%
D14*
%TO.P,U2,16*%
%TO.N,+12V*%
X126300000Y-48040000D03*
%TO.P,U2,8*%
%TO.N,/SAWTOOTH*%
X144080000Y-55660000D03*
%TO.P,U2,15*%
%TO.N,/FREQ_CTRL*%
X128840000Y-48040000D03*
%TO.P,U2,7*%
%TO.N,Net-(RV7-Pad1)*%
X141540000Y-55660000D03*
%TO.P,U2,14*%
%TO.N,Net-(R18-Pad2)*%
X131380000Y-48040000D03*
%TO.P,U2,6*%
%TO.N,/HARD_SYNC*%
X139000000Y-55660000D03*
%TO.P,U2,13*%
%TO.N,/LINEAR_FM*%
X133920000Y-48040000D03*
%TO.P,U2,5*%
%TO.N,/PWM*%
X136460000Y-55660000D03*
%TO.P,U2,12*%
%TO.N,GND*%
X136460000Y-48040000D03*
%TO.P,U2,4*%
%TO.N,/SQUARE*%
X133920000Y-55660000D03*
%TO.P,U2,11*%
%TO.N,Net-(C6-Pad2)*%
X139000000Y-48040000D03*
%TO.P,U2,3*%
%TO.N,Net-(R13-Pad1)*%
X131380000Y-55660000D03*
%TO.P,U2,10*%
%TO.N,/TRIANGLE*%
X141540000Y-48040000D03*
%TO.P,U2,2*%
%TO.N,Net-(R13-Pad2)*%
X128840000Y-55660000D03*
%TO.P,U2,9*%
%TO.N,/SOFT_SYNC*%
X144080000Y-48040000D03*
D13*
%TO.P,U2,1*%
%TO.N,Net-(R12-Pad1)*%
X126300000Y-55660000D03*
%TD*%
D14*
%TO.P,U1,14*%
%TO.N,Net-(R10-Pad2)*%
X151690000Y-47850000D03*
%TO.P,U1,7*%
%TO.N,Net-(R26-Pad2)*%
X166930000Y-55470000D03*
%TO.P,U1,13*%
%TO.N,Net-(R10-Pad2)*%
X154230000Y-47850000D03*
%TO.P,U1,6*%
%TO.N,Net-(R26-Pad2)*%
X164390000Y-55470000D03*
%TO.P,U1,12*%
%TO.N,Net-(J4-PadT)*%
X156770000Y-47850000D03*
%TO.P,U1,5*%
%TO.N,Net-(D3-Pad1)*%
X161850000Y-55470000D03*
%TO.P,U1,11*%
%TO.N,-12V*%
X159310000Y-47850000D03*
%TO.P,U1,4*%
%TO.N,+12V*%
X159310000Y-55470000D03*
%TO.P,U1,10*%
%TO.N,/TRIANGLE*%
X161850000Y-47850000D03*
%TO.P,U1,3*%
%TO.N,/SAWTOOTH*%
X156770000Y-55470000D03*
%TO.P,U1,9*%
%TO.N,Net-(R22-Pad2)*%
X164390000Y-47850000D03*
%TO.P,U1,2*%
%TO.N,Net-(R24-Pad2)*%
X154230000Y-55470000D03*
%TO.P,U1,8*%
%TO.N,Net-(R23-Pad2)*%
X166930000Y-47850000D03*
D13*
%TO.P,U1,1*%
%TO.N,Net-(R24-Pad2)*%
X151690000Y-55470000D03*
%TD*%
D15*
%TO.P,SW1,1*%
%TO.N,GND*%
X147230000Y-105860000D03*
%TO.P,SW1,2*%
%TO.N,Net-(R4-Pad1)*%
X147230000Y-110310000D03*
%TO.P,SW1,3*%
%TO.N,Net-(RV5-Pad2)*%
X147230000Y-114760000D03*
%TD*%
D16*
%TO.P,C11,2*%
%TO.N,+12V*%
X152970000Y-122820000D03*
%TO.P,C11,1*%
%TO.N,GND*%
X147970000Y-122820000D03*
%TD*%
%TO.P,C9,2*%
%TO.N,GND*%
X152750000Y-97070000D03*
%TO.P,C9,1*%
%TO.N,-12V*%
X147750000Y-97070000D03*
%TD*%
D17*
%TO.P,RV8,*%
%TO.N,*%
X163920000Y-63630000D03*
X154320000Y-63630000D03*
D18*
%TO.P,RV8,3*%
%TO.N,Net-(J8-PadT)*%
X156620000Y-71130000D03*
%TO.P,RV8,2*%
%TO.N,Net-(C4-Pad1)*%
X159120000Y-71130000D03*
D19*
%TO.P,RV8,1*%
%TO.N,GND*%
X161620000Y-71130000D03*
%TD*%
D17*
%TO.P,RV5,*%
%TO.N,*%
X139350000Y-35210000D03*
X129750000Y-35210000D03*
D18*
%TO.P,RV5,3*%
%TO.N,+12V*%
X132050000Y-42710000D03*
%TO.P,RV5,2*%
%TO.N,Net-(RV5-Pad2)*%
X134550000Y-42710000D03*
D19*
%TO.P,RV5,1*%
%TO.N,-12V*%
X137050000Y-42710000D03*
%TD*%
D17*
%TO.P,RV3,*%
%TO.N,*%
X151970000Y-82380000D03*
X142370000Y-82380000D03*
D18*
%TO.P,RV3,3*%
%TO.N,GND*%
X144670000Y-89880000D03*
%TO.P,RV3,2*%
%TO.N,Net-(J4-PadTN)*%
X147170000Y-89880000D03*
D19*
%TO.P,RV3,1*%
%TO.N,Net-(R7-Pad2)*%
X149670000Y-89880000D03*
%TD*%
D17*
%TO.P,RV2,*%
%TO.N,*%
X139350000Y-63670000D03*
X129750000Y-63670000D03*
D18*
%TO.P,RV2,3*%
%TO.N,Net-(J3-PadT)*%
X132050000Y-71170000D03*
%TO.P,RV2,2*%
%TO.N,Net-(R3-Pad1)*%
X134550000Y-71170000D03*
D19*
%TO.P,RV2,1*%
%TO.N,GND*%
X137050000Y-71170000D03*
%TD*%
D17*
%TO.P,RV1,*%
%TO.N,*%
X164020000Y-35320000D03*
X154420000Y-35320000D03*
D18*
%TO.P,RV1,3*%
%TO.N,+12V*%
X156720000Y-42820000D03*
%TO.P,RV1,2*%
%TO.N,Net-(R5-Pad1)*%
X159220000Y-42820000D03*
D19*
%TO.P,RV1,1*%
%TO.N,-12V*%
X161720000Y-42820000D03*
%TD*%
D12*
%TO.P,R27,1*%
%TO.N,Net-(D4-Pad2)*%
X147040000Y-41920000D03*
D14*
%TO.P,R27,2*%
%TO.N,+12V*%
X147040000Y-31760000D03*
%TD*%
D12*
%TO.P,R26,1*%
%TO.N,/SQUARE_OUT*%
X168850000Y-144160000D03*
D14*
%TO.P,R26,2*%
%TO.N,Net-(R26-Pad2)*%
X179010000Y-144160000D03*
%TD*%
D12*
%TO.P,R25,1*%
%TO.N,/TRIANGLE_OUT*%
X168850000Y-138990000D03*
D14*
%TO.P,R25,2*%
%TO.N,Net-(R23-Pad2)*%
X179010000Y-138990000D03*
%TD*%
D12*
%TO.P,R24,1*%
%TO.N,/SAWTOOTH_OUT*%
X168950000Y-134010000D03*
D14*
%TO.P,R24,2*%
%TO.N,Net-(R24-Pad2)*%
X179110000Y-134010000D03*
%TD*%
D12*
%TO.P,R23,1*%
%TO.N,Net-(R22-Pad2)*%
X168800000Y-128820000D03*
D14*
%TO.P,R23,2*%
%TO.N,Net-(R23-Pad2)*%
X178960000Y-128820000D03*
%TD*%
D12*
%TO.P,R22,1*%
%TO.N,GND*%
X168800000Y-123740000D03*
D14*
%TO.P,R22,2*%
%TO.N,Net-(R22-Pad2)*%
X178960000Y-123740000D03*
%TD*%
D12*
%TO.P,R21,1*%
%TO.N,GND*%
X168940000Y-118650000D03*
D14*
%TO.P,R21,2*%
%TO.N,Net-(D3-Pad1)*%
X179100000Y-118650000D03*
%TD*%
D12*
%TO.P,R20,1*%
%TO.N,Net-(D3-Pad1)*%
X168940000Y-113430000D03*
D14*
%TO.P,R20,2*%
%TO.N,/SQUARE*%
X179100000Y-113430000D03*
%TD*%
D12*
%TO.P,R19,1*%
%TO.N,-12V*%
X113690000Y-144240000D03*
D14*
%TO.P,R19,2*%
%TO.N,Net-(R13-Pad1)*%
X123850000Y-144240000D03*
%TD*%
D12*
%TO.P,R18,1*%
%TO.N,GND*%
X113630000Y-139150000D03*
D14*
%TO.P,R18,2*%
%TO.N,Net-(R18-Pad2)*%
X123790000Y-139150000D03*
%TD*%
D12*
%TO.P,R17,1*%
%TO.N,/FREQ_CTRL*%
X113700000Y-134020000D03*
D14*
%TO.P,R17,2*%
%TO.N,Net-(R17-Pad2)*%
X123860000Y-134020000D03*
%TD*%
D12*
%TO.P,R16,1*%
%TO.N,Net-(C5-Pad2)*%
X113780000Y-128890000D03*
D14*
%TO.P,R16,2*%
%TO.N,/LINEAR_FM*%
X123940000Y-128890000D03*
%TD*%
D12*
%TO.P,R15,1*%
%TO.N,Net-(C4-Pad2)*%
X113780000Y-123780000D03*
D14*
%TO.P,R15,2*%
%TO.N,/LINEAR_FM*%
X123940000Y-123780000D03*
%TD*%
D12*
%TO.P,R14,1*%
%TO.N,+12V*%
X113780000Y-118640000D03*
D14*
%TO.P,R14,2*%
%TO.N,/LINEAR_FM*%
X123940000Y-118640000D03*
%TD*%
D12*
%TO.P,R13,1*%
%TO.N,Net-(R13-Pad1)*%
X113780000Y-113590000D03*
D14*
%TO.P,R13,2*%
%TO.N,Net-(R13-Pad2)*%
X123940000Y-113590000D03*
%TD*%
D12*
%TO.P,R12,1*%
%TO.N,Net-(R12-Pad1)*%
X113780000Y-108530000D03*
D14*
%TO.P,R12,2*%
%TO.N,Net-(R12-Pad2)*%
X123940000Y-108530000D03*
%TD*%
D12*
%TO.P,R11,1*%
%TO.N,GND*%
X113850000Y-103390000D03*
D14*
%TO.P,R11,2*%
%TO.N,/PWM*%
X124010000Y-103390000D03*
%TD*%
D12*
%TO.P,R10,1*%
%TO.N,/PWM*%
X113780000Y-98260000D03*
D14*
%TO.P,R10,2*%
%TO.N,Net-(R10-Pad2)*%
X123940000Y-98260000D03*
%TD*%
D12*
%TO.P,R9,1*%
%TO.N,GND*%
X113780000Y-93150000D03*
D14*
%TO.P,R9,2*%
%TO.N,Net-(C3-Pad1)*%
X123940000Y-93150000D03*
%TD*%
D12*
%TO.P,R8,1*%
%TO.N,Net-(C2-Pad1)*%
X113780000Y-88020000D03*
D14*
%TO.P,R8,2*%
%TO.N,Net-(R13-Pad1)*%
X123940000Y-88020000D03*
%TD*%
D12*
%TO.P,R7,1*%
%TO.N,+12V*%
X113780000Y-82960000D03*
D14*
%TO.P,R7,2*%
%TO.N,Net-(R7-Pad2)*%
X123940000Y-82960000D03*
%TD*%
D12*
%TO.P,R6,1*%
%TO.N,Net-(C1-Pad2)*%
X113780000Y-77830000D03*
D14*
%TO.P,R6,2*%
%TO.N,/FREQ_CTRL*%
X123940000Y-77830000D03*
%TD*%
D12*
%TO.P,R5,1*%
%TO.N,Net-(R5-Pad1)*%
X113910000Y-72660000D03*
D14*
%TO.P,R5,2*%
%TO.N,/FREQ_CTRL*%
X124070000Y-72660000D03*
%TD*%
D12*
%TO.P,R4,1*%
%TO.N,Net-(R4-Pad1)*%
X113910000Y-67530000D03*
D14*
%TO.P,R4,2*%
%TO.N,/FREQ_CTRL*%
X124070000Y-67530000D03*
%TD*%
D12*
%TO.P,R3,1*%
%TO.N,Net-(R3-Pad1)*%
X113830000Y-62390000D03*
D14*
%TO.P,R3,2*%
%TO.N,/FREQ_CTRL*%
X123990000Y-62390000D03*
%TD*%
D12*
%TO.P,R2,1*%
%TO.N,Net-(J1-PadT)*%
X113470000Y-42290000D03*
D14*
%TO.P,R2,2*%
%TO.N,/FREQ_CTRL*%
X123630000Y-42290000D03*
%TD*%
D12*
%TO.P,R1,1*%
%TO.N,Net-(R1-Pad1)*%
X113610000Y-37280000D03*
D14*
%TO.P,R1,2*%
%TO.N,/FREQ_CTRL*%
X123770000Y-37280000D03*
%TD*%
D20*
%TO.P,J12,10*%
%TO.N,-12V*%
X176580000Y-63180000D03*
%TO.P,J12,9*%
X174040000Y-63180000D03*
%TO.P,J12,8*%
%TO.N,GND*%
X176580000Y-60640000D03*
%TO.P,J12,7*%
X174040000Y-60640000D03*
%TO.P,J12,6*%
X176580000Y-58100000D03*
%TO.P,J12,5*%
X174040000Y-58100000D03*
%TO.P,J12,4*%
X176580000Y-55560000D03*
%TO.P,J12,3*%
X174040000Y-55560000D03*
%TO.P,J12,2*%
%TO.N,+12V*%
X176580000Y-53020000D03*
D21*
%TO.P,J12,1*%
X174040000Y-53020000D03*
%TD*%
D22*
%TO.P,J11,T*%
%TO.N,/TRIANGLE_OUT*%
X161110000Y-116810000D03*
D23*
%TO.P,J11,S*%
%TO.N,GND*%
X161110000Y-105410000D03*
D22*
%TO.P,J11,TN*%
%TO.N,N/C*%
X161110000Y-108510000D03*
%TD*%
%TO.P,J10,T*%
%TO.N,/SAWTOOTH_OUT*%
X161090000Y-131690000D03*
D23*
%TO.P,J10,S*%
%TO.N,GND*%
X161090000Y-120290000D03*
D22*
%TO.P,J10,TN*%
%TO.N,N/C*%
X161090000Y-123390000D03*
%TD*%
%TO.P,J9,T*%
%TO.N,/SQUARE_OUT*%
X161210000Y-146670000D03*
D23*
%TO.P,J9,S*%
%TO.N,GND*%
X161210000Y-135270000D03*
D22*
%TO.P,J9,TN*%
%TO.N,N/C*%
X161210000Y-138370000D03*
%TD*%
%TO.P,J8,T*%
%TO.N,Net-(J8-PadT)*%
X161030000Y-101880000D03*
D23*
%TO.P,J8,S*%
%TO.N,GND*%
X161030000Y-90480000D03*
D22*
%TO.P,J8,TN*%
%TO.N,N/C*%
X161030000Y-93580000D03*
%TD*%
%TO.P,J7,T*%
%TO.N,Net-(C7-Pad2)*%
X132930000Y-131580000D03*
D23*
%TO.P,J7,S*%
%TO.N,GND*%
X132930000Y-120180000D03*
D22*
%TO.P,J7,TN*%
%TO.N,N/C*%
X132930000Y-123280000D03*
%TD*%
%TO.P,J6,T*%
%TO.N,Net-(C3-Pad2)*%
X147010000Y-141100000D03*
D23*
%TO.P,J6,S*%
%TO.N,GND*%
X147010000Y-129700000D03*
D22*
%TO.P,J6,TN*%
%TO.N,N/C*%
X147010000Y-132800000D03*
%TD*%
%TO.P,J5,T*%
%TO.N,Net-(C2-Pad2)*%
X132910000Y-146580000D03*
D23*
%TO.P,J5,S*%
%TO.N,GND*%
X132910000Y-135180000D03*
D22*
%TO.P,J5,TN*%
%TO.N,N/C*%
X132910000Y-138280000D03*
%TD*%
%TO.P,J4,T*%
%TO.N,Net-(J4-PadT)*%
X132930000Y-116470000D03*
D23*
%TO.P,J4,S*%
%TO.N,GND*%
X132930000Y-105070000D03*
D22*
%TO.P,J4,TN*%
%TO.N,Net-(J4-PadTN)*%
X132930000Y-108170000D03*
%TD*%
%TO.P,J3,T*%
%TO.N,Net-(J3-PadT)*%
X132930000Y-101470000D03*
D23*
%TO.P,J3,S*%
%TO.N,GND*%
X132930000Y-90070000D03*
D22*
%TO.P,J3,TN*%
%TO.N,N/C*%
X132930000Y-93170000D03*
%TD*%
%TO.P,J2,T*%
%TO.N,Net-(J1-PadT)*%
X161100000Y-86840000D03*
D23*
%TO.P,J2,S*%
%TO.N,GND*%
X161100000Y-75440000D03*
D22*
%TO.P,J2,TN*%
%TO.N,N/C*%
X161100000Y-78540000D03*
%TD*%
%TO.P,J1,T*%
%TO.N,Net-(J1-PadT)*%
X132930000Y-86360000D03*
D23*
%TO.P,J1,S*%
%TO.N,GND*%
X132930000Y-74960000D03*
D22*
%TO.P,J1,TN*%
%TO.N,N/C*%
X132930000Y-78060000D03*
%TD*%
D18*
%TO.P,D4,2*%
%TO.N,Net-(D4-Pad2)*%
X119870000Y-30490000D03*
D19*
%TO.P,D4,1*%
%TO.N,GND*%
X117330000Y-30490000D03*
%TD*%
D14*
%TO.P,D3,2*%
%TO.N,GND*%
X177310000Y-108520000D03*
D13*
%TO.P,D3,1*%
%TO.N,Net-(D3-Pad1)*%
X169690000Y-108520000D03*
%TD*%
D14*
%TO.P,D2,2*%
%TO.N,/HARD_SYNC*%
X177110000Y-102410000D03*
D13*
%TO.P,D2,1*%
%TO.N,Net-(C3-Pad1)*%
X169490000Y-102410000D03*
%TD*%
D14*
%TO.P,D1,2*%
%TO.N,Net-(C2-Pad1)*%
X177250000Y-96570000D03*
D13*
%TO.P,D1,1*%
%TO.N,/HARD_SYNC*%
X169630000Y-96570000D03*
%TD*%
D16*
%TO.P,C7,2*%
%TO.N,Net-(C7-Pad2)*%
X175760000Y-90260000D03*
%TO.P,C7,1*%
%TO.N,/SOFT_SYNC*%
X170760000Y-90260000D03*
%TD*%
%TO.P,C6,2*%
%TO.N,Net-(C6-Pad2)*%
X175610000Y-83450000D03*
%TO.P,C6,1*%
%TO.N,GND*%
X170610000Y-83450000D03*
%TD*%
%TO.P,C5,2*%
%TO.N,Net-(C5-Pad2)*%
X167790000Y-24950000D03*
%TO.P,C5,1*%
%TO.N,GND*%
X162790000Y-24950000D03*
%TD*%
%TO.P,C4,2*%
%TO.N,Net-(C4-Pad2)*%
X158520000Y-24950000D03*
%TO.P,C4,1*%
%TO.N,Net-(C4-Pad1)*%
X153520000Y-24950000D03*
%TD*%
%TO.P,C3,2*%
%TO.N,Net-(C3-Pad2)*%
X149060000Y-24950000D03*
%TO.P,C3,1*%
%TO.N,Net-(C3-Pad1)*%
X144060000Y-24950000D03*
%TD*%
%TO.P,C2,2*%
%TO.N,Net-(C2-Pad2)*%
X139600000Y-24950000D03*
%TO.P,C2,1*%
%TO.N,Net-(C2-Pad1)*%
X134600000Y-24950000D03*
%TD*%
%TO.P,C1,2*%
%TO.N,Net-(C1-Pad2)*%
X130140000Y-24950000D03*
%TO.P,C1,1*%
%TO.N,GND*%
X125140000Y-24950000D03*
%TD*%
D24*
%TO.P,TP3,1*%
%TO.N,-12V*%
X175470000Y-44320000D03*
%TD*%
%TO.P,TP2,1*%
%TO.N,GND*%
X175470000Y-38030000D03*
%TD*%
%TO.P,TP1,1*%
%TO.N,+12V*%
X175410000Y-32120000D03*
%TD*%
D25*
%TO.N,Net-(J4-PadTN)*%
X145334600Y-98700000D03*
%TO.N,Net-(R1-Pad1)*%
X162781600Y-76918300D03*
%TO.N,Net-(R5-Pad1)*%
X123124100Y-33575100D03*
%TO.N,Net-(R13-Pad1)*%
X126366600Y-63538200D03*
%TO.N,Net-(R10-Pad2)*%
X136007500Y-46621700D03*
%TO.N,/SQUARE*%
X159411200Y-76179100D03*
%TD*%
D26*
%TO.N,GND*%
X134321900Y-124265400D02*
X134321900Y-122657200D01*
X134321900Y-122657200D02*
X133085000Y-121420300D01*
X133085000Y-121420300D02*
X132930000Y-121420300D01*
X132910000Y-133939700D02*
X134321900Y-132527800D01*
X134321900Y-132527800D02*
X134321900Y-124265400D01*
X143910000Y-123100000D02*
X142744600Y-124265400D01*
X142744600Y-124265400D02*
X134321900Y-124265400D01*
X143910000Y-123100000D02*
X147690000Y-123100000D01*
X147690000Y-123100000D02*
X147970000Y-122820000D01*
X132930000Y-74960000D02*
X132930000Y-76200300D01*
X132930000Y-90070000D02*
X132930000Y-88829700D01*
X132930000Y-88829700D02*
X134320400Y-87439300D01*
X134320400Y-87439300D02*
X134320400Y-77435700D01*
X134320400Y-77435700D02*
X133085000Y-76200300D01*
X133085000Y-76200300D02*
X132930000Y-76200300D01*
X155021500Y-97075100D02*
X155021500Y-98081200D01*
X155021500Y-98081200D02*
X161110000Y-104169700D01*
X161030000Y-91720300D02*
X160376300Y-91720300D01*
X160376300Y-91720300D02*
X155021500Y-97075100D01*
X152750000Y-97070000D02*
X152755100Y-97075100D01*
X152755100Y-97075100D02*
X155021500Y-97075100D01*
X147010000Y-129700000D02*
X147010000Y-128459700D01*
X150212600Y-125062600D02*
X147970000Y-122820000D01*
X157402700Y-125062600D02*
X150212600Y-125062600D01*
X147010000Y-128459700D02*
X150212600Y-125257100D01*
X150212600Y-125257100D02*
X150212600Y-125062600D01*
X113780000Y-93150000D02*
X114913400Y-94283400D01*
X114913400Y-94283400D02*
X114913400Y-102326600D01*
X114913400Y-102326600D02*
X113850000Y-103390000D01*
X157402700Y-125062600D02*
X157402700Y-130222400D01*
X157402700Y-130222400D02*
X161210000Y-134029700D01*
X161090000Y-121530300D02*
X160935000Y-121530300D01*
X160935000Y-121530300D02*
X157402700Y-125062600D01*
X176580000Y-58100000D02*
X176580000Y-60640000D01*
X176580000Y-55560000D02*
X176580000Y-58100000D01*
X174040000Y-55560000D02*
X174040000Y-54384700D01*
X174040000Y-54384700D02*
X173232000Y-54384700D01*
X173232000Y-54384700D02*
X172864600Y-54017300D01*
X172864600Y-54017300D02*
X172864600Y-42452000D01*
X172864600Y-42452000D02*
X174961300Y-40355300D01*
X174961300Y-40355300D02*
X175470000Y-40355300D01*
X175470000Y-38030000D02*
X175470000Y-40355300D01*
X175470000Y-38030000D02*
X175470000Y-35704700D01*
X175470000Y-35704700D02*
X173544700Y-35704700D01*
X173544700Y-35704700D02*
X162790000Y-24950000D01*
X161030000Y-90480000D02*
X161030000Y-91720300D01*
X161110000Y-105410000D02*
X161110000Y-104169700D01*
X170402600Y-116552700D02*
X168940000Y-118015300D01*
X168940000Y-118015300D02*
X168940000Y-118650000D01*
X177310000Y-109645300D02*
X170402600Y-116552700D01*
X170402600Y-116552700D02*
X162819600Y-108969800D01*
X162819600Y-108969800D02*
X162819600Y-108204900D01*
X162819600Y-108204900D02*
X161265000Y-106650300D01*
X161265000Y-106650300D02*
X161110000Y-106650300D01*
X161110000Y-105410000D02*
X161110000Y-106650300D01*
X161090000Y-120290000D02*
X161090000Y-121530300D01*
X161210000Y-135270000D02*
X161210000Y-134029700D01*
X136460000Y-49165300D02*
X137585300Y-50290600D01*
X137585300Y-50290600D02*
X137585300Y-69409400D01*
X137585300Y-69409400D02*
X137050000Y-69944700D01*
X136460000Y-48040000D02*
X136460000Y-49165300D01*
X137050000Y-71170000D02*
X137050000Y-69944700D01*
X161100000Y-75440000D02*
X161100000Y-74199700D01*
X161620000Y-71130000D02*
X161620000Y-73679700D01*
X161620000Y-73679700D02*
X161100000Y-74199700D01*
X141410000Y-97340000D02*
X141410000Y-96214700D01*
X144670000Y-89880000D02*
X144670000Y-92954700D01*
X144670000Y-92954700D02*
X141410000Y-96214700D01*
X132930000Y-120180000D02*
X132930000Y-121420300D01*
X132910000Y-135180000D02*
X132910000Y-133939700D01*
X177310000Y-108520000D02*
X177310000Y-109645300D01*
%TO.N,Net-(C1-Pad2)*%
X113780000Y-77830000D02*
X116652000Y-74958000D01*
X116652000Y-74958000D02*
X116652000Y-41073000D01*
X116652000Y-41073000D02*
X123849400Y-33875600D01*
X123849400Y-33875600D02*
X123849400Y-31240600D01*
X123849400Y-31240600D02*
X130140000Y-24950000D01*
%TO.N,Net-(C2-Pad1)*%
X113780000Y-88020000D02*
X113780000Y-84955300D01*
X113780000Y-84955300D02*
X119696000Y-79039300D01*
X119696000Y-79039300D02*
X119696000Y-68378800D01*
X119696000Y-68378800D02*
X125170900Y-62903900D01*
X125170900Y-62903900D02*
X125170900Y-34464800D01*
X125170900Y-34464800D02*
X134600000Y-25035700D01*
X134600000Y-25035700D02*
X134600000Y-24950000D01*
%TO.N,Net-(C3-Pad1)*%
X144060000Y-24950000D02*
X133300000Y-35710000D01*
X133300000Y-35710000D02*
X133300000Y-43430800D01*
X133300000Y-43430800D02*
X130110000Y-46620800D01*
X130110000Y-46620800D02*
X130110000Y-50435300D01*
X130110000Y-50435300D02*
X127538900Y-53006400D01*
X127538900Y-53006400D02*
X127538900Y-61273600D01*
X127538900Y-61273600D02*
X127092000Y-61720500D01*
X127092000Y-61720500D02*
X127092000Y-88872700D01*
X127092000Y-88872700D02*
X123940000Y-92024700D01*
X123940000Y-93150000D02*
X123940000Y-92024700D01*
%TO.N,Net-(C4-Pad2)*%
X113780000Y-123780000D02*
X111718400Y-121718400D01*
X111718400Y-121718400D02*
X111718400Y-82276100D01*
X111718400Y-82276100D02*
X119245600Y-74748900D01*
X119245600Y-74748900D02*
X119245600Y-39753200D01*
X119245600Y-39753200D02*
X124750000Y-34248800D01*
X124750000Y-34248800D02*
X124750000Y-32919700D01*
X124750000Y-32919700D02*
X134081800Y-23587900D01*
X134081800Y-23587900D02*
X157157900Y-23587900D01*
X157157900Y-23587900D02*
X158520000Y-24950000D01*
%TO.N,Net-(C4-Pad1)*%
X153520000Y-24950000D02*
X157970000Y-29400000D01*
X157970000Y-29400000D02*
X157970000Y-69980000D01*
X157970000Y-69980000D02*
X159120000Y-71130000D01*
%TO.N,Net-(C5-Pad2)*%
X113780000Y-128890000D02*
X111268000Y-126378000D01*
X111268000Y-126378000D02*
X111268000Y-82080500D01*
X111268000Y-82080500D02*
X118795300Y-74553200D01*
X118795300Y-74553200D02*
X118795300Y-39566600D01*
X118795300Y-39566600D02*
X124299700Y-34062200D01*
X124299700Y-34062200D02*
X124299700Y-32733100D01*
X124299700Y-32733100D02*
X133896500Y-23136300D01*
X133896500Y-23136300D02*
X165976300Y-23136300D01*
X165976300Y-23136300D02*
X167790000Y-24950000D01*
%TO.N,/HARD_SYNC*%
X169630000Y-96570000D02*
X170755300Y-96570000D01*
X170755300Y-96570000D02*
X170755300Y-97180600D01*
X170755300Y-97180600D02*
X175984700Y-102410000D01*
X177110000Y-102410000D02*
X175984700Y-102410000D01*
%TO.N,Net-(D3-Pad1)*%
X161850000Y-55470000D02*
X161850000Y-56595300D01*
X169690000Y-108520000D02*
X169690000Y-107394700D01*
X169690000Y-107394700D02*
X164485200Y-102189900D01*
X164485200Y-102189900D02*
X164485200Y-87621800D01*
X164485200Y-87621800D02*
X158685600Y-81822200D01*
X158685600Y-81822200D02*
X158685600Y-74644400D01*
X158685600Y-74644400D02*
X160394600Y-72935400D01*
X160394600Y-72935400D02*
X160394600Y-58050700D01*
X160394600Y-58050700D02*
X161850000Y-56595300D01*
%TO.N,Net-(J3-PadT)*%
X132930000Y-101470000D02*
X131539600Y-100079600D01*
X131539600Y-100079600D02*
X131539600Y-71680400D01*
X131539600Y-71680400D02*
X132050000Y-71170000D01*
%TO.N,Net-(J4-PadT)*%
X156770000Y-48975300D02*
X156066700Y-48975300D01*
X156066700Y-48975300D02*
X150277100Y-54764900D01*
X150277100Y-54764900D02*
X150277100Y-74261400D01*
X150277100Y-74261400D02*
X149826800Y-74711700D01*
X149826800Y-74711700D02*
X149826800Y-85377300D01*
X149826800Y-85377300D02*
X150895400Y-86445900D01*
X150895400Y-86445900D02*
X150895400Y-114734100D01*
X150895400Y-114734100D02*
X148908500Y-116721000D01*
X148908500Y-116721000D02*
X133181000Y-116721000D01*
X133181000Y-116721000D02*
X132930000Y-116470000D01*
X156770000Y-47850000D02*
X156770000Y-48975300D01*
%TO.N,Net-(J4-PadTN)*%
X145334600Y-98700000D02*
X146370500Y-97664100D01*
X146370500Y-97664100D02*
X146370500Y-90679500D01*
X146370500Y-90679500D02*
X147170000Y-89880000D01*
%TO.N,Net-(J8-PadT)*%
X161030000Y-101880000D02*
X162502500Y-100407500D01*
X162502500Y-100407500D02*
X162502500Y-86276000D01*
X162502500Y-86276000D02*
X156620000Y-80393500D01*
X156620000Y-80393500D02*
X156620000Y-71130000D01*
%TO.N,/SQUARE_OUT*%
X161210000Y-146670000D02*
X166340000Y-146670000D01*
X166340000Y-146670000D02*
X168850000Y-144160000D01*
%TO.N,/TRIANGLE_OUT*%
X161110000Y-116810000D02*
X164995400Y-120695400D01*
X164995400Y-120695400D02*
X164995400Y-135135400D01*
X164995400Y-135135400D02*
X168850000Y-138990000D01*
%TO.N,/FREQ_CTRL*%
X113700000Y-134020000D02*
X114913000Y-132807000D01*
X114913000Y-132807000D02*
X114913000Y-116876700D01*
X114913000Y-116876700D02*
X112650400Y-114614100D01*
X112650400Y-114614100D02*
X112650400Y-113127100D01*
X112650400Y-113127100D02*
X116274500Y-109503000D01*
X116274500Y-109503000D02*
X116274500Y-86620800D01*
X116274500Y-86620800D02*
X123940000Y-78955300D01*
X123990000Y-62390000D02*
X123990000Y-61264700D01*
X123630000Y-42290000D02*
X123630000Y-60904700D01*
X123630000Y-60904700D02*
X123990000Y-61264700D01*
X123770000Y-38405300D02*
X123630000Y-38545300D01*
X123630000Y-38545300D02*
X123630000Y-42290000D01*
X123940000Y-77830000D02*
X123940000Y-78955300D01*
X123940000Y-77267300D02*
X123940000Y-77830000D01*
X123940000Y-77267300D02*
X123940000Y-76704700D01*
X123940000Y-76704700D02*
X124070000Y-76574700D01*
X124070000Y-76574700D02*
X124070000Y-73785300D01*
X124070000Y-72660000D02*
X124070000Y-73785300D01*
X124070000Y-67530000D02*
X124070000Y-72660000D01*
X123770000Y-37280000D02*
X123770000Y-38405300D01*
%TO.N,Net-(R1-Pad1)*%
X170410700Y-74230000D02*
X167722400Y-76918300D01*
X167722400Y-76918300D02*
X162781600Y-76918300D01*
X171320000Y-74230000D02*
X170410700Y-74230000D01*
%TO.N,Net-(R5-Pad1)*%
X113910000Y-72660000D02*
X116019300Y-70550700D01*
X116019300Y-70550700D02*
X116019300Y-40679900D01*
X116019300Y-40679900D02*
X123124100Y-33575100D01*
%TO.N,+12V*%
X141410000Y-123100000D02*
X142535300Y-123100000D01*
X152970000Y-122820000D02*
X151632700Y-121482700D01*
X151632700Y-121482700D02*
X143871300Y-121482700D01*
X143871300Y-121482700D02*
X142535300Y-122818700D01*
X142535300Y-122818700D02*
X142535300Y-123100000D01*
X113780000Y-118640000D02*
X112200000Y-117060000D01*
X112200000Y-117060000D02*
X112200000Y-84540000D01*
X112200000Y-84540000D02*
X113780000Y-82960000D01*
X126300000Y-48040000D02*
X127425300Y-48040000D01*
X132050000Y-42710000D02*
X127425300Y-47334700D01*
X127425300Y-47334700D02*
X127425300Y-48040000D01*
X176580000Y-53020000D02*
X176580000Y-51844700D01*
X175410000Y-32120000D02*
X175410000Y-34445300D01*
X175410000Y-34445300D02*
X176354700Y-34445300D01*
X176354700Y-34445300D02*
X177795400Y-35886000D01*
X177795400Y-35886000D02*
X177795400Y-50629300D01*
X177795400Y-50629300D02*
X176580000Y-51844700D01*
%TO.N,Net-(R13-Pad1)*%
X126366600Y-63538200D02*
X126366600Y-84468100D01*
X126366600Y-84468100D02*
X123940000Y-86894700D01*
X123940000Y-88020000D02*
X123940000Y-86894700D01*
X123940000Y-88301300D02*
X123940000Y-88020000D01*
X123940000Y-88301300D02*
X123940000Y-89145300D01*
X116742700Y-113590000D02*
X116742700Y-136007400D01*
X116742700Y-136007400D02*
X123850000Y-143114700D01*
X113780000Y-113590000D02*
X116742700Y-113590000D01*
X123940000Y-89145300D02*
X116742700Y-96342600D01*
X116742700Y-96342600D02*
X116742700Y-113590000D01*
X123850000Y-144240000D02*
X123850000Y-143114700D01*
%TO.N,Net-(R10-Pad2)*%
X123940000Y-98260000D02*
X123940000Y-97134700D01*
X123940000Y-97134700D02*
X129333200Y-91741500D01*
X129333200Y-91741500D02*
X129333200Y-67889500D01*
X129333200Y-67889500D02*
X135045400Y-62177300D01*
X135045400Y-62177300D02*
X135045400Y-47583800D01*
X135045400Y-47583800D02*
X136007500Y-46621700D01*
X154230000Y-47850000D02*
X153104700Y-47850000D01*
X151690000Y-48412600D02*
X152542100Y-48412600D01*
X152542100Y-48412600D02*
X153104700Y-47850000D01*
X151690000Y-47850000D02*
X151690000Y-48412600D01*
%TO.N,/PWM*%
X124010000Y-102264700D02*
X130365700Y-95909000D01*
X130365700Y-95909000D02*
X130365700Y-71121400D01*
X130365700Y-71121400D02*
X136460000Y-65027100D01*
X136460000Y-65027100D02*
X136460000Y-55660000D01*
X124010000Y-103390000D02*
X124010000Y-102264700D01*
%TO.N,Net-(R12-Pad1)*%
X113780000Y-108530000D02*
X115363800Y-106946200D01*
X115363800Y-106946200D02*
X115363800Y-85583300D01*
X115363800Y-85583300D02*
X121874600Y-79072500D01*
X121874600Y-79072500D02*
X121874600Y-66934300D01*
X121874600Y-66934300D02*
X126300000Y-62508900D01*
X126300000Y-62508900D02*
X126300000Y-55660000D01*
%TO.N,Net-(R13-Pad2)*%
X128840000Y-56785300D02*
X128840000Y-60609400D01*
X128840000Y-60609400D02*
X127542300Y-61907100D01*
X127542300Y-61907100D02*
X127542300Y-91229300D01*
X127542300Y-91229300D02*
X121880600Y-96891000D01*
X121880600Y-96891000D02*
X121880600Y-110405300D01*
X121880600Y-110405300D02*
X123940000Y-112464700D01*
X128840000Y-55660000D02*
X128840000Y-56785300D01*
X123940000Y-113590000D02*
X123940000Y-112464700D01*
%TO.N,/LINEAR_FM*%
X133920000Y-49165300D02*
X132794700Y-50290600D01*
X132794700Y-50290600D02*
X132794700Y-63268800D01*
X132794700Y-63268800D02*
X128882800Y-67180700D01*
X128882800Y-67180700D02*
X128882800Y-91387900D01*
X128882800Y-91387900D02*
X122781200Y-97489500D01*
X122781200Y-97489500D02*
X122781200Y-109065400D01*
X122781200Y-109065400D02*
X125517600Y-111801800D01*
X125517600Y-111801800D02*
X125517600Y-115937100D01*
X125517600Y-115937100D02*
X123940000Y-117514700D01*
X133920000Y-48040000D02*
X133920000Y-49165300D01*
X123940000Y-118640000D02*
X123940000Y-117514700D01*
X123940000Y-123780000D02*
X123940000Y-118640000D01*
X123940000Y-123780000D02*
X123940000Y-128890000D01*
%TO.N,Net-(R17-Pad2)*%
X146520000Y-64980000D02*
X146520000Y-70775200D01*
X146520000Y-70775200D02*
X138658700Y-78636500D01*
X138658700Y-78636500D02*
X138658700Y-104407600D01*
X138658700Y-104407600D02*
X130108400Y-112957900D01*
X130108400Y-112957900D02*
X130108400Y-126646300D01*
X130108400Y-126646300D02*
X123860000Y-132894700D01*
X123860000Y-134020000D02*
X123860000Y-132894700D01*
%TO.N,Net-(R18-Pad2)*%
X131380000Y-48040000D02*
X131380000Y-51068400D01*
X131380000Y-51068400D02*
X130110000Y-52338400D01*
X130110000Y-52338400D02*
X130110000Y-60201600D01*
X130110000Y-60201600D02*
X127992600Y-62319000D01*
X127992600Y-62319000D02*
X127992600Y-91415900D01*
X127992600Y-91415900D02*
X122330900Y-97077600D01*
X122330900Y-97077600D02*
X122330900Y-109252200D01*
X122330900Y-109252200D02*
X125067300Y-111988600D01*
X125067300Y-111988600D02*
X125067300Y-115168200D01*
X125067300Y-115168200D02*
X122726900Y-117508600D01*
X122726900Y-117508600D02*
X122726900Y-136961600D01*
X122726900Y-136961600D02*
X123790000Y-138024700D01*
X123790000Y-139150000D02*
X123790000Y-138024700D01*
%TO.N,-12V*%
X137050000Y-43935300D02*
X140270000Y-47155300D01*
X140270000Y-47155300D02*
X140270000Y-48520500D01*
X140270000Y-48520500D02*
X147879700Y-56130200D01*
X147879700Y-56130200D02*
X147879700Y-70501900D01*
X147879700Y-70501900D02*
X148444600Y-71066800D01*
X148444600Y-71066800D02*
X148444600Y-96375400D01*
X148444600Y-96375400D02*
X147750000Y-97070000D01*
X137050000Y-42710000D02*
X137050000Y-43935300D01*
X143910000Y-97340000D02*
X143910000Y-101433100D01*
X143910000Y-101433100D02*
X131539600Y-113803500D01*
X131539600Y-113803500D02*
X131539600Y-137412200D01*
X131539600Y-137412200D02*
X125751500Y-143200300D01*
X125751500Y-143200300D02*
X125751500Y-143983100D01*
X125751500Y-143983100D02*
X124340000Y-145394600D01*
X124340000Y-145394600D02*
X114844600Y-145394600D01*
X114844600Y-145394600D02*
X113690000Y-144240000D01*
X161720000Y-44314700D02*
X161720000Y-42820000D01*
X175310000Y-56760700D02*
X175310000Y-62686900D01*
X175310000Y-62686900D02*
X175110800Y-62886100D01*
X175470000Y-46645300D02*
X175310000Y-46805300D01*
X175310000Y-46805300D02*
X175310000Y-56760700D01*
X175310000Y-56760700D02*
X173521300Y-56760700D01*
X173521300Y-56760700D02*
X169156900Y-52396300D01*
X169156900Y-52396300D02*
X169156900Y-48452600D01*
X169156900Y-48452600D02*
X165019000Y-44314700D01*
X165019000Y-44314700D02*
X161720000Y-44314700D01*
X159310000Y-46724700D02*
X161720000Y-44314700D01*
X175470000Y-44320000D02*
X175470000Y-46645300D01*
X175110800Y-62886100D02*
X175404700Y-63180000D01*
X174040000Y-62886100D02*
X175110800Y-62886100D01*
X159310000Y-47850000D02*
X159310000Y-46724700D01*
X176580000Y-63180000D02*
X175404700Y-63180000D01*
X174040000Y-63180000D02*
X174040000Y-62886100D01*
%TO.N,/SQUARE*%
X179100000Y-113430000D02*
X179100000Y-100690600D01*
X179100000Y-100690600D02*
X159411200Y-81001800D01*
X159411200Y-81001800D02*
X159411200Y-76179100D01*
%TO.N,Net-(R22-Pad2)*%
X164390000Y-47850000D02*
X164390000Y-48975300D01*
X178960000Y-123740000D02*
X178960000Y-122614700D01*
X178960000Y-122614700D02*
X180225400Y-121349300D01*
X180225400Y-121349300D02*
X180225400Y-74901100D01*
X180225400Y-74901100D02*
X163264700Y-57940400D01*
X163264700Y-57940400D02*
X163264700Y-50100600D01*
X163264700Y-50100600D02*
X164390000Y-48975300D01*
%TO.N,Net-(R23-Pad2)*%
X166930000Y-47850000D02*
X166930000Y-48975300D01*
X178960000Y-128820000D02*
X178960000Y-127694700D01*
X178960000Y-127694700D02*
X180678700Y-125976000D01*
X180678700Y-125976000D02*
X180678700Y-74429700D01*
X180678700Y-74429700D02*
X165804700Y-59555700D01*
X165804700Y-59555700D02*
X165804700Y-50100600D01*
X165804700Y-50100600D02*
X166930000Y-48975300D01*
X178960000Y-129382600D02*
X178960000Y-128820000D01*
X178960000Y-129382600D02*
X178960000Y-129945300D01*
X179010000Y-138990000D02*
X179010000Y-137864700D01*
X178960000Y-129945300D02*
X180244700Y-131230000D01*
X180244700Y-131230000D02*
X180244700Y-136630000D01*
X180244700Y-136630000D02*
X179010000Y-137864700D01*
%TO.N,Net-(R24-Pad2)*%
X179110000Y-134010000D02*
X179110000Y-130832100D01*
X179110000Y-130832100D02*
X151345800Y-103067900D01*
X151345800Y-103067900D02*
X151345800Y-84936000D01*
X151345800Y-84936000D02*
X150277200Y-83867400D01*
X150277200Y-83867400D02*
X150277200Y-75739900D01*
X150277200Y-75739900D02*
X151690000Y-74327100D01*
X151690000Y-74327100D02*
X151690000Y-55470000D01*
%TO.N,Net-(R26-Pad2)*%
X179010000Y-143034700D02*
X181129100Y-140915600D01*
X181129100Y-140915600D02*
X181129100Y-73504900D01*
X181129100Y-73504900D02*
X166930000Y-59305800D01*
X166930000Y-59305800D02*
X166930000Y-55470000D01*
X179010000Y-144160000D02*
X179010000Y-143034700D01*
%TO.N,Net-(RV5-Pad2)*%
X134550000Y-42710000D02*
X137730000Y-45890000D01*
X137730000Y-45890000D02*
X137730000Y-49081700D01*
X137730000Y-49081700D02*
X142810000Y-54161700D01*
X142810000Y-54161700D02*
X142810000Y-59983900D01*
X142810000Y-59983900D02*
X147429300Y-64603200D01*
X147429300Y-64603200D02*
X147429300Y-83362900D01*
X147429300Y-83362900D02*
X145920100Y-84872100D01*
X145920100Y-84872100D02*
X145920100Y-97088800D01*
X145920100Y-97088800D02*
X144404600Y-98604300D01*
X144404600Y-98604300D02*
X144404600Y-111137400D01*
X144404600Y-111137400D02*
X146101900Y-112834700D01*
X146101900Y-112834700D02*
X147230000Y-112834700D01*
X147230000Y-114760000D02*
X147230000Y-112834700D01*
%TO.N,Net-(RV7-Pad1)*%
X143980000Y-67520000D02*
X143980000Y-66610700D01*
X141540000Y-55660000D02*
X141540000Y-64170700D01*
X141540000Y-64170700D02*
X143980000Y-66610700D01*
%TD*%
M02*
