G04 #@! TF.GenerationSoftware,KiCad,Pcbnew,5.1.8*
G04 #@! TF.CreationDate,2020-12-03T15:53:58+01:00*
G04 #@! TF.ProjectId,AS3340-VCO,41533333-3430-42d5-9643-4f2e6b696361,1*
G04 #@! TF.SameCoordinates,Original*
G04 #@! TF.FileFunction,Soldermask,Bot*
G04 #@! TF.FilePolarity,Negative*
%FSLAX46Y46*%
G04 Gerber Fmt 4.6, Leading zero omitted, Abs format (unit mm)*
G04 Created by KiCad (PCBNEW 5.1.8) date 2020-12-03 15:53:58*
%MOMM*%
%LPD*%
G01*
G04 APERTURE LIST*
%ADD10O,1.600000X1.600000*%
%ADD11R,1.600000X1.600000*%
%ADD12C,1.168000*%
%ADD13R,1.168000X1.168000*%
%ADD14C,2.000000*%
%ADD15C,1.398000*%
%ADD16R,1.398000X1.398000*%
%ADD17O,7.400000X3.200000*%
%ADD18C,1.600000*%
%ADD19O,2.720000X3.240000*%
%ADD20C,1.800000*%
%ADD21R,1.800000X1.800000*%
%ADD22C,2.130000*%
%ADD23R,1.930000X1.830000*%
G04 APERTURE END LIST*
G36*
G01*
X146146000Y-41912250D02*
X146146000Y-41399750D01*
G75*
G02*
X146364750Y-41181000I218750J0D01*
G01*
X146802250Y-41181000D01*
G75*
G02*
X147021000Y-41399750I0J-218750D01*
G01*
X147021000Y-41912250D01*
G75*
G02*
X146802250Y-42131000I-218750J0D01*
G01*
X146364750Y-42131000D01*
G75*
G02*
X146146000Y-41912250I0J218750D01*
G01*
G37*
G36*
G01*
X144571000Y-41912250D02*
X144571000Y-41399750D01*
G75*
G02*
X144789750Y-41181000I218750J0D01*
G01*
X145227250Y-41181000D01*
G75*
G02*
X145446000Y-41399750I0J-218750D01*
G01*
X145446000Y-41912250D01*
G75*
G02*
X145227250Y-42131000I-218750J0D01*
G01*
X144789750Y-42131000D01*
G75*
G02*
X144571000Y-41912250I0J218750D01*
G01*
G37*
D10*
X137922000Y-81788000D03*
D11*
X137922000Y-89408000D03*
D10*
X152654000Y-95250000D03*
D11*
X152654000Y-102870000D03*
D10*
X152654000Y-83312000D03*
D11*
X152654000Y-90932000D03*
D12*
X174244000Y-79185000D03*
X176784000Y-76645000D03*
D13*
X176784000Y-81725000D03*
D12*
X174244000Y-88485000D03*
X176784000Y-85945000D03*
D13*
X176784000Y-91025000D03*
D12*
X174244000Y-97780000D03*
X176784000Y-95240000D03*
D13*
X176784000Y-100320000D03*
D14*
X174200000Y-107540000D03*
X174200000Y-112540000D03*
D15*
X173180000Y-46830000D03*
X173180000Y-44290000D03*
X175720000Y-46830000D03*
X175720000Y-44290000D03*
D16*
X173180000Y-36670000D03*
D15*
X173180000Y-39210000D03*
X175720000Y-36670000D03*
X175720000Y-39210000D03*
X173180000Y-41750000D03*
X175720000Y-41750000D03*
D17*
X117990000Y-26416000D03*
X174244000Y-26416000D03*
X174200000Y-149560000D03*
X118000000Y-149560000D03*
D18*
X175700000Y-69080000D03*
D11*
X173200000Y-69080000D03*
D18*
X175900000Y-59380000D03*
D11*
X173400000Y-59380000D03*
D10*
X114046000Y-139446000D03*
X121666000Y-121666000D03*
X114046000Y-136906000D03*
X121666000Y-124206000D03*
X114046000Y-134366000D03*
X121666000Y-126746000D03*
X114046000Y-131826000D03*
X121666000Y-129286000D03*
X114046000Y-129286000D03*
X121666000Y-131826000D03*
X114046000Y-126746000D03*
X121666000Y-134366000D03*
X114046000Y-124206000D03*
X121666000Y-136906000D03*
X114046000Y-121666000D03*
D11*
X121666000Y-139446000D03*
D10*
X178562000Y-124206000D03*
X170942000Y-139446000D03*
X178562000Y-126746000D03*
X170942000Y-136906000D03*
X178562000Y-129286000D03*
X170942000Y-134366000D03*
X178562000Y-131826000D03*
X170942000Y-131826000D03*
X178562000Y-134366000D03*
X170942000Y-129286000D03*
X178562000Y-136906000D03*
X170942000Y-126746000D03*
X178562000Y-139446000D03*
D11*
X170942000Y-124206000D03*
D19*
X166638000Y-74034000D03*
X157038000Y-74034000D03*
D20*
X159338000Y-81534000D03*
X161838000Y-81534000D03*
D21*
X164338000Y-81534000D03*
D19*
X166892000Y-40252000D03*
X157292000Y-40252000D03*
D20*
X159592000Y-47752000D03*
X162092000Y-47752000D03*
D21*
X164592000Y-47752000D03*
D19*
X150596000Y-57778000D03*
X140996000Y-57778000D03*
D20*
X143296000Y-65278000D03*
X145796000Y-65278000D03*
D21*
X148296000Y-65278000D03*
D19*
X134380000Y-74288000D03*
X124780000Y-74288000D03*
D20*
X127080000Y-81788000D03*
X129580000Y-81788000D03*
D21*
X132080000Y-81788000D03*
D19*
X134380000Y-40252000D03*
X124780000Y-40252000D03*
D20*
X127080000Y-47752000D03*
X129580000Y-47752000D03*
D21*
X132080000Y-47752000D03*
D22*
X129794000Y-138908000D03*
D23*
X129794000Y-127508000D03*
D22*
X129794000Y-130608000D03*
X145796000Y-138654000D03*
D23*
X145796000Y-127254000D03*
D22*
X145796000Y-130354000D03*
X161544000Y-138400000D03*
D23*
X161544000Y-127000000D03*
D22*
X161544000Y-130100000D03*
X161798000Y-99030000D03*
D23*
X161798000Y-87630000D03*
D22*
X161798000Y-90730000D03*
X145796000Y-117826000D03*
D23*
X145796000Y-106426000D03*
D22*
X145796000Y-109526000D03*
X161544000Y-117826000D03*
D23*
X161544000Y-106426000D03*
D22*
X161544000Y-109526000D03*
X129540000Y-117826000D03*
D23*
X129540000Y-106426000D03*
D22*
X129540000Y-109526000D03*
X145796000Y-80996000D03*
D23*
X145796000Y-69596000D03*
D22*
X145796000Y-72696000D03*
X129540000Y-99030000D03*
D23*
X129540000Y-87630000D03*
D22*
X129540000Y-90730000D03*
X129794000Y-64994000D03*
D23*
X129794000Y-53594000D03*
D22*
X129794000Y-56694000D03*
X162052000Y-64994000D03*
D23*
X162052000Y-53594000D03*
D22*
X162052000Y-56694000D03*
M02*
